<?xml version="1.0" encoding="utf-8"?>
<!-- Generator: Adobe Illustrator 26.0.1, SVG Export Plug-In . SVG Version: 6.00 Build 0)  -->
<svg version="1.1" id="Layer_1" xmlns="http://www.w3.org/2000/svg" xmlns:xlink="http://www.w3.org/1999/xlink" x="0px" y="0px"
	 viewBox="0 0 48 48" style="enable-background:new 0 0 48 48;" xml:space="preserve">
<style type="text/css">
	.st0{fill:#555555;}
</style>
<path class="st0" d="M12.6,41.1c-3.2,0-5.9-1.1-8.2-3.3S1,32.8,1,29.5c0-2.7,0.9-5.2,2.5-7.4s3.9-3.5,6.6-4c0.7-3.3,2.4-6,5-8.1
	s5.6-3.1,8.9-3.1c3.8,0,7.1,1.4,9.8,4.1s4.2,6.1,4.4,9.9v1.2c2.5,0.3,4.6,1.3,6.2,3c1.6,1.8,2.4,3.9,2.4,6.5c0,2.6-0.9,4.9-2.8,6.7
	c-1.8,1.8-4.1,2.8-6.7,2.8L12.6,41.1z"/>
</svg>
