<?xml version="1.0" encoding="utf-8"?>
<!-- Generator: Adobe Illustrator 26.0.1, SVG Export Plug-In . SVG Version: 6.00 Build 0)  -->
<svg version="1.1" id="Layer_1" xmlns="http://www.w3.org/2000/svg" xmlns:xlink="http://www.w3.org/1999/xlink" x="0px" y="0px"
	 viewBox="0 0 34 34" style="enable-background:new 0 0 34 34;" xml:space="preserve">
<style type="text/css">
	.st0{fill:#0585FF;}
</style>
<path class="st0" d="M10.8,24.5c-0.3,0-0.6-0.1-0.9-0.4c-0.2-0.2-0.4-0.5-0.4-0.9v-9.1c0-0.3,0.1-0.6,0.4-0.9
	c0.2-0.2,0.5-0.4,0.9-0.4h2.2v-2.2c0-0.3,0.1-0.6,0.4-0.9c0.2-0.2,0.5-0.4,0.9-0.4h5.6c0.3,0,0.6,0.1,0.9,0.4
	c0.2,0.2,0.4,0.5,0.4,0.9v5.6h2.2c0.3,0,0.6,0.1,0.9,0.4c0.2,0.2,0.4,0.5,0.4,0.9v5.6c0,0.3-0.1,0.6-0.4,0.9s-0.5,0.4-0.9,0.4h-5.1
	v-3.4h-2.2v3.4H10.8z M10.8,23.2h2.2v-2.2h-2.2V23.2z M10.8,19.8h2.2v-2.2h-2.2V19.8z M10.8,16.4h2.2v-2.2h-2.2V16.4z M14.2,19.8
	h2.2v-2.2h-2.2V19.8z M14.2,16.4h2.2v-2.2h-2.2V16.4z M14.2,12.9h2.2v-2.2h-2.2V12.9z M17.6,19.8h2.2v-2.2h-2.2V19.8z M17.6,16.4
	h2.2v-2.2h-2.2V16.4z M17.6,12.9h2.2v-2.2h-2.2V12.9z M21.1,23.2h2.2v-2.2h-2.2V23.2z M21.1,19.8h2.2v-2.2h-2.2V19.8z"/>
</svg>
