<?xml version="1.0" encoding="utf-8"?>
<!-- Generator: Adobe Illustrator 26.0.1, SVG Export Plug-In . SVG Version: 6.00 Build 0)  -->
<svg version="1.1" id="Layer_1" xmlns="http://www.w3.org/2000/svg" xmlns:xlink="http://www.w3.org/1999/xlink" x="0px" y="0px"
	 viewBox="0 0 34 34" style="enable-background:new 0 0 34 34;" xml:space="preserve">
<style type="text/css">
	.st0{fill:#0585FF;}
</style>
<path class="st0" d="M2.9,30.5c-0.8,0-1.5-0.3-2-0.8c-0.6-0.6-0.8-1.2-0.8-2V6.4c0-0.8,0.3-1.5,0.8-2s1.2-0.8,2-0.8h20.2
	c0.7,0,1.3,0.2,1.9,0.6c0.6,0.4,1.1,0.8,1.5,1.4l7,9.8c0.4,0.5,0.5,1.1,0.5,1.7s-0.2,1.2-0.5,1.7l-7,9.8c-0.4,0.6-0.9,1-1.5,1.4
	c-0.6,0.4-1.2,0.6-1.9,0.6H2.9z"/>
</svg>
