<?xml version="1.0" encoding="utf-8"?>
<!-- Generator: Adobe Illustrator 26.0.1, SVG Export Plug-In . SVG Version: 6.00 Build 0)  -->
<svg version="1.1" id="Layer_1" xmlns="http://www.w3.org/2000/svg" xmlns:xlink="http://www.w3.org/1999/xlink" x="0px" y="0px"
	 viewBox="0 0 22 18" style="enable-background:new 0 0 22 18;" xml:space="preserve">
<style type="text/css">
	.st0{fill:#0585FF;}
</style>
<path class="st0" d="M5.3,17c-1.5,0-2.7-0.5-3.7-1.5c-1-1-1.5-2.3-1.5-3.7c0-1.3,0.4-2.4,1.2-3.4s1.9-1.6,3.2-1.8
	c0.3-1.6,1.1-2.9,2.3-4S9.4,1,11.1,1c1.9,0,3.4,0.7,4.7,2s1.9,3,1.9,4.9v0.6c1.2,0,2.2,0.4,3,1.2s1.2,1.8,1.2,3.1
	c0,1.2-0.4,2.1-1.2,3c-0.8,0.8-1.8,1.3-3,1.3H5.3z"/>
</svg>
