<?xml version="1.0" encoding="utf-8"?>
<!-- Generator: Adobe Illustrator 26.0.1, SVG Export Plug-In . SVG Version: 6.00 Build 0)  -->
<svg version="1.1" id="Layer_1" xmlns="http://www.w3.org/2000/svg" xmlns:xlink="http://www.w3.org/1999/xlink" x="0px" y="0px"
	 viewBox="0 0 34 34" style="enable-background:new 0 0 34 34;" xml:space="preserve">
<style type="text/css">
	.st0{fill:#0585FF;}
</style>
<path class="st0" d="M11.8,24.3c-1.3,0-2.5-0.5-3.4-1.4C7.5,21.9,7,20.8,7,19.5c0-1.2,0.4-2.2,1.1-3.1c0.8-0.9,1.7-1.4,2.9-1.6
	c0.3-1.5,1-2.7,2.1-3.6s2.4-1.4,3.9-1.4c1.7,0,3.1,0.6,4.3,1.9c1.2,1.2,1.8,2.7,1.8,4.4v0.5c1.1,0,2,0.3,2.8,1.1s1.1,1.7,1.1,2.8
	c0,1-0.4,1.9-1.1,2.7s-1.7,1.1-2.7,1.1H11.8z"/>
</svg>
