<?xml version="1.0" encoding="utf-8"?>
<!-- Generator: Adobe Illustrator 26.0.1, SVG Export Plug-In . SVG Version: 6.00 Build 0)  -->
<svg version="1.1" id="Layer_1" xmlns="http://www.w3.org/2000/svg" xmlns:xlink="http://www.w3.org/1999/xlink" x="0px" y="0px"
	 viewBox="0 0 22 18" style="enable-background:new 0 0 22 18;" xml:space="preserve">
<style type="text/css">
	.st0{fill:#0585FF;}
</style>
<path class="st0" d="M1.9,17c-0.5,0-1-0.2-1.3-0.5S0,15.8,0,15.3V2.7c0-0.5,0.2-0.9,0.5-1.2S1.3,1,1.9,1h13.1c0.5,0,0.9,0.1,1.2,0.3
	s0.7,0.5,1,0.8L21.7,8C21.9,8.3,22,8.6,22,9s-0.1,0.7-0.3,1l-4.5,5.8c-0.3,0.3-0.6,0.6-1,0.8c-0.4,0.2-0.8,0.3-1.2,0.3H1.9z"/>
</svg>
