<?xml version="1.0" encoding="utf-8"?>
<!-- Generator: Adobe Illustrator 26.0.1, SVG Export Plug-In . SVG Version: 6.00 Build 0)  -->
<svg version="1.1" id="Layer_1" xmlns="http://www.w3.org/2000/svg" xmlns:xlink="http://www.w3.org/1999/xlink" x="0px" y="0px"
	 viewBox="0 0 22 18" style="enable-background:new 0 0 22 18;" xml:space="preserve">
<style type="text/css">
	.st0{fill:#0585FF;}
</style>
<path class="st0" d="M14.6,17V8.4c0-0.2-0.1-0.5-0.2-0.7c-0.1-0.2-0.2-0.4-0.4-0.5L9.3,3.9V2.3c0-0.4,0.1-0.7,0.4-0.9S10.3,1,10.7,1
	h8.8c0.4,0,0.7,0.1,0.9,0.4s0.4,0.6,0.4,0.9v13.3c0,0.4-0.1,0.7-0.4,0.9S19.8,17,19.4,17H14.6z M15.8,13.4h1.3v-1.3h-1.3V13.4z
	 M15.8,9.6h1.3V8.3h-1.3V9.6z M15.8,5.8h1.3V4.5h-1.3V5.8z M1.2,16.3V9c0-0.2,0-0.4,0.1-0.6s0.2-0.4,0.4-0.5l4.7-3.4
	C6.7,4.4,7,4.3,7.2,4.3S7.8,4.4,8,4.6l4.7,3.4c0.2,0.1,0.3,0.3,0.4,0.5c0.1,0.2,0.1,0.4,0.1,0.6v7.3c0,0.2-0.1,0.4-0.2,0.5
	c-0.1,0.1-0.3,0.2-0.5,0.2H9v-4.9H5.5V17H1.9c-0.2,0-0.4-0.1-0.5-0.2S1.2,16.5,1.2,16.3z"/>
</svg>
