<?xml version="1.0" encoding="utf-8"?>
<!-- Generator: Adobe Illustrator 26.0.1, SVG Export Plug-In . SVG Version: 6.00 Build 0)  -->
<svg version="1.1" id="Layer_1" xmlns="http://www.w3.org/2000/svg" xmlns:xlink="http://www.w3.org/1999/xlink" x="0px" y="0px"
	 viewBox="0 0 34 34" style="enable-background:new 0 0 34 34;" xml:space="preserve">
<style type="text/css">
	.st0{fill:#0585FF;}
</style>
<path class="st0" d="M2.8,34c-0.8,0-1.5-0.3-2-0.8C0.3,32.6,0,32,0,31.2V10.6c0-0.8,0.3-1.5,0.8-2c0.6-0.6,1.2-0.8,2-0.8h5v-5
	c0-0.8,0.3-1.5,0.8-2C9.2,0.3,9.8,0,10.6,0h12.8c0.8,0,1.5,0.3,2,0.8s0.8,1.2,0.8,2v12.8h5c0.8,0,1.5,0.3,2,0.8
	c0.6,0.6,0.8,1.2,0.8,2v12.8c0,0.8-0.3,1.5-0.8,2c-0.6,0.6-1.2,0.8-2,0.8H19.5v-7.8h-5V34H2.8z M2.8,31.2h5v-5h-5V31.2z M2.8,23.4h5
	v-5h-5V23.4z M2.8,15.6h5v-5h-5V15.6z M10.6,23.4h5v-5h-5V23.4z M10.6,15.6h5v-5h-5V15.6z M10.6,7.8h5v-5h-5V7.8z M18.4,23.4h5v-5
	h-5V23.4z M18.4,15.6h5v-5h-5V15.6z M18.4,7.8h5v-5h-5V7.8z M26.2,31.2h5v-5h-5V31.2z M26.2,23.4h5v-5h-5V23.4z"/>
</svg>
