<?xml version="1.0" encoding="utf-8"?>
<!-- Generator: Adobe Illustrator 26.0.1, SVG Export Plug-In . SVG Version: 6.00 Build 0)  -->
<svg version="1.1" id="Layer_1" xmlns="http://www.w3.org/2000/svg" xmlns:xlink="http://www.w3.org/1999/xlink" x="0px" y="0px"
	 viewBox="0 0 100 100" style="enable-background:new 0 0 100 100;" xml:space="preserve">
<style type="text/css">
	.st0{fill:#FFBA9F;}
	.st1{fill:#F15A24;}
	.st2{fill:#7F90B1;}
	.st3{fill:#E8F2FF;}
	.st4{fill:#98C2FF;}
	.st5{fill:#71FFFF;}
	.st6{fill:#C6DFFF;}
	.st7{fill:#FFFFFF;}
	.st8{fill:#336DFF;}
	.st9{fill:#011435;}
	.st10{fill:#242528;}
	.st11{fill:none;stroke:#58595B;stroke-width:5.000000e-02;stroke-miterlimit:10;}
	.st12{fill:#414042;}
	.st13{fill:url(#SVGID_1_);}
	.st14{fill:url(#SVGID_00000026140107224738849270000012764239753366058657_);}
	.st15{fill:url(#SVGID_00000028304380874637843010000013443502807141403546_);}
	.st16{clip-path:url(#SVGID_00000103960504199665456510000018377699810281997228_);}
</style>
<path class="st0" d="M19.5,14.7c-0.3,0.5,0.4,0.9,0.2,2c-0.1,0.6-0.4,1.4-1,2c-0.4,0.4-0.5,0.3-0.5,0.5c-0.3,0.7,1.1,1.4,2.2,3.1
	c1.1,1.6,1.1,2.9,1.5,2.9c0.5,0,0.4-1.3,1.6-3.2c0.6-0.9,1-1.6,1.8-2c0.6-0.4,1.2-0.5,1.2-0.8c0-0.2-0.5-0.3-1.1-0.8
	c0,0-0.9-0.7-1.2-1.8c-0.3-1,0.2-1.3-0.1-1.8C23.5,13.6,20.1,13.6,19.5,14.7z"/>
<path class="st0" d="M22.4,16.5h-1.4c-1.6,0-2.9-1.3-2.9-2.9V7.9c0-1.6,1.3-2.9,2.9-2.9h1.4c1.6,0,2.9,1.3,2.9,2.9v5.7
	C25.3,15.2,24,16.5,22.4,16.5z"/>
<path d="M18.2,10c-0.2-0.1-0.4-0.3-0.7-0.6c-0.1-0.1-0.3-0.5-0.4-1c-0.1-0.4,0-0.7,0-0.8c0-0.2,0.1-0.6,0.4-0.9
	c0.1-0.1,0.3-0.3,0.6-0.4c0.1,0,0.3,0,0.4,0c0,0,0.1-0.1,0.2,0c0.2,0.1,0.1,0.4,0.1,0.4c0,0,0,0-0.1,0c0,0-0.1,0.1-0.1,0.1
	c-0.4,1.6-0.5,2.9-0.5,2.9C18.2,9.9,18.2,10,18.2,10z"/>
<path class="st0" d="M18.6,9.8c-0.1-0.1-0.3-0.3-0.6-0.3c-0.1,0-0.4-0.1-0.6,0.1c-0.1,0.1-0.1,0.3,0,0.6c0.1,0.5,0.3,0.9,0.4,0.9
	c0.2,0.3,0.3,0.5,0.5,0.6c0.1,0.1,0.3,0.2,0.5,0.1C19.1,11.6,19.2,10.4,18.6,9.8z"/>
<path d="M18.1,3.2c-0.1,0.1-0.7,0.4-0.9,1c-0.1,0.4,0,0.8,0.1,1c0,0.1,0.1,0.5,0.4,0.8c0.1,0.2,0.4,0.5,1,0.7
	c0.3,0.1,0.6,0.1,0.9,0.1c0.2,0,0.8,0,1.6-0.3c0.5-0.2,0.6-0.2,0.9-0.2c0.4,0,0.7,0.2,0.9,0.3c0.4,0.2,0.4,0.3,0.6,0.5
	c0.6,0.4,1.5,0.4,1.9-0.1c0.1-0.2,0.2-0.4,0.3-0.5C25.9,6.4,26,6.2,26,6c0-0.5-0.6-0.8-0.7-0.9c-0.5-0.3-1.1-0.2-1.4-0.2
	C23.2,5,23,5.2,22.6,5.1c-0.4-0.1-0.7-0.3-0.8-0.4c-0.3-0.2-0.4-0.4-0.7-0.8c-0.2-0.2-0.5-0.5-0.9-0.7C19.7,2.9,18.8,2.7,18.1,3.2z"
	/>
<path d="M25.1,10.1c0.2-0.1,0.5-0.2,0.7-0.4c0,0,0,0,0,0c0.8-0.6,0.8-1.5,0.8-1.5c0-0.6-0.2-1-0.3-1.1c-0.2-0.3-0.6-0.8-0.9-0.7
	c0,0-0.2,0.1-0.2,0.5c0,0-0.1-0.1-0.2,0c-0.2,0-0.2,0.3-0.1,0.4c0,0,0,0,0.1,0c0,0,0,0,0,0.1C25.1,7.6,25.1,9.9,25.1,10.1z"/>
<g>
	<polygon class="st1" points="1,87.1 32.6,63.8 57.9,72.4 98.2,42.9 58.5,74.9 33.1,66.6 1,90.4 	"/>
	<polygon class="st1" points="94.4,41.8 98.4,46.7 99,42 	"/>
</g>
<path class="st0" d="M25,9.8c0.1-0.1,0.3-0.3,0.6-0.3c0.1,0,0.4-0.1,0.6,0.1c0.1,0.1,0.1,0.3,0,0.6c-0.1,0.5-0.3,0.9-0.4,0.9
	c-0.2,0.3-0.3,0.5-0.5,0.6c-0.1,0.1-0.3,0.2-0.5,0.1C24.4,11.6,24.4,10.4,25,9.8z"/>
<g>
	<path class="st2" d="M77.2,98.4H42.4c-1.4,0-2.6-1.2-2.6-2.6V48.3c0-1.4,1.2-2.6,2.6-2.6h34.7c1.4,0,2.6,1.2,2.6,2.6v47.5
		C79.7,97.3,78.6,98.4,77.2,98.4z"/>
	<rect x="43.4" y="49.4" class="st3" width="33.5" height="11.8"/>
	<path class="st4" d="M67,67H43.9c-0.3,0-0.6-0.2-0.6-0.6v-1.8c0-0.3,0.2-0.6,0.6-0.6h23c0.3,0,0.6,0.2,0.6,0.6v1.8
		C67.6,66.8,67.3,67,67,67z"/>
	<path class="st5" d="M76.5,67h-7.1c-0.2,0-0.3-0.1-0.3-0.3v-2.2c0-0.2,0.1-0.3,0.3-0.3h7.1c0.2,0,0.3,0.1,0.3,0.3v2.2
		C76.8,66.9,76.7,67,76.5,67z"/>
	<path class="st4" d="M76.3,76.2h-6.7c-0.3,0-0.5-0.2-0.5-0.5v-6.2c0-0.3,0.2-0.5,0.5-0.5h6.7c0.3,0,0.5,0.2,0.5,0.5v6.2
		C76.8,75.9,76.6,76.2,76.3,76.2z"/>
	<g>
		<path class="st6" d="M50.2,76.2H44c-0.3,0-0.5-0.2-0.5-0.5v-6.2c0-0.3,0.2-0.5,0.5-0.5h6.2c0.3,0,0.5,0.2,0.5,0.5v6.2
			C50.7,75.9,50.5,76.2,50.2,76.2z"/>
		<path class="st6" d="M58.7,76.2h-6.2c-0.3,0-0.5-0.2-0.5-0.5v-6.2c0-0.3,0.2-0.5,0.5-0.5h6.2c0.3,0,0.5,0.2,0.5,0.5v6.2
			C59.2,75.9,59,76.2,58.7,76.2z"/>
		<path class="st6" d="M67.2,76.2h-6.2c-0.3,0-0.5-0.2-0.5-0.5v-6.2c0-0.3,0.2-0.5,0.5-0.5h6.2c0.3,0,0.5,0.2,0.5,0.5v6.2
			C67.7,75.9,67.4,76.2,67.2,76.2z"/>
	</g>
	<g>
		<path class="st6" d="M50.2,84.8H44c-0.3,0-0.5-0.2-0.5-0.5v-6.2c0-0.3,0.2-0.5,0.5-0.5h6.2c0.3,0,0.5,0.2,0.5,0.5v6.2
			C50.7,84.6,50.5,84.8,50.2,84.8z"/>
		<path class="st6" d="M58.7,84.8h-6.2c-0.3,0-0.5-0.2-0.5-0.5v-6.2c0-0.3,0.2-0.5,0.5-0.5h6.2c0.3,0,0.5,0.2,0.5,0.5v6.2
			C59.2,84.6,59,84.8,58.7,84.8z"/>
		<path class="st6" d="M67.2,84.8h-6.2c-0.3,0-0.5-0.2-0.5-0.5v-6.2c0-0.3,0.2-0.5,0.5-0.5h6.2c0.3,0,0.5,0.2,0.5,0.5v6.2
			C67.7,84.6,67.4,84.8,67.2,84.8z"/>
	</g>
	<g>
		<path class="st6" d="M50.2,93.5H44c-0.3,0-0.5-0.2-0.5-0.5v-6.2c0-0.3,0.2-0.5,0.5-0.5h6.2c0.3,0,0.5,0.2,0.5,0.5V93
			C50.7,93.2,50.5,93.5,50.2,93.5z"/>
		<path class="st6" d="M58.7,93.5h-6.2c-0.3,0-0.5-0.2-0.5-0.5v-6.2c0-0.3,0.2-0.5,0.5-0.5h6.2c0.3,0,0.5,0.2,0.5,0.5V93
			C59.2,93.2,59,93.5,58.7,93.5z"/>
		<path class="st6" d="M67.2,93.5h-6.2c-0.3,0-0.5-0.2-0.5-0.5v-6.2c0-0.3,0.2-0.5,0.5-0.5h6.2c0.3,0,0.5,0.2,0.5,0.5V93
			C67.7,93.2,67.4,93.5,67.2,93.5z"/>
	</g>
	<path class="st4" d="M76.1,93.5h-6.2c-0.4,0-0.8-0.3-0.8-0.8V78.4c0-0.4,0.3-0.8,0.8-0.8h6.2c0.4,0,0.8,0.3,0.8,0.8v14.4
		C76.8,93.1,76.5,93.5,76.1,93.5z"/>
	<path class="st7" d="M63.4,49.4l-4.7,11.8c1.9,0,3.8,0,5.8,0c1.6-4,3.1-7.9,4.7-11.8H63.4z"/>
	<ellipse transform="matrix(0.3563 -0.9344 0.9344 0.3563 -7.0461 100.4674)" class="st7" cx="69.4" cy="55.3" rx="9" ry="0.7"/>
</g>
<path class="st8" d="M18.5,19.4l-5.8,0.6L7.4,34c1.9,3.4,3.7,6.8,5.6,10.2l0.5-6.6L12.1,35l1.2-3.2l4.9-6.3L18.5,19.4z"/>
<path class="st0" d="M40.5,44.1c0.3,0.9,0.5,1.8,0.8,2.7c0.4-0.3,0.9-0.5,1.3-0.8c2.4,0.1,4.8,0.2,7.2,0.3l-6.3-1.9
	c-0.3-0.4-0.6-0.7-0.8-1.1C41.9,43.6,41.2,43.8,40.5,44.1z"/>
<path class="st8" d="M25.7,18.9c2.3,0,4.7-0.1,7-0.1c1.5,4.7,3,9.4,4.5,14.1c1.9,3.5,3.7,7.1,5.6,10.6c-0.8,0.2-1.6,0.3-2.4,0.5
	c-1.8-2.6-3.5-5.1-5.3-7.7c-1.5-3-3.1-5.9-4.6-8.9l-0.7,18.8H12.9l0.2-25.4c-0.1-0.3-0.3-0.6-0.4-1c1.9-0.3,3.7-0.6,5.6-0.9
	c1.1,1.6,2.3,3.1,3.4,4.7C23,22.1,24.4,20.5,25.7,18.9z"/>
<polygon class="st0" points="37.3,90.6 37.7,93.4 35.7,93.8 34.9,90.4 "/>
<polygon class="st0" points="11.9,90.7 11.7,93.7 13.8,93.9 14.3,90.3 "/>
<path class="st9" d="M12.9,45.9l-0.6,22.3l-1,22.9H15l2.1-19.6l4.3-22.7l5.3,16.4l2,5.7l5.6,19.8l4.1,0.1l-4.7-19.4
	c-1.3-8.4-2.6-16.9-4-25.3C24.2,45.9,18.6,45.9,12.9,45.9z"/>
<polygon class="st10" points="11.7,93.7 9.6,95.4 1.7,98.3 13,98.3 13.9,98.3 14.3,96 14.3,93.7 "/>
<polygon class="st10" points="37.9,93.3 40.1,95.2 48,98.3 36.7,98.3 35.7,98.3 35.4,95.8 35.4,93.3 "/>
<path class="st7" d="M20.5,13.9H23c-0.1,0.1-0.5,0.9-1.3,0.9C21,14.8,20.5,14,20.5,13.9z"/>
<polyline class="st11" points="21.6,11.1 21.2,12.2 21.7,12.9 "/>
<circle class="st12" cx="23.3" cy="10.5" r="0.2"/>
<circle class="st12" cx="20.1" cy="10.5" r="0.2"/>
<g>
	<g>
		<path class="st12" d="M12.9,28.3c0.3,4.7,0.3,9.4,0.2,14.1C12.7,37.7,12.7,33,12.9,28.3L12.9,28.3z"/>
	</g>
	<g>
		<path class="st12" d="M13,32.7c-0.2,0.8-0.5,1.6-0.9,2.3l0-0.2c0.4,0.7,0.7,1.3,1,2c-0.5-0.6-0.9-1.3-1.4-1.9
			C12.1,34.2,12.4,33.4,13,32.7L13,32.7z"/>
	</g>
	<g>
		<path class="st12" d="M18.2,10.8c0.2,3-0.3,4.9,3.3,5.7C17.8,16.4,17.6,13.8,18.2,10.8L18.2,10.8z"/>
	</g>
	<g>
		<path class="st12" d="M18.3,19.1c-1.8,0.4-3.7,0.7-5.6,1l0.2-0.1c-0.4,1.1-0.8,2.2-1.3,3.3c-0.4,1.1-0.9,2.2-1.4,3.2
			c0.3-1.1,0.7-2.2,1.1-3.4c0.4-1.1,0.8-2.3,1.3-3.4C14.5,19.5,16.4,19.2,18.3,19.1L18.3,19.1z"/>
	</g>
</g>
<g>
	<path class="st12" d="M42.9,43.6c0.2,0.2,0.4,0.5,0.7,0.8l0,0c2.2,0.5,4.3,1.1,6.3,2c-2.2-0.4-4.3-1-6.4-1.8l0,0
		C43.2,44.2,43,43.9,42.9,43.6L42.9,43.6z"/>
</g>
<linearGradient id="SVGID_1_" gradientUnits="userSpaceOnUse" x1="36.71" y1="84.95" x2="36.71" y2="88.623" gradientTransform="matrix(1 0 0 -1 0 102)">
	<stop  offset="0.2901" style="stop-color:#A8E1FF"/>
	<stop  offset="0.8464" style="stop-color:#DCFDFE"/>
</linearGradient>
<ellipse class="st13" cx="36.7" cy="15.2" rx="3.7" ry="1.8"/>
<linearGradient id="SVGID_00000073001787221960342860000004722683152030870435_" gradientUnits="userSpaceOnUse" x1="31.62" y1="89.89" x2="31.62" y2="92.0446" gradientTransform="matrix(1 0 0 -1 0 102)">
	<stop  offset="0.3935" style="stop-color:#A8E1FF"/>
	<stop  offset="1" style="stop-color:#DCFDFE"/>
</linearGradient>
<ellipse style="fill:url(#SVGID_00000073001787221960342860000004722683152030870435_);" cx="31.6" cy="11" rx="1.7" ry="1.1"/>
<g>
	
		<linearGradient id="SVGID_00000079467432636671446990000017592238815754470301_" gradientUnits="userSpaceOnUse" x1="69.5186" y1="99.0767" x2="69.5186" y2="57.4088" gradientTransform="matrix(1 0 0 -1 0 102)">
		<stop  offset="0.2901" style="stop-color:#A8E1FF"/>
		<stop  offset="0.8464" style="stop-color:#DCFDFE"/>
	</linearGradient>
	<path style="fill:url(#SVGID_00000079467432636671446990000017592238815754470301_);" d="M74.7,5c1.2-0.6,8.3-4.2,15.6-0.2
		c1.2,0.7,7.6,4.1,8.9,11.7c0.5,2.7,0.1,5-0.2,6.5c0.1,1.5,0.2,8.5-4.3,13.8c-3.2,3.7-7,4.5-10.2,5.1c-2.3,0.5-7.6,1.5-12-1.9
		c-0.3-0.3-0.6-0.5-0.8-0.7c-1.6,1.3-4,3.1-7.3,4.2C63.2,44,53.4,47,46.9,40.3c-0.4-0.4-5.6-6-4.7-11.9c0.1-0.4,0.1-0.7,0.2-0.9
		c-0.6-0.5-2-1.9-2.6-4.2c-0.6-2.3-0.1-4.2,0.2-5.4c1.5-5.5,5.9-8,6.3-8.2c4.9-2.7,9.6-0.4,10.3,0c0.2-0.2,0.5-0.6,0.8-0.9
		c2-2.2,3.9-3.3,4.3-3.5c0.9-0.5,2.7-1.6,5.3-1.9C70.5,3,73.3,4.2,74.7,5z"/>
	<g>
		<g>
			<defs>
				<path id="SVGID_00000045582784611634883150000003232739505352689820_" d="M74.7,5.1c1.2-0.6,8.3-4.2,15.6-0.2
					c1.2,0.7,7.6,4.1,8.9,11.7c0.5,2.7,0.1,5-0.2,6.5c0.1,1.5,0.2,8.5-4.3,13.8c-3.2,3.7-7,4.5-10.2,5.1c-2.3,0.5-7.6,1.5-12-1.9
					c-0.3-0.3-0.6-0.5-0.8-0.7c-1.6,1.3-4,3.1-7.3,4.2C63.2,44,53.4,47,46.9,40.3c-0.4-0.4-5.6-6-4.7-11.9c0.1-0.4,0.1-0.7,0.2-0.9
					c-0.6-0.5-2-1.9-2.6-4.2c-0.6-2.3-0.1-4.2,0.2-5.4c1.5-5.5,5.9-8,6.3-8.2c4.9-2.7,9.6-0.4,10.3,0c0.2-0.2,0.5-0.6,0.8-0.9
					c2-2.2,3.9-3.3,4.3-3.5c0.9-0.5,2.7-1.6,5.3-1.9C70.5,3,73.3,4.2,74.7,5.1z"/>
			</defs>
			<clipPath id="SVGID_00000110454911560298670340000004037248939362858420_">
				<use xlink:href="#SVGID_00000045582784611634883150000003232739505352689820_"  style="overflow:visible;"/>
			</clipPath>
			<g style="clip-path:url(#SVGID_00000110454911560298670340000004037248939362858420_);">
				<path class="st0" d="M59,29.1c-0.4,0.8,0.6,1.3,0.3,3c-0.2,0.9-0.6,2.1-1.5,3c-0.5,0.5-0.7,0.5-0.8,0.8c-0.4,1,1.6,2.1,3.2,4.5
					c1.6,2.3,1.6,4.2,2.2,4.1c0.7,0,0.5-1.9,2.3-4.6c0.8-1.3,1.4-2.3,2.7-3c0.9-0.5,1.8-0.7,1.8-1.1c0-0.4-0.7-0.4-1.6-1.1
					c-0.1,0-1.3-1-1.8-2.6c-0.4-1.4,0.3-1.8-0.1-2.6C64.8,27.6,59.8,27.5,59,29.1z"/>
				<path class="st0" d="M63.3,31.7h-2c-2.3,0-4.1-1.9-4.1-4.1v-8.2c0-2.3,1.8-4.1,4.1-4.1h2c2.3,0,4.1,1.9,4.1,4.1v8.2
					C67.4,29.9,65.6,31.7,63.3,31.7z"/>
				<path d="M57.1,22.4c-0.3-0.2-0.6-0.4-1-0.9c-0.1-0.1-0.5-0.7-0.6-1.5c-0.1-0.6,0-1,0-1.1c0-0.3,0.2-0.8,0.6-1.3
					c0.1-0.2,0.4-0.5,0.9-0.6c0.2,0,0.4,0,0.5,0c0,0,0.2-0.1,0.3,0c0.3,0.1,0.2,0.6,0.1,0.6c0,0,0,0-0.1,0c-0.1,0-0.1,0.1-0.1,0.1
					c-0.6,2.4-0.7,4.2-0.7,4.2C57.2,22.2,57.2,22.3,57.1,22.4z"/>
				<path class="st0" d="M57.7,22c-0.1-0.1-0.4-0.4-0.8-0.5c-0.1,0-0.6-0.1-0.8,0.1c-0.1,0.2-0.1,0.4,0,0.8c0.1,0.7,0.4,1.2,0.5,1.4
					c0.2,0.4,0.4,0.7,0.8,0.9c0.2,0.1,0.5,0.3,0.7,0.2C58.5,24.7,58.5,22.9,57.7,22z"/>
				<path d="M57,12.4c-0.2,0.1-1,0.6-1.2,1.5c-0.2,0.6,0,1.1,0.1,1.4c0.1,0.2,0.2,0.7,0.6,1.2c0.2,0.2,0.6,0.8,1.4,1.1
					c0.5,0.2,0.8,0.2,1.4,0.2c0.3,0,1.2,0,2.4-0.4c0.7-0.2,0.8-0.4,1.3-0.4c0.6,0,1,0.3,1.2,0.4c0.5,0.3,0.5,0.5,0.9,0.7
					c0.8,0.5,2.2,0.5,2.8-0.1c0.2-0.2,0.3-0.6,0.4-0.7c0.1-0.2,0.2-0.6,0.2-0.9c-0.1-0.8-0.9-1.2-1.1-1.3c-0.8-0.4-1.6-0.3-2.1-0.2
					c-0.9,0.1-1.1,0.4-1.7,0.3c-0.6-0.1-1-0.4-1.2-0.6c-0.5-0.4-0.5-0.6-1-1.1c-0.3-0.3-0.7-0.8-1.2-1.1C59.3,12.1,58,11.8,57,12.4z
					"/>
				<path d="M67.1,22.5c0.3-0.1,0.7-0.2,1.1-0.5c0,0,0,0,0,0c1.1-0.9,1.2-2.1,1.2-2.1c0.1-0.8-0.3-1.4-0.4-1.6
					c-0.3-0.5-0.9-1.1-1.2-1c-0.1,0-0.3,0.1-0.3,0.8c0,0-0.2-0.1-0.3-0.1c-0.3,0.1-0.3,0.5-0.2,0.5c0,0,0.1,0,0.1,0
					c0,0,0.1,0,0.1,0.1C67.1,18.8,67.1,22.2,67.1,22.5z"/>
				<path class="st0" d="M67,22c0.1-0.1,0.4-0.4,0.8-0.5c0.1,0,0.6-0.1,0.8,0.1c0.1,0.2,0.1,0.4,0,0.8c-0.1,0.7-0.4,1.2-0.5,1.4
					c-0.2,0.4-0.4,0.7-0.8,0.9c-0.2,0.1-0.5,0.3-0.7,0.2C66.1,24.7,66.1,22.9,67,22z"/>
				<path class="st8" d="M57.6,35.8l-8.4,0.8l-7.7,20.4c2.7,4.9,5.4,9.8,8.1,14.7l0.7-9.6l-2.1-3.8l1.7-4.6l7.2-9.1L57.6,35.8z"/>
				<path class="st8" d="M68.1,35.2c3.4,0,6.8-0.1,10.2-0.1c2.2,6.8,4.4,13.6,6.6,20.4c2.7,5.1,5.4,10.3,8.1,15.4
					c-1.2,0.3-2.3,0.5-3.5,0.8c-2.6-3.7-5.1-7.4-7.7-11.2c-2.2-4.3-4.4-8.6-6.7-12.9l-1,27.2H49.5l0.2-36.7
					c-0.2-0.5-0.4-0.9-0.6-1.4c2.7-0.4,5.4-0.8,8.1-1.2c1.7,2.3,3.3,4.5,4.9,6.8C64.2,39.9,66.1,37.5,68.1,35.2z"/>
				<path class="st7" d="M60.4,28h3.8c-0.1,0.2-0.8,1.3-1.9,1.3C61.2,29.3,60.5,28.1,60.4,28z"/>
				<polyline class="st11" points="62,24 61.5,25.5 62.3,26.5 				"/>
				<circle class="st12" cx="64.5" cy="23" r="0.4"/>
				<circle class="st12" cx="59.9" cy="23" r="0.4"/>
				<g>
					<g>
						<path class="st12" d="M49.5,48.8c0.3,6.6,0.3,13.8,0.2,20.4C49.3,62.5,49.3,55.5,49.5,48.8L49.5,48.8z"/>
					</g>
					<g>
						<path class="st12" d="M49.6,55.2c-0.3,1.2-0.8,2.2-1.3,3.3l0-0.2c0.5,1,1.1,1.9,1.5,2.9c-0.7-0.9-1.3-1.8-1.9-2.8
							C48.4,57.3,48.9,56.2,49.6,55.2L49.6,55.2z"/>
					</g>
					<g>
						<path class="st12" d="M57.1,23.5c0.1,4.4-0.5,7.1,4.8,8.2C56.6,31.4,56.5,27.8,57.1,23.5L57.1,23.5z"/>
					</g>
					<g>
						<path class="st12" d="M57.3,35.5c-2.7,0.5-5.4,1-8.1,1.4l0.2-0.1c-0.6,1.6-1.2,3.2-1.8,4.8c-0.6,1.6-1.3,3.2-2,4.7
							c0.5-1.6,1.1-3.2,1.6-4.8c0.6-1.6,1.2-3.3,1.8-4.9C51.8,36.1,54.5,35.8,57.3,35.5L57.3,35.5z"/>
					</g>
				</g>
				<path class="st10" d="M62.5,23.3c0-0.6,0.8-1,1.3-1.2c1.5-0.8,3.7-0.9,4.2,0.1c0.3,0.5-0.1,1.2-0.3,1.6c0,0.1-0.9,1.7-2.6,1.6
					C63.8,25.3,62.4,24.2,62.5,23.3z"/>
				<rect x="61.3" y="23.4" class="st10" width="1.9" height="0.3"/>
				<path class="st10" d="M62.1,23.3c0-0.6-0.8-1-1.3-1.2c-1.5-0.8-3.7-0.9-4.2,0.1c-0.3,0.5,0.1,1.2,0.3,1.6c0,0.1,1,1.7,2.6,1.6
					C60.8,25.2,62.1,24.1,62.1,23.3z"/>
				<g>
					<g id="XMLID_00000034057253167079815570000001446147204041515929_">
						<g>
							
								<image style="overflow:visible;enable-background:new    ;" width="539" height="157" xlink:href="BCB6CCEE.png"  transform="matrix(4.138216e-02 0 0 4.138216e-02 70.0248 53.4327)">
							</image>
						</g>
					</g>
					<g id="XMLID_00000003792337764488862810000002808493103796650387_">
						<g>
							
								<image style="overflow:visible;enable-background:new    ;" width="539" height="157" xlink:href="BCB6CCF2.png"  transform="matrix(4.138216e-02 0 0 4.138216e-02 70.0248 51.4727)">
							</image>
						</g>
					</g>
					<g id="XMLID_00000052811075144939130180000008938485265941187496_">
						<g>
							
								<image style="overflow:visible;enable-background:new    ;" width="539" height="180" xlink:href="BCB6CCF5.png"  transform="matrix(3.609445e-02 0 0 3.609445e-02 71.4499 49.5128)">
							</image>
						</g>
					</g>
					<g id="XMLID_00000112616461069365080470000010180549867179644056_">
						<g>
							
								<image style="overflow:visible;enable-background:new    ;" width="539" height="180" xlink:href="BCB6CCF6.png"  transform="matrix(3.609445e-02 0 0 3.609445e-02 72.431 47.5528)">
							</image>
						</g>
					</g>
					<g id="XMLID_00000016792598419753423250000005847254798373879709_">
						<g>
							
								<image style="overflow:visible;enable-background:new    ;" width="539" height="180" xlink:href="BCB6CCF4.png"  transform="matrix(3.609445e-02 0 0 3.609445e-02 71.4499 45.5928)">
							</image>
						</g>
					</g>
					<g id="XMLID_00000173843572294800796150000007859142486689679236_">
						<g>
							
								<image style="overflow:visible;enable-background:new    ;" width="539" height="180" xlink:href="BCB6CCF3.png"  transform="matrix(3.609445e-02 0 0 3.609445e-02 72.431 43.6329)">
							</image>
						</g>
					</g>
					<g id="XMLID_00000155148120813400182200000006825020404788237487_">
						<g>
							
								<image style="overflow:visible;enable-background:new    ;" width="545" height="204" xlink:href="BCB6CCFD.png"  transform="matrix(4.128971e-02 0 0 4.128971e-02 73.8681 12.2963)">
							</image>
						</g>
					</g>
					<g id="XMLID_00000071540345437558369480000017384701143909779373_">
						<g>
							
								<image style="overflow:visible;enable-background:new    ;" width="545" height="204" xlink:href="BCB6CCFE.png"  transform="matrix(3.891177e-02 0 0 3.891177e-02 72.5537 29.1983)">
							</image>
						</g>
					</g>
					<g id="XMLID_00000104689755606915969870000006684089147350164139_">
						<g>
							
								<image style="overflow:visible;enable-background:new    ;" width="539" height="180" xlink:href="BCB6CCFC.png"  transform="matrix(3.609445e-02 0 0 3.609445e-02 72.431 41.6729)">
							</image>
						</g>
					</g>
					<g id="XMLID_00000083799617106547106010000000250614207325089210_">
						<g>
							
								<image style="overflow:visible;enable-background:new    ;" width="539" height="180" xlink:href="466B9EB1.png"  transform="matrix(3.609445e-02 0 0 3.609445e-02 71.4499 39.713)">
							</image>
						</g>
					</g>
					<g id="XMLID_00000007422759024589291080000013992888003022062236_">
						<g>
							
								<image style="overflow:visible;enable-background:new    ;" width="539" height="180" xlink:href="466B9EB7.png"  transform="matrix(3.609445e-02 0 0 3.609445e-02 72.431 37.753)">
							</image>
						</g>
					</g>
					<g id="XMLID_00000162332905380685990420000013142915180276507066_">
						<g>
							
								<image style="overflow:visible;enable-background:new    ;" width="545" height="204" xlink:href="466B9EB0.png"  transform="matrix(3.891177e-02 0 0 3.891177e-02 70.5914 3.7189)">
							</image>
						</g>
					</g>
				</g>
			</g>
		</g>
	</g>
</g>
</svg>
