<?xml version="1.0" encoding="utf-8"?>
<!-- Generator: Adobe Illustrator 26.0.1, SVG Export Plug-In . SVG Version: 6.00 Build 0)  -->
<svg version="1.1" id="Layer_1" xmlns="http://www.w3.org/2000/svg" xmlns:xlink="http://www.w3.org/1999/xlink" x="0px" y="0px"
	 viewBox="0 0 100 100" style="enable-background:new 0 0 100 100;" xml:space="preserve">
<style type="text/css">
	.st0{fill:url(#SVGID_1_);}
	.st1{fill:#FEC67F;}
	.st2{fill:url(#SVGID_00000124143728330523929410000001647517679421787807_);}
	.st3{fill:url(#SVGID_00000078040159254894779430000008598515920751164084_);}
	.st4{fill:url(#SVGID_00000175287999913467666930000006737837987274131901_);}
	.st5{fill:url(#SVGID_00000147899664542446855300000000304322022598125457_);}
	.st6{fill:url(#SVGID_00000164474524901003772280000009824714674861147530_);}
	.st7{fill:url(#SVGID_00000054962566293786039160000007244634827902335663_);}
	.st8{fill:url(#SVGID_00000030458166454424818940000004270512141085307312_);}
	.st9{fill:#6EC1FF;}
	.st10{fill:#F15A24;}
	.st11{fill:#FFBA9F;}
	.st12{fill:none;stroke:#58595B;stroke-width:5.000000e-02;stroke-miterlimit:10;}
	.st13{fill:#414042;}
	.st14{fill:url(#SVGID_00000047753860564494258770000001333745278005174461_);}
	.st15{fill:#020F1E;}
	.st16{fill:#021D44;}
	.st17{fill:#333333;}
	.st18{fill:#336DFF;}
	.st19{fill:#242528;}
	.st20{fill:url(#SVGID_00000092450156442210763920000009197492449319615628_);}
	.st21{fill:url(#SVGID_00000101081241282636985940000012672390236764201119_);}
</style>
<g>
	<g>
		
			<linearGradient id="SVGID_1_" gradientUnits="userSpaceOnUse" x1="35.4825" y1="1063.4703" x2="81.4825" y2="1063.4703" gradientTransform="matrix(1 0 0 1 -3.1403 -971.6739)">
			<stop  offset="0" style="stop-color:#FFC174"/>
			<stop  offset="0" style="stop-color:#F6BA6D"/>
			<stop  offset="0.7256" style="stop-color:#6A4500"/>
		</linearGradient>
		<path class="st0" d="M78.4,88.2v5.6c0,3.1-10.3,5.6-23,5.6s-23-2.5-23-5.6v-5.6c0-2.2,10.3-4,23-4S78.4,86,78.4,88.2z"/>
		<ellipse class="st1" cx="55.3" cy="88.2" rx="23" ry="4.3"/>
	</g>
	<g>
		
			<linearGradient id="SVGID_00000052812180900461577270000006932283439532362635_" gradientUnits="userSpaceOnUse" x1="32.9439" y1="1057.4703" x2="78.9439" y2="1057.4703" gradientTransform="matrix(1 0 0 1 -3.1403 -971.6739)">
			<stop  offset="0" style="stop-color:#FFC174"/>
			<stop  offset="0" style="stop-color:#F6BA6D"/>
			<stop  offset="0.7256" style="stop-color:#6A4500"/>
		</linearGradient>
		<path style="fill:url(#SVGID_00000052812180900461577270000006932283439532362635_);" d="M75.8,82.2v5.6c0,3.1-10.3,5.6-23,5.6
			s-23-2.5-23-5.6v-5.6c0-2.2,10.3-4,23-4S75.8,80,75.8,82.2z"/>
		<ellipse class="st1" cx="52.8" cy="82.2" rx="23" ry="4.3"/>
	</g>
	<g>
		
			<linearGradient id="SVGID_00000096757840233514528420000001701247079339049379_" gradientUnits="userSpaceOnUse" x1="36.0925" y1="1051.4703" x2="82.0925" y2="1051.4703" gradientTransform="matrix(1 0 0 1 -3.1403 -971.6739)">
			<stop  offset="0" style="stop-color:#FFC174"/>
			<stop  offset="0" style="stop-color:#F6BA6D"/>
			<stop  offset="0.7256" style="stop-color:#6A4500"/>
		</linearGradient>
		<path style="fill:url(#SVGID_00000096757840233514528420000001701247079339049379_);" d="M79,76.2v5.6c0,3.1-10.3,5.6-23,5.6
			s-23-2.5-23-5.6v-5.6c0-2.2,10.3-4,23-4S79,74,79,76.2z"/>
		<ellipse class="st1" cx="56" cy="76.3" rx="23" ry="4.3"/>
	</g>
	<g>
		
			<linearGradient id="SVGID_00000083781107932663337650000002541069494974778553_" gradientUnits="userSpaceOnUse" x1="34.2439" y1="1044.9703" x2="80.2939" y2="1044.9703" gradientTransform="matrix(1 0 0 1 -3.1403 -971.6739)">
			<stop  offset="0" style="stop-color:#FFC174"/>
			<stop  offset="0" style="stop-color:#F6BA6D"/>
			<stop  offset="0.7256" style="stop-color:#6A4500"/>
		</linearGradient>
		<path style="fill:url(#SVGID_00000083781107932663337650000002541069494974778553_);" d="M77.1,69.7v5.6c0,3.1-10.3,5.6-23,5.6
			s-23-2.5-23-5.6v-5.6c0-2.2,10.3-4,23-4S77.1,67.5,77.1,69.7z"/>
		<ellipse class="st1" cx="54.1" cy="69.8" rx="23" ry="4.3"/>
	</g>
	<g>
		
			<linearGradient id="SVGID_00000015354061165295633690000014955247080724674458_" gradientUnits="userSpaceOnUse" x1="37.3925" y1="1038.5703" x2="83.3925" y2="1038.5703" gradientTransform="matrix(1 0 0 1 -3.1403 -971.6739)">
			<stop  offset="0" style="stop-color:#FFC174"/>
			<stop  offset="0" style="stop-color:#F6BA6D"/>
			<stop  offset="0.7256" style="stop-color:#6A4500"/>
		</linearGradient>
		<path style="fill:url(#SVGID_00000015354061165295633690000014955247080724674458_);" d="M80.3,63.3v5.6c0,3.1-10.3,5.6-23,5.6
			s-23-2.5-23-5.6v-5.6c0-2.2,10.3-4,23-4S80.3,61.1,80.3,63.3z"/>
		<ellipse class="st1" cx="57.3" cy="63.3" rx="23" ry="4.3"/>
	</g>
	<g>
		
			<linearGradient id="SVGID_00000089538649979570277040000014231547820348451484_" gradientUnits="userSpaceOnUse" x1="35.5439" y1="1032.2703" x2="81.5439" y2="1032.2703" gradientTransform="matrix(1 0 0 1 -3.1403 -971.6739)">
			<stop  offset="0" style="stop-color:#FFC174"/>
			<stop  offset="0" style="stop-color:#F6BA6D"/>
			<stop  offset="0.7256" style="stop-color:#6A4500"/>
		</linearGradient>
		<path style="fill:url(#SVGID_00000089538649979570277040000014231547820348451484_);" d="M78.4,57v5.6c0,3.1-10.3,5.6-23,5.6
			s-23-2.5-23-5.6V57c0-2.2,10.3-4,23-4S78.4,54.8,78.4,57z"/>
		<ellipse class="st1" cx="55.4" cy="57.1" rx="23" ry="4.3"/>
	</g>
	
		<linearGradient id="SVGID_00000160875778629037143490000004262589910562801798_" gradientUnits="userSpaceOnUse" x1="44.3036" y1="996.7099" x2="44.3036" y2="993.037" gradientTransform="matrix(1 0 0 1 0 -978)">
		<stop  offset="0.2901" style="stop-color:#A8E1FF"/>
		<stop  offset="0.8464" style="stop-color:#DCFDFE"/>
	</linearGradient>
	<ellipse style="fill:url(#SVGID_00000160875778629037143490000004262589910562801798_);" cx="44.3" cy="16.9" rx="3.7" ry="1.8"/>
	
		<linearGradient id="SVGID_00000152960786735392697300000007154786648863177656_" gradientUnits="userSpaceOnUse" x1="73.6314" y1="984.9023" x2="73.6314" y2="1016.2901" gradientTransform="matrix(1 0 0 1 0 -978)">
		<stop  offset="0.2901" style="stop-color:#A8E1FF"/>
		<stop  offset="0.8464" style="stop-color:#DCFDFE"/>
	</linearGradient>
	<path style="fill:url(#SVGID_00000152960786735392697300000007154786648863177656_);" d="M78.1,8.5c1-0.5,7.2-3.2,13.6-0.2
		c1,0.5,6.6,3.1,7.7,8.8c0.4,2,0.1,3.8-0.2,4.9c0.1,1.1,0.2,6.4-3.7,10.4c-2.8,2.8-6.1,3.4-8.8,3.9c-2,0.3-6.6,1.2-10.4-1.4
		c-0.3-0.2-0.5-0.4-0.7-0.5c-1.3,1-3.5,2.4-6.3,3.2c-1.2,0.3-9.7,2.6-15.3-2.5c-0.3-0.3-4.9-4.5-4-9c0.1-0.3,0.1-0.5,0.2-0.7
		c-0.5-0.4-1.8-1.4-2.3-3.2c-0.5-1.7-0.1-3.1,0.2-4.1c1.3-4.1,5.1-6,5.5-6.2c4.3-2,8.4-0.3,9,0c0.2-0.2,0.4-0.4,0.7-0.7
		C65,9.6,66.7,8.7,67,8.6c0.8-0.4,2.4-1.2,4.6-1.4C74.4,7,76.9,7.9,78.1,8.5z"/>
	<rect x="86.5" y="12.7" class="st9" width="4.1" height="18.9"/>
	<rect x="80.8" y="16.5" class="st9" width="4.1" height="15.1"/>
	<rect x="75" y="20.1" class="st9" width="4.1" height="11.6"/>
	<rect x="69.3" y="23.2" class="st9" width="4.1" height="8.5"/>
	<rect x="63.5" y="26.8" class="st9" width="4.1" height="4.9"/>
	<rect x="57.8" y="29.9" class="st9" width="4.1" height="1.8"/>
	<g>
		<polygon class="st10" points="57.8,22.7 89.8,9.6 57.9,24.8 		"/>
		<polygon class="st10" points="88.2,8.2 89.8,11.7 91.2,9 		"/>
	</g>
	<path class="st11" d="M29.4,12.8c-0.3,0.5,0.3,1,0,2.1c-0.2,0.6-0.6,1.4-1.3,2c-0.4,0.3-0.5,0.3-0.6,0.5c-0.3,0.7,1,1.6,2,3.4
		s0.9,3.1,1.3,3.1c0.5,0,0.5-1.3,1.9-3.1c0.7-0.9,1.2-1.5,2.1-2c0.7-0.3,1.3-0.4,1.3-0.7c0-0.3-0.5-0.3-1.1-0.9c0,0-0.9-0.8-1.1-2
		c-0.2-1,0.3-1.3,0.1-1.9C33.6,12.2,30.1,11.8,29.4,12.8z"/>
	<path class="st11" d="M32.2,15l-1.4-0.1c-1.6-0.1-2.8-1.6-2.7-3.2l0.5-5.9c0.1-1.6,1.6-2.8,3.2-2.7l1.4,0.1
		c1.6,0.2,2.8,1.6,2.7,3.2l-0.5,5.9C35.3,13.9,33.9,15.1,32.2,15z"/>
	<path d="M28.4,7.9c-0.2-0.1-0.4-0.3-0.6-0.7c0-0.1-0.3-0.5-0.3-1.1c0-0.4,0-0.7,0.1-0.8c0-0.2,0.2-0.6,0.5-0.9
		c0.1-0.1,0.4-0.3,0.7-0.4c0.1,0,0.3,0,0.4,0.1c0,0,0.1-0.1,0.2,0c0.2,0.1,0.1,0.4,0,0.5c0,0,0,0-0.1,0l-0.1,0.1
		c-0.6,1.6-0.8,3-0.8,3C28.5,7.8,28.5,7.9,28.4,7.9z"/>
	<path class="st11" d="M28.8,7.7c-0.1-0.1-0.2-0.3-0.6-0.4c-0.1,0-0.4-0.1-0.6,0.1c-0.1,0.1-0.1,0.3-0.1,0.6c0,0.5,0.2,0.9,0.3,1
		c0.1,0.3,0.2,0.5,0.5,0.7c0.1,0.1,0.3,0.2,0.5,0.2C29.3,9.7,29.4,8.4,28.8,7.7z"/>
	<path d="M29,0.8c-0.1,0.1-0.8,0.4-1,1c-0.1,0.4-0.1,0.8,0,1c0,0.1,0.1,0.5,0.4,0.9c0.1,0.2,0.4,0.6,0.9,0.8c0.3,0.2,0.6,0.2,1,0.2
		c0.2,0,0.9,0.1,1.7-0.1c0.5-0.1,0.6-0.2,0.9-0.2c0.4,0.1,0.7,0.3,0.8,0.4C34,5,34,5.2,34.3,5.4c0.6,0.4,1.5,0.5,2,0.1
		c0.2-0.2,0.3-0.4,0.3-0.4c0.1-0.1,0.2-0.4,0.2-0.6c0-0.5-0.6-0.9-0.7-1c-0.5-0.3-1.1-0.3-1.5-0.3c-0.6,0-0.8,0.2-1.2,0.1
		C33,3.2,32.7,3,32.6,2.8c-0.3-0.3-0.3-0.5-0.7-0.9c-0.2-0.2-0.5-0.6-0.8-0.9C30.7,0.7,29.8,0.4,29,0.8z"/>
	<path d="M35.6,8.7c0.2,0,0.5-0.1,0.8-0.3l0,0c0.8-0.6,1-1.4,1-1.4c0.1-0.6-0.1-1-0.2-1.2C37,5.5,36.7,4.9,36.4,5
		c0,0-0.2,0.1-0.3,0.5c0,0-0.1-0.1-0.2-0.1c-0.2,0-0.2,0.3-0.2,0.4c0,0,0,0,0.1,0c0,0,0,0,0,0.1C35.8,6,35.6,8.4,35.6,8.7z"/>
	<path class="st11" d="M35.5,8.3c0.1-0.1,0.3-0.2,0.6-0.3c0.1,0,0.4,0,0.6,0.2c0.1,0.1,0,0.3,0,0.6c-0.2,0.5-0.4,0.9-0.5,0.9
		c-0.2,0.3-0.3,0.4-0.6,0.6c-0.2,0.1-0.4,0.2-0.5,0.1C34.7,10.2,34.8,8.9,35.5,8.3z"/>
	<polyline class="st12" points="31.8,9.4 31.3,10.5 31.9,11.2 	"/>
	<circle class="st13" cx="33.7" cy="8.9" r="0.3"/>
	<circle class="st13" cx="30.4" cy="8.6" r="0.3"/>
	<polygon class="st11" points="20.7,86 22,88.9 23.9,88.2 22.8,84.5 	"/>
	<path class="st11" d="M12.3,90.7c-0.5,1.2-1,2.5-1.6,3.7c0.9,0,1.8,0,2.7,0c0.4-1.1,0.9-2.2,1.3-3.4L12.3,90.7z"/>
	<g>
		
			<linearGradient id="SVGID_00000006671190347489582290000002218692362313383091_" gradientUnits="userSpaceOnUse" x1="34.0725" y1="1025.8702" x2="80.0725" y2="1025.8702" gradientTransform="matrix(1 0 0 1 -3.1403 -971.6739)">
			<stop  offset="0" style="stop-color:#FFC174"/>
			<stop  offset="0" style="stop-color:#F6BA6D"/>
			<stop  offset="0.7256" style="stop-color:#6A4500"/>
		</linearGradient>
		<path style="fill:url(#SVGID_00000006671190347489582290000002218692362313383091_);" d="M77,50.6v5.6c0,3.1-10.3,5.6-23,5.6
			s-23-2.5-23-5.6v-5.6c0-2.2,10.3-4,23-4S77,48.4,77,50.6z"/>
		<ellipse class="st1" cx="53.9" cy="50.7" rx="23" ry="4.3"/>
	</g>
	<path class="st15" d="M19.8,43.5c-1.5,5.9-3.1,11.9-4.6,17.8l5,26.1l4.1-1L22.6,62L31,43.7c-2.6-1.2-5.2-2.3-7.7-3.5
		C22.1,41.3,21,42.4,19.8,43.5z"/>
	<path class="st16" d="M26.9,42.6c-5.2,16.2-10.4,32.3-15.7,48.5l3.7,1c7-15.6,13.8-31.1,20.7-46.6C32.8,44.5,29.9,43.5,26.9,42.6z"
		/>
	<g>
		<path class="st11" d="M20.5,30.1c-1-0.1-1.9-0.3-2.9-0.4l-0.4,1.7l0.4,2.2l2.8-0.7C20.4,32,20.4,31,20.5,30.1z"/>
		<g>
			<path class="st17" d="M20.5,30.1c-1-0.1-2-0.2-2.9-0.3l0.1-0.1c-0.1,0.5-0.2,1.4-0.3,1.7c0.1,0.7,0.2,1.4,0.4,2.2l-0.2-0.1
				c0.9-0.2,1.9-0.5,2.8-0.6L20.3,33C20.3,32,20.4,31.1,20.5,30.1L20.5,30.1z M20.5,30.1c0,0.9,0,1.9,0,2.9c-1,0.3-2,0.5-3,0.8
				c-0.1-0.8-0.2-1.6-0.4-2.4c0.1-0.6,0.3-1.2,0.4-1.8C18.5,29.7,19.5,29.9,20.5,30.1L20.5,30.1z"/>
		</g>
	</g>
	<path class="st18" d="M35.1,17.4c2.5,0.9,4.9,1.8,7.3,2.7l-3.9,14.3h-1.7l-1.3,11l-16-1.3l2.1-11.2h-1.4v-0.8l0.2-12.5
		c2.4-0.8,4.8-1.5,7.1-2.3c1.2,1.7,2.3,3.5,3.5,5.2C32.5,20.8,33.8,19.1,35.1,17.4z"/>
	<path class="st18" d="M28.1,24.2c1.6-2.2,3.2-4.4,4.8-6.6l-1.4-1.3c-1.9,1.7-3.8,3.4-5.7,5C26.6,22.3,27.3,23.2,28.1,24.2z"/>
	<g>
		<path class="st11" d="M31.3,16.6c0-0.4,0-0.7,0-1.1V13c0.1,0.1,0.3,0.2,0.4,0.4c0.5,0.7,0.4,1.6,0.3,1.8c2.6-2.3,4.7-3.8,4.9-3.8
			s0.5,0,0.5,0h0.1c-0.5,0.4-1,0.8-1.5,1.4c-0.6,0.6-1,1.2-1.4,1.7c0.3,0.7,0.5,1.4,0.8,2.1l0.3,1L32.8,18
			C32.3,17.5,31.8,17,31.3,16.6z"/>
		<path class="st17" d="M31.3,16.6l-0.1-3.7v-0.2c0.8,0.6,1.1,1.5,0.9,2.4L31.9,15c1.5-1.3,3-2.6,4.7-3.7c0.4-0.2,0.8-0.1,1.3-0.1
			l-0.3,0.2L36,12.8c-0.5,0.5-0.9,1-1.3,1.6v-0.1l0.8,2.1l0.3,1v0.1c-1,0.1-2,0.3-3,0.4C32.7,18,31.3,16.6,31.3,16.6L31.3,16.6z
			 M31.3,16.6l1.5,1.4c0.7-0.2,1.9-0.3,2.8-0.5l-0.1,0.1c-0.2-0.8-0.8-2.4-1.1-3.1c0-0.1,0-0.1,0-0.1c0.6-1.1,2-2.3,2.9-3.1l0.1,0.3
			c-0.2,0-0.5,0-0.6,0c-1.8,1-3.3,2.4-4.8,3.7l-0.2,0.2c0.3-0.9,0.2-1.9-0.6-2.4l0.1-0.1L31.3,16.6L31.3,16.6z"/>
	</g>
	<polygon class="st19" points="10.8,94.1 8.6,96 0.4,99.4 12.2,99.3 13.1,99.3 13.5,96.7 13.5,94.1 	"/>
	<polygon class="st19" points="22,88.9 20.8,91.6 14.8,98.2 25.4,93 26.3,92.6 25.5,90.1 24.3,87.7 	"/>
	<g>
		<path class="st17" d="M30.9,12.6c0.8,0,1.5-0.1,2.3-0.3C32.6,12.9,31.6,13,30.9,12.6L30.9,12.6z"/>
	</g>
	
		<linearGradient id="SVGID_00000012456858409986089100000008532698699890876582_" gradientUnits="userSpaceOnUse" x1="39.2036" y1="991.7672" x2="39.2036" y2="989.6127" gradientTransform="matrix(1 0 0 1 0 -978)">
		<stop  offset="0.3935" style="stop-color:#A8E1FF"/>
		<stop  offset="1" style="stop-color:#DCFDFE"/>
	</linearGradient>
	<ellipse style="fill:url(#SVGID_00000012456858409986089100000008532698699890876582_);" cx="39.2" cy="12.7" rx="1.7" ry="1.1"/>
	<g>
		<path class="st17" d="M28.4,9.2c0,1.1-0.2,2.3,0,3.4s1.2,1.8,2.1,2.4C27.7,14,27.7,11.8,28.4,9.2L28.4,9.2z"/>
	</g>
	<g>
		<path class="st17" d="M20.5,27.3c0,1.9,0,3.7,0,5.6l-0.1-0.1l0.9,0.1h-0.1c3.8-5.1,7.6-10.1,11.6-15C29,23,25.3,28.2,21.3,33h-0.9
			h-0.1C20.3,31.1,20.4,29.2,20.5,27.3L20.5,27.3z"/>
	</g>
	<g>
		<path class="st17" d="M24.9,22.4c1.6-1.8,3.4-3.5,5.4-5C28.6,19.2,26.8,20.8,24.9,22.4L24.9,22.4z"/>
	</g>
	<g>
		<path class="st17" d="M21.7,32.9c5.6,0.4,11.2,0.9,16.8,1.4l-0.1,0.1c1.1-4,2.2-8.1,3.3-12.1c-1,4.1-2,8.1-3.1,12.1
			c0,0.1,0,0.1-0.1,0.1C32.9,34.1,27.3,33.5,21.7,32.9L21.7,32.9z"/>
	</g>
	<g>
		<path class="st17" d="M24.1,30.5c3.8-0.1,7.7-0.2,11.5-0.1l-0.1,0.1c0.2-1.7,0.4-3.3,0.7-5c-0.1,1.7-0.3,3.4-0.4,5.1
			C31.9,30.7,28,30.6,24.1,30.5L24.1,30.5z"/>
	</g>
	<g>
		<path class="st17" d="M24.7,18.2c-1.4,0.6-2.7,1-4.1,1.5l0.1-0.1c0,1.5,0,3.1-0.1,4.6c-0.1-1.5-0.1-3.1-0.1-4.6v-0.1
			C21.9,19,23.3,18.6,24.7,18.2L24.7,18.2z"/>
	</g>
	<g>
		<path class="st17" d="M14.4,91.9c-0.1,0.8-0.4,1.5-0.9,2.1C13.6,93.3,13.9,92.6,14.4,91.9L14.4,91.9z"/>
	</g>
	<g>
		<path class="st17" d="M23.4,86.7c0.4,0.4,0.5,0.9,0.5,1.5C23.6,87.7,23.4,87.2,23.4,86.7L23.4,86.7z"/>
	</g>
	<g>
		
			<linearGradient id="SVGID_00000146486034250218673110000013956189946683350454_" gradientUnits="userSpaceOnUse" x1="237.92" y1="-741.0186" x2="283.9633" y2="-741.0186" gradientTransform="matrix(0.188 0.9822 -0.9822 0.188 -690.094 -41.0523)">
			<stop  offset="0" style="stop-color:#FFC174"/>
			<stop  offset="0" style="stop-color:#F6BA6D"/>
			<stop  offset="0.7256" style="stop-color:#6A4500"/>
		</linearGradient>
		<path style="fill:url(#SVGID_00000146486034250218673110000013956189946683350454_);" d="M94.6,97.9L89.1,99
			c-3,0.6-7.4-9.1-9.8-21.6s-1.9-23.1,1.2-23.7l5.5-1c2.2-0.4,5.9,9.4,8.3,21.9S96.7,97.5,94.6,97.9z"/>
		<ellipse transform="matrix(0.9822 -0.188 0.188 0.9822 -12.5465 18.301)" class="st1" cx="90.2" cy="75.3" rx="4.4" ry="23"/>
	</g>
</g>
</svg>
