<?xml version="1.0" encoding="utf-8"?>
<!-- Generator: Adobe Illustrator 26.0.1, SVG Export Plug-In . SVG Version: 6.00 Build 0)  -->
<svg version="1.1" id="Layer_1" xmlns="http://www.w3.org/2000/svg" xmlns:xlink="http://www.w3.org/1999/xlink" x="0px" y="0px"
	 viewBox="0 0 100 100" style="enable-background:new 0 0 100 100;" xml:space="preserve">
<style type="text/css">
	.st0{fill:#FFBA9F;}
	.st1{fill:#336DFF;}
	.st2{fill:#011435;}
	.st3{fill:#242528;}
	.st4{fill:#FFFFFF;}
	.st5{fill:#414042;}
	.st6{fill:#FFE876;}
	.st7{fill:#7F91B2;}
	.st8{fill:none;stroke:#F15A24;stroke-width:0.4;stroke-miterlimit:10;}
	.st9{opacity:0.39;fill:#F7931E;enable-background:new    ;}
	.st10{fill:#FFF3C0;}
	.st11{fill:none;}
	.st12{fill:none;stroke:#58595B;stroke-width:5.000000e-02;stroke-miterlimit:10;}
	.st13{fill:url(#SVGID_1_);}
	.st14{fill:url(#SVGID_00000080168400124167266700000008045517349233490323_);}
	.st15{fill:url(#SVGID_00000183953180830282080730000017311477706690682288_);}
	.st16{fill:url(#SVGID_00000127732793755690274910000005925815714049918909_);}
	.st17{fill:url(#SVGID_00000037690847891936789180000013276266201636983950_);}
	.st18{fill:url(#SVGID_00000100371660076959404730000003731921362839178919_);}
	.st19{fill:url(#SVGID_00000063616830828912522700000011382884860968828053_);}
	.st20{fill:none;stroke:#0071BC;stroke-width:0.3;stroke-miterlimit:10;}
	.st21{fill:#F15A24;}
</style>
<g>
	<path class="st0" d="M18.9,23.9c-0.8-0.1-1.5-0.3-2.3-0.4c-0.4-0.6-0.8-1.7-1.2-3c-0.5-1.7-0.8-2.9-0.3-4.2
		c0.5-1.4,1.8-2.2,2.6-2.6h1.2c1.4,0,2.6,1.1,2.6,2.6c0.1,1.4,0.2,2.7,0.3,4c0,0.2,0.1,1.8-1.1,2.8C20,23.8,19.2,23.9,18.9,23.9z"/>
	<path class="st0" d="M16.3,22.3c-0.2,0.5,0.4,0.8,0.2,1.8c-0.1,0.6-0.4,1.3-0.9,1.8c-0.3,0.3-0.4,0.3-0.5,0.5c-0.2,0.6,1,1.3,2,2.8
		s1,2.6,1.4,2.5c0.4,0,0.3-1.2,1.4-2.8c0.5-0.8,0.9-1.4,1.6-1.8c0.6-0.3,1.1-0.4,1.1-0.7c0-0.2-0.5-0.2-1-0.7c0,0-0.8-0.6-1.1-1.6
		c-0.2-0.9,0.2-1.1-0.1-1.6C19.8,21.4,16.8,21.3,16.3,22.3z"/>
	<path d="M15.1,18.2c-0.2-0.1-0.4-0.3-0.6-0.5c-0.1-0.1-0.3-0.4-0.4-0.9c-0.1-0.4,0-0.6,0-0.7c0-0.2,0.1-0.5,0.4-0.8
		c0.1-0.1,0.3-0.3,0.6-0.4c0.1,0,0.2,0,0.3,0c0,0,0.1-0.1,0.2,0c0.2,0.1,0.1,0.4,0.1,0.4s0,0-0.1,0l-0.1,0.1
		c-0.4,1.4-0.4,2.6-0.4,2.6S15.1,18.1,15.1,18.2z"/>
	<path d="M16,17.6c-0.2,0.4-0.5,0.9-0.6,1.4s-0.3,1.5,0.4,3c-0.2-0.1-0.4-0.3-0.6-0.6c-0.1-0.2-0.4-0.5-0.6-1
		c-0.4-1-1.1-2.5-0.6-4.2c0.1-0.2,0.4-1.4,1-1.4c0.5,0,0.9,1,1.6,1c0.3,0,0.5-0.3,0.6-0.2C17.3,15.7,16.6,16.4,16,17.6z"/>
	<path d="M24.9,14.5c0.1,1.3-1.2,2.4-2.4,2.5c-1.1,0.1-1.5-1-3-1c-0.3,0-1.2,0-2,0.6s-1.2,1.6-1.4,2c-0.3,0.7-0.2,1-0.4,1
		c-0.5,0.1-2.1-1.7-1.8-3.4c0.3-1.6,2.5-2.9,4.2-2.8c1,0,1.8,0.5,2.8,0c0.6-0.3,0.6-0.6,1.1-0.7C23.1,12.4,24.8,13.2,24.9,14.5z"/>
	<path class="st0" d="M15.6,19.2c-0.1-0.1-0.2-0.2-0.5-0.3c-0.1,0-0.4-0.1-0.5,0.1c-0.1,0.1-0.1,0.2,0,0.5c0.1,0.5,0.3,0.8,0.3,0.8
		c0.1,0.2,0.2,0.4,0.5,0.5c0.1,0.1,0.3,0.2,0.4,0.1C16.1,20.8,16.1,19.7,15.6,19.2z"/>
	<path class="st1" d="M15.3,26.5L10.1,27c-2.2,4.9-4.4,9.8-6.6,14.7c6.1-1.1,12.1-2.1,18.2-3.2c-0.1-0.6-0.1-1.2-0.2-1.8
		c-3.5,0.3-6.9,0.5-10.4,0.8c1.3-1.8,2.6-3.7,3.9-5.5L15.3,26.5z"/>
	<polygon class="st0" points="40.6,31.2 42.2,29.5 43.3,29.8 50.2,29.8 43.6,31.5 41.6,32.3 	"/>
	<path class="st1" d="M21.8,26.1c2.1,0,4.2-0.1,6.3-0.1l4.2,10.5l8.3-5.6l1.5,1.6l-10.3,9.3l-5.6-8.1l-0.6,16.8H10.4l0.1-22.7
		c-0.1-0.3-0.2-0.6-0.4-0.9c1.7-0.2,3.3-0.5,5-0.8c1,1.4,2,2.8,3.1,4.2C19.4,29,20.6,27.5,21.8,26.1z"/>
	<polygon class="st0" points="32.1,90.2 32.5,92.9 30.8,93.2 30,90 	"/>
	<polygon class="st0" points="9.5,90.3 9.3,93 11.1,93.2 11.6,89.9 	"/>
	<polygon class="st2" points="10.4,50.2 9.8,70.2 9,90.7 12.2,90.7 14.1,73.1 18,52.8 22.7,67.4 24.5,72.5 29.5,90.2 33.2,90.3 
		29,72.9 25.6,50.2 	"/>
	<polygon class="st3" points="9.3,93 7.4,94.6 0.3,97.5 10.4,97.5 11.3,97.5 11.6,95.2 11.6,93 	"/>
	<polygon class="st3" points="32.7,92.8 34.7,94.5 41.7,97.5 31.6,97.5 30.8,97.5 30.4,95.1 30.4,92.8 	"/>
	<path class="st4" d="M19.1,22h2.3c-0.1,0.1-0.5,0.8-1.1,0.8C19.5,22.8,19.1,22.1,19.1,22z"/>
	<circle class="st5" cx="20" cy="19.4" r="0.2"/>
	<g>
		<path class="st5" d="M24,37.8c-6.6,1.5-13.6,2.9-20.4,3.8C10.2,40.2,17.4,38.8,24,37.8L24,37.8z"/>
	</g>
	<g>
		<path class="st5" d="M12.9,33.8c-0.6,1.1-1.2,2.2-1.9,3.3l-0.1-0.2c2.3-0.3,4.6-0.5,6.9-0.8c2.3-0.2,4.6-0.4,6.9-0.5
			c-2.3,0.3-4.6,0.6-6.9,0.9c-2.4,0.3-4.8,0.5-7.2,0.7C11.3,36,12.1,34.9,12.9,33.8L12.9,33.8z"/>
	</g>
	<g>
		<path class="st5" d="M25.9,33.4c2.1,2.7,4.1,5.5,6.1,8.3h-0.3c1.7-1.6,3.4-3.1,5.1-4.6c1.7-1.5,3.5-3,5.2-4.5
			c-1.6,1.6-3.3,3.2-5,4.8c-1.8,1.6-3.5,3.2-5.2,4.8C29.8,39.2,27.8,36.4,25.9,33.4L25.9,33.4z"/>
	</g>
	<g>
		<path class="st5" d="M15.4,20c0,1.9,1.2,3.6,3,4C16.4,24,14.9,21.9,15.4,20L15.4,20z"/>
	</g>
	<g>
		<path class="st5" d="M40.7,31.1c0.5-0.6,1-1.1,1.5-1.7c0.4,0.1,0.7,0.2,1.1,0.3l0,0c2.3-0.1,4.6-0.1,6.9,0.1
			c-2.3,0.2-4.6,0.3-6.9,0.3c-0.3-0.1-0.7-0.2-1-0.3h0.1C41.8,30.1,41.3,30.6,40.7,31.1L40.7,31.1z"/>
	</g>
	<g>
		<path class="st5" d="M15.2,26.3c-0.8,0.2-1.6,0.4-2.5,0.6c-0.8,0.2-1.7,0.3-2.5,0.4l0.1-0.1c-0.3,0.6-0.6,1.3-0.9,1.9
			c0.2-0.7,0.4-1.4,0.6-2V27h0.1c0.8-0.1,1.7-0.3,2.5-0.4C13.5,26.4,14.3,26.3,15.2,26.3z"/>
	</g>
	<polygon class="st0" points="21.4,19.4 22.4,20.5 21.6,21.4 	"/>
	<polygon class="st0" points="24.5,35.7 26.6,34.5 27.5,35 34.2,36.7 27.3,36.7 25.2,37 	"/>
	<g>
		<circle class="st6" cx="46" cy="15" r="7.8"/>
		<ellipse class="st7" cx="46.1" cy="24.3" rx="3.2" ry="1.8"/>
		<ellipse class="st7" cx="46.1" cy="25.3" rx="2.9" ry="1.8"/>
		<ellipse class="st6" cx="46" cy="21.4" rx="3.6" ry="2.4"/>
		<path class="st8" d="M46.3,21.7l0.5-3.4c0-0.2,0.1-0.6,0.3-1c0.6-0.9,2.1-0.9,2.3-0.3c0.2,0.5-0.3,1.3-0.9,1.8
			C47.2,19.9,45,20,43.8,19c-0.7-0.6-1.2-1.7-0.8-2.1c0.3-0.4,1.5-0.2,2.1,0.5c0.2,0.3,0.3,0.6,0.4,0.9c0.1,1.2,0.2,2.3,0.4,3.5"/>
		<path class="st9" d="M39.3,15.7c0.4,0.4,3,2.9,7,2.7c3.5-0.1,5.7-2.2,6.2-2.7c0.1,0.5,0.2,1.2,0,2.1c-0.6,2.6-3.3,4.7-6.2,4.8
			c-3,0.1-5.8-1.8-6.7-4.3C39.2,17.2,39.2,16.3,39.3,15.7z"/>
		<ellipse class="st7" cx="46" cy="23.2" rx="3.6" ry="1.8"/>
		<path class="st10" d="M47.1,8c0.5,0.1,3.5,0.6,5.1,3.2c0.7,1.2,0.9,2.3,1,3c-0.1-0.7-0.5-2.2-1.9-3.5c-2.4-2.2-5.4-1.8-5.8-1.7
			L47.1,8z"/>
		<ellipse class="st11" cx="46.4" cy="21.3" rx="3.6" ry="2.4"/>
		<ellipse class="st11" cx="46.4" cy="21.3" rx="3.6" ry="2.4"/>
		<polygon class="st6" points="47.2,6.9 50.4,3.2 50.7,3.7 		"/>
		<polygon class="st6" points="49.1,7.3 53.9,6.5 53.8,7.1 		"/>
		<polygon class="st6" points="45.6,6.8 45.2,2 45.7,2.1 		"/>
		<polygon class="st6" points="43.7,6.8 40.1,3.7 40.5,3.3 		"/>
		<polygon class="st6" points="41.7,7.4 36.9,7.4 37,6.9 		"/>
	</g>
	<g>
		<path class="st5" d="M24.7,35.6c0.6-0.5,1.3-0.9,1.9-1.3c0.3,0.2,0.9,0.5,1,0.5c2.3,0.5,4.5,1.1,6.7,1.9c-2.3-0.4-4.5-0.9-6.8-1.5
			c-0.3-0.2-0.6-0.4-0.9-0.6h0.1C26,35,25.3,35.3,24.7,35.6L24.7,35.6z"/>
	</g>
	<path d="M83.7,24.4c-0.4,0.8-0.7,1.6-0.4,2.4c0.3,0.8,1.3,1.1,2.4,1.4c1.8,0.5,3.2,0.3,5.8,0c1.2-0.1,1.6-0.3,1.8-0.6
		c0.7-0.9-0.1-2.6-0.6-3.4s-1.1-1.2-1.6-1.6c-1.3-1-2.7-1.9-4.2-1.6C85.1,21.4,84.2,23.3,83.7,24.4z"/>
	<path class="st0" d="M79.1,59.6c-0.1,11.3-0.3,22.6-0.4,33.8c0.6,0.1,1.2,0.1,1.8,0.2c1.6-11.9,3.2-23.8,4.8-35.6
		C83.3,58.5,81.2,59.1,79.1,59.6z"/>
	<path class="st0" d="M92.9,59.6c0.1,11.3,0.3,22.6,0.4,33.8c-0.6,0.1-1.2,0.1-1.8,0.2c-1.6-11.9-3.2-23.8-4.8-35.6
		C88.7,58.5,90.8,59.1,92.9,59.6z"/>
	<path class="st3" d="M93.3,93.4c0.5,0.8,0.9,1.6,1.4,2.4c1.4,0.7,2.8,1.5,4.2,2.2c-2.3-0.1-4.5-0.1-6.8-0.2h-0.8l-0.3-2.2
		c0.2-0.7,0.3-1.3,0.5-2C92.1,93.6,92.7,93.5,93.3,93.4z"/>
	<path class="st0" d="M85.3,25c-0.2,0.5,0.3,0.8,0.2,1.8c-0.1,0.5-0.3,1.2-0.8,1.8c-0.2,0.3-0.3,0.3-0.4,0.5
		c-0.2,0.6,0.8,1.2,1.6,2.7c0.8,1.4,0.8,2.5,1.1,2.5c0.3,0,0.3-1.1,1.1-2.7c0.4-0.8,0.7-1.4,1.3-1.8c0.4-0.3,0.9-0.4,0.9-0.7
		c0-0.2-0.4-0.2-0.8-0.6c0,0-0.7-0.6-0.9-1.6c-0.2-0.8,0.1-1.1-0.1-1.6C88.2,24.1,85.7,24,85.3,25z"/>
	<path class="st2" d="M80,47.2c-0.7,5.2-1.5,10.4-2.2,15.6c5.3,0.1,10.7,0.1,16,0.2c-0.6-5.2-1.2-10.4-1.8-15.6
		C87.9,47.3,83.9,47.3,80,47.2z"/>
	<path class="st0" d="M88,26.5h-1.1c-1.4,0-2.5-1.1-2.5-2.5v-5c0-1.4,1.1-2.5,2.5-2.5H88c1.4,0,2.5,1.1,2.5,2.5v5
		C90.4,25.4,89.3,26.5,88,26.5z"/>
	<path class="st0" d="M84.7,20.8c-0.1-0.1-0.2-0.2-0.5-0.3c-0.1,0-0.3-0.1-0.5,0.1c-0.1,0.1-0.1,0.2,0,0.5c0.1,0.4,0.2,0.7,0.3,0.8
		c0.1,0.2,0.2,0.4,0.4,0.5c0.1,0.1,0.3,0.2,0.4,0.1C85.1,22.4,85.2,21.3,84.7,20.8z"/>
	<path class="st1" d="M90.1,28.8c1.7,0.8,3.3,1.6,5,2.4c-1.6,3.7-3.2,7.3-4.8,11c0.5,1.7,1.1,3.5,1.6,5.2c-4-0.1-8-0.1-12-0.2
		c0.7-1.7,1.3-3.5,2-5.2c-0.7-4.1-1.5-8.1-2.2-12.2c1.6-0.3,3.2-0.7,4.8-1c0.8,1,1.6,2,2.4,3C88,30.8,89.1,29.8,90.1,28.8z"/>
	<path class="st0" d="M90.1,20.8c0.1-0.1,0.2-0.2,0.5-0.3c0.1,0,0.3-0.1,0.5,0.1c0.1,0.1,0.1,0.2,0,0.5c-0.1,0.4-0.2,0.7-0.3,0.8
		c-0.1,0.2-0.2,0.4-0.4,0.5c-0.1,0.1-0.3,0.1-0.4,0.1C89.7,22.4,89.6,21.3,90.1,20.8z"/>
	<path class="st0" d="M79.7,46.6c0.6,0.6,1.1,1.2,1.7,1.8l-0.5,0.5l-1.5,4.4l-0.1-4.8c0-0.4,0.1-0.8,0.1-1.2
		C79.6,47.1,79.7,46.9,79.7,46.6z"/>
	<path class="st1" d="M84.6,29.2c-1.6,0.2-3.2,0.4-4.9,0.5c-2.2,3.7-4.4,7.5-6.6,11.2c2.1,2.7,4.1,5.5,6.2,8.2
		c0.2-0.8,0.4-1.6,0.6-2.4c-1.1-2-2.3-4-3.4-6c1.9-1.9,4.1-4.4,6-7.6C83.4,31.8,84.1,30.5,84.6,29.2z"/>
	<path class="st3" d="M78.7,93.4c-0.5,0.8-0.9,1.6-1.4,2.4c-1.4,0.7-2.8,1.5-4.2,2.2c2.3-0.1,4.5-0.1,6.8-0.2h0.8l0.3-2.2
		c-0.2-0.7-0.3-1.3-0.5-2C80,93.6,79.3,93.5,78.7,93.4z"/>
	<path class="st4" d="M85.3,24.8h2.2c-0.1,0-0.4,0.4-1.1,0.4C85.7,25.2,85.3,24.8,85.3,24.8z"/>
	<polyline class="st12" points="85.8,22.5 85.5,23.5 86,24 	"/>
	<ellipse class="st5" cx="87.1" cy="22.1" rx="0.2" ry="0.2"/>
	<ellipse class="st5" cx="85" cy="22.1" rx="0.2" ry="0.2"/>
	<g>
		<path class="st5" d="M84.3,21.6c0.1,1,0,2.2,0.3,3.2c0.4,1,1.4,1.6,2.4,1.8C84.1,26.6,83.9,24,84.3,21.6L84.3,21.6z"/>
	</g>
	<g>
		<path class="st5" d="M84.4,28.8c-1.7,0.5-3.3,1-5,1.4l0.1-0.1c-0.8,1.5-1.6,3-2.5,4.5c-0.8,1.5-1.7,3-2.7,4.4
			c0.8-1.5,1.5-3.1,2.3-4.6s1.6-3,2.5-4.5v-0.1h0.1C81,29.5,82.7,29.1,84.4,28.8z"/>
	</g>
	<path d="M86.1,19.2c0.3,0,0.6,0,1,0.2c0.3,0.1,1.4,0.5,2,1.6c0.3,0.5,0.3,0.9,0.4,1.8c0.2,1.6,0.2,3.8,0.2,3.8c0,0.2,0,0.5,0.2,0.8
		c0.4,0.5,1.1,0.6,1.6,0.6c0.6,0,1.4,0.1,1.8-0.4c0.3-0.4,0.2-0.9,0-2c-0.1-0.4-0.2-0.7-0.2-1c-0.2-0.8-0.5-1.4-0.6-1.6
		c-0.7-1.7-0.2-2.5-0.8-3.8c-0.7-1.5-2-2.1-2.2-2.2c-1.4-0.7-3.5-0.7-4.8,0.4c-1.8,1.5-0.6,4.1-1.8,7c-0.1,0.2-0.4,0.9-0.2,1.6
		c0.2,0.9,0.9,1.3,1,1.4c0.1,0,0.9,0.6,1.2,0.4c0.2-0.2,0-0.7-0.2-1.4c-0.4-1.3-0.4-2.3-0.4-3.4s0-1.8,0.4-2.6
		C84.9,20.1,85.3,19.3,86.1,19.2z"/>
	<path class="st0" d="M92.3,47.8c-0.6,0.4-1.1,0.9-1.7,1.3l0.5,0.5l1.6,4.4l-0.1-4.8c-0.1-0.4-0.1-0.8-0.1-1.2
		C92.5,48,92.4,47.9,92.3,47.8z"/>
	<path class="st1" d="M90.5,29.8c1.6,0.5,3.1,0.9,4.7,1.4c1.6,4,3.1,8.1,4.6,12.2c-2.3,2-4.7,4-7.1,6.1c-0.1-0.5-0.3-1.1-0.4-1.6
		c1.4-1.7,2.8-3.5,4.2-5.2c-1.6-2.2-3.3-5-4.7-8.5C91.2,32.6,90.8,31.2,90.5,29.8z"/>
	<g>
		<path class="st5" d="M80.8,35.4c0.6,2.2,1,4.4,1.4,6.6c-0.6,1.5-1.2,3-1.9,4.4c0.4-1.5,1-3,1.5-4.5C81.4,40.3,81,37.5,80.8,35.4
			L80.8,35.4z"/>
	</g>
	<g>
		<path class="st5" d="M92.6,35.9c1.5,2.2,2.8,4.4,4.1,6.7c-0.7,0.9-1.4,1.8-2.2,2.7c-0.7,0.8-1.4,1.7-2.2,2.5
			c0.6-0.9,1.3-1.8,2-2.7s1.4-1.8,2-2.6v0.2C95,40.4,93.7,38.2,92.6,35.9L92.6,35.9z"/>
	</g>
	<g>
		<g>
			
				<linearGradient id="SVGID_1_" gradientUnits="userSpaceOnUse" x1="62.2453" y1="1037.1" x2="66.4353" y2="1037.1" gradientTransform="matrix(1 0 0 1 0 -978)">
				<stop  offset="1.978731e-03" style="stop-color:#27B0FC"/>
				<stop  offset="1" style="stop-color:#63CEF9"/>
			</linearGradient>
			<rect x="62.3" y="44.7" class="st13" width="4.2" height="28.8"/>
			
				<linearGradient id="SVGID_00000090269504319745578980000016188824830518725254_" gradientUnits="userSpaceOnUse" x1="55.97" y1="1038.7" x2="60.16" y2="1038.7" gradientTransform="matrix(1 0 0 1 0 -978)">
				<stop  offset="1.978731e-03" style="stop-color:#27B0FC"/>
				<stop  offset="1" style="stop-color:#63CEF9"/>
			</linearGradient>
			
				<rect x="56" y="47.9" style="fill:url(#SVGID_00000090269504319745578980000016188824830518725254_);" width="4.2" height="25.6"/>
			
				<linearGradient id="SVGID_00000118356762764869675510000003872686267216041873_" gradientUnits="userSpaceOnUse" x1="49.69" y1="1040.3" x2="53.88" y2="1040.3" gradientTransform="matrix(1 0 0 1 0 -978)">
				<stop  offset="1.978731e-03" style="stop-color:#27B0FC"/>
				<stop  offset="1" style="stop-color:#63CEF9"/>
			</linearGradient>
			
				<rect x="49.7" y="51.1" style="fill:url(#SVGID_00000118356762764869675510000003872686267216041873_);" width="4.2" height="22.4"/>
			
				<linearGradient id="SVGID_00000005234771947325243140000017857042043303244694_" gradientUnits="userSpaceOnUse" x1="43.41" y1="1038.7" x2="47.6" y2="1038.7" gradientTransform="matrix(1 0 0 1 0 -978)">
				<stop  offset="1.978731e-03" style="stop-color:#27B0FC"/>
				<stop  offset="1" style="stop-color:#63CEF9"/>
			</linearGradient>
			
				<rect x="43.5" y="47.9" style="fill:url(#SVGID_00000005234771947325243140000017857042043303244694_);" width="4.2" height="25.6"/>
			
				<linearGradient id="SVGID_00000060016088208873429860000018087146625102238082_" gradientUnits="userSpaceOnUse" x1="37.13" y1="1040" x2="41.32" y2="1040" gradientTransform="matrix(1 0 0 1 0 -978)">
				<stop  offset="1.978731e-03" style="stop-color:#27B0FC"/>
				<stop  offset="1" style="stop-color:#63CEF9"/>
			</linearGradient>
			
				<rect x="37.2" y="50.5" style="fill:url(#SVGID_00000060016088208873429860000018087146625102238082_);" width="4.2" height="23"/>
			
				<linearGradient id="SVGID_00000152954256592863336970000013111159628790711197_" gradientUnits="userSpaceOnUse" x1="30.85" y1="1041.25" x2="35.04" y2="1041.25" gradientTransform="matrix(1 0 0 1 0 -978)">
				<stop  offset="1.978731e-03" style="stop-color:#27B0FC"/>
				<stop  offset="1" style="stop-color:#63CEF9"/>
			</linearGradient>
			
				<rect x="30.9" y="53" style="fill:url(#SVGID_00000152954256592863336970000013111159628790711197_);" width="4.2" height="20.5"/>
			
				<linearGradient id="SVGID_00000101068284536094978940000015499890358271357844_" gradientUnits="userSpaceOnUse" x1="68.5244" y1="1035.5" x2="72.7144" y2="1035.5" gradientTransform="matrix(1 0 0 1 0 -978)">
				<stop  offset="1.978731e-03" style="stop-color:#27B0FC"/>
				<stop  offset="1" style="stop-color:#63CEF9"/>
			</linearGradient>
			
				<rect x="68.6" y="41.5" style="fill:url(#SVGID_00000101068284536094978940000015499890358271357844_);" width="4.2" height="32"/>
			<line class="st20" x1="30.9" y1="73.5" x2="72.8" y2="73.5"/>
		</g>
		<g>
			<polygon class="st21" points="30.9,50.2 46.2,40.8 51.9,44.6 75.6,24.7 51.9,46.6 46.2,42.6 30.9,52 			"/>
			<polygon class="st21" points="74.4,24.6 75.7,25.9 75.9,24.5 			"/>
		</g>
	</g>
</g>
</svg>
