<?xml version="1.0" encoding="utf-8"?>
<!-- Generator: Adobe Illustrator 26.0.1, SVG Export Plug-In . SVG Version: 6.00 Build 0)  -->
<svg version="1.1" id="Layer_1" xmlns="http://www.w3.org/2000/svg" xmlns:xlink="http://www.w3.org/1999/xlink" x="0px" y="0px"
	 viewBox="0 0 100 100" style="enable-background:new 0 0 100 100;" xml:space="preserve">
<style type="text/css">
	.st0{fill:url(#SVGID_1_);}
	.st1{clip-path:url(#SVGID_00000128467795204280246570000001086567871016201886_);fill:#FFBA9F;}
	.st2{clip-path:url(#SVGID_00000138532713723448617140000016620484353424958877_);fill:#FFBA9F;}
	.st3{clip-path:url(#SVGID_00000054956223075432078150000000123326055601373098_);}
	.st4{clip-path:url(#SVGID_00000024721167669392891530000013045805728542049981_);fill:#FFBA9F;}
	.st5{clip-path:url(#SVGID_00000031202294902560024220000012194232256434326447_);}
	.st6{clip-path:url(#SVGID_00000119105725776741609560000018029513646971624114_);}
	.st7{clip-path:url(#SVGID_00000031912431232736904090000015441162976355728811_);fill:#FFBA9F;}
	.st8{clip-path:url(#SVGID_00000024700778282413206460000014452234113273826484_);fill:#336DFF;}
	.st9{clip-path:url(#SVGID_00000098190370837098344650000000535978956667105155_);fill:#336DFF;}
	.st10{clip-path:url(#SVGID_00000039123699725941626510000000716758899370888585_);fill:#FFFFFF;}
	
		.st11{clip-path:url(#SVGID_00000086668529016524767480000006749571858791510426_);fill:none;stroke:#58595B;stroke-width:5.000000e-02;stroke-miterlimit:10;}
	.st12{clip-path:url(#SVGID_00000008147664183645961430000008399435759692255655_);fill:#414042;}
	.st13{clip-path:url(#SVGID_00000060711359171142393920000014984494575197290141_);fill:#414042;}
	.st14{clip-path:url(#SVGID_00000090990309689649773310000000313459784524921494_);}
	.st15{fill:#414042;}
	.st16{fill:#333D49;}
	.st17{fill:url(#SVGID_00000157297489429901460000000001995547953627135888_);}
	.st18{fill:#99B0D5;}
	.st19{fill:#C6DFFF;}
	.st20{fill:#B1CCE9;}
	.st21{fill:#FFFFFF;}
	.st22{fill:url(#SVGID_00000085224391440731537350000006230985314539811722_);}
	.st23{fill:none;stroke:#FFFFFF;stroke-width:0.2;stroke-miterlimit:10;}
	.st24{fill:#FF5E33;}
	.st25{fill:none;stroke:#FF5E33;stroke-width:0.5;stroke-miterlimit:10;}
	.st26{fill:#48AE52;}
	.st27{fill:none;stroke:#48AE52;stroke-width:0.5;stroke-miterlimit:10;}
	.st28{fill:#6EC0FF;}
	.st29{fill:none;stroke:#333333;stroke-width:0.5;stroke-miterlimit:10;}
	.st30{fill:none;stroke:#333333;stroke-width:0.25;stroke-miterlimit:10;}
	.st31{fill:none;stroke:#333333;stroke-miterlimit:10;}
	.st32{fill:url(#SVGID_00000044894705335753957160000017261298505269376663_);}
	.st33{fill:#4DD9FF;}
	.st34{fill:none;stroke:#7F90B1;stroke-width:1.5;stroke-miterlimit:10;}
</style>
<linearGradient id="SVGID_1_" gradientUnits="userSpaceOnUse" x1="8.59" y1="14.845" x2="91.86" y2="14.845" gradientTransform="matrix(1 0 0 -1 0 102)">
	<stop  offset="0.3935" style="stop-color:#A8E1FF"/>
	<stop  offset="1" style="stop-color:#DCFDFE"/>
</linearGradient>
<rect x="8.6" y="82.3" class="st0" width="83.3" height="9.7"/>
<g>
	<g>
		<defs>
			<rect id="SVGID_00000150814424350722990880000016264061761922656398_" x="18.3" y="24" width="70" height="58.3"/>
		</defs>
		<clipPath id="SVGID_00000088853582588749216850000018099567934134157976_">
			<use xlink:href="#SVGID_00000150814424350722990880000016264061761922656398_"  style="overflow:visible;"/>
		</clipPath>
		<path style="clip-path:url(#SVGID_00000088853582588749216850000018099567934134157976_);fill:#FFBA9F;" d="M46.1,44.6
			c-0.4,0.9,0.6,1.4,0.3,3.2c-0.2,1-0.7,2.3-1.7,3.2c-0.6,0.6-0.7,0.5-0.8,0.8c-0.4,1.1,1.7,2.3,3.5,4.9c1.7,2.6,1.7,4.5,2.4,4.5
			c0.7,0,0.6-2.1,2.5-5c0.9-1.4,1.6-2.5,2.9-3.2c1-0.6,2-0.8,2-1.2c0-0.4-0.8-0.4-1.8-1.2c-0.1,0-1.4-1.1-1.9-2.8
			c-0.4-1.5,0.3-2-0.1-2.8C52.5,43,47,42.9,46.1,44.6z"/>
	</g>
	<g>
		<defs>
			<rect id="SVGID_00000103235756004357715660000011362156064266313110_" x="18.3" y="24" width="70" height="58.3"/>
		</defs>
		<clipPath id="SVGID_00000060029704698870276100000002923144076227535239_">
			<use xlink:href="#SVGID_00000103235756004357715660000011362156064266313110_"  style="overflow:visible;"/>
		</clipPath>
		<path style="clip-path:url(#SVGID_00000060029704698870276100000002923144076227535239_);fill:#FFBA9F;" d="M50.8,47.5h-2.2
			c-2.5,0-4.5-2-4.5-4.5v-9c0-2.5,2-4.5,4.5-4.5h2.2c2.5,0,4.5,2,4.5,4.5v9C55.3,45.5,53.2,47.5,50.8,47.5z"/>
	</g>
	<g>
		<defs>
			<rect id="SVGID_00000032628636942878175790000012785323612284409477_" x="18.3" y="24" width="70" height="58.3"/>
		</defs>
		<clipPath id="SVGID_00000026161392499732205140000014140946978906220947_">
			<use xlink:href="#SVGID_00000032628636942878175790000012785323612284409477_"  style="overflow:visible;"/>
		</clipPath>
		<path style="clip-path:url(#SVGID_00000026161392499732205140000014140946978906220947_);" d="M44.1,37.3c-0.3-0.2-0.7-0.5-1-1
			c-0.1-0.1-0.5-0.7-0.7-1.6c-0.1-0.6,0-1.1,0-1.2c0-0.3,0.2-0.9,0.6-1.5c0.2-0.2,0.5-0.6,1-0.6c0.2,0,0.4,0,0.5,0
			c0,0,0.2-0.1,0.4,0c0.3,0.1,0.2,0.7,0.1,0.7c0,0,0,0-0.1,0c-0.1,0-0.1,0.1-0.1,0.2c-0.7,2.6-0.8,4.7-0.8,4.7
			C44.1,37.1,44.1,37.2,44.1,37.3z"/>
	</g>
	<g>
		<defs>
			<rect id="SVGID_00000026146529745241138700000016540936073154471040_" x="18.3" y="24" width="70" height="58.3"/>
		</defs>
		<clipPath id="SVGID_00000159438349573443095200000014963680198394824865_">
			<use xlink:href="#SVGID_00000026146529745241138700000016540936073154471040_"  style="overflow:visible;"/>
		</clipPath>
		<path style="clip-path:url(#SVGID_00000159438349573443095200000014963680198394824865_);fill:#FFBA9F;" d="M44.6,37
			c-0.1-0.1-0.4-0.4-0.9-0.5c-0.2,0-0.7-0.1-0.9,0.2c-0.2,0.2-0.1,0.4,0,0.9c0.2,0.8,0.5,1.3,0.5,1.5c0.2,0.4,0.4,0.7,0.8,1
			c0.2,0.1,0.5,0.3,0.8,0.2C45.5,39.9,45.6,37.9,44.6,37z"/>
	</g>
	<g>
		<defs>
			<rect id="SVGID_00000157291330656851348170000002382417115384783238_" x="18.3" y="24" width="70" height="58.3"/>
		</defs>
		<clipPath id="SVGID_00000031895035026245187610000008756927735903347133_">
			<use xlink:href="#SVGID_00000157291330656851348170000002382417115384783238_"  style="overflow:visible;"/>
		</clipPath>
		<path style="clip-path:url(#SVGID_00000031895035026245187610000008756927735903347133_);" d="M43.8,26.4
			c-0.2,0.1-1.1,0.6-1.3,1.7c-0.2,0.6,0,1.2,0.1,1.6c0.1,0.2,0.2,0.7,0.7,1.3c0.2,0.2,0.7,0.8,1.5,1.2c0.5,0.2,0.9,0.2,1.5,0.2
			c0.3,0,1.3,0,2.6-0.4c0.8-0.2,0.9-0.4,1.4-0.4c0.6,0,1.1,0.3,1.3,0.4c0.6,0.3,0.6,0.5,1,0.8c0.9,0.6,2.4,0.6,3.1-0.1
			c0.2-0.2,0.4-0.6,0.4-0.7c0.1-0.2,0.2-0.6,0.2-1c-0.1-0.8-1-1.3-1.2-1.4c-0.8-0.4-1.7-0.3-2.3-0.2c-1,0.1-1.2,0.4-1.8,0.3
			c-0.6-0.1-1-0.4-1.3-0.6c-0.5-0.4-0.6-0.7-1.1-1.2c-0.3-0.3-0.8-0.8-1.3-1.2C46.4,26,45,25.8,43.8,26.4z"/>
	</g>
	<g>
		<defs>
			<rect id="SVGID_00000009572043673404809950000015000986295021027258_" x="18.3" y="24" width="70" height="58.3"/>
		</defs>
		<clipPath id="SVGID_00000082348434514072496640000015138752634200353719_">
			<use xlink:href="#SVGID_00000009572043673404809950000015000986295021027258_"  style="overflow:visible;"/>
		</clipPath>
		<path style="clip-path:url(#SVGID_00000082348434514072496640000015138752634200353719_);" d="M54.9,37.4c0.3-0.1,0.8-0.3,1.2-0.6
			c0,0,0,0,0,0c1.2-1,1.3-2.3,1.3-2.3c0.1-0.9-0.3-1.5-0.4-1.7c-0.3-0.5-1-1.2-1.3-1.1c-0.1,0-0.3,0.1-0.3,0.8c0,0-0.2-0.1-0.4-0.1
			c-0.3,0.1-0.3,0.5-0.2,0.6c0,0,0,0,0.1,0c0,0,0.1,0,0.1,0.2C54.9,33.4,54.9,37.1,54.9,37.4z"/>
	</g>
	<g>
		<defs>
			<rect id="SVGID_00000032608094057859153010000007618236319827580302_" x="18.3" y="24" width="70" height="58.3"/>
		</defs>
		<clipPath id="SVGID_00000068669280930401918750000009961789871473234859_">
			<use xlink:href="#SVGID_00000032608094057859153010000007618236319827580302_"  style="overflow:visible;"/>
		</clipPath>
		<path style="clip-path:url(#SVGID_00000068669280930401918750000009961789871473234859_);fill:#FFBA9F;" d="M54.8,37
			c0.1-0.1,0.4-0.4,0.9-0.5c0.2,0,0.7-0.1,0.9,0.2c0.2,0.2,0.1,0.4,0,0.9c-0.2,0.8-0.5,1.3-0.5,1.5c-0.2,0.4-0.4,0.7-0.8,1
			c-0.2,0.1-0.5,0.3-0.8,0.2C53.9,39.9,53.8,37.9,54.8,37z"/>
	</g>
	<g>
		<defs>
			<rect id="SVGID_00000157267839088572699310000018249911137630774913_" x="18.3" y="24" width="70" height="58.3"/>
		</defs>
		<clipPath id="SVGID_00000019643324850636612470000002963558729709517247_">
			<use xlink:href="#SVGID_00000157267839088572699310000018249911137630774913_"  style="overflow:visible;"/>
		</clipPath>
		<path style="clip-path:url(#SVGID_00000019643324850636612470000002963558729709517247_);fill:#336DFF;" d="M44.5,52L35.4,53
			L27,75.3c2.9,5.4,5.9,10.7,8.8,16.1l0.8-10.5l-2.2-4.2l1.9-5.1l7.8-10L44.5,52z"/>
	</g>
	<g>
		<defs>
			<rect id="SVGID_00000023241844987833877450000008074320659562652835_" x="18.3" y="24" width="70" height="58.3"/>
		</defs>
		<clipPath id="SVGID_00000028283059532582515770000009823921108805990297_">
			<use xlink:href="#SVGID_00000023241844987833877450000008074320659562652835_"  style="overflow:visible;"/>
		</clipPath>
		<path style="clip-path:url(#SVGID_00000028283059532582515770000009823921108805990297_);fill:#336DFF;" d="M56,51.3
			c3.7,0.2,7.4,0.5,11,0.7c2.7,7.7,5.3,15.3,8,23c2.7,5.1,5.4,10.2,8,15.3c-1.3,0.3-2.5,0.6-3.8,0.8c-3.1-3.7-6.2-7.4-9.2-11.1
			c-2.1-5-4.3-10.1-6.4-15.1l-1.1,29.7H35.8L36,54.5c-0.2-0.5-0.4-1-0.7-1.5c2.9-0.5,5.9-0.9,8.8-1.3c1.8,2.5,3.6,4.9,5.4,7.4
			C51.7,56.4,53.8,53.9,56,51.3z"/>
	</g>
	<g>
		<defs>
			<rect id="SVGID_00000052063039519421488030000000369508993350385556_" x="18.3" y="24" width="70" height="58.3"/>
		</defs>
		<clipPath id="SVGID_00000109029608613602687930000009333244942928716673_">
			<use xlink:href="#SVGID_00000052063039519421488030000000369508993350385556_"  style="overflow:visible;"/>
		</clipPath>
		<path style="clip-path:url(#SVGID_00000109029608613602687930000009333244942928716673_);fill:#FFFFFF;" d="M47.6,43.4h4.1
			c-0.1,0.2-0.8,1.5-2,1.5S47.7,43.6,47.6,43.4z"/>
	</g>
	<g>
		<defs>
			<rect id="SVGID_00000059293739788201513960000012837528681548573370_" x="18.3" y="24" width="70" height="58.3"/>
		</defs>
		<clipPath id="SVGID_00000106829047672577425660000004113622022522211495_">
			<use xlink:href="#SVGID_00000059293739788201513960000012837528681548573370_"  style="overflow:visible;"/>
		</clipPath>
		
			<polyline style="clip-path:url(#SVGID_00000106829047672577425660000004113622022522211495_);fill:none;stroke:#58595B;stroke-width:5.000000e-02;stroke-miterlimit:10;" points="
			49.4,39 48.8,40.8 49.7,41.8 		"/>
	</g>
	<g>
		<defs>
			<rect id="SVGID_00000057850077832681187720000014055072281244383918_" x="18.3" y="24" width="70" height="58.3"/>
		</defs>
		<clipPath id="SVGID_00000016055662387561170850000006467536400852182156_">
			<use xlink:href="#SVGID_00000057850077832681187720000014055072281244383918_"  style="overflow:visible;"/>
		</clipPath>
		
			<circle style="clip-path:url(#SVGID_00000016055662387561170850000006467536400852182156_);fill:#414042;" cx="52.1" cy="38" r="0.4"/>
	</g>
	<g>
		<defs>
			<rect id="SVGID_00000106147710633317396450000015643417651486993328_" x="18.3" y="24" width="70" height="58.3"/>
		</defs>
		<clipPath id="SVGID_00000070096010911315460250000018105640049345901497_">
			<use xlink:href="#SVGID_00000106147710633317396450000015643417651486993328_"  style="overflow:visible;"/>
		</clipPath>
		
			<circle style="clip-path:url(#SVGID_00000070096010911315460250000018105640049345901497_);fill:#414042;" cx="47" cy="38" r="0.4"/>
	</g>
	<g>
		<defs>
			<rect id="SVGID_00000121979054934284108780000001371459189302855588_" x="18.3" y="24" width="70" height="58.3"/>
		</defs>
		<clipPath id="SVGID_00000084503690978564108300000007157529787009747895_">
			<use xlink:href="#SVGID_00000121979054934284108780000001371459189302855588_"  style="overflow:visible;"/>
		</clipPath>
		<g style="clip-path:url(#SVGID_00000084503690978564108300000007157529787009747895_);">
			<g>
				<path class="st15" d="M35.8,66.2c0.3,7.3,0.3,14.9,0.3,22.2C35.5,81.1,35.5,73.5,35.8,66.2L35.8,66.2z"/>
			</g>
			<g>
				<path class="st15" d="M35.8,73.2c-0.4,1.2-0.9,2.4-1.5,3.6l0-0.2c0.6,1,1.2,2.1,1.6,3.2c-0.7-0.9-1.3-2-2-3l0-0.1
					C34.5,75.5,35.1,74.3,35.8,73.2L35.8,73.2z"/>
			</g>
			<g>
				<path class="st15" d="M44,38.6c0.1,4.8-0.5,7.8,5.2,8.9C43.4,47.1,43.4,43.3,44,38.6L44,38.6z"/>
			</g>
			<g>
				<path class="st15" d="M44.2,51.6c-2.9,0.6-5.9,1.1-8.8,1.5l0.2-0.1c-0.6,1.8-1.3,3.5-2,5.2c-0.7,1.7-1.4,3.5-2.1,5.2
					c0.6-1.8,1.2-3.5,1.8-5.3c0.7-1.8,1.3-3.6,2-5.3C38.2,52.3,41.2,51.9,44.2,51.6L44.2,51.6z"/>
			</g>
		</g>
	</g>
</g>
<polygon class="st16" points="56,88.2 63.8,82.3 53.3,82.3 "/>
<linearGradient id="SVGID_00000104666802601864008940000007460648353633767064_" gradientUnits="userSpaceOnUse" x1="32.6111" y1="10.3302" x2="50.0226" y2="40.4877" gradientTransform="matrix(1 0 0 -1 0 102)">
	<stop  offset="1.095403e-03" style="stop-color:#4A5A7C"/>
	<stop  offset="0.7914" style="stop-color:#A3B4D8"/>
</linearGradient>
<path style="fill:url(#SVGID_00000104666802601864008940000007460648353633767064_);" d="M55.1,88.4H27.5c-1,0-1.8-0.8-1.8-1.8v-20
	c0-1,0.8-1.8,1.8-1.8h27.6c1,0,1.8,0.8,1.8,1.8v20C57,87.6,56.2,88.4,55.1,88.4z"/>
<circle class="st18" cx="41.4" cy="76.5" r="2.6"/>
<g>
	<g>
		<polygon class="st19" points="37.2,3.3 23.1,3.3 20.7,5.7 20.7,27.2 37.2,27.2 		"/>
		<polygon class="st20" points="20.7,5.7 23.1,3.3 23.1,5.7 		"/>
	</g>
	<rect x="21.5" y="7.6" class="st21" width="14.9" height="0.5"/>
	<rect x="21.5" y="8.6" class="st21" width="11.4" height="0.5"/>
	<rect x="21.5" y="9.6" class="st21" width="14.9" height="0.5"/>
	<rect x="21.5" y="11.7" class="st21" width="14.9" height="0.5"/>
	<rect x="21.5" y="12.7" class="st21" width="14.9" height="0.5"/>
	<rect x="21.5" y="13.7" class="st21" width="9.1" height="0.5"/>
	<rect x="21.5" y="16" class="st21" width="14.9" height="0.5"/>
	<rect x="21.5" y="17" class="st21" width="11.4" height="0.5"/>
	<rect x="21.5" y="18" class="st21" width="9.6" height="0.5"/>
	<rect x="21.5" y="19" class="st21" width="14.9" height="0.5"/>
	<rect x="21.5" y="20.1" class="st21" width="11.4" height="0.5"/>
	<rect x="21.5" y="21.1" class="st21" width="14.9" height="0.5"/>
	<rect x="27.9" y="23.9" class="st21" width="8.5" height="0.5"/>
</g>
<g>
	<path class="st21" d="M35.5,6.5h-0.4V4h-0.3c-0.4,0-0.6,0.1-0.6,0.1l0,0V3.9h2.4v0.2l0,0c0,0-0.2-0.1-0.6-0.1h-0.3L35.5,6.5
		L35.5,6.5z"/>
</g>
<linearGradient id="SVGID_00000057827467503838061790000005179944593917530531_" gradientUnits="userSpaceOnUse" x1="56" y1="86.5" x2="78" y2="86.5" gradientTransform="matrix(1 0 0 -1 0 102)">
	<stop  offset="0.3935" style="stop-color:#A8E1FF"/>
	<stop  offset="1" style="stop-color:#DCFDFE"/>
</linearGradient>
<rect x="56" y="7" style="fill:url(#SVGID_00000057827467503838061790000005179944593917530531_);" width="22" height="17"/>
<line class="st23" x1="58.8" y1="7.8" x2="58.8" y2="22.4"/>
<line class="st23" x1="74.4" y1="7.8" x2="74.4" y2="22.4"/>
<line class="st23" x1="61.9" y1="7.8" x2="61.9" y2="22.4"/>
<line class="st23" x1="65.1" y1="7.8" x2="65.1" y2="22.4"/>
<line class="st23" x1="68.2" y1="7.8" x2="68.2" y2="22.4"/>
<line class="st23" x1="71.3" y1="7.8" x2="71.3" y2="22.4"/>
<line class="st23" x1="56.2" y1="22.4" x2="77.1" y2="22.4"/>
<line class="st23" x1="56.2" y1="10.3" x2="77.1" y2="10.3"/>
<line class="st23" x1="56.2" y1="12.7" x2="77.1" y2="12.7"/>
<line class="st23" x1="56.2" y1="15.1" x2="77.1" y2="15.1"/>
<line class="st23" x1="56.2" y1="19.9" x2="77.1" y2="19.9"/>
<line class="st23" x1="56.2" y1="17.5" x2="77.1" y2="17.5"/>
<circle class="st24" cx="58.9" cy="20" r="0.3"/>
<circle class="st24" cx="61.9" cy="17.5" r="0.3"/>
<circle class="st24" cx="65.1" cy="20" r="0.3"/>
<circle class="st24" cx="68.2" cy="20" r="0.3"/>
<circle class="st24" cx="71.2" cy="19" r="0.3"/>
<circle class="st24" cx="74.4" cy="18.3" r="0.3"/>
<polyline class="st25" points="58.9,20 61.9,17.5 65.1,20 68.2,20 71.2,19 74.4,18.3 "/>
<circle class="st26" cx="58.9" cy="17.5" r="0.3"/>
<circle class="st26" cx="61.9" cy="15.1" r="0.3"/>
<circle class="st26" cx="65.1" cy="13.8" r="0.3"/>
<circle class="st26" cx="68.2" cy="12.7" r="0.3"/>
<circle class="st26" cx="71.4" cy="10.3" r="0.3"/>
<polyline class="st27" points="58.9,17.5 61.9,15.1 65.1,13.8 68.2,12.7 71.4,10.3 74.4,8.4 "/>
<g>
	<circle class="st28" cx="86.1" cy="37.6" r="9.6"/>
	<path class="st29" d="M86.1,37.6v-4V37.6z"/>
	<line class="st30" x1="92.9" y1="37.6" x2="86" y2="37.6"/>
	<path class="st31" d="M86.1,29.6v-1.5V29.6z"/>
	<path class="st31" d="M86.1,47.2v-1.4V47.2z"/>
	<path class="st31" d="M95.7,37.6h-1.4H95.7z"/>
	<path class="st31" d="M78,37.6h-1.4H78z"/>
</g>
<g>
	<g>
		<polygon class="st19" points="96.2,51.7 84.2,51.7 82.2,53.6 82.2,70.6 96.2,70.6 		"/>
		<polygon class="st20" points="82.2,53.6 84.2,51.7 84.2,53.6 		"/>
	</g>
	<rect x="82.8" y="55.1" class="st21" width="12.7" height="0.4"/>
	<rect x="82.8" y="55.9" class="st21" width="9.8" height="0.4"/>
	<rect x="82.8" y="56.7" class="st21" width="12.7" height="0.4"/>
	<rect x="82.8" y="58.3" class="st21" width="12.7" height="0.4"/>
	<rect x="82.8" y="59.1" class="st21" width="12.7" height="0.4"/>
	<rect x="82.8" y="59.9" class="st21" width="7.7" height="0.4"/>
	<rect x="82.8" y="61.7" class="st21" width="12.7" height="0.4"/>
	<rect x="82.8" y="62.5" class="st21" width="9.8" height="0.4"/>
	<rect x="82.8" y="63.3" class="st21" width="8.2" height="0.4"/>
	<rect x="82.8" y="64.2" class="st21" width="12.7" height="0.4"/>
	<rect x="82.8" y="64.9" class="st21" width="9.8" height="0.4"/>
	<rect x="82.8" y="65.8" class="st21" width="12.7" height="0.4"/>
	<rect x="88.3" y="68" class="st21" width="7.3" height="0.4"/>
</g>
<path class="st28" d="M96.7,61.7c0,2.8,0,5.5,0,8.2c0,0.7-0.5,1.2-1.2,1.2H79.3c-0.7,0-1.2-0.5-1.2-1.2v-9.6c0-0.7,0.5-1.2,1.2-1.2
	h6c0,0.8,0,1.7,0,2.5C89,61.7,92.8,61.7,96.7,61.7z"/>
<g>
	<rect x="3.7" y="55.4" class="st19" width="12" height="18.8"/>
	<rect x="4.6" y="57.5" class="st21" width="10" height="0.4"/>
	<rect x="4.6" y="58.3" class="st21" width="7.7" height="0.4"/>
	<rect x="4.6" y="59.1" class="st21" width="10" height="0.4"/>
	<rect x="4.6" y="60.6" class="st21" width="10" height="0.4"/>
	<rect x="4.6" y="61.4" class="st21" width="10" height="0.4"/>
	<rect x="4.6" y="62.1" class="st21" width="6.1" height="0.4"/>
	<rect x="4.6" y="63.8" class="st21" width="10" height="0.4"/>
	<rect x="4.6" y="64.6" class="st21" width="7.7" height="0.4"/>
	<rect x="4.6" y="65.4" class="st21" width="6.4" height="0.4"/>
	<rect x="4.6" y="66.1" class="st21" width="10" height="0.4"/>
	<rect x="4.6" y="66.9" class="st21" width="7.7" height="0.4"/>
	<rect x="4.6" y="67.7" class="st21" width="10" height="0.4"/>
</g>
<g>
	<rect x="7.6" y="51.8" class="st28" width="12" height="18.8"/>
	<rect x="8.5" y="53.9" class="st21" width="10" height="0.4"/>
	<rect x="8.5" y="54.7" class="st21" width="7.7" height="0.4"/>
	<rect x="8.5" y="55.5" class="st21" width="10" height="0.4"/>
	<rect x="8.5" y="57" class="st21" width="10" height="0.4"/>
	<rect x="8.5" y="57.8" class="st21" width="10" height="0.4"/>
	<rect x="8.5" y="58.5" class="st21" width="6.1" height="0.4"/>
	<rect x="8.5" y="60.2" class="st21" width="10" height="0.4"/>
	<rect x="8.5" y="61" class="st21" width="7.7" height="0.4"/>
	<rect x="8.5" y="61.8" class="st21" width="6.4" height="0.4"/>
	<rect x="8.5" y="62.5" class="st21" width="10" height="0.4"/>
	<rect x="8.5" y="63.3" class="st21" width="7.7" height="0.4"/>
</g>
<rect x="10.5" y="68.1" class="st21" width="10" height="0.4"/>
<g>
	
		<linearGradient id="SVGID_00000124873123828851501830000013821172690583715203_" gradientUnits="userSpaceOnUse" x1="6.38" y1="62.54" x2="26.24" y2="62.54" gradientTransform="matrix(1 0 0 -1 0 102)">
		<stop  offset="1.978731e-03" style="stop-color:#27B0FC"/>
		<stop  offset="1" style="stop-color:#63CEF9"/>
	</linearGradient>
	
		<rect x="6.4" y="33.2" style="fill:url(#SVGID_00000124873123828851501830000013821172690583715203_);" width="19.9" height="12.5"/>
	<polygon class="st33" points="6.4,33.2 16.3,42.1 26.2,33.2 	"/>
</g>
<rect x="55.3" y="6.4" class="st34" width="22.9" height="17.3"/>
</svg>
