<?xml version="1.0" encoding="utf-8"?>
<!-- Generator: Adobe Illustrator 26.0.1, SVG Export Plug-In . SVG Version: 6.00 Build 0)  -->
<svg version="1.1" id="Layer_1" xmlns="http://www.w3.org/2000/svg" xmlns:xlink="http://www.w3.org/1999/xlink" x="0px" y="0px"
	 viewBox="0 0 100 100" style="enable-background:new 0 0 100 100;" xml:space="preserve">
<style type="text/css">
	.st0{fill:#FFB99E;}
	.st1{fill:#336DFF;}
	.st2{fill:url(#SVGID_1_);}
	.st3{fill:url(#SVGID_00000158014150915907640910000013124257328064713099_);}
	.st4{fill:#F3FCFF;}
	.st5{fill:#48AE52;}
	.st6{fill:none;stroke:#48AE52;stroke-width:0.5;stroke-miterlimit:10;}
	.st7{fill:#FF5E33;}
	.st8{fill:none;stroke:#FF5E33;stroke-width:0.5;stroke-miterlimit:10;}
	.st9{fill:#011435;}
	.st10{fill:#7F4126;}
	.st11{fill:#97C1FF;}
	.st12{fill:#FFBA9F;}
	.st13{fill:#242528;}
	.st14{fill:#FFFFFF;}
	.st15{fill:none;stroke:#58595B;stroke-width:5.000000e-02;stroke-miterlimit:10;}
	.st16{fill:#414042;}
	.st17{fill:#190D08;}
	.st18{fill:#6EC0FF;}
	.st19{fill:#301A0F;}
</style>
<g>
	<path class="st0" d="M82.8,15.4c0.3,0.5-0.4,0.9-0.2,2.1c0.1,0.6,0.4,1.4,1.1,2.1c0.4,0.4,0.5,0.3,0.5,0.5c0.3,0.7-1.1,1.4-2.2,3.1
		c-1.1,1.6-1.1,2.9-1.5,2.9c-0.5,0-0.4-1.3-1.6-3.2c-0.6-0.9-1-1.6-1.9-2.1c-0.6-0.4-1.2-0.5-1.2-0.8c0-0.2,0.5-0.3,1.1-0.8
		c0,0,0.9-0.7,1.2-1.8c0.3-1-0.2-1.3,0.1-1.8C78.8,14.3,82.2,14.2,82.8,15.4z"/>
	<path class="st0" d="M79.8,17.2h1.4c1.6,0,2.9-1.3,2.9-2.9V8.6c0-1.6-1.3-2.9-2.9-2.9h-1.4c-1.6,0-2.9,1.3-2.9,2.9v5.7
		C76.9,15.9,78.2,17.2,79.8,17.2z"/>
	<path d="M84.2,10.7c0.2-0.1,0.4-0.3,0.7-0.6c0.1-0.1,0.3-0.5,0.4-1c0.1-0.4,0-0.7,0-0.8c0-0.2-0.1-0.6-0.4-0.9
		C84.8,7.3,84.5,7,84.2,7c-0.2,0-0.3,0-0.3,0s-0.1-0.1-0.2,0c-0.2,0.1-0.2,0.4-0.1,0.5c0,0,0,0,0.1,0l0.1,0.1c0.4,1.6,0.5,3,0.5,3
		C84.1,10.5,84.2,10.6,84.2,10.7z"/>
	<path class="st0" d="M83.8,10.4c0.1-0.1,0.3-0.3,0.6-0.3c0.1,0,0.4-0.1,0.6,0.1c0.1,0.1,0.1,0.3,0,0.6c-0.1,0.5-0.3,0.9-0.3,0.9
		c-0.2,0.3-0.3,0.5-0.5,0.6s-0.3,0.2-0.5,0.1C83.2,12.3,83.2,11,83.8,10.4z"/>
	<path d="M84.2,3.7c0.1,0.1,0.7,0.4,0.9,1.1c0.1,0.4,0,0.8-0.1,1c0,0.1-0.1,0.5-0.4,0.8c-0.1,0.2-0.4,0.5-1,0.7
		c-0.3,0.1-0.6,0.1-0.9,0.1c-0.2,0-0.8,0-1.7-0.3c-0.5-0.1-0.6-0.2-0.9-0.2c-0.4,0-0.7,0.2-0.8,0.3c-0.4,0.2-0.4,0.3-0.6,0.5
		c-0.6,0.4-1.5,0.4-2-0.1c-0.2-0.2-0.2-0.4-0.3-0.5c-0.1-0.1-0.2-0.4-0.1-0.6C76.4,6,77,5.7,77.2,5.6c0.5-0.3,1.1-0.2,1.4-0.2
		c0.6,0.1,0.7,0.3,1.2,0.2c0.4-0.1,0.7-0.3,0.8-0.4C80.9,5,81,4.8,81.2,4.4c0.2-0.2,0.5-0.5,0.8-0.8C82.6,3.5,83.6,3.3,84.2,3.7z"/>
	<path d="M77.2,10.7c-0.2-0.1-0.5-0.2-0.8-0.4l0,0c-0.8-0.6-0.8-1.5-0.8-1.5c0-0.6,0.2-1,0.3-1.1C76,7.4,76.4,6.9,76.8,7
		c0,0,0.2,0.1,0.2,0.5c0,0,0.1-0.1,0.2-0.1c0.2,0,0.2,0.3,0.2,0.4c0,0,0,0-0.1,0c0,0,0,0-0.1,0.1C77.2,8.2,77.2,10.5,77.2,10.7z"/>
	<path class="st0" d="M77.2,10.4c-0.1-0.1-0.3-0.3-0.6-0.3c-0.1,0-0.4-0.1-0.6,0.1c-0.1,0.1-0.1,0.3,0,0.6c0.1,0.5,0.3,0.9,0.3,0.9
		c0.2,0.3,0.3,0.5,0.5,0.6s0.3,0.2,0.5,0.1C77.8,12.3,77.8,11,77.2,10.4z"/>
	<path class="st1" d="M83.8,20.1l5.8,0.6L95,34.9c-1.9,3.4-3.8,6.8-5.6,10.3l-0.5-6.7l1.4-2.7l-1.2-3.2l-5-6.4L83.8,20.1z"/>
	<g>
		
			<linearGradient id="SVGID_1_" gradientUnits="userSpaceOnUse" x1="18.6484" y1="1049.5702" x2="59.277" y2="979.1992" gradientTransform="matrix(1 0 0 1 0 -978)">
			<stop  offset="0.3935" style="stop-color:#A8E1FF"/>
			<stop  offset="1" style="stop-color:#DCFDFE"/>
		</linearGradient>
		<path class="st2" d="M71.8,63.8h-66c-1.5,0-2.6-1.2-2.6-2.6V12.3c0-2.2,1.7-3.9,3.9-3.9h63.5c2.2,0,3.9,1.8,3.9,3.9v48.8
			C74.6,62.6,73.3,63.8,71.8,63.8z"/>
		
			<linearGradient id="SVGID_00000168832721012226195890000005848288228502955166_" gradientUnits="userSpaceOnUse" x1="3.25" y1="988.8696" x2="74.55" y2="988.8696" gradientTransform="matrix(1 0 0 1 0 -978)">
			<stop  offset="1.978731e-03" style="stop-color:#27B0FC"/>
			<stop  offset="1" style="stop-color:#63CEF9"/>
		</linearGradient>
		<path style="fill:url(#SVGID_00000168832721012226195890000005848288228502955166_);" d="M74.6,14.3H3.3v-4.2
			c0-1.5,1.2-2.6,2.6-2.6h66c1.5,0,2.6,1.2,2.6,2.6L74.6,14.3L74.6,14.3z"/>
		<rect x="6.4" y="22.7" class="st4" width="27.3" height="1.5"/>
		<rect x="6.1" y="16.6" class="st4" width="37.3" height="2.6"/>
		<rect x="6.4" y="25.3" class="st4" width="27.2" height="1.5"/>
		<rect x="18.5" y="52.1" class="st4" width="53.4" height="1.5"/>
		<rect x="15.8" y="54.8" class="st4" width="56.1" height="1.5"/>
		<rect x="10.9" y="57.4" class="st4" width="61.1" height="1.5"/>
		<ellipse class="st5" cx="8.8" cy="46.8" rx="0.9" ry="0.9"/>
		<ellipse class="st5" cx="18.8" cy="38.8" rx="1" ry="0.9"/>
		<ellipse class="st5" cx="29.5" cy="34.4" rx="1" ry="0.9"/>
		<ellipse class="st5" cx="40.2" cy="30.7" rx="1" ry="0.9"/>
		<ellipse class="st5" cx="51" cy="22.7" rx="1" ry="0.9"/>
		<ellipse class="st5" cx="61" cy="16.5" rx="1" ry="0.9"/>
		<polyline class="st6" points="8.8,46.8 18.8,38.8 29.5,34.4 40.2,30.7 51,22.7 61,16.5 		"/>
		<ellipse class="st7" cx="8.9" cy="49.8" rx="0.9" ry="0.9"/>
		<ellipse class="st7" cx="19" cy="47.8" rx="1" ry="0.9"/>
		<ellipse class="st7" cx="30" cy="45.8" rx="1" ry="0.9"/>
		<ellipse class="st7" cx="41.2" cy="45.8" rx="1" ry="0.9"/>
		<ellipse class="st7" cx="51.5" cy="43.8" rx="1" ry="0.9"/>
		<ellipse class="st7" cx="62" cy="43.2" rx="1" ry="0.9"/>
		<polyline class="st8" points="8.9,49.8 19,47.8 30,45.8 41.2,45.8 51.5,43.8 62,43.2 		"/>
	</g>
	<path class="st0" d="M41.5,60c0.3,0.7-0.5,1.2-0.3,2.7c0.1,0.8,0.6,1.9,1.3,2.7c0.5,0.5,0.6,0.4,0.7,0.7c0.3,1-1.4,1.9-2.8,4.1
		C39,72.4,39,74,38.5,74s-0.5-1.7-2-4.2c-0.7-1.2-1.3-2.1-2.4-2.7c-0.8-0.5-1.6-0.6-1.6-1c0-0.3,0.6-0.4,1.4-1c0,0,1.2-1,1.5-2.4
		c0.3-1.3-0.2-1.7,0.1-2.4C36.5,58.6,40.8,58.5,41.5,60z"/>
	<ellipse cx="38.8" cy="53.4" rx="7.8" ry="8.2"/>
	<path class="st9" d="M21.9,77.5c1.1-3,2.3-5.9,3.4-8.9l8.1-3.1l9.2-0.1l8.2,3.2l3.2,8.7c-0.1,0.1-0.3,0.1-0.6,0.2
		c-1.5,0.5-5.6,1.7-15.2,1.8c-10.1,0.1-14.3-1.1-15.8-1.6C22.2,77.7,22,77.6,21.9,77.5z"/>
	<polygon class="st0" points="55.2,25.4 53.5,23.5 52.2,23.8 44.5,23.7 52,25.7 54.2,26.7 	"/>
	<path class="st0" d="M52.8,67.5c0.3,0.7-0.5,1.2-0.3,2.7c0.1,0.8,0.6,1.9,1.3,2.7c0.5,0.5,0.6,0.4,0.7,0.7c0.3,1-1.4,1.9-2.8,4.1
		c-1.4,2.2-1.4,3.8-2,3.8s-0.5-1.7-2-4.2c-0.7-1.2-1.3-2.1-2.4-2.7c-0.8-0.5-1.6-0.6-1.6-1c0-0.3,0.6-0.4,1.4-1c0,0,1.2-1,1.5-2.4
		c0.3-1.3-0.2-1.7,0.1-2.4C47.7,66.1,52,66,52.8,67.5z"/>
	<ellipse class="st10" cx="50" cy="60.8" rx="7.8" ry="8.2"/>
	<path class="st11" d="M33.2,85c1.2-3,2.3-5.9,3.4-8.9l8.1-3.1l9.2-0.1l8.2,3.2l3.2,8.7c-0.1,0.1-0.3,0.1-0.6,0.2
		c-1.5,0.5-5.6,1.7-15.2,1.8c-10.1,0.1-14.3-1.1-15.8-1.6C33.5,85.1,33.2,85,33.2,85z"/>
	<path class="st1" d="M76.6,19.6c-2.4,0-4.7-0.1-7.1-0.1l-4.7,11.9L55.5,25l-1.7,1.9l11.6,10.5l6.3-9.1l0.7,19h17l-0.1-25.7
		c0.1-0.3,0.3-0.6,0.4-1c-1.9-0.3-3.8-0.6-5.6-0.9c-1.2,1.6-2.3,3.1-3.4,4.7C79.2,22.9,77.8,21.2,76.6,19.6z"/>
	<path class="st12" d="M65.2,90.6c-0.3,0.8-0.5,1.6-0.8,2.4c0.7,0,1.4,0.1,2.2,0.1c0.3-0.9,0.6-1.8,0.9-2.7
		C66.7,90.5,65.9,90.5,65.2,90.6z"/>
	<polygon class="st13" points="64.3,93 62.5,94.3 55.3,96.5 65.4,96.5 66.3,96.5 66.7,94.7 66.7,93 	"/>
	<path class="st0" d="M90.3,91.8c0,0.5,0,1.1,0,1.6c-0.7,0.3-1.5,0.5-2.2,0.8c-0.1-0.9-0.1-1.8-0.2-2.6
		C88.7,91.7,89.4,91.8,90.3,91.8z"/>
	<polygon class="st9" points="89.4,46.8 90.1,69.4 91.1,92.5 87.3,92.5 85.2,72.7 80.8,49.7 75.4,66.3 73.4,72 67.8,92 63.7,92 
		68.3,72.5 72.2,46.8 	"/>
	<path class="st14" d="M81.8,14.6h-2.6c0.1,0.1,0.5,0.9,1.3,0.9C81.3,15.5,81.8,14.7,81.8,14.6z"/>
	<polyline class="st15" points="80.8,11.8 81.1,12.9 80.6,13.5 	"/>
	<circle class="st16" cx="78.9" cy="11.1" r="0.2"/>
	<circle class="st16" cx="82.2" cy="11.1" r="0.2"/>
	<g>
		<g>
			<path class="st16" d="M89.4,29.1c0.2,4.7,0.2,9.5-0.2,14.2C89.1,38.6,89.1,33.8,89.4,29.1L89.4,29.1z"/>
		</g>
		<g>
			<path class="st16" d="M89.3,33.6c0.5,0.7,0.9,1.5,1.3,2.3c-0.4,0.7-0.8,1.3-1.4,2c0.2-0.7,0.6-1.4,1-2.1V36
				C89.9,35.1,89.6,34.4,89.3,33.6L89.3,33.6z"/>
		</g>
		<g>
			<path class="st16" d="M71.9,27.9c-2.2,3.3-4.4,6.5-6.7,9.7c-2-1.8-3.9-3.6-5.9-5.4c-1.9-1.8-3.8-3.5-5.7-5.4
				c2,1.7,3.9,3.4,5.9,5.1c1.9,1.7,3.9,3.5,5.8,5.2H65C67.3,34.1,69.6,31,71.9,27.9L71.9,27.9z"/>
		</g>
		<g>
			<path class="st16" d="M84.2,11.5c0.5,3,0.4,5.7-3.3,5.7C84.3,16.4,83.9,14.5,84.2,11.5L84.2,11.5z"/>
		</g>
		<g>
			<path class="st16" d="M55.2,25.2c-0.7-0.5-1.3-1.1-1.9-1.6h0.1c-0.4,0.1-0.7,0.3-1.1,0.4c-1.3,0-2.6,0-3.9-0.1
				c-1.3,0-2.6-0.1-3.9-0.2c2.6-0.2,5.2-0.1,7.8-0.1c0.1-0.1,0.8-0.2,1.1-0.3C54,23.9,54.7,24.6,55.2,25.2L55.2,25.2z"/>
		</g>
		<g>
			<path class="st16" d="M84.1,19.8c1.9,0.1,3.9,0.4,5.8,0.7c0.4,1.1,0.8,2.3,1.3,3.5c0.4,1.1,0.8,2.2,1.1,3.4
				c-0.5-1.1-0.9-2.2-1.4-3.3c-0.4-1.1-0.9-2.2-1.3-3.3l0.2,0.1C87.8,20.6,85.8,20.2,84.1,19.8L84.1,19.8z"/>
		</g>
	</g>
	<polygon class="st13" points="90.2,93.1 92.2,94.4 99.3,96.6 89.2,96.6 88.3,96.6 87.9,94.8 87.9,93.1 	"/>
	<path class="st0" d="M19,66.8c0.4,0.7-0.5,1.2-0.3,2.7c0.1,0.8,0.6,1.9,1.3,2.7c0.5,0.5,0.6,0.4,0.7,0.7c0.3,1-1.4,1.9-2.8,4.1
		c-1.4,2.2-1.4,3.8-2,3.8c-0.6,0-0.5-1.7-2-4.2c-0.7-1.2-1.3-2.1-2.4-2.7c-0.8-0.5-1.6-0.6-1.6-1c0-0.3,0.6-0.4,1.4-1
		c0.1,0,1.2-1,1.6-2.4c0.3-1.3-0.2-1.7,0.1-2.4C13.9,65.4,18.2,65.3,19,66.8z"/>
	<ellipse class="st17" cx="16.2" cy="60.2" rx="7.8" ry="8.2"/>
	<path class="st18" d="M0.8,84.3C1.9,81.2,3,78.1,4.1,75l7.7-3.3l8.8-0.1l7.8,3.3l3.1,9.1c-0.1,0.1-0.3,0.1-0.6,0.2
		c-1.5,0.5-5.4,1.8-14.5,1.9c-9.6,0.2-13.6-1.1-15-1.6C1.1,84.4,0.9,84.3,0.8,84.3z"/>
	<path class="st17" d="M18.7,66.3c0.9,4.8,1.4,8.9,0,9.5c-0.6,0.2-1.2-0.4-2.9-0.4c-1.8,0-2.4,0.8-3.1,0.6c-1.4-0.5-0.9-4.7,0-9.7
		c1.3-7.2,1.9-10.7,3-10.7C16.7,55.6,17.2,59.2,18.7,66.3z"/>
	<path class="st0" d="M33,71.9c0.3,0.7-0.5,1.2-0.3,2.7c0.1,0.8,0.6,1.9,1.3,2.7c0.5,0.5,0.6,0.4,0.7,0.7c0.3,1-1.4,1.9-2.8,4.1
		s-1.4,3.8-2,3.8c-0.6,0-0.5-1.7-2-4.2c-0.7-1.2-1.3-2.1-2.4-2.7c-0.8-0.5-1.6-0.6-1.6-1c0-0.3,0.6-0.4,1.4-1c0,0,1.2-1,1.5-2.4
		c0.3-1.3-0.2-1.7,0.1-2.4C27.8,70.5,32.2,70.4,33,71.9z"/>
	<ellipse class="st19" cx="30.2" cy="65.2" rx="7.8" ry="8.2"/>
	<path class="st9" d="M13.3,89.4c1.1-3,2.3-5.9,3.4-8.9l8.1-3.1l9.2-0.1l8.2,3.2l3.2,8.7c-0.1,0.1-0.3,0.1-0.6,0.2
		c-1.5,0.5-5.6,1.7-15.2,1.8c-10.1,0.1-14.3-1.1-15.8-1.6C13.6,89.5,13.4,89.4,13.3,89.4z"/>
	<g>
		<path class="st16" d="M11.5,71.9c-2.4,1.1-4.9,2.2-7.4,3.2L4.2,75c-0.5,1.6-1.1,3.1-1.7,4.7c-0.6,1.5-1.2,3.1-1.8,4.6
			c0.5-1.6,1-3.2,1.5-4.7c0.5-1.6,1.1-3.2,1.7-4.8C6.5,73.8,9,72.8,11.5,71.9L11.5,71.9z"/>
	</g>
	<g>
		<path class="st16" d="M44.7,73c-2.6,1.2-5.3,2.3-8,3.2l0.1-0.1c-0.3,0.6-0.6,1.2-1,1.8c0.2-0.7,0.5-1.3,0.8-2l0,0
			C39.2,74.8,41.8,73.8,44.7,73L44.7,73z"/>
	</g>
	<g>
		<path class="st16" d="M53.8,72.9c2.8,0.9,5.6,2,8.3,3c0.5,1.5,1.1,3,1.6,4.4c0.5,1.5,1,2.9,1.5,4.4c-0.6-1.4-1.2-2.8-1.8-4.3
			c-0.6-1.4-1.1-2.9-1.7-4.3l0.1,0.1C59.2,75.2,56.5,74.1,53.8,72.9L53.8,72.9z"/>
	</g>
</g>
</svg>
