<?xml version="1.0" encoding="utf-8"?>
<!-- Generator: Adobe Illustrator 26.0.1, SVG Export Plug-In . SVG Version: 6.00 Build 0)  -->
<svg version="1.1" id="Layer_1" xmlns="http://www.w3.org/2000/svg" xmlns:xlink="http://www.w3.org/1999/xlink" x="0px" y="0px"
	 viewBox="0 0 100 100" style="enable-background:new 0 0 100 100;" xml:space="preserve">
<style type="text/css">
	.st0{fill:url(#SVGID_1_);}
	.st1{fill:#FF0000;}
	.st2{fill:none;stroke:#000000;stroke-width:0.5;stroke-miterlimit:10;}
	.st3{fill:url(#SVGID_00000104674525800121365830000000098699807259262384_);}
	.st4{fill:#87B3F9;}
	.st5{fill:#A9C6FF;}
	.st6{fill:#FFBA9F;}
	.st7{fill:#242528;}
	.st8{fill:#0F52D8;}
	.st9{fill:#011435;}
	.st10{fill:#336DFF;}
	.st11{fill:url(#SVGID_00000076574099989739977960000011491954193972218538_);}
	.st12{fill:url(#SVGID_00000156557541220857532190000001087280910557364407_);}
	.st13{fill:#414042;}
</style>
<linearGradient id="SVGID_1_" gradientUnits="userSpaceOnUse" x1="65.48" y1="63.9493" x2="97" y2="63.9493" gradientTransform="matrix(1 0 0 -1 0 102)">
	<stop  offset="1.978731e-03" style="stop-color:#27B0FC"/>
	<stop  offset="1" style="stop-color:#63CEF9"/>
</linearGradient>
<path class="st0" d="M65.8,41.6c0.3-0.8,1.1-2.3,2.6-3.4c1.7-1.2,4.4-2,6.6-1.1c0.2,0.1,0.4,0.2,0.6,0.3c0.2-0.3,2.2-3.4,6.1-3.7
	c2.6-0.2,5.4,1,6.7,3c0.1,0.2,0.2,0.3,0.2,0.4c1.7-0.6,2.9-0.4,3.5-0.3c3,0.7,4.4,3.9,4.6,4.5c0.2,0.5,0.3,0.8,0.4,1.1
	c-10.5,0-21,0-31.5,0L65.8,41.6z"/>
<path class="st1" d="M78.2,23c0,2.3,0,4.5,0,6.8c0.2,0,0.6,0,1.1,0c1,0,4-0.1,7.2-0.7c3.6-0.7,6.7-2.1,8.7-3.1
	c-0.5,0.1-1.1,0.3-1.9,0.4c-4.3,0.7-7.7-0.1-8.7-0.4c-2.3-0.6-4.3-1.6-5.8-2.5L78.2,23z"/>
<line class="st2" x1="78.2" y1="23" x2="78.2" y2="38.2"/>
<g>
	
		<linearGradient id="SVGID_00000168820318265815860080000017936074702442573197_" gradientUnits="userSpaceOnUse" x1="37.2944" y1="6.4549" x2="54.5742" y2="36.3845" gradientTransform="matrix(1 0 0 -1 0 102)">
		<stop  offset="0.3935" style="stop-color:#A8E1FF"/>
		<stop  offset="1" style="stop-color:#DCFDFE"/>
	</linearGradient>
	<path style="fill:url(#SVGID_00000168820318265815860080000017936074702442573197_);" d="M91.4,89H27c-0.7,0-1.7-0.3-2.1-0.6
		L1.4,71c-0.8-0.6-0.4-1,0.9-1l58.3,0.2c1.2,0,2.9,0.4,3.8,1l27.3,17.1C92.2,88.7,92.1,89,91.4,89z"/>
	<g>
		<polygon class="st4" points="24.8,73.1 5.3,73 2.1,70.6 21.4,70.7 		"/>
		<polygon class="st5" points="29.1,76 9.4,75.9 6.1,73.5 25.6,73.6 		"/>
		<polygon class="st5" points="33.4,79 13.5,79 10.1,76.4 29.8,76.5 		"/>
		<polygon class="st5" points="37.8,82.1 17.7,82 14.2,79.5 34.2,79.5 		"/>
		<polygon class="st5" points="42.3,85.2 22,85.2 18.4,82.6 38.6,82.6 		"/>
		<polygon class="st5" points="47,88.4 26.4,88.4 22.8,85.7 43.2,85.8 		"/>
	</g>
	<g>
		<polygon class="st4" points="45.6,73.1 26.2,73.1 22.8,70.7 42,70.8 		"/>
		<polygon class="st5" points="50.1,76.1 30.5,76 27,73.6 46.4,73.6 		"/>
		<polygon class="st5" points="54.6,79 34.8,79 31.3,76.5 50.8,76.6 		"/>
		<polygon class="st5" points="59.2,82.1 39.3,82.1 35.6,79.5 55.4,79.6 		"/>
		<polygon class="st5" points="63.9,85.2 43.8,85.2 40,82.6 60,82.6 		"/>
		<polygon class="st5" points="68.9,88.4 48.5,88.4 44.6,85.8 64.8,85.8 		"/>
	</g>
	<g>
		<polygon class="st4" points="66.2,73.2 47,73.1 43.4,70.8 62.4,70.8 		"/>
		<polygon class="st5" points="70.9,76.1 51.5,76.1 47.8,73.6 67,73.7 		"/>
		<polygon class="st5" points="75.6,79.1 56,79.1 52.2,76.6 71.7,76.6 		"/>
		<polygon class="st5" points="80.4,82.1 60.7,82.1 56.8,79.6 76.4,79.6 		"/>
		<polygon class="st5" points="85.4,85.2 65.4,85.2 61.4,82.6 81.2,82.7 		"/>
		<polygon class="st5" points="90.5,88.4 70.3,88.4 66.3,85.8 86.3,85.8 		"/>
	</g>
</g>
<g>
	<path class="st6" d="M40.9,24.6c0.1,0.4,0.3,0.7,0.9,1.3c0.4,0.5,0.9,1.1,1.8,1.3c0.3,0.1,0.9,0.3,1.3,0c0.2-0.1,0.3-0.3,0.4-0.4
		c0.2-0.2,0.3-0.4,0.4-0.9c0.2-0.6,0.4-1.1,0.4-1.8c0-0.4,0-0.7,0-0.9c0-0.2-0.1-0.6-0.2-1.1c-0.1-0.4-0.3-0.7-0.4-0.9
		C44.7,20.6,40.7,22.8,40.9,24.6z"/>
	<polygon class="st6" points="46.2,24.2 46.7,25.1 45.8,25.5 	"/>
	<path class="st6" d="M41.4,25.1c-0.2,0.2,0,0.4,0,0.9c-0.1,1.2-1.3,1.4-1.3,2.2c0,0.9,1.7,1.5,2.7,1.8c0.1,0,0.3,0.1,0.4,0
		c0.2-0.2,0-0.7,0-1.3c0-1.2,1-1.5,0.9-2.2C43.9,25.4,41.8,24.6,41.4,25.1z"/>
	<path d="M40.9,25.5c-0.4-0.6-0.8-1.2-0.9-2.2c0-0.2-0.1-1.8,0.9-2.7c0.8-0.7,1.2-0.1,2.7-0.9c1-0.6,1.1-0.8,1.8-0.9
		c1-0.1,2.2,0.5,2.2,1.3c0,0.6-0.5,1.1-0.9,1.3c-0.5,0.3-0.6,0.1-1.3,0.4c-0.4,0.2-0.5,0.4-0.9,0.4c-0.5,0.1-0.5-0.1-0.9,0
		c-0.5,0.1-0.8,0.6-0.9,0.9c-0.3,0.5-0.3,0.9-0.4,0.9c-0.2,0-0.2-0.4-0.4-0.4c-0.2,0-0.4,0.2-0.4,0.4c-0.1,0.2,0,0.4,0,0.9
		c0.1,0.8,0,0.9,0,0.9C41.3,26,41.2,26,40.9,25.5z"/>
	<ellipse transform="matrix(0.1569 -0.9876 0.9876 0.1569 11.1525 61.8736)" class="st6" cx="41.8" cy="24.4" rx="0.7" ry="0.5"/>
	<polygon class="st6" points="56.2,25 56.5,24.1 57.1,22.9 58,22.9 59.2,24 58.8,24.8 56.9,26.2 	"/>
	<g>
		<rect x="49.5" y="22.4" class="st7" width="17.2" height="1.8"/>
		<path class="st7" d="M67.1,25.1h-7.7c-0.1,0-0.2-0.1-0.2-0.2v-3.2c0-0.1,0.1-0.2,0.2-0.2h7.7c0.1,0,0.2,0.1,0.2,0.2v3.2
			C67.3,25,67.2,25.1,67.1,25.1z"/>
		<path class="st7" d="M74,26h-7.6c-0.1,0-0.2-0.1-0.2-0.2v-4.9c0-0.1,0.1-0.2,0.2-0.2H74c0.1,0,0.2,0.1,0.2,0.2v4.9
			C74.2,25.9,74.2,26,74,26z"/>
		<path class="st7" d="M49.4,24.6h-0.8c-0.1,0-0.1,0-0.1-0.1v-2.4c0-0.1,0-0.1,0.1-0.1h0.8c0.1,0,0.1,0,0.1,0.1v2.4
			C49.5,24.6,49.5,24.6,49.4,24.6z"/>
	</g>
	<polygon class="st8" points="42.2,29.5 51.6,29.5 56.3,24.9 57.8,25.5 52,33.5 42.2,32.6 	"/>
	<polygon class="st6" points="20.1,76.9 19.5,78.1 21.2,78.6 21.9,77.4 	"/>
	<path class="st6" d="M48.4,71.3c-0.1,0.6-0.3,1.2-0.4,1.8c0.6,0,1.2,0,1.8,0c0.2-0.6,0.3-1.2,0.5-1.8L48.4,71.3z"/>
	<polygon class="st9" points="52.9,55.3 40.9,44.6 32.9,47.3 28.9,58.8 19.1,77.5 22.6,77.5 33.8,61.5 38.7,51.3 48.5,57.1 
		47.6,72.2 50.7,71.7 	"/>
	<path class="st6" d="M52.9,26.4c0-0.4,0-0.9,0-1.3c0-0.3,0-0.6,0-0.9c0.3-0.3,0.6-0.6,0.9-0.9c0.6,0.1,1.2,0.3,1.8,0.4v0.9
		l-1.2,2.1C53.9,26.6,53.4,26.5,52.9,26.4z"/>
	<path class="st10" d="M40.5,27.3c1,0.7,2.1,1.5,3.1,2.2l6.2,0.9L53,26l1.7,0.4l-4,7.6l-6.2-0.9L42.2,46l-9.3,1.8
		c-0.4-0.4,4.4-18.2,4.4-18.2C38.4,28.8,39.4,28,40.5,27.3z"/>
	<path class="st7" d="M21.4,78.4c-0.6-0.1-1.3-0.2-1.9-0.3c-0.4,1.1-0.8,2.3-1.2,3.4c3.5,0,7,0,10.5,0L24,79.7
		c-0.6-0.3-1.2-0.6-1.8-0.9C22,78.7,21.6,78.6,21.4,78.4z"/>
	<path class="st7" d="M49.8,73.1c-0.6,0-1.2,0-1.8,0c-0.4,1-0.9,2.1-1.3,3.1c3.5,0,7,0,10.5,0l-4.7-1.8c-0.6-0.3-1.2-0.6-1.8-0.9
		C50.4,73.4,50.1,73.2,49.8,73.1z"/>
</g>
<linearGradient id="SVGID_00000035523081375705535280000014982177825313567145_" gradientUnits="userSpaceOnUse" x1="6.61" y1="93.497" x2="42" y2="93.497" gradientTransform="matrix(1 0 0 -1 0 102)">
	<stop  offset="1.978731e-03" style="stop-color:#27B0FC"/>
	<stop  offset="1" style="stop-color:#63CEF9"/>
</linearGradient>
<path style="fill:url(#SVGID_00000035523081375705535280000014982177825313567145_);" d="M6.9,12.9c0.4-1,1.2-2.8,2.9-4.2
	c1.9-1.6,5-2.6,7.5-1.4c0.3,0.1,0.5,0.3,0.6,0.3c0.2-0.4,2.5-4.3,6.8-4.6c2.9-0.2,6,1.2,7.5,3.7c0.1,0.2,0.2,0.4,0.3,0.5
	c1.8-0.8,3.3-0.5,3.9-0.3c3.4,0.9,4.9,4.9,5.2,5.7c0.2,0.6,0.3,1.1,0.4,1.4c-11.8,0-23.6,0-35.4,0L6.9,12.9z"/>
<linearGradient id="SVGID_00000049187066091886080740000001341814398049526975_" gradientUnits="userSpaceOnUse" x1="57.52" y1="53.503" x2="70" y2="53.503" gradientTransform="matrix(1 0 0 -1 0 102)">
	<stop  offset="1.978731e-03" style="stop-color:#27B0FC"/>
	<stop  offset="1" style="stop-color:#63CEF9"/>
</linearGradient>
<path style="fill:url(#SVGID_00000049187066091886080740000001341814398049526975_);" d="M57.6,49.7c0.1-0.3,0.4-0.8,1-1.2
	c0.7-0.4,1.8-0.7,2.6-0.4c0.1,0,0.2,0.1,0.2,0.1c0.1-0.1,0.9-1.2,2.4-1.3c1-0.1,2.1,0.3,2.6,1c0,0.1,0.1,0.1,0.1,0.1
	c0.7-0.2,1.2-0.1,1.4-0.1c1.2,0.2,1.7,1.3,1.8,1.5c0.1,0.2,0.1,0.3,0.1,0.4c-4.2,0-8.3,0-12.5,0L57.6,49.7z"/>
<circle class="st13" cx="45.5" cy="24" r="0.1"/>
<g>
	<path class="st13" d="M53,29.6c-0.7,1.5-1.5,3-2.2,4.4c0,0.1,0,0.1-0.1,0c-2.8-0.4-5.6-0.9-8.4-1.4c2.8,0.3,5.7,0.8,8.5,1.2
		C51.1,32.8,52.3,30.9,53,29.6L53,29.6z"/>
</g>
<g>
	<path class="st13" d="M43.4,39.5c-0.2,2.2-0.6,4.3-1.1,6.5C42.5,43.8,42.9,41.6,43.4,39.5C43.4,39.5,42.9,41.6,43.4,39.5z"/>
</g>
<g>
	<path class="st13" d="M40.5,27.3c-1,0.7-2.2,1.8-3,2.3c-0.8,3.2-1.7,6.4-2.6,9.5c0.8-3.2,1.6-6.4,2.5-9.6
		C38.3,28.8,39.4,28,40.5,27.3L40.5,27.3z"/>
</g>
</svg>
