<?xml version="1.0" encoding="utf-8"?>
<!-- Generator: Adobe Illustrator 26.0.1, SVG Export Plug-In . SVG Version: 6.00 Build 0)  -->
<svg version="1.1" id="Layer_1" xmlns="http://www.w3.org/2000/svg" xmlns:xlink="http://www.w3.org/1999/xlink" x="0px" y="0px"
	 viewBox="0 0 100 100" style="enable-background:new 0 0 100 100;" xml:space="preserve">
<style type="text/css">
	.st0{fill:#FFB99E;}
	.st1{fill:#414042;}
	.st2{fill:none;stroke:#333333;stroke-width:0.4;stroke-miterlimit:10;}
	.st3{fill:url(#SVGID_1_);}
	.st4{fill:#333333;}
	.st5{fill:#336DFF;}
	.st6{fill:#7B4634;}
	.st7{fill:#603222;}
	.st8{fill:#F3C943;}
	.st9{fill:#1A1A1A;}
	.st10{fill:#60321F;}
	.st11{fill:#955A47;}
	.st12{fill:#985D47;}
	.st13{fill:#F3CC46;}
	.st14{fill:#46251C;}
	.st15{fill:#242528;}
	.st16{fill:#011435;}
	.st17{fill:url(#SVGID_00000027568944305335766280000003976332034343769519_);}
	.st18{fill:url(#SVGID_00000070831550317824515580000010197631523579927724_);}
	.st19{fill:url(#SVGID_00000140010114820916731000000007442945454833423805_);}
	.st20{fill:url(#SVGID_00000040550404204503959520000011619380940361209504_);}
	.st21{fill:url(#SVGID_00000167365895119018722300000016734199567018004647_);}
	.st22{fill:url(#SVGID_00000043451845899247553730000006036127519775674045_);}
	.st23{fill:url(#SVGID_00000023239345117187265070000003692497150208725907_);}
	.st24{fill:url(#SVGID_00000024712782081484057200000016673153337144993201_);}
	.st25{fill:url(#SVGID_00000057860504895263260680000000966396140580331446_);}
	.st26{fill:url(#SVGID_00000045619238563099881560000014929335295491970691_);}
	.st27{fill:url(#SVGID_00000118355308239286401860000007955783315112262067_);}
	.st28{fill:url(#SVGID_00000128463676079872921500000012336927461926606211_);}
</style>
<path class="st0" d="M62.5,9.3c-0.2-0.7-0.5-1.4-0.7-2.1c0.4-0.6,1-1.5,2-2.4c1.2-1.2,2.1-2,3.4-2.2c1.4-0.2,2.7,0.5,3.3,0.9l0.5,1
	c0.6,1.2,0.2,2.7-1,3.3c-1.1,0.7-2.2,1.4-3.2,2.2c-0.1,0.1-1.4,0.9-2.8,0.4C63.1,10.1,62.7,9.5,62.5,9.3z"/>
<path class="st0" d="M62.7,6.3c-0.5,0-0.5,0.7-1.5,1c-0.5,0.2-1.2,0.3-1.9,0.1c-0.4-0.1-0.4-0.2-0.6-0.2c-0.6,0.1-0.6,1.4-1.4,2.9
	c-0.8,1.5-1.7,2-1.5,2.3c0.3,0.6,2.2,0.7,3-0.2c0.3-0.3,0.4-0.7,0.6-0.7c0.3,0,0.2,1.2,0.6,1.3c0.3,0.1,0.6-0.4,1.6-1.4
	c0.6-0.6,0.9-0.9,1.4-1.1c0.8-0.4,1.1-0.3,1.4-0.6C65.1,9,63.8,6.3,62.7,6.3z"/>
<path d="M65.7,3.4c0-0.2,0.1-0.5,0.2-0.7c0-0.1,0.2-0.4,0.6-0.8c0.3-0.2,0.5-0.3,0.6-0.3c0.2-0.1,0.5-0.2,0.8-0.1
	c0.1,0,0.4,0.1,0.6,0.3c0.1,0.1,0.1,0.2,0.1,0.3c0,0,0.1,0.1,0.1,0.2c0,0.2-0.3,0.3-0.3,0.2c0,0,0,0,0,0c0,0-0.1,0-0.1,0
	c-1.4,0.4-2.4,0.9-2.4,0.9C65.8,3.4,65.7,3.4,65.7,3.4z"/>
<path d="M66.6,3.9c-0.2,0-0.8,0-1.3,0.2c-0.5,0.1-1.5,0.5-2.4,1.8c0-0.2,0.1-0.5,0.2-0.9c0.2-0.4,0.4-0.7,0.6-1
	c0.6-0.8,1.6-2.1,3.2-2.5c0.2,0,1.3-0.3,1.6,0.2c0.3,0.4-0.5,1.2-0.1,1.8c0.2,0.3,0.5,0.3,0.4,0.4C68.7,4.1,67.8,3.8,66.6,3.9z"/>
<path d="M74.4,9c0,0.2-0.1,0.9-0.6,1.4c-0.4,0.4-1,0.6-1.5,0.6c-1.1,0-2-1.1-2.3-1.9c-0.5-1.2,0.1-1.8-0.5-3c-0.1-0.2-0.5-1-1.4-1.4
	c-0.9-0.4-1.9-0.3-2.3-0.2c-0.7,0.1-0.9,0.3-1,0.1c-0.3-0.4,0.5-2.5,2.1-3.1c1.7-0.6,3.9,0.8,4.2,2.2c0.1,0.4,0,1,0.4,1.5
	c0.2,0.4,0.6,0.6,0.9,0.8c0.6,0.4,0.7,0.3,1.1,0.6C73.9,7.2,74.4,8.1,74.4,9z"/>
<path class="st0" d="M65.1,4.3c0-0.1,0.1-0.3,0-0.6c0-0.1-0.1-0.3-0.3-0.4c-0.1,0-0.2,0.1-0.4,0.2c-0.3,0.3-0.5,0.6-0.6,0.6
	c-0.1,0.2-0.2,0.4-0.2,0.7c0,0.1,0,0.3,0.1,0.4C63.9,5.5,64.9,5,65.1,4.3z"/>
<ellipse class="st1" cx="66.8" cy="8.1" rx="0.2" ry="0.2"/>
<g>
	<path class="st1" d="M63.7,4.9c-1.3,1.2-1.4,3-0.8,4.6C61.9,8.1,62.2,5.8,63.7,4.9L63.7,4.9z"/>
</g>
<polygon class="st0" points="67.5,9.2 66.9,10.6 65.9,10.3 "/>
<g>
	<g>
		<path class="st2" d="M97,97.1H2.2c0-20.7,0-41.4,0-62.1"/>
		<line class="st2" x1="2" y1="61.9" x2="97.1" y2="61.9"/>
		<line class="st2" x1="2" y1="70.5" x2="97.1" y2="70.5"/>
		<line class="st2" x1="2" y1="79.2" x2="97.1" y2="79.2"/>
		<line class="st2" x1="2" y1="87.9" x2="97.1" y2="87.9"/>
		<line class="st2" x1="2" y1="53.2" x2="97.1" y2="53.2"/>
		<line class="st2" x1="2" y1="44.5" x2="97.1" y2="44.5"/>
		<line class="st2" x1="2" y1="35.8" x2="97.1" y2="35.8"/>
	</g>
	
		<linearGradient id="SVGID_1_" gradientUnits="userSpaceOnUse" x1="83.74" y1="39.67" x2="88.11" y2="39.67" gradientTransform="matrix(1 0 0 -1 0 102)">
		<stop  offset="1.978731e-03" style="stop-color:#27AFFB"/>
		<stop  offset="1" style="stop-color:#63CDF8"/>
	</linearGradient>
	<rect x="83.7" y="54.6" class="st3" width="4.4" height="15.5"/>
</g>
<g>
	<path class="st0" d="M69,23.7c0.2,0.2,0.5,0.4,0.7,0.6l2.7,0l0.9,1.5l-1.3,2.5l-2.3-0.7c-0.6-0.5-1.2-1-1.7-1.4
		C68.3,25.3,68.7,24.5,69,23.7z"/>
	<path class="st4" d="M69,23.7l0.8,0.6c0.8-0.1,1.8-0.1,2.7-0.1l0,0l0.9,1.5l0,0.1l0,0.1l-1.3,2.5c-0.1,0.1,0,0.1-0.2,0.1
		c0,0-2.3-0.7-2.4-0.7c0,0-1.7-1.5-1.7-1.5l-0.1,0l0-0.1L69,23.7L69,23.7z M69,23.7l-0.9,2.5l0-0.1c0,0,1.9,1.5,1.7,1.4l2.3,0.7
		l-0.2,0.1l1.3-2.4v0.1l-0.9-1.5l0.1,0c-0.9,0-1.8,0-2.7,0C69.7,24.4,69,23.7,69,23.7L69,23.7z"/>
</g>
<path class="st5" d="M57.5,6.9c-2,0.8-3.9,1.6-5.8,2.4C47.1,12.9,42.5,16.4,38,20c3.1,1.6,6.2,3.2,9.3,4.8c3.2-2.1,6.5-4.2,9.7-6.3
	l1.8,5.2l9.5,2.5l0.9-2.7l-7.5-2.8c0-2.9,0-5.8-0.1-8.8C61.2,10.5,61,9,60.7,7.6C59.7,7.4,58.6,7.1,57.5,6.9z"/>
<g>
	<path class="st1" d="M55.9,15.4c0.9,2.5,2.3,6,2.9,8.1c3.1,0.8,6.2,1.6,9.3,2.6c-3.2-0.7-6.3-1.5-9.4-2.3
		C57.7,21,56.7,18.3,55.9,15.4L55.9,15.4z"/>
</g>
<g>
	<path class="st6" d="M20.4,17.4L18,5.9c-0.1-0.4,0.2-0.8,0.6-0.9l7.6-1.6c0.4-0.1,0.8,0.2,0.9,0.6l2.4,11.4
		c0.1,0.4-0.2,0.8-0.6,0.9L21.3,18C20.9,18,20.5,17.8,20.4,17.4z"/>
	<path class="st7" d="M20.5,17.8L17.9,5.5c0-0.2,0-0.3,0.2-0.3L18.7,5c0.1,0,0.1,0,0.2,0.1C19,5.1,19,5.2,19,5.2
		c1,3.4,1.6,6.1,1.6,6.1s0.6,2.9,1,6.2c0,0,0,0.1,0,0.2c0,0.1-0.1,0.1-0.1,0.1l-0.6,0.1C20.7,18.1,20.5,18,20.5,17.8z"/>
	<path class="st8" d="M26.4,8L26.4,8c0-0.2,0.1-0.4,0.3-0.4L29.3,7c0.2,0,0.4,0.1,0.4,0.3l0,0c0,0.2-0.1,0.4-0.3,0.4l-2.6,0.5
		C26.6,8.3,26.4,8.1,26.4,8z"/>
	<path class="st8" d="M27.2,12.1L27.2,12.1c0-0.2,0.1-0.4,0.3-0.4l2.6-0.6c0.2,0,0.4,0.1,0.4,0.3l0,0c0,0.2-0.1,0.4-0.3,0.4
		l-2.6,0.6C27.5,12.4,27.3,12.3,27.2,12.1z"/>
	<g>
		<g>
			<path class="st9" d="M28.1,6.7c1.4,1.6,1.9,3.8,1.3,5.9c-0.2,0.8,1,1.1,1.2,0.3c0.6-2.5,0-5.1-1.6-7C28.5,5.2,27.6,6.1,28.1,6.7
				L28.1,6.7z"/>
		</g>
	</g>
	<path class="st10" d="M25,16.9c-0.9-1-1.3-2.1-2-5.1C22.9,11,23,11.3,22.7,10c-0.6-3-1-4.2-0.3-5.5c0.1-0.1,0.1-0.2,0.2-0.3
		l3.8-0.8c0.3-0.1,0.6,0.1,0.7,0.4l2.5,11.9c0.1,0.3-0.1,0.6-0.5,0.7l-3.8,0.8C25.2,17.1,25.1,17,25,16.9z"/>
	<path class="st11" d="M25.2,17.1c-0.9-1-1.3-2.2-2-5.3c-0.2-0.8-0.1-0.5-0.4-1.9c-0.7-3.1-1-4.4-0.4-5.7c0.1-0.1,0.1-0.2,0.2-0.3
		l3.7-0.8C26.7,3.1,27,3.3,27,3.6l2.6,12.4c0.1,0.3-0.1,0.6-0.4,0.7l-3.7,0.8C25.4,17.3,25.3,17.2,25.2,17.1z"/>
	<rect x="22.8" y="9" transform="matrix(0.979 -0.2037 0.2037 0.979 -1.5731 5.4304)" class="st10" width="5.6" height="2.6"/>
	<path class="st12" d="M22.1,11.9l-0.3-1.5c0-0.2,0.1-0.4,0.3-0.4l6-1.2c0.2,0,0.4,0.1,0.4,0.3l0.3,1.5c0,0.2-0.1,0.4-0.3,0.4
		l-6,1.2C22.3,12.2,22.1,12.1,22.1,11.9z"/>
	<path class="st13" d="M21.5,11.6l-0.2-0.8c0-0.2,0.1-0.4,0.3-0.5l0.8-0.2c0.2,0,0.4,0.1,0.5,0.3l0.2,0.8c0,0.2-0.1,0.4-0.3,0.5
		l-0.8,0.2C21.7,11.9,21.5,11.8,21.5,11.6z"/>
	<path class="st14" d="M21.8,11.5l-0.1-0.6c0-0.1,0.1-0.3,0.2-0.3l0.4-0.1c0.1,0,0.3,0.1,0.3,0.2l0.1,0.6c0,0.1-0.1,0.3-0.2,0.3
		l-0.4,0.1C22,11.7,21.8,11.6,21.8,11.5z"/>
</g>
<g>
	<path class="st0" d="M32.8,7.9c-0.2,0-0.4,0-0.7,0l-1.9-0.7l-1,0.9l0.5,2.1l1.8,0c0.5-0.2,1-0.4,1.5-0.7C33,9.1,32.9,8.5,32.8,7.9z
		"/>
	<path class="st4" d="M32.8,7.9c0,0-0.7,0.1-0.7,0c-0.7-0.2-1.3-0.4-1.9-0.6l0.1,0C30,7.7,29.7,8,29.4,8.3l0-0.1
		c0.2,0.7,0.3,1.4,0.5,2.1l-0.1-0.1c0,0,2,0,1.8,0.1L33,9.6l0,0.1L32.8,7.9L32.8,7.9z M32.8,7.9c0.1,0.6,0.3,1.2,0.4,1.8l-0.1,0
		l-1.5,0.7c0,0,0,0,0,0l-1.8,0h-0.1c-0.2-0.8-0.3-1.5-0.5-2.3c0.4-0.3,0.7-0.7,1.1-1c0.6,0.2,1.4,0.5,1.9,0.8
		C32.1,7.9,32.8,7.9,32.8,7.9L32.8,7.9z"/>
</g>
<g>
	<path class="st1" d="M64.9,10.4c-0.3,0-0.5-0.5-0.2-0.6C64.7,10,64.8,10,64.9,10.4L64.9,10.4z"/>
</g>
<polygon class="st0" points="49,60.2 48.7,62.1 47.2,61.9 47.3,59.7 "/>
<polygon class="st15" points="48.8,62 50,63.6 54.8,67.1 47,64.8 46.4,64.7 46.6,63.1 47.1,61.5 "/>
<polygon class="st0" points="13.1,33.2 10.9,32.5 11.2,31.1 13.9,31.7 "/>
<polygon class="st15" points="10.9,32.7 9,33.5 4.4,37.5 7.7,30.2 7.9,29.6 9.9,30.2 11.7,31 "/>
<polygon class="st5" points="56.7,8.4 44.7,5.3 32.6,7.8 33,9.8 43.3,8.4 50.8,12.2 "/>
<polygon class="st16" points="38,20 29,33.4 12.5,31.3 12.5,33.4 30,39.2 40.7,27.9 47.9,41.6 47.2,60.4 49.3,60.5 52.9,40.2 
	47.2,24.7 "/>
<g>
	<path class="st1" d="M60.7,7.6c-1-0.2-2.5-0.4-3.1-0.6C55.4,8,53.3,8.9,51,9.7c1.1-0.5,2.1-1,3.2-1.5c1.1-0.5,2.2-0.9,3.3-1.4
		C58.6,7,59.7,7.3,60.7,7.6L60.7,7.6z"/>
</g>
<linearGradient id="SVGID_00000106855486616904628510000010161359760595234446_" gradientUnits="userSpaceOnUse" x1="3.71" y1="13.45" x2="8.08" y2="13.45" gradientTransform="matrix(1 0 0 -1 0 102)">
	<stop  offset="1.978731e-03" style="stop-color:#27B0FC"/>
	<stop  offset="1" style="stop-color:#63CEF9"/>
</linearGradient>
<rect x="3.7" y="80.8" style="fill:url(#SVGID_00000106855486616904628510000010161359760595234446_);" width="4.4" height="15.5"/>
<linearGradient id="SVGID_00000064322210743294926840000011418263372652662705_" gradientUnits="userSpaceOnUse" x1="10.38" y1="28.84" x2="14.75" y2="28.84" gradientTransform="matrix(1 0 0 -1 0 102)">
	<stop  offset="1.978731e-03" style="stop-color:#27AFFB"/>
	<stop  offset="1" style="stop-color:#63CDF8"/>
</linearGradient>
<rect x="10.4" y="63.3" style="fill:url(#SVGID_00000064322210743294926840000011418263372652662705_);" width="4.4" height="19.7"/>
<linearGradient id="SVGID_00000049941831051106214730000003850421529435548074_" gradientUnits="userSpaceOnUse" x1="17.05" y1="38.845" x2="21.42" y2="38.845" gradientTransform="matrix(1 0 0 -1 0 102)">
	<stop  offset="0.3935" style="stop-color:#A8E1FF"/>
	<stop  offset="1" style="stop-color:#DCFDFE"/>
</linearGradient>
<rect x="17" y="61.4" style="fill:url(#SVGID_00000049941831051106214730000003850421529435548074_);" width="4.4" height="3.5"/>
<linearGradient id="SVGID_00000030463152254538223270000014382459909356103863_" gradientUnits="userSpaceOnUse" x1="23.72" y1="43.84" x2="28.09" y2="43.84" gradientTransform="matrix(1 0 0 -1 0 102)">
	<stop  offset="1.978731e-03" style="stop-color:#27AFFB"/>
	<stop  offset="1" style="stop-color:#63CDF8"/>
</linearGradient>
<rect x="23.7" y="52.3" style="fill:url(#SVGID_00000030463152254538223270000014382459909356103863_);" width="4.4" height="11.6"/>
<linearGradient id="SVGID_00000057139445394127413570000007515438603269579158_" gradientUnits="userSpaceOnUse" x1="30.39" y1="47.26" x2="34.76" y2="47.26" gradientTransform="matrix(1 0 0 -1 0 102)">
	<stop  offset="0.3935" style="stop-color:#A8E1FF"/>
	<stop  offset="1" style="stop-color:#DCFDFE"/>
</linearGradient>
<rect x="30.4" y="52.3" style="fill:url(#SVGID_00000057139445394127413570000007515438603269579158_);" width="4.4" height="4.9"/>
<linearGradient id="SVGID_00000125579895220120657610000004513518560368241312_" gradientUnits="userSpaceOnUse" x1="37.06" y1="39.01" x2="41.43" y2="39.01" gradientTransform="matrix(1 0 0 -1 0 102)">
	<stop  offset="0.3935" style="stop-color:#A8E1FF"/>
	<stop  offset="1" style="stop-color:#DCFDFE"/>
</linearGradient>
<rect x="37.1" y="56.9" style="fill:url(#SVGID_00000125579895220120657610000004513518560368241312_);" width="4.4" height="12.3"/>
<linearGradient id="SVGID_00000045619242319804735480000005935113268462630808_" gradientUnits="userSpaceOnUse" x1="43.73" y1="28.2" x2="48.1" y2="28.2" gradientTransform="matrix(1 0 0 -1 0 102)">
	<stop  offset="1.978731e-03" style="stop-color:#27AFFB"/>
	<stop  offset="1" style="stop-color:#63CDF8"/>
</linearGradient>
<rect x="43.7" y="67.5" style="fill:url(#SVGID_00000045619242319804735480000005935113268462630808_);" width="4.4" height="12.6"/>
<linearGradient id="SVGID_00000119094151473943559220000004144217744668681374_" gradientUnits="userSpaceOnUse" x1="50.4" y1="28.2" x2="54.77" y2="28.2" gradientTransform="matrix(1 0 0 -1 0 102)">
	<stop  offset="0.3935" style="stop-color:#A8E1FF"/>
	<stop  offset="1" style="stop-color:#DCFDFE"/>
</linearGradient>
<rect x="50.4" y="67.5" style="fill:url(#SVGID_00000119094151473943559220000004144217744668681374_);" width="4.4" height="12.6"/>
<linearGradient id="SVGID_00000023270862971723104300000012585002677147619208_" gradientUnits="userSpaceOnUse" x1="57.0653" y1="36.75" x2="61.4353" y2="36.75" gradientTransform="matrix(1 0 0 -1 0 102)">
	<stop  offset="0.3935" style="stop-color:#A8E1FF"/>
	<stop  offset="1" style="stop-color:#DCFDFE"/>
</linearGradient>
<rect x="57.1" y="63" style="fill:url(#SVGID_00000023270862971723104300000012585002677147619208_);" width="4.4" height="4.5"/>
<linearGradient id="SVGID_00000034091410729534139440000016985872346925512888_" gradientUnits="userSpaceOnUse" x1="63.7347" y1="39.325" x2="68.1047" y2="39.325" gradientTransform="matrix(1 0 0 -1 0 102)">
	<stop  offset="1.978731e-03" style="stop-color:#27AFFB"/>
	<stop  offset="1" style="stop-color:#63CDF8"/>
</linearGradient>
<rect x="63.7" y="56.2" style="fill:url(#SVGID_00000034091410729534139440000016985872346925512888_);" width="4.4" height="12.9"/>
<linearGradient id="SVGID_00000036959721451474461460000004172408010142369689_" gradientUnits="userSpaceOnUse" x1="70.4" y1="47.075" x2="74.77" y2="47.075" gradientTransform="matrix(1 0 0 -1 0 102)">
	<stop  offset="0.3935" style="stop-color:#A8E1FF"/>
	<stop  offset="1" style="stop-color:#DCFDFE"/>
</linearGradient>
<rect x="70.4" y="47.2" style="fill:url(#SVGID_00000036959721451474461460000004172408010142369689_);" width="4.4" height="15.5"/>
<linearGradient id="SVGID_00000165223395563381160790000008057399130354073786_" gradientUnits="userSpaceOnUse" x1="77.07" y1="42.395" x2="81.44" y2="42.395" gradientTransform="matrix(1 0 0 -1 0 102)">
	<stop  offset="0.3935" style="stop-color:#A8E1FF"/>
	<stop  offset="1" style="stop-color:#DCFDFE"/>
</linearGradient>
<rect x="77.1" y="56.5" style="fill:url(#SVGID_00000165223395563381160790000008057399130354073786_);" width="4.4" height="6.1"/>
</svg>
