<?xml version="1.0" encoding="utf-8"?>
<!-- Generator: Adobe Illustrator 26.0.1, SVG Export Plug-In . SVG Version: 6.00 Build 0)  -->
<svg version="1.1" id="Layer_1" xmlns="http://www.w3.org/2000/svg" xmlns:xlink="http://www.w3.org/1999/xlink" x="0px" y="0px"
	 viewBox="0 0 100 100" style="enable-background:new 0 0 100 100;" xml:space="preserve">
<style type="text/css">
	.st0{fill:#90A4CB;enable-background:new    ;}
	.st1{fill:#353A46;enable-background:new    ;}
	.st2{fill:#92A2C3;enable-background:new    ;}
	.st3{fill:#FFB99E;}
	.st4{fill:#FFFFFF;}
	.st5{fill:#414042;}
	.st6{fill:url(#SVGID_1_);}
	.st7{fill:url(#SVGID_00000052790364177045355570000007386439140685271936_);}
	.st8{fill:#F3FCFF;}
	.st9{fill:#4DD9FF;}
	.st10{fill:#6EC1FF;}
	.st11{fill:#697993;}
	.st12{fill:#333333;}
	.st13{fill:#336DFF;}
	.st14{fill:#021D44;}
	.st15{fill:#020F1E;}
	.st16{fill:#242528;}
	.st17{fill:#99B0D5;}
	.st18{fill:url(#SVGID_00000057126882831618750870000013415680995763069113_);}
	.st19{fill:url(#SVGID_00000066495023486536678370000014369132049234584208_);}
	.st20{fill:none;stroke:#FFFFFF;stroke-width:0.4;stroke-miterlimit:10;}
	.st21{fill:none;stroke:#FFFFFF;stroke-miterlimit:10;}
	.st22{fill:#EA42FC;}
</style>
<g>
	<path class="st0" d="M32.5,97.6c-3.4,0.2-6.9,0.3-10.3,0.5c0-5.4,0-10.8,0-16.2c3.4-0.2,6.9-0.4,10.3-0.5
		C32.5,86.8,32.5,92.2,32.5,97.6z"/>
	<path class="st1" d="M22.1,98.1c-0.9-0.2-1.7-0.3-2.6-0.5c0-5.4,0-10.8,0-16.2c0.9,0.2,1.7,0.4,2.6,0.6
		C22.1,87.4,22.1,92.7,22.1,98.1z"/>
	<path class="st2" d="M22.1,82c-0.9-0.2-1.7-0.4-2.6-0.6c3.5-0.2,6.9-0.4,10.4-0.6c0.8,0.2,1.7,0.4,2.5,0.6
		C29,81.6,25.6,81.8,22.1,82z"/>
</g>
<path class="st3" d="M14,13.1c-0.7-0.5-1.5-0.9-2.2-1.4c-0.1-0.8-0.2-2.1,0-3.6c0.2-1.9,0.4-3.3,1.5-4.5C14.5,2.3,16.1,2.1,17,2
	l1.3,0.5c1.5,0.6,2.2,2.3,1.6,3.7c-0.5,1.4-0.9,2.9-1.4,4.3c-0.1,0.2-0.6,1.9-2.3,2.5C15.2,13.4,14.4,13.2,14,13.1z"/>
<path class="st3" d="M12,10.3c-0.4,0.4,0,1-0.6,2c-0.3,0.5-0.9,1.1-1.7,1.5C9.2,14,9.2,13.9,9,14.1c-0.5,0.6,0.5,1.7,0.9,3.7
	c0.4,1.9-0.1,3.1,0.4,3.2c0.7,0.3,2.6-1,2.6-2.3c0-0.5-0.2-0.9,0-1c0.3-0.2,1.1,0.9,1.6,0.7c0.3-0.1,0.2-0.8,0.4-2.4
	c0.1-0.9,0.2-1.4,0.4-2c0.4-1,0.9-1.1,0.9-1.5C16.2,11,12.9,9.5,12,10.3z"/>
<path d="M12.5,5.5c-0.1-0.2-0.3-0.4-0.4-0.8c0-0.1-0.1-0.6,0-1.1c0.1-0.4,0.2-0.6,0.3-0.7c0.1-0.2,0.3-0.5,0.7-0.7
	c0.1-0.1,0.4-0.2,0.7-0.1c0.1,0,0.2,0.1,0.3,0.2c0,0,0.1,0,0.2,0.1c0.1,0.2,0,0.5-0.1,0.5c0,0,0,0-0.1,0c-0.1,0-0.1,0-0.1,0.1
	c-1,1.3-1.5,2.5-1.5,2.5C12.6,5.4,12.6,5.5,12.5,5.5z"/>
<path d="M13.7,5.3c-0.2,0.2-0.7,0.6-1,1.2c-0.3,0.5-0.9,1.5-0.9,3.3c-0.1-0.2-0.3-0.5-0.5-0.9c-0.2-0.5-0.2-0.9-0.2-1.3
	c0-1.2-0.1-3.1,1.1-4.6c0.1-0.2,1-1.2,1.6-1c0.6,0.2,0.5,1.4,1.2,1.7c0.4,0.1,0.7,0,0.7,0C15.8,3.9,14.8,4.3,13.7,5.3z"/>
<path d="M24.8,4.1c0.2,0.2,0.6,0.8,0.5,1.7c-0.1,0.7-0.5,1.3-0.9,1.7c-1,0.8-2.6,0.5-3.6,0c-1.4-0.7-1.2-1.7-2.7-2.3
	c-0.3-0.1-1.2-0.5-2.3-0.2c-1.1,0.3-1.9,1.1-2.3,1.5c-0.6,0.6-0.6,0.9-0.8,0.9c-0.6-0.1-1.5-2.6-0.4-4.3c1.1-1.8,4.2-2.1,5.5-1.1
	c0.4,0.3,0.7,0.9,1.5,1.1c0.5,0.2,1,0.1,1.4,0.1c0.8,0,0.9-0.2,1.5-0.2C22.9,2.8,24.1,3.2,24.8,4.1z"/>
<path class="st3" d="M12.7,6.8c0-0.1-0.1-0.3-0.4-0.5c-0.1-0.1-0.4-0.2-0.6-0.1c-0.1,0.1-0.2,0.2-0.2,0.5c-0.1,0.5,0,0.9,0,1
	c0.1,0.3,0.1,0.5,0.3,0.8c0.1,0.1,0.2,0.3,0.4,0.3C12.5,8.7,13,7.6,12.7,6.8z"/>
<path class="st4" d="M15.8,11.6l1.5,0.6c-0.1,0.1-0.6,0.6-1,0.4C15.9,12.4,15.9,11.7,15.8,11.6z"/>
<circle class="st5" cx="17.1" cy="8.8" r="0.2"/>
<g>
	<path class="st5" d="M11.9,8.3c-0.2,2,1,3.7,2.7,4.7C12.6,12.6,11,10.2,11.9,8.3L11.9,8.3z"/>
</g>
<g>
	
		<linearGradient id="SVGID_1_" gradientUnits="userSpaceOnUse" x1="39.1728" y1="31.0907" x2="80.5053" y2="102.6804" gradientTransform="matrix(1 0 0 -1 0 102)">
		<stop  offset="0.3935" style="stop-color:#A8E1FF"/>
		<stop  offset="1" style="stop-color:#DCFDFE"/>
	</linearGradient>
	<path class="st6" d="M89.6,65.1H29.9c-1.5,0-2.6-1.2-2.6-2.6V8.4c0-2.2,1.8-3.9,3.9-3.9h57.2c2.2,0,3.9,1.8,3.9,3.9v54.1
		C92.2,64,91.1,65.1,89.6,65.1z"/>
	
		<linearGradient id="SVGID_00000010311175180157349650000004951185487803010448_" gradientUnits="userSpaceOnUse" x1="27.25" y1="94.805" x2="92.26" y2="94.805" gradientTransform="matrix(1 0 0 -1 0 102)">
		<stop  offset="1.978731e-03" style="stop-color:#27B0FC"/>
		<stop  offset="1" style="stop-color:#63CEF9"/>
	</linearGradient>
	<path style="fill:url(#SVGID_00000010311175180157349650000004951185487803010448_);" d="M92.2,11h-65V6.1c0-1.5,1.2-2.6,2.6-2.6
		h59.7c1.5,0,2.6,1.2,2.6,2.6L92.2,11L92.2,11z"/>
	<rect x="30" y="20.1" class="st8" width="24.9" height="1.6"/>
	<rect x="30" y="44.1" class="st8" width="58.8" height="0.4"/>
	<rect x="29.8" y="13.5" class="st8" width="34" height="2.8"/>
	<path class="st9" d="M73.9,27.8l12.7,6.2c-2.3,4.8-7.1,7.8-12.4,8c-7.8,0.2-14.3-6-14.5-13.8s6-14.3,13.8-14.4
		c7.8-0.2,14.3,6.1,14.4,13.8L73.9,27.8z"/>
	<path class="st10" d="M73.9,27.8l12.6-6.4c2.4,4.7,2,10.4-1.1,14.7c-4.5,6.3-13.4,7.7-19.7,3.2s-7.7-13.4-3.2-19.7
		s13.4-7.7,19.7-3.2L73.9,27.8z"/>
	<rect x="77.5" y="48.4" class="st9" width="4.5" height="13.8"/>
	<rect x="70.7" y="51.9" class="st9" width="4.5" height="10.3"/>
	<rect x="64" y="51.9" class="st9" width="4.5" height="10.3"/>
	<rect x="57.2" y="48.4" class="st9" width="4.5" height="13.8"/>
	<rect x="50.4" y="51.9" class="st9" width="4.5" height="10.3"/>
	<rect x="43.6" y="53.7" class="st9" width="4.5" height="8.5"/>
	<rect x="36.8" y="54.8" class="st9" width="4.5" height="7.4"/>
	<rect x="30" y="53.7" class="st9" width="4.5" height="8.5"/>
	<rect x="30" y="22.9" class="st8" width="24.8" height="1.6"/>
	<rect x="30" y="25.8" class="st8" width="22.6" height="1.6"/>
	<rect x="30" y="32.2" class="st8" width="25.3" height="1.6"/>
	<rect x="30.1" y="34.9" class="st8" width="25" height="1.6"/>
</g>
<path class="st11" d="M30.1,28.6L30.1,28.6c-0.3-0.1-0.4-0.5-0.2-0.8l5.2-9.1c0.2-0.3,0.5-0.4,0.8-0.2l0,0c0.3,0.1,0.4,0.5,0.2,0.8
	l-5.2,9.1C30.8,28.6,30.4,28.7,30.1,28.6z"/>
<polygon class="st3" points="18.5,9.4 19,11 17.9,11.5 "/>
<g>
	<path class="st3" d="M30.9,21.1c0.4,0,0.8,0,1.1,0l2.4-2l2,0.7l0.7,3.1L34.5,24c-0.9,0-1.8,0-2.7,0C31.5,23,31.2,22.1,30.9,21.1z"
		/>
	<path class="st12" d="M30.9,21.1l1.1,0c0.7-0.6,1.6-1.4,2.4-2.1l0.1,0l2,0.6l0.1,0l0,0.1l0.7,3.1c0,0.1,0.1,0.1-0.1,0.2
		c0,0-2.7,1.1-2.7,1.1c0,0-2.7-0.1-2.7,0h-0.1l0-0.1L30.9,21.1L30.9,21.1z M30.9,21.1l1,2.9l-0.1-0.1c0,0,2.9,0,2.6,0l2.7-1.1
		L37,22.9l-0.7-3.1l0.1,0.1l-2-0.7l0.1,0c-0.8,0.6-1.7,1.3-2.5,2C32.1,21.1,30.9,21.1,30.9,21.1L30.9,21.1z"/>
</g>
<path class="st3" d="M22.2,75c0,0.9,0,1.8,0,2.7c-0.6,0.1-1.2,0.2-1.8,0.2c0-1,0-2,0-3C21,74.9,21.6,75,22.2,75z"/>
<path class="st13" d="M9.1,14c-1.3,1.8-2.5,3.6-3.8,5.3L3.5,43.6l11.6-3.3l0.7-15l5.6,3.3l10.6-4.8l-1.2-3l-9.1,3
	c-2.2-2.6-4.5-5.2-6.7-7.7c-1.3-1.1-2.7-2.2-4-3.3C10.4,13.2,9.8,13.6,9.1,14z"/>
<polygon class="st14" points="3.5,43.6 20.7,56.1 19.6,75.2 23.9,75.2 27.6,53.8 15.1,40.3 "/>
<path class="st3" d="M10.7,90.3c0,1,0,2.1,0,3.1c-0.7,0.1-1.5,0.1-2.2,0.2l-0.4-3.3C8.9,90.4,9.8,90.4,10.7,90.3z"/>
<path class="st15" d="M3.5,43.6C4.5,50,5.5,56.5,6.4,63l1.1,27.6h4c0.7-13.4,1.5-26.7,2.2-40.1C10.4,48.2,6.9,45.9,3.5,43.6z"/>
<polygon class="st16" points="22.4,77.3 24.1,78.8 30.3,81.4 21.4,81.4 20.7,81.4 20.4,79.4 20.4,77.3 "/>
<polygon class="st16" points="10.7,93.3 12.7,95 20,98 9.5,98 8.7,98 8.4,95.7 8.4,93.3 "/>
<g>
	<path class="st5" d="M12.6,23.5c2.7,1.6,6.7,3.6,8.8,5.1l5.2-2.3c1.8-0.8,3.5-1.5,5.3-2.2c-1.7,0.9-3.4,1.7-5.1,2.5l-5.2,2.4
		c-0.1,0-0.1,0.1-0.2,0C18.4,27.1,15.4,25.3,12.6,23.5L12.6,23.5z"/>
</g>
<g>
	<path class="st5" d="M9.1,14c-1.1,1.7-2.6,4-3.6,5.4c-0.3,4.3-0.6,8.6-1.1,12.9c0.1-4.3,0.4-8.6,0.8-12.9C6.4,17.5,7.8,15.7,9.1,14
		L9.1,14z"/>
</g>
<ellipse transform="matrix(0.4809 -0.8768 0.8768 0.4809 8.2388 41.2195)" class="st11" cx="38.9" cy="13.7" rx="6.3" ry="3.3"/>
<ellipse transform="matrix(0.4809 -0.8768 0.8768 0.4809 8.2243 40.7702)" class="st17" cx="38.5" cy="13.4" rx="6.3" ry="2.9"/>
<path class="st4" d="M41.8,8.7c0.1,0.3,0.7,2.4-0.6,4.3c-0.6,0.9-1.3,1.4-1.8,1.6c0.4-0.3,1.3-1.1,1.8-2.4c0.8-2.2-0.5-4-0.6-4.2
	L41.8,8.7z"/>
<linearGradient id="SVGID_00000065043078910344428250000009915586007810697344_" gradientUnits="userSpaceOnUse" x1="79.46" y1="44.13" x2="79.46" y2="16" gradientTransform="matrix(1 0 0 -1 0 102)">
	<stop  offset="0.5509" style="stop-color:#A7E0FF"/>
	<stop  offset="1" style="stop-color:#DBFCFD"/>
</linearGradient>
<path style="fill:url(#SVGID_00000065043078910344428250000009915586007810697344_);" d="M97.5,86H61.4c-0.3,0-0.5-0.2-0.5-0.5V58.3
	c0-0.3,0.2-0.5,0.5-0.5h36.1c0.3,0,0.5,0.2,0.5,0.5v27.2C98,85.8,97.8,86,97.5,86z"/>
<linearGradient id="SVGID_00000103255573817622880850000000581873855188667315_" gradientUnits="userSpaceOnUse" x1="60.92" y1="42.495" x2="98.01" y2="42.495" gradientTransform="matrix(1 0 0 -1 0 102)">
	<stop  offset="1.978731e-03" style="stop-color:#27AFFB"/>
	<stop  offset="1" style="stop-color:#63CDF8"/>
</linearGradient>
<path style="fill:url(#SVGID_00000103255573817622880850000000581873855188667315_);" d="M98,61.1H60.9v-2.8c0-0.3,0.2-0.5,0.5-0.5
	h36.1c0.3,0,0.5,0.2,0.5,0.5L98,61.1L98,61.1z"/>
<line class="st20" x1="60.9" y1="61.1" x2="97.7" y2="61.1"/>
<line class="st20" x1="60.9" y1="64.6" x2="97.7" y2="64.6"/>
<line class="st20" x1="60.9" y1="68.1" x2="97.7" y2="68.1"/>
<line class="st20" x1="60.9" y1="71.6" x2="97.7" y2="71.6"/>
<line class="st20" x1="60.9" y1="75.1" x2="97.7" y2="75.1"/>
<line class="st20" x1="60.9" y1="78.6" x2="97.7" y2="78.6"/>
<line class="st20" x1="60.9" y1="82.1" x2="97.7" y2="82.1"/>
<line class="st21" x1="60.9" y1="85.6" x2="97.7" y2="85.6"/>
<line class="st20" x1="66.6" y1="85.6" x2="66.6" y2="57.9"/>
<line class="st20" x1="70.2" y1="85.6" x2="70.2" y2="57.9"/>
<line class="st20" x1="73.6" y1="85.6" x2="73.6" y2="57.9"/>
<line class="st20" x1="77.1" y1="85.6" x2="77.1" y2="57.9"/>
<line class="st20" x1="80.5" y1="85.5" x2="80.5" y2="57.9"/>
<line class="st20" x1="83.9" y1="85.6" x2="83.9" y2="57.9"/>
<line class="st20" x1="87.3" y1="85.6" x2="87.3" y2="57.9"/>
<line class="st20" x1="90.8" y1="85.5" x2="90.8" y2="57.9"/>
<line class="st20" x1="94.2" y1="85.6" x2="94.2" y2="57.9"/>
<line class="st21" x1="97.6" y1="85.5" x2="97.6" y2="57.9"/>
<path class="st22" d="M32.7,81.8"/>
</svg>
