<?xml version="1.0" encoding="utf-8"?>
<!-- Generator: Adobe Illustrator 26.0.1, SVG Export Plug-In . SVG Version: 6.00 Build 0)  -->
<svg version="1.1" id="Layer_1" xmlns="http://www.w3.org/2000/svg" xmlns:xlink="http://www.w3.org/1999/xlink" x="0px" y="0px"
	 viewBox="0 0 100 100" style="enable-background:new 0 0 100 100;" xml:space="preserve">
<style type="text/css">
	.st0{fill:url(#SVGID_1_);}
	.st1{fill:url(#SVGID_00000059303993700218412240000000886142823140454587_);}
	.st2{fill:#F3FCFF;}
	.st3{fill:#4DD9FF;}
	.st4{fill:#6EC1FF;}
	.st5{fill:#FFBA9F;}
	.st6{fill:#336DFF;}
	.st7{fill:#011435;}
	.st8{fill:#242528;}
	.st9{fill:#FFFFFF;}
	.st10{fill:none;stroke:#58595B;stroke-width:5.000000e-02;stroke-miterlimit:10;}
	.st11{fill:#414042;}
</style>
<g>
	
		<linearGradient id="SVGID_1_" gradientUnits="userSpaceOnUse" x1="38.4573" y1="23.0174" x2="82.9678" y2="100.1117" gradientTransform="matrix(1 0 0 -1 0 102)">
		<stop  offset="0.3935" style="stop-color:#A8E1FF"/>
		<stop  offset="1" style="stop-color:#DCFDFE"/>
	</linearGradient>
	<path class="st0" d="M92.8,72.8H28.5c-1.6,0-2.8-1.3-2.8-2.8V11.6c0-2.3,1.9-4.2,4.2-4.2h61.6c2.3,0,4.2,1.9,4.2,4.2v58.3
		C95.6,71.5,94.3,72.8,92.8,72.8z"/>
	
		<linearGradient id="SVGID_00000067918985371546279810000008447679039719162799_" gradientUnits="userSpaceOnUse" x1="25.62" y1="91.64" x2="95.62" y2="91.64" gradientTransform="matrix(1 0 0 -1 0 102)">
		<stop  offset="1.978731e-03" style="stop-color:#27B0FC"/>
		<stop  offset="1" style="stop-color:#63CEF9"/>
	</linearGradient>
	<path style="fill:url(#SVGID_00000067918985371546279810000008447679039719162799_);" d="M95.6,14.4h-70V9.1c0-1.6,1.3-2.8,2.8-2.8
		h64.3c1.6,0,2.8,1.3,2.8,2.8C95.6,9.1,95.6,14.4,95.6,14.4z"/>
	<rect x="28.5" y="23.9" class="st2" width="36.5" height="2"/>
	<rect x="28.5" y="26.8" class="st2" width="26.6" height="2"/>
	<rect x="28.5" y="29.7" class="st2" width="30.3" height="2"/>
	<rect x="28.4" y="32.5" class="st2" width="29.2" height="2"/>
	<rect x="28.4" y="17.5" class="st2" width="36.7" height="3"/>
	<path class="st3" d="M80.2,26.4l8.1,3.9c-1.5,3-4.5,5-7.9,5.1c-4.9,0.1-9.1-3.9-9.2-8.8s3.8-9.1,8.8-9.2s9.1,3.9,9.2,8.8L80.2,26.4
		z"/>
	<path class="st4" d="M80.2,26.4l8-4.1c1.5,3,1.2,6.6-0.7,9.3c-2.9,4-8.6,4.9-12.6,2s-4.9-8.5-2-12.5s8.6-4.9,12.6-2L80.2,26.4z"/>
	<rect x="84.8" y="36.7" class="st3" width="4.2" height="25.8"/>
	<rect x="78.5" y="40.5" class="st3" width="4.2" height="22.1"/>
	<rect x="72.2" y="46.1" class="st3" width="4.2" height="16.5"/>
	<rect x="66" y="46.1" class="st3" width="4.2" height="16.5"/>
	<rect x="59.7" y="40.5" class="st3" width="4.2" height="22.1"/>
	<rect x="53.5" y="46.1" class="st3" width="4.2" height="16.5"/>
	<rect x="47.2" y="48.9" class="st3" width="4.2" height="13.7"/>
	<rect x="41" y="50.7" class="st3" width="4.2" height="11.9"/>
	<rect x="34.7" y="48.9" class="st3" width="4.2" height="13.7"/>
	<rect x="28.5" y="64.8" class="st2" width="45.2" height="2"/>
	<rect x="28.5" y="67.7" class="st2" width="32.9" height="2"/>
</g>
<g>
	<g>
		<path class="st5" d="M18,14.4c-0.3,0.5,0.4,0.9,0.2,2c-0.1,0.6-0.4,1.4-1,2c-0.4,0.4-0.5,0.3-0.5,0.5c-0.3,0.7,1.1,1.4,2.2,3
			c1.1,1.6,1.1,2.8,1.5,2.8s0.4-1.3,1.5-3.1c0.6-0.9,1-1.5,1.8-2c0.6-0.4,1.2-0.5,1.2-0.8c0-0.2-0.5-0.3-1.1-0.7
			c0,0-0.9-0.7-1.2-1.8c-0.3-0.9,0.2-1.3-0.1-1.8C21.9,13.4,18.5,13.3,18,14.4z"/>
		<path class="st5" d="M20.9,16.2h-1.4c-1.6,0-2.8-1.3-2.8-2.8V7.8c0-1.6,1.3-2.8,2.8-2.8h1.4c1.6,0,2.8,1.3,2.8,2.8v5.6
			C23.7,14.9,22.4,16.2,20.9,16.2z"/>
		<path d="M16.7,9.8c-0.2-0.1-0.4-0.3-0.6-0.6c-0.1-0.1-0.3-0.4-0.4-1c-0.1-0.4,0-0.7,0-0.8c0-0.2,0.1-0.6,0.4-0.9
			c0.1-0.1,0.3-0.3,0.6-0.4c0.1,0,0.3,0,0.3,0c0,0,0.1-0.1,0.2,0c0.2,0.1,0.1,0.4,0.1,0.4c0,0,0,0-0.1,0c0,0-0.1,0.1-0.1,0.1
			c-0.4,1.6-0.5,2.9-0.5,2.9C16.7,9.7,16.7,9.8,16.7,9.8z"/>
		<path class="st5" d="M17,9.6c-0.1-0.1-0.3-0.3-0.6-0.3c-0.1,0-0.4-0.1-0.6,0.1c-0.1,0.1-0.1,0.3,0,0.6c0.1,0.5,0.3,0.8,0.3,0.9
			c0.2,0.3,0.3,0.5,0.5,0.6c0.1,0.1,0.3,0.2,0.5,0.1C17.6,11.4,17.6,10.2,17,9.6z"/>
		<path d="M16.6,3c-0.1,0.1-0.7,0.4-0.8,1c-0.1,0.4,0,0.8,0.1,1c0,0.1,0.1,0.4,0.4,0.8c0.1,0.2,0.4,0.5,0.9,0.7
			c0.3,0.1,0.6,0.1,0.9,0.1c0.2,0,0.8,0,1.6-0.3c0.5-0.2,0.6-0.2,0.9-0.2c0.4,0,0.7,0.2,0.8,0.3c0.4,0.2,0.4,0.3,0.6,0.5
			c0.6,0.4,1.5,0.4,1.9-0.1c0.1-0.2,0.2-0.4,0.3-0.4c0.1-0.1,0.2-0.4,0.1-0.6c0-0.5-0.6-0.8-0.7-0.9c-0.5-0.3-1.1-0.2-1.4-0.2
			C21.6,4.9,21.5,5.1,21,5c-0.4-0.1-0.6-0.3-0.8-0.4c-0.3-0.2-0.4-0.4-0.7-0.8c-0.2-0.2-0.5-0.5-0.8-0.7C18.2,2.8,17.3,2.6,16.6,3z"
			/>
		<path d="M23.5,9.9c0.2-0.1,0.5-0.2,0.7-0.4c0,0,0,0,0,0C25,8.9,25,8.1,25,8.1c0-0.5-0.2-0.9-0.3-1.1c-0.2-0.3-0.6-0.8-0.8-0.7
			c0,0-0.2,0.1-0.2,0.5c0,0-0.1-0.1-0.2-0.1c-0.2,0-0.2,0.3-0.1,0.3c0,0,0,0,0.1,0c0,0,0,0,0,0.1C23.5,7.4,23.5,9.7,23.5,9.9z"/>
		<path class="st5" d="M23.4,9.6c0.1-0.1,0.3-0.3,0.6-0.3c0.1,0,0.4-0.1,0.5,0.1c0.1,0.1,0.1,0.3,0,0.6c-0.1,0.5-0.3,0.8-0.3,0.9
			c-0.2,0.3-0.3,0.5-0.5,0.6c-0.1,0.1-0.3,0.2-0.5,0.1C22.8,11.4,22.8,10.2,23.4,9.6z"/>
		<path class="st6" d="M17,19l-5.7,0.6L6.1,33.5c1.8,3.3,3.7,6.7,5.5,10L12,37l-1.4-2.6l1.2-3.2l4.9-6.2L17,19z"/>
		<polygon class="st5" points="44.8,24.2 46.6,22.3 47.8,22.7 55.4,22.6 48.1,24.5 45.9,25.4 		"/>
		<path class="st6" d="M24.1,18.6c2.3,0,4.6-0.1,6.9-0.1l4.6,11.6l9.1-6.2l1.7,1.8L35,35.9L28.8,27l-0.7,18.5H11.5l0.2-25
			c-0.1-0.3-0.3-0.6-0.4-0.9c1.8-0.3,3.7-0.6,5.5-0.8c1.1,1.5,2.2,3.1,3.4,4.6C21.5,21.8,22.8,20.2,24.1,18.6z"/>
		<polygon class="st5" points="35.5,89.2 35.9,92.1 34,92.5 33.1,89 		"/>
		<polygon class="st5" points="10.5,89.3 10.3,92.2 12.3,92.4 12.8,88.9 		"/>
		<polygon class="st7" points="11.5,45.1 10.9,67.1 9.9,89.7 13.5,89.7 15.6,70.4 19.9,48 25.1,64.1 27.1,69.7 32.6,89.2 36.6,89.2 
			32.1,70.2 28.3,45.1 		"/>
		<polygon class="st8" points="10.3,92.2 8.2,94.1 0.4,97.2 11.6,97.2 12.5,97.2 12.8,94.7 12.8,92.2 		"/>
		<polygon class="st8" points="36.1,92 38.3,93.9 46,97.2 34.9,97.2 34,97.2 33.6,94.6 33.6,92 		"/>
		<path class="st9" d="M18.9,13.6h2.5c-0.1,0.1-0.5,0.9-1.3,0.9C19.4,14.5,19,13.8,18.9,13.6z"/>
		<polyline class="st10" points="20,10.9 19.6,12 20.2,12.6 		"/>
		<circle class="st11" cx="21.7" cy="10.3" r="0.2"/>
		<circle class="st11" cx="18.5" cy="10.3" r="0.2"/>
	</g>
	<g>
		<g>
			<path class="st11" d="M11.5,27.8c0.3,4.6,0.3,9.2,0.2,13.9C11.3,37.1,11.3,32.4,11.5,27.8L11.5,27.8z"/>
		</g>
		<g>
			<path class="st11" d="M11.6,32.2c-0.2,0.8-0.5,1.5-0.9,2.3l0-0.2c0.4,0.7,0.7,1.3,0.9,2c-0.5-0.6-0.9-1.2-1.4-1.9
				C10.7,33.6,11,32.9,11.6,32.2L11.6,32.2z"/>
		</g>
		<g>
			<path class="st11" d="M28.6,26.6c2.3,3,4.5,6,6.7,9.1l-0.3,0c1.9-1.7,3.8-3.4,5.6-5.1c1.9-1.7,3.8-3.3,5.7-5
				c-1.8,1.8-3.7,3.5-5.5,5.2c-1.9,1.8-3.8,3.5-5.8,5.3C32.9,33,30.7,29.9,28.6,26.6L28.6,26.6z"/>
		</g>
		<g>
			<path class="st11" d="M16.7,10.6c0.2,3-0.2,4.8,3.2,5.6C16.3,16.1,16.1,13.5,16.7,10.6L16.7,10.6z"/>
		</g>
		<g>
			<path class="st11" d="M44.9,24c0.5-0.6,1.1-1.3,1.7-1.9c0.3,0.1,1,0.2,1.1,0.3c2.5-0.1,5.1-0.1,7.6,0.1c-1.3,0.1-2.5,0.2-3.8,0.2
				c-1.3,0-2.6,0.1-3.8,0c-0.4-0.1-0.7-0.2-1.1-0.4l0.1,0C46.2,23,45.5,23.5,44.9,24L44.9,24z"/>
		</g>
		<g>
			<path class="st11" d="M16.8,18.7c-1.8,0.4-3.6,0.7-5.5,1l0.1-0.1c-0.4,1.1-0.8,2.2-1.2,3.2C9.8,24,9.3,25,8.8,26.1
				c0.3-1.1,0.7-2.2,1.1-3.3c0.4-1.1,0.8-2.3,1.2-3.4C13,19.1,14.9,18.9,16.8,18.7L16.8,18.7z"/>
		</g>
	</g>
</g>
</svg>
