<?xml version="1.0" encoding="utf-8"?>
<!-- Generator: Adobe Illustrator 26.0.1, SVG Export Plug-In . SVG Version: 6.00 Build 0)  -->
<svg version="1.1" id="Layer_1" xmlns="http://www.w3.org/2000/svg" xmlns:xlink="http://www.w3.org/1999/xlink" x="0px" y="0px"
	 viewBox="0 0 100 100" style="enable-background:new 0 0 100 100;" xml:space="preserve">
<style type="text/css">
	.st0{fill:#99B0D5;}
	.st1{fill:none;stroke:#7F90B1;stroke-miterlimit:10;}
	.st2{fill:none;stroke:#7F90B1;stroke-width:3;stroke-miterlimit:10;}
	.st3{fill:#FFB99E;}
	.st4{fill:#414042;}
	.st5{fill:url(#SVGID_1_);}
	.st6{fill:url(#SVGID_00000104687944146522282730000005739166309077838492_);}
	.st7{fill:none;stroke:#FFFFFF;stroke-width:0.4;stroke-miterlimit:10;}
	.st8{fill:#336DFF;}
	.st9{fill:#FFBA9F;}
	.st10{fill:#242528;}
	.st11{fill:#011435;}
	.st12{fill:#333D49;}
	.st13{fill:#7F90B1;}
</style>
<g>
	<g>
		<path class="st0" d="M98.2,46.5c0-0.4,0.1-0.8,0.1-1.3s0-0.9-0.1-1.3l-1.6-1.1c-0.1-0.5-0.2-1.1-0.4-1.6l1-1.6
			c-0.3-0.8-0.7-1.6-1.2-2.3l-1.9-0.4c-0.3-0.4-0.7-0.9-1-1.3l0.2-1.9c-0.6-0.6-1.3-1.2-2.1-1.6l-1.8,0.6c-0.5-0.2-0.9-0.5-1.4-0.7
			l-0.7-1.8c-0.8-0.3-1.7-0.5-2.6-0.6l-1.4,1.3c-0.2,0-0.4,0-0.7,0c-0.3,0-0.6,0-0.8,0l-1.4-1.3c-0.9,0.1-1.8,0.3-2.6,0.6L77.2,32
			c-0.4,0.2-0.9,0.4-1.3,0.6L73.9,32c-0.8,0.5-1.5,1.1-2.1,1.7l0.2,2c-0.3,0.3-0.6,0.7-0.9,1.1l-2,0.3c-0.5,0.8-0.9,1.6-1.2,2.4
			l1,1.7c-0.1,0.4-0.2,0.9-0.3,1.3l-1.7,1.1c0,0.5-0.1,0.9-0.1,1.4c0,0.4,0,0.9,0.1,1.3l1.7,1.1c0.1,0.5,0.2,0.9,0.3,1.3l-1,1.8
			c0.3,0.8,0.7,1.6,1.2,2.4l2,0.3c0.3,0.4,0.6,0.7,0.9,1.1l-0.2,2c0.6,0.6,1.3,1.2,2.1,1.7l1.9-0.6c0.4,0.2,0.8,0.4,1.3,0.6l0.7,1.9
			c0.8,0.3,1.7,0.5,2.5,0.6l1.5-1.4c0.3,0,0.6,0,0.8,0c0.2,0,0.4,0,0.7,0l1.5,1.4c0.9-0.1,1.7-0.3,2.5-0.6L88,58
			c0.5-0.2,1-0.4,1.4-0.7l1.9,0.6c0.7-0.5,1.4-1,2-1.6l-0.2-2c0.4-0.4,0.7-0.8,1-1.3l1.9-0.3c0.4-0.7,0.8-1.5,1.1-2.3l-1-1.7
			c0.2-0.5,0.3-1.1,0.4-1.6L98.2,46.5z M82.5,56.3c-6.1,0-11.1-5-11.1-11.1s5-11,11.1-11s11.1,5,11.1,11.1S88.6,56.3,82.5,56.3z"/>
		<circle class="st1" cx="82.6" cy="45.2" r="11.7"/>
	</g>
	<g>
		<path class="st0" d="M61.8,49.7c0.1-0.8,0.1-1.6,0.1-2.4c0-0.9,0-1.7-0.1-2.6l-3-2.1c-0.2-1-0.4-2.1-0.7-3.1l1.8-3.2
			c-0.7-1.4-1.4-2.9-2.3-4.4L54,31.4c-0.6-0.8-1.2-1.6-1.9-2.4l0.3-3.6c-1.2-1.2-2.6-2.2-4-3.2l-3.5,1.1c-0.9-0.5-1.8-0.9-2.7-1.3
			l-1.3-3.4c-1.6-0.5-3.3-0.9-5-1.1L33.1,20c-0.4,0-0.9,0-1.3,0c-0.5,0-1,0-1.6,0l-2.7-2.5c-1.7,0.2-3.4,0.6-5.1,1.2L21,22.2
			c-0.9,0.4-1.7,0.8-2.5,1.2l-3.6-1.1c-1.4,1-2.8,2.1-4.1,3.3l0.3,3.8c-0.6,0.7-1.1,1.4-1.6,2.1l-3.7,0.4c-0.9,1.5-1.6,3-2.3,4.7
			l2,3.3c-0.2,0.8-0.4,1.7-0.6,2.5l-3.2,2.2c-0.1,0.9-0.1,1.8-0.1,2.7c0,0.8,0,1.7,0.1,2.5L4.9,52c0.2,0.9,0.3,1.7,0.6,2.5l-2,3.4
			c0.6,1.6,1.3,3.2,2.2,4.6l3.9,0.6c0.5,0.7,1.1,1.4,1.6,2.1l-0.3,3.9c1.2,1.2,2.5,2.2,3.9,3.2l3.7-1.2c0.8,0.4,1.6,0.8,2.5,1.2
			l1.4,3.7c1.6,0.5,3.2,0.9,4.9,1.1l2.8-2.7c0.5,0,1,0.1,1.6,0.1c0.4,0,0.9,0,1.3,0l2.8,2.7c1.7-0.2,3.3-0.6,4.8-1.1l1.4-3.6
			c0.9-0.4,1.8-0.8,2.7-1.3l3.6,1.1c1.4-0.9,2.7-1.9,3.8-3.1l-0.3-3.8c0.7-0.8,1.3-1.6,1.9-2.4l3.7-0.5c0.8-1.4,1.5-2.9,2.1-4.4
			l-1.9-3.2c0.3-1,0.5-2,0.7-3.1L61.8,49.7z M31.7,68.5C20,68.5,10.5,59,10.5,47.3S20,26.1,31.7,26.1S53,35.6,53,47.3
			S43.5,68.5,31.7,68.5z"/>
		<circle class="st2" cx="31.7" cy="47.3" r="22.5"/>
	</g>
	<path class="st3" d="M60,14.5c0.3,0.5-0.4,0.9-0.3,2c0.1,0.6,0.4,1.4,1,2c0.3,0.4,0.5,0.3,0.5,0.5c0.2,0.7-1.2,1.4-2.3,2.9
		c-1.2,1.5-1.2,2.8-1.6,2.7c-0.5,0-0.3-1.3-1.5-3.1c-0.6-0.9-1-1.5-1.8-2c-0.6-0.4-1.2-0.5-1.2-0.8c0-0.2,0.5-0.3,1.2-0.7
		c0,0,1-0.7,1.3-1.7c0.3-0.9-0.2-1.2,0.1-1.7C56,13.4,59.5,13.4,60,14.5z"/>
	<path class="st3" d="M55.8,15.8c0.4,0.2,0.8,0.5,1.1,0.7c0.2,0.1,1.5,0.3,2.6-0.5c0.9-0.6,1.1-1.6,1.2-1.8l1-5.2
		c0.3-1.5-0.7-3-2.3-3.3l-1.5-0.3c-1.5-0.3-3,0.7-3.3,2.3c-0.1,1.5-0.2,3-0.3,4.4c-0.1,0.3-0.3,1.5,0.4,2.6
		C55,15.3,55.5,15.6,55.8,15.8z"/>
	<path d="M61.4,10.9c0.2-0.1,0.5-0.2,0.8-0.4c0.1-0.1,0.4-0.4,0.6-0.9c0.1-0.4,0.1-0.7,0.1-0.7c0-0.2,0-0.6-0.2-0.9
		c-0.1-0.1-0.2-0.4-0.6-0.5c-0.1-0.1-0.3-0.1-0.3-0.1s-0.1-0.1-0.2-0.1c-0.2,0.1-0.2,0.4-0.2,0.4s0,0,0.1,0v0.1
		c0.1,1.6-0.1,2.9-0.1,2.9C61.4,10.8,61.4,10.8,61.4,10.9z"/>
	<path class="st3" d="M61,10.6c0.1-0.1,0.3-0.2,0.7-0.2c0.1,0,0.4,0,0.5,0.2c0.1,0.1,0,0.3-0.1,0.5c-0.2,0.5-0.5,0.8-0.5,0.8
		c-0.2,0.2-0.4,0.4-0.6,0.5c-0.2,0.1-0.4,0.1-0.5,0C60.2,12.2,60.4,11,61,10.6z"/>
	<path d="M62.8,4.4c0.1,0.1,0.6,0.5,0.7,1.2c0,0.4-0.2,0.7-0.3,0.9c-0.1,0.1-0.2,0.4-0.6,0.7c-0.1,0.1-0.5,0.4-1.1,0.5
		c-0.3,0.1-0.6,0-1-0.1c-0.2,0-0.8-0.2-1.6-0.6c-0.4-0.2-0.4-0.3-0.8-0.4c-0.4-0.1-0.7,0.1-0.9,0.1c-0.4,0.2-0.4,0.3-0.7,0.4
		c-0.7,0.2-1.6,0.1-1.9-0.4c-0.1-0.2-0.2-0.4-0.2-0.5c0-0.2-0.1-0.4,0-0.6c0.1-0.5,0.8-0.7,0.9-0.8c0.6-0.2,1.1,0,1.5,0.1
		c0.6,0.2,0.7,0.4,1.1,0.4c0.4,0,0.7-0.1,0.9-0.2c0.4-0.2,0.5-0.3,0.8-0.6c0.2-0.2,0.6-0.4,1-0.5C61.2,3.8,62,3.8,62.8,4.4z"/>
	<path d="M54.5,9.6c-0.2-0.1-0.4-0.2-0.7-0.5l0,0c-0.7-0.7-0.6-1.5-0.6-1.5c0.1-0.5,0.4-0.9,0.5-1c0.2-0.3,0.7-0.6,1-0.5
		c0,0,0.2,0.1,0.1,0.6c0,0,0.1,0,0.2,0C55.2,6.8,55.2,7,55,7.1c0,0,0,0-0.1,0c0,0,0,0-0.1,0.1C55,7.2,54.5,9.5,54.5,9.6z"/>
	<path class="st3" d="M54.7,9.4c0-0.1-0.2-0.3-0.5-0.4c-0.1,0-0.4-0.1-0.6,0c-0.1,0.1-0.1,0.2-0.1,0.5c0,0.5,0.1,0.9,0.2,0.9
		c0.1,0.3,0.2,0.5,0.4,0.7c0.1,0.1,0.3,0.2,0.5,0.2C54.9,11.2,55,10,54.7,9.4z"/>
	<g>
		<path class="st4" d="M59,12c0.2,0.4,0.2,0.8,0.3,1.1c-0.2,0.2-0.5,0.3-0.8,0.5c0.2-0.2,0.4-0.4,0.6-0.6v0.1
			C59,12.8,58.9,12.4,59,12L59,12z"/>
	</g>
	<ellipse transform="matrix(0.1782 -0.984 0.984 0.1782 36.5418 65.1583)" class="st4" cx="57.3" cy="10.7" rx="0.2" ry="0.3"/>
	<ellipse transform="matrix(0.1782 -0.984 0.984 0.1782 38.6884 68.0464)" class="st4" cx="60.1" cy="10.9" rx="0.2" ry="0.3"/>
	<g>
		<g>
			<path class="st4" d="M61.2,11.6c-0.1,3-0.7,5.3-4.3,4.7c0.6,0,1.2-0.1,1.8-0.2C60.8,15.7,60.8,13.3,61.2,11.6L61.2,11.6z"/>
		</g>
	</g>
	<g>
		<path class="st4" d="M59.4,14.4c-0.7,0.4-1.6,0.4-2.3,0.1C57.9,14.6,58.5,14.6,59.4,14.4C59.4,14.4,58.5,14.6,59.4,14.4z"/>
	</g>
	<g>
		
			<linearGradient id="SVGID_1_" gradientUnits="userSpaceOnUse" x1="180.4794" y1="845.5191" x2="258.1333" y2="845.5191" gradientTransform="matrix(0.9906 -7.423940e-03 7.392895e-03 0.9864 -166.3957 -762.6321)">
			<stop  offset="0.3935" style="stop-color:#A7E0FF"/>
			<stop  offset="1" style="stop-color:#DBFCFD"/>
		</linearGradient>
		<path class="st5" d="M94.8,95.6l-75.1,0.6c-0.5,0-0.9-0.4-0.9-1L18.4,45c0-0.5,0.4-1,0.9-1l75.1-0.6c0.5,0,0.9,0.4,0.9,1l0.4,50.2
			C95.8,95.2,95.3,95.6,94.8,95.6z"/>
		
			<linearGradient id="SVGID_00000054232992567697996420000011923059943636977058_" gradientUnits="userSpaceOnUse" x1="178.8936" y1="808.4304" x2="256.5768" y2="808.4304" gradientTransform="matrix(0.9917 -7.432627e-03 7.494450e-03 1 -165.0407 -760.1371)">
			<stop  offset="1.978731e-03" style="stop-color:#27AFFB"/>
			<stop  offset="1" style="stop-color:#63CDF8"/>
		</linearGradient>
		<path style="fill:url(#SVGID_00000054232992567697996420000011923059943636977058_);" d="M95.4,49.5l-77,0.6V45c0-0.6,0.4-1,1-1.1
			l75-0.5c0.5,0,1,0.5,1,1V49.5z"/>
		<line class="st7" x1="18.4" y1="50.1" x2="95.4" y2="49.5"/>
		<line class="st7" x1="18.5" y1="56.7" x2="95.4" y2="56.1"/>
		<line class="st7" x1="18.5" y1="63.3" x2="95.5" y2="62.7"/>
		<line class="st7" x1="18.6" y1="69.8" x2="95.5" y2="69.2"/>
		<line class="st7" x1="18.6" y1="76.4" x2="95.6" y2="75.8"/>
		<line class="st7" x1="18.7" y1="83" x2="95.6" y2="82.4"/>
		<line class="st7" x1="18.7" y1="89.5" x2="95.8" y2="89"/>
		<line class="st7" x1="30.7" y1="96.1" x2="30.4" y2="49.9"/>
		<line class="st7" x1="38.2" y1="96.1" x2="38" y2="49.9"/>
		<line class="st7" x1="45.5" y1="96" x2="45.2" y2="49.8"/>
		<line class="st7" x1="52.7" y1="95.9" x2="52.2" y2="49.8"/>
		<line class="st7" x1="59.8" y1="95.7" x2="59.5" y2="49.7"/>
		<line class="st7" x1="66.9" y1="95.8" x2="66.6" y2="49.7"/>
		<line class="st7" x1="74.1" y1="95.8" x2="73.8" y2="49.6"/>
		<line class="st7" x1="81.3" y1="95.6" x2="80.9" y2="49.6"/>
		<line class="st7" x1="88.5" y1="95.7" x2="88.1" y2="49.5"/>
	</g>
	<path class="st8" d="M53,18.2c-2,0.7-4.1,1.4-6.1,2c1.2,7.1,2.5,14.2,3.7,21.2c1.2-0.2,2.5-0.5,3.7-0.7c3.2-0.2,6.5-0.5,9.7-0.7
		c1.6-3.6,3.1-7.2,4.7-10.9l-4.2-10.3l-4.3-1l-2.3,3.9L53,18.2z"/>
	<path class="st9" d="M42.2,44.7c-1.1,0-2.3,0-3.4,0c0.2-0.9,0.5-1.8,0.7-2.8c1.3,0,2.5,0,3.8,0C43,42.9,42.5,43.8,42.2,44.7z"/>
	<path class="st10" d="M39.5,42l0.1,2.9l-3.3,1.3c-2.2-0.7-4.4-1.4-6.6-2.1c2.1-0.9,4.3-1.8,6.4-2.7C37.2,41.6,38.4,41.8,39.5,42z"
		/>
	<path class="st11" d="M41.7,41.5c0,1.2,0,2.4,0,3.6l30.6,1.7c1-0.6,2-1.2,3-1.9c0-1.4,0-2.7,0-4.1c-1.6-0.7-3.2-1.5-4.8-2.2
		c-4.6,0.7-9.5,1.3-14.6,1.9C50.9,40.9,46.2,41.2,41.7,41.5z"/>
	<path class="st9" d="M56.7,70.8c0.1,1.1,0.2,2.2,0.3,3.4C56,74,55,73.8,54.2,73.6c-0.1-1.3-0.2-2.5-0.3-3.8
		C54.8,70.2,55.7,70.5,56.7,70.8z"/>
	<path class="st11" d="M52.9,72.1c1.5-0.3,3-0.6,4.5-0.9c-1-10-2-20.1-3-30.2c-0.1-0.4-0.2-0.7-0.4-1.1c-1.5-0.5-3.1-1.1-4.6-1.7
		l-3.3,2.5L52.9,72.1z"/>
	<path class="st8" d="M46.9,20.3c-0.1,5.2-0.2,10.5-0.4,15.7l9.8,2.4l-3-8.1l-4.5-10C48,20.3,47.5,20.3,46.9,20.3z"/>
	<path class="st10" d="M54,73.7l2.9-0.3l1.6,3.2l-1.4,7.7c-1.1-2.4-2.3-4.7-3.4-7.1C53.9,76,54,74.8,54,73.7z"/>
	<g>
		<path class="st12" d="M57,40.4c-1.4-0.4-2.7-0.7-4.1-1.1c2.6-0.1,5.2-0.2,7.8-0.4C59.4,39.4,58.2,39.9,57,40.4z"/>
		<path class="st13" d="M57.2,40.6h17.2c0.6,0,1.1-0.5,1.1-1.1V27c0-0.6-0.5-1.1-1.1-1.1H57.2c-0.6,0-1.1,0.5-1.1,1.1v12.4
			C56,40,56.5,40.6,57.2,40.6z"/>
		<ellipse class="st0" cx="65.6" cy="33.1" rx="1.6" ry="1.6"/>
	</g>
	<g>
		<path class="st4" d="M51,26.3c0,2,0,4-0.1,6l-0.1-0.1c1.4,0.6,2.9,1.3,4.3,2c-1.5-0.5-3-1.2-4.5-1.8C50.8,30.3,50.9,28.3,51,26.3
			L51,26.3z"/>
	</g>
	<g>
		<path class="st4" d="M53,18.2c-2,0.7-4,1.5-6.1,2.1l0.1-0.1c-0.1,5.2-0.2,10.5-0.5,15.7c0-5.3,0.1-10.5,0.2-15.8
			C48.8,19.5,50.9,18.9,53,18.2L53,18.2z"/>
	</g>
	<g>
		<path class="st4" d="M60.2,17.8c1.5,0.3,2.9,0.6,4.4,0.9v0.1c0.9,2.2,1.8,4.4,2.6,6.7c-1-2.2-1.9-4.4-2.8-6.6v0
			C63,18.6,61.7,18.2,60.2,17.8L60.2,17.8z"/>
	</g>
</g>
</svg>
