<?xml version="1.0" encoding="utf-8"?>
<!-- Generator: Adobe Illustrator 26.0.1, SVG Export Plug-In . SVG Version: 6.00 Build 0)  -->
<svg version="1.1" id="Layer_1" xmlns="http://www.w3.org/2000/svg" xmlns:xlink="http://www.w3.org/1999/xlink" x="0px" y="0px"
	 viewBox="0 0 100 100" style="enable-background:new 0 0 100 100;" xml:space="preserve">
<style type="text/css">
	.st0{fill:url(#SVGID_1_);}
	.st1{fill:url(#SVGID_00000061429339349973205630000007365658606914539394_);}
	.st2{fill:none;stroke:#FFFFFF;stroke-width:0.3;stroke-miterlimit:10;}
	.st3{fill:#F3FCFF;}
	.st4{fill:#58657A;}
	.st5{fill:#E9F3FF;}
	.st6{fill:#99C3FF;}
	.st7{fill:#71FFFF;}
	.st8{fill:#C7E0FF;}
	.st9{fill:#FFFFFF;}
	.st10{fill:url(#SVGID_00000088817827574150603680000008006882304361726595_);}
	.st11{fill:#FEC67F;}
	.st12{fill:url(#SVGID_00000008829666864299053110000009898411973758195383_);}
	.st13{fill:url(#SVGID_00000170264037854941967960000008081604088907479479_);}
	.st14{fill:url(#SVGID_00000074404863342024167120000012670432510279497095_);}
	.st15{fill:url(#SVGID_00000071541725491654288080000006459724990967234711_);}
	.st16{fill:url(#SVGID_00000092416694225708034710000017182570913645316227_);}
	.st17{fill:url(#SVGID_00000027598698956586818630000013175706634397954959_);}
	.st18{fill:url(#SVGID_00000000188498320660575610000010793079192256591754_);}
	.st19{fill:url(#SVGID_00000034080108237688869060000007067974587792542115_);}
</style>
<g>
	<g>
		<g>
			
				<linearGradient id="SVGID_1_" gradientUnits="userSpaceOnUse" x1="3" y1="51.2" x2="96.9902" y2="51.2" gradientTransform="matrix(1 0 0 -1 0 102)">
				<stop  offset="0.3935" style="stop-color:#A8E1FF"/>
				<stop  offset="1" style="stop-color:#DCFDFE"/>
			</linearGradient>
			<path class="st0" d="M95.9,78.3H4.1c-0.6,0-1.1-0.5-1.1-1.1V24.4c0-0.6,0.5-1.1,1.1-1.1h91.8c0.6,0,1.1,0.5,1.1,1.1v52.8
				C97,77.8,96.5,78.3,95.9,78.3z"/>
			
				<linearGradient id="SVGID_00000155849006367580550250000011968495211345227412_" gradientUnits="userSpaceOnUse" x1="3" y1="75.475" x2="97" y2="75.475" gradientTransform="matrix(1 0 0 -1 0 102)">
				<stop  offset="1.978731e-03" style="stop-color:#27B0FC"/>
				<stop  offset="1" style="stop-color:#63CEF9"/>
			</linearGradient>
			<path style="fill:url(#SVGID_00000155849006367580550250000011968495211345227412_);" d="M97,29.8H3v-5.4c0-0.6,0.5-1.1,1.1-1.1
				h91.9c0.6,0,1.1,0.5,1.1,1.1V29.8z"/>
			<line class="st2" x1="3" y1="29.8" x2="97" y2="29.8"/>
			<line class="st2" x1="3" y1="35.8" x2="97" y2="35.8"/>
			<line class="st2" x1="3" y1="41.9" x2="97" y2="41.9"/>
			<line class="st2" x1="3" y1="48" x2="97" y2="48"/>
			<line class="st2" x1="3" y1="54.1" x2="97" y2="54.1"/>
			<line class="st2" x1="3" y1="60.2" x2="97" y2="60.2"/>
			<line class="st2" x1="3" y1="66.3" x2="97" y2="66.3"/>
			<line class="st2" x1="3" y1="72.3" x2="97" y2="72.3"/>
			<line class="st2" x1="19.2" y1="29.8" x2="19.2" y2="78.3"/>
			<line class="st2" x1="30.4" y1="29.8" x2="30.4" y2="78.3"/>
			<line class="st2" x1="41.7" y1="29.8" x2="41.7" y2="78.3"/>
			<line class="st2" x1="53" y1="29.8" x2="53" y2="78.3"/>
			<line class="st2" x1="64.2" y1="29.8" x2="64.2" y2="78.3"/>
			<line class="st2" x1="75.5" y1="29.8" x2="75.5" y2="78.3"/>
			<line class="st2" x1="86.8" y1="29.8" x2="86.8" y2="78.3"/>
		</g>
		<rect x="20.2" y="32" class="st3" width="8.8" height="1"/>
		<rect x="31.5" y="32" class="st3" width="8.7" height="1"/>
		<rect x="42.9" y="32" class="st3" width="8.8" height="1"/>
		<rect x="54.2" y="32" class="st3" width="8.8" height="1"/>
		<rect x="65.6" y="32" class="st3" width="8.8" height="1"/>
		<rect x="76.9" y="32" class="st3" width="8.8" height="1"/>
		<rect x="88.2" y="32" class="st3" width="7.8" height="1"/>
	</g>
	<g>
		<path class="st4" d="M54.4,81.1H10.7c-1.8,0-3.2-1.4-3.2-3.2V21c0-1.8,1.4-3.2,3.2-3.2h43.7c1.8,0,3.2,1.4,3.2,3.2v57
			C57.5,79.7,56.1,81.1,54.4,81.1z"/>
		<rect x="11.1" y="21.9" class="st5" width="42.5" height="15"/>
		<path class="st6" d="M41,44.3H11.8c-0.4,0-0.7-0.3-0.7-0.7v-2.2c0-0.4,0.3-0.7,0.7-0.7H41c0.4,0,0.7,0.3,0.7,0.7v2.2
			C41.8,43.9,41.4,44.3,41,44.3z"/>
		<path class="st7" d="M53.2,44.3h-9c-0.2,0-0.4-0.2-0.4-0.4V41c0-0.2,0.2-0.4,0.4-0.4h9c0.2,0,0.4,0.2,0.4,0.4v2.8
			C53.5,44.1,53.4,44.3,53.2,44.3z"/>
		<path class="st6" d="M52.9,55.9h-8.5c-0.3,0-0.6-0.3-0.6-0.6v-7.9c0-0.3,0.3-0.6,0.6-0.6h8.5c0.3,0,0.6,0.3,0.6,0.6v7.9
			C53.5,55.6,53.3,55.9,52.9,55.9z"/>
		<g>
			<path class="st8" d="M19.7,55.9h-7.9c-0.3,0-0.6-0.3-0.6-0.6v-7.9c0-0.3,0.3-0.6,0.6-0.6h7.9c0.3,0,0.6,0.3,0.6,0.6v7.9
				C20.3,55.6,20.1,55.9,19.7,55.9z"/>
			<path class="st8" d="M30.5,55.9h-7.9c-0.3,0-0.6-0.3-0.6-0.6v-7.9c0-0.3,0.3-0.6,0.6-0.6h7.9c0.3,0,0.6,0.3,0.6,0.6v7.9
				C31.1,55.6,30.8,55.9,30.5,55.9z"/>
			<path class="st8" d="M41.3,55.9h-7.9c-0.3,0-0.6-0.3-0.6-0.6v-7.9c0-0.3,0.3-0.6,0.6-0.6h7.9c0.3,0,0.6,0.3,0.6,0.6v7.9
				C41.9,55.6,41.6,55.9,41.3,55.9z"/>
		</g>
		<g>
			<path class="st8" d="M19.7,66.8h-7.9c-0.3,0-0.6-0.3-0.6-0.6v-7.9c0-0.3,0.3-0.6,0.6-0.6h7.9c0.3,0,0.6,0.3,0.6,0.6v7.9
				C20.3,66.6,20.1,66.8,19.7,66.8z"/>
			<path class="st8" d="M30.5,66.8h-7.9c-0.3,0-0.6-0.3-0.6-0.6v-7.9c0-0.3,0.3-0.6,0.6-0.6h7.9c0.3,0,0.6,0.3,0.6,0.6v7.9
				C31.1,66.6,30.8,66.8,30.5,66.8z"/>
			<path class="st8" d="M41.3,66.8h-7.9c-0.3,0-0.6-0.3-0.6-0.6v-7.9c0-0.3,0.3-0.6,0.6-0.6h7.9c0.3,0,0.6,0.3,0.6,0.6v7.9
				C41.9,66.6,41.6,66.8,41.3,66.8z"/>
		</g>
		<g>
			<path class="st8" d="M19.7,77.8h-7.9c-0.3,0-0.6-0.3-0.6-0.6v-7.9c0-0.3,0.3-0.6,0.6-0.6h7.9c0.3,0,0.6,0.3,0.6,0.6v7.9
				C20.3,77.5,20.1,77.8,19.7,77.8z"/>
			<path class="st8" d="M30.5,77.8h-7.9c-0.3,0-0.6-0.3-0.6-0.6v-7.9c0-0.3,0.3-0.6,0.6-0.6h7.9c0.3,0,0.6,0.3,0.6,0.6v7.9
				C31.1,77.5,30.8,77.8,30.5,77.8z"/>
			<path class="st8" d="M41.3,77.8h-7.9c-0.3,0-0.6-0.3-0.6-0.6v-7.9c0-0.3,0.3-0.6,0.6-0.6h7.9c0.3,0,0.6,0.3,0.6,0.6v7.9
				C41.9,77.5,41.6,77.8,41.3,77.8z"/>
		</g>
		<path class="st6" d="M52.6,77.8h-7.9c-0.5,0-1-0.4-1-0.9V58.6c0-0.5,0.4-1,1-1h7.9c0.5,0,1,0.4,1,1v18.2
			C53.5,77.4,53.1,77.8,52.6,77.8z"/>
		<path class="st9" d="M36.5,21.9l-5.9,15c2.4,0,4.9,0,7.3,0c2-5,3.9-10,5.9-15H36.5z"/>
	</g>
	<g>
		
			<linearGradient id="SVGID_00000059304084346959101300000011650894725339239597_" gradientUnits="userSpaceOnUse" x1="172.0558" y1="229.2379" x2="196.9476" y2="229.2379" gradientTransform="matrix(0.9611 0.2763 0.2763 -0.9611 -165.1272 195.2479)">
			<stop  offset="0" style="stop-color:#FFC174"/>
			<stop  offset="0" style="stop-color:#F6BA6D"/>
			<stop  offset="0.7256" style="stop-color:#6A4500"/>
		</linearGradient>
		<path style="fill:url(#SVGID_00000059304084346959101300000011650894725339239597_);" d="M87.9,27.8l-0.7,2.5
			c-0.4,1.4-6.1,0.9-12.7-1s-11.6-4.5-11.2-5.9l0.7-2.5c0.3-1,5.9-0.2,12.5,1.7C83.1,24.5,88.2,26.8,87.9,27.8z"/>
		<ellipse transform="matrix(0.2763 -0.9611 0.9611 0.2763 31.5864 90.6509)" class="st11" cx="76" cy="24.4" rx="2" ry="12.4"/>
	</g>
	<g>
		
			<linearGradient id="SVGID_00000111176671446198232680000017313340508096866466_" gradientUnits="userSpaceOnUse" x1="-26.8688" y1="-20.6478" x2="-1.9918" y2="-20.6478" gradientTransform="matrix(0.9809 -0.1946 -0.1946 -0.9809 91.057 15.2983)">
			<stop  offset="0" style="stop-color:#FFC174"/>
			<stop  offset="0" style="stop-color:#F6BA6D"/>
			<stop  offset="0.7256" style="stop-color:#6A4500"/>
		</linearGradient>
		<path style="fill:url(#SVGID_00000111176671446198232680000017313340508096866466_);" d="M92.8,34.3l0.5,2.5
			c0.3,1.4-5,3.6-11.7,4.9s-12.4,1.3-12.7-0.1l-0.5-2.5c-0.2-1,5.1-2.9,11.8-4.2S92.6,33.3,92.8,34.3z"/>
		<ellipse transform="matrix(0.9809 -0.1946 0.1946 0.9809 -5.6171 16.388)" class="st11" cx="80.6" cy="36.8" rx="12.4" ry="2"/>
	</g>
	<g>
		
			<linearGradient id="SVGID_00000134942905924841049790000017813380320732566454_" gradientUnits="userSpaceOnUse" x1="179.298" y1="206.9415" x2="204.1897" y2="206.9415" gradientTransform="matrix(0.9611 0.2763 0.2763 -0.9611 -165.1272 195.2479)">
			<stop  offset="0" style="stop-color:#FFC174"/>
			<stop  offset="0" style="stop-color:#F6BA6D"/>
			<stop  offset="0.7256" style="stop-color:#6A4500"/>
		</linearGradient>
		<path style="fill:url(#SVGID_00000134942905924841049790000017813380320732566454_);" d="M88.8,51.2L88,53.7
			c-0.4,1.4-6.1,0.9-12.7-1s-11.6-4.5-11.2-5.9l0.7-2.5c0.3-1,5.9-0.2,12.5,1.7S89,50.2,88.8,51.2z"/>
		<ellipse transform="matrix(0.2763 -0.9611 0.9611 0.2763 9.6431 108.3752)" class="st11" cx="76.8" cy="47.8" rx="2" ry="12.4"/>
	</g>
	<g>
		
			<linearGradient id="SVGID_00000155136723245639519950000004625216098284812733_" gradientUnits="userSpaceOnUse" x1="68.0603" y1="29.6461" x2="92.9403" y2="29.6461" gradientTransform="matrix(1 0 0 -1 -3.1403 108.3261)">
			<stop  offset="0" style="stop-color:#FFC174"/>
			<stop  offset="0" style="stop-color:#F6BA6D"/>
			<stop  offset="0.7256" style="stop-color:#6A4500"/>
		</linearGradient>
		<path style="fill:url(#SVGID_00000155136723245639519950000004625216098284812733_);" d="M89.8,77v2.6c0,1.4-5.6,2.6-12.4,2.6
			S64.9,81,64.9,79.6V77c0-1,5.6-1.8,12.4-1.8S89.8,76,89.8,77z"/>
		<ellipse class="st11" cx="77.3" cy="77.1" rx="12.4" ry="2"/>
	</g>
	<g>
		
			<linearGradient id="SVGID_00000061431004715838316170000009902258110281070242_" gradientUnits="userSpaceOnUse" x1="66.6903" y1="32.4161" x2="91.5703" y2="32.4161" gradientTransform="matrix(1 0 0 -1 -3.1403 108.3261)">
			<stop  offset="0" style="stop-color:#FFC174"/>
			<stop  offset="0" style="stop-color:#F6BA6D"/>
			<stop  offset="0.7256" style="stop-color:#6A4500"/>
		</linearGradient>
		<path style="fill:url(#SVGID_00000061431004715838316170000009902258110281070242_);" d="M88.4,74.3v2.6c0,1.4-5.6,2.6-12.4,2.6
			s-12.4-1.2-12.4-2.6v-2.6c0-1,5.6-1.8,12.4-1.8S88.4,73.2,88.4,74.3z"/>
		<ellipse class="st11" cx="76" cy="74.3" rx="12.4" ry="2"/>
	</g>
	<g>
		
			<linearGradient id="SVGID_00000068667347796655559150000012259395174965912714_" gradientUnits="userSpaceOnUse" x1="68.3903" y1="35.1461" x2="93.2703" y2="35.1461" gradientTransform="matrix(1 0 0 -1 -3.1403 108.3261)">
			<stop  offset="0" style="stop-color:#FFC174"/>
			<stop  offset="0" style="stop-color:#F6BA6D"/>
			<stop  offset="0.7256" style="stop-color:#6A4500"/>
		</linearGradient>
		<path style="fill:url(#SVGID_00000068667347796655559150000012259395174965912714_);" d="M90.1,71.5v2.6c0,1.4-5.6,2.6-12.4,2.6
			s-12.4-1.2-12.4-2.6v-2.6c0-1,5.6-1.8,12.4-1.8S90.1,70.5,90.1,71.5z"/>
		<ellipse class="st11" cx="77.7" cy="71.6" rx="12.4" ry="2"/>
	</g>
	<g>
		
			<linearGradient id="SVGID_00000151524628629451343060000001986999223486990252_" gradientUnits="userSpaceOnUse" x1="67.3903" y1="38.1461" x2="92.2703" y2="38.1461" gradientTransform="matrix(1 0 0 -1 -3.1403 108.3261)">
			<stop  offset="0" style="stop-color:#FFC174"/>
			<stop  offset="0" style="stop-color:#F6BA6D"/>
			<stop  offset="0.7256" style="stop-color:#6A4500"/>
		</linearGradient>
		<path style="fill:url(#SVGID_00000151524628629451343060000001986999223486990252_);" d="M89.1,68.5v2.6c0,1.4-5.6,2.6-12.4,2.6
			s-12.4-1.2-12.4-2.6v-2.6c0-1,5.6-1.8,12.4-1.8S89.1,67.5,89.1,68.5z"/>
		<ellipse class="st11" cx="76.7" cy="68.6" rx="12.4" ry="2"/>
	</g>
	<g>
		
			<linearGradient id="SVGID_00000147194379017439452250000000223876101196131259_" gradientUnits="userSpaceOnUse" x1="69.0903" y1="41.1061" x2="93.9703" y2="41.1061" gradientTransform="matrix(1 0 0 -1 -3.1403 108.3261)">
			<stop  offset="0" style="stop-color:#FFC174"/>
			<stop  offset="0" style="stop-color:#F6BA6D"/>
			<stop  offset="0.7256" style="stop-color:#6A4500"/>
		</linearGradient>
		<path style="fill:url(#SVGID_00000147194379017439452250000000223876101196131259_);" d="M90.8,65.6v2.6c0,1.4-5.6,2.6-12.4,2.6
			s-12.4-1.2-12.4-2.6v-2.6c0-1,5.6-1.8,12.4-1.8S90.8,64.6,90.8,65.6z"/>
		<ellipse class="st11" cx="78.4" cy="65.6" rx="12.4" ry="2"/>
	</g>
	<g>
		
			<linearGradient id="SVGID_00000093165660670540163790000004706024718376242847_" gradientUnits="userSpaceOnUse" x1="68.0903" y1="43.9761" x2="92.9703" y2="43.9761" gradientTransform="matrix(1 0 0 -1 -3.1403 108.3261)">
			<stop  offset="0" style="stop-color:#FFC174"/>
			<stop  offset="0" style="stop-color:#F6BA6D"/>
			<stop  offset="0.7256" style="stop-color:#6A4500"/>
		</linearGradient>
		<path style="fill:url(#SVGID_00000093165660670540163790000004706024718376242847_);" d="M89.8,62.7v2.6c0,1.4-5.6,2.6-12.4,2.6
			s-12.4-1.2-12.4-2.6v-2.6c0-1,5.6-1.8,12.4-1.8S89.8,61.7,89.8,62.7z"/>
		<ellipse class="st11" cx="77.4" cy="62.7" rx="12.4" ry="2"/>
	</g>
	<path class="st9" d="M45.2,29.8c1.5-4.1,2.4-7.5,1.9-7.7c-0.5-0.2-2.1,3-3.7,7s-2.4,7.5-1.9,7.7S43.7,33.9,45.2,29.8z"/>
</g>
</svg>
