<?xml version="1.0" encoding="utf-8"?>
<!-- Generator: Adobe Illustrator 26.0.1, SVG Export Plug-In . SVG Version: 6.00 Build 0)  -->
<svg version="1.1" id="Layer_1" xmlns="http://www.w3.org/2000/svg" xmlns:xlink="http://www.w3.org/1999/xlink" x="0px" y="0px"
	 viewBox="0 0 100 100" style="enable-background:new 0 0 100 100;" xml:space="preserve">
<style type="text/css">
	.st0{fill:url(#SVGID_1_);}
	.st1{clip-path:url(#SVGID_00000026156846501329047170000006787138227726439870_);fill:#FFBA9F;}
	.st2{clip-path:url(#SVGID_00000097469932357739478770000008433298322348361869_);fill:#FFBA9F;}
	.st3{clip-path:url(#SVGID_00000052793538633742865000000000630125086754219445_);}
	.st4{clip-path:url(#SVGID_00000183962189212169769000000016843917135213465022_);fill:#FFBA9F;}
	.st5{clip-path:url(#SVGID_00000039107210806019834090000001596425348293753004_);}
	.st6{clip-path:url(#SVGID_00000145746660141117436530000000012585856644335540_);}
	.st7{clip-path:url(#SVGID_00000027585061143567204670000014343502376614163633_);fill:#FFBA9F;}
	.st8{clip-path:url(#SVGID_00000078014575067446071420000005401731634953155998_);fill:#336DFF;}
	.st9{clip-path:url(#SVGID_00000049218556455800857010000004297560404334860465_);fill:#336DFF;}
	.st10{clip-path:url(#SVGID_00000079444659976170474530000016780270979085338004_);fill:#FFFFFF;}
	
		.st11{clip-path:url(#SVGID_00000180366993542178515790000008632512847630257306_);fill:none;stroke:#58595B;stroke-width:5.000000e-02;stroke-miterlimit:10;}
	.st12{clip-path:url(#SVGID_00000183222009861635832790000009660447129368439694_);fill:#414042;}
	.st13{clip-path:url(#SVGID_00000101076262815082286270000007617201736306316209_);fill:#414042;}
	.st14{clip-path:url(#SVGID_00000132788061892944621310000006634164484390276019_);}
	.st15{fill:#414042;}
	.st16{fill:#333D49;}
	.st17{fill:url(#SVGID_00000148624827018644751250000004508819119571952542_);}
	.st18{fill:#99B0D5;}
	.st19{fill:#C6DFFF;}
	.st20{fill:#B1CCE9;}
	.st21{fill:#FFFFFF;}
	.st22{fill:url(#SVGID_00000041994515563905798980000013035681942056686014_);}
	.st23{fill:none;stroke:#FFFFFF;stroke-width:0.2;stroke-miterlimit:10;}
	.st24{fill:#FF5E33;}
	.st25{fill:none;stroke:#FF5E33;stroke-width:0.5;stroke-miterlimit:10;}
	.st26{fill:#48AE52;}
	.st27{fill:none;stroke:#48AE52;stroke-width:0.5;stroke-miterlimit:10;}
	.st28{fill:#6EC0FF;}
	.st29{fill:none;stroke:#333333;stroke-width:0.5;stroke-miterlimit:10;}
	.st30{fill:none;stroke:#333333;stroke-width:0.25;stroke-miterlimit:10;}
	.st31{fill:none;stroke:#333333;stroke-miterlimit:10;}
	.st32{fill:url(#SVGID_00000147942616156577698800000014741833280796791972_);}
	.st33{fill:#4DD9FF;}
	.st34{fill:none;stroke:#7F90B1;stroke-width:1.5;stroke-miterlimit:10;}
</style>
<g>
	
		<linearGradient id="SVGID_1_" gradientUnits="userSpaceOnUse" x1="8.4" y1="1067.5" x2="91.7" y2="1067.5" gradientTransform="matrix(1 0 0 1 0 -978)">
		<stop  offset="0.3935" style="stop-color:#A8E1FF"/>
		<stop  offset="1" style="stop-color:#DCFDFE"/>
	</linearGradient>
	<rect x="8.4" y="84.7" class="st0" width="83.3" height="9.7"/>
	<g>
		<g>
			<g>
				<defs>
					<rect id="SVGID_00000135687453904409379040000018337963154469644418_" x="18.1" y="26.4" width="70" height="58.3"/>
				</defs>
				<clipPath id="SVGID_00000127042510716801454610000015691312885745403576_">
					<use xlink:href="#SVGID_00000135687453904409379040000018337963154469644418_"  style="overflow:visible;"/>
				</clipPath>
				<path style="clip-path:url(#SVGID_00000127042510716801454610000015691312885745403576_);fill:#FFBA9F;" d="M45.9,46.9
					c-0.4,0.9,0.6,1.4,0.3,3.2c-0.2,1-0.7,2.3-1.7,3.2c-0.6,0.6-0.7,0.5-0.8,0.8c-0.4,1.1,1.7,2.3,3.5,4.9c1.7,2.6,1.7,4.5,2.4,4.5
					s0.6-2.1,2.5-5c0.9-1.4,1.6-2.5,2.9-3.2c1-0.6,2-0.8,2-1.2s-0.8-0.4-1.8-1.2c-0.1,0-1.4-1.1-1.9-2.8c-0.4-1.5,0.3-2-0.1-2.8
					C52.3,45.3,46.8,45.2,45.9,46.9z"/>
			</g>
		</g>
		<g>
			<g>
				<defs>
					<rect id="SVGID_00000034805045370972104520000000776515226483953842_" x="18.1" y="26.4" width="70" height="58.3"/>
				</defs>
				<clipPath id="SVGID_00000166665579943511360660000002742363656562571427_">
					<use xlink:href="#SVGID_00000034805045370972104520000000776515226483953842_"  style="overflow:visible;"/>
				</clipPath>
				<path style="clip-path:url(#SVGID_00000166665579943511360660000002742363656562571427_);fill:#FFBA9F;" d="M50.6,49.8h-2.2
					c-2.5,0-4.5-2-4.5-4.5v-9c0-2.5,2-4.5,4.5-4.5h2.2c2.5,0,4.5,2,4.5,4.5v9C55.1,47.8,53,49.8,50.6,49.8z"/>
			</g>
		</g>
		<g>
			<g>
				<defs>
					<rect id="SVGID_00000147218153934620024180000017218632010536208550_" x="18.1" y="26.4" width="70" height="58.3"/>
				</defs>
				<clipPath id="SVGID_00000031203203192168903060000011540425202135989890_">
					<use xlink:href="#SVGID_00000147218153934620024180000017218632010536208550_"  style="overflow:visible;"/>
				</clipPath>
				<path style="clip-path:url(#SVGID_00000031203203192168903060000011540425202135989890_);" d="M43.9,39.6c-0.3-0.2-0.7-0.5-1-1
					c-0.1-0.1-0.5-0.7-0.7-1.6c-0.1-0.6,0-1.1,0-1.2c0-0.3,0.2-0.9,0.6-1.5c0.2-0.2,0.5-0.6,1-0.6c0.2,0,0.4,0,0.5,0
					c0,0,0.2-0.1,0.4,0c0.3,0.1,0.2,0.7,0.1,0.7c0,0,0,0-0.1,0s-0.1,0.1-0.1,0.2c-0.7,2.6-0.8,4.7-0.8,4.7
					C43.9,39.4,43.9,39.5,43.9,39.6z"/>
			</g>
		</g>
		<g>
			<g>
				<defs>
					<rect id="SVGID_00000182508309055443446750000001874136553600536992_" x="18.1" y="26.4" width="70" height="58.3"/>
				</defs>
				<clipPath id="SVGID_00000155850560603825152020000005955164592558456194_">
					<use xlink:href="#SVGID_00000182508309055443446750000001874136553600536992_"  style="overflow:visible;"/>
				</clipPath>
				<path style="clip-path:url(#SVGID_00000155850560603825152020000005955164592558456194_);fill:#FFBA9F;" d="M44.4,39.3
					c-0.1-0.1-0.4-0.4-0.9-0.5c-0.2,0-0.7-0.1-0.9,0.2c-0.2,0.2-0.1,0.4,0,0.9c0.2,0.8,0.5,1.3,0.5,1.5c0.2,0.4,0.4,0.7,0.8,1
					c0.2,0.1,0.5,0.3,0.8,0.2C45.3,42.2,45.4,40.2,44.4,39.3z"/>
			</g>
		</g>
		<g>
			<g>
				<defs>
					<rect id="SVGID_00000111911630540577723150000016968350404900982701_" x="18.1" y="26.4" width="70" height="58.3"/>
				</defs>
				<clipPath id="SVGID_00000038395795511499738770000008246386461336362165_">
					<use xlink:href="#SVGID_00000111911630540577723150000016968350404900982701_"  style="overflow:visible;"/>
				</clipPath>
				<path style="clip-path:url(#SVGID_00000038395795511499738770000008246386461336362165_);" d="M43.6,28.8
					c-0.2,0.1-1.1,0.6-1.3,1.7c-0.2,0.6,0,1.2,0.1,1.6c0.1,0.2,0.2,0.7,0.7,1.3c0.2,0.2,0.7,0.8,1.5,1.2c0.5,0.2,0.9,0.2,1.5,0.2
					c0.3,0,1.3,0,2.6-0.4c0.8-0.2,0.9-0.4,1.4-0.4c0.6,0,1.1,0.3,1.3,0.4c0.6,0.3,0.6,0.5,1,0.8c0.9,0.6,2.4,0.6,3.1-0.1
					c0.2-0.2,0.4-0.6,0.4-0.7c0.1-0.2,0.2-0.6,0.2-1c-0.1-0.8-1-1.3-1.2-1.4c-0.8-0.4-1.7-0.3-2.3-0.2c-1,0.1-1.2,0.4-1.8,0.3
					c-0.6-0.1-1-0.4-1.3-0.6c-0.5-0.4-0.6-0.7-1.1-1.2c-0.3-0.3-0.8-0.8-1.3-1.2C46.2,28.4,44.8,28.1,43.6,28.8z"/>
			</g>
		</g>
		<g>
			<g>
				<defs>
					<rect id="SVGID_00000158021837374477247340000015729108296671910285_" x="18.1" y="26.4" width="70" height="58.3"/>
				</defs>
				<clipPath id="SVGID_00000065760878523957938740000001690876649439667593_">
					<use xlink:href="#SVGID_00000158021837374477247340000015729108296671910285_"  style="overflow:visible;"/>
				</clipPath>
				<path style="clip-path:url(#SVGID_00000065760878523957938740000001690876649439667593_);" d="M54.7,39.8
					c0.3-0.1,0.8-0.3,1.2-0.6l0,0c1.2-1,1.3-2.3,1.3-2.3c0.1-0.9-0.3-1.5-0.4-1.7c-0.3-0.5-1-1.2-1.3-1.1c-0.1,0-0.3,0.1-0.3,0.8
					c0,0-0.2-0.1-0.4-0.1c-0.3,0.1-0.3,0.5-0.2,0.6c0,0,0,0,0.1,0c0,0,0.1,0,0.1,0.2C54.7,35.8,54.7,39.4,54.7,39.8z"/>
			</g>
		</g>
		<g>
			<g>
				<defs>
					<rect id="SVGID_00000022557167477764241570000007839374672007120532_" x="18.1" y="26.4" width="70" height="58.3"/>
				</defs>
				<clipPath id="SVGID_00000117663075137914189870000008914007291919707307_">
					<use xlink:href="#SVGID_00000022557167477764241570000007839374672007120532_"  style="overflow:visible;"/>
				</clipPath>
				<path style="clip-path:url(#SVGID_00000117663075137914189870000008914007291919707307_);fill:#FFBA9F;" d="M54.6,39.3
					c0.1-0.1,0.4-0.4,0.9-0.5c0.2,0,0.7-0.1,0.9,0.2c0.2,0.2,0.1,0.4,0,0.9c-0.2,0.8-0.5,1.3-0.5,1.5c-0.2,0.4-0.4,0.7-0.8,1
					c-0.2,0.1-0.5,0.3-0.8,0.2C53.7,42.2,53.6,40.2,54.6,39.3z"/>
			</g>
		</g>
		<g>
			<g>
				<defs>
					<rect id="SVGID_00000163761348042222657470000008119726688901659030_" x="18.1" y="26.4" width="70" height="58.3"/>
				</defs>
				<clipPath id="SVGID_00000127012746315346395120000015546535999245950116_">
					<use xlink:href="#SVGID_00000163761348042222657470000008119726688901659030_"  style="overflow:visible;"/>
				</clipPath>
				<path style="clip-path:url(#SVGID_00000127012746315346395120000015546535999245950116_);fill:#336DFF;" d="M44.3,54.3l-9.1,1
					l-8.4,22.3c2.9,5.4,5.9,10.7,8.8,16.1l0.8-10.5l-2.2-4.2l1.9-5.1l7.8-10L44.3,54.3z"/>
			</g>
		</g>
		<g>
			<g>
				<defs>
					<rect id="SVGID_00000124866098936689321810000012644363147450778520_" x="18.1" y="26.4" width="70" height="58.3"/>
				</defs>
				<clipPath id="SVGID_00000067940233716258236230000008020529145826727574_">
					<use xlink:href="#SVGID_00000124866098936689321810000012644363147450778520_"  style="overflow:visible;"/>
				</clipPath>
				<path style="clip-path:url(#SVGID_00000067940233716258236230000008020529145826727574_);fill:#336DFF;" d="M55.8,53.6
					c3.7,0.2,7.4,0.5,11,0.7c2.7,7.7,5.3,15.3,8,23c2.7,5.1,5.4,10.2,8,15.3c-1.3,0.3-2.5,0.6-3.8,0.8c-3.1-3.7-6.2-7.4-9.2-11.1
					c-2.1-5-4.3-10.1-6.4-15.1L62.3,97H35.6l0.2-40.1c-0.2-0.5-0.4-1-0.7-1.5c2.9-0.5,5.9-0.9,8.8-1.3c1.8,2.5,3.6,4.9,5.4,7.4
					C51.5,58.8,53.6,56.2,55.8,53.6z"/>
			</g>
		</g>
		<g>
			<g>
				<defs>
					<rect id="SVGID_00000047768765430401197650000013730055705917660034_" x="18.1" y="26.4" width="70" height="58.3"/>
				</defs>
				<clipPath id="SVGID_00000036953190915853253060000015883616700228100017_">
					<use xlink:href="#SVGID_00000047768765430401197650000013730055705917660034_"  style="overflow:visible;"/>
				</clipPath>
				<path style="clip-path:url(#SVGID_00000036953190915853253060000015883616700228100017_);fill:#FFFFFF;" d="M47.4,45.8h4.1
					c-0.1,0.2-0.8,1.5-2,1.5S47.5,45.9,47.4,45.8z"/>
			</g>
		</g>
		<g>
			<g>
				<defs>
					<rect id="SVGID_00000057123624787889250900000011054180297719801250_" x="18.1" y="26.4" width="70" height="58.3"/>
				</defs>
				<clipPath id="SVGID_00000018208863579720761630000011200557605380637866_">
					<use xlink:href="#SVGID_00000057123624787889250900000011054180297719801250_"  style="overflow:visible;"/>
				</clipPath>
				
					<polyline style="clip-path:url(#SVGID_00000018208863579720761630000011200557605380637866_);fill:none;stroke:#58595B;stroke-width:5.000000e-02;stroke-miterlimit:10;" points="
					49.2,41.3 48.6,43.1 49.5,44.1 				"/>
			</g>
		</g>
		<g>
			<g>
				<defs>
					<rect id="SVGID_00000125602593929958443340000014721421190464780680_" x="18.1" y="26.4" width="70" height="58.3"/>
				</defs>
				<clipPath id="SVGID_00000084523438340279971520000006825246655048268475_">
					<use xlink:href="#SVGID_00000125602593929958443340000014721421190464780680_"  style="overflow:visible;"/>
				</clipPath>
				
					<circle style="clip-path:url(#SVGID_00000084523438340279971520000006825246655048268475_);fill:#414042;" cx="51.9" cy="40.3" r="0.4"/>
			</g>
		</g>
		<g>
			<g>
				<defs>
					<rect id="SVGID_00000099652749073482619070000016085606613302286737_" x="18.1" y="26.4" width="70" height="58.3"/>
				</defs>
				<clipPath id="SVGID_00000014598965927307546170000013501648999470117048_">
					<use xlink:href="#SVGID_00000099652749073482619070000016085606613302286737_"  style="overflow:visible;"/>
				</clipPath>
				
					<circle style="clip-path:url(#SVGID_00000014598965927307546170000013501648999470117048_);fill:#414042;" cx="46.8" cy="40.3" r="0.4"/>
			</g>
		</g>
		<g>
			<g>
				<defs>
					<rect id="SVGID_00000013157853513185048900000010473534444170992558_" x="18.1" y="26.4" width="70" height="58.3"/>
				</defs>
				<clipPath id="SVGID_00000108271349154960663950000016594918047939907978_">
					<use xlink:href="#SVGID_00000013157853513185048900000010473534444170992558_"  style="overflow:visible;"/>
				</clipPath>
				<g style="clip-path:url(#SVGID_00000108271349154960663950000016594918047939907978_);">
					<g>
						<path class="st15" d="M35.6,68.5c0.3,7.3,0.3,14.9,0.3,22.2C35.3,83.4,35.3,75.8,35.6,68.5L35.6,68.5z"/>
					</g>
					<g>
						<path class="st15" d="M35.6,75.5c-0.4,1.2-0.9,2.4-1.5,3.6v-0.2c0.6,1,1.2,2.1,1.6,3.2c-0.7-0.9-1.3-2-2-3V79
							C34.3,77.8,34.9,76.7,35.6,75.5L35.6,75.5z"/>
					</g>
					<g>
						<path class="st15" d="M43.8,40.9c0.1,4.8-0.5,7.8,5.2,8.9C43.2,49.4,43.2,45.6,43.8,40.9L43.8,40.9z"/>
					</g>
					<g>
						<path class="st15" d="M44,53.9c-2.9,0.6-5.9,1.1-8.8,1.5l0.2-0.1c-0.6,1.8-1.3,3.5-2,5.2s-1.4,3.5-2.1,5.2
							c0.6-1.8,1.2-3.5,1.8-5.3c0.7-1.8,1.3-3.6,2-5.3C38,54.6,41,54.2,44,53.9L44,53.9z"/>
					</g>
				</g>
			</g>
		</g>
	</g>
	<polygon class="st16" points="55.8,90.5 63.6,84.7 53.1,84.7 	"/>
	
		<linearGradient id="SVGID_00000089560644442655287500000011842786757711540624_" gradientUnits="userSpaceOnUse" x1="32.4437" y1="1072.0013" x2="49.8552" y2="1041.8439" gradientTransform="matrix(1 0 0 1 0 -978)">
		<stop  offset="1.095403e-03" style="stop-color:#4A5A7C"/>
		<stop  offset="0.7914" style="stop-color:#A3B4D8"/>
	</linearGradient>
	<path style="fill:url(#SVGID_00000089560644442655287500000011842786757711540624_);" d="M54.9,90.8H27.3c-1,0-1.8-0.8-1.8-1.8v-20
		c0-1,0.8-1.8,1.8-1.8h27.6c1,0,1.8,0.8,1.8,1.8v20C56.8,89.9,56,90.8,54.9,90.8z"/>
	<circle class="st18" cx="41.2" cy="78.8" r="2.6"/>
	<g>
		<g>
			<polygon class="st19" points="37,5.7 22.9,5.7 20.5,8.1 20.5,29.6 37,29.6 			"/>
			<polygon class="st20" points="20.5,8.1 22.9,5.7 22.9,8.1 			"/>
		</g>
		<rect x="21.3" y="9.9" class="st21" width="14.9" height="0.5"/>
		<rect x="21.3" y="11" class="st21" width="11.4" height="0.5"/>
		<rect x="21.3" y="12" class="st21" width="14.9" height="0.5"/>
		<rect x="21.3" y="14.1" class="st21" width="14.9" height="0.5"/>
		<rect x="21.3" y="15.1" class="st21" width="14.9" height="0.5"/>
		<rect x="21.3" y="16" class="st21" width="9.1" height="0.5"/>
		<rect x="21.3" y="18.4" class="st21" width="14.9" height="0.5"/>
		<rect x="21.3" y="19.4" class="st21" width="11.4" height="0.5"/>
		<rect x="21.3" y="20.4" class="st21" width="9.6" height="0.5"/>
		<rect x="21.3" y="21.4" class="st21" width="14.9" height="0.5"/>
		<rect x="21.3" y="22.5" class="st21" width="11.4" height="0.5"/>
		<rect x="21.3" y="23.5" class="st21" width="14.9" height="0.5"/>
		<rect x="27.7" y="26.2" class="st21" width="8.5" height="0.5"/>
	</g>
	<g>
		<path class="st21" d="M35.3,8.9h-0.4V6.3h-0.3c-0.4,0-0.6,0.1-0.6,0.1l0,0V6.2h2.4v0.2l0,0c0,0-0.2-0.1-0.6-0.1h-0.3L35.3,8.9
			L35.3,8.9z"/>
	</g>
	
		<linearGradient id="SVGID_00000056409822711334201920000002550210832220079256_" gradientUnits="userSpaceOnUse" x1="55.8" y1="995.85" x2="77.8" y2="995.85" gradientTransform="matrix(1 0 0 1 0 -978)">
		<stop  offset="0.3935" style="stop-color:#A8E1FF"/>
		<stop  offset="1" style="stop-color:#DCFDFE"/>
	</linearGradient>
	<rect x="55.8" y="9.4" style="fill:url(#SVGID_00000056409822711334201920000002550210832220079256_);" width="22" height="17"/>
	<line class="st23" x1="58.6" y1="10.2" x2="58.6" y2="24.8"/>
	<line class="st23" x1="74.2" y1="10.2" x2="74.2" y2="24.8"/>
	<line class="st23" x1="61.7" y1="10.2" x2="61.7" y2="24.8"/>
	<line class="st23" x1="64.9" y1="10.2" x2="64.9" y2="24.8"/>
	<line class="st23" x1="68" y1="10.2" x2="68" y2="24.8"/>
	<line class="st23" x1="71.1" y1="10.2" x2="71.1" y2="24.8"/>
	<line class="st23" x1="56" y1="24.8" x2="76.9" y2="24.8"/>
	<line class="st23" x1="56" y1="12.7" x2="76.9" y2="12.7"/>
	<line class="st23" x1="56" y1="15.1" x2="76.9" y2="15.1"/>
	<line class="st23" x1="56" y1="17.5" x2="76.9" y2="17.5"/>
	<line class="st23" x1="56" y1="22.2" x2="76.9" y2="22.2"/>
	<line class="st23" x1="56" y1="19.9" x2="76.9" y2="19.9"/>
	<circle class="st24" cx="58.7" cy="22.4" r="0.3"/>
	<circle class="st24" cx="61.7" cy="19.9" r="0.3"/>
	<circle class="st24" cx="64.9" cy="22.4" r="0.3"/>
	<circle class="st24" cx="68" cy="22.4" r="0.3"/>
	<circle class="st24" cx="71" cy="21.4" r="0.3"/>
	<circle class="st24" cx="74.2" cy="20.6" r="0.3"/>
	<polyline class="st25" points="58.7,22.4 61.7,19.9 64.9,22.4 68,22.4 71,21.4 74.2,20.6 	"/>
	<circle class="st26" cx="58.7" cy="19.9" r="0.3"/>
	<circle class="st26" cx="61.7" cy="17.5" r="0.3"/>
	<circle class="st26" cx="64.9" cy="16.1" r="0.3"/>
	<circle class="st26" cx="68" cy="15.1" r="0.3"/>
	<circle class="st26" cx="71.2" cy="12.7" r="0.3"/>
	<polyline class="st27" points="58.7,19.9 61.7,17.5 64.9,16.1 68,15.1 71.2,12.7 74.2,10.8 	"/>
	<g>
		<circle class="st28" cx="85.9" cy="39.9" r="9.6"/>
		<path class="st29" d="M85.9,39.9v-4V39.9z"/>
		<line class="st30" x1="92.7" y1="39.9" x2="85.8" y2="39.9"/>
		<path class="st31" d="M85.9,32v-1.5V32z"/>
		<path class="st31" d="M85.9,49.5v-1.4V49.5z"/>
		<path class="st31" d="M95.5,39.9h-1.4H95.5z"/>
		<path class="st31" d="M77.8,39.9h-1.4H77.8z"/>
	</g>
	<g>
		<g>
			<polygon class="st19" points="96,54 84,54 82,55.9 82,72.9 96,72.9 			"/>
			<polygon class="st20" points="82,55.9 84,54 84,55.9 			"/>
		</g>
		<rect x="82.6" y="57.4" class="st21" width="12.7" height="0.4"/>
		<rect x="82.6" y="58.2" class="st21" width="9.8" height="0.4"/>
		<rect x="82.6" y="59" class="st21" width="12.7" height="0.4"/>
		<rect x="82.6" y="60.6" class="st21" width="12.7" height="0.4"/>
		<rect x="82.6" y="61.4" class="st21" width="12.7" height="0.4"/>
		<rect x="82.6" y="62.2" class="st21" width="7.7" height="0.4"/>
		<rect x="82.6" y="64.1" class="st21" width="12.7" height="0.4"/>
		<rect x="82.6" y="64.8" class="st21" width="9.8" height="0.4"/>
		<rect x="82.6" y="65.7" class="st21" width="8.2" height="0.4"/>
		<rect x="82.6" y="66.5" class="st21" width="12.7" height="0.4"/>
		<rect x="82.6" y="67.2" class="st21" width="9.8" height="0.4"/>
		<rect x="82.6" y="68.2" class="st21" width="12.7" height="0.4"/>
		<rect x="88.1" y="70.3" class="st21" width="7.3" height="0.4"/>
	</g>
	<path class="st28" d="M96.5,64.1c0,2.8,0,5.5,0,8.2c0,0.7-0.5,1.2-1.2,1.2H79.1c-0.7,0-1.2-0.5-1.2-1.2v-9.6c0-0.7,0.5-1.2,1.2-1.2
		h6c0,0.8,0,1.7,0,2.5C88.8,64.1,92.6,64.1,96.5,64.1z"/>
	<g>
		<rect x="3.5" y="57.8" class="st19" width="12" height="18.8"/>
		<rect x="4.4" y="59.8" class="st21" width="10" height="0.4"/>
		<rect x="4.4" y="60.6" class="st21" width="7.7" height="0.4"/>
		<rect x="4.4" y="61.4" class="st21" width="10" height="0.4"/>
		<rect x="4.4" y="62.9" class="st21" width="10" height="0.4"/>
		<rect x="4.4" y="63.8" class="st21" width="10" height="0.4"/>
		<rect x="4.4" y="64.4" class="st21" width="6.1" height="0.4"/>
		<rect x="4.4" y="66.2" class="st21" width="10" height="0.4"/>
		<rect x="4.4" y="66.9" class="st21" width="7.7" height="0.4"/>
		<rect x="4.4" y="67.8" class="st21" width="6.4" height="0.4"/>
		<rect x="4.4" y="68.4" class="st21" width="10" height="0.4"/>
		<rect x="4.4" y="69.2" class="st21" width="7.7" height="0.4"/>
		<rect x="4.4" y="70" class="st21" width="10" height="0.4"/>
	</g>
	<g>
		<rect x="7.4" y="54.1" class="st28" width="12" height="18.8"/>
		<rect x="8.3" y="56.2" class="st21" width="10" height="0.4"/>
		<rect x="8.3" y="57" class="st21" width="7.7" height="0.4"/>
		<rect x="8.3" y="57.8" class="st21" width="10" height="0.4"/>
		<rect x="8.3" y="59.3" class="st21" width="10" height="0.4"/>
		<rect x="8.3" y="60.1" class="st21" width="10" height="0.4"/>
		<rect x="8.3" y="60.8" class="st21" width="6.1" height="0.4"/>
		<rect x="8.3" y="62.5" class="st21" width="10" height="0.4"/>
		<rect x="8.3" y="63.3" class="st21" width="7.7" height="0.4"/>
		<rect x="8.3" y="64.2" class="st21" width="6.4" height="0.4"/>
		<rect x="8.3" y="64.8" class="st21" width="10" height="0.4"/>
		<rect x="8.3" y="65.7" class="st21" width="7.7" height="0.4"/>
	</g>
	<rect x="10.3" y="70.4" class="st21" width="10" height="0.4"/>
	<g>
		
			<linearGradient id="SVGID_00000131367647454179814850000002383440711801100976_" gradientUnits="userSpaceOnUse" x1="6.18" y1="1019.8" x2="26.04" y2="1019.8" gradientTransform="matrix(1 0 0 1 0 -978)">
			<stop  offset="1.978731e-03" style="stop-color:#27B0FC"/>
			<stop  offset="1" style="stop-color:#63CEF9"/>
		</linearGradient>
		
			<rect x="6.2" y="35.5" style="fill:url(#SVGID_00000131367647454179814850000002383440711801100976_);" width="19.9" height="12.5"/>
		<polygon class="st33" points="6.2,35.5 16.1,44.4 26,35.5 		"/>
	</g>
	<rect x="55.1" y="8.8" class="st34" width="22.9" height="17.3"/>
</g>
</svg>
