<?xml version="1.0" encoding="utf-8"?>
<!-- Generator: Adobe Illustrator 26.0.1, SVG Export Plug-In . SVG Version: 6.00 Build 0)  -->
<svg version="1.1" id="Layer_1" xmlns="http://www.w3.org/2000/svg" xmlns:xlink="http://www.w3.org/1999/xlink" x="0px" y="0px"
	 viewBox="0 0 100 100" style="enable-background:new 0 0 100 100;" xml:space="preserve">
<style type="text/css">
	.st0{fill:#7F90B1;}
	.st1{fill:url(#SVGID_1_);}
	.st2{fill:none;stroke:#FFFFFF;stroke-width:0.2;stroke-miterlimit:10;}
	.st3{fill:#FF5E33;}
	.st4{fill:none;stroke:#FF5E33;stroke-width:0.5;stroke-miterlimit:10;}
	.st5{fill:#48AE52;}
	.st6{fill:none;stroke:#48AE52;stroke-width:0.5;stroke-miterlimit:10;}
	.st7{fill:url(#SVGID_00000041985094148032540310000007510724719854181264_);}
	.st8{fill:url(#SVGID_00000176741086951530627830000012122315081624694145_);}
	.st9{fill:none;stroke:#29AAE1;stroke-width:0.5;stroke-miterlimit:10;}
	.st10{fill:#DBFCFD;}
	.st11{fill:url(#SVGID_00000042722734182518636930000001764575790623422614_);}
	.st12{fill:url(#SVGID_00000151534148921105806680000003688049655690523273_);}
	.st13{fill:url(#SVGID_00000129193010250351339190000018331433146841507484_);}
	.st14{fill:url(#SVGID_00000081648421740960989340000011566714157589201836_);}
	.st15{fill:#D71F1F;}
	.st16{clip-path:url(#SVGID_00000070802127611473288980000003955818453036686514_);fill:#BE1B1E;}
	.st17{clip-path:url(#SVGID_00000058582909915008953060000001970887795665642668_);fill:#BE1B1E;}
	.st18{clip-path:url(#SVGID_00000106830869714334175630000013506132009870943388_);fill:#BE1B1E;}
	.st19{clip-path:url(#SVGID_00000170257547921561462560000005017619698426034081_);fill:#F42B2A;}
	.st20{fill:#FFBA9F;}
	.st21{fill:#336DFF;}
	.st22{fill:#011435;}
	.st23{fill:#242528;}
	.st24{fill:#FFFFFF;}
	.st25{fill:none;stroke:#58595B;stroke-width:5.000000e-02;stroke-miterlimit:10;}
	.st26{fill:#414042;}
	.st27{fill:none;stroke:#414042;stroke-width:0.4;stroke-miterlimit:10;}
</style>
<g>
	<path class="st0" d="M57.4,52.1H5.6c-0.9,0-1.6-0.7-1.6-1.6V9.6C4,8.7,4.7,8,5.6,8h51.7c1,0,1.7,0.7,1.7,1.6v40.8
		C59,51.4,58.3,52.1,57.4,52.1z"/>
	
		<linearGradient id="SVGID_1_" gradientUnits="userSpaceOnUse" x1="16.7485" y1="982.8461" x2="45.841" y2="1033.2357" gradientTransform="matrix(1 0 0 1 0 -978)">
		<stop  offset="0.3935" style="stop-color:#A7E0FF"/>
		<stop  offset="1" style="stop-color:#DBFCFD"/>
	</linearGradient>
	<path class="st1" d="M54.9,49.8H7.7c-0.8,0-1.4-0.6-1.4-1.4V11.7c0-0.8,0.6-1.4,1.4-1.4h47.2c0.8,0,1.4,0.6,1.4,1.4v36.6
		C56.3,49.1,55.7,49.8,54.9,49.8z"/>
	<line class="st2" x1="12.5" y1="11.3" x2="12.5" y2="48.5"/>
	<line class="st2" x1="49.9" y1="11.3" x2="49.9" y2="48.5"/>
	<line class="st2" x1="20" y1="11.3" x2="20" y2="48.5"/>
	<line class="st2" x1="27.5" y1="11.3" x2="27.5" y2="48.5"/>
	<line class="st2" x1="34.9" y1="11.3" x2="34.9" y2="48.5"/>
	<line class="st2" x1="42.4" y1="11.3" x2="42.4" y2="48.5"/>
	<line class="st2" x1="6.2" y1="48.5" x2="56.3" y2="48.5"/>
	<line class="st2" x1="6.2" y1="17.7" x2="56.3" y2="17.7"/>
	<line class="st2" x1="6.2" y1="23.9" x2="56.3" y2="23.9"/>
	<line class="st2" x1="6.2" y1="30" x2="56.3" y2="30"/>
	<line class="st2" x1="6.2" y1="42.3" x2="56.3" y2="42.3"/>
	<line class="st2" x1="6.2" y1="36.2" x2="56.3" y2="36.2"/>
	<ellipse class="st3" cx="12.7" cy="42.4" rx="0.7" ry="0.7"/>
	<ellipse class="st3" cx="19.9" cy="36.2" rx="0.7" ry="0.7"/>
	<ellipse class="st3" cx="27.5" cy="42.4" rx="0.7" ry="0.7"/>
	<ellipse class="st3" cx="35.1" cy="42.4" rx="0.7" ry="0.7"/>
	<ellipse class="st3" cx="42.2" cy="40" rx="0.7" ry="0.7"/>
	<ellipse class="st3" cx="49.8" cy="38.1" rx="0.7" ry="0.7"/>
	<polyline class="st4" points="12.7,42.4 19.9,36.2 27.5,42.4 35.1,42.4 42.2,40 49.8,38.1 	"/>
	<ellipse class="st5" cx="12.7" cy="36.2" rx="0.7" ry="0.7"/>
	<ellipse class="st5" cx="19.9" cy="30" rx="0.7" ry="0.7"/>
	<ellipse class="st5" cx="27.5" cy="26.7" rx="0.7" ry="0.7"/>
	<ellipse class="st5" cx="35.1" cy="23.9" rx="0.7" ry="0.7"/>
	<ellipse class="st5" cx="42.7" cy="17.7" rx="0.7" ry="0.7"/>
	<polyline class="st6" points="12.7,36.2 19.9,30 27.5,26.7 35.1,23.9 42.7,17.7 49.8,13 	"/>
</g>
<g>
	
		<linearGradient id="SVGID_00000179641682139185841600000009137100060518709650_" gradientUnits="userSpaceOnUse" x1="20.3128" y1="1065.307" x2="47.6872" y2="1017.893" gradientTransform="matrix(1 0 0 1 0 -978)">
		<stop  offset="0.3935" style="stop-color:#A7E0FF"/>
		<stop  offset="1" style="stop-color:#DBFCFD"/>
	</linearGradient>
	<path style="fill:url(#SVGID_00000179641682139185841600000009137100060518709650_);" d="M56.5,82h-45c-0.8,0-1.5-0.7-1.5-1.5V46.7
		c0-0.8,0.7-1.5,1.5-1.5h45c0.8,0,1.5,0.7,1.5,1.5v33.8C58,81.3,57.3,82,56.5,82z"/>
	
		<linearGradient id="SVGID_00000060024028523209106820000000445117967646067333_" gradientUnits="userSpaceOnUse" x1="10" y1="1026.2" x2="58" y2="1026.2" gradientTransform="matrix(1 0 0 1 0 -978)">
		<stop  offset="1.978731e-03" style="stop-color:#27B0FC"/>
		<stop  offset="1" style="stop-color:#63CEF9"/>
	</linearGradient>
	<polygon style="fill:url(#SVGID_00000060024028523209106820000000445117967646067333_);" points="58,51.4 10,51.4 10,45 58,45.1 	
		"/>
	<line class="st9" x1="34" y1="58.4" x2="34" y2="80.4"/>
	<polygon class="st10" points="54.3,58.5 14,58.4 14,53.5 54.3,53.5 	"/>
	<polygon class="st10" points="48.2,65.8 20.1,65.7 20,60.8 48.2,60.9 	"/>
	<polygon class="st10" points="42.7,73.1 25.5,73.1 25.5,68.2 42.7,68.2 	"/>
	<polygon class="st10" points="40.5,80.4 27.8,80.4 27.8,75.5 40.5,75.5 	"/>
	
		<linearGradient id="SVGID_00000147208734315493712750000005475942486699822488_" gradientUnits="userSpaceOnUse" x1="26.8" y1="1034.05" x2="41.16" y2="1034.05" gradientTransform="matrix(1 0 0 1 0 -978)">
		<stop  offset="1.978731e-03" style="stop-color:#27B0FC"/>
		<stop  offset="1" style="stop-color:#63CEF9"/>
	</linearGradient>
	
		<rect x="26.8" y="55.3" style="fill:url(#SVGID_00000147208734315493712750000005475942486699822488_);" width="14.4" height="1.5"/>
	
		<linearGradient id="SVGID_00000123441768111977171570000005094997293963157415_" gradientUnits="userSpaceOnUse" x1="28.54" y1="1041.35" x2="39.67" y2="1041.35" gradientTransform="matrix(1 0 0 1 0 -978)">
		<stop  offset="1.978731e-03" style="stop-color:#27B0FC"/>
		<stop  offset="1" style="stop-color:#63CEF9"/>
	</linearGradient>
	
		<rect x="28.5" y="62.6" style="fill:url(#SVGID_00000123441768111977171570000005094997293963157415_);" width="11.1" height="1.5"/>
	
		<linearGradient id="SVGID_00000104697688439447613170000008074013664449535141_" gradientUnits="userSpaceOnUse" x1="30.56" y1="1048.65" x2="37.49" y2="1048.65" gradientTransform="matrix(1 0 0 1 0 -978)">
		<stop  offset="1.978731e-03" style="stop-color:#27B0FC"/>
		<stop  offset="1" style="stop-color:#63CEF9"/>
	</linearGradient>
	
		<rect x="30.6" y="69.9" style="fill:url(#SVGID_00000104697688439447613170000008074013664449535141_);" width="6.9" height="1.5"/>
	
		<linearGradient id="SVGID_00000182516062028679807570000013944888856001636255_" gradientUnits="userSpaceOnUse" x1="32.01" y1="1055.95" x2="36.1248" y2="1055.95" gradientTransform="matrix(1 0 0 1 0 -978)">
		<stop  offset="1.978731e-03" style="stop-color:#27B0FC"/>
		<stop  offset="1" style="stop-color:#63CEF9"/>
	</linearGradient>
	<rect x="32" y="77.2" style="fill:url(#SVGID_00000182516062028679807570000013944888856001636255_);" width="4.1" height="1.5"/>
</g>
<g>
	<path class="st15" d="M66.1,28.7c0.1,3.1,1.3,4.6,1.8,6.5C69.5,40.7,64.4,48,51.6,59c-6.7,5.8-16.4,13.4-29.1,21
		c0.6,0.2,1.5,0.6,2.6,1c3.6,1.3,5.4,2,7,1.9c2.3-0.1,2.1-1.1,4-1.1c2.5,0.1,2.9,1.9,6.2,2.9c2.4,0.7,4.5,0.5,5.5,0.4
		c3.5-0.4,3.5-1.6,5.8-1.5c1.7,0.1,2,0.8,7.5,3.9c3.7,2.1,4.2,2.2,4.8,2.2c2.8,0,3.1-2.5,6.4-3.2c2.8-0.6,5.2,0.5,7.2,1.4
		c2.9,1.3,4.8,3.2,5.8,4.3c0.5-0.9,1.4-2.3,2.3-4.2c3.2-6.6,5.1-13.6,5.1-45.9c0-2.8,0-6.8-2.2-11.1c-2.3-4.4-5.9-7.4-7-8.2
		c-2-1.5-3.6-2.3-4-2.5c-2.7-1.3-5.6-2.7-8.3-1.8C67.4,20.1,66,25.3,66.1,28.7z"/>
	<g>
		<g>
			<g>
				<defs>
					<path id="SVGID_00000131358461748455766090000013736882435283452572_" d="M66.1,28.5c0,3.1,1.2,4.6,1.8,6.5
						c1.5,5.6-3.6,12.7-16.5,23.7C44.7,64.5,35,72,22.2,79.5c0.6,0.2,1.5,0.6,2.6,1c3.6,1.4,5.4,2.1,7,2c2.3-0.1,2.1-1.1,4-1
						c2.5,0.1,2.9,1.9,6.2,2.9c2.4,0.7,4.5,0.5,5.5,0.4c3.5-0.4,3.5-1.6,5.8-1.5c1.7,0.1,2,0.8,7.4,4c3.7,2.2,4.2,2.2,4.8,2.2
						c2.8,0,3.2-2.5,6.4-3.2c2.8-0.6,5.2,0.5,7.2,1.4c2.9,1.3,4.8,3.2,5.8,4.4c0.5-0.9,1.4-2.3,2.3-4.2c3.3-6.6,5.2-13.6,5.4-45.8
						c0-2.8,0-6.8-2.1-11.1c-2.2-4.5-5.9-7.4-6.9-8.2c-2-1.6-3.6-2.4-4-2.5c-2.7-1.3-5.6-2.8-8.3-1.8C67.5,19.9,66.1,25.1,66.1,28.5
						z"/>
				</defs>
				<clipPath id="SVGID_00000050639574712986753050000000124064481454627976_">
					<use xlink:href="#SVGID_00000131358461748455766090000013736882435283452572_"  style="overflow:visible;"/>
				</clipPath>
				<path style="clip-path:url(#SVGID_00000050639574712986753050000000124064481454627976_);fill:#BE1B1E;" d="M64.7,90.6
					c4.1-1.7,3.4-8.5,5.2-21.4c2.3-15.8,6.4-26.2,5.9-26.3c-0.5-0.2-3.6,11.6-10,24.9c-4.5,9.3-6.7,14-9,15.8
					c-0.7,0.6-2.2,1.7-2.1,3C55.1,89.2,61.1,92.1,64.7,90.6z"/>
			</g>
		</g>
		<g>
			<g>
				<defs>
					<path id="SVGID_00000126313927490161574860000008356409742926969263_" d="M66.1,28.5c0,3.1,1.2,4.6,1.8,6.5
						c1.5,5.6-3.6,12.7-16.5,23.7C44.7,64.5,35,72,22.2,79.5c0.6,0.2,1.5,0.6,2.6,1c3.6,1.4,5.4,2.1,7,2c2.3-0.1,2.1-1.1,4-1
						c2.5,0.1,2.9,1.9,6.2,2.9c2.4,0.7,4.5,0.5,5.5,0.4c3.5-0.4,3.5-1.6,5.8-1.5c1.7,0.1,2,0.8,7.4,4c3.7,2.2,4.2,2.2,4.8,2.2
						c2.8,0,3.2-2.5,6.4-3.2c2.8-0.6,5.2,0.5,7.2,1.4c2.9,1.3,4.8,3.2,5.8,4.4c0.5-0.9,1.4-2.3,2.3-4.2c3.3-6.6,5.2-13.6,5.4-45.8
						c0-2.8,0-6.8-2.1-11.1c-2.2-4.5-5.9-7.4-6.9-8.2c-2-1.6-3.6-2.4-4-2.5c-2.7-1.3-5.6-2.8-8.3-1.8C67.5,19.9,66.1,25.1,66.1,28.5
						z"/>
				</defs>
				<clipPath id="SVGID_00000142135103849496962630000006640280610074349199_">
					<use xlink:href="#SVGID_00000126313927490161574860000008356409742926969263_"  style="overflow:visible;"/>
				</clipPath>
				<path style="clip-path:url(#SVGID_00000142135103849496962630000006640280610074349199_);fill:#BE1B1E;" d="M42.2,83.8
					c2.2-0.8,4-2.3,8.5-9.9c3.2-5.5,6-11.2,5.7-11.3c-0.4-0.2-2.8,8.9-10.3,13.2c-3.1,1.8-6,4.1-9.1,6c-1,0.6-2,1.2-1.9,1.7
					C35.3,84.4,39.2,84.9,42.2,83.8z"/>
			</g>
		</g>
		<g>
			<g>
				<defs>
					<path id="SVGID_00000022539903149910130140000003284658561356353951_" d="M66.1,28.5c0,3.1,1.2,4.6,1.8,6.5
						c1.5,5.6-3.6,12.7-16.5,23.7C44.7,64.5,35,72,22.2,79.5c0.6,0.2,1.5,0.6,2.6,1c3.6,1.4,5.4,2.1,7,2c2.3-0.1,2.1-1.1,4-1
						c2.5,0.1,2.9,1.9,6.2,2.9c2.4,0.7,4.5,0.5,5.5,0.4c3.5-0.4,3.5-1.6,5.8-1.5c1.7,0.1,2,0.8,7.4,4c3.7,2.2,4.2,2.2,4.8,2.2
						c2.8,0,3.2-2.5,6.4-3.2c2.8-0.6,5.2,0.5,7.2,1.4c2.9,1.3,4.8,3.2,5.8,4.4c0.5-0.9,1.4-2.3,2.3-4.2c3.3-6.6,5.2-13.6,5.4-45.8
						c0-2.8,0-6.8-2.1-11.1c-2.2-4.5-5.9-7.4-6.9-8.2c-2-1.6-3.6-2.4-4-2.5c-2.7-1.3-5.6-2.8-8.3-1.8C67.5,19.9,66.1,25.1,66.1,28.5
						z"/>
				</defs>
				<clipPath id="SVGID_00000029756452853228439490000008042655206409368983_">
					<use xlink:href="#SVGID_00000022539903149910130140000003284658561356353951_"  style="overflow:visible;"/>
				</clipPath>
				<path style="clip-path:url(#SVGID_00000029756452853228439490000008042655206409368983_);fill:#BE1B1E;" d="M82.4,97.4
					c-2.6,1.1-5,2.2-6.1,1.4c-2.1-1.6,1.9-9.3,5.8-19.9C89,60,89.7,48.7,89.3,42.4c-0.6-7.9-2.3-11.7-3.6-14c-3-5.1-6.9-7.6-6.7-7.9
					c0.3-0.4,8.3,3.4,12.9,11.1c3,5.1,3.1,10.1,3.2,19.7c0.1,5.4-0.3,5.2-3,26.9c-0.7,5.9-0.4,11.9-4.2,15.6
					C87.2,94.6,85.2,96.2,82.4,97.4z"/>
			</g>
		</g>
		<g>
			<g>
				<defs>
					<path id="SVGID_00000121992042356729393710000016168188334379504271_" d="M66.1,28.5c0,3.1,1.2,4.6,1.8,6.5
						c1.5,5.6-3.6,12.7-16.5,23.7C44.7,64.5,35,72,22.2,79.5c0.6,0.2,1.5,0.6,2.6,1c3.6,1.4,5.4,2.1,7,2c2.3-0.1,2.1-1.1,4-1
						c2.5,0.1,2.9,1.9,6.2,2.9c2.4,0.7,4.5,0.5,5.5,0.4c3.5-0.4,3.5-1.6,5.8-1.5c1.7,0.1,2,0.8,7.4,4c3.7,2.2,4.2,2.2,4.8,2.2
						c2.8,0,3.2-2.5,6.4-3.2c2.8-0.6,5.2,0.5,7.2,1.4c2.9,1.3,4.8,3.2,5.8,4.4c0.5-0.9,1.4-2.3,2.3-4.2c3.3-6.6,5.2-13.6,5.4-45.8
						c0-2.8,0-6.8-2.1-11.1c-2.2-4.5-5.9-7.4-6.9-8.2c-2-1.6-3.6-2.4-4-2.5c-2.7-1.3-5.6-2.8-8.3-1.8C67.5,19.9,66.1,25.1,66.1,28.5
						z"/>
				</defs>
				<clipPath id="SVGID_00000142171657075148598460000010285630061593656492_">
					<use xlink:href="#SVGID_00000121992042356729393710000016168188334379504271_"  style="overflow:visible;"/>
				</clipPath>
				<path style="clip-path:url(#SVGID_00000142171657075148598460000010285630061593656492_);fill:#F42B2A;" d="M74.6,89
					c1.4-7,0.9-14,0.9-14c-0.5-7.7,0.3-12.7,0-12.7c-0.2,0-0.7,3.9-1.8,11.8c-0.7,5.1-0.8,6.2-1.6,8c-0.4,1-1.2,2.7-2.6,5.9
					c-1.2,2.9-1.5,3.6-1.1,4c0.8,1,4.2,0.4,5.6-1.6C74.5,89.8,74.6,89.2,74.6,89z"/>
			</g>
		</g>
	</g>
</g>
<g>
	<path class="st20" d="M68.8,15.7c-0.3,0.5,0.4,0.9,0.2,2c-0.1,0.6-0.5,1.4-1.1,2c-0.4,0.4-0.5,0.3-0.6,0.5
		c-0.3,0.7,1.1,1.4,2.3,3.1c1.1,1.6,1.1,2.9,1.6,2.8c0.5,0,0.4-1.3,1.6-3.1c0.6-0.9,1-1.6,1.9-2c0.7-0.4,1.3-0.5,1.3-0.8
		c0-0.2-0.5-0.3-1.2-0.7c0,0-0.9-0.7-1.2-1.8c-0.3-1,0.2-1.3-0.1-1.8C73,14.7,69.4,14.6,68.8,15.7z"/>
	<path class="st20" d="M71.9,17.5h-1.5c-1.6,0-2.9-1.3-2.9-2.9V9.1c0-1.6,1.3-2.9,2.9-2.9h1.5c1.6,0,2.9,1.3,2.9,2.9v5.5
		C74.8,16.2,73.5,17.5,71.9,17.5z"/>
	<path d="M67.5,11.1c-0.2-0.1-0.4-0.3-0.7-0.6c-0.1-0.1-0.3-0.5-0.4-1c-0.1-0.4,0-0.7,0-0.8c0-0.2,0.1-0.6,0.4-0.9
		c0.1-0.1,0.3-0.3,0.7-0.4c0.2,0,0.3,0,0.4,0c0,0,0.2-0.1,0.2,0c0.2,0.1,0.2,0.4,0.1,0.4c0,0,0,0-0.1,0L68,7.9
		c-0.4,1.6-0.5,2.9-0.5,2.9C67.5,11,67.5,11,67.5,11.1z"/>
	<path class="st20" d="M67.9,10.9c-0.1-0.1-0.3-0.3-0.6-0.3c-0.1,0-0.4-0.1-0.6,0.1c-0.1,0.1-0.1,0.3,0,0.6c0.1,0.5,0.3,0.9,0.4,0.9
		c0.2,0.3,0.3,0.5,0.6,0.6c0.2,0.1,0.3,0.2,0.5,0.1C68.4,12.7,68.5,11.5,67.9,10.9z"/>
	<path d="M67.3,4.2c-0.1,0.1-0.7,0.4-0.9,1c-0.1,0.4,0,0.8,0.1,1c0,0.1,0.2,0.4,0.4,0.8c0.1,0.2,0.4,0.5,1,0.7
		c0.3,0.1,0.6,0.1,1,0.1c0.2,0,0.8,0,1.7-0.3c0.5-0.2,0.6-0.2,0.9-0.2c0.4,0,0.7,0.2,0.9,0.3c0.4,0.2,0.4,0.3,0.6,0.5
		c0.6,0.4,1.6,0.4,2-0.1c0.2-0.2,0.2-0.4,0.3-0.4c0.1-0.1,0.2-0.4,0.1-0.6c-0.1-0.5-0.7-0.8-0.8-0.9c-0.4-0.2-1-0.1-1.4-0.1
		c-0.6,0.1-0.8,0.3-1.2,0.2c-0.4-0.1-0.7-0.3-0.8-0.4c-0.3-0.2-0.4-0.4-0.7-0.8c-0.2-0.2-0.5-0.5-0.9-0.7C69,4,68.1,3.8,67.3,4.2z"
		/>
	<path d="M74.6,11.2c0.2-0.1,0.5-0.2,0.8-0.4l0,0c0.8-0.6,0.9-1.5,0.9-1.5c0-0.5-0.2-1-0.3-1.1c-0.2-0.3-0.6-0.8-0.9-0.7
		c0,0-0.2,0.1-0.2,0.5c0,0-0.1-0.1-0.2-0.1c-0.2,0-0.2,0.3-0.2,0.4c0,0,0,0,0.1,0c0,0,0,0,0.1,0.1C74.6,8.6,74.6,11,74.6,11.2z"/>
	<path class="st20" d="M74.5,10.9c0.1-0.1,0.3-0.3,0.6-0.3c0.1,0,0.4-0.1,0.6,0.1c0.1,0.1,0.1,0.3,0,0.6c-0.1,0.5-0.3,0.9-0.4,0.9
		c-0.2,0.3-0.3,0.5-0.6,0.6c-0.2,0.1-0.3,0.2-0.5,0.1C73.9,12.7,73.9,11.5,74.5,10.9z"/>
	<path class="st21" d="M67.8,20.4l-6,0.6l-5.5,14c1.9,3.4,3.8,6.8,5.8,10.1l0.5-6.6l-1.5-2.6l1.2-3.2l5.1-6.3L67.8,20.4z"/>
	<path class="st21" d="M75.3,19.9c2.4,0,4.8-0.1,7.3-0.1c1.4,4.9,2.7,9.7,4.1,14.6c-2.6,3.6-5.1,7.2-7.7,10.8
		c0.2-2.4,0.4-4.8,0.6-7.1c0.6-1.4,1.3-2.8,1.9-4.2c-0.4-1.3-0.7-2.6-1.1-4c-0.2,5.7-0.5,11.5-0.8,17.3H62.1l0.2-25.3
		c-0.1-0.3-0.3-0.6-0.4-1c1.9-0.3,3.9-0.6,5.8-0.9c1.3,0.3,2.6,0.5,3.9,0.8C72.8,20.6,74,20.2,75.3,19.9z"/>
	<polygon class="st20" points="87.2,91.2 87.7,94.2 85.6,94.6 84.8,91 	"/>
	<polygon class="st20" points="61,91.3 60.8,94.3 62.9,94.5 63.4,90.9 	"/>
	<polygon class="st22" points="62.1,46.7 61.4,68.9 60.4,91.7 64.1,91.7 66.3,72.2 70.8,49.6 76.4,65.9 78.4,71.5 84.2,91.2 
		88.4,91.3 83.6,72 79.7,46.7 	"/>
	<polygon class="st23" points="60.8,94.3 58.6,96.1 50.4,99.3 62.1,99.3 63.1,99.3 63.4,96.8 63.4,94.3 	"/>
	<polygon class="st23" points="87.9,94.1 90.2,96 98.3,99.3 86.6,99.3 85.6,99.3 85.3,96.7 85.3,94.1 	"/>
	<path class="st24" d="M69.8,14.9h2.7c-0.1,0.1-0.6,0.9-1.3,0.9C70.4,15.9,69.9,15.1,69.8,14.9z"/>
	<polyline class="st25" points="71,12.2 70.6,13.3 71.2,13.9 	"/>
	<ellipse class="st26" cx="72.8" cy="11.5" rx="0.3" ry="0.2"/>
	<ellipse class="st26" cx="69.4" cy="11.5" rx="0.3" ry="0.2"/>
	<g>
		<g>
			<path class="st26" d="M62.1,29.3c0.3,4.7,0.3,9.3,0.2,14C61.8,38.6,61.8,33.9,62.1,29.3L62.1,29.3z"/>
		</g>
		<g>
			<path class="st26" d="M62.1,33.7c-0.2,0.8-0.5,1.6-0.9,2.3v-0.2c0.4,0.7,0.8,1.3,1,2c-0.5-0.6-1-1.3-1.4-1.9
				C61.2,35.1,61.5,34.4,62.1,33.7L62.1,33.7z"/>
		</g>
		<g>
			<path class="st26" d="M67.5,11.9c0.2,1.8-0.3,4.1,1.6,5c0.6,0.3,1.2,0.5,1.8,0.6C67.2,17.5,66.9,14.9,67.5,11.9L67.5,11.9z"/>
		</g>
		<g>
			<path class="st26" d="M67.6,20.1c-1.9,0.4-3.8,0.7-5.8,1L62,21c-0.4,1.1-0.9,2.2-1.3,3.3c-0.5,1.1-0.9,2.2-1.4,3.2
				c0.3-1.1,0.7-2.2,1.1-3.4c0.4-1.1,0.8-2.3,1.3-3.4C63.6,20.5,65.6,20.2,67.6,20.1L67.6,20.1z"/>
		</g>
	</g>
</g>
<polyline class="st27" points="80.3,29.9 81.4,33.9 79.9,37.2 "/>
</svg>
