<?xml version="1.0" encoding="utf-8"?>
<!-- Generator: Adobe Illustrator 26.0.1, SVG Export Plug-In . SVG Version: 6.00 Build 0)  -->
<svg version="1.1" id="Layer_1" xmlns="http://www.w3.org/2000/svg" xmlns:xlink="http://www.w3.org/1999/xlink" x="0px" y="0px"
	 viewBox="0 0 100 100" style="enable-background:new 0 0 100 100;" xml:space="preserve">
<style type="text/css">
	.st0{fill:url(#SVGID_1_);}
	.st1{fill:#FF0000;}
	.st2{fill:none;stroke:#000000;stroke-width:0.5;stroke-miterlimit:10;}
	.st3{fill:url(#SVGID_00000120551434975632781070000016583338221916031647_);}
	.st4{fill:#87B3F9;}
	.st5{fill:#A9C6FF;}
	.st6{fill:#FFBA9F;}
	.st7{fill:#242528;}
	.st8{fill:#0F52D8;}
	.st9{fill:#011435;}
	.st10{fill:#336DFF;}
	.st11{fill:url(#SVGID_00000111912170486705670740000001589385377670555828_);}
	.st12{fill:url(#SVGID_00000182501624926276146700000003014967169578576031_);}
	.st13{fill:#414042;}
</style>
<g>
	
		<linearGradient id="SVGID_1_" gradientUnits="userSpaceOnUse" x1="66.3918" y1="-918.0486" x2="97.8918" y2="-918.0486" gradientTransform="matrix(1 0 0 -1 0 -876)">
		<stop  offset="1.978731e-03" style="stop-color:#27B0FC"/>
		<stop  offset="1" style="stop-color:#63CEF9"/>
	</linearGradient>
	<path class="st0" d="M66.8,45.6c0.3-0.8,1.1-2.3,2.6-3.4c1.7-1.2,4.4-2,6.6-1.1c0.2,0.1,0.4,0.2,0.6,0.3c0.2-0.3,2.2-3.4,6.1-3.7
		c2.6-0.2,5.4,1,6.7,3c0.1,0.2,0.2,0.3,0.2,0.4c1.7-0.6,2.9-0.4,3.5-0.3c3,0.7,4.4,3.9,4.6,4.5c0.2,0.5,0.3,0.8,0.4,1.1
		c-10.5,0-21,0-31.5,0L66.8,45.6z"/>
	<path class="st1" d="M79.2,27c0,2.3,0,4.5,0,6.8c0.2,0,0.6,0,1.1,0c1,0,4-0.1,7.2-0.7c3.6-0.7,6.7-2.1,8.7-3.1
		c-0.5,0.1-1.1,0.3-1.9,0.4c-4.3,0.7-7.7-0.1-8.7-0.4c-2.3-0.6-4.3-1.6-5.8-2.5L79.2,27z"/>
	<line class="st2" x1="79.2" y1="27" x2="79.2" y2="42.2"/>
	<g>
		
			<linearGradient id="SVGID_00000108300451702500492310000005249257604571411861_" gradientUnits="userSpaceOnUse" x1="38.2346" y1="-975.5668" x2="55.5144" y2="-945.6372" gradientTransform="matrix(1 0 0 -1 0 -876)">
			<stop  offset="0.3935" style="stop-color:#A8E1FF"/>
			<stop  offset="1" style="stop-color:#DCFDFE"/>
		</linearGradient>
		<path style="fill:url(#SVGID_00000108300451702500492310000005249257604571411861_);" d="M92.4,93H28c-0.7,0-1.7-0.3-2.1-0.6
			L2.4,75c-0.8-0.6-0.4-1,0.9-1l58.3,0.2c1.2,0,2.9,0.4,3.8,1l27.3,17.1C93.2,92.7,93.1,93,92.4,93z"/>
		<g>
			<polygon class="st4" points="25.8,77.1 6.3,77 3.1,74.6 22.4,74.7 			"/>
			<polygon class="st5" points="30.1,80 10.4,79.9 7.1,77.5 26.6,77.6 			"/>
			<polygon class="st5" points="34.4,83 14.5,83 11.1,80.4 30.8,80.5 			"/>
			<polygon class="st5" points="38.8,86.1 18.7,86 15.2,83.5 35.2,83.5 			"/>
			<polygon class="st5" points="43.3,89.2 23,89.2 19.4,86.6 39.6,86.6 			"/>
			<polygon class="st5" points="48,92.4 27.4,92.4 23.8,89.7 44.2,89.8 			"/>
		</g>
		<g>
			<polygon class="st4" points="46.6,77.1 27.2,77.1 23.8,74.7 43,74.8 			"/>
			<polygon class="st5" points="51.1,80.1 31.5,80 28,77.6 47.4,77.6 			"/>
			<polygon class="st5" points="55.6,83 35.8,83 32.3,80.5 51.8,80.6 			"/>
			<polygon class="st5" points="60.2,86.1 40.3,86.1 36.6,83.5 56.4,83.6 			"/>
			<polygon class="st5" points="64.9,89.2 44.8,89.2 41,86.6 61,86.6 			"/>
			<polygon class="st5" points="69.9,92.4 49.5,92.4 45.6,89.8 65.8,89.8 			"/>
		</g>
		<g>
			<polygon class="st4" points="67.2,77.2 48,77.1 44.4,74.8 63.4,74.8 			"/>
			<polygon class="st5" points="71.9,80.1 52.5,80.1 48.8,77.6 68,77.7 			"/>
			<polygon class="st5" points="76.6,83.1 57,83.1 53.2,80.6 72.7,80.6 			"/>
			<polygon class="st5" points="81.4,86.1 61.7,86.1 57.8,83.6 77.4,83.6 			"/>
			<polygon class="st5" points="86.4,89.2 66.4,89.2 62.4,86.6 82.2,86.7 			"/>
			<polygon class="st5" points="91.5,92.4 71.3,92.4 67.3,89.8 87.3,89.8 			"/>
		</g>
	</g>
	<g>
		<path class="st6" d="M41.9,28.6c0.1,0.4,0.3,0.7,0.9,1.3c0.4,0.5,0.9,1.1,1.8,1.3c0.3,0.1,0.9,0.3,1.3,0c0.2-0.1,0.3-0.3,0.4-0.4
			c0.2-0.2,0.3-0.4,0.4-0.9c0.2-0.6,0.4-1.1,0.4-1.8c0-0.4,0-0.7,0-0.9c0-0.2-0.1-0.6-0.2-1.1c-0.1-0.4-0.3-0.7-0.4-0.9
			C45.7,24.6,41.7,26.8,41.9,28.6z"/>
		<polygon class="st6" points="47.2,28.2 47.7,29.1 46.8,29.5 		"/>
		<path class="st6" d="M42.4,29.1c-0.2,0.2,0,0.4,0,0.9c-0.1,1.2-1.3,1.4-1.3,2.2c0,0.9,1.7,1.5,2.7,1.8c0.1,0,0.3,0.1,0.4,0
			c0.2-0.2,0-0.7,0-1.3c0-1.2,1-1.5,0.9-2.2C44.9,29.4,42.8,28.6,42.4,29.1z"/>
		<path d="M41.9,29.5c-0.4-0.6-0.8-1.2-0.9-2.2c0-0.2-0.1-1.8,0.9-2.7c0.8-0.7,1.2-0.1,2.7-0.9c1-0.6,1.1-0.8,1.8-0.9
			c1-0.1,2.2,0.5,2.2,1.3c0,0.6-0.5,1.1-0.9,1.3c-0.5,0.3-0.6,0.1-1.3,0.4c-0.4,0.2-0.5,0.4-0.9,0.4c-0.5,0.1-0.5-0.1-0.9,0
			c-0.5,0.1-0.8,0.6-0.9,0.9c-0.3,0.5-0.3,0.9-0.4,0.9c-0.2,0-0.2-0.4-0.4-0.4s-0.4,0.2-0.4,0.4c-0.1,0.2,0,0.4,0,0.9
			c0.1,0.8,0,0.9,0,0.9C42.3,30,42.2,30,41.9,29.5z"/>
		<ellipse transform="matrix(0.1569 -0.9876 0.9876 0.1569 7.9488 66.111)" class="st6" cx="42.7" cy="28.4" rx="0.7" ry="0.5"/>
		<polygon class="st6" points="57.2,29 57.5,28.1 58.1,26.9 59,26.9 60.2,28 59.8,28.8 57.9,30.2 		"/>
		<g>
			<rect x="50.5" y="26.4" class="st7" width="17.2" height="1.8"/>
			<path class="st7" d="M68.1,29.1h-7.7c-0.1,0-0.2-0.1-0.2-0.2v-3.2c0-0.1,0.1-0.2,0.2-0.2h7.7c0.1,0,0.2,0.1,0.2,0.2v3.2
				C68.3,29,68.2,29.1,68.1,29.1z"/>
			<path class="st7" d="M75,30h-7.6c-0.1,0-0.2-0.1-0.2-0.2v-4.9c0-0.1,0.1-0.2,0.2-0.2H75c0.1,0,0.2,0.1,0.2,0.2v4.9
				C75.2,29.9,75.2,30,75,30z"/>
			<path class="st7" d="M50.4,28.6h-0.8c-0.1,0-0.1,0-0.1-0.1v-2.4c0-0.1,0-0.1,0.1-0.1h0.8c0.1,0,0.1,0,0.1,0.1v2.4
				C50.5,28.6,50.5,28.6,50.4,28.6z"/>
		</g>
		<polygon class="st8" points="43.2,33.5 52.6,33.5 57.3,28.9 58.8,29.5 53,37.5 43.2,36.6 		"/>
		<polygon class="st6" points="21.1,80.9 20.5,82.1 22.2,82.6 22.9,81.4 		"/>
		<path class="st6" d="M49.4,75.3c-0.1,0.6-0.3,1.2-0.4,1.8c0.6,0,1.2,0,1.8,0c0.2-0.6,0.3-1.2,0.5-1.8H49.4z"/>
		<polygon class="st9" points="53.9,59.3 41.9,48.6 33.9,51.3 29.9,62.8 20.1,81.5 23.6,81.5 34.8,65.5 39.7,55.3 49.5,61.1 
			48.6,76.2 51.7,75.7 		"/>
		<path class="st6" d="M53.9,30.4c0-0.4,0-0.9,0-1.3c0-0.3,0-0.6,0-0.9c0.3-0.3,0.6-0.6,0.9-0.9c0.6,0.1,1.2,0.3,1.8,0.4v0.9
			l-1.2,2.1C54.9,30.6,54.4,30.5,53.9,30.4z"/>
		<path class="st10" d="M41.5,31.3c1,0.7,2.1,1.5,3.1,2.2l6.2,0.9L54,30l1.7,0.4l-4,7.6l-6.2-0.9L43.2,50l-9.3,1.8
			c-0.4-0.4,4.4-18.2,4.4-18.2C39.4,32.8,40.4,32,41.5,31.3z"/>
		<path class="st7" d="M22.4,82.4c-0.6-0.1-1.3-0.2-1.9-0.3c-0.4,1.1-0.8,2.3-1.2,3.4c3.5,0,7,0,10.5,0L25,83.7
			c-0.6-0.3-1.2-0.6-1.8-0.9C23,82.7,22.6,82.6,22.4,82.4z"/>
		<path class="st7" d="M50.8,77.1c-0.6,0-1.2,0-1.8,0c-0.4,1-0.9,2.1-1.3,3.1c3.5,0,7,0,10.5,0l-4.7-1.8c-0.6-0.3-1.2-0.6-1.8-0.9
			C51.4,77.4,51.1,77.2,50.8,77.1z"/>
	</g>
	
		<linearGradient id="SVGID_00000058548472340743070240000004471034581027388337_" gradientUnits="userSpaceOnUse" x1="7.5118" y1="-888.5" x2="42.9118" y2="-888.5" gradientTransform="matrix(1 0 0 -1 0 -876)">
		<stop  offset="1.978731e-03" style="stop-color:#27B0FC"/>
		<stop  offset="1" style="stop-color:#63CEF9"/>
	</linearGradient>
	<path style="fill:url(#SVGID_00000058548472340743070240000004471034581027388337_);" d="M7.9,16.9c0.4-1,1.2-2.8,2.9-4.2
		c1.9-1.6,5-2.6,7.5-1.4c0.3,0.1,0.5,0.3,0.6,0.3c0.2-0.4,2.5-4.3,6.8-4.6c2.9-0.2,6,1.2,7.5,3.7c0.1,0.2,0.2,0.4,0.3,0.5
		c1.8-0.8,3.3-0.5,3.9-0.3c3.4,0.9,4.9,4.9,5.2,5.7c0.2,0.6,0.3,1.1,0.4,1.4c-11.8,0-23.6,0-35.4,0L7.9,16.9z"/>
	
		<linearGradient id="SVGID_00000017499787764862116840000000164032714526100155_" gradientUnits="userSpaceOnUse" x1="58.4318" y1="-928.3518" x2="70.9118" y2="-928.3518" gradientTransform="matrix(1 0 0 -1 0 -876)">
		<stop  offset="1.978731e-03" style="stop-color:#27B0FC"/>
		<stop  offset="1" style="stop-color:#63CEF9"/>
	</linearGradient>
	<path style="fill:url(#SVGID_00000017499787764862116840000000164032714526100155_);" d="M58.6,53.7c0.1-0.3,0.4-0.8,1-1.2
		c0.7-0.4,1.8-0.7,2.6-0.4c0.1,0,0.2,0.1,0.2,0.1c0.1-0.1,0.9-1.2,2.4-1.3c1-0.1,2.1,0.3,2.6,1c0,0.1,0.1,0.1,0.1,0.1
		c0.7-0.2,1.2-0.1,1.4-0.1c1.2,0.2,1.7,1.3,1.8,1.5c0.1,0.2,0.1,0.3,0.1,0.4c-4.2,0-8.3,0-12.5,0L58.6,53.7z"/>
	<circle class="st13" cx="46.5" cy="28" r="0.1"/>
	<g>
		<path class="st13" d="M54,33.6c-0.7,1.5-1.5,3-2.2,4.4c0,0.1,0,0.1-0.1,0c-2.8-0.4-5.6-0.9-8.4-1.4c2.8,0.3,5.7,0.8,8.5,1.2
			C52.1,36.8,53.3,34.9,54,33.6L54,33.6z"/>
	</g>
	<g>
		<path class="st13" d="M44.4,43.5c-0.2,2.2-0.6,4.3-1.1,6.5C43.5,47.8,43.9,45.6,44.4,43.5C44.4,43.5,43.9,45.6,44.4,43.5z"/>
	</g>
	<g>
		<path class="st13" d="M41.5,31.3c-1,0.7-2.2,1.8-3,2.3c-0.8,3.2-1.7,6.4-2.6,9.5c0.8-3.2,1.6-6.4,2.5-9.6
			C39.3,32.8,40.4,32,41.5,31.3L41.5,31.3z"/>
	</g>
</g>
</svg>
