<?xml version="1.0" encoding="utf-8"?>
<!-- Generator: Adobe Illustrator 26.0.2, SVG Export Plug-In . SVG Version: 6.00 Build 0)  -->
<svg version="1.1" id="Layer_1" xmlns="http://www.w3.org/2000/svg" xmlns:xlink="http://www.w3.org/1999/xlink" x="0px" y="0px"
	 viewBox="0 0 100 100" style="enable-background:new 0 0 100 100;" xml:space="preserve">
<style type="text/css">
	.st0{fill:url(#SVGID_1_);}
	.st1{fill:#FEC67F;}
	.st2{fill:url(#SVGID_00000103265219389393330890000007681981001382596740_);}
	.st3{fill:url(#SVGID_00000034808531914149987890000017945024492324251791_);}
	.st4{fill:url(#SVGID_00000083783921459163066350000004492713659956109697_);}
	.st5{fill:url(#SVGID_00000049214785513811765480000015142227703857121955_);}
	.st6{fill:url(#SVGID_00000074443502148007717720000008535609270007803823_);}
	.st7{fill:url(#SVGID_00000023252379145682450750000009707360967989223840_);}
	.st8{fill:url(#SVGID_00000037657041640164866560000001371842847800652434_);}
	.st9{fill:#6EC1FF;}
	.st10{fill:#F15A24;}
	.st11{fill:#FFBA9F;}
	.st12{fill:none;stroke:#58595B;stroke-width:0.05;stroke-miterlimit:10;}
	.st13{fill:#414042;}
	.st14{fill:url(#SVGID_00000116237287246679278490000017354862932842995093_);}
	.st15{fill:#020F1E;}
	.st16{fill:#021D44;}
	.st17{fill:#333333;}
	.st18{fill:#336DFF;}
	.st19{fill:#242528;}
	.st20{fill:url(#SVGID_00000173854896912476946990000016340538514208224396_);}
	.st21{fill:url(#SVGID_00000001664478568208792270000012705431963444265907_);}
</style>
<g>
	
		<linearGradient id="SVGID_1_" gradientUnits="userSpaceOnUse" x1="35.1789" y1="85.6628" x2="81.2273" y2="85.6628" gradientTransform="matrix(1 0 0 1 -3.1403 6.3261)">
		<stop  offset="0" style="stop-color:#FFC174"/>
		<stop  offset="0" style="stop-color:#F6BA6D"/>
		<stop  offset="0.7256" style="stop-color:#6A4500"/>
	</linearGradient>
	<path class="st0" d="M78.09,88.42v5.57c0,3.08-10.31,5.58-23.02,5.58c-12.72,0-23.02-2.5-23.02-5.58v-5.57
		c0-2.22,10.31-4.02,23.02-4.02S78.09,86.2,78.09,88.42z"/>
	<ellipse class="st1" cx="55.06" cy="88.48" rx="23.02" ry="4.35"/>
</g>
<g>
	
		<linearGradient id="SVGID_00000183211223113933505880000002007799941770606734_" gradientUnits="userSpaceOnUse" x1="32.654" y1="79.6596" x2="78.7024" y2="79.6596" gradientTransform="matrix(1 0 0 1 -3.1403 6.3261)">
		<stop  offset="0" style="stop-color:#FFC174"/>
		<stop  offset="0" style="stop-color:#F6BA6D"/>
		<stop  offset="0.7256" style="stop-color:#6A4500"/>
	</linearGradient>
	<path style="fill:url(#SVGID_00000183211223113933505880000002007799941770606734_);" d="M75.56,82.42v5.57
		c0,3.08-10.31,5.58-23.02,5.58s-23.02-2.5-23.02-5.58l0-5.57c0-2.22,10.31-4.02,23.02-4.02S75.56,80.2,75.56,82.42z"/>
	<ellipse class="st1" cx="52.54" cy="82.48" rx="23.02" ry="4.35"/>
</g>
<g>
	
		<linearGradient id="SVGID_00000093856882572949408130000005115183796337737890_" gradientUnits="userSpaceOnUse" x1="35.7902" y1="73.712" x2="81.8385" y2="73.712" gradientTransform="matrix(1 0 0 1 -3.1403 6.3261)">
		<stop  offset="0" style="stop-color:#FFC174"/>
		<stop  offset="0" style="stop-color:#F6BA6D"/>
		<stop  offset="0.7256" style="stop-color:#6A4500"/>
	</linearGradient>
	<path style="fill:url(#SVGID_00000093856882572949408130000005115183796337737890_);" d="M78.7,76.47v5.57
		c0,3.08-10.31,5.58-23.02,5.58c-12.72,0-23.02-2.5-23.02-5.58v-5.57c0-2.22,10.31-4.02,23.02-4.02
		C68.39,72.45,78.7,74.25,78.7,76.47z"/>
	<ellipse class="st1" cx="55.67" cy="76.53" rx="23.02" ry="4.35"/>
</g>
<g>
	
		<linearGradient id="SVGID_00000062151692378641056380000001321919116149635258_" gradientUnits="userSpaceOnUse" x1="33.9395" y1="67.1894" x2="79.9879" y2="67.1894" gradientTransform="matrix(1 0 0 1 -3.1403 6.3261)">
		<stop  offset="0" style="stop-color:#FFC174"/>
		<stop  offset="0" style="stop-color:#F6BA6D"/>
		<stop  offset="0.7256" style="stop-color:#6A4500"/>
	</linearGradient>
	<path style="fill:url(#SVGID_00000062151692378641056380000001321919116149635258_);" d="M76.85,69.95v5.57
		c0,3.08-10.31,5.58-23.02,5.58S30.8,78.6,30.8,75.52v-5.57c0-2.22,10.31-4.02,23.02-4.02C66.54,65.93,76.85,67.73,76.85,69.95z"/>
	<ellipse class="st1" cx="53.82" cy="70.01" rx="23.02" ry="4.35"/>
</g>
<g>
	
		<linearGradient id="SVGID_00000042698717842527172470000013637099045962017172_" gradientUnits="userSpaceOnUse" x1="37.0919" y1="60.7478" x2="83.1403" y2="60.7478" gradientTransform="matrix(1 0 0 1 -3.1403 6.3261)">
		<stop  offset="0" style="stop-color:#FFC174"/>
		<stop  offset="0" style="stop-color:#F6BA6D"/>
		<stop  offset="0.7256" style="stop-color:#6A4500"/>
	</linearGradient>
	<path style="fill:url(#SVGID_00000042698717842527172470000013637099045962017172_);" d="M80,63.51v5.57
		c0,3.08-10.31,5.58-23.02,5.58c-12.72,0-23.02-2.5-23.02-5.58v-5.57c0-2.22,10.31-4.02,23.02-4.02C69.69,59.49,80,61.29,80,63.51z"
		/>
	<ellipse class="st1" cx="56.97" cy="63.57" rx="23.02" ry="4.35"/>
</g>
<g>
	
		<linearGradient id="SVGID_00000143598328985464522120000004677230637003155867_" gradientUnits="userSpaceOnUse" x1="35.2465" y1="54.5267" x2="81.2949" y2="54.5267" gradientTransform="matrix(1 0 0 1 -3.1403 6.3261)">
		<stop  offset="0" style="stop-color:#FFC174"/>
		<stop  offset="0" style="stop-color:#F6BA6D"/>
		<stop  offset="0.7256" style="stop-color:#6A4500"/>
	</linearGradient>
	<path style="fill:url(#SVGID_00000143598328985464522120000004677230637003155867_);" d="M78.15,57.28v5.57
		c0,3.08-10.31,5.58-23.02,5.58c-12.72,0-23.02-2.5-23.02-5.58v-5.57c0-2.22,10.31-4.02,23.02-4.02
		C67.85,53.27,78.15,55.07,78.15,57.28z"/>
	<ellipse class="st1" cx="55.13" cy="57.35" rx="23.02" ry="4.35"/>
</g>
<linearGradient id="SVGID_00000059285704842276713890000015068726524268823953_" gradientUnits="userSpaceOnUse" x1="44.0305" y1="18.9527" x2="44.0305" y2="15.2798">
	<stop  offset="0.2901" style="stop-color:#A8E1FF"/>
	<stop  offset="0.8464" style="stop-color:#DCFDFE"/>
</linearGradient>
<ellipse style="fill:url(#SVGID_00000059285704842276713890000015068726524268823953_);" cx="44.03" cy="17.12" rx="3.74" ry="1.84"/>
<linearGradient id="SVGID_00000064348543107594434810000001007565986085164438_" gradientUnits="userSpaceOnUse" x1="73.2905" y1="7.1766" x2="73.2905" y2="38.5637">
	<stop  offset="0.2901" style="stop-color:#A8E1FF"/>
	<stop  offset="0.8464" style="stop-color:#DCFDFE"/>
</linearGradient>
<path style="fill:url(#SVGID_00000064348543107594434810000001007565986085164438_);" d="M77.8,8.74c1.01-0.46,7.21-3.17,13.55-0.18
	c1.04,0.49,6.6,3.12,7.74,8.8c0.41,2.03,0.12,3.8-0.18,4.93c0.06,1.14,0.2,6.43-3.69,10.38c-2.77,2.81-6.06,3.39-8.8,3.87
	c-1.97,0.35-6.6,1.16-10.38-1.41c-0.3-0.21-0.54-0.4-0.7-0.53C74,35.62,71.87,36.97,69,37.77c-1.22,0.34-9.67,2.59-15.31-2.46
	c-0.34-0.31-4.89-4.49-4.05-8.97c0.06-0.29,0.12-0.54,0.18-0.7c-0.52-0.38-1.75-1.4-2.29-3.17c-0.52-1.71-0.1-3.14,0.18-4.05
	c1.26-4.12,5.12-6,5.45-6.16c4.28-2.01,8.35-0.28,8.97,0c0.17-0.18,0.4-0.42,0.7-0.7c1.73-1.63,3.37-2.48,3.69-2.64
	c0.75-0.38,2.37-1.18,4.57-1.41C74.14,7.2,76.57,8.14,77.8,8.74z"/>
<rect x="86.23" y="12.96" class="st9" width="4.06" height="18.94"/>
<rect x="80.48" y="16.75" class="st9" width="4.06" height="15.15"/>
<rect x="74.73" y="20.32" class="st9" width="4.06" height="11.59"/>
<rect x="68.98" y="23.44" class="st9" width="4.06" height="8.47"/>
<rect x="63.24" y="27" class="st9" width="4.06" height="4.9"/>
<rect x="57.49" y="30.12" class="st9" width="4.06" height="1.78"/>
<g>
	<polygon class="st10" points="57.48,22.9 89.48,9.85 57.61,25.06 	"/>
	<polygon class="st10" points="87.91,8.46 89.53,11.94 90.91,9.19 	"/>
</g>
<path class="st11" d="M29.09,13.08c-0.33,0.54,0.32,0.96,0.02,2.14c-0.16,0.64-0.59,1.44-1.28,2.02c-0.4,0.34-0.51,0.29-0.6,0.48
	c-0.34,0.72,1,1.58,1.99,3.39c0.98,1.79,0.85,3.07,1.32,3.1c0.48,0.02,0.51-1.31,1.91-3.13c0.68-0.88,1.18-1.53,2.09-1.95
	c0.68-0.31,1.33-0.38,1.35-0.67c0.02-0.26-0.49-0.34-1.08-0.88c-0.04-0.04-0.87-0.83-1.08-1.97c-0.19-1.02,0.31-1.3,0.1-1.87
	C33.32,12.39,29.77,11.99,29.09,13.08z"/>
<path class="st11" d="M31.94,15.23l-1.43-0.13c-1.64-0.15-2.84-1.59-2.69-3.23L28.35,6c0.15-1.64,1.59-2.84,3.23-2.69l1.43,0.13
	c1.64,0.15,2.84,1.59,2.69,3.23l-0.53,5.87C35.02,14.17,33.58,15.38,31.94,15.23z"/>
<path d="M28.16,8.16c-0.18-0.13-0.43-0.35-0.63-0.68c-0.05-0.09-0.3-0.51-0.34-1.11c-0.03-0.41,0.05-0.71,0.07-0.79
	c0.05-0.19,0.16-0.59,0.49-0.91c0.11-0.11,0.35-0.34,0.69-0.36c0.15-0.01,0.28,0.02,0.36,0.05c0.03-0.01,0.15-0.05,0.25,0.01
	c0.18,0.11,0.12,0.45,0.05,0.48c-0.02,0.01-0.03-0.01-0.06,0c-0.05,0.01-0.07,0.07-0.08,0.1c-0.59,1.64-0.77,3-0.77,3
	C28.18,8.02,28.17,8.1,28.16,8.16z"/>
<path class="st11" d="M28.56,7.96c-0.06-0.07-0.25-0.3-0.58-0.38c-0.1-0.03-0.42-0.11-0.59,0.06c-0.11,0.11-0.1,0.28-0.07,0.58
	c0.05,0.53,0.23,0.91,0.27,1c0.14,0.29,0.24,0.5,0.49,0.67c0.14,0.1,0.33,0.22,0.49,0.17C28.98,9.92,29.13,8.63,28.56,7.96z"/>
<path d="M28.67,1.03c-0.13,0.06-0.76,0.35-0.98,1.01c-0.14,0.42-0.06,0.8-0.01,1.05c0.03,0.14,0.11,0.49,0.36,0.87
	c0.12,0.18,0.39,0.59,0.91,0.84c0.33,0.16,0.6,0.18,0.96,0.22c0.19,0.02,0.85,0.07,1.73-0.13c0.5-0.11,0.62-0.21,0.94-0.17
	c0.4,0.05,0.71,0.26,0.85,0.36c0.35,0.25,0.33,0.38,0.59,0.58c0.57,0.44,1.54,0.52,2.02,0.1c0.17-0.15,0.29-0.38,0.33-0.45
	c0.08-0.14,0.2-0.38,0.2-0.64c0-0.54-0.59-0.92-0.69-0.98c-0.52-0.34-1.11-0.31-1.47-0.29c-0.64,0.03-0.78,0.22-1.21,0.11
	c-0.39-0.1-0.66-0.35-0.81-0.49c-0.31-0.29-0.35-0.47-0.66-0.88c-0.17-0.23-0.45-0.59-0.81-0.85C30.37,0.91,29.47,0.66,28.67,1.03z"
	/>
<path d="M35.27,8.89c0.21-0.04,0.51-0.13,0.8-0.32c0,0,0.01-0.01,0.03-0.02c0.85-0.58,0.99-1.44,0.99-1.44
	c0.09-0.56-0.1-1.01-0.17-1.16c-0.17-0.35-0.55-0.86-0.82-0.78c-0.04,0.01-0.21,0.08-0.27,0.53c-0.03-0.02-0.13-0.09-0.24-0.07
	c-0.2,0.03-0.25,0.31-0.19,0.36c0.02,0.01,0.03,0,0.06,0.02c0,0,0.04,0.03,0.04,0.1C35.52,6.23,35.29,8.68,35.27,8.89z"/>
<path class="st11" d="M35.19,8.56c0.07-0.06,0.3-0.25,0.64-0.27c0.1-0.01,0.43-0.03,0.57,0.16c0.09,0.13,0.05,0.29-0.04,0.58
	c-0.15,0.52-0.39,0.85-0.45,0.94c-0.19,0.26-0.33,0.45-0.6,0.58c-0.16,0.07-0.37,0.16-0.51,0.08C34.44,10.41,34.52,9.12,35.19,8.56z
	"/>
<polyline class="st12" points="31.54,9.6 31.05,10.7 31.57,11.42 "/>
<circle class="st13" cx="33.38" cy="9.09" r="0.26"/>
<circle class="st13" cx="30.07" cy="8.8" r="0.26"/>
<polygon class="st11" points="20.44,86.22 21.67,89.13 23.64,88.39 22.5,84.78 "/>
<path class="st11" d="M11.97,90.94c-0.52,1.23-1.03,2.46-1.55,3.69c0.9,0,1.8,0,2.71,0c0.44-1.12,0.89-2.24,1.33-3.36L11.97,90.94z"
	/>
<g>
	
		<linearGradient id="SVGID_00000066512280404572019870000007493875174385019274_" gradientUnits="userSpaceOnUse" x1="33.7743" y1="48.1028" x2="79.8226" y2="48.1028" gradientTransform="matrix(1 0 0 1 -3.1403 6.3261)">
		<stop  offset="0" style="stop-color:#FFC174"/>
		<stop  offset="0" style="stop-color:#F6BA6D"/>
		<stop  offset="0.7256" style="stop-color:#6A4500"/>
	</linearGradient>
	<path style="fill:url(#SVGID_00000066512280404572019870000007493875174385019274_);" d="M76.68,50.86v5.57
		c0,3.08-10.31,5.58-23.02,5.58c-12.72,0-23.02-2.5-23.02-5.58l0-5.57c0-2.22,10.31-4.02,23.02-4.02
		C66.37,46.84,76.68,48.64,76.68,50.86z"/>
	<ellipse class="st1" cx="53.66" cy="50.92" rx="23.02" ry="4.35"/>
</g>
<path class="st15" d="M19.51,43.77c-1.55,5.93-3.09,11.86-4.64,17.79l5.03,26.1l4.06-0.97l-1.74-24.36l8.51-18.39
	c-2.58-1.15-5.16-2.3-7.73-3.46C21.83,41.58,20.67,42.68,19.51,43.77z"/>
<path class="st16" d="M26.66,42.81C21.44,58.99,16.22,75.16,11,91.34l3.67,0.97c6.9-15.53,13.79-31.07,20.69-46.6
	C32.47,44.74,29.57,43.77,26.66,42.81z"/>
<g>
	<path class="st11" d="M20.19,30.34c-0.97-0.13-1.93-0.26-2.9-0.39l-0.35,1.7l0.35,2.16l2.8-0.68
		C20.12,32.21,20.16,31.27,20.19,30.34z"/>
	<g>
		<path class="st17" d="M20.19,30.34c-1.01-0.1-1.97-0.17-2.91-0.28l0.12-0.09c-0.09,0.5-0.23,1.35-0.32,1.66
			c0.12,0.72,0.25,1.44,0.36,2.16l-0.18-0.12c0.94-0.21,1.87-0.45,2.81-0.64l-0.08,0.1C20.03,32.23,20.12,31.3,20.19,30.34
			L20.19,30.34z M20.19,30.34c0,0.93,0.03,1.9,0.01,2.89c-1,0.28-2.02,0.51-3.02,0.77c-0.14-0.78-0.25-1.56-0.37-2.35
			c0.13-0.61,0.26-1.22,0.4-1.82C18.22,29.98,19.23,30.17,20.19,30.34L20.19,30.34z"/>
	</g>
</g>
<path class="st18" d="M34.79,17.67c2.45,0.9,4.9,1.8,7.35,2.71l-3.87,14.31h-1.73l-1.26,10.95l-15.95-1.28l2.13-11.21h-1.35l0-0.83
	l0.19-12.51c2.38-0.77,4.77-1.55,7.15-2.32c1.16,1.74,2.32,3.48,3.48,5.22C32.21,21.02,33.5,19.35,34.79,17.67z"/>
<path class="st18" d="M27.83,24.44c1.61-2.2,3.22-4.41,4.83-6.61l-1.44-1.31c-1.91,1.68-3.81,3.35-5.72,5.03
	C26.28,22.5,27.05,23.47,27.83,24.44z"/>
<g>
	<path class="st11" d="M31.02,16.8c0-0.38,0-0.75,0-1.13v-2.54c0.13,0.09,0.27,0.22,0.39,0.38c0.54,0.72,0.35,1.62,0.3,1.83
		c2.6-2.34,4.7-3.75,4.92-3.77c0.25-0.02,0.49-0.01,0.49-0.01c0.04,0,0.07,0,0.09,0.01c-0.47,0.35-1,0.79-1.55,1.35
		c-0.58,0.6-1.02,1.18-1.37,1.69c0.26,0.71,0.51,1.42,0.77,2.13l0.26,1.03l-2.85,0.44C31.99,17.74,31.5,17.27,31.02,16.8z"/>
	<path class="st17" d="M31.02,16.8l-0.08-3.67l0-0.19c0.77,0.6,1.11,1.47,0.86,2.43c0,0-0.16-0.1-0.16-0.1
		c1.48-1.32,2.99-2.64,4.67-3.71c0.37-0.24,0.83-0.12,1.26-0.1c0,0-0.27,0.24-0.27,0.24l-1.58,1.37c-0.49,0.5-0.93,1.04-1.33,1.62
		l0.01-0.1c0,0.01,0.76,2.13,0.76,2.14c0,0,0.26,1.03,0.26,1.03l0.02,0.1c-0.99,0.13-2.01,0.33-2.99,0.4
		C32.45,18.25,31.02,16.8,31.02,16.8L31.02,16.8z M31.02,16.8l1.5,1.38c0.73-0.2,1.92-0.33,2.8-0.49c0,0-0.07,0.11-0.07,0.11
		c-0.16-0.81-0.77-2.37-1.06-3.14c-0.02-0.06-0.02-0.05,0.01-0.1c0.64-1.09,1.96-2.28,2.92-3.09c0,0,0.08,0.27,0.08,0.27
		c-0.15-0.01-0.45-0.01-0.57,0.01c-1.76,1.01-3.31,2.37-4.85,3.69c0,0-0.23,0.2-0.23,0.2c0.28-0.85,0.19-1.86-0.57-2.43
		c0,0,0.12-0.06,0.12-0.06L31.02,16.8L31.02,16.8z"/>
</g>
<polygon class="st19" points="10.54,94.32 8.3,96.25 0.13,99.63 11.9,99.53 12.86,99.52 13.21,96.91 13.18,94.3 "/>
<polygon class="st19" points="21.67,89.13 20.47,91.83 14.55,98.39 25.14,93.25 26,92.83 25.19,90.32 24.05,87.97 "/>
<g>
	<path class="st17" d="M30.65,12.83c0.82,0,1.5-0.09,2.3-0.29C32.36,13.12,31.35,13.25,30.65,12.83L30.65,12.83z"/>
</g>
<linearGradient id="SVGID_00000161598467601264387700000004001588287848195200_" gradientUnits="userSpaceOnUse" x1="38.9404" y1="14.0098" x2="38.9404" y2="11.8553">
	<stop  offset="0.3935" style="stop-color:#A8E1FF"/>
	<stop  offset="1" style="stop-color:#DCFDFE"/>
</linearGradient>
<ellipse style="fill:url(#SVGID_00000161598467601264387700000004001588287848195200_);" cx="38.94" cy="12.93" rx="1.71" ry="1.08"/>
<g>
	<path class="st17" d="M28.12,9.45c0,1.11-0.23,2.29-0.02,3.37c0.25,1.09,1.25,1.83,2.15,2.43C27.39,14.2,27.46,12,28.12,9.45
		L28.12,9.45z"/>
</g>
<g>
	<path class="st17" d="M20.19,27.58c0.01,1.86,0.03,3.71,0,5.57l-0.08-0.09l0.87,0.09l-0.09,0.04c3.79-5.05,7.64-10.05,11.6-14.96
		c-3.76,5.08-7.55,10.27-11.53,15.12c0,0-0.87-0.1-0.87-0.1L20,33.22C20.03,31.34,20.11,29.46,20.19,27.58L20.19,27.58z"/>
</g>
<g>
	<path class="st17" d="M24.63,22.6c1.65-1.82,3.43-3.49,5.36-5.01C28.35,19.41,26.56,21.08,24.63,22.6L24.63,22.6z"/>
</g>
<g>
	<path class="st17" d="M21.44,33.14c5.62,0.4,11.23,0.88,16.83,1.41c0,0-0.14,0.1-0.14,0.1c1.1-4.02,2.15-8.05,3.32-12.05
		c-0.96,4.06-2.03,8.08-3.06,12.12c-0.04,0.13,0,0.11-0.14,0.1C32.65,34.32,27.04,33.77,21.44,33.14L21.44,33.14z"/>
</g>
<g>
	<path class="st17" d="M23.86,30.72c3.83-0.15,7.67-0.17,11.5-0.13l-0.13,0.11c0.2-1.66,0.42-3.33,0.66-4.98
		c-0.11,1.71-0.26,3.42-0.42,5.13C31.61,30.89,27.73,30.88,23.86,30.72L23.86,30.72z"/>
</g>
<g>
	<path class="st17" d="M24.46,18.44c-1.35,0.56-2.74,1.03-4.13,1.49l0.1-0.14c-0.01,1.55-0.02,3.09-0.15,4.64
		c-0.13-1.55-0.14-3.09-0.15-4.64l0-0.11C21.57,19.24,22.99,18.79,24.46,18.44L24.46,18.44z"/>
</g>
<g>
	<path class="st17" d="M14.11,92.16c-0.12,0.79-0.43,1.51-0.92,2.14C13.3,93.51,13.62,92.79,14.11,92.16L14.11,92.16z"/>
</g>
<g>
	<path class="st17" d="M23.16,86.89c0.35,0.44,0.51,0.95,0.48,1.51C23.29,87.96,23.13,87.45,23.16,86.89L23.16,86.89z"/>
</g>
<g>
	
		<linearGradient id="SVGID_00000072962493182592660970000000397105551769126304_" gradientUnits="userSpaceOnUse" x1="71.721" y1="36.0539" x2="117.7693" y2="36.0539" gradientTransform="matrix(0.188 0.9822 -0.9822 0.188 104.042 -23.6439)">
		<stop  offset="0" style="stop-color:#FFC174"/>
		<stop  offset="0" style="stop-color:#F6BA6D"/>
		<stop  offset="0.7256" style="stop-color:#6A4500"/>
	</linearGradient>
	<path style="fill:url(#SVGID_00000072962493182592660970000000397105551769126304_);" d="M94.28,98.13l-5.47,1.05
		c-3.03,0.58-7.42-9.07-9.81-21.56s-1.87-23.08,1.15-23.66l5.47-1.05c2.18-0.42,5.88,9.37,8.27,21.86S96.46,97.72,94.28,98.13z"/>
	
		<ellipse transform="matrix(0.9822 -0.188 0.188 0.9822 -12.5982 18.2479)" class="st1" cx="89.89" cy="75.53" rx="4.35" ry="23.02"/>
</g>
</svg>
