<?xml version="1.0" encoding="utf-8"?>
<!-- Generator: Adobe Illustrator 26.0.1, SVG Export Plug-In . SVG Version: 6.00 Build 0)  -->
<svg version="1.1" id="Layer_1" xmlns="http://www.w3.org/2000/svg" xmlns:xlink="http://www.w3.org/1999/xlink" x="0px" y="0px"
	 viewBox="0 0 100 100" style="enable-background:new 0 0 100 100;" xml:space="preserve">
<style type="text/css">
	.st0{fill:url(#SVGID_1_);}
	.st1{fill:url(#SVGID_00000108287788435116015890000014858657287729174164_);}
	.st2{fill:#DBFCFD;}
	.st3{fill:url(#SVGID_00000031930054064394445320000001815631015351263637_);}
	.st4{fill:#6EC0FF;}
	.st5{fill:#C6DFFF;}
	.st6{fill:#336DFF;}
	
		.st7{fill:url(#SVGID_00000056401379768503471290000002867760447936129183_);stroke:#336DFF;stroke-width:0.5;stroke-miterlimit:10;}
	.st8{fill:none;stroke:#336DFF;stroke-width:0.5;stroke-miterlimit:10;}
	.st9{fill:none;stroke:#1B1464;stroke-width:0.5;stroke-miterlimit:10;}
</style>
<g>
	
		<linearGradient id="SVGID_1_" gradientUnits="userSpaceOnUse" x1="52.5407" y1="1035.7" x2="52.5407" y2="980.6" gradientTransform="matrix(1 0 0 1 0 -978)">
		<stop  offset="0" style="stop-color:#336DFF"/>
		<stop  offset="0.1958" style="stop-color:#317BFE"/>
		<stop  offset="0.5612" style="stop-color:#2A9EFC"/>
		<stop  offset="0.7159" style="stop-color:#27AFFB"/>
	</linearGradient>
	<path class="st0" d="M97.7,36.9c0,11.5-9.1,20.8-20.2,20.8c-3.2,0-6.2-0.7-8.8-2.1c-3.1,1.3-6.6,2.1-10.2,2.1c-3.5,0-6.9-0.7-10-2
		c-1.4,0.7-2.9,1.2-4.5,1.5c-0.4,0.1-2.3,0.5-4.6,0.5c-4.5,0-8.2-1.6-10.1-2.5c-11.2,0.9-20.6-6.5-21.7-15
		c-1.2-8.8,6.4-18.7,12.9-19c0.4,0,0.8,0,1.2,0c3.8-5.3,9.8-8.8,16.5-9.1c4.9-5.8,12.2-9.5,20.2-9.5c9.9,0,18.6,5.6,23.2,13.9
		C90.9,18.5,97.7,26.8,97.7,36.9z"/>
	<g>
		
			<linearGradient id="SVGID_00000161628760335439979680000000315574521674318497_" gradientUnits="userSpaceOnUse" x1="39.2089" y1="1039.5219" x2="69.1986" y2="987.5781" gradientTransform="matrix(1 0 0 1 0 -978)">
			<stop  offset="0.3935" style="stop-color:#A7E0FF"/>
			<stop  offset="1" style="stop-color:#DBFCFD"/>
		</linearGradient>
		
			<rect x="26.4" y="17" style="fill:url(#SVGID_00000161628760335439979680000000315574521674318497_);" width="55.7" height="37.1"/>
		<polygon class="st2" points="44.6,29.6 27.5,29.6 27.5,24.7 44.6,24.8 		"/>
		<polygon class="st2" points="44.6,35.5 27.5,35.4 27.5,30.6 44.6,30.6 		"/>
		<polygon class="st2" points="44.6,41.3 27.5,41.3 27.5,36.4 44.6,36.4 		"/>
		<polygon class="st2" points="44.6,47.1 27.5,47.1 27.5,42.3 44.6,42.3 		"/>
		<polygon class="st2" points="44.7,52.9 27.6,52.9 27.6,48.1 44.7,48.1 		"/>
		<polygon class="st2" points="62.8,29.7 45.8,29.6 45.8,24.8 62.8,24.8 		"/>
		<polygon class="st2" points="62.8,35.5 45.8,35.5 45.8,30.6 62.8,30.7 		"/>
		<polygon class="st2" points="62.8,41.3 45.8,41.3 45.8,36.4 62.8,36.5 		"/>
		<polygon class="st2" points="62.8,47.1 45.8,47.1 45.8,42.3 62.8,42.3 		"/>
		<polygon class="st2" points="62.9,52.9 45.9,52.9 45.9,48.1 62.9,48.1 		"/>
		<polygon class="st2" points="81,29.7 64.1,29.7 64.1,24.8 81,24.9 		"/>
		<polygon class="st2" points="81,35.5 64.1,35.5 64.1,30.7 81,30.7 		"/>
		<polygon class="st2" points="81,41.3 64.1,41.3 64.1,36.5 81,36.5 		"/>
		<polygon class="st2" points="81,47.1 64.1,47.1 64.1,42.3 81,42.3 		"/>
		<polygon class="st2" points="81.1,52.9 64.1,52.9 64.1,48.1 81.1,48.1 		"/>
		
			<linearGradient id="SVGID_00000096034034065488813450000013638552686526435755_" gradientUnits="userSpaceOnUse" x1="27.5537" y1="998.75" x2="80.8538" y2="998.75" gradientTransform="matrix(1 0 0 1 0 -978)">
			<stop  offset="1.978731e-03" style="stop-color:#27B0FC"/>
			<stop  offset="1" style="stop-color:#63CEF9"/>
		</linearGradient>
		<polygon style="fill:url(#SVGID_00000096034034065488813450000013638552686526435755_);" points="80.9,22.7 27.6,22.6 27.6,18.8 
			80.9,18.8 		"/>
		<rect x="33.1" y="26.5" class="st4" width="5.8" height="1.3"/>
		<rect x="32.9" y="32.2" class="st4" width="5.8" height="1.3"/>
		<rect x="33" y="38.2" class="st4" width="5.8" height="1.3"/>
		<rect x="33" y="43.9" class="st4" width="5.8" height="1.3"/>
		<rect x="33" y="49.7" class="st4" width="5.8" height="1.3"/>
		<rect x="46.7" y="26.5" class="st5" width="14.9" height="0.7"/>
		<rect x="46.7" y="27.4" class="st5" width="12.2" height="0.7"/>
		<rect x="46.7" y="32.2" class="st5" width="14.9" height="0.7"/>
		<rect x="46.7" y="33.1" class="st5" width="14.9" height="0.7"/>
		<rect x="46.7" y="37.6" class="st5" width="14.9" height="0.7"/>
		<rect x="46.7" y="38.6" class="st5" width="12.5" height="0.7"/>
		<rect x="46.7" y="43.8" class="st5" width="14.9" height="0.7"/>
		<rect x="46.7" y="44.7" class="st5" width="14.9" height="0.7"/>
		<rect x="46.7" y="39.5" class="st5" width="13.7" height="0.7"/>
		<rect x="46.7" y="49.7" class="st5" width="14.9" height="0.7"/>
		<rect x="46.7" y="50.7" class="st5" width="12.2" height="0.7"/>
		<rect x="65.1" y="26.6" class="st5" width="14.9" height="0.7"/>
		<rect x="65.1" y="27.5" class="st5" width="13.7" height="0.7"/>
		<rect x="65.1" y="32.2" class="st5" width="14.9" height="0.7"/>
		<rect x="65.1" y="33.2" class="st5" width="10.5" height="0.7"/>
		<rect x="65.1" y="37.7" class="st5" width="14.9" height="0.7"/>
		<rect x="65.1" y="38.6" class="st5" width="14.4" height="0.7"/>
		<rect x="65.1" y="43.8" class="st5" width="14.9" height="0.7"/>
		<rect x="65.1" y="44.8" class="st5" width="14.9" height="0.7"/>
		<rect x="65.1" y="39.6" class="st5" width="13.7" height="0.7"/>
		<rect x="65.1" y="49.8" class="st5" width="14.9" height="0.7"/>
		<rect x="65.1" y="50.7" class="st5" width="7.2" height="0.7"/>
	</g>
	<g>
		<circle class="st4" cx="7.8" cy="66.1" r="3.3"/>
		<path class="st4" d="M2.6,76.4c-0.9-1.9,1.2-6.3,4.9-6.5c3.8-0.2,6.2,4.3,5.4,6.2C11.9,78.8,3.8,79,2.6,76.4z"/>
		<circle class="st4" cx="25.1" cy="66.1" r="3.2"/>
		<path class="st4" d="M20,76.4c-0.9-1.9,1.2-6.3,4.9-6.5c3.8-0.2,6.2,4.3,5.4,6.2C29.2,78.8,21.2,79,20,76.4z"/>
		<circle class="st6" cx="16.5" cy="72.6" r="3.2"/>
		<path class="st6" d="M11.3,82.9c-0.9-1.9,1.2-6.3,4.9-6.5c3.8-0.2,6.2,4.3,5.4,6.2C20.6,85.3,12.5,85.5,11.3,82.9z"/>
	</g>
	<g>
		
			<linearGradient id="SVGID_00000111190005532700829300000013423804458425854080_" gradientUnits="userSpaceOnUse" x1="42.7937" y1="1063.4" x2="66.7937" y2="1063.4" gradientTransform="matrix(1 0 0 1 0 -978)">
			<stop  offset="0.3935" style="stop-color:#A7E0FF"/>
			<stop  offset="1" style="stop-color:#DBFCFD"/>
		</linearGradient>
		
			<circle style="fill:url(#SVGID_00000111190005532700829300000013423804458425854080_);stroke:#336DFF;stroke-width:0.5;stroke-miterlimit:10;" cx="54.8" cy="85.4" r="12"/>
		<ellipse class="st8" cx="54.8" cy="85.3" rx="5.8" ry="11.9"/>
		<line class="st8" x1="43.5" y1="81.8" x2="66.2" y2="81.8"/>
		<line class="st8" x1="43.5" y1="89.5" x2="66.2" y2="89.5"/>
	</g>
	<g>
		<circle class="st6" cx="83.3" cy="65.4" r="3.5"/>
		<path class="st6" d="M77.8,76.5c-0.9-2,1.3-6.8,5.2-7c4.1-0.2,6.6,4.6,5.8,6.7C87.7,79,79.1,79.3,77.8,76.5z"/>
	</g>
	<line class="st9" x1="54.4" y1="59.7" x2="54.4" y2="72.2"/>
	<polyline class="st9" points="73.9,59.7 73.9,68.2 79.3,68.2 	"/>
	<polyline class="st9" points="34.9,59.7 34.9,68.2 29.3,68.2 	"/>
</g>
</svg>
