<?xml version="1.0" encoding="utf-8"?>
<!-- Generator: Adobe Illustrator 26.0.1, SVG Export Plug-In . SVG Version: 6.00 Build 0)  -->
<svg version="1.1" id="Layer_1" xmlns="http://www.w3.org/2000/svg" xmlns:xlink="http://www.w3.org/1999/xlink" x="0px" y="0px"
	 viewBox="0 0 100 100" style="enable-background:new 0 0 100 100;" xml:space="preserve">
<style type="text/css">
	.st0{fill:#FFBA9F;}
	.st1{fill:#F15A24;}
	.st2{fill:#7F90B1;}
	.st3{fill:#E8F2FF;}
	.st4{fill:#98C2FF;}
	.st5{fill:#71FFFF;}
	.st6{fill:#C6DFFF;}
	.st7{fill:#FFFFFF;}
	.st8{fill:#336DFF;}
	.st9{fill:#011435;}
	.st10{fill:#242528;}
	.st11{fill:none;stroke:#58595B;stroke-width:5.000000e-02;stroke-miterlimit:10;}
	.st12{fill:#414042;}
	.st13{fill:url(#SVGID_1_);}
	.st14{fill:url(#SVGID_00000164478512125678547400000012141033155889573028_);}
	.st15{fill:url(#SVGID_00000034786119763724677190000012981382869048474020_);}
	.st16{clip-path:url(#SVGID_00000054948611667885644130000002985488863595072907_);}
	.st17{fill:url(#SVGID_00000130648291155037489990000003215235653545127855_);}
	.st18{fill:#FEC67F;}
	.st19{fill:url(#SVGID_00000111911585167368851860000008972137258194452612_);}
	.st20{fill:url(#SVGID_00000056398797749533421950000003958047746085902240_);}
	.st21{fill:url(#SVGID_00000156560925604467677960000012872294417747936442_);}
</style>
<g>
	<path class="st0" d="M19.3,14.5c-0.3,0.5,0.4,0.9,0.2,2c-0.1,0.6-0.4,1.4-1,2c-0.4,0.4-0.5,0.3-0.5,0.5c-0.3,0.7,1.1,1.4,2.2,3.1
		c1.1,1.6,1.1,2.9,1.5,2.9c0.5,0,0.4-1.3,1.6-3.2c0.6-0.9,1-1.6,1.8-2c0.6-0.4,1.2-0.5,1.2-0.8c0-0.2-0.5-0.3-1.1-0.8
		c0,0-0.9-0.7-1.2-1.8c-0.3-1,0.2-1.3-0.1-1.8C23.3,13.5,19.8,13.4,19.3,14.5z"/>
	<path class="st0" d="M22.2,16.3h-1.4c-1.6,0-2.9-1.3-2.9-2.9V7.8c0-1.6,1.3-2.9,2.9-2.9h1.4c1.6,0,2.9,1.3,2.9,2.9v5.7
		C25,15,23.8,16.3,22.2,16.3z"/>
	<path d="M17.9,9.8c-0.2-0.1-0.4-0.3-0.7-0.6c-0.1-0.1-0.3-0.5-0.4-1c-0.1-0.4,0-0.7,0-0.8c0-0.2,0.1-0.6,0.4-0.9
		c0.1-0.1,0.3-0.3,0.6-0.4c0.1,0,0.3,0,0.4,0c0,0,0.1-0.1,0.2,0c0.2,0.1,0.1,0.4,0.1,0.4c0,0,0,0-0.1,0c0,0-0.1,0.1-0.1,0.1
		C18,8.3,18,9.6,18,9.6C17.9,9.7,17.9,9.8,17.9,9.8z"/>
	<path class="st0" d="M18.3,9.6c-0.1-0.1-0.3-0.3-0.6-0.3c-0.1,0-0.4-0.1-0.6,0.1c-0.1,0.1-0.1,0.3,0,0.6c0.1,0.5,0.3,0.9,0.4,0.9
		c0.2,0.3,0.3,0.5,0.5,0.6c0.1,0.1,0.3,0.2,0.5,0.1C18.9,11.5,18.9,10.2,18.3,9.6z"/>
	<path d="M17.8,3C17.7,3,17.1,3.4,17,4c-0.1,0.4,0,0.8,0.1,1c0,0.1,0.1,0.5,0.4,0.8c0.1,0.2,0.4,0.5,1,0.7c0.3,0.1,0.6,0.1,0.9,0.1
		c0.2,0,0.8,0,1.6-0.3c0.5-0.2,0.6-0.2,0.9-0.2c0.4,0,0.7,0.2,0.9,0.3c0.4,0.2,0.4,0.3,0.6,0.5c0.6,0.4,1.5,0.4,1.9-0.1
		c0.1-0.2,0.2-0.4,0.3-0.5c0.1-0.2,0.2-0.4,0.1-0.6c0-0.5-0.6-0.8-0.7-0.9c-0.5-0.3-1.1-0.2-1.4-0.2c-0.6,0.1-0.7,0.3-1.1,0.2
		c-0.4-0.1-0.7-0.3-0.8-0.4c-0.3-0.2-0.4-0.4-0.7-0.8C20.7,3.6,20.4,3.2,20,3C19.4,2.7,18.5,2.5,17.8,3z"/>
	<path d="M24.8,9.9c0.2-0.1,0.5-0.2,0.7-0.4c0,0,0,0,0,0c0.8-0.6,0.8-1.5,0.8-1.5c0-0.6-0.2-1-0.3-1.1c-0.2-0.3-0.6-0.8-0.9-0.7
		c0,0-0.2,0.1-0.2,0.5c0,0-0.1-0.1-0.2,0c-0.2,0-0.2,0.3-0.1,0.4c0,0,0,0,0.1,0c0,0,0,0,0,0.1C24.8,7.4,24.8,9.7,24.8,9.9z"/>
	<g>
		<polygon class="st1" points="0.7,86.9 32.3,63.7 57.7,72.3 97.9,42.7 58.3,74.7 32.9,66.4 0.7,90.2 		"/>
		<polygon class="st1" points="94.1,41.7 98.1,46.5 98.7,41.9 		"/>
	</g>
	<path class="st0" d="M24.7,9.6c0.1-0.1,0.3-0.3,0.6-0.3c0.1,0,0.4-0.1,0.6,0.1c0.1,0.1,0.1,0.3,0,0.6c-0.1,0.5-0.3,0.9-0.4,0.9
		c-0.2,0.3-0.3,0.5-0.5,0.6c-0.1,0.1-0.3,0.2-0.5,0.1C24.2,11.5,24.1,10.2,24.7,9.6z"/>
	<g>
		<path class="st2" d="M76.9,98.3H42.2c-1.4,0-2.6-1.2-2.6-2.6V48.1c0-1.4,1.2-2.6,2.6-2.6h34.7c1.4,0,2.6,1.2,2.6,2.6v47.5
			C79.5,97.1,78.3,98.3,76.9,98.3z"/>
		<rect x="43.1" y="49.2" class="st3" width="33.5" height="11.8"/>
		<path class="st4" d="M66.7,66.9h-23c-0.3,0-0.6-0.2-0.6-0.6v-1.8c0-0.3,0.2-0.6,0.6-0.6h23c0.3,0,0.6,0.2,0.6,0.6v1.8
			C67.3,66.6,67,66.9,66.7,66.9z"/>
		<path class="st5" d="M76.3,66.9h-7.1c-0.2,0-0.3-0.1-0.3-0.3v-2.2c0-0.2,0.1-0.3,0.3-0.3h7.1c0.2,0,0.3,0.1,0.3,0.3v2.2
			C76.6,66.7,76.4,66.9,76.3,66.9z"/>
		<path class="st4" d="M76.1,76h-6.7c-0.3,0-0.5-0.2-0.5-0.5v-6.2c0-0.3,0.2-0.5,0.5-0.5h6.7c0.3,0,0.5,0.2,0.5,0.5v6.2
			C76.6,75.8,76.4,76,76.1,76z"/>
		<g>
			<path class="st6" d="M49.9,76h-6.2c-0.3,0-0.5-0.2-0.5-0.5v-6.2c0-0.3,0.2-0.5,0.5-0.5h6.2c0.3,0,0.5,0.2,0.5,0.5v6.2
				C50.4,75.8,50.2,76,49.9,76z"/>
			<path class="st6" d="M58.4,76h-6.2c-0.3,0-0.5-0.2-0.5-0.5v-6.2c0-0.3,0.2-0.5,0.5-0.5h6.2c0.3,0,0.5,0.2,0.5,0.5v6.2
				C58.9,75.8,58.7,76,58.4,76z"/>
			<path class="st6" d="M66.9,76h-6.2c-0.3,0-0.5-0.2-0.5-0.5v-6.2c0-0.3,0.2-0.5,0.5-0.5h6.2c0.3,0,0.5,0.2,0.5,0.5v6.2
				C67.4,75.8,67.2,76,66.9,76z"/>
		</g>
		<g>
			<path class="st6" d="M49.9,84.6h-6.2c-0.3,0-0.5-0.2-0.5-0.5v-6.2c0-0.3,0.2-0.5,0.5-0.5h6.2c0.3,0,0.5,0.2,0.5,0.5v6.2
				C50.4,84.4,50.2,84.6,49.9,84.6z"/>
			<path class="st6" d="M58.4,84.6h-6.2c-0.3,0-0.5-0.2-0.5-0.5v-6.2c0-0.3,0.2-0.5,0.5-0.5h6.2c0.3,0,0.5,0.2,0.5,0.5v6.2
				C58.9,84.4,58.7,84.6,58.4,84.6z"/>
			<path class="st6" d="M66.9,84.6h-6.2c-0.3,0-0.5-0.2-0.5-0.5v-6.2c0-0.3,0.2-0.5,0.5-0.5h6.2c0.3,0,0.5,0.2,0.5,0.5v6.2
				C67.4,84.4,67.2,84.6,66.9,84.6z"/>
		</g>
		<g>
			<path class="st6" d="M49.9,93.3h-6.2c-0.3,0-0.5-0.2-0.5-0.5v-6.2c0-0.3,0.2-0.5,0.5-0.5h6.2c0.3,0,0.5,0.2,0.5,0.5v6.2
				C50.4,93.1,50.2,93.3,49.9,93.3z"/>
			<path class="st6" d="M58.4,93.3h-6.2c-0.3,0-0.5-0.2-0.5-0.5v-6.2c0-0.3,0.2-0.5,0.5-0.5h6.2c0.3,0,0.5,0.2,0.5,0.5v6.2
				C58.9,93.1,58.7,93.3,58.4,93.3z"/>
			<path class="st6" d="M66.9,93.3h-6.2c-0.3,0-0.5-0.2-0.5-0.5v-6.2c0-0.3,0.2-0.5,0.5-0.5h6.2c0.3,0,0.5,0.2,0.5,0.5v6.2
				C67.4,93.1,67.2,93.3,66.9,93.3z"/>
		</g>
		<path class="st4" d="M75.8,93.3h-6.2c-0.4,0-0.8-0.3-0.8-0.8V78.2c0-0.4,0.3-0.8,0.8-0.8h6.2c0.4,0,0.8,0.3,0.8,0.8v14.4
			C76.6,92.9,76.3,93.3,75.8,93.3z"/>
		<path class="st7" d="M63.1,49.2l-4.7,11.8c1.9,0,3.8,0,5.8,0c1.6-4,3.1-7.9,4.7-11.8H63.1z"/>
	</g>
	<path class="st8" d="M18.2,19.2l-5.8,0.6L7.2,33.9c1.9,3.4,3.7,6.8,5.6,10.2l0.5-6.6l-1.4-2.6l1.2-3.2l4.9-6.3L18.2,19.2z"/>
	<path class="st0" d="M40.2,43.9c0.3,0.9,0.5,1.8,0.8,2.7c0.4-0.3,0.9-0.5,1.3-0.8c2.4,0.1,4.8,0.2,7.2,0.3l-6.3-1.9
		c-0.3-0.4-0.6-0.7-0.8-1.1C41.6,43.4,40.9,43.6,40.2,43.9z"/>
	<path class="st8" d="M25.5,18.7c2.3,0,4.7-0.1,7-0.1c1.5,4.7,3,9.4,4.5,14.1c1.9,3.5,3.7,7.1,5.6,10.6c-0.8,0.2-1.6,0.3-2.4,0.5
		c-1.8-2.6-3.5-5.1-5.3-7.7c-1.5-3-3.1-5.9-4.6-8.9l-0.7,18.8H12.7l0.2-25.4c-0.1-0.3-0.3-0.6-0.4-1c1.9-0.3,3.7-0.6,5.6-0.9
		c1.1,1.6,2.3,3.1,3.4,4.7C22.8,22,24.1,20.3,25.5,18.7z"/>
	<polygon class="st0" points="37,90.4 37.5,93.2 35.5,93.6 34.6,90.2 	"/>
	<polygon class="st0" points="11.6,90.5 11.5,93.5 13.5,93.7 14,90.1 	"/>
	<path class="st9" d="M12.7,45.7L12.1,68l-1,22.9h3.6l2.1-19.6l4.3-22.7l5.3,16.4l2,5.7l5.6,19.8l4.1,0.1l-4.7-19.4
		c-1.3-8.4-2.6-16.9-4-25.3C24,45.7,18.3,45.7,12.7,45.7z"/>
	<polygon class="st10" points="11.5,93.5 9.3,95.2 1.4,98.2 12.8,98.2 13.7,98.2 14,95.8 14,93.5 	"/>
	<polygon class="st10" points="37.7,93.2 39.8,95 47.7,98.2 36.4,98.2 35.5,98.2 35.1,95.7 35.1,93.2 	"/>
	<path class="st7" d="M20.2,13.7h2.6c-0.1,0.1-0.5,0.9-1.3,0.9C20.7,14.6,20.3,13.8,20.2,13.7z"/>
	<polyline class="st11" points="21.3,10.9 20.9,12 21.5,12.7 	"/>
	<circle class="st12" cx="23" cy="10.3" r="0.2"/>
	<circle class="st12" cx="19.8" cy="10.3" r="0.2"/>
	<g>
		<g>
			<path class="st12" d="M12.7,28.1c0.3,4.7,0.3,9.4,0.2,14.1C12.5,37.5,12.5,32.8,12.7,28.1L12.7,28.1z"/>
		</g>
		<g>
			<path class="st12" d="M12.7,32.5c-0.2,0.8-0.5,1.6-0.9,2.3l0-0.2c0.4,0.7,0.7,1.3,1,2c-0.5-0.6-0.9-1.3-1.4-1.9
				C11.8,34,12.2,33.2,12.7,32.5L12.7,32.5z"/>
		</g>
		<g>
			<path class="st12" d="M17.9,10.6c0.2,3-0.3,4.9,3.3,5.7C17.6,16.2,17.4,13.6,17.9,10.6L17.9,10.6z"/>
		</g>
		<g>
			<path class="st12" d="M18,18.9c-1.8,0.4-3.7,0.7-5.6,1l0.2-0.1c-0.4,1.1-0.8,2.2-1.3,3.3c-0.4,1.1-0.9,2.2-1.4,3.2
				c0.3-1.1,0.7-2.2,1.1-3.4c0.4-1.1,0.8-2.3,1.3-3.4C14.2,19.3,16.1,19,18,18.9L18,18.9z"/>
		</g>
	</g>
	<g>
		<path class="st12" d="M42.6,43.4c0.2,0.2,0.4,0.5,0.7,0.8l0,0c2.2,0.5,4.3,1.1,6.3,2c-2.2-0.4-4.3-1-6.4-1.8l0,0
			C43,44,42.8,43.7,42.6,43.4L42.6,43.4z"/>
	</g>
	
		<linearGradient id="SVGID_1_" gradientUnits="userSpaceOnUse" x1="35.4533" y1="85.1316" x2="35.4533" y2="88.8046" gradientTransform="matrix(1 0 0 -1 0 102)">
		<stop  offset="0.2901" style="stop-color:#A8E1FF"/>
		<stop  offset="0.8464" style="stop-color:#DCFDFE"/>
	</linearGradient>
	<ellipse class="st13" cx="35.5" cy="15" rx="3.7" ry="1.8"/>
	
		<linearGradient id="SVGID_00000085243121072364335240000013068239787732511143_" gradientUnits="userSpaceOnUse" x1="29.3633" y1="89.0716" x2="29.3633" y2="91.2262" gradientTransform="matrix(1 0 0 -1 0 102)">
		<stop  offset="0.3935" style="stop-color:#A8E1FF"/>
		<stop  offset="1" style="stop-color:#DCFDFE"/>
	</linearGradient>
	<ellipse style="fill:url(#SVGID_00000085243121072364335240000013068239787732511143_);" cx="29.4" cy="11.8" rx="1.7" ry="1.1"/>
	
		<linearGradient id="SVGID_00000061461548365868762450000013750584056051210678_" gradientUnits="userSpaceOnUse" x1="69.4969" y1="100.2584" x2="69.4969" y2="58.5904" gradientTransform="matrix(1 0 0 -1 0 102)">
		<stop  offset="0.2901" style="stop-color:#A8E1FF"/>
		<stop  offset="0.8464" style="stop-color:#DCFDFE"/>
	</linearGradient>
	<path style="fill:url(#SVGID_00000061461548365868762450000013750584056051210678_);" d="M74.7,3.8c1.2-0.6,8.2-4.2,15.5-0.2
		c1.2,0.7,7.6,4.1,8.9,11.7c0.5,2.7,0.1,5-0.2,6.5c0.1,1.5,0.2,8.5-4.2,13.8c-3.2,3.7-6.9,4.5-10.1,5.1c-2.2,0.5-7.6,1.5-11.9-1.9
		c-0.3-0.3-0.6-0.5-0.8-0.7c-1.5,1.3-4,3.1-7.2,4.2c-1.4,0.5-11.1,3.4-17.5-3.3c-0.4-0.4-5.6-6-4.6-11.9c0.1-0.4,0.1-0.7,0.2-0.9
		c-0.6-0.5-2-1.9-2.6-4.2c-0.6-2.3-0.1-4.2,0.2-5.4c1.5-5.5,5.9-8,6.2-8.2c4.9-2.7,9.5-0.4,10.3,0c0.2-0.2,0.5-0.6,0.8-0.9
		c2-2.2,3.9-3.3,4.2-3.5c0.9-0.5,2.7-1.6,5.2-1.9C70.5,1.8,73.3,3,74.7,3.8z"/>
	<g>
		<g>
			<defs>
				<path id="SVGID_00000086656524684299035170000017396587821580800174_" d="M74.7,3.9c1.2-0.6,8.2-4.2,15.5-0.2
					c1.2,0.7,7.6,4.1,8.9,11.7c0.5,2.7,0.1,5-0.2,6.5c0.1,1.5,0.2,8.5-4.2,13.8c-3.2,3.7-6.9,4.5-10.1,5.1
					c-2.2,0.5-7.6,1.5-11.9-1.9c-0.3-0.3-0.6-0.5-0.8-0.7c-1.5,1.3-4,3.1-7.2,4.2c-1.4,0.5-11.1,3.4-17.5-3.3
					c-0.4-0.4-5.6-6-4.6-11.9c0.1-0.4,0.1-0.7,0.2-0.9c-0.6-0.5-2-1.9-2.6-4.2c-0.6-2.3-0.1-4.2,0.2-5.4c1.5-5.5,5.9-8,6.2-8.2
					c4.9-2.7,9.5-0.4,10.3,0c0.2-0.2,0.5-0.6,0.8-0.9c2-2.2,3.9-3.3,4.2-3.5c0.9-0.5,2.7-1.6,5.2-1.9C70.5,1.8,73.2,3.1,74.7,3.9z"
					/>
			</defs>
			<clipPath id="SVGID_00000120547358984670941910000003310229293763900856_">
				<use xlink:href="#SVGID_00000086656524684299035170000017396587821580800174_"  style="overflow:visible;"/>
			</clipPath>
			<g style="clip-path:url(#SVGID_00000120547358984670941910000003310229293763900856_);">
				<path class="st0" d="M59.1,27.9c-0.4,0.8,0.6,1.3,0.3,3c-0.2,0.9-0.6,2.1-1.5,3c-0.5,0.5-0.7,0.5-0.8,0.8
					c-0.4,1,1.6,2.1,3.2,4.5c1.6,2.3,1.5,4.2,2.2,4.1c0.7,0,0.5-1.9,2.2-4.6c0.8-1.3,1.4-2.3,2.6-3c0.9-0.5,1.8-0.7,1.8-1.1
					c0-0.4-0.7-0.4-1.6-1.1c-0.1,0-1.3-1-1.7-2.6c-0.4-1.4,0.3-1.8-0.1-2.6C64.9,26.4,59.9,26.3,59.1,27.9z"/>
				<path class="st0" d="M63.3,30.5h-2c-2.3,0-4.1-1.9-4.1-4.1v-8.2c0-2.3,1.8-4.1,4.1-4.1h2c2.3,0,4.1,1.8,4.1,4.1v8.2
					C67.4,28.7,65.6,30.5,63.3,30.5z"/>
				<path d="M57.2,21.2c-0.3-0.2-0.6-0.4-1-0.9c-0.1-0.1-0.5-0.7-0.6-1.5c-0.1-0.6,0-1,0-1.1c0-0.3,0.2-0.8,0.6-1.3
					c0.1-0.2,0.4-0.5,0.9-0.6c0.2,0,0.4,0,0.5,0c0,0,0.2-0.1,0.3,0c0.2,0.1,0.2,0.6,0.1,0.6c0,0,0,0-0.1,0c-0.1,0-0.1,0.1-0.1,0.1
					c-0.6,2.4-0.7,4.2-0.7,4.2C57.2,21,57.2,21.1,57.2,21.2z"/>
				<path class="st0" d="M57.8,20.9c-0.1-0.1-0.4-0.4-0.8-0.5c-0.1,0-0.6-0.1-0.8,0.1c-0.1,0.2-0.1,0.4,0,0.8
					c0.1,0.7,0.4,1.2,0.5,1.4c0.2,0.4,0.4,0.7,0.8,0.9c0.2,0.1,0.5,0.3,0.7,0.2C58.6,23.5,58.6,21.7,57.8,20.9z"/>
				<path d="M57,11.2c-0.2,0.1-1,0.6-1.2,1.5c-0.1,0.6,0,1.1,0.1,1.4c0.1,0.2,0.2,0.7,0.6,1.2c0.2,0.2,0.6,0.8,1.4,1.1
					c0.5,0.2,0.8,0.2,1.3,0.2c0.3,0,1.2,0,2.4-0.4c0.7-0.2,0.8-0.4,1.3-0.3c0.6,0,1,0.3,1.2,0.4c0.5,0.3,0.5,0.5,0.9,0.7
					c0.8,0.5,2.2,0.5,2.8-0.1c0.2-0.2,0.3-0.6,0.4-0.7c0.1-0.2,0.2-0.6,0.2-0.9c-0.1-0.8-0.9-1.2-1.1-1.3c-0.8-0.4-1.6-0.3-2.1-0.2
					c-0.9,0.1-1,0.4-1.7,0.3c-0.5-0.1-1-0.4-1.2-0.6c-0.5-0.4-0.5-0.6-1-1.1c-0.3-0.3-0.7-0.8-1.2-1.1C59.4,10.9,58.1,10.6,57,11.2z
					"/>
				<path d="M67.1,21.3c0.3-0.1,0.7-0.2,1.1-0.5c0,0,0,0,0,0c1.1-0.9,1.2-2.1,1.2-2.1c0.1-0.8-0.3-1.4-0.4-1.6
					c-0.3-0.5-0.9-1.1-1.2-1c-0.1,0-0.3,0.1-0.3,0.8c0,0-0.2-0.1-0.3-0.1c-0.3,0.1-0.3,0.5-0.2,0.5c0,0,0.1,0,0.1,0
					c0,0,0.1,0,0.1,0.1C67.1,17.6,67.1,21,67.1,21.3z"/>
				<path class="st0" d="M67,20.9c0.1-0.1,0.4-0.4,0.8-0.5c0.1,0,0.6-0.1,0.8,0.1c0.1,0.2,0.1,0.4,0,0.8c-0.1,0.7-0.4,1.2-0.5,1.4
					c-0.2,0.4-0.4,0.7-0.8,0.9c-0.2,0.1-0.5,0.3-0.7,0.2C66.2,23.5,66.1,21.7,67,20.9z"/>
				<path class="st8" d="M57.7,34.7l-8.3,0.9l-7.6,20.4c2.7,4.9,5.3,9.8,8,14.7l0.7-9.6l-2-3.8l1.7-4.6l7.1-9.1L57.7,34.7z"/>
				<path class="st8" d="M68,34c3.4,0,6.7-0.1,10.1-0.1c2.2,6.8,4.3,13.6,6.5,20.4c2.7,5.1,5.3,10.3,8,15.4
					c-1.2,0.3-2.3,0.5-3.4,0.8c-2.6-3.7-5.1-7.4-7.6-11.1c-2.2-4.3-4.4-8.6-6.6-12.9l-1,27.2H49.7l0.2-36.7
					c-0.2-0.5-0.4-0.9-0.6-1.4c2.7-0.4,5.3-0.8,8-1.2c1.6,2.3,3.3,4.5,4.9,6.8C64.2,38.7,66.1,36.4,68,34z"/>
				<path class="st7" d="M60.5,26.8h3.7c-0.1,0.2-0.8,1.3-1.9,1.3C61.2,28.1,60.6,26.9,60.5,26.8z"/>
				<polyline class="st11" points="62.1,22.8 61.5,24.4 62.3,25.3 				"/>
				<ellipse class="st12" cx="64.5" cy="21.8" rx="0.3" ry="0.4"/>
				<ellipse class="st12" cx="59.9" cy="21.8" rx="0.3" ry="0.4"/>
				<g>
					<g>
						<path class="st12" d="M49.7,47.6C50,54.2,50,61.4,49.9,68C49.5,61.3,49.5,54.3,49.7,47.6L49.7,47.6z"/>
					</g>
					<g>
						<path class="st12" d="M49.7,54c-0.3,1.2-0.8,2.2-1.3,3.3l0-0.2c0.5,1,1.1,1.9,1.5,2.9c-0.7-0.9-1.3-1.8-1.9-2.8
							C48.5,56.2,49.1,55,49.7,54L49.7,54z"/>
					</g>
					<g>
						<path class="st12" d="M57.2,22.3c0.2,4.4-0.5,7.1,4.7,8.2C56.6,30.2,56.6,26.6,57.2,22.3L57.2,22.3z"/>
					</g>
					<g>
						<path class="st12" d="M57.4,34.3c-2.7,0.5-5.3,1-8,1.4l0.2-0.1c-0.6,1.6-1.2,3.2-1.8,4.8c-0.6,1.6-1.3,3.2-1.9,4.7
							c0.5-1.6,1.1-3.2,1.6-4.8c0.6-1.6,1.2-3.3,1.8-4.9C51.9,34.9,54.6,34.6,57.4,34.3L57.4,34.3z"/>
					</g>
				</g>
				<path class="st10" d="M62.5,22.2c0-0.6,0.8-1,1.3-1.2c1.5-0.8,3.7-0.9,4.1,0.1c0.3,0.5-0.1,1.2-0.3,1.6c0,0.1-0.9,1.7-2.6,1.6
					C63.8,24.1,62.5,23,62.5,22.2z"/>
				<rect x="61.4" y="22.2" class="st10" width="1.9" height="0.3"/>
				<path class="st10" d="M62.1,22.1c0-0.6-0.8-1-1.3-1.2c-1.5-0.8-3.7-0.9-4.1,0.1c-0.3,0.5,0.1,1.2,0.3,1.6c0,0.1,0.9,1.7,2.6,1.6
					C60.8,24.1,62.2,22.9,62.1,22.1z"/>
			</g>
		</g>
	</g>
	<g>
		
			<linearGradient id="SVGID_00000016756347363803521470000006482396254049442444_" gradientUnits="userSpaceOnUse" x1="175.7542" y1="247.2123" x2="196.3498" y2="247.2123" gradientTransform="matrix(0.9611 0.2763 0.2763 -0.9611 -165.1272 195.2479)">
			<stop  offset="0" style="stop-color:#FFC174"/>
			<stop  offset="0" style="stop-color:#F6BA6D"/>
			<stop  offset="0.7256" style="stop-color:#6A4500"/>
		</linearGradient>
		<path style="fill:url(#SVGID_00000016756347363803521470000006482396254049442444_);" d="M92.3,10.5l-0.6,1.9
			c-0.3,1.1-5,0.7-10.5-0.8s-9.7-3.5-9.3-4.6l0.6-1.9c0.2-0.8,4.9-0.2,10.3,1.3S92.5,9.7,92.3,10.5z"/>
		<ellipse transform="matrix(0.2575 -0.9663 0.9663 0.2575 53.5595 85.4088)" class="st18" cx="82.4" cy="7.9" rx="1.6" ry="10.3"/>
	</g>
	<g>
		
			<linearGradient id="SVGID_00000042723746875086096180000002910621899256786820_" gradientUnits="userSpaceOnUse" x1="8.326998e-02" y1="8.5283" x2="20.6694" y2="8.5283" gradientTransform="matrix(0.9917 -0.1285 -0.1285 -0.9917 73.3394 44.3828)">
			<stop  offset="0" style="stop-color:#FFC174"/>
			<stop  offset="0" style="stop-color:#F6BA6D"/>
			<stop  offset="0.7256" style="stop-color:#6A4500"/>
		</linearGradient>
		<path style="fill:url(#SVGID_00000042723746875086096180000002910621899256786820_);" d="M92.6,31.8l0.2,2
			c0.1,1.1-4.3,2.7-9.9,3.5c-5.6,0.8-10.3,0.6-10.4-0.5l-0.2-2c-0.1-0.8,4.4-2.1,10-2.9C87.9,31.1,92.5,31,92.6,31.8z"/>
		<ellipse transform="matrix(0.989 -0.1478 0.1478 0.989 -4.0236 12.5439)" class="st18" cx="82.4" cy="33.3" rx="10.3" ry="1.5"/>
	</g>
	<g>
		
			<linearGradient id="SVGID_00000125586470096402145690000008639238959662066319_" gradientUnits="userSpaceOnUse" x1="-17.846" y1="-3.9848" x2="2.7887" y2="-3.9848" gradientTransform="matrix(0.9809 -0.1946 -0.1946 -0.9809 91.057 15.2983)">
			<stop  offset="0" style="stop-color:#FFC174"/>
			<stop  offset="0" style="stop-color:#F6BA6D"/>
			<stop  offset="0.7256" style="stop-color:#6A4500"/>
		</linearGradient>
		<path style="fill:url(#SVGID_00000125586470096402145690000008639238959662066319_);" d="M94.3,17.6l0.4,1.9
			c0.2,1.1-4.1,2.8-9.7,3.8c-5.6,1-10.3,1-10.6-0.1l-0.4-1.9c-0.2-0.8,4.2-2.2,9.8-3.3C89.5,17,94.2,16.8,94.3,17.6z"/>
		<ellipse transform="matrix(0.9835 -0.1809 0.1809 0.9835 -2.129 15.5514)" class="st18" cx="84.2" cy="19.4" rx="10.3" ry="1.5"/>
	</g>
	<g>
		
			<linearGradient id="SVGID_00000000934774600018865230000001580477544072626822_" gradientUnits="userSpaceOnUse" x1="137.3052" y1="154.4804" x2="157.9059" y2="154.4804" gradientTransform="matrix(0.9881 0.1539 0.1539 -0.9881 -84.9632 160.0742)">
			<stop  offset="0" style="stop-color:#FFC174"/>
			<stop  offset="0" style="stop-color:#F6BA6D"/>
			<stop  offset="0.7256" style="stop-color:#6A4500"/>
		</linearGradient>
		<path style="fill:url(#SVGID_00000000934774600018865230000001580477544072626822_);" d="M95.1,30.3l-0.3,2
			c-0.2,1.1-4.9,1.3-10.5,0.6c-5.6-0.8-10-2.3-9.8-3.4l0.3-2c0.1-0.8,4.8-0.8,10.4,0C90.8,28.3,95.2,29.5,95.1,30.3z"/>
		
			<ellipse transform="matrix(0.1346 -0.9909 0.9909 0.1346 44.7905 109.1268)" class="st18" cx="84.9" cy="28.9" rx="1.6" ry="10.3"/>
	</g>
</g>
</svg>
