<?xml version="1.0" encoding="utf-8"?>
<!-- Generator: Adobe Illustrator 26.0.1, SVG Export Plug-In . SVG Version: 6.00 Build 0)  -->
<svg version="1.1" id="Layer_1" xmlns="http://www.w3.org/2000/svg" xmlns:xlink="http://www.w3.org/1999/xlink" x="0px" y="0px"
	 viewBox="0 0 100 100" style="enable-background:new 0 0 100 100;" xml:space="preserve">
<style type="text/css">
	.st0{fill:url(#SVGID_1_);}
	.st1{fill:url(#SVGID_00000050654825884874589280000016405225794534794914_);}
	.st2{fill:#DBFCFD;}
	.st3{fill:#6EC0FF;}
	.st4{fill:#C6DFFF;}
	.st5{fill:#336DFF;}
	.st6{fill:none;stroke:#336DFF;stroke-width:0.2;stroke-miterlimit:10;}
	.st7{fill:#FF5E33;}
	.st8{fill:none;stroke:#FF5E33;stroke-width:0.5;stroke-miterlimit:10;}
	.st9{fill:#48AE52;}
	.st10{fill:none;stroke:#48AE52;stroke-width:0.5;stroke-miterlimit:10;}
	.st11{fill:url(#SVGID_00000010999927420084475510000012018824773437258902_);}
	.st12{fill:url(#SVGID_00000103249553409450135210000008306860110403935872_);}
	.st13{fill:url(#SVGID_00000122716475574827987670000015813494283625687226_);}
	.st14{fill:url(#SVGID_00000095311287071796469610000008241354706936609158_);}
	.st15{fill:url(#SVGID_00000130637377523462879440000008663735633490922167_);}
	.st16{fill:url(#SVGID_00000049931704969439937320000006438084608208619954_);}
	.st17{fill:url(#SVGID_00000062186211379900370310000013755633410498465973_);}
	.st18{fill:url(#SVGID_00000160899305838685461870000017130479483695921824_);}
	.st19{fill:url(#SVGID_00000043452598315759208230000004829361618382882440_);}
	.st20{fill:url(#SVGID_00000028300232875803993790000004587660701981802942_);}
	.st21{fill:url(#SVGID_00000048488222500820916620000000810898339930119602_);}
	.st22{fill:url(#SVGID_00000106124442297486444230000001305380690575899021_);}
	.st23{fill:url(#SVGID_00000095327801870699049570000002623058626562650025_);}
	.st24{fill:#4DD9FF;}
	.st25{fill:none;stroke:#1B1464;stroke-width:0.25;stroke-miterlimit:10;}
</style>
<g>
	
		<linearGradient id="SVGID_1_" gradientUnits="userSpaceOnUse" x1="36.563" y1="21.9597" x2="61.8571" y2="65.7703" gradientTransform="matrix(1 0 0 -1 0 102)">
		<stop  offset="0.3935" style="stop-color:#A7E0FF"/>
		<stop  offset="1" style="stop-color:#DBFCFD"/>
	</linearGradient>
	<rect x="26.4" y="42.1" class="st0" width="45.6" height="32.1"/>
	
		<linearGradient id="SVGID_00000117678893338360414640000002377032622831887782_" gradientUnits="userSpaceOnUse" x1="26.44" y1="58.225" x2="72" y2="58.225" gradientTransform="matrix(1 0 0 -1 0 102)">
		<stop  offset="1.978731e-03" style="stop-color:#27B0FC"/>
		<stop  offset="1" style="stop-color:#63CEF9"/>
	</linearGradient>
	<polygon style="fill:url(#SVGID_00000117678893338360414640000002377032622831887782_);" points="72,45.5 26.5,45.5 26.4,42 72,42 
			"/>
	<polygon class="st2" points="41.3,51.2 27.4,51.1 27.4,46.5 41.3,46.6 	"/>
	<polygon class="st2" points="41.3,56.7 27.4,56.7 27.4,52.1 41.3,52.1 	"/>
	<polygon class="st2" points="41.3,62.2 27.4,62.2 27.4,57.6 41.3,57.6 	"/>
	<polygon class="st2" points="41.3,67.8 27.4,67.7 27.4,63.2 41.3,63.2 	"/>
	<rect x="27.5" y="68.7" class="st2" width="13.9" height="4.6"/>
	<polygon class="st2" points="56.2,51.2 42.3,51.2 42.3,46.6 56.2,46.6 	"/>
	<polygon class="st2" points="56.3,56.7 42.3,56.7 42.3,52.1 56.2,52.1 	"/>
	<polygon class="st2" points="56.3,62.2 42.3,62.2 42.3,57.6 56.3,57.7 	"/>
	<polygon class="st2" points="56.3,67.8 42.3,67.8 42.3,63.2 56.2,63.2 	"/>
	<rect x="42.4" y="68.7" class="st2" width="13.9" height="4.6"/>
	<polygon class="st2" points="71.1,51.2 57.2,51.2 57.2,46.6 71.1,46.7 	"/>
	<polygon class="st2" points="71.1,56.8 57.2,56.7 57.2,52.2 71.1,52.2 	"/>
	<polygon class="st2" points="71.1,62.3 57.3,62.2 57.3,57.7 71.1,57.7 	"/>
	<rect x="57.2" y="63.2" class="st2" width="13.8" height="4.6"/>
	<rect x="57.3" y="68.7" class="st2" width="13.8" height="4.6"/>
	<rect x="31.9" y="48.2" class="st3" width="4.7" height="1.3"/>
	<rect x="31.8" y="53.6" class="st3" width="4.7" height="1.3"/>
	<rect x="31.8" y="59.3" class="st3" width="4.7" height="1.3"/>
	<rect x="31.9" y="64.7" class="st3" width="4.7" height="1.3"/>
	<rect x="31.9" y="70.2" class="st3" width="4.7" height="1.3"/>
	<rect x="43.1" y="48.2" class="st4" width="12.2" height="0.7"/>
	<rect x="43.1" y="49.1" class="st4" width="10" height="0.7"/>
	<rect x="43.1" y="53.6" class="st4" width="12.2" height="0.7"/>
	<rect x="43.1" y="54.5" class="st4" width="12.2" height="0.7"/>
	<rect x="43.1" y="58.8" class="st4" width="12.2" height="0.7"/>
	<rect x="43.1" y="59.7" class="st4" width="10.2" height="0.7"/>
	<rect x="43.1" y="64.6" class="st4" width="12.2" height="0.7"/>
	<rect x="43.1" y="65.5" class="st4" width="12.2" height="0.7"/>
	<rect x="43.1" y="60.5" class="st4" width="11.2" height="0.7"/>
	<rect x="43.1" y="70.2" class="st4" width="12.2" height="0.7"/>
	<rect x="43.1" y="71.1" class="st4" width="10" height="0.7"/>
	<rect x="58.1" y="48.2" class="st4" width="12.2" height="0.7"/>
	<rect x="58.1" y="49.2" class="st4" width="11.2" height="0.7"/>
	<rect x="58.1" y="53.6" class="st4" width="12.2" height="0.7"/>
	<rect x="58.1" y="54.5" class="st4" width="8.6" height="0.7"/>
	<rect x="58.1" y="58.8" class="st4" width="12.2" height="0.7"/>
	<rect x="58.1" y="59.7" class="st4" width="11.8" height="0.7"/>
	<rect x="58.1" y="64.6" class="st4" width="12.2" height="0.7"/>
	<rect x="58.1" y="65.5" class="st4" width="12.2" height="0.7"/>
	<rect x="58.1" y="60.6" class="st4" width="11.2" height="0.7"/>
	<rect x="58.1" y="70.3" class="st4" width="12.2" height="0.7"/>
	<rect x="58.1" y="71.2" class="st4" width="5.9" height="0.7"/>
</g>
<g>
	<path class="st3" d="M49,22.2l7.7,3.7c-1.4,2.9-4.3,4.7-7.5,4.8c-4.7,0.1-8.6-3.7-8.7-8.3s3.7-8.6,8.3-8.7s8.6,3.7,8.7,8.3L49,22.2
		z"/>
	<path class="st5" d="M49,22.2l7.6-3.9c1.5,2.9,1.2,6.3-0.7,8.9c-2.7,3.8-8.1,4.7-11.9,1.9c-3.8-2.7-4.7-8.1-1.9-11.9
		c2.7-3.8,8.1-4.7,11.9-1.9L49,22.2z"/>
</g>
<g>
	<rect x="94.1" y="57" class="st3" width="2.9" height="16"/>
	<rect x="90.1" y="60.2" class="st3" width="2.9" height="12.8"/>
	<rect x="86.1" y="63.2" class="st3" width="2.9" height="9.8"/>
	<rect x="82" y="65.8" class="st3" width="2.9" height="7.2"/>
	<rect x="78" y="68.9" class="st3" width="2.9" height="4.1"/>
	<rect x="73.9" y="71.5" class="st3" width="2.9" height="1.5"/>
	<line class="st6" x1="73.9" y1="73" x2="97" y2="73"/>
</g>
<g>
	<polyline class="st6" points="74,21 74,37 98,37 	"/>
	<g>
		<ellipse class="st7" cx="77.3" cy="35" rx="0.4" ry="0.3"/>
		<ellipse class="st7" cx="81.1" cy="32.3" rx="0.4" ry="0.3"/>
		<ellipse class="st7" cx="85.2" cy="35" rx="0.4" ry="0.3"/>
		<ellipse class="st7" cx="89.2" cy="35" rx="0.4" ry="0.3"/>
		<ellipse class="st7" cx="93.1" cy="34" rx="0.4" ry="0.3"/>
		<ellipse class="st7" cx="97.1" cy="33.1" rx="0.4" ry="0.3"/>
		<polyline class="st8" points="77.3,35 81.1,32.3 85.2,35 89.2,35 93.1,34 97.1,33.1 		"/>
		<ellipse class="st9" cx="77.3" cy="32.3" rx="0.4" ry="0.3"/>
		<ellipse class="st9" cx="81.1" cy="29.6" rx="0.4" ry="0.3"/>
		<ellipse class="st9" cx="85.2" cy="28.1" rx="0.4" ry="0.3"/>
		<ellipse class="st9" cx="89.2" cy="26.9" rx="0.4" ry="0.3"/>
		<ellipse class="st9" cx="93.3" cy="24.1" rx="0.4" ry="0.3"/>
		<polyline class="st10" points="77.3,32.3 81.1,29.6 85.2,28.1 89.2,26.9 93.3,24.1 97.1,22 		"/>
	</g>
</g>
<g>
	<g>
		<path class="st6" d="M27,37H2c0-5.3,0-10.7,0-16"/>
		<line class="st6" x1="2" y1="27.9" x2="26.8" y2="27.9"/>
		<line class="st6" x1="2" y1="30.1" x2="26.8" y2="30.1"/>
		<line class="st6" x1="2" y1="32.4" x2="26.8" y2="32.4"/>
		<line class="st6" x1="2" y1="34.6" x2="26.8" y2="34.6"/>
		<line class="st6" x1="2" y1="25.7" x2="26.8" y2="25.7"/>
		<line class="st6" x1="2" y1="23.5" x2="26.8" y2="23.5"/>
		<line class="st6" x1="2" y1="21.2" x2="26.8" y2="21.2"/>
	</g>
	
		<linearGradient id="SVGID_00000085216296940814733830000002744348572829649338_" gradientUnits="userSpaceOnUse" x1="2.4455" y1="67.21" x2="3.5842" y2="67.21" gradientTransform="matrix(1 0 0 -1 0 102)">
		<stop  offset="1.978731e-03" style="stop-color:#27B0FC"/>
		<stop  offset="1" style="stop-color:#63CEF9"/>
	</linearGradient>
	<rect x="2.5" y="32.8" style="fill:url(#SVGID_00000085216296940814733830000002744348572829649338_);" width="1.1" height="4"/>
	
		<linearGradient id="SVGID_00000055693333219161763180000013757639921121636740_" gradientUnits="userSpaceOnUse" x1="4.1823" y1="71.36" x2="5.321" y2="71.36" gradientTransform="matrix(1 0 0 -1 0 102)">
		<stop  offset="1.978731e-03" style="stop-color:#27AFFB"/>
		<stop  offset="1" style="stop-color:#63CDF8"/>
	</linearGradient>
	<rect x="4.2" y="28.5" style="fill:url(#SVGID_00000055693333219161763180000013757639921121636740_);" width="1.1" height="4.3"/>
	
		<linearGradient id="SVGID_00000181770612339069813120000014484366416879850888_" gradientUnits="userSpaceOnUse" x1="5.92" y1="73.57" x2="7.0587" y2="73.57" gradientTransform="matrix(1 0 0 -1 0 102)">
		<stop  offset="0.3935" style="stop-color:#A8E1FF"/>
		<stop  offset="1" style="stop-color:#DCFDFE"/>
	</linearGradient>
	<rect x="5.9" y="28" style="fill:url(#SVGID_00000181770612339069813120000014484366416879850888_);" width="1.1" height="0.8"/>
	
		<linearGradient id="SVGID_00000155867346060378272640000007728135914415814043_" gradientUnits="userSpaceOnUse" x1="7.6559" y1="74.67" x2="8.7946" y2="74.67" gradientTransform="matrix(1 0 0 -1 0 102)">
		<stop  offset="1.978731e-03" style="stop-color:#27AFFB"/>
		<stop  offset="1" style="stop-color:#63CDF8"/>
	</linearGradient>
	<rect x="7.7" y="26" style="fill:url(#SVGID_00000155867346060378272640000007728135914415814043_);" width="1.1" height="2.6"/>
	
		<linearGradient id="SVGID_00000061432483442706394190000008480189234607668367_" gradientUnits="userSpaceOnUse" x1="9.3927" y1="75.42" x2="10.5314" y2="75.42" gradientTransform="matrix(1 0 0 -1 0 102)">
		<stop  offset="0.3935" style="stop-color:#A8E1FF"/>
		<stop  offset="1" style="stop-color:#DCFDFE"/>
	</linearGradient>
	<rect x="9.4" y="26" style="fill:url(#SVGID_00000061432483442706394190000008480189234607668367_);" width="1.1" height="1.1"/>
	
		<linearGradient id="SVGID_00000156583560483176131280000004408937804486651831_" gradientUnits="userSpaceOnUse" x1="11.13" y1="73.61" x2="12.2687" y2="73.61" gradientTransform="matrix(1 0 0 -1 0 102)">
		<stop  offset="0.3935" style="stop-color:#A8E1FF"/>
		<stop  offset="1" style="stop-color:#DCFDFE"/>
	</linearGradient>
	<rect x="11.1" y="27" style="fill:url(#SVGID_00000156583560483176131280000004408937804486651831_);" width="1.1" height="2.7"/>
	
		<linearGradient id="SVGID_00000158730293516449987400000006003120447315154824_" gradientUnits="userSpaceOnUse" x1="12.8663" y1="71.225" x2="14.005" y2="71.225" gradientTransform="matrix(1 0 0 -1 0 102)">
		<stop  offset="1.978731e-03" style="stop-color:#27AFFB"/>
		<stop  offset="1" style="stop-color:#63CDF8"/>
	</linearGradient>
	
		<rect x="12.9" y="29.4" style="fill:url(#SVGID_00000158730293516449987400000006003120447315154824_);" width="1.1" height="2.8"/>
	
		<linearGradient id="SVGID_00000073699650179829953360000014626486796717722762_" gradientUnits="userSpaceOnUse" x1="14.6031" y1="71.225" x2="15.7417" y2="71.225" gradientTransform="matrix(1 0 0 -1 0 102)">
		<stop  offset="0.3935" style="stop-color:#A8E1FF"/>
		<stop  offset="1" style="stop-color:#DCFDFE"/>
	</linearGradient>
	
		<rect x="14.6" y="29.4" style="fill:url(#SVGID_00000073699650179829953360000014626486796717722762_);" width="1.1" height="2.8"/>
	
		<linearGradient id="SVGID_00000073713864226063616060000002661865319263889820_" gradientUnits="userSpaceOnUse" x1="16.34" y1="73.1" x2="17.4786" y2="73.1" gradientTransform="matrix(1 0 0 -1 0 102)">
		<stop  offset="0.3935" style="stop-color:#A8E1FF"/>
		<stop  offset="1" style="stop-color:#DCFDFE"/>
	</linearGradient>
	<rect x="16.3" y="28.4" style="fill:url(#SVGID_00000073713864226063616060000002661865319263889820_);" width="1.1" height="1"/>
	
		<linearGradient id="SVGID_00000091002167042616160930000015212242554789611191_" gradientUnits="userSpaceOnUse" x1="18.0767" y1="73.68" x2="19.2153" y2="73.68" gradientTransform="matrix(1 0 0 -1 0 102)">
		<stop  offset="1.978731e-03" style="stop-color:#27AFFB"/>
		<stop  offset="1" style="stop-color:#63CDF8"/>
	</linearGradient>
	
		<rect x="18.1" y="26.9" style="fill:url(#SVGID_00000091002167042616160930000015212242554789611191_);" width="1.1" height="2.8"/>
	
		<linearGradient id="SVGID_00000139255555023000357930000011309618584105929119_" gradientUnits="userSpaceOnUse" x1="19.8135" y1="75.385" x2="20.9521" y2="75.385" gradientTransform="matrix(1 0 0 -1 0 102)">
		<stop  offset="0.3935" style="stop-color:#A8E1FF"/>
		<stop  offset="1" style="stop-color:#DCFDFE"/>
	</linearGradient>
	
		<rect x="19.8" y="24.9" style="fill:url(#SVGID_00000139255555023000357930000011309618584105929119_);" width="1.1" height="3.4"/>
	
		<linearGradient id="SVGID_00000056426719399238099950000010646688236676293040_" gradientUnits="userSpaceOnUse" x1="21.55" y1="74.355" x2="22.6886" y2="74.355" gradientTransform="matrix(1 0 0 -1 0 102)">
		<stop  offset="0.3935" style="stop-color:#A8E1FF"/>
		<stop  offset="1" style="stop-color:#DCFDFE"/>
	</linearGradient>
	<rect x="21.5" y="27" style="fill:url(#SVGID_00000056426719399238099950000010646688236676293040_);" width="1.1" height="1.4"/>
	
		<linearGradient id="SVGID_00000085965345592364158340000016937935605895877021_" gradientUnits="userSpaceOnUse" x1="23.2871" y1="73.96" x2="24.4257" y2="73.96" gradientTransform="matrix(1 0 0 -1 0 102)">
		<stop  offset="1.978731e-03" style="stop-color:#27AFFB"/>
		<stop  offset="1" style="stop-color:#63CDF8"/>
	</linearGradient>
	<rect x="23.3" y="26" style="fill:url(#SVGID_00000085965345592364158340000016937935605895877021_);" width="1.1" height="4"/>
</g>
<g>
	<rect x="3.5" y="57" class="st24" width="21.5" height="2.8"/>
	<rect x="3.5" y="60.8" class="st24" width="19.3" height="2.8"/>
	<rect x="3.5" y="64.6" class="st24" width="16.5" height="2.8"/>
	<rect x="3.5" y="68.4" class="st24" width="13.5" height="2.8"/>
	<polyline class="st6" points="1,57 1,73 25,73 	"/>
</g>
<line class="st25" x1="49" y1="32" x2="49" y2="41"/>
<polyline class="st25" points="14.2,39 14.2,49.1 25.8,49.1 "/>
<polyline class="st25" points="84.3,38.5 84.3,48.6 72.7,48.6 "/>
<polyline class="st25" points="16,74.2 16,78.1 39.4,78.1 39.4,76.1 "/>
<polyline class="st25" points="81.8,74.3 81.8,78.1 58.4,78.1 58.4,76.2 "/>
</svg>
