<?xml version="1.0" encoding="utf-8"?>
<!-- Generator: Adobe Illustrator 26.0.1, SVG Export Plug-In . SVG Version: 6.00 Build 0)  -->
<svg version="1.1" id="Layer_1" xmlns="http://www.w3.org/2000/svg" xmlns:xlink="http://www.w3.org/1999/xlink" x="0px" y="0px"
	 viewBox="0 0 100 100" style="enable-background:new 0 0 100 100;" xml:space="preserve">
<style type="text/css">
	.st0{fill:url(#SVGID_1_);}
	.st1{fill:url(#SVGID_00000052074891240733245640000015872291189977721010_);}
	.st2{fill:none;stroke:#FFFFFF;stroke-width:0.4;stroke-miterlimit:10;}
	.st3{fill:url(#SVGID_00000069394551006541110760000016880468954151060132_);}
	.st4{fill:url(#SVGID_00000142880298776883045010000000200208879504378031_);}
	.st5{fill:#6EC1FF;}
	.st6{fill:#F15A24;}
	.st7{fill:#FFBA9F;}
	.st8{fill:none;stroke:#58595B;stroke-width:5.000000e-02;stroke-miterlimit:10;}
	.st9{fill:#414042;}
	.st10{fill:#020F1E;}
	.st11{fill:#021D44;}
	.st12{fill:#333333;}
	.st13{fill:#336DFF;}
	.st14{fill:#242528;}
	.st15{fill:url(#SVGID_00000101092170331281881700000001818007258995341479_);}
</style>
<g>
	<g>
		
			<linearGradient id="SVGID_1_" gradientUnits="userSpaceOnUse" x1="187.7801" y1="-755.2589" x2="258.8043" y2="-755.2589" gradientTransform="matrix(0.9906 -7.423940e-03 -7.392895e-03 -0.9864 -166.6231 -672.3)">
			<stop  offset="0.3935" style="stop-color:#A7E0FF"/>
			<stop  offset="1" style="stop-color:#DBFCFD"/>
		</linearGradient>
		<path class="st0" d="M94.7,94.7L26,95.2c-0.5,0-0.8-0.4-0.8-0.9l-0.4-45.9c0-0.5,0.4-0.9,0.8-0.9l68.7-0.6c0.5,0,0.8,0.4,0.8,0.9
			l0.4,45.9C95.5,94.3,95.2,94.7,94.7,94.7z"/>
		
			<linearGradient id="SVGID_00000088840078239816101120000015780453127400691633_" gradientUnits="userSpaceOnUse" x1="185.6477" y1="-713.2911" x2="256.6722" y2="-713.2911" gradientTransform="matrix(0.9917 -7.432627e-03 -7.494450e-03 -1 -164.6702 -661.7717)">
			<stop  offset="1.978731e-03" style="stop-color:#27AFFB"/>
			<stop  offset="1" style="stop-color:#63CDF8"/>
		</linearGradient>
		<path style="fill:url(#SVGID_00000088840078239816101120000015780453127400691633_);" d="M95.2,52.5L24.8,53v-4.7
			c0-0.5,0.4-0.9,0.9-1l68.6-0.4c0.5,0,0.9,0.5,0.9,0.9V52.5z"/>
		<line class="st2" x1="24.9" y1="53.1" x2="95.2" y2="52.5"/>
		<line class="st2" x1="24.9" y1="59.1" x2="95.2" y2="58.6"/>
		<line class="st2" x1="24.9" y1="65.1" x2="95.3" y2="64.6"/>
		<line class="st2" x1="25" y1="71.1" x2="95.3" y2="70.5"/>
		<line class="st2" x1="25" y1="77.1" x2="95.4" y2="76.6"/>
		<line class="st2" x1="25.1" y1="83.1" x2="95.4" y2="82.6"/>
		<line class="st2" x1="25.1" y1="89.1" x2="95.5" y2="88.6"/>
		<line class="st2" x1="36.1" y1="95.1" x2="35.8" y2="52.9"/>
		<line class="st2" x1="43" y1="95.1" x2="42.7" y2="52.9"/>
		<line class="st2" x1="49.5" y1="95" x2="49.3" y2="52.8"/>
		<line class="st2" x1="56.1" y1="94.9" x2="55.8" y2="52.8"/>
		<line class="st2" x1="62.6" y1="94.8" x2="62.3" y2="52.7"/>
		<line class="st2" x1="69.2" y1="94.8" x2="68.9" y2="52.7"/>
		<line class="st2" x1="75.8" y1="94.8" x2="75.5" y2="52.6"/>
		<line class="st2" x1="82.4" y1="94.7" x2="82" y2="52.6"/>
		<line class="st2" x1="88.9" y1="94.8" x2="88.6" y2="52.5"/>
	</g>
	
		<linearGradient id="SVGID_00000016772714479527283430000016924258442935831175_" gradientUnits="userSpaceOnUse" x1="44.3036" y1="996.7249" x2="44.3036" y2="993.052" gradientTransform="matrix(1 0 0 1 0 -978)">
		<stop  offset="0.2901" style="stop-color:#A8E1FF"/>
		<stop  offset="0.8464" style="stop-color:#DCFDFE"/>
	</linearGradient>
	<ellipse style="fill:url(#SVGID_00000016772714479527283430000016924258442935831175_);" cx="44.3" cy="16.9" rx="3.7" ry="1.8"/>
	
		<linearGradient id="SVGID_00000008122991974982178940000002189903722204269696_" gradientUnits="userSpaceOnUse" x1="73.6314" y1="984.9464" x2="73.6314" y2="1016.3342" gradientTransform="matrix(1 0 0 1 0 -978)">
		<stop  offset="0.2901" style="stop-color:#A8E1FF"/>
		<stop  offset="0.8464" style="stop-color:#DCFDFE"/>
	</linearGradient>
	<path style="fill:url(#SVGID_00000008122991974982178940000002189903722204269696_);" d="M78.1,8.5c1-0.5,7.2-3.2,13.6-0.2
		c1,0.5,6.6,3.1,7.7,8.8c0.4,2,0.1,3.8-0.2,4.9c0.1,1.1,0.2,6.4-3.7,10.4c-2.8,2.8-6.1,3.4-8.8,3.9c-2,0.3-6.6,1.2-10.4-1.4
		c-0.3-0.2-0.5-0.4-0.7-0.5c-1.3,1-3.5,2.4-6.3,3.2c-1.2,0.3-9.7,2.6-15.3-2.5c-0.3-0.3-4.9-4.5-4-9c0.1-0.3,0.1-0.5,0.2-0.7
		c-0.5-0.4-1.8-1.4-2.3-3.2c-0.5-1.7-0.1-3.1,0.2-4.1c1.3-4.1,5.1-6,5.5-6.2c4.3-2,8.4-0.3,9,0c0.2-0.2,0.4-0.4,0.7-0.7
		C65,9.6,66.7,8.7,67,8.6c0.8-0.4,2.4-1.2,4.6-1.4C74.4,7,76.9,7.9,78.1,8.5z"/>
	<rect x="86.5" y="12.8" class="st5" width="4.1" height="18.9"/>
	<rect x="80.8" y="16.6" class="st5" width="4.1" height="15.1"/>
	<rect x="75" y="20.1" class="st5" width="4.1" height="11.6"/>
	<rect x="69.3" y="23.2" class="st5" width="4.1" height="8.5"/>
	<rect x="63.5" y="26.8" class="st5" width="4.1" height="4.9"/>
	<rect x="57.8" y="29.9" class="st5" width="4.1" height="1.8"/>
	<g>
		<polygon class="st6" points="57.8,22.7 89.8,9.7 57.9,24.9 		"/>
		<polygon class="st6" points="88.2,8.3 89.8,11.7 91.2,9 		"/>
	</g>
	<path class="st7" d="M29.4,12.9c-0.3,0.5,0.3,1,0,2.1c-0.2,0.6-0.6,1.4-1.3,2c-0.4,0.3-0.5,0.3-0.6,0.5c-0.3,0.7,1,1.6,2,3.4
		s0.9,3.1,1.3,3.1c0.5,0,0.5-1.3,1.9-3.1c0.7-0.9,1.2-1.5,2.1-2c0.7-0.3,1.3-0.4,1.3-0.7c0-0.3-0.5-0.3-1.1-0.9c0,0-0.9-0.8-1.1-2
		c-0.2-1,0.3-1.3,0.1-1.9C33.6,12.2,30.1,11.8,29.4,12.9z"/>
	<path class="st7" d="M32.2,15l-1.4-0.1c-1.6-0.1-2.8-1.6-2.7-3.2l0.6-5.9c0.1-1.6,1.6-2.8,3.2-2.7l1.4,0.1c1.6,0.2,2.8,1.6,2.7,3.2
		l-0.5,5.9C35.3,14,33.9,15.2,32.2,15z"/>
	<path d="M28.5,8c-0.2-0.2-0.5-0.4-0.7-0.7c0-0.1-0.3-0.5-0.3-1.1c0-0.4,0-0.7,0.1-0.8c0-0.2,0.2-0.6,0.5-0.9
		c0.1-0.1,0.4-0.3,0.7-0.4c0.1,0,0.3,0,0.4,0.1c0,0,0.1-0.1,0.2,0c0.2,0.1,0.1,0.4,0,0.5c0,0,0,0-0.1,0c0,0,0,0,0,0.1
		c-0.6,1.6-0.8,3-0.8,3S28.5,7.9,28.5,8z"/>
	<path class="st7" d="M28.9,7.8c-0.1-0.1-0.2-0.3-0.6-0.4c-0.1,0-0.4-0.1-0.6,0.1c-0.1,0.1-0.1,0.3-0.1,0.6c0,0.5,0.2,0.9,0.3,1
		c0.1,0.3,0.2,0.5,0.5,0.7c0.1,0.1,0.3,0.2,0.5,0.2C29.3,9.7,29.4,8.4,28.9,7.8z"/>
	<path d="M29,0.8c-0.1,0.1-0.8,0.4-1,1c-0.1,0.4-0.1,0.8,0,1c0,0.1,0.1,0.5,0.4,0.9c0.1,0.2,0.4,0.6,0.9,0.8
		c0.3,0.3,0.6,0.3,0.9,0.3c0.2,0,0.9,0.1,1.7-0.1c0.5-0.1,0.6-0.2,0.9-0.2c0.5,0.1,0.8,0.3,0.9,0.4C34,5.1,34,5.3,34.3,5.5
		c0.6,0.4,1.5,0.5,2,0.1c0.2-0.2,0.3-0.4,0.3-0.4c0.1-0.1,0.2-0.4,0.2-0.6c0-0.5-0.6-0.9-0.7-1c-0.5-0.3-1.1-0.3-1.5-0.3
		c-0.6,0-0.8,0.2-1.2,0.1c-0.4-0.1-0.7-0.3-0.8-0.5c-0.3-0.3-0.3-0.5-0.7-0.9c-0.2-0.2-0.5-0.6-0.8-0.9C30.7,0.7,29.8,0.5,29,0.8z"
		/>
	<path d="M35.6,8.7c0.2,0,0.5-0.1,0.8-0.3l0,0c0.8-0.6,1-1.4,1-1.4c0.1-0.6-0.1-1-0.2-1.2C37,5.5,36.7,4.9,36.4,5
		c0,0-0.2,0.1-0.3,0.5c0,0-0.1-0.1-0.2-0.1c-0.2,0-0.2,0.3-0.2,0.4c0,0,0,0,0.1,0c0,0,0,0,0,0.1C35.8,6,35.6,8.5,35.6,8.7z"/>
	<path class="st7" d="M35.5,8.4c0.1-0.1,0.3-0.2,0.6-0.3c0.1,0,0.4,0,0.6,0.2c0.1,0.1,0,0.3,0,0.6c-0.2,0.4-0.4,0.8-0.5,0.9
		c-0.2,0.3-0.3,0.4-0.6,0.6c-0.2,0.1-0.4,0.2-0.5,0.1C34.7,10.2,34.8,8.9,35.5,8.4z"/>
	<polyline class="st8" points="31.8,9.4 31.3,10.5 31.9,11.2 	"/>
	<circle class="st9" cx="33.7" cy="8.9" r="0.3"/>
	<circle class="st9" cx="30.4" cy="8.6" r="0.3"/>
	<polygon class="st7" points="20.7,86 22,88.9 23.9,88.2 22.8,84.6 	"/>
	<path class="st7" d="M12.3,90.7c-0.5,1.2-1,2.5-1.6,3.7c0.9,0,1.8,0,2.7,0c0.4-1.1,0.9-2.2,1.3-3.4L12.3,90.7z"/>
	<path class="st10" d="M19.8,43.6c-1.5,5.9-3.1,11.9-4.6,17.8l5,26.1l4.1-1l-1.7-24.4l8.5-18.4c-2.6-1.2-5.2-2.3-7.7-3.5
		C22.1,41.4,21,42.5,19.8,43.6z"/>
	<path class="st11" d="M27,42.6C21.7,58.8,16.5,75,11.3,91.1l3.7,1C21.9,76.6,28.8,61,35.7,45.5C32.8,44.5,29.9,43.6,27,42.6z"/>
	<g>
		<path class="st7" d="M20.5,30.1c-1-0.1-1.9-0.3-2.9-0.4l-0.4,1.7l0.4,2.2l2.8-0.7C20.4,32,20.5,31.1,20.5,30.1z"/>
		<g>
			<path class="st12" d="M20.5,30.1c-1-0.1-2-0.2-2.9-0.3l0.1-0.1c-0.1,0.5-0.2,1.4-0.3,1.7c0.1,0.7,0.2,1.4,0.4,2.2l-0.2-0.1
				c0.9-0.2,1.9-0.5,2.8-0.6l-0.1,0C20.3,32,20.4,31.1,20.5,30.1L20.5,30.1z M20.5,30.1c0,0.9,0,1.9,0,2.9c-1,0.3-2,0.5-3,0.8
				c-0.1-0.8-0.2-1.6-0.4-2.4c0.1-0.6,0.3-1.2,0.4-1.8C18.5,29.8,19.5,30,20.5,30.1L20.5,30.1z"/>
		</g>
	</g>
	<path class="st13" d="M35.1,17.5c2.5,0.9,4.9,1.8,7.3,2.7l-3.9,14.3h-1.7l-1.3,11l-16-1.3L21.6,33h-1.4v-0.8l0.2-12.5
		c2.4-0.8,4.8-1.5,7.1-2.3c1.2,1.7,2.3,3.5,3.5,5.2C32.5,20.8,33.8,19.2,35.1,17.5z"/>
	<path class="st13" d="M28.1,24.2c1.6-2.2,3.2-4.4,4.8-6.6l-1.4-1.3c-1.9,1.7-3.8,3.4-5.7,5C26.6,22.3,27.3,23.3,28.1,24.2z"/>
	<g>
		<path class="st7" d="M31.3,16.6c0-0.4,0-0.8,0-1.1V13c0.1,0.1,0.3,0.2,0.4,0.4c0.5,0.7,0.4,1.6,0.3,1.8c2.6-2.3,4.7-3.8,4.9-3.8
			s0.5,0,0.5,0h0.1c-0.5,0.4-1,0.8-1.5,1.4c-0.6,0.6-1,1.2-1.4,1.7c0.3,0.7,0.5,1.4,0.8,2.1l0.3,1L32.9,18
			C32.3,17.5,31.8,17.1,31.3,16.6z"/>
		<path class="st12" d="M31.3,16.6l-0.1-3.7v-0.2c0.8,0.6,1.1,1.5,0.9,2.4L31.9,15c1.5-1.3,3-2.6,4.7-3.7c0.4-0.2,0.8-0.1,1.3-0.1
			l-0.3,0.2L36,12.8c-0.5,0.5-0.9,1-1.3,1.6v-0.1l0.8,2.1l0.3,1v0.1c-1,0.1-2,0.3-3,0.4C32.8,18,31.3,16.6,31.3,16.6L31.3,16.6z
			 M31.3,16.6l1.5,1.4c0.7-0.2,1.9-0.3,2.8-0.5l-0.1,0.1c-0.2-0.8-0.8-2.4-1.1-3.1c0-0.1,0-0.1,0-0.1c0.6-1.1,2-2.3,2.9-3.1l0.1,0.3
			c-0.2,0-0.5,0-0.6,0c-1.8,1-3.3,2.4-4.9,3.7l-0.2,0.2c0.3-0.9,0.2-1.9-0.6-2.4l0.1-0.1L31.3,16.6L31.3,16.6z"/>
	</g>
	<polygon class="st14" points="10.8,94.1 8.6,96 0.4,99.4 12.2,99.3 13.2,99.3 13.5,96.7 13.5,94.1 	"/>
	<polygon class="st14" points="22,88.9 20.8,91.6 14.9,98.2 25.4,93 26.3,92.6 25.5,90.1 24.3,87.8 	"/>
	<g>
		<path class="st12" d="M30.9,12.6c0.8,0,1.5-0.1,2.3-0.3C32.7,12.9,31.7,13,30.9,12.6L30.9,12.6z"/>
	</g>
	
		<linearGradient id="SVGID_00000004546425216848412480000007068071613997234858_" gradientUnits="userSpaceOnUse" x1="39.2036" y1="991.7822" x2="39.2036" y2="989.6277" gradientTransform="matrix(1 0 0 1 0 -978)">
		<stop  offset="0.3935" style="stop-color:#A8E1FF"/>
		<stop  offset="1" style="stop-color:#DCFDFE"/>
	</linearGradient>
	<ellipse style="fill:url(#SVGID_00000004546425216848412480000007068071613997234858_);" cx="39.2" cy="12.7" rx="1.7" ry="1.1"/>
	<g>
		<path class="st12" d="M28.4,9.2c0,1.1-0.2,2.3,0,3.4s1.2,1.8,2.1,2.4C27.7,14,27.8,11.8,28.4,9.2L28.4,9.2z"/>
	</g>
	<g>
		<path class="st12" d="M20.5,27.4c0,1.9,0,3.7,0,5.6l-0.1-0.1l0.9,0.1h-0.1c3.8-5,7.6-10,11.6-15c-3.8,5.1-7.5,10.3-11.5,15.1
			L20.4,33h-0.1C20.3,31.1,20.4,29.3,20.5,27.4L20.5,27.4z"/>
	</g>
	<g>
		<path class="st12" d="M24.9,22.4c1.6-1.8,3.4-3.5,5.4-5C28.7,19.2,26.9,20.9,24.9,22.4L24.9,22.4z"/>
	</g>
	<g>
		<path class="st12" d="M21.7,32.9c5.6,0.4,11.2,0.9,16.8,1.4l-0.1,0.1c1.1-4,2.2-8,3.3-12c-1,4.1-2,8.1-3.1,12.1
			c0,0.1,0,0.1-0.1,0.1C33,34.1,27.3,33.6,21.7,32.9L21.7,32.9z"/>
	</g>
	<g>
		<path class="st12" d="M24.2,30.5c3.8-0.1,7.7-0.2,11.5-0.1l-0.1,0.1c0.2-1.7,0.4-3.3,0.7-5c-0.1,1.7-0.3,3.4-0.4,5.1
			C31.9,30.7,28,30.7,24.2,30.5L24.2,30.5z"/>
	</g>
	<g>
		<path class="st12" d="M24.8,18.2c-1.4,0.6-2.7,1-4.1,1.5l0.1-0.1c0,1.5,0,3.1-0.1,4.6c-0.1-1.5-0.1-3.1-0.1-4.6v-0.1
			C21.9,19,23.3,18.6,24.8,18.2L24.8,18.2z"/>
	</g>
	<g>
		<path class="st12" d="M14.4,92c-0.1,0.8-0.4,1.5-0.9,2.1C13.6,93.3,13.9,92.6,14.4,92L14.4,92z"/>
	</g>
	<g>
		<path class="st12" d="M23.5,86.7c0.4,0.4,0.5,0.9,0.5,1.5C23.6,87.8,23.4,87.2,23.5,86.7L23.5,86.7z"/>
	</g>
</g>
</svg>
