<?xml version="1.0" encoding="utf-8"?>
<!-- Generator: Adobe Illustrator 26.0.2, SVG Export Plug-In . SVG Version: 6.00 Build 0)  -->
<svg version="1.1" id="Layer_1" xmlns="http://www.w3.org/2000/svg" xmlns:xlink="http://www.w3.org/1999/xlink" x="0px" y="0px"
	 viewBox="0 0 100 100" style="enable-background:new 0 0 100 100;" xml:space="preserve">
<style type="text/css">
	.st0{fill:#FFBA9F;}
	.st1{fill:#F15A24;}
	.st2{fill:#7F90B1;}
	.st3{fill:#E8F2FF;}
	.st4{fill:#98C2FF;}
	.st5{fill:#71FFFF;}
	.st6{fill:#C6DFFF;}
	.st7{fill:#FFFFFF;}
	.st8{fill:#336DFF;}
	.st9{fill:#011435;}
	.st10{fill:#242528;}
	.st11{fill:none;stroke:#58595B;stroke-width:0.05;stroke-miterlimit:10;}
	.st12{fill:#414042;}
	.st13{fill:url(#SVGID_1_);}
	.st14{fill:url(#SVGID_00000021081291363520909120000008884000302113180818_);}
	.st15{fill:url(#SVGID_00000090256240940182607770000005714558433918955649_);}
	.st16{clip-path:url(#SVGID_00000074417470772476542450000005636746927588693380_);}
	.st17{fill:url(#SVGID_00000159438876597720500660000012592228986798366139_);}
	.st18{clip-path:url(#SVGID_00000060738916849068119600000005290292235453657011_);}
	.st19{fill:url(#SVGID_00000024715958271820787300000008792827349102514083_);}
	.st20{fill:#FEC67F;}
	.st21{fill:url(#SVGID_00000075121208748868172810000005657725156047480467_);}
	.st22{fill:url(#SVGID_00000030447675187898613060000012829518377118237872_);}
	.st23{fill:url(#SVGID_00000178906561777343089530000011878059433528973442_);}
	.st24{fill:url(#SVGID_00000114769841806328981490000000030712855440986525_);}
	.st25{fill:url(#SVGID_00000070832461465853855480000004646383763216380551_);}
	.st26{fill:url(#SVGID_00000034807292924872208880000003075106655274080396_);}
	.st27{fill:url(#SVGID_00000124882182131091779240000016149732554904288696_);}
	.st28{fill:url(#SVGID_00000101061162973988968900000016822602898286699400_);}
	.st29{fill:url(#SVGID_00000074432752912815675200000001621423718156881563_);}
</style>
<path class="st0" d="M19.51,14.67c-0.27,0.54,0.39,0.89,0.21,2.05c-0.1,0.63-0.44,1.43-1.05,2.05c-0.35,0.36-0.46,0.32-0.53,0.52
	c-0.26,0.72,1.09,1.43,2.2,3.08c1.09,1.63,1.08,2.87,1.53,2.85c0.46-0.02,0.38-1.3,1.56-3.16c0.58-0.91,1-1.56,1.84-2.05
	c0.63-0.36,1.24-0.48,1.24-0.76c0-0.25-0.5-0.28-1.11-0.75c-0.04-0.03-0.91-0.72-1.21-1.8c-0.27-0.97,0.19-1.28-0.07-1.81
	C23.51,13.64,20.07,13.57,19.51,14.67z"/>
<path class="st0" d="M22.43,16.48h-1.38c-1.58,0-2.86-1.28-2.86-2.86V7.95c0-1.58,1.28-2.86,2.86-2.86h1.38
	c1.58,0,2.86,1.28,2.86,2.86v5.67C25.3,15.2,24.01,16.48,22.43,16.48z"/>
<path d="M18.2,10.03c-0.18-0.11-0.44-0.3-0.66-0.6c-0.06-0.08-0.33-0.46-0.42-1.04c-0.06-0.39-0.01-0.69,0-0.76
	c0.03-0.19,0.1-0.58,0.39-0.92c0.1-0.11,0.3-0.35,0.63-0.41c0.14-0.02,0.27,0,0.35,0.02c0.03-0.01,0.14-0.06,0.24-0.01
	c0.18,0.09,0.15,0.42,0.09,0.45c-0.02,0.01-0.03-0.01-0.06,0c-0.04,0.02-0.06,0.07-0.07,0.1c-0.43,1.63-0.48,2.94-0.48,2.94
	C18.2,9.9,18.2,9.97,18.2,10.03z"/>
<path class="st0" d="M18.57,9.81c-0.06-0.06-0.27-0.26-0.59-0.32c-0.09-0.02-0.41-0.07-0.56,0.11c-0.1,0.12-0.07,0.28-0.02,0.56
	c0.1,0.51,0.3,0.85,0.35,0.94c0.16,0.26,0.28,0.46,0.53,0.6c0.15,0.08,0.34,0.19,0.48,0.12C19.13,11.65,19.16,10.4,18.57,9.81z"/>
<path d="M18.07,3.15c-0.12,0.07-0.7,0.4-0.86,1.05c-0.1,0.41,0.01,0.78,0.08,1c0.04,0.13,0.15,0.46,0.42,0.8
	c0.13,0.16,0.43,0.53,0.95,0.73c0.33,0.13,0.59,0.13,0.94,0.13c0.18,0,0.82-0.01,1.64-0.27c0.47-0.15,0.58-0.25,0.89-0.24
	c0.39,0.02,0.7,0.19,0.85,0.27c0.36,0.21,0.35,0.33,0.62,0.5c0.58,0.38,1.52,0.37,1.94-0.08c0.15-0.16,0.24-0.39,0.27-0.46
	c0.06-0.15,0.16-0.38,0.14-0.63c-0.05-0.52-0.64-0.83-0.74-0.88c-0.53-0.28-1.09-0.2-1.44-0.15c-0.61,0.09-0.73,0.28-1.15,0.21
	c-0.38-0.06-0.66-0.28-0.82-0.4c-0.32-0.25-0.38-0.42-0.71-0.79c-0.18-0.2-0.48-0.53-0.85-0.74C19.69,2.89,18.8,2.73,18.07,3.15z"/>
<path d="M25.08,10.12c0.2-0.06,0.48-0.17,0.74-0.38c0,0,0.01-0.01,0.02-0.02c0.76-0.63,0.83-1.47,0.83-1.47
	c0.04-0.55-0.18-0.96-0.26-1.1c-0.19-0.32-0.6-0.78-0.86-0.67c-0.04,0.02-0.19,0.09-0.22,0.53C25.3,7,25.2,6.94,25.1,6.96
	c-0.19,0.04-0.21,0.32-0.15,0.36c0.02,0.01,0.03,0,0.06,0.01c0,0,0.04,0.02,0.05,0.09C25.08,7.55,25.08,9.91,25.08,10.12z"/>
<g>
	<polygon class="st1" points="1,87.08 32.56,63.84 57.91,72.45 98.17,42.92 58.54,74.88 33.11,66.6 1,90.36 	"/>
	<polygon class="st1" points="94.37,41.84 98.36,46.73 99,42.04 	"/>
</g>
<path class="st0" d="M24.97,9.81c0.06-0.06,0.27-0.26,0.59-0.32c0.09-0.02,0.41-0.07,0.56,0.11c0.1,0.12,0.07,0.28,0.02,0.56
	c-0.1,0.51-0.3,0.85-0.35,0.94c-0.16,0.26-0.28,0.46-0.53,0.6c-0.15,0.08-0.34,0.19-0.48,0.12C24.41,11.65,24.38,10.4,24.97,9.81z"
	/>
<g>
	<path class="st2" d="M77.15,98.44H42.42c-1.42,0-2.58-1.15-2.58-2.58V48.32c0-1.42,1.15-2.58,2.58-2.58h34.73
		c1.42,0,2.58,1.15,2.58,2.58v47.54C79.72,97.28,78.57,98.44,77.15,98.44z"/>
	<rect x="43.36" y="49.42" class="st3" width="33.48" height="11.85"/>
	<path class="st4" d="M66.98,67.04H43.93c-0.31,0-0.57-0.25-0.57-0.57v-1.75c0-0.31,0.25-0.57,0.57-0.57h23.05
		c0.31,0,0.57,0.25,0.57,0.57v1.75C67.55,66.79,67.3,67.04,66.98,67.04z"/>
	<path class="st5" d="M76.52,67.04h-7.05c-0.18,0-0.32-0.14-0.32-0.32v-2.24c0-0.18,0.14-0.32,0.32-0.32h7.05
		c0.18,0,0.32,0.14,0.32,0.32v2.24C76.84,66.9,76.7,67.04,76.52,67.04z"/>
	<path class="st4" d="M76.34,76.17h-6.68c-0.28,0-0.51-0.23-0.51-0.51v-6.2c0-0.28,0.23-0.51,0.51-0.51h6.68
		c0.28,0,0.51,0.23,0.51,0.51v6.2C76.84,75.94,76.61,76.17,76.34,76.17z"/>
	<g>
		<path class="st6" d="M50.19,76.17h-6.23c-0.27,0-0.49-0.22-0.49-0.49v-6.23c0-0.27,0.22-0.49,0.49-0.49h6.23
			c0.27,0,0.49,0.22,0.49,0.49v6.23C50.68,75.95,50.46,76.17,50.19,76.17z"/>
		<path class="st6" d="M58.68,76.17h-6.23c-0.27,0-0.49-0.22-0.49-0.49v-6.23c0-0.27,0.22-0.49,0.49-0.49h6.23
			c0.27,0,0.49,0.22,0.49,0.49v6.23C59.17,75.95,58.95,76.17,58.68,76.17z"/>
		<path class="st6" d="M67.17,76.17h-6.23c-0.27,0-0.49-0.22-0.49-0.49v-6.23c0-0.27,0.22-0.49,0.49-0.49h6.23
			c0.27,0,0.49,0.22,0.49,0.49v6.23C67.66,75.95,67.44,76.17,67.17,76.17z"/>
	</g>
	<g>
		<path class="st6" d="M50.19,84.82h-6.23c-0.27,0-0.49-0.22-0.49-0.49V78.1c0-0.27,0.22-0.49,0.49-0.49h6.23
			c0.27,0,0.49,0.22,0.49,0.49v6.23C50.68,84.6,50.46,84.82,50.19,84.82z"/>
		<path class="st6" d="M58.68,84.82h-6.23c-0.27,0-0.49-0.22-0.49-0.49V78.1c0-0.27,0.22-0.49,0.49-0.49h6.23
			c0.27,0,0.49,0.22,0.49,0.49v6.23C59.17,84.6,58.95,84.82,58.68,84.82z"/>
		<path class="st6" d="M67.17,84.82h-6.23c-0.27,0-0.49-0.22-0.49-0.49V78.1c0-0.27,0.22-0.49,0.49-0.49h6.23
			c0.27,0,0.49,0.22,0.49,0.49v6.23C67.66,84.6,67.44,84.82,67.17,84.82z"/>
	</g>
	<g>
		<path class="st6" d="M50.19,93.47h-6.23c-0.27,0-0.49-0.22-0.49-0.49v-6.23c0-0.27,0.22-0.49,0.49-0.49h6.23
			c0.27,0,0.49,0.22,0.49,0.49v6.23C50.68,93.25,50.46,93.47,50.19,93.47z"/>
		<path class="st6" d="M58.68,93.47h-6.23c-0.27,0-0.49-0.22-0.49-0.49v-6.23c0-0.27,0.22-0.49,0.49-0.49h6.23
			c0.27,0,0.49,0.22,0.49,0.49v6.23C59.17,93.25,58.95,93.47,58.68,93.47z"/>
		<path class="st6" d="M67.17,93.47h-6.23c-0.27,0-0.49-0.22-0.49-0.49v-6.23c0-0.27,0.22-0.49,0.49-0.49h6.23
			c0.27,0,0.49,0.22,0.49,0.49v6.23C67.66,93.25,67.44,93.47,67.17,93.47z"/>
	</g>
	<path class="st4" d="M76.09,93.47H69.9c-0.41,0-0.75-0.34-0.75-0.75V78.36c0-0.41,0.34-0.75,0.75-0.75h6.19
		c0.41,0,0.75,0.34,0.75,0.75v14.36C76.84,93.13,76.51,93.47,76.09,93.47z"/>
	<path class="st7" d="M63.39,49.42l-4.65,11.85c1.92,0,3.84,0,5.77,0c1.55-3.95,3.1-7.9,4.65-11.85H63.39z"/>
</g>
<path class="st8" d="M18.49,19.35l-5.78,0.59L7.41,34.05c1.86,3.4,3.71,6.79,5.57,10.19l0.49-6.62L12.05,35l1.2-3.2l4.94-6.31
	L18.49,19.35z"/>
<path class="st0" d="M40.47,44.1c0.27,0.89,0.53,1.77,0.8,2.66c0.44-0.27,0.89-0.53,1.33-0.8c2.39,0.11,4.79,0.22,7.18,0.33
	l-6.33-1.91c-0.28-0.36-0.57-0.72-0.85-1.08C41.89,43.57,41.18,43.83,40.47,44.1z"/>
<path class="st8" d="M25.73,18.9c2.34-0.03,4.67-0.06,7.01-0.1c1.51,4.71,3.03,9.42,4.54,14.13c1.86,3.55,3.72,7.09,5.58,10.64
	c-0.8,0.18-1.6,0.35-2.39,0.53c-1.77-2.57-3.55-5.14-5.32-7.71c-1.54-2.97-3.07-5.94-4.61-8.91l-0.7,18.82H12.95l0.17-25.4
	c-0.14-0.32-0.27-0.64-0.41-0.96c1.86-0.28,3.73-0.57,5.59-0.85c1.14,1.56,2.27,3.12,3.41,4.68C23.05,22.14,24.39,20.52,25.73,18.9z
	"/>
<polygon class="st0" points="37.29,90.57 37.73,93.43 35.74,93.79 34.88,90.41 "/>
<polygon class="st0" points="11.9,90.67 11.74,93.71 13.76,93.9 14.29,90.29 "/>
<path class="st9" d="M12.95,45.88l-0.62,22.29l-0.98,22.92h3.61l2.14-19.61l4.34-22.73l5.32,16.36l1.96,5.68l5.63,19.8l4.1,0.06
	L33.8,71.29c-1.32-8.44-2.64-16.89-3.97-25.33C24.21,45.93,18.58,45.91,12.95,45.88z"/>
<polygon class="st10" points="11.74,93.71 9.57,95.4 1.68,98.34 13.01,98.34 13.94,98.34 14.29,96.02 14.29,93.71 "/>
<polygon class="st10" points="37.94,93.34 40.1,95.17 47.99,98.34 36.66,98.34 35.74,98.34 35.39,95.84 35.39,93.34 "/>
<path class="st7" d="M20.45,13.9h2.59c-0.07,0.12-0.53,0.92-1.29,0.92C20.98,14.82,20.52,14.02,20.45,13.9z"/>
<polyline class="st11" points="21.56,11.13 21.18,12.22 21.74,12.87 "/>
<circle class="st12" cx="23.28" cy="10.48" r="0.25"/>
<circle class="st12" cx="20.08" cy="10.48" r="0.25"/>
<g>
	<g>
		<path class="st12" d="M12.95,28.3c0.3,4.69,0.31,9.38,0.17,14.07C12.72,37.69,12.71,32.99,12.95,28.3L12.95,28.3z"/>
	</g>
	<g>
		<path class="st12" d="M12.98,32.73c-0.19,0.82-0.53,1.56-0.86,2.31l-0.01-0.18c0.36,0.66,0.72,1.32,0.97,2.05
			c-0.54-0.6-0.95-1.27-1.36-1.94C12.09,34.2,12.45,33.43,12.98,32.73L12.98,32.73z"/>
	</g>
	<g>
		<path class="st12" d="M18.19,10.82c0.18,3.03-0.26,4.85,3.29,5.66C17.82,16.43,17.65,13.76,18.19,10.82L18.19,10.82z"/>
	</g>
	<g>
		<path class="st12" d="M18.3,19.09c-1.84,0.42-3.7,0.74-5.56,1.04L12.89,20c-0.4,1.11-0.84,2.2-1.26,3.3
			c-0.45,1.09-0.9,2.18-1.4,3.25c0.33-1.14,0.71-2.25,1.09-3.37c0.42-1.14,0.81-2.29,1.26-3.42C14.47,19.49,16.38,19.23,18.3,19.09
			L18.3,19.09z"/>
	</g>
</g>
<g>
	<path class="st12" d="M42.86,43.57c0.23,0.24,0.44,0.5,0.67,0.76l-0.05-0.04c2.15,0.51,4.27,1.13,6.3,2.01
		c-2.18-0.4-4.29-1.05-6.36-1.81c0,0-0.04-0.02-0.04-0.02C43.21,44.17,43.02,43.88,42.86,43.57L42.86,43.57z"/>
</g>
<linearGradient id="SVGID_1_" gradientUnits="userSpaceOnUse" x1="35.7126" y1="17.0514" x2="35.7126" y2="13.3784">
	<stop  offset="0.2901" style="stop-color:#A8E1FF"/>
	<stop  offset="0.8464" style="stop-color:#DCFDFE"/>
</linearGradient>
<ellipse class="st13" cx="35.71" cy="15.21" rx="3.74" ry="1.84"/>
<linearGradient id="SVGID_00000065047994507243448170000017009904862476183727_" gradientUnits="userSpaceOnUse" x1="29.6225" y1="13.1085" x2="29.6225" y2="10.9539">
	<stop  offset="0.3935" style="stop-color:#A8E1FF"/>
	<stop  offset="1" style="stop-color:#DCFDFE"/>
</linearGradient>
<ellipse style="fill:url(#SVGID_00000065047994507243448170000017009904862476183727_);" cx="29.62" cy="12.03" rx="1.71" ry="1.08"/>
<linearGradient id="SVGID_00000075124098769991806060000001243948155314581651_" gradientUnits="userSpaceOnUse" x1="69.7646" y1="1.9222" x2="69.7646" y2="43.5862">
	<stop  offset="0.2901" style="stop-color:#A8E1FF"/>
	<stop  offset="0.8464" style="stop-color:#DCFDFE"/>
</linearGradient>
<path style="fill:url(#SVGID_00000075124098769991806060000001243948155314581651_);" d="M74.92,4c1.15-0.61,8.25-4.21,15.5-0.23
	c1.19,0.65,7.55,4.14,8.86,11.68c0.47,2.7,0.14,5.04-0.2,6.54c0.06,1.51,0.22,8.54-4.23,13.78c-3.17,3.73-6.93,4.5-10.07,5.14
	c-2.25,0.46-7.56,1.54-11.88-1.87c-0.35-0.27-0.62-0.52-0.81-0.7c-1.53,1.34-3.97,3.13-7.25,4.2c-1.39,0.46-11.07,3.43-17.51-3.27
	c-0.39-0.41-5.59-5.95-4.63-11.91c0.06-0.39,0.14-0.71,0.2-0.93c-0.59-0.51-2-1.86-2.62-4.2c-0.6-2.26-0.12-4.17,0.2-5.37
	c1.45-5.46,5.86-7.97,6.24-8.17c4.9-2.67,9.55-0.37,10.27,0c0.19-0.23,0.46-0.56,0.81-0.93c1.98-2.17,3.86-3.29,4.23-3.5
	c0.86-0.51,2.72-1.57,5.23-1.87C70.74,1.95,73.51,3.21,74.92,4z"/>
<g>
	<defs>
		<path id="SVGID_00000007398448046679605720000002276101646265689221_" d="M74.91,4.05c1.15-0.61,8.25-4.2,15.5-0.23
			c1.19,0.65,7.55,4.13,8.86,11.66c0.47,2.7,0.14,5.03-0.2,6.53c0.06,1.51,0.22,8.53-4.23,13.76c-3.17,3.72-6.93,4.49-10.07,5.13
			c-2.25,0.46-7.56,1.54-11.88-1.87c-0.35-0.27-0.62-0.52-0.81-0.7c-1.53,1.34-3.97,3.13-7.25,4.2c-1.39,0.45-11.07,3.43-17.51-3.27
			c-0.39-0.41-5.59-5.95-4.63-11.9c0.06-0.39,0.14-0.71,0.2-0.93c-0.59-0.5-2-1.86-2.62-4.2c-0.6-2.26-0.12-4.17,0.2-5.37
			c1.45-5.46,5.86-7.96,6.24-8.16c4.9-2.67,9.55-0.37,10.27,0c0.19-0.23,0.46-0.56,0.81-0.93c1.98-2.16,3.86-3.28,4.23-3.5
			c0.86-0.5,2.72-1.57,5.23-1.87C70.72,2,73.5,3.25,74.91,4.05z"/>
	</defs>
	<clipPath id="SVGID_00000049919889115005488600000000400762911517167749_">
		<use xlink:href="#SVGID_00000007398448046679605720000002276101646265689221_"  style="overflow:visible;"/>
	</clipPath>
	<g style="clip-path:url(#SVGID_00000049919889115005488600000000400762911517167749_);">
		<path class="st0" d="M59.37,28.09c-0.39,0.79,0.56,1.29,0.3,2.96c-0.15,0.91-0.64,2.07-1.51,2.96c-0.51,0.52-0.66,0.46-0.77,0.75
			c-0.38,1.04,1.57,2.06,3.16,4.45c1.57,2.35,1.55,4.16,2.2,4.13c0.66-0.03,0.54-1.89,2.25-4.58c0.83-1.31,1.43-2.26,2.64-2.96
			c0.9-0.52,1.78-0.69,1.78-1.09c0-0.37-0.72-0.41-1.6-1.08c-0.06-0.05-1.31-1.04-1.74-2.6c-0.38-1.4,0.27-1.84-0.1-2.61
			C65.11,26.6,60.17,26.49,59.37,28.09z"/>
		<path class="st0" d="M63.55,30.7H61.6c-2.28,0-4.13-1.85-4.13-4.13v-8.23c0-2.28,1.85-4.13,4.13-4.13h1.95
			c2.28,0,4.13,1.85,4.13,4.13v8.23C67.68,28.85,65.83,30.7,63.55,30.7z"/>
		<path d="M57.49,21.37c-0.26-0.16-0.63-0.43-0.95-0.87c-0.08-0.12-0.48-0.66-0.61-1.5c-0.09-0.56-0.02-1,0-1.1
			c0.05-0.27,0.15-0.84,0.56-1.33c0.14-0.16,0.44-0.51,0.91-0.59c0.21-0.03,0.38-0.01,0.5,0.02c0.05-0.02,0.2-0.09,0.34-0.02
			c0.25,0.13,0.22,0.61,0.12,0.65c-0.02,0.01-0.05-0.01-0.09,0c-0.06,0.02-0.09,0.11-0.1,0.14c-0.61,2.35-0.68,4.25-0.68,4.25
			C57.49,21.18,57.49,21.29,57.49,21.37z"/>
		<path class="st0" d="M58.01,21.05c-0.09-0.09-0.39-0.38-0.85-0.46c-0.13-0.02-0.59-0.1-0.8,0.15c-0.14,0.17-0.1,0.4-0.02,0.81
			c0.14,0.73,0.43,1.23,0.5,1.35c0.23,0.38,0.4,0.67,0.76,0.87c0.21,0.12,0.48,0.27,0.69,0.17C58.83,23.71,58.87,21.91,58.01,21.05z
			"/>
		<path d="M57.3,11.42c-0.17,0.1-1,0.58-1.23,1.52c-0.14,0.6,0.01,1.12,0.11,1.45c0.06,0.19,0.22,0.66,0.61,1.16
			c0.18,0.23,0.61,0.77,1.36,1.06c0.47,0.18,0.84,0.18,1.35,0.18c0.26,0,1.18-0.02,2.36-0.4c0.68-0.22,0.83-0.36,1.28-0.35
			c0.56,0.02,1,0.28,1.21,0.4c0.52,0.3,0.51,0.48,0.89,0.73c0.83,0.55,2.19,0.53,2.79-0.12c0.21-0.23,0.35-0.56,0.39-0.66
			c0.09-0.21,0.23-0.56,0.2-0.91c-0.07-0.75-0.92-1.2-1.07-1.27c-0.76-0.4-1.57-0.29-2.07-0.21c-0.88,0.13-1.04,0.4-1.66,0.3
			c-0.55-0.09-0.95-0.4-1.18-0.58c-0.46-0.36-0.54-0.61-1.02-1.14c-0.26-0.29-0.69-0.77-1.21-1.07
			C59.63,11.05,58.35,10.81,57.3,11.42z"/>
		<path d="M67.37,21.49c0.28-0.08,0.68-0.24,1.06-0.55c0,0,0.02-0.01,0.03-0.03c1.1-0.91,1.19-2.12,1.19-2.12
			c0.06-0.79-0.26-1.39-0.38-1.59c-0.27-0.46-0.86-1.12-1.23-0.97c-0.05,0.02-0.28,0.13-0.31,0.77c-0.04-0.03-0.19-0.11-0.33-0.07
			c-0.27,0.06-0.3,0.47-0.22,0.52c0.02,0.01,0.05,0,0.08,0.02c0,0,0.06,0.03,0.07,0.13C67.37,17.78,67.37,21.2,67.37,21.49z"/>
		<path class="st0" d="M67.22,21.05c0.09-0.09,0.39-0.38,0.85-0.46c0.13-0.02,0.59-0.1,0.8,0.15c0.14,0.17,0.1,0.4,0.02,0.81
			c-0.14,0.73-0.43,1.23-0.5,1.35c-0.23,0.38-0.4,0.67-0.76,0.87c-0.21,0.12-0.48,0.27-0.69,0.17
			C66.41,23.71,66.36,21.91,67.22,21.05z"/>
		<path class="st8" d="M57.91,34.85L49.6,35.7l-7.6,20.42c2.67,4.91,5.33,9.82,8,14.73l0.71-9.57l-2.04-3.8l1.73-4.64l7.09-9.13
			L57.91,34.85z"/>
		<path class="st8" d="M68.3,34.2c3.36-0.05,6.72-0.09,10.07-0.14c2.17,6.81,4.35,13.63,6.52,20.44c2.67,5.13,5.35,10.26,8.02,15.38
			c-1.15,0.26-2.29,0.51-3.44,0.77c-2.55-3.72-5.09-7.44-7.64-11.15c-2.21-4.3-4.41-8.59-6.62-12.89l-1,27.22H49.95l0.24-36.74
			c-0.2-0.46-0.39-0.92-0.59-1.38c2.68-0.41,5.35-0.82,8.03-1.23c1.63,2.26,3.27,4.51,4.9,6.77C64.45,38.89,66.37,36.54,68.3,34.2z"
			/>
		<path class="st7" d="M60.72,26.96h3.72c-0.1,0.17-0.76,1.32-1.86,1.33C61.48,28.29,60.81,27.13,60.72,26.96z"/>
		<polyline class="st11" points="62.31,22.95 61.77,24.54 62.58,25.47 		"/>
		<ellipse class="st12" cx="64.79" cy="22.02" rx="0.35" ry="0.36"/>
		<ellipse class="st12" cx="60.19" cy="22.02" rx="0.35" ry="0.36"/>
		<g>
			<g>
				<path class="st12" d="M49.95,47.79c0.3,6.56,0.33,13.79,0.24,20.36C49.73,61.48,49.73,54.47,49.95,47.79L49.95,47.79z"/>
			</g>
			<g>
				<path class="st12" d="M49.98,54.2c-0.34,1.15-0.83,2.23-1.32,3.31l-0.01-0.18c0.53,0.95,1.06,1.9,1.46,2.92
					c-0.7-0.89-1.28-1.85-1.86-2.81C48.79,56.34,49.31,55.23,49.98,54.2L49.98,54.2z"/>
			</g>
			<g>
				<path class="st12" d="M57.48,22.52c0.15,4.41-0.49,7.11,4.73,8.19C56.9,30.41,56.89,26.81,57.48,22.52L57.48,22.52z"/>
			</g>
			<g>
				<path class="st12" d="M57.63,34.47c-2.66,0.54-5.32,1-8,1.42l0.15-0.12c-0.58,1.6-1.2,3.19-1.81,4.78
					c-0.63,1.58-1.27,3.16-1.94,4.73c0.52-1.62,1.06-3.24,1.63-4.84c0.6-1.63,1.17-3.28,1.8-4.9
					C52.18,35.12,54.89,34.75,57.63,34.47L57.63,34.47z"/>
			</g>
		</g>
		<path class="st10" d="M62.78,22.34c0.05-0.61,0.78-0.97,1.28-1.22c1.47-0.76,3.67-0.86,4.14,0.07c0.26,0.52-0.1,1.19-0.31,1.56
			c-0.04,0.07-0.94,1.71-2.56,1.63C64.05,24.31,62.71,23.19,62.78,22.34z"/>
		<rect x="61.66" y="22.42" class="st10" width="1.87" height="0.33"/>
		<path class="st10" d="M62.37,22.28c-0.05-0.61-0.78-0.97-1.28-1.22c-1.47-0.76-3.67-0.86-4.14,0.07c-0.26,0.52,0.1,1.19,0.31,1.56
			c0.04,0.07,0.94,1.71,2.56,1.63C61.1,24.25,62.44,23.13,62.37,22.28z"/>
	</g>
</g>
<g>
	
		<linearGradient id="SVGID_00000022522412300844934630000010468901231313225348_" gradientUnits="userSpaceOnUse" x1="60.006" y1="9.0367" x2="80.5935" y2="9.0367" gradientTransform="matrix(0.9611 0.2763 -0.2763 0.9611 17.1882 -18.8729)">
		<stop  offset="0" style="stop-color:#FFC174"/>
		<stop  offset="0" style="stop-color:#F6BA6D"/>
		<stop  offset="0.7256" style="stop-color:#6A4500"/>
	</linearGradient>
	<path style="fill:url(#SVGID_00000022522412300844934630000010468901231313225348_);" d="M92.55,10.68l-0.59,1.9
		c-0.33,1.05-5.03,0.72-10.52-0.75s-9.66-3.51-9.34-4.56l0.59-1.9c0.23-0.76,4.87-0.18,10.35,1.28S92.78,9.92,92.55,10.68z"/>
	
		<ellipse transform="matrix(0.2575 -0.9663 0.9663 0.2575 53.5673 85.8009)" class="st20" cx="82.62" cy="8.04" rx="1.55" ry="10.28"/>
</g>
<g>
	
		<linearGradient id="SVGID_00000042700912598383221150000009737771721447584932_" gradientUnits="userSpaceOnUse" x1="67.2031" y1="34.8964" x2="87.7905" y2="34.8964" gradientTransform="matrix(0.9917 -0.1285 0.1285 0.9917 1.4546 10.1246)">
		<stop  offset="0" style="stop-color:#FFC174"/>
		<stop  offset="0" style="stop-color:#F6BA6D"/>
		<stop  offset="0.7256" style="stop-color:#6A4500"/>
	</linearGradient>
	<path style="fill:url(#SVGID_00000042700912598383221150000009737771721447584932_);" d="M92.81,32l0.22,1.98
		c0.12,1.1-4.33,2.66-9.95,3.49C77.47,38.31,72.82,38.1,72.7,37l-0.22-1.98c-0.09-0.79,4.39-2.1,10.01-2.94
		C88.11,31.25,92.73,31.21,92.81,32z"/>
	
		<ellipse transform="matrix(0.989 -0.1478 0.1478 0.989 -4.0481 12.5815)" class="st20" cx="82.65" cy="33.53" rx="10.28" ry="1.55"/>
</g>
<g>
	
		<linearGradient id="SVGID_00000171701588510129347880000005991207109340352955_" gradientUnits="userSpaceOnUse" x1="86.8883" y1="20.4152" x2="107.5201" y2="20.4152" gradientTransform="matrix(0.9809 -0.1946 0.1946 0.9809 -14.6117 19.7458)">
		<stop  offset="0" style="stop-color:#FFC174"/>
		<stop  offset="0" style="stop-color:#F6BA6D"/>
		<stop  offset="0.7256" style="stop-color:#6A4500"/>
	</linearGradient>
	<path style="fill:url(#SVGID_00000171701588510129347880000005991207109340352955_);" d="M94.58,17.74l0.41,1.94
		c0.23,1.07-4.12,2.78-9.72,3.82c-5.6,1.03-10.32,1-10.55-0.08l-0.41-1.94c-0.16-0.77,4.24-2.24,9.83-3.27
		C89.74,17.18,94.41,16.97,94.58,17.74z"/>
	
		<ellipse transform="matrix(0.9835 -0.1809 0.1809 0.9835 -2.1581 15.6002)" class="st20" cx="84.45" cy="19.63" rx="10.3" ry="1.55"/>
</g>
<g>
	
		<linearGradient id="SVGID_00000096040893722428388240000004057493954530492295_" gradientUnits="userSpaceOnUse" x1="68.1743" y1="28.7508" x2="88.7617" y2="28.7508" gradientTransform="matrix(0.9881 0.1539 -0.1539 0.9881 11.8108 -10.15)">
		<stop  offset="0" style="stop-color:#FFC174"/>
		<stop  offset="0" style="stop-color:#F6BA6D"/>
		<stop  offset="0.7256" style="stop-color:#6A4500"/>
	</linearGradient>
	<path style="fill:url(#SVGID_00000096040893722428388240000004057493954530492295_);" d="M95.32,30.47l-0.35,1.96
		c-0.19,1.09-4.9,1.34-10.53,0.57c-5.62-0.77-10.03-2.27-9.84-3.36l0.35-1.96c0.14-0.78,4.81-0.79,10.43-0.02
		C91.01,28.44,95.45,29.69,95.32,30.47z"/>
	
		<ellipse transform="matrix(0.1346 -0.9909 0.9909 0.1346 44.8344 109.5405)" class="st20" cx="85.13" cy="29.1" rx="1.55" ry="10.28"/>
</g>
</svg>
