<?xml version="1.0" encoding="utf-8"?>
<!-- Generator: Adobe Illustrator 26.0.1, SVG Export Plug-In . SVG Version: 6.00 Build 0)  -->
<svg version="1.1" id="Layer_1" xmlns="http://www.w3.org/2000/svg" xmlns:xlink="http://www.w3.org/1999/xlink" x="0px" y="0px"
	 viewBox="0 0 100 100" style="enable-background:new 0 0 100 100;" xml:space="preserve">
<style type="text/css">
	.st0{fill:url(#SVGID_1_);}
	.st1{fill:url(#SVGID_00000132794471917524543150000004076366966253508797_);}
	.st2{fill:#F3FCFF;}
	.st3{fill:#48AE52;}
	.st4{fill:none;stroke:#48AE52;stroke-width:0.5;stroke-miterlimit:10;}
	.st5{fill:#FF5E33;}
	.st6{fill:none;stroke:#FF5E33;stroke-width:0.5;stroke-miterlimit:10;}
	.st7{fill:#FFBA9F;}
	.st8{fill:#336DFF;}
	.st9{fill:#011435;}
	.st10{fill:#242528;}
	.st11{fill:#FFFFFF;}
	.st12{fill:none;stroke:#58595B;stroke-width:5.000000e-02;stroke-miterlimit:10;}
	.st13{fill:#414042;}
</style>
<g>
	
		<linearGradient id="SVGID_1_" gradientUnits="userSpaceOnUse" x1="49.8236" y1="1037.5317" x2="84.8945" y2="976.7869" gradientTransform="matrix(1 0 0 1 0 -978)">
		<stop  offset="0.3935" style="stop-color:#A8E1FF"/>
		<stop  offset="1" style="stop-color:#DCFDFE"/>
	</linearGradient>
	<path class="st0" d="M95.7,52.8h-57c-1.3,0-2.2-1-2.2-2.2V8.3C36.5,6.4,38,5,39.9,5h54.8c1.9,0,3.4,1.6,3.4,3.4v42.1
		C98.1,51.8,97,52.8,95.7,52.8z"/>
	
		<linearGradient id="SVGID_00000052106319255615447280000014619537463020855222_" gradientUnits="userSpaceOnUse" x1="36.5316" y1="985.1346" x2="98.0783" y2="985.1346" gradientTransform="matrix(1 0 0 1 0 -978)">
		<stop  offset="1.978731e-03" style="stop-color:#27B0FC"/>
		<stop  offset="1" style="stop-color:#63CEF9"/>
	</linearGradient>
	<path style="fill:url(#SVGID_00000052106319255615447280000014619537463020855222_);" d="M98.1,10.1H36.5V6.4c0-1.3,1-2.2,2.2-2.2
		h57c1.3,0,2.2,1,2.2,2.2L98.1,10.1L98.1,10.1z"/>
	<rect x="39.2" y="17.3" class="st2" width="23.6" height="1.3"/>
	<rect x="38.9" y="12.1" class="st2" width="32.2" height="2.2"/>
	<rect x="39.2" y="19.6" class="st2" width="23.5" height="1.3"/>
	<rect x="49.7" y="42.7" class="st2" width="46.1" height="1.3"/>
	<rect x="47.3" y="45" class="st2" width="48.4" height="1.3"/>
	<rect x="43.1" y="47.3" class="st2" width="52.7" height="1.3"/>
	<ellipse class="st3" cx="41.3" cy="38.1" rx="0.8" ry="0.8"/>
	<ellipse class="st3" cx="49.9" cy="31.2" rx="0.9" ry="0.8"/>
	<ellipse class="st3" cx="59.2" cy="27.4" rx="0.9" ry="0.8"/>
	<ellipse class="st3" cx="68.5" cy="24.2" rx="0.9" ry="0.8"/>
	<ellipse class="st3" cx="77.7" cy="17.3" rx="0.9" ry="0.8"/>
	<ellipse class="st3" cx="86.4" cy="12" rx="0.9" ry="0.8"/>
	<polyline class="st4" points="41.3,38.1 49.9,31.2 59.2,27.4 68.5,24.2 77.7,17.3 86.4,12 	"/>
	<ellipse class="st5" cx="41.4" cy="40.7" rx="0.8" ry="0.8"/>
	<ellipse class="st5" cx="50.1" cy="39" rx="0.9" ry="0.8"/>
	<ellipse class="st5" cx="59.7" cy="37.3" rx="0.9" ry="0.8"/>
	<ellipse class="st5" cx="69.2" cy="37.3" rx="0.9" ry="0.8"/>
	<ellipse class="st5" cx="78.1" cy="35.5" rx="0.9" ry="0.8"/>
	<ellipse class="st5" cx="87.3" cy="35" rx="0.9" ry="0.8"/>
	<polyline class="st6" points="41.4,40.7 50.1,39 59.7,37.3 69.2,37.3 78.1,35.5 87.3,35 	"/>
</g>
<g>
	<g>
		<path class="st7" d="M18,14.4c-0.3,0.5,0.4,0.9,0.2,2c-0.1,0.6-0.4,1.4-1,2c-0.4,0.4-0.5,0.3-0.5,0.5c-0.3,0.7,1.1,1.4,2.2,3
			s1.1,2.8,1.5,2.8s0.4-1.3,1.5-3.1c0.6-0.9,1-1.5,1.8-2c0.6-0.4,1.2-0.5,1.2-0.8c0-0.2-0.5-0.3-1.1-0.7c0,0-0.9-0.7-1.2-1.8
			c-0.3-0.9,0.2-1.3-0.1-1.8C21.9,13.4,18.5,13.3,18,14.4z"/>
		<path class="st7" d="M20.9,16.2h-1.4c-1.6,0-2.8-1.3-2.8-2.8V7.8C16.7,6.2,18,5,19.5,5h1.4c1.6,0,2.8,1.3,2.8,2.8v5.6
			C23.7,14.9,22.4,16.2,20.9,16.2z"/>
		<path d="M16.7,9.8c-0.2-0.1-0.4-0.3-0.6-0.6c-0.1-0.1-0.3-0.4-0.4-1c-0.1-0.4,0-0.7,0-0.8c0-0.2,0.1-0.6,0.4-0.9
			c0.1-0.1,0.3-0.3,0.6-0.4c0.1,0,0.3,0,0.3,0s0.1-0.1,0.2,0c0.2,0.1,0.1,0.4,0.1,0.4s0,0-0.1,0l-0.1,0.1c-0.4,1.6-0.5,2.9-0.5,2.9
			C16.7,9.7,16.7,9.8,16.7,9.8z"/>
		<path class="st7" d="M17,9.6c-0.1-0.1-0.3-0.3-0.6-0.3c-0.1,0-0.4-0.1-0.6,0.1c-0.1,0.1-0.1,0.3,0,0.6c0.1,0.5,0.3,0.8,0.3,0.9
			c0.2,0.3,0.3,0.5,0.5,0.6c0.1,0.1,0.3,0.2,0.5,0.1C17.6,11.4,17.6,10.2,17,9.6z"/>
		<path d="M16.6,3c-0.1,0.1-0.7,0.4-0.8,1c-0.1,0.4,0,0.8,0.1,1c0,0.1,0.1,0.4,0.4,0.8c0.1,0.2,0.4,0.5,0.9,0.7
			c0.3,0.1,0.6,0.1,0.9,0.1c0.2,0,0.8,0,1.6-0.3c0.5-0.2,0.6-0.2,0.9-0.2c0.4,0,0.7,0.2,0.8,0.3c0.4,0.2,0.4,0.3,0.6,0.5
			c0.6,0.4,1.5,0.4,1.9-0.1c0.1-0.2,0.2-0.4,0.3-0.4c0.1-0.1,0.2-0.4,0.1-0.6c0-0.5-0.6-0.8-0.7-0.9c-0.5-0.3-1.1-0.2-1.4-0.2
			C21.6,4.9,21.5,5.1,21,5c-0.4-0.1-0.6-0.3-0.8-0.4c-0.3-0.2-0.4-0.4-0.7-0.8c-0.2-0.2-0.5-0.5-0.8-0.7C18.2,2.8,17.3,2.6,16.6,3z"
			/>
		<path d="M23.5,9.9c0.2-0.1,0.5-0.2,0.7-0.4l0,0C25,8.9,25,8.1,25,8.1c0-0.5-0.2-0.9-0.3-1.1c-0.2-0.3-0.6-0.8-0.8-0.7
			c0,0-0.2,0.1-0.2,0.5c0,0-0.1-0.1-0.2-0.1c-0.2,0-0.2,0.3-0.1,0.3c0,0,0,0,0.1,0c0,0,0,0,0,0.1C23.5,7.4,23.5,9.7,23.5,9.9z"/>
		<path class="st7" d="M23.4,9.6c0.1-0.1,0.3-0.3,0.6-0.3c0.1,0,0.4-0.1,0.5,0.1c0.1,0.1,0.1,0.3,0,0.6c-0.1,0.5-0.3,0.8-0.3,0.9
			c-0.2,0.3-0.3,0.5-0.5,0.6c-0.1,0.1-0.3,0.2-0.5,0.1C22.8,11.4,22.8,10.2,23.4,9.6z"/>
		<path class="st8" d="M17,19l-5.7,0.6L6.1,33.5c1.8,3.3,3.7,6.7,5.5,10L12,37l-1.4-2.6l1.2-3.2l4.9-6.2L17,19z"/>
		<polygon class="st7" points="44.8,24.2 46.6,22.3 47.8,22.7 55.4,22.6 48.1,24.5 45.9,25.4 		"/>
		<path class="st8" d="M24.1,18.6c2.3,0,4.6-0.1,6.9-0.1l4.6,11.6l9.1-6.2l1.7,1.8L35,35.9L28.8,27l-0.7,18.5H11.5l0.2-25
			c-0.1-0.3-0.3-0.6-0.4-0.9c1.8-0.3,3.7-0.6,5.5-0.8c1.1,1.5,2.2,3.1,3.4,4.6C21.5,21.8,22.8,20.2,24.1,18.6z"/>
		<polygon class="st7" points="35.5,89.2 35.9,92.1 34,92.5 33.1,89 		"/>
		<polygon class="st7" points="10.5,89.3 10.3,92.2 12.3,92.4 12.8,88.9 		"/>
		<polygon class="st9" points="11.5,45.1 10.9,67.1 9.9,89.7 13.5,89.7 15.6,70.4 19.9,48 25.1,64.1 27.1,69.7 32.6,89.2 36.6,89.2 
			32.1,70.2 28.3,45.1 		"/>
		<polygon class="st10" points="10.3,92.2 8.2,94.1 0.4,97.2 11.6,97.2 12.5,97.2 12.8,94.7 12.8,92.2 		"/>
		<polygon class="st10" points="36.1,92 38.3,93.9 46,97.2 34.9,97.2 34,97.2 33.6,94.6 33.6,92 		"/>
		<path class="st11" d="M18.9,13.6h2.5c-0.1,0.1-0.5,0.9-1.3,0.9C19.4,14.5,19,13.8,18.9,13.6z"/>
		<polyline class="st12" points="20,10.9 19.6,12 20.2,12.6 		"/>
		<circle class="st13" cx="21.7" cy="10.3" r="0.2"/>
		<circle class="st13" cx="18.5" cy="10.3" r="0.2"/>
	</g>
	<g>
		<g>
			<path class="st13" d="M11.5,27.8c0.3,4.6,0.3,9.2,0.2,13.9C11.3,37.1,11.3,32.4,11.5,27.8L11.5,27.8z"/>
		</g>
		<g>
			<path class="st13" d="M11.6,32.2c-0.2,0.8-0.5,1.5-0.9,2.3v-0.2c0.4,0.7,0.7,1.3,0.9,2c-0.5-0.6-0.9-1.2-1.4-1.9
				C10.7,33.6,11,32.9,11.6,32.2L11.6,32.2z"/>
		</g>
		<g>
			<path class="st13" d="M28.6,26.6c2.3,3,4.5,6,6.7,9.1H35c1.9-1.7,3.8-3.4,5.6-5.1c1.9-1.7,3.8-3.3,5.7-5
				c-1.8,1.8-3.7,3.5-5.5,5.2c-1.9,1.8-3.8,3.5-5.8,5.3C32.9,33,30.7,29.9,28.6,26.6L28.6,26.6z"/>
		</g>
		<g>
			<path class="st13" d="M16.7,10.6c0.2,3-0.2,4.8,3.2,5.6C16.3,16.1,16.1,13.5,16.7,10.6L16.7,10.6z"/>
		</g>
		<g>
			<path class="st13" d="M44.9,24c0.5-0.6,1.1-1.3,1.7-1.9c0.3,0.1,1,0.2,1.1,0.3c2.5-0.1,5.1-0.1,7.6,0.1c-1.3,0.1-2.5,0.2-3.8,0.2
				s-2.6,0.1-3.8,0c-0.4-0.1-0.7-0.2-1.1-0.4h0.1C46.2,23,45.5,23.5,44.9,24L44.9,24z"/>
		</g>
		<g>
			<path class="st13" d="M16.8,18.7c-1.8,0.4-3.6,0.7-5.5,1l0.1-0.1c-0.4,1.1-0.8,2.2-1.2,3.2C9.8,24,9.3,25,8.8,26.1
				c0.3-1.1,0.7-2.2,1.1-3.3c0.4-1.1,0.8-2.3,1.2-3.4C13,19.1,14.9,18.9,16.8,18.7L16.8,18.7z"/>
		</g>
	</g>
</g>
</svg>
