<?xml version="1.0" encoding="utf-8"?>
<!-- Generator: Adobe Illustrator 26.0.1, SVG Export Plug-In . SVG Version: 6.00 Build 0)  -->
<svg version="1.1" id="Layer_1" xmlns="http://www.w3.org/2000/svg" xmlns:xlink="http://www.w3.org/1999/xlink" x="0px" y="0px"
	 viewBox="0 0 100 100" style="enable-background:new 0 0 100 100;" xml:space="preserve">
<style type="text/css">
	.st0{fill:url(#SVGID_1_);}
	.st1{fill:url(#SVGID_00000114053021137706178680000013988638157950093993_);}
	.st2{fill:none;stroke:#FFFFFF;stroke-width:0.5;stroke-miterlimit:10;}
	.st3{fill:none;stroke:#FFFFFF;stroke-miterlimit:10;}
	.st4{fill:url(#SVGID_00000104700240885625944930000017750798464580365459_);}
	.st5{fill:url(#SVGID_00000050624978807528176310000018213727598278944679_);}
	.st6{fill:#F3FCFF;}
	.st7{fill:none;stroke:#FFFFFF;stroke-width:0.2;stroke-miterlimit:10;}
	.st8{fill:#48AE52;}
	.st9{fill:none;stroke:#48AE52;stroke-width:0.5;stroke-miterlimit:10;}
	.st10{fill:#7B4634;}
	.st11{fill:#603222;}
	.st12{fill:#F3C943;}
	.st13{fill:#1A1A1A;}
	.st14{fill:#60321F;}
	.st15{fill:#955A47;}
	.st16{fill:#985D47;}
	.st17{fill:#F3CC46;}
	.st18{fill:#46251C;}
	.st19{fill:url(#SVGID_00000078045974719363760640000001843848743397832351_);}
	.st20{fill:#989898;}
	.st21{fill:#787878;}
	.st22{fill:#DC7100;}
	.st23{fill:#E7A900;}
	.st24{fill:#474747;}
	.st25{fill:#8E8E8E;}
</style>
<g>
	
		<linearGradient id="SVGID_1_" gradientUnits="userSpaceOnUse" x1="226.1913" y1="506.0653" x2="275.9377" y2="506.0653" gradientTransform="matrix(0.8857 0.4644 0.4644 -0.8857 -388.4587 374.141)">
		<stop  offset="0.3935" style="stop-color:#A7E0FF"/>
		<stop  offset="1" style="stop-color:#DBFCFD"/>
	</linearGradient>
	<path class="st0" d="M82.8,68.4l-43-22.5c-0.3-0.2-0.4-0.5-0.2-0.8l14.7-28.1c0.2-0.3,0.5-0.4,0.8-0.2l43,22.5
		c0.3,0.2,0.4,0.5,0.2,0.8L83.6,68.1C83.4,68.4,83.1,68.5,82.8,68.4z"/>
	
		<linearGradient id="SVGID_00000057827569161425947280000008688095044554332295_" gradientUnits="userSpaceOnUse" x1="226.1919" y1="520.6235" x2="275.9382" y2="520.6235" gradientTransform="matrix(0.8857 0.4644 0.4644 -0.8857 -388.4587 374.141)">
		<stop  offset="1.978731e-03" style="stop-color:#27AFFB"/>
		<stop  offset="1" style="stop-color:#63CDF8"/>
	</linearGradient>
	<path style="fill:url(#SVGID_00000057827569161425947280000008688095044554332295_);" d="M96.8,42.9l-44-23.1l1.5-2.8
		c0.2-0.3,0.5-0.4,0.9-0.3L98,39.2c0.3,0.2,0.4,0.5,0.3,0.9L96.8,42.9z"/>
	<line class="st2" x1="52.8" y1="19.8" x2="96.4" y2="42.7"/>
	<line class="st2" x1="50.9" y1="23.4" x2="94.5" y2="46.3"/>
	<line class="st2" x1="49" y1="27" x2="92.6" y2="49.9"/>
	<line class="st2" x1="47.1" y1="30.6" x2="90.7" y2="53.5"/>
	<line class="st2" x1="45.2" y1="34.2" x2="88.8" y2="57.1"/>
	<line class="st2" x1="43.3" y1="37.9" x2="86.9" y2="60.8"/>
	<line class="st2" x1="41.4" y1="41.5" x2="85" y2="64.4"/>
	<line class="st3" x1="39.5" y1="45.1" x2="83.1" y2="68"/>
	<line class="st2" x1="46.2" y1="48.7" x2="59.5" y2="23.3"/>
	<line class="st2" x1="50.5" y1="51" x2="63.8" y2="25.5"/>
	<line class="st2" x1="54.5" y1="53.1" x2="67.9" y2="27.6"/>
	<line class="st2" x1="58.6" y1="55.2" x2="72" y2="29.8"/>
	<line class="st2" x1="62.7" y1="57.3" x2="76" y2="31.9"/>
	<line class="st2" x1="66.8" y1="59.5" x2="80.1" y2="34"/>
	<line class="st2" x1="70.8" y1="61.6" x2="84.2" y2="36.2"/>
	<line class="st2" x1="75" y1="63.7" x2="88.3" y2="38.3"/>
	<line class="st2" x1="79" y1="65.9" x2="92.3" y2="40.5"/>
	<line class="st3" x1="83.1" y1="67.9" x2="96.4" y2="42.6"/>
</g>
<g>
	
		<linearGradient id="SVGID_00000017511042403904776510000013886676908902711997_" gradientUnits="userSpaceOnUse" x1="-639.4157" y1="-879.588" x2="-611.1487" y2="-830.6281" gradientTransform="matrix(0.9091 -0.575 -0.4895 -0.774 181.4467 -981.5139)">
		<stop  offset="0.3935" style="stop-color:#A8E1FF"/>
		<stop  offset="1" style="stop-color:#DCFDFE"/>
	</linearGradient>
	<path style="fill:url(#SVGID_00000017511042403904776510000013886676908902711997_);" d="M60.2,44L22.9,67.6
		c-0.9,0.5-2,0.3-2.5-0.6L2.5,38.8c-0.8-1.3-0.4-2.9,0.8-3.7l35.8-22.7c1.3-0.8,2.9-0.4,3.7,0.8l17.9,28.3
		C61.3,42.3,61.1,43.5,60.2,44z"/>
	
		<linearGradient id="SVGID_00000080889682152394783160000003316566014088245121_" gradientUnits="userSpaceOnUse" x1="-647.5746" y1="-836.0093" x2="-603.1261" y2="-836.0093" gradientTransform="matrix(0.9091 -0.575 -0.4895 -0.774 181.4467 -981.5139)">
		<stop  offset="1.978731e-03" style="stop-color:#27B0FC"/>
		<stop  offset="1" style="stop-color:#63CEF9"/>
	</linearGradient>
	<path style="fill:url(#SVGID_00000080889682152394783160000003316566014088245121_);" d="M43.6,14.4L3.2,39.9l-1.5-2.4
		c-0.5-0.8-0.3-2,0.6-2.5l37.3-23.6c0.8-0.5,2-0.3,2.5,0.6L43.6,14.4z"/>
	<rect x="5.1" y="32.7" transform="matrix(0.8452 -0.5345 0.5345 0.8452 -13.8293 18.7205)" class="st6" width="40.5" height="1"/>
	<rect x="3" y="29.3" transform="matrix(0.8452 -0.5345 0.5345 0.8452 -12.5119 17.1146)" class="st6" width="40.6" height="1.8"/>
	<rect x="6.1" y="34.3" transform="matrix(0.8452 -0.5345 0.5345 0.8452 -14.5021 19.4578)" class="st6" width="40.5" height="1"/>
	<rect x="7.4" y="36.7" transform="matrix(0.8452 -0.5345 0.5345 0.8452 -15.9207 19.5373)" class="st6" width="36.8" height="1"/>
	<line class="st7" x1="24" y1="59.1" x2="28.4" y2="66.2"/>
	<line class="st7" x1="41.9" y1="29.4" x2="54.7" y2="49.6"/>
	<line class="st7" x1="27" y1="52.2" x2="33.7" y2="62.9"/>
	<line class="st7" x1="31.1" y1="47.1" x2="39" y2="59.6"/>
	<line class="st7" x1="35.3" y1="42.1" x2="44.2" y2="56.2"/>
	<line class="st7" x1="38.3" y1="35.4" x2="49.4" y2="52.9"/>
	<ellipse transform="matrix(0.8452 -0.5345 0.5345 0.8452 -27.8677 22.1035)" class="st8" cx="24.2" cy="59.2" rx="0.6" ry="0.5"/>
	<ellipse transform="matrix(0.8452 -0.5345 0.5345 0.8452 -23.8738 22.5848)" class="st8" cx="27" cy="52.5" rx="0.6" ry="0.5"/>
	<ellipse transform="matrix(0.8452 -0.5345 0.5345 0.8452 -20.4302 23.9927)" class="st8" cx="31.2" cy="47.3" rx="0.6" ry="0.5"/>
	<ellipse transform="matrix(0.8452 -0.5345 0.5345 0.8452 -17.1038 25.5337)" class="st8" cx="35.5" cy="42.3" rx="0.6" ry="0.5"/>
	<ellipse transform="matrix(0.8452 -0.5345 0.5345 0.8452 -12.9604 26.1462)" class="st8" cx="38.7" cy="35.4" rx="0.6" ry="0.5"/>
	<ellipse transform="matrix(0.8452 -0.5345 0.5345 0.8452 -9.3187 27.0194)" class="st8" cx="42" cy="29.6" rx="0.6" ry="0.5"/>
	<polyline class="st9" points="24.2,59.2 27,52.5 31.2,47.3 35.5,42.3 38.7,35.4 42,29.6 	"/>
	<rect x="11.3" y="44.9" transform="matrix(0.8452 -0.5345 0.5345 0.8452 -20.7913 19.0621)" class="st6" width="22.5" height="1"/>
	<rect x="12.4" y="47.1" transform="matrix(0.8452 -0.5345 0.5345 0.8452 -21.9322 19.3882)" class="st6" width="20.2" height="1"/>
</g>
<g>
	<path class="st10" d="M71.3,83H22c-1.8,0-3.2-1.4-3.2-3.2V47c0-1.8,1.5-3.2,3.2-3.2h49.3c1.8,0,3.2,1.5,3.2,3.2v32.8
		C74.5,81.6,73.1,83,71.3,83z"/>
	<path class="st11" d="M73.3,83H20c-0.7,0-1.2-0.5-1.2-1v-2.7c0-0.3,0.1-0.5,0.4-0.7c0.3-0.2,0.7-0.3,0.9-0.3
		C35.1,77,46.6,77,46.6,77s12.3,0,26.6,1.2c0.2,0,0.6,0.1,0.9,0.3c0.2,0.2,0.4,0.4,0.4,0.7V82C74.5,82.5,73.9,83,73.3,83z"/>
	<path class="st12" d="M37.5,50.3L37.5,50.3c-0.8,0-1.4-0.6-1.4-1.4V37.5c0-0.8,0.6-1.4,1.4-1.4l0,0c0.8,0,1.4,0.6,1.4,1.4v11.4
		C39,49.7,38.3,50.3,37.5,50.3z"/>
	<path class="st12" d="M55.5,50.3L55.5,50.3c-0.8,0-1.4-0.6-1.4-1.4V37.5c0-0.8,0.6-1.4,1.4-1.4l0,0c0.8,0,1.4,0.6,1.4,1.4v11.4
		C56.9,49.7,56.2,50.3,55.5,50.3z"/>
	<g>
		<g>
			<path class="st13" d="M33.2,41.1c8.2-4.5,18-4.8,26.3-0.6c1.7,0.9,3.2-1.7,1.5-2.6c-9.4-4.7-20.2-4.5-29.4,0.6
				C30,39.4,31.5,42,33.2,41.1L33.2,41.1z"/>
		</g>
	</g>
	<path class="st14" d="M73.4,63.5c-4.8,2.9-9.8,3.7-22.8,3.8c-3.5,0-2.1,0-8,0c-12.9,0.1-18.4,0.4-23.1-3.5c-0.5-0.4-0.9-0.8-1.1-1
		V46.2c0-1.4,1-2.5,2.3-2.5h51.4c1.3,0,2.3,1.1,2.3,2.5v16.5C74.3,62.9,73.9,63.2,73.4,63.5z"/>
	<path class="st15" d="M74.5,62.8c-4.9,2.8-10.1,3.6-23.6,3.7c-3.6,0-2.2,0-8.2,0c-13.3,0.1-19,0.4-23.9-3.4c-0.5-0.4-0.9-0.8-1.1-1
		v-16c0-1.3,1.1-2.4,2.4-2.4h53.2c1.3,0,2.4,1.1,2.4,2.4v16C75.4,62.3,75,62.5,74.5,62.8z"/>
	<rect x="41.2" y="43.8" class="st14" width="11.1" height="23.6"/>
	<path class="st16" d="M50,71.3h-6.5c-0.8,0-1.5-0.7-1.5-1.5V44.1c0-0.8,0.7-1.5,1.5-1.5H50c0.8,0,1.5,0.7,1.5,1.5v25.8
		C51.5,70.7,50.8,71.3,50,71.3z"/>
	<path class="st17" d="M48.4,73.6h-3.3c-0.9,0-1.6-0.7-1.6-1.6v-3.3c0-0.9,0.7-1.6,1.6-1.6h3.3c0.9,0,1.6,0.7,1.6,1.6V72
		C50,72.9,49.3,73.6,48.4,73.6z"/>
	<path class="st18" d="M48.2,72.2h-2.7c-0.6,0-1-0.5-1-1.1v-1.6c0-0.6,0.5-1.1,1-1.1h2.7c0.6,0,1,0.5,1,1.1v1.6
		C49.2,71.7,48.7,72.2,48.2,72.2z"/>
</g>
<g>
	
		<linearGradient id="SVGID_00000008121153045078710520000001474425132510000293_" gradientUnits="userSpaceOnUse" x1="-17.5111" y1="991.8413" x2="-17.5111" y2="1023.5306" gradientTransform="matrix(0.5692 0.8222 0.8222 -0.5692 -748.9607 660.0294)">
		<stop  offset="0" style="stop-color:#757575"/>
		<stop  offset="1" style="stop-color:#989898"/>
	</linearGradient>
	<polygon style="fill:url(#SVGID_00000008121153045078710520000001474425132510000293_);" points="57.7,82.8 55.4,79.4 81.4,61.3 
		83.8,64.7 	"/>
	<path class="st20" d="M86.3,56.7l-2.7,2.5l0.4,2.8l3,0.5l2.7-2.9c0,0.1,0.1,0.2,0.1,0.3c0.2,0.7,0.2,1.4,0.2,1.8
		c-0.2,1.5-1.4,2.6-1.7,2.8c-0.4,0.3-1.1,0.9-2.3,1.2c-1.5,0.3-2.7-0.4-3-0.6s-1.5-0.9-2.1-2.4c-0.4-1.1-0.3-2-0.2-2.3
		c0.1-0.4,0.2-1.4,0.9-2.3c0.1-0.2,1.2-1.5,3-1.7c0.6-0.1,1.1,0,1.5,0.1L86.3,56.7z"/>
	<path class="st21" d="M58.8,79.7L58.8,79.7c-0.3-0.5-0.2-1.1,0.3-1.4l18.7-13c0.5-0.3,1.1-0.2,1.4,0.3l0,0c0.3,0.5,0.2,1.1-0.3,1.4
		l-18.7,13C59.8,80.3,59.1,80.1,58.8,79.7z"/>
	<path class="st20" d="M48.9,84.2l2.7-2.6l2.8,0.5l0.4,3l-3,2.6c0.1,0,0.2,0.1,0.3,0.1c0.7,0.2,1.4,0.2,1.8,0.2
		c1.5-0.1,2.7-1.3,2.9-1.6c0.3-0.3,1-1.1,1.2-2.2c0.3-1.5-0.3-2.7-0.4-3c-0.2-0.3-0.8-1.6-2.4-2.2c-1-0.4-2-0.3-2.3-0.3
		c-0.4,0-1.4,0.2-2.3,0.8c-0.2,0.1-1.5,1.1-1.8,3c-0.1,0.6,0,1.1,0,1.5L48.9,84.2z"/>
</g>
<g>
	<g>
		<path class="st22" d="M49.9,92.1l0.7,2.2c0.1,0.4,0.6,0.7,1,0.5l36.9-11.4c0.4-0.1,0.7-0.6,0.5-1l-0.7-2.2c-0.1-0.4-0.6-0.7-1-0.5
			L50.4,91.1C50,91.2,49.7,91.7,49.9,92.1z"/>
		<path class="st23" d="M50.7,91.8l0.6,1.9c0.1,0.4,0.5,0.6,0.9,0.5l35.7-11c0.4-0.1,0.6-0.5,0.5-0.9l-0.6-1.9
			c-0.1-0.4-0.5-0.6-0.9-0.5l-35.7,11C50.8,91,50.6,91.4,50.7,91.8z"/>
	</g>
	<g>
		<path class="st24" d="M89.5,75.8l-5.2,1.6l2.8,9.1c0.1,0,0.3,0,0.5,0.1c0.8,0.2,1.3,0.7,2,1.7c0.8,1.3,1.2,2.8,1.4,3.7
			c0.1-0.1,0.2-0.2,0.4-0.3c2.1-2,1.8-5.1,1.5-6.7l-2.9-9.3L89.5,75.8z"/>
		<path class="st25" d="M89.6,75.8l-4.8,1.5l2.8,8.9c0.1,0,0.3,0,0.4,0.1c0.7,0.2,1.3,0.7,1.9,1.7c0.8,1.3,1.2,2.7,1.4,3.7
			c0.1-0.1,0.2-0.2,0.4-0.3c2-1.9,1.6-5.1,1.3-6.5L90,75.6L89.6,75.8z"/>
	</g>
</g>
</svg>
