<?xml version="1.0" encoding="utf-8"?>
<!-- Generator: Adobe Illustrator 26.0.2, SVG Export Plug-In . SVG Version: 6.00 Build 0)  -->
<svg version="1.1" id="Layer_1" xmlns="http://www.w3.org/2000/svg" xmlns:xlink="http://www.w3.org/1999/xlink" x="0px" y="0px"
	 viewBox="0 0 100 100" style="enable-background:new 0 0 100 100;" xml:space="preserve">
<style type="text/css">
	.st0{fill:url(#SVGID_1_);}
	.st1{fill:url(#SVGID_00000051345048598287503500000001187349080609289139_);}
	.st2{fill:none;stroke:#FFFFFF;stroke-width:0.3;stroke-miterlimit:10;}
	.st3{fill:#F3FCFF;}
	.st4{fill:#58657A;}
	.st5{fill:#E9F3FF;}
	.st6{fill:#99C3FF;}
	.st7{fill:#71FFFF;}
	.st8{fill:#C7E0FF;}
	.st9{fill:#FFFFFF;}
	.st10{fill:url(#SVGID_00000155144842047228361120000005528316783892057260_);}
	.st11{fill:url(#SVGID_00000141421362930952406170000018358999910776634755_);}
	.st12{fill:#4DD9FF;}
	.st13{fill:#6EC1FF;}
	.st14{fill:url(#SVGID_00000076572752367688960520000001336700013316322708_);}
	.st15{fill:#FEC67F;}
	.st16{fill:url(#SVGID_00000159438587803191976580000006880072734089941934_);}
	.st17{fill:url(#SVGID_00000177478687484512515130000009863246008384411010_);}
	.st18{fill:url(#SVGID_00000072975192433615675930000016704892174788467841_);}
	.st19{fill:url(#SVGID_00000134937347843299247580000003254919683070062491_);}
	.st20{fill:url(#SVGID_00000124880118340914063230000006033615364887741884_);}
	.st21{fill:url(#SVGID_00000018237025849742161840000008934757189063619980_);}
	.st22{fill:url(#SVGID_00000139974628045589543570000012551214761506231229_);}
	.st23{fill:url(#SVGID_00000031906865905359178620000001046609492919810728_);}
</style>
<g>
	<g>
		<linearGradient id="SVGID_1_" gradientUnits="userSpaceOnUse" x1="3" y1="54.5" x2="97" y2="54.5">
			<stop  offset="0.3935" style="stop-color:#A8E1FF"/>
			<stop  offset="1" style="stop-color:#DCFDFE"/>
		</linearGradient>
		<path class="st0" d="M95.93,82H4.07C3.48,82,3,81.52,3,80.93V28.07C3,27.48,3.48,27,4.07,27h91.85c0.59,0,1.07,0.48,1.07,1.07
			v52.85C97,81.52,96.52,82,95.93,82z"/>
		
			<linearGradient id="SVGID_00000090990955357716180490000003507044185865706914_" gradientUnits="userSpaceOnUse" x1="3" y1="30.2254" x2="97" y2="30.2254">
			<stop  offset="1.978731e-03" style="stop-color:#27B0FC"/>
			<stop  offset="1" style="stop-color:#63CEF9"/>
		</linearGradient>
		<path style="fill:url(#SVGID_00000090990955357716180490000003507044185865706914_);" d="M97,33.45H3v-5.38
			C3,27.48,3.48,27,4.07,27h91.86c0.59,0,1.07,0.48,1.07,1.07V33.45z"/>
		<line class="st2" x1="3" y1="33.45" x2="97" y2="33.45"/>
		<line class="st2" x1="3" y1="39.53" x2="97" y2="39.53"/>
		<line class="st2" x1="3" y1="45.62" x2="97" y2="45.62"/>
		<line class="st2" x1="3" y1="51.7" x2="97" y2="51.7"/>
		<line class="st2" x1="3" y1="57.79" x2="97" y2="57.79"/>
		<line class="st2" x1="3" y1="63.87" x2="97" y2="63.87"/>
		<line class="st2" x1="3" y1="69.96" x2="97" y2="69.96"/>
		<line class="st2" x1="3" y1="76.04" x2="97" y2="76.04"/>
		<line class="st2" x1="19.22" y1="33.49" x2="19.22" y2="82"/>
		<line class="st2" x1="30.4" y1="33.49" x2="30.4" y2="82"/>
		<line class="st2" x1="41.68" y1="33.49" x2="41.68" y2="82"/>
		<line class="st2" x1="52.96" y1="33.49" x2="52.96" y2="82"/>
		<line class="st2" x1="64.23" y1="33.49" x2="64.23" y2="82"/>
		<line class="st2" x1="75.51" y1="33.49" x2="75.51" y2="82"/>
		<line class="st2" x1="86.79" y1="33.49" x2="86.79" y2="82"/>
	</g>
	<rect x="20.19" y="35.68" class="st3" width="8.75" height="0.96"/>
	<rect x="31.53" y="35.68" class="st3" width="8.75" height="0.96"/>
	<rect x="42.88" y="35.68" class="st3" width="8.75" height="0.96"/>
	<rect x="54.22" y="35.68" class="st3" width="8.75" height="0.96"/>
	<rect x="65.56" y="35.68" class="st3" width="8.75" height="0.96"/>
	<rect x="76.91" y="35.68" class="st3" width="8.75" height="0.96"/>
	<rect x="88.25" y="35.68" class="st3" width="7.78" height="0.96"/>
</g>
<g>
	<path class="st4" d="M54.38,84.81H10.7c-1.75,0-3.16-1.42-3.16-3.16V24.69c0-1.75,1.42-3.16,3.16-3.16h43.68
		c1.75,0,3.16,1.42,3.16,3.16v56.95C57.54,83.39,56.12,84.81,54.38,84.81z"/>
	<rect x="11.05" y="25.59" class="st5" width="42.5" height="15.05"/>
	<path class="st6" d="M41.04,47.96H11.77c-0.4,0-0.72-0.32-0.72-0.72v-2.22c0-0.4,0.32-0.72,0.72-0.72h29.27
		c0.4,0,0.72,0.32,0.72,0.72v2.22C41.76,47.63,41.44,47.96,41.04,47.96z"/>
	<path class="st7" d="M53.15,47.96H44.2c-0.22,0-0.41-0.18-0.41-0.41V44.7c0-0.22,0.18-0.41,0.41-0.41h8.95
		c0.22,0,0.41,0.18,0.41,0.41v2.85C53.55,47.77,53.37,47.96,53.15,47.96z"/>
	<path class="st6" d="M52.91,59.55h-8.48c-0.35,0-0.64-0.29-0.64-0.64v-7.87c0-0.35,0.29-0.64,0.64-0.64h8.48
		c0.35,0,0.64,0.29,0.64,0.64v7.87C53.55,59.26,53.27,59.55,52.91,59.55z"/>
	<g>
		<path class="st8" d="M19.72,59.55h-7.91c-0.34,0-0.62-0.28-0.62-0.62v-7.91c0-0.34,0.28-0.62,0.62-0.62h7.91
			c0.34,0,0.62,0.28,0.62,0.62v7.91C20.34,59.27,20.06,59.55,19.72,59.55z"/>
		<path class="st8" d="M30.5,59.55h-7.91c-0.34,0-0.62-0.28-0.62-0.62v-7.91c0-0.34,0.28-0.62,0.62-0.62h7.91
			c0.34,0,0.62,0.28,0.62,0.62v7.91C31.12,59.27,30.84,59.55,30.5,59.55z"/>
		<path class="st8" d="M41.27,59.55h-7.91c-0.34,0-0.62-0.28-0.62-0.62v-7.91c0-0.34,0.28-0.62,0.62-0.62h7.91
			c0.34,0,0.62,0.28,0.62,0.62v7.91C41.89,59.27,41.62,59.55,41.27,59.55z"/>
	</g>
	<g>
		<path class="st8" d="M19.72,70.53h-7.91c-0.34,0-0.62-0.28-0.62-0.62V62c0-0.34,0.28-0.62,0.62-0.62h7.91
			c0.34,0,0.62,0.28,0.62,0.62v7.91C20.34,70.25,20.06,70.53,19.72,70.53z"/>
		<path class="st8" d="M30.5,70.53h-7.91c-0.34,0-0.62-0.28-0.62-0.62V62c0-0.34,0.28-0.62,0.62-0.62h7.91
			c0.34,0,0.62,0.28,0.62,0.62v7.91C31.12,70.25,30.84,70.53,30.5,70.53z"/>
		<path class="st8" d="M41.27,70.53h-7.91c-0.34,0-0.62-0.28-0.62-0.62V62c0-0.34,0.28-0.62,0.62-0.62h7.91
			c0.34,0,0.62,0.28,0.62,0.62v7.91C41.89,70.25,41.62,70.53,41.27,70.53z"/>
	</g>
	<g>
		<path class="st8" d="M19.72,81.51h-7.91c-0.34,0-0.62-0.28-0.62-0.62v-7.91c0-0.34,0.28-0.62,0.62-0.62h7.91
			c0.34,0,0.62,0.28,0.62,0.62v7.91C20.34,81.23,20.06,81.51,19.72,81.51z"/>
		<path class="st8" d="M30.5,81.51h-7.91c-0.34,0-0.62-0.28-0.62-0.62v-7.91c0-0.34,0.28-0.62,0.62-0.62h7.91
			c0.34,0,0.62,0.28,0.62,0.62v7.91C31.12,81.23,30.84,81.51,30.5,81.51z"/>
		<path class="st8" d="M41.27,81.51h-7.91c-0.34,0-0.62-0.28-0.62-0.62v-7.91c0-0.34,0.28-0.62,0.62-0.62h7.91
			c0.34,0,0.62,0.28,0.62,0.62v7.91C41.89,81.23,41.62,81.51,41.27,81.51z"/>
	</g>
	<path class="st6" d="M52.6,81.51h-7.86c-0.53,0-0.95-0.43-0.95-0.95V62.33c0-0.53,0.43-0.95,0.95-0.95h7.86
		c0.53,0,0.95,0.43,0.95,0.95v18.23C53.55,81.08,53.13,81.51,52.6,81.51z"/>
	<path class="st9" d="M36.47,25.59l-5.9,15.05c2.44,0,4.88,0,7.32,0c1.97-5.02,3.93-10.03,5.9-15.05H36.47z"/>
</g>
<g>
	
		<linearGradient id="SVGID_00000124131489493094158730000017567890687085227914_" gradientUnits="userSpaceOnUse" x1="57.0376" y1="30.4685" x2="81.9204" y2="30.4685" gradientTransform="matrix(0.9611 0.2763 -0.2763 0.9611 17.1882 -18.8729)">
		<stop  offset="0" style="stop-color:#FFC174"/>
		<stop  offset="0" style="stop-color:#F6BA6D"/>
		<stop  offset="0.7256" style="stop-color:#6A4500"/>
	</linearGradient>
	<path style="fill:url(#SVGID_00000124131489493094158730000017567890687085227914_);" d="M87.95,31.47l-0.71,2.46
		c-0.39,1.36-6.06,0.93-12.67-0.97s-11.64-4.54-11.25-5.91l0.71-2.46c0.28-0.98,5.86-0.24,12.47,1.66
		C83.11,28.16,88.23,30.49,87.95,31.47z"/>
	
		<ellipse transform="matrix(0.2763 -0.9611 0.9611 0.2763 28.0203 93.3333)" class="st15" cx="75.99" cy="28.06" rx="2" ry="12.44"/>
</g>
<g>
	
		<linearGradient id="SVGID_00000031175854915267092650000006956099366575335841_" gradientUnits="userSpaceOnUse" x1="76.9199" y1="40.4765" x2="101.8026" y2="40.4765" gradientTransform="matrix(0.9809 -0.1946 0.1946 0.9809 -14.6117 19.7458)">
		<stop  offset="0" style="stop-color:#FFC174"/>
		<stop  offset="0" style="stop-color:#F6BA6D"/>
		<stop  offset="0.7256" style="stop-color:#6A4500"/>
	</linearGradient>
	<path style="fill:url(#SVGID_00000031175854915267092650000006956099366575335841_);" d="M92.8,38.03l0.5,2.51
		c0.28,1.39-4.96,3.6-11.7,4.94s-12.43,1.29-12.7-0.1l-0.5-2.51c-0.2-1,5.1-2.9,11.84-4.23S92.6,37.02,92.8,38.03z"/>
	<ellipse transform="matrix(0.9809 -0.1946 0.1946 0.9809 -6.3362 16.4612)" class="st15" cx="80.6" cy="40.48" rx="12.44" ry="2"/>
</g>
<g>
	
		<linearGradient id="SVGID_00000144330755080952926410000000693172859191055004_" gradientUnits="userSpaceOnUse" x1="64.2762" y1="52.764" x2="89.159" y2="52.764" gradientTransform="matrix(0.9611 0.2763 -0.2763 0.9611 17.1882 -18.8729)">
		<stop  offset="0" style="stop-color:#FFC174"/>
		<stop  offset="0" style="stop-color:#F6BA6D"/>
		<stop  offset="0.7256" style="stop-color:#6A4500"/>
	</linearGradient>
	<path style="fill:url(#SVGID_00000144330755080952926410000000693172859191055004_);" d="M88.75,54.9l-0.71,2.46
		c-0.39,1.36-6.06,0.93-12.67-0.97s-11.64-4.54-11.25-5.91l0.71-2.46c0.28-0.98,5.86-0.24,12.47,1.66S89.03,53.92,88.75,54.9z"/>
	
		<ellipse transform="matrix(0.2763 -0.9611 0.9611 0.2763 6.0806 111.0512)" class="st15" cx="76.78" cy="51.49" rx="2" ry="12.44"/>
</g>
<g>
	
		<linearGradient id="SVGID_00000174590879705654464120000010943305732393094044_" gradientUnits="userSpaceOnUse" x1="68.0544" y1="76.0504" x2="92.9371" y2="76.0504" gradientTransform="matrix(1 0 0 1 -3.1403 6.3261)">
		<stop  offset="0" style="stop-color:#FFC174"/>
		<stop  offset="0" style="stop-color:#F6BA6D"/>
		<stop  offset="0.7256" style="stop-color:#6A4500"/>
	</linearGradient>
	<path style="fill:url(#SVGID_00000174590879705654464120000010943305732393094044_);" d="M89.8,80.74v2.56
		c0,1.42-5.57,2.57-12.44,2.57s-12.44-1.15-12.44-2.57v-2.56c0-1.02,5.57-1.85,12.44-1.85C84.23,78.89,89.8,79.71,89.8,80.74z"/>
	<ellipse class="st15" cx="77.35" cy="80.76" rx="12.44" ry="2"/>
</g>
<g>
	
		<linearGradient id="SVGID_00000092449950451151736130000016447304886353127072_" gradientUnits="userSpaceOnUse" x1="66.69" y1="73.2893" x2="91.5728" y2="73.2893" gradientTransform="matrix(1 0 0 1 -3.1403 6.3261)">
		<stop  offset="0" style="stop-color:#FFC174"/>
		<stop  offset="0" style="stop-color:#F6BA6D"/>
		<stop  offset="0.7256" style="stop-color:#6A4500"/>
	</linearGradient>
	<path style="fill:url(#SVGID_00000092449950451151736130000016447304886353127072_);" d="M88.43,77.97v2.56
		c0,1.42-5.57,2.57-12.44,2.57c-6.87,0-12.44-1.15-12.44-2.57v-2.56c0-1.02,5.57-1.85,12.44-1.85S88.43,76.95,88.43,77.97z"/>
	<ellipse class="st15" cx="75.99" cy="78" rx="12.44" ry="2"/>
</g>
<g>
	
		<linearGradient id="SVGID_00000108998675958923715640000005522495314411891873_" gradientUnits="userSpaceOnUse" x1="68.3846" y1="70.5538" x2="93.2674" y2="70.5538" gradientTransform="matrix(1 0 0 1 -3.1403 6.3261)">
		<stop  offset="0" style="stop-color:#FFC174"/>
		<stop  offset="0" style="stop-color:#F6BA6D"/>
		<stop  offset="0.7256" style="stop-color:#6A4500"/>
	</linearGradient>
	<path style="fill:url(#SVGID_00000108998675958923715640000005522495314411891873_);" d="M90.13,75.24v2.56
		c0,1.42-5.57,2.57-12.44,2.57s-12.44-1.15-12.44-2.57l0-2.56c0-1.02,5.57-1.85,12.44-1.85C84.56,73.39,90.13,74.22,90.13,75.24z"/>
	<ellipse class="st15" cx="77.69" cy="75.27" rx="12.44" ry="2"/>
</g>
<g>
	
		<linearGradient id="SVGID_00000015338266346902709910000004547086283855859097_" gradientUnits="userSpaceOnUse" x1="67.3846" y1="67.5538" x2="92.2674" y2="67.5538" gradientTransform="matrix(1 0 0 1 -3.1403 6.3261)">
		<stop  offset="0" style="stop-color:#FFC174"/>
		<stop  offset="0" style="stop-color:#F6BA6D"/>
		<stop  offset="0.7256" style="stop-color:#6A4500"/>
	</linearGradient>
	<path style="fill:url(#SVGID_00000015338266346902709910000004547086283855859097_);" d="M89.13,72.24v2.56
		c0,1.42-5.57,2.57-12.44,2.57s-12.44-1.15-12.44-2.57l0-2.56c0-1.02,5.57-1.85,12.44-1.85C83.56,70.39,89.13,71.22,89.13,72.24z"/>
	<ellipse class="st15" cx="76.69" cy="72.27" rx="12.44" ry="2"/>
</g>
<g>
	
		<linearGradient id="SVGID_00000018216842737980554040000012073713825151205563_" gradientUnits="userSpaceOnUse" x1="69.088" y1="64.5911" x2="93.9708" y2="64.5911" gradientTransform="matrix(1 0 0 1 -3.1403 6.3261)">
		<stop  offset="0" style="stop-color:#FFC174"/>
		<stop  offset="0" style="stop-color:#F6BA6D"/>
		<stop  offset="0.7256" style="stop-color:#6A4500"/>
	</linearGradient>
	<path style="fill:url(#SVGID_00000018216842737980554040000012073713825151205563_);" d="M90.83,69.28v2.56
		c0,1.42-5.57,2.57-12.44,2.57c-6.87,0-12.44-1.15-12.44-2.57v-2.56c0-1.02,5.57-1.85,12.44-1.85S90.83,68.26,90.83,69.28z"/>
	<ellipse class="st15" cx="78.39" cy="69.31" rx="12.44" ry="2"/>
</g>
<g>
	
		<linearGradient id="SVGID_00000122686242102561732580000005684301684401701030_" gradientUnits="userSpaceOnUse" x1="68.0909" y1="61.7298" x2="92.9736" y2="61.7298" gradientTransform="matrix(1 0 0 1 -3.1403 6.3261)">
		<stop  offset="0" style="stop-color:#FFC174"/>
		<stop  offset="0" style="stop-color:#F6BA6D"/>
		<stop  offset="0.7256" style="stop-color:#6A4500"/>
	</linearGradient>
	<path style="fill:url(#SVGID_00000122686242102561732580000005684301684401701030_);" d="M89.83,66.41v2.56
		c0,1.42-5.57,2.57-12.44,2.57s-12.44-1.15-12.44-2.57v-2.56c0-1.02,5.57-1.85,12.44-1.85S89.83,65.39,89.83,66.41z"/>
	<ellipse class="st15" cx="77.39" cy="66.44" rx="12.44" ry="2"/>
</g>
<path class="st9" d="M45.21,33.48c1.55-4.07,2.42-7.52,1.93-7.71c-0.49-0.18-2.14,2.97-3.69,7.04c-1.55,4.07-2.42,7.52-1.93,7.71
	S43.66,37.55,45.21,33.48z"/>
</svg>
