<?xml version="1.0" encoding="utf-8"?>
<!-- Generator: Adobe Illustrator 26.0.1, SVG Export Plug-In . SVG Version: 6.00 Build 0)  -->
<svg version="1.1" id="Layer_1" xmlns="http://www.w3.org/2000/svg" xmlns:xlink="http://www.w3.org/1999/xlink" x="0px" y="0px"
	 viewBox="0 0 100 100" style="enable-background:new 0 0 100 100;" xml:space="preserve">
<style type="text/css">
	.st0{fill:url(#SVGID_1_);}
	.st1{fill:url(#SVGID_00000067237531444084841350000010241305704682251947_);}
	.st2{fill:#F3FCFF;}
	.st3{fill:#4DD9FF;}
	.st4{fill:#6EC1FF;}
	.st5{fill:#FFBA9F;}
	.st6{fill:#336DFF;}
	.st7{fill:#011435;}
	.st8{fill:#242528;}
	.st9{fill:#FFFFFF;}
	.st10{fill:none;stroke:#58595B;stroke-width:5.000000e-02;stroke-miterlimit:10;}
	.st11{fill:#414042;}
</style>
<g>
	<g>
		
			<linearGradient id="SVGID_1_" gradientUnits="userSpaceOnUse" x1="40.4356" y1="1057.0146" x2="84.9718" y2="979.8759" gradientTransform="matrix(1 0 0 1 0 -978)">
			<stop  offset="0.3935" style="stop-color:#A8E1FF"/>
			<stop  offset="1" style="stop-color:#DCFDFE"/>
		</linearGradient>
		<path class="st0" d="M94.8,72.8H30.5c-1.6,0-2.8-1.3-2.8-2.8V11.6c0-2.3,1.9-4.2,4.2-4.2h61.6c2.3,0,4.2,1.9,4.2,4.2v58.3
			C97.6,71.5,96.3,72.8,94.8,72.8z"/>
		
			<linearGradient id="SVGID_00000107580543606253150950000005836642149038696840_" gradientUnits="userSpaceOnUse" x1="27.55" y1="988.362" x2="97.55" y2="988.362" gradientTransform="matrix(1 0 0 1 0 -978)">
			<stop  offset="1.978731e-03" style="stop-color:#27B0FC"/>
			<stop  offset="1" style="stop-color:#63CEF9"/>
		</linearGradient>
		<path style="fill:url(#SVGID_00000107580543606253150950000005836642149038696840_);" d="M97.6,14.4h-70V9.1
			c0-1.6,1.3-2.8,2.8-2.8h64.3c1.6,0,2.8,1.3,2.8,2.8C97.6,9.1,97.6,14.4,97.6,14.4z"/>
		<rect x="30.5" y="23.9" class="st2" width="36.5" height="2"/>
		<rect x="30.5" y="26.8" class="st2" width="26.6" height="2"/>
		<rect x="30.5" y="29.7" class="st2" width="30.3" height="2"/>
		<rect x="30.4" y="32.5" class="st2" width="29.2" height="2"/>
		<rect x="30.4" y="17.5" class="st2" width="36.7" height="3"/>
		<path class="st3" d="M82.2,26.4l8.1,3.9c-1.5,3-4.5,5-7.9,5.1c-4.9,0.1-9.1-3.9-9.2-8.8s3.8-9.1,8.8-9.2s9.1,3.9,9.2,8.8
			L82.2,26.4z"/>
		<path class="st4" d="M82.2,26.4l8-4.1c1.5,3,1.2,6.6-0.7,9.3c-2.9,4-8.6,4.9-12.6,2s-4.9-8.5-2-12.5s8.6-4.9,12.6-2L82.2,26.4z"/>
		<rect x="86.8" y="36.7" class="st3" width="4.2" height="25.8"/>
		<rect x="80.5" y="40.5" class="st3" width="4.2" height="22.1"/>
		<rect x="74.2" y="46.1" class="st3" width="4.2" height="16.5"/>
		<rect x="68" y="46.1" class="st3" width="4.2" height="16.5"/>
		<rect x="61.7" y="40.5" class="st3" width="4.2" height="22.1"/>
		<rect x="55.5" y="46.1" class="st3" width="4.2" height="16.5"/>
		<rect x="49.2" y="48.9" class="st3" width="4.2" height="13.7"/>
		<rect x="43" y="50.7" class="st3" width="4.2" height="11.9"/>
		<rect x="36.7" y="48.9" class="st3" width="4.2" height="13.7"/>
		<rect x="30.5" y="64.8" class="st2" width="45.2" height="2"/>
		<rect x="30.5" y="67.7" class="st2" width="32.9" height="2"/>
	</g>
	<g>
		<g>
			<path class="st5" d="M20,14.4c-0.3,0.5,0.4,0.9,0.2,2c-0.1,0.6-0.4,1.4-1,2c-0.4,0.4-0.5,0.3-0.5,0.5c-0.3,0.7,1.1,1.4,2.2,3
				s1.1,2.8,1.5,2.8s0.4-1.3,1.5-3.1c0.6-0.9,1-1.5,1.8-2c0.6-0.4,1.2-0.5,1.2-0.8c0-0.2-0.5-0.3-1.1-0.7c0,0-0.9-0.7-1.2-1.8
				c-0.3-0.9,0.2-1.3-0.1-1.8C23.9,13.4,20.5,13.3,20,14.4z"/>
			<path class="st5" d="M22.9,16.2h-1.4c-1.6,0-2.8-1.3-2.8-2.8V7.8C18.7,6.2,20,5,21.5,5h1.4c1.6,0,2.8,1.3,2.8,2.8v5.6
				C25.7,14.9,24.4,16.2,22.9,16.2z"/>
			<path d="M18.7,9.8c-0.2-0.1-0.4-0.3-0.6-0.6c-0.1-0.1-0.3-0.4-0.4-1c-0.1-0.4,0-0.7,0-0.8c0-0.2,0.1-0.6,0.4-0.9
				c0.1-0.1,0.3-0.3,0.6-0.4c0.1,0,0.3,0,0.3,0s0.1-0.1,0.2,0c0.2,0.1,0.1,0.4,0.1,0.4s0,0-0.1,0l-0.1,0.1c-0.4,1.6-0.5,2.9-0.5,2.9
				C18.7,9.7,18.7,9.8,18.7,9.8z"/>
			<path class="st5" d="M19,9.6c-0.1-0.1-0.3-0.3-0.6-0.3c-0.1,0-0.4-0.1-0.6,0.1c-0.1,0.1-0.1,0.3,0,0.6c0.1,0.5,0.3,0.8,0.3,0.9
				c0.2,0.3,0.3,0.5,0.5,0.6c0.1,0.1,0.3,0.2,0.5,0.1C19.6,11.4,19.6,10.2,19,9.6z"/>
			<path d="M18.6,3c-0.1,0.1-0.7,0.4-0.8,1c-0.1,0.4,0,0.8,0.1,1c0,0.1,0.1,0.4,0.4,0.8c0.1,0.2,0.4,0.5,0.9,0.7
				c0.3,0.1,0.6,0.1,0.9,0.1c0.2,0,0.8,0,1.6-0.3c0.5-0.2,0.6-0.2,0.9-0.2c0.4,0,0.7,0.2,0.8,0.3c0.4,0.2,0.4,0.3,0.6,0.5
				c0.6,0.4,1.5,0.4,1.9-0.1c0.1-0.2,0.2-0.4,0.3-0.4c0.1-0.1,0.2-0.4,0.1-0.6c0-0.5-0.6-0.8-0.7-0.9c-0.5-0.3-1.1-0.2-1.4-0.2
				C23.6,4.9,23.5,5.1,23,5c-0.4-0.1-0.6-0.3-0.8-0.4c-0.3-0.2-0.4-0.4-0.7-0.8c-0.2-0.2-0.5-0.5-0.8-0.7C20.2,2.8,19.2,2.6,18.6,3z
				"/>
			<path d="M25.5,9.9c0.2-0.1,0.5-0.2,0.7-0.4l0,0C27,8.9,27,8.1,27,8.1c0-0.5-0.2-0.9-0.3-1.1c-0.2-0.3-0.6-0.8-0.8-0.7
				c0,0-0.2,0.1-0.2,0.5c0,0-0.1-0.1-0.2-0.1c-0.2,0-0.2,0.3-0.1,0.3c0,0,0,0,0.1,0c0,0,0,0,0,0.1C25.5,7.4,25.5,9.7,25.5,9.9z"/>
			<path class="st5" d="M25.4,9.6c0.1-0.1,0.3-0.3,0.6-0.3c0.1,0,0.4-0.1,0.5,0.1c0.1,0.1,0.1,0.3,0,0.6c-0.1,0.5-0.3,0.8-0.3,0.9
				c-0.2,0.3-0.3,0.5-0.5,0.6c-0.1,0.1-0.3,0.2-0.5,0.1C24.8,11.4,24.8,10.2,25.4,9.6z"/>
			<path class="st6" d="M19,19l-5.7,0.6L8.1,33.5c1.8,3.3,3.7,6.7,5.5,10L14,37l-1.4-2.6l1.2-3.2l4.9-6.2L19,19z"/>
			<polygon class="st5" points="46.8,24.2 48.5,22.3 49.8,22.7 57.4,22.6 50,24.5 47.9,25.4 			"/>
			<path class="st6" d="M26.1,18.6c2.3,0,4.6-0.1,6.9-0.1l4.6,11.6l9.1-6.2l1.7,1.8L37,35.9L30.8,27L30,45.5H13.5l0.2-25
				c-0.1-0.3-0.3-0.6-0.4-0.9c1.8-0.3,3.7-0.6,5.5-0.8c1.1,1.5,2.2,3.1,3.4,4.6C23.5,21.8,24.8,20.2,26.1,18.6z"/>
			<polygon class="st5" points="37.5,89.2 37.9,92.1 36,92.5 35,89 			"/>
			<polygon class="st5" points="12.5,89.3 12.3,92.2 14.3,92.4 14.8,88.9 			"/>
			<polygon class="st7" points="13.5,45.1 12.9,67.1 11.9,89.7 15.5,89.7 17.6,70.4 21.9,48 27.1,64.1 29.1,69.7 34.5,89.2 
				38.5,89.2 34,70.2 30.2,45.1 			"/>
			<polygon class="st8" points="12.3,92.2 10.2,94.1 2.4,97.2 13.6,97.2 14.5,97.2 14.8,94.7 14.8,92.2 			"/>
			<polygon class="st8" points="38,92 40.2,93.9 48,97.2 36.9,97.2 36,97.2 35.5,94.6 35.5,92 			"/>
			<path class="st9" d="M20.9,13.6h2.5c-0.1,0.1-0.5,0.9-1.3,0.9C21.4,14.5,21,13.8,20.9,13.6z"/>
			<polyline class="st10" points="22,10.9 21.6,12 22.2,12.6 			"/>
			<circle class="st11" cx="23.7" cy="10.3" r="0.2"/>
			<circle class="st11" cx="20.5" cy="10.3" r="0.2"/>
		</g>
		<g>
			<g>
				<path class="st11" d="M13.5,27.8c0.3,4.6,0.3,9.2,0.2,13.9C13.3,37.1,13.3,32.4,13.5,27.8L13.5,27.8z"/>
			</g>
			<g>
				<path class="st11" d="M13.6,32.2c-0.2,0.8-0.5,1.5-0.9,2.3v-0.2c0.4,0.7,0.7,1.3,0.9,2c-0.5-0.6-0.9-1.2-1.4-1.9
					C12.7,33.6,13,32.9,13.6,32.2L13.6,32.2z"/>
			</g>
			<g>
				<path class="st11" d="M30.6,26.6c2.3,3,4.5,6,6.7,9.1H37c1.9-1.7,3.8-3.4,5.6-5.1c1.9-1.7,3.8-3.3,5.7-5
					c-1.8,1.8-3.7,3.5-5.5,5.2c-1.9,1.8-3.8,3.5-5.8,5.3C34.9,33,32.7,29.9,30.6,26.6L30.6,26.6z"/>
			</g>
			<g>
				<path class="st11" d="M18.7,10.6c0.2,3-0.2,4.8,3.2,5.6C18.2,16.1,18.1,13.5,18.7,10.6L18.7,10.6z"/>
			</g>
			<g>
				<path class="st11" d="M46.9,24c0.5-0.6,1.1-1.3,1.7-1.9c0.3,0.1,1,0.2,1.1,0.3c2.5-0.1,5.1-0.1,7.6,0.1
					c-1.3,0.1-2.5,0.2-3.8,0.2s-2.6,0.1-3.8,0c-0.4-0.1-0.7-0.2-1.1-0.4h0.1C48.2,23,47.5,23.5,46.9,24L46.9,24z"/>
			</g>
			<g>
				<path class="st11" d="M18.8,18.7c-1.8,0.4-3.6,0.7-5.5,1l0.1-0.1c-0.4,1.1-0.8,2.2-1.2,3.2c-0.4,1.2-0.9,2.2-1.4,3.3
					c0.3-1.1,0.7-2.2,1.1-3.3c0.4-1.1,0.8-2.3,1.2-3.4C15,19.1,16.9,18.9,18.8,18.7L18.8,18.7z"/>
			</g>
		</g>
	</g>
</g>
</svg>
