<?xml version="1.0" encoding="utf-8"?>
<!-- Generator: Adobe Illustrator 26.0.1, SVG Export Plug-In . SVG Version: 6.00 Build 0)  -->
<svg version="1.1" id="Layer_1" xmlns="http://www.w3.org/2000/svg" xmlns:xlink="http://www.w3.org/1999/xlink" x="0px" y="0px"
	 viewBox="0 0 100 100" style="enable-background:new 0 0 100 100;" xml:space="preserve">
<style type="text/css">
	.st0{fill:#FFB99E;}
	.st1{fill:#414042;}
	.st2{fill:none;stroke:#999999;stroke-width:0.4;stroke-miterlimit:10;}
	.st3{fill:url(#SVGID_1_);}
	.st4{fill:#333333;}
	.st5{fill:#336DFF;}
	.st6{fill:#7B4634;}
	.st7{fill:#603222;}
	.st8{fill:#F3C943;}
	.st9{fill:#1A1A1A;}
	.st10{fill:#60321F;}
	.st11{fill:#955A47;}
	.st12{fill:#985D47;}
	.st13{fill:#F3CC46;}
	.st14{fill:#46251C;}
	.st15{fill:#242528;}
	.st16{fill:#011435;}
	.st17{fill:url(#SVGID_00000165946659351243671760000010896229608820148632_);}
	.st18{fill:url(#SVGID_00000029031384218021221040000014448304272949759105_);}
	.st19{fill:url(#SVGID_00000170263109923697821170000014421586808002379398_);}
	.st20{fill:url(#SVGID_00000055683371405998831990000003457259134688733091_);}
	.st21{fill:url(#SVGID_00000171716014180189277290000003676913426652397212_);}
	.st22{fill:url(#SVGID_00000000219760239689366280000010077904199572147100_);}
	.st23{fill:url(#SVGID_00000114791462108250045400000004550972854039571886_);}
	.st24{fill:url(#SVGID_00000029725842750490182090000018368853139398256307_);}
	.st25{fill:url(#SVGID_00000149373543051634042660000008780594105952768129_);}
	.st26{fill:url(#SVGID_00000178910962485930114610000015790247650025852860_);}
	.st27{fill:url(#SVGID_00000090269812399038299670000008078311222566047129_);}
	.st28{fill:url(#SVGID_00000101825807982662210210000007378780548061602950_);}
</style>
<g>
	<path class="st0" d="M63,10.1c-0.2-0.7-0.5-1.4-0.7-2.1c0.4-0.6,1-1.5,2-2.4c1.2-1.2,2.1-2,3.4-2.2c1.4-0.2,2.7,0.5,3.3,0.9l0.5,1
		c0.6,1.2,0.2,2.7-1,3.3c-1.1,0.7-2.2,1.4-3.2,2.2c-0.1,0.1-1.4,0.9-2.8,0.4C63.5,10.9,63.2,10.3,63,10.1z"/>
	<path class="st0" d="M63.2,7.1c-0.5,0-0.5,0.7-1.5,1c-0.5,0.2-1.2,0.3-1.9,0.1C59.2,8.1,59.2,8,59.2,8c-0.6,0.1-0.6,1.4-1.4,2.9
		c-0.8,1.5-1.7,2-1.5,2.3c0.3,0.6,2.2,0.7,3-0.2c0.3-0.3,0.4-0.7,0.6-0.7c0.3,0,0.2,1.2,0.6,1.3c0.3,0.1,0.6-0.4,1.6-1.4
		c0.6-0.6,0.9-0.9,1.4-1.1c0.8-0.4,1.1-0.3,1.4-0.6C65.6,9.8,64.1,7.1,63.2,7.1z"/>
	<path d="M66.1,4.2c0-0.2,0.1-0.5,0.2-0.7c0-0.1,0.2-0.4,0.6-0.8c0.3-0.2,0.5-0.3,0.6-0.3c0.2-0.1,0.5-0.2,0.8-0.1
		c0.1,0,0.4,0.1,0.6,0.3c0.1,0.1,0.1,0.2,0.1,0.3c0,0,0.1,0.1,0.1,0.2c0,0.2-0.3,0.3-0.3,0.2l0,0h-0.1c-1.4,0.4-2.4,0.9-2.4,0.9
		C66.1,4.2,66.1,4.2,66.1,4.2z"/>
	<path d="M67.1,4.7c-0.2,0-0.8,0-1.3,0.2c-0.5,0.1-1.5,0.5-2.4,1.8c0-0.2,0.1-0.5,0.2-0.9c0.2-0.4,0.4-0.7,0.6-1
		c0.6-0.8,1.6-2.1,3.2-2.5c0.2,0,1.3-0.3,1.6,0.2c0.3,0.4-0.5,1.2-0.1,1.8c0.2,0.3,0.5,0.3,0.4,0.4C69.1,4.9,68.1,4.6,67.1,4.7z"/>
	<path d="M74.9,9.8c0,0.2-0.1,0.9-0.6,1.4c-0.4,0.4-1,0.6-1.5,0.6c-1.1,0-2-1.1-2.3-1.9c-0.5-1.2,0.1-1.8-0.5-3
		c-0.1-0.2-0.5-1-1.4-1.4c-0.9-0.4-1.9-0.3-2.3-0.2c-0.7,0.1-0.9,0.3-1,0.1c-0.3-0.4,0.5-2.5,2.1-3.1c1.7-0.6,3.9,0.8,4.2,2.2
		c0.1,0.4,0,1,0.4,1.5c0.2,0.4,0.6,0.6,0.9,0.8c0.6,0.4,0.7,0.3,1.1,0.6C74.4,8,74.9,8.9,74.9,9.8z"/>
	<path class="st0" d="M65.6,5.1c0-0.1,0.1-0.3,0-0.6c0-0.1-0.1-0.3-0.3-0.4c-0.1,0-0.2,0.1-0.4,0.2c-0.3,0.3-0.5,0.6-0.6,0.6
		C64.1,5.1,64,5.3,64,5.6c0,0.1,0,0.3,0.1,0.4C64.4,6.3,65.4,5.8,65.6,5.1z"/>
	<ellipse class="st1" cx="67.1" cy="8.9" rx="0.2" ry="0.2"/>
	<g>
		<path class="st1" d="M64.1,5.7c-1.3,1.2-1.4,3-0.8,4.6C62.4,8.9,62.7,6.6,64.1,5.7L64.1,5.7z"/>
	</g>
	<polygon class="st0" points="67.9,10 67.4,11.4 66.4,11.1 	"/>
	<g>
		<g>
			<path class="st2" d="M97.4,97.9H2.7c0-20.7,0-41.4,0-62.1"/>
			<line class="st2" x1="2.5" y1="62.7" x2="97.6" y2="62.7"/>
			<line class="st2" x1="2.5" y1="71.3" x2="97.6" y2="71.3"/>
			<line class="st2" x1="2.5" y1="80" x2="97.6" y2="80"/>
			<line class="st2" x1="2.5" y1="88.7" x2="97.6" y2="88.7"/>
			<line class="st2" x1="2.5" y1="54" x2="97.6" y2="54"/>
			<line class="st2" x1="2.5" y1="45.3" x2="97.6" y2="45.3"/>
			<line class="st2" x1="2.5" y1="36.6" x2="97.6" y2="36.6"/>
		</g>
		
			<linearGradient id="SVGID_1_" gradientUnits="userSpaceOnUse" x1="84.14" y1="2019.1213" x2="88.51" y2="2019.1213" gradientTransform="matrix(1 0 0 1 0 -1956)">
			<stop  offset="1.978731e-03" style="stop-color:#27AFFB"/>
			<stop  offset="1" style="stop-color:#63CDF8"/>
		</linearGradient>
		<rect x="84.1" y="55.4" class="st3" width="4.4" height="15.5"/>
	</g>
	<g>
		<path class="st0" d="M69.4,24.5c0.2,0.2,0.5,0.4,0.7,0.6h2.7l0.9,1.5l-1.3,2.5L70,28.4c-0.6-0.5-1.2-1-1.7-1.4
			C68.8,26.1,69.1,25.3,69.4,24.5z"/>
		<path class="st4" d="M69.4,24.5l0.8,0.6c0.8-0.1,1.8-0.1,2.7-0.1l0,0l0.9,1.5v0.1v0.1l-1.3,2.5c-0.1,0.1,0,0.1-0.2,0.1
			c0,0-2.3-0.7-2.4-0.7l-1.7-1.5h-0.1V27L69.4,24.5L69.4,24.5z M69.4,24.5L68.6,27v-0.1c0,0,1.9,1.5,1.7,1.4l2.3,0.7l-0.2,0.1
			l1.3-2.4v0.1l-0.9-1.5h0.1c-0.9,0-1.8,0-2.7,0C70.1,25.2,69.4,24.5,69.4,24.5L69.4,24.5z"/>
	</g>
	<path class="st5" d="M58,7.7c-2,0.8-3.9,1.6-5.8,2.4c-4.6,3.6-9.2,7.1-13.7,10.7c3.1,1.6,6.2,3.2,9.3,4.8c3.2-2.1,6.5-4.2,9.7-6.3
		l1.8,5.2l9.5,2.5l0.9-2.7l-7.5-2.8c0-2.9,0-5.8-0.1-8.8c-0.4-1.4-0.6-2.9-0.9-4.3C60.2,8.2,59,7.9,58,7.7z"/>
	<g>
		<path class="st1" d="M56.4,16.2c0.9,2.5,2.3,6,2.9,8.1c3.1,0.8,6.2,1.6,9.3,2.6c-3.2-0.7-6.3-1.5-9.4-2.3
			C58.2,21.8,57.2,19.1,56.4,16.2L56.4,16.2z"/>
	</g>
	<g>
		<path class="st6" d="M20.9,18.2L18.5,6.7c-0.1-0.4,0.2-0.8,0.6-0.9l7.6-1.6c0.4-0.1,0.8,0.2,0.9,0.6L30,16.2
			c0.1,0.4-0.2,0.8-0.6,0.9l-7.6,1.7C21.4,18.8,21,18.6,20.9,18.2z"/>
		<path class="st7" d="M21,18.6L18.4,6.3c0-0.2,0-0.3,0.2-0.3l0.6-0.2c0.1,0,0.1,0,0.2,0.1c0.1,0,0.1,0.1,0.1,0.1
			c1,3.4,1.6,6.1,1.6,6.1s0.6,2.9,1,6.2c0,0,0,0.1,0,0.2S22,18.6,22,18.6l-0.6,0.1C21.2,18.9,21,18.8,21,18.6z"/>
		<path class="st8" d="M26.9,8.8L26.9,8.8c0-0.2,0.1-0.4,0.3-0.4l2.6-0.6c0.2,0,0.4,0.1,0.4,0.3l0,0c0,0.2-0.1,0.4-0.3,0.4L27.2,9
			C27.1,9.1,26.9,8.9,26.9,8.8z"/>
		<path class="st8" d="M27.7,12.9L27.7,12.9c0-0.2,0.1-0.4,0.3-0.4l2.6-0.6c0.2,0,0.4,0.1,0.4,0.3l0,0c0,0.2-0.1,0.4-0.3,0.4
			l-2.6,0.6C28,13.2,27.8,13.1,27.7,12.9z"/>
		<g>
			<g>
				<path class="st9" d="M28.6,7.5c1.4,1.6,1.9,3.8,1.3,5.9c-0.2,0.8,1,1.1,1.2,0.3c0.6-2.5,0-5.1-1.6-7C29,6,28.1,6.9,28.6,7.5
					L28.6,7.5z"/>
			</g>
		</g>
		<path class="st10" d="M25.5,17.7c-0.9-1-1.3-2.1-2-5.1c-0.1-0.8,0-0.5-0.3-1.8c-0.6-3-1-4.2-0.3-5.5C23,5.2,23,5.1,23.1,5l3.8-0.8
			c0.3-0.1,0.6,0.1,0.7,0.4l2.5,11.9c0.1,0.3-0.1,0.6-0.5,0.7L25.8,18C25.7,17.9,25.6,17.8,25.5,17.7z"/>
		<path class="st11" d="M25.7,17.9c-0.9-1-1.3-2.2-2-5.3c-0.2-0.8-0.1-0.5-0.4-1.9c-0.7-3.1-1-4.4-0.4-5.7C23,4.9,23,4.8,23.1,4.7
			l3.7-0.8c0.4,0,0.7,0.2,0.7,0.5l2.6,12.4c0.1,0.3-0.1,0.6-0.4,0.7L26,18.3C25.9,18.1,25.8,18,25.7,17.9z"/>
		<rect x="23.1" y="9.8" transform="matrix(0.979 -0.2037 0.2037 0.979 -1.7115 5.5179)" class="st10" width="5.6" height="2.6"/>
		<path class="st12" d="M22.6,12.7l-0.3-1.5c0-0.2,0.1-0.4,0.3-0.4l6-1.2c0.2,0,0.4,0.1,0.4,0.3l0.3,1.5c0,0.2-0.1,0.4-0.3,0.4
			L23,13C22.8,13,22.6,12.9,22.6,12.7z"/>
		<path class="st13" d="M22,12.4l-0.2-0.8c0-0.2,0.1-0.4,0.3-0.5l0.8-0.2c0.2,0,0.4,0.1,0.5,0.3l0.2,0.8c0,0.2-0.1,0.4-0.3,0.5
			l-0.8,0.2C22.2,12.7,22,12.6,22,12.4z"/>
		<path class="st14" d="M22.2,12.3l-0.1-0.6c0-0.1,0.1-0.3,0.2-0.3l0.4-0.1c0.1,0,0.3,0.1,0.3,0.2l0.1,0.6c0,0.1-0.1,0.3-0.2,0.3
			l-0.4,0.1C22.5,12.5,22.2,12.4,22.2,12.3z"/>
	</g>
	<g>
		<path class="st0" d="M33.2,8.7c-0.2,0-0.4,0-0.7,0L30.6,8l-1,0.9l0.5,2.1h1.8c0.5-0.2,1-0.4,1.5-0.7C33.5,9.9,33.4,9.3,33.2,8.7z"
			/>
		<path class="st4" d="M33.2,8.7c0,0-0.7,0.1-0.7,0c-0.7-0.2-1.3-0.4-1.9-0.6h0.1c-0.3,0.4-0.6,0.7-0.9,1V9c0.2,0.7,0.3,1.4,0.5,2.1
			L30.2,11c0,0,2,0,1.8,0.1l1.4-0.7v0.1L33.2,8.7L33.2,8.7z M33.2,8.7c0.1,0.6,0.3,1.2,0.4,1.8h-0.1L32,11.2l0,0h-1.8h-0.1
			c-0.2-0.8-0.3-1.5-0.5-2.3c0.4-0.3,0.7-0.7,1.1-1c0.6,0.2,1.4,0.5,1.9,0.8C32.5,8.7,33.2,8.7,33.2,8.7L33.2,8.7z"/>
	</g>
	<g>
		<path class="st1" d="M65.4,11.2c-0.3,0-0.5-0.5-0.2-0.6C65.1,10.8,65.1,10.8,65.4,11.2L65.4,11.2z"/>
	</g>
	<polygon class="st0" points="49.5,61 49.2,62.9 47.7,62.7 47.8,60.5 	"/>
	<polygon class="st15" points="49.2,62.8 50.5,64.4 55.2,67.9 47.5,65.6 46.9,65.5 47,63.9 47.5,62.3 	"/>
	<polygon class="st0" points="13.6,34 11.4,33.3 11.7,31.9 14.4,32.5 	"/>
	<polygon class="st15" points="11.4,33.5 9.5,34.3 4.9,38.3 8.2,31 8.4,30.4 10.4,31 12.2,31.8 	"/>
	<polygon class="st5" points="57.2,9.2 45.2,6.1 33,8.6 33.5,10.6 43.8,9.2 51.2,13 	"/>
	<polygon class="st16" points="38.5,20.8 29.5,34.2 13,32.1 13,34.2 30.5,40 41.2,28.7 48.4,42.4 47.7,61.2 49.8,61.3 53.4,41 
		47.7,25.5 	"/>
	<g>
		<path class="st1" d="M61.2,8.4c-1-0.2-2.5-0.4-3.1-0.6c-2.2,1-4.3,1.9-6.6,2.7c1.1-0.5,2.1-1,3.2-1.5c1.1-0.5,2.2-0.9,3.3-1.4
			C59,7.8,60.2,8.1,61.2,8.4L61.2,8.4z"/>
	</g>
	
		<linearGradient id="SVGID_00000075160717296779950860000001279894511211226795_" gradientUnits="userSpaceOnUse" x1="4.11" y1="2045.3213" x2="8.48" y2="2045.3213" gradientTransform="matrix(1 0 0 1 0 -1956)">
		<stop  offset="1.978731e-03" style="stop-color:#27B0FC"/>
		<stop  offset="1" style="stop-color:#63CEF9"/>
	</linearGradient>
	
		<rect x="4.2" y="81.6" style="fill:url(#SVGID_00000075160717296779950860000001279894511211226795_);" width="4.4" height="15.5"/>
	
		<linearGradient id="SVGID_00000116935294765485035560000016297130782886637199_" gradientUnits="userSpaceOnUse" x1="10.78" y1="2029.9213" x2="15.15" y2="2029.9213" gradientTransform="matrix(1 0 0 1 0 -1956)">
		<stop  offset="1.978731e-03" style="stop-color:#27AFFB"/>
		<stop  offset="1" style="stop-color:#63CDF8"/>
	</linearGradient>
	
		<rect x="10.9" y="64.1" style="fill:url(#SVGID_00000116935294765485035560000016297130782886637199_);" width="4.4" height="19.7"/>
	
		<linearGradient id="SVGID_00000003823325011812299980000013136119090484366473_" gradientUnits="userSpaceOnUse" x1="17.45" y1="2019.9213" x2="21.82" y2="2019.9213" gradientTransform="matrix(1 0 0 1 0 -1956)">
		<stop  offset="0.3935" style="stop-color:#A8E1FF"/>
		<stop  offset="1" style="stop-color:#DCFDFE"/>
	</linearGradient>
	
		<rect x="17.5" y="62.2" style="fill:url(#SVGID_00000003823325011812299980000013136119090484366473_);" width="4.4" height="3.5"/>
	
		<linearGradient id="SVGID_00000088133073246346782090000009191502119833163424_" gradientUnits="userSpaceOnUse" x1="24.12" y1="2014.8713" x2="28.49" y2="2014.8713" gradientTransform="matrix(1 0 0 1 0 -1956)">
		<stop  offset="1.978731e-03" style="stop-color:#27AFFB"/>
		<stop  offset="1" style="stop-color:#63CDF8"/>
	</linearGradient>
	
		<rect x="24.2" y="53.1" style="fill:url(#SVGID_00000088133073246346782090000009191502119833163424_);" width="4.4" height="11.6"/>
	
		<linearGradient id="SVGID_00000139254793254047952100000003214668822811073429_" gradientUnits="userSpaceOnUse" x1="30.79" y1="2011.5214" x2="35.16" y2="2011.5214" gradientTransform="matrix(1 0 0 1 0 -1956)">
		<stop  offset="0.3935" style="stop-color:#A8E1FF"/>
		<stop  offset="1" style="stop-color:#DCFDFE"/>
	</linearGradient>
	
		<rect x="30.9" y="53.1" style="fill:url(#SVGID_00000139254793254047952100000003214668822811073429_);" width="4.4" height="4.9"/>
	
		<linearGradient id="SVGID_00000129175487089710366140000004120213918587017406_" gradientUnits="userSpaceOnUse" x1="37.46" y1="2019.8213" x2="41.83" y2="2019.8213" gradientTransform="matrix(1 0 0 1 0 -1956)">
		<stop  offset="0.3935" style="stop-color:#A8E1FF"/>
		<stop  offset="1" style="stop-color:#DCFDFE"/>
	</linearGradient>
	
		<rect x="37.5" y="57.7" style="fill:url(#SVGID_00000129175487089710366140000004120213918587017406_);" width="4.4" height="12.3"/>
	
		<linearGradient id="SVGID_00000137846998618622573500000000718346884002487942_" gradientUnits="userSpaceOnUse" x1="44.13" y1="2030.5713" x2="48.5" y2="2030.5713" gradientTransform="matrix(1 0 0 1 0 -1956)">
		<stop  offset="1.978731e-03" style="stop-color:#27AFFB"/>
		<stop  offset="1" style="stop-color:#63CDF8"/>
	</linearGradient>
	
		<rect x="44.2" y="68.3" style="fill:url(#SVGID_00000137846998618622573500000000718346884002487942_);" width="4.4" height="12.6"/>
	
		<linearGradient id="SVGID_00000026144500506451046160000006714165077320886410_" gradientUnits="userSpaceOnUse" x1="50.8" y1="2030.5713" x2="55.17" y2="2030.5713" gradientTransform="matrix(1 0 0 1 0 -1956)">
		<stop  offset="0.3935" style="stop-color:#A8E1FF"/>
		<stop  offset="1" style="stop-color:#DCFDFE"/>
	</linearGradient>
	
		<rect x="50.9" y="68.3" style="fill:url(#SVGID_00000026144500506451046160000006714165077320886410_);" width="4.4" height="12.6"/>
	
		<linearGradient id="SVGID_00000112625185145375536530000004901568433351854724_" gradientUnits="userSpaceOnUse" x1="57.4653" y1="2022.0214" x2="61.8353" y2="2022.0214" gradientTransform="matrix(1 0 0 1 0 -1956)">
		<stop  offset="0.3935" style="stop-color:#A8E1FF"/>
		<stop  offset="1" style="stop-color:#DCFDFE"/>
	</linearGradient>
	
		<rect x="57.5" y="63.8" style="fill:url(#SVGID_00000112625185145375536530000004901568433351854724_);" width="4.4" height="4.5"/>
	
		<linearGradient id="SVGID_00000164493775284535793870000007907734611730512799_" gradientUnits="userSpaceOnUse" x1="64.1347" y1="2019.4213" x2="68.5047" y2="2019.4213" gradientTransform="matrix(1 0 0 1 0 -1956)">
		<stop  offset="1.978731e-03" style="stop-color:#27AFFB"/>
		<stop  offset="1" style="stop-color:#63CDF8"/>
	</linearGradient>
	<rect x="64.1" y="57" style="fill:url(#SVGID_00000164493775284535793870000007907734611730512799_);" width="4.4" height="12.9"/>
	
		<linearGradient id="SVGID_00000009552814644891585900000017199190190402579877_" gradientUnits="userSpaceOnUse" x1="70.8" y1="2011.7213" x2="75.17" y2="2011.7213" gradientTransform="matrix(1 0 0 1 0 -1956)">
		<stop  offset="0.3935" style="stop-color:#A8E1FF"/>
		<stop  offset="1" style="stop-color:#DCFDFE"/>
	</linearGradient>
	<rect x="70.9" y="48" style="fill:url(#SVGID_00000009552814644891585900000017199190190402579877_);" width="4.4" height="15.5"/>
	
		<linearGradient id="SVGID_00000031905421971897513620000016061048008350642100_" gradientUnits="userSpaceOnUse" x1="77.47" y1="2016.3213" x2="81.84" y2="2016.3213" gradientTransform="matrix(1 0 0 1 0 -1956)">
		<stop  offset="0.3935" style="stop-color:#A8E1FF"/>
		<stop  offset="1" style="stop-color:#DCFDFE"/>
	</linearGradient>
	
		<rect x="77.6" y="57.3" style="fill:url(#SVGID_00000031905421971897513620000016061048008350642100_);" width="4.4" height="6.1"/>
</g>
</svg>
