<?xml version="1.0" encoding="utf-8"?>
<!-- Generator: Adobe Illustrator 26.0.1, SVG Export Plug-In . SVG Version: 6.00 Build 0)  -->
<svg version="1.1" id="Layer_1" xmlns="http://www.w3.org/2000/svg" xmlns:xlink="http://www.w3.org/1999/xlink" x="0px" y="0px"
	 viewBox="0 0 100 100" style="enable-background:new 0 0 100 100;" xml:space="preserve">
<style type="text/css">
	.st0{fill:#FFBA9F;}
	.st1{fill:#242528;}
	.st2{fill:#FFB99E;}
	.st3{fill:#C6DFFF;}
	.st4{fill:#6EC0FF;}
	.st5{fill:none;stroke:#FFFFFF;stroke-width:0.5;stroke-miterlimit:10;}
	.st6{fill:#336DFF;}
	.st7{fill:url(#SVGID_1_);}
	.st8{fill:url(#SVGID_00000147917435863398213140000000857767768855089056_);}
	.st9{fill:#DBFCFD;}
	.st10{fill:url(#SVGID_00000143591157647060853540000000758648574463685776_);}
	.st11{fill:url(#SVGID_00000021114945432837127720000008045102663759561117_);}
	.st12{fill:url(#SVGID_00000111884149441336618550000010384703174180914350_);}
	.st13{fill:url(#SVGID_00000152264868575454193860000001715031528616887487_);}
	.st14{fill:url(#SVGID_00000005256432170887071030000010267282528621732235_);}
	.st15{fill:none;stroke:#1A1A1A;stroke-width:2;stroke-miterlimit:10;}
	.st16{fill:#7F90B1;}
	.st17{fill:#99B0D5;}
	.st18{fill:#333D49;}
	.st19{fill:#011435;}
	.st20{fill:none;stroke:#58595B;stroke-width:5.000000e-02;stroke-miterlimit:10;}
	.st21{fill:#414042;}
	.st22{fill:#333333;}
	.st23{fill:#B1CCE9;}
	.st24{fill:#FFFFFF;}
	.st25{fill:none;stroke:#333333;stroke-width:0.25;stroke-miterlimit:10;}
</style>
<g>
	<path class="st0" d="M59.2,90c0.2,0.8,0.5,1.5,0.8,2.3c-0.7,0-1.3,0.1-2,0.1c-0.3-0.8-0.5-1.7-0.8-2.5C57.9,89.9,58.5,89.9,59.2,90
		z"/>
	<polygon class="st1" points="60,92.2 61.9,93.4 68.4,95.4 59,95.4 58.2,95.4 58,93.8 58,92.2 	"/>
	<path class="st2" d="M35.9,91.1c0,0.5,0,1,0,1.5c0.7,0.2,1.4,0.5,2.1,0.8c0.1-0.8,0.1-1.6,0.2-2.4C37.4,91,36.7,91,35.9,91.1z"/>
	<polygon class="st1" points="35.9,92.3 34,93.5 27.5,95.5 37,95.5 37.8,95.5 38,93.9 38,92.3 	"/>
	<path class="st1" d="M91.9,90.7c0.5,0.8,1,1.7,1.5,2.5c1.5,0.8,3,1.6,4.4,2.3c-2.4-0.1-4.8-0.1-7.2-0.2h-0.8L89.4,93
		c0.2-0.7,0.3-1.4,0.5-2.1C90.6,90.8,91.2,90.8,91.9,90.7z"/>
	<path class="st1" d="M76.6,90.7c-0.5,0.8-1,1.7-1.5,2.5c-1.5,0.8-3,1.6-4.4,2.3c2.4-0.1,4.8-0.1,7.2-0.2h0.8l0.3-2.3
		c-0.2-0.7-0.3-1.4-0.5-2.1C77.9,90.8,77.1,90.8,76.6,90.7z"/>
	<g>
		<path class="st2" d="M42.9,19.9c-0.3,0.5,0.4,0.8,0.2,1.9c-0.1,0.6-0.4,1.3-1,1.9c-0.3,0.3-0.4,0.3-0.5,0.5
			c-0.2,0.7,1,1.3,2.1,2.9c1,1.5,1,2.7,1.4,2.7s0.3-1.2,1.5-3c0.5-0.9,0.9-1.5,1.7-1.9c0.6-0.3,1.2-0.5,1.2-0.7s-0.5-0.3-1-0.7
			c0,0-0.9-0.7-1.1-1.7c-0.2-0.9,0.2-1.2-0.1-1.7C46.7,18.9,43.5,18.8,42.9,19.9z"/>
		<path class="st2" d="M45.7,21.6h-1.3c-1.5,0-2.7-1.2-2.7-2.7v-5.3c0-1.5,1.2-2.7,2.7-2.7h1.3c1.5,0,2.7,1.2,2.7,2.7v5.3
			C48.4,20.4,47.2,21.6,45.7,21.6z"/>
		<path d="M41.7,15.5c-0.2-0.1-0.4-0.3-0.6-0.6c-0.1-0.1-0.3-0.4-0.4-1c-0.1-0.4,0-0.6,0-0.7c0-0.2,0.1-0.5,0.4-0.9
			c0.1-0.1,0.3-0.3,0.6-0.4c0.1,0,0.2,0,0.3,0c0,0,0.1-0.1,0.2,0c0.2,0.1,0.1,0.4,0.1,0.4s0,0-0.1,0l-0.1,0.1
			c-0.4,1.5-0.5,2.8-0.5,2.8C41.7,15.4,41.7,15.5,41.7,15.5z"/>
		<path class="st2" d="M42,15.3c-0.1-0.1-0.2-0.2-0.5-0.3c-0.1,0-0.4-0.1-0.5,0.1c-0.1,0.1-0.1,0.3,0,0.5c0.1,0.5,0.3,0.8,0.3,0.9
			c0.2,0.2,0.3,0.4,0.5,0.6c0.1,0.1,0.3,0.2,0.5,0.1C42.5,17,42.5,15.9,42,15.3z"/>
		<path d="M41.5,9c-0.1,0.1-0.7,0.4-0.8,1c-0.1,0.4,0,0.7,0.1,0.9c0,0.1,0.1,0.4,0.4,0.8c0.1,0.1,0.4,0.5,0.9,0.7
			c0.3,0.1,0.5,0.1,0.9,0.1c0.2,0,0.8,0,1.5-0.3c0.5-0.1,0.5-0.2,0.8-0.2c0.4,0,0.7,0.2,0.8,0.3c0.3,0.2,0.3,0.3,0.6,0.5
			c0.5,0.3,1.4,0.3,1.8-0.1c0.1-0.1,0.2-0.4,0.3-0.4c0.1-0.1,0.2-0.4,0.1-0.6c0-0.5-0.6-0.8-0.7-0.8c-0.5-0.3-1-0.2-1.3-0.1
			c-0.6,0.1-0.7,0.3-1.1,0.2c-0.4-0.1-0.6-0.3-0.8-0.4c-0.3-0.2-0.3-0.4-0.7-0.7c-0.2-0.2-0.5-0.5-0.8-0.7C43,8.8,42.2,8.7,41.5,9z"
			/>
		<path d="M48.2,15.6c0.2,0,0.5-0.2,0.7-0.4l0,0c0.7-0.6,0.8-1.4,0.8-1.4c0-0.5-0.2-0.9-0.2-1c-0.2-0.3-0.6-0.7-0.8-0.6
			c0,0-0.2,0.1-0.2,0.5c0,0-0.1-0.1-0.2-0.1c-0.2,0-0.2,0.3-0.1,0.3l0,0c0,0,0,0,0,0.1C48.2,13.2,48.2,15.4,48.2,15.6z"/>
		<g>
			<rect x="23.9" y="32.3" class="st3" width="15.7" height="11.5"/>
			<rect x="36.4" y="33.1" class="st4" width="1.6" height="10.1"/>
			<rect x="34" y="35.1" class="st4" width="1.6" height="8.1"/>
			<rect x="31.8" y="37.1" class="st4" width="1.6" height="6.2"/>
			<rect x="29.5" y="38.7" class="st4" width="1.6" height="4.5"/>
			<rect x="27.2" y="40.6" class="st4" width="1.6" height="2.6"/>
			<rect x="24.9" y="42.3" class="st4" width="1.6" height="1"/>
			<polyline class="st5" points="38.9,43.3 24.5,43.3 24.5,33.3 			"/>
		</g>
		<path class="st2" d="M48,15.3c0.1-0.1,0.2-0.2,0.5-0.3c0.1,0,0.4-0.1,0.5,0.1c0.1,0.1,0.1,0.3,0,0.5c-0.1,0.5-0.3,0.8-0.3,0.9
			c-0.2,0.2-0.3,0.4-0.5,0.6c-0.1,0.1-0.3,0.2-0.5,0.1C47.5,17,47.5,15.9,48,15.3z"/>
		<path class="st6" d="M42,24.3l-5.5,0.5l-5,13.3c1.7,3.2,3.5,6.4,5.2,9.6l0.5-6.2L35.9,39l1.1-3l4.6-5.9L42,24.3z"/>
		<path class="st2" d="M69.8,30.6c0.5-0.8,1-1.5,1.4-2.3l-0.4-1L69.9,20l-0.9,7.2c-0.2,0.6-0.4,1.2-0.5,1.8
			C68.9,29.6,69.4,30.1,69.8,30.6z"/>
		<path class="st6" d="M48.8,23.9c2.2,0,4.4-0.1,6.6-0.1l4.4,11.1l8.7-5.9l1.6,1.7l-10.8,9.8L53.3,32l-0.7,17.7H36.8L37,25.8
			c-0.1-0.3-0.3-0.6-0.4-0.9c1.8-0.3,3.5-0.5,5.2-0.8c1.1,1.5,2.1,2.9,3.2,4.4C46.2,26.9,47.5,25.4,48.8,23.9z"/>
		<g>
			
				<linearGradient id="SVGID_1_" gradientUnits="userSpaceOnUse" x1="10.7334" y1="1079.2598" x2="35.1666" y2="1036.9402" gradientTransform="matrix(1 0 0 1 0 -978)">
				<stop  offset="0.3935" style="stop-color:#A7E0FF"/>
				<stop  offset="1" style="stop-color:#DBFCFD"/>
			</linearGradient>
			<rect x="1.5" y="64.3" class="st7" width="43" height="31.6"/>
			
				<linearGradient id="SVGID_00000080926119084478771980000005661514089876269710_" gradientUnits="userSpaceOnUse" x1="1.45" y1="1044.95" x2="44.45" y2="1044.95" gradientTransform="matrix(1 0 0 1 0 -978)">
				<stop  offset="1.978731e-03" style="stop-color:#27B0FC"/>
				<stop  offset="1" style="stop-color:#63CEF9"/>
			</linearGradient>
			<polygon style="fill:url(#SVGID_00000080926119084478771980000005661514089876269710_);" points="44.5,69.7 1.5,69.6 1.5,64.2 
				44.5,64.3 			"/>
			<polygon class="st9" points="15.6,74.8 2.4,74.7 2.4,70.5 15.6,70.5 			"/>
			<polygon class="st9" points="15.6,79.8 2.4,79.8 2.4,75.6 15.6,75.6 			"/>
			<polygon class="st9" points="15.6,84.9 2.4,84.9 2.4,80.7 15.6,80.7 			"/>
			<polygon class="st9" points="15.6,90 2.4,90 2.4,85.8 15.6,85.8 			"/>
			<rect x="2.5" y="90.8" class="st9" width="13.2" height="4.2"/>
			<polygon class="st9" points="43.5,74.8 16.5,74.8 16.5,70.5 43.5,70.6 			"/>
			<polygon class="st9" points="43.5,79.9 16.5,79.8 16.5,75.6 43.5,75.7 			"/>
			<polygon class="st9" points="43.5,84.9 16.5,84.9 16.5,80.7 43.5,80.7 			"/>
			<polygon class="st9" points="43.5,90 16.5,90 16.5,85.8 43.5,85.8 			"/>
			<polygon class="st9" points="43.7,95 16.7,95 16.7,90.8 43.7,90.8 			"/>
			<polygon class="st9" points="43.5,74.8 30.6,74.8 30.6,70.6 43.5,70.6 			"/>
			<polygon class="st9" points="43.5,79.9 30.6,79.9 30.6,75.7 43.5,75.7 			"/>
			<polygon class="st9" points="43.5,84.9 30.6,84.9 30.6,80.7 43.5,80.7 			"/>
			<rect x="30.6" y="85.8" class="st9" width="13.1" height="4.2"/>
			<rect x="30.6" y="90.9" class="st9" width="13.1" height="4.2"/>
			
				<linearGradient id="SVGID_00000059303541762241153400000006268966505215753659_" gradientUnits="userSpaceOnUse" x1="6" y1="1050.65" x2="11.88" y2="1050.65" gradientTransform="matrix(1 0 0 1 0 -978)">
				<stop  offset="1.978731e-03" style="stop-color:#27B0FC"/>
				<stop  offset="1" style="stop-color:#63CEF9"/>
			</linearGradient>
			<rect x="6.1" y="72" style="fill:url(#SVGID_00000059303541762241153400000006268966505215753659_);" width="5.9" height="1.3"/>
			<rect x="19" y="71.8" class="st3" width="22.2" height="0.6"/>
			<rect x="19" y="72.7" class="st3" width="18.1" height="0.6"/>
			<rect x="19" y="77.1" class="st3" width="22.2" height="0.6"/>
			<rect x="19" y="77.9" class="st3" width="22.2" height="0.6"/>
			
				<linearGradient id="SVGID_00000044900415572665729440000014208562268534560945_" gradientUnits="userSpaceOnUse" x1="6" y1="1055.75" x2="11.88" y2="1055.75" gradientTransform="matrix(1 0 0 1 0 -978)">
				<stop  offset="1.978731e-03" style="stop-color:#27B0FC"/>
				<stop  offset="1" style="stop-color:#63CEF9"/>
			</linearGradient>
			
				<rect x="6.1" y="77.1" style="fill:url(#SVGID_00000044900415572665729440000014208562268534560945_);" width="5.9" height="1.3"/>
			
				<linearGradient id="SVGID_00000090252169714756472220000005378937859264156808_" gradientUnits="userSpaceOnUse" x1="6" y1="1060.85" x2="11.88" y2="1060.85" gradientTransform="matrix(1 0 0 1 0 -978)">
				<stop  offset="1.978731e-03" style="stop-color:#27B0FC"/>
				<stop  offset="1" style="stop-color:#63CEF9"/>
			</linearGradient>
			
				<rect x="6.1" y="82.2" style="fill:url(#SVGID_00000090252169714756472220000005378937859264156808_);" width="5.9" height="1.3"/>
			
				<linearGradient id="SVGID_00000039839469726441203930000011620819700143109561_" gradientUnits="userSpaceOnUse" x1="6" y1="1065.85" x2="11.88" y2="1065.85" gradientTransform="matrix(1 0 0 1 0 -978)">
				<stop  offset="1.978731e-03" style="stop-color:#27B0FC"/>
				<stop  offset="1" style="stop-color:#63CEF9"/>
			</linearGradient>
			
				<rect x="6.1" y="87.2" style="fill:url(#SVGID_00000039839469726441203930000011620819700143109561_);" width="5.9" height="1.3"/>
			
				<linearGradient id="SVGID_00000079469924991975718110000006708327124580561553_" gradientUnits="userSpaceOnUse" x1="6" y1="1070.95" x2="11.88" y2="1070.95" gradientTransform="matrix(1 0 0 1 0 -978)">
				<stop  offset="1.978731e-03" style="stop-color:#27B0FC"/>
				<stop  offset="1" style="stop-color:#63CEF9"/>
			</linearGradient>
			
				<rect x="6.1" y="92.3" style="fill:url(#SVGID_00000079469924991975718110000006708327124580561553_);" width="5.9" height="1.3"/>
			<rect x="19" y="81.7" class="st3" width="22.2" height="0.6"/>
			<rect x="19" y="82.6" class="st3" width="18.6" height="0.6"/>
			<rect x="19" y="87.2" class="st3" width="22.2" height="0.6"/>
			<rect x="19" y="88.1" class="st3" width="22.2" height="0.6"/>
			<rect x="19" y="83.4" class="st3" width="20.3" height="0.6"/>
			<rect x="19" y="92.1" class="st3" width="22.2" height="0.6"/>
			<rect x="19" y="92.9" class="st3" width="18.1" height="0.6"/>
		</g>
		<g>
			<path class="st15" d="M25.8,77h-5.6c-1.8,0-3.2-1.4-3.2-3.2v-9.5c0-1.8,1.4-3.2,3.2-3.2h5.6c1.8,0,3.2,1.4,3.2,3.2v9.5
				C29,75.6,27.6,77,25.8,77z"/>
			<path class="st16" d="M30.1,92.2H15.9c-1.5,0-2.7-1.2-2.7-2.7V74.6c0-1.5,1.2-2.7,2.7-2.7H30c1.5,0,2.7,1.2,2.7,2.7v14.9
				C32.8,91,31.5,92.2,30.1,92.2z"/>
			<path class="st17" d="M31.9,78.5H14.1c-0.9,0-1.6-0.7-1.6-1.6v-3.4c0-0.9,0.7-1.6,1.6-1.6h17.7c0.9,0,1.6,0.7,1.6,1.6v3.4
				C33.5,77.8,32.7,78.5,31.9,78.5z"/>
			<ellipse class="st18" cx="13.9" cy="75.2" rx="0.6" ry="0.6"/>
			<ellipse class="st18" cx="32.2" cy="75.2" rx="0.6" ry="0.6"/>
			<ellipse class="st18" cx="23.2" cy="82.3" rx="1.5" ry="1.4"/>
			<polygon class="st18" points="21,89.3 25.6,89.3 23.2,82.3 			"/>
		</g>
		<path class="st19" d="M36.8,49.2l-0.6,21c-0.2,6.9-0.5,13.9-0.7,20.9c1,0,2,0,3,0c0.7-5.9,1.4-11.9,2.2-17.8l4.1-21.4l5,15.4
			l1.8,5.3c2,6.2,4,12.3,5.9,18.5c1,0,2,0,3,0c-1.4-6-2.8-12-4.1-18l-3.6-23.9H36.8z"/>
		<polyline class="st20" points="44.8,16.5 44.5,17.6 45,18.2 		"/>
		<circle class="st21" cx="46.5" cy="15.9" r="0.2"/>
		<circle class="st21" cx="43.5" cy="15.9" r="0.2"/>
		<g>
			<g>
				<path class="st21" d="M36.8,32.7C37,37.1,37,41.5,37,45.9C36.5,41.5,36.5,37.1,36.8,32.7L36.8,32.7z"/>
			</g>
			<g>
				<path class="st21" d="M36.8,36.9c-0.2,0.8-0.5,1.5-0.8,2.2v-0.2c0.3,0.6,0.7,1.2,0.9,1.9c-0.5-0.6-0.9-1.2-1.3-1.8
					C35.9,38.2,36.2,37.5,36.8,36.9L36.8,36.9z"/>
			</g>
			<g>
				<path class="st21" d="M53,31.6c2.2,2.9,4.3,5.8,6.4,8.7h-0.3c1.8-1.6,3.6-3.2,5.4-4.9c1.8-1.6,3.6-3.2,5.5-4.8
					c-1.7,1.7-3.5,3.3-5.2,5c-1.8,1.7-3.7,3.4-5.5,5C57,37.6,55,34.6,53,31.6L53,31.6z"/>
			</g>
			<g>
				<path class="st21" d="M41.7,16.2c0.2,2.8-0.2,4.5,3.1,5.3C41.2,21.6,41.2,19,41.7,16.2L41.7,16.2z"/>
			</g>
			<g>
				<path class="st21" d="M41.8,24c-1.7,0.4-3.5,0.7-5.2,1l0.2-0.1c-0.4,1-0.8,2.1-1.2,3.1s-0.8,2-1.3,3c0.3-1.1,0.7-2.1,1-3.2
					c0.4-1.1,0.8-2.2,1.2-3.2C38.2,24.4,40,24.1,41.8,24L41.8,24z"/>
			</g>
		</g>
		<g>
			<path class="st22" d="M43.5,19.1c0.7,0.3,1.3,0.4,2.1,0.5C45,19.9,44,19.7,43.5,19.1L43.5,19.1z"/>
		</g>
		<path d="M81.9,17.9c-0.4,0.8-0.8,1.7-0.4,2.5c0.4,0.9,1.4,1.1,2.5,1.5c1.9,0.5,3.4,0.4,6.1,0c1.2-0.2,1.6-0.3,1.9-0.6
			c0.7-0.9-0.1-2.7-0.6-3.6c-0.5-0.8-1.2-1.3-1.7-1.7c-1.4-1-2.8-2-4.4-1.7C83.2,14.7,82.4,16.7,81.9,17.9z"/>
		<path class="st19" d="M77.2,43.7c-0.2,15.7-0.5,31.3-0.7,47c0.6,0.1,1.3,0.2,1.9,0.2c1.8-9.5,3.3-19.4,4.6-29.9
			c0.7-6,1.3-11.9,1.8-17.6C82.4,43.5,79.9,43.6,77.2,43.7z"/>
		<path class="st19" d="M91.4,44.2c0.2,15.5,0.3,31,0.4,46.4c-0.6,0.1-1.3,0.2-1.9,0.2c-1.5-8.5-2.8-17.3-4-26.5
			c-0.9-7.2-1.7-14.2-2.4-21C86.2,43.7,88.9,44,91.4,44.2z"/>
		<path class="st2" d="M83.4,18.5c-0.2,0.5,0.3,0.8,0.2,1.9c-0.1,0.6-0.3,1.3-0.8,1.9c-0.3,0.3-0.3,0.3-0.4,0.5
			c-0.2,0.7,0.8,1.3,1.7,2.8c0.8,1.5,0.8,2.6,1.2,2.6s0.3-1.2,1.2-2.9c0.4-0.8,0.8-1.4,1.4-1.9c0.5-0.3,0.9-0.4,0.9-0.7
			c0-0.2-0.4-0.3-0.8-0.7c0,0-0.7-0.6-0.9-1.6c-0.2-0.9,0.1-1.2-0.1-1.6C86.6,17.6,83.9,17.5,83.4,18.5z"/>
		<path class="st2" d="M86.2,20.1h-1.2c-1.4,0-2.6-1.2-2.6-2.6v-5.2c0-1.4,1.2-2.6,2.6-2.6h1.2c1.4,0,2.6,1.2,2.6,2.6v5.2
			C88.9,19,87.6,20.1,86.2,20.1z"/>
		<path class="st2" d="M82.8,14.1c-0.1-0.1-0.2-0.2-0.5-0.3c-0.1,0-0.4-0.1-0.5,0.1c-0.1,0.1-0.1,0.2,0,0.5c0.1,0.5,0.3,0.8,0.3,0.9
			c0.1,0.2,0.2,0.4,0.5,0.5c0.1,0.1,0.3,0.2,0.4,0.1C83.4,15.7,83.4,14.6,82.8,14.1z"/>
		<path class="st2" d="M88.6,14.1c0.1-0.1,0.2-0.2,0.5-0.3c0.1,0,0.4-0.1,0.5,0.1c0.1,0.1,0.1,0.2,0,0.5c-0.1,0.5-0.3,0.8-0.3,0.9
			c-0.1,0.2-0.2,0.4-0.5,0.5c-0.1,0.1-0.3,0.2-0.4,0.1C88.1,15.7,88.1,14.6,88.6,14.1z"/>
		<path class="st6" d="M88.6,22.5c1.7,1,3.5,1.9,5.2,2.9c-1.6,3.5-3.2,7-4.7,10.5c0.8,2.8,1.6,5.6,2.4,8.4
			c-4.7-0.1-9.4-0.2-14.2-0.3c0.9-2.8,1.8-5.6,2.6-8.4c-0.8-3.9-1.6-7.9-2.4-11.8c1.7-0.4,3.4-0.9,5.1-1.3c0.8,1.1,1.7,2.3,2.5,3.5
			C86.4,24.8,87.4,23.7,88.6,22.5z"/>
		<polyline class="st20" points="84.1,15.9 83.6,16.9 84.1,17.5 		"/>
		<path class="st2" d="M78.1,39.5c0.6,0.7,1.2,1.3,1.7,2l-0.5,0.6l-2,4.5c0.1-1.6,0.1-3.2,0.1-4.8c-0.1-0.3-0.2-0.6-0.3-0.9
			C77.4,40.4,77.8,40,78.1,39.5z"/>
		<path class="st6" d="M82.8,23c-1.7,0.3-3.5,0.5-5.2,0.8c-2.1,3.7-4.2,7.3-6.3,11c1.9,2.1,3.8,4.2,5.8,6.3c0.4-0.4,0.9-0.9,1.3-1.3
			c-1.1-1.7-2.1-3.3-3.2-5c1.8-2.1,3.6-4.6,5.4-7.6C81.4,25.7,82.1,24.3,82.8,23z"/>
		<ellipse class="st21" cx="85.4" cy="15.5" rx="0.2" ry="0.2"/>
		<ellipse class="st21" cx="83.1" cy="15.5" rx="0.2" ry="0.2"/>
		<g>
			<g>
				<path class="st21" d="M82.4,15c0.1,1.1,0.1,2.3,0.3,3.4c0.4,1,1.4,1.7,2.5,2c-1.2,0-2.4-0.7-2.9-1.8
					C82.1,17.3,82.2,16.1,82.4,15L82.4,15z"/>
			</g>
		</g>
		<path d="M84.4,12.4c0.4-0.1,0.6,0.1,1.1,0.2c0.4,0.1,1.5,0.6,2.1,1.7c0.3,0.5,0.3,1,0.4,1.9c0.2,1.7,0.2,4,0.2,4
			c0,0.2,0,0.5,0.2,0.8c0.4,0.6,1.2,0.6,1.7,0.6c0.7,0,1.5,0.1,1.9-0.4c0.3-0.4,0.2-1,0-2.1c-0.1-0.4-0.2-0.7-0.2-1
			c-0.3-0.9-0.5-1.5-0.6-1.7c-0.7-1.8-0.2-2.6-0.8-4c-0.7-1.5-2.2-2.2-2.3-2.3c-1.5-0.7-3.7-0.7-5.1,0.4c-1.9,1.6-0.6,4.3-1.9,7.4
			c-0.1,0.2-0.4,0.9-0.2,1.7c0.2,0.9,0.9,1.4,1.1,1.5c0.1,0,1,0.7,1.3,0.4c0.2-0.2,0-0.7-0.2-1.5c-0.4-1.4-0.4-2.5-0.4-3.6
			c0-1.2,0-1.9,0.4-2.7C83.1,13.3,83.6,12.5,84.4,12.4z"/>
		<path class="st2" d="M91.2,39.4c-0.6,0.5-1.1,1-1.7,1.5l0.6,0.5l1.9,4.5c-0.1-1.8-0.3-3.5-0.4-5.3c0-0.3-0.1-0.7-0.1-1
			C91.4,39.6,91.4,39.5,91.2,39.4z"/>
		<path class="st6" d="M88.9,23.6c1.6,0.6,3.3,1.2,4.9,1.7c1.6,3.6,3.2,7.2,4.7,10.8c-2.3,1.7-4.6,3.3-6.8,5c-0.2-0.5-0.3-1-0.5-1.6
			c1.3-1.3,2.6-2.6,3.9-3.9c-1.5-1.7-3.3-4.2-4.8-7.5C89.6,26.5,89.2,25,88.9,23.6z"/>
		<g>
			<g>
				<g>
					<polygon class="st3" points="15.6,32.9 5.5,32.9 3.8,34.6 3.8,49.9 15.6,49.9 					"/>
					<polygon class="st23" points="3.8,34.6 5.5,32.9 5.5,34.6 					"/>
				</g>
				<rect x="4.4" y="35.9" class="st24" width="10.6" height="0.4"/>
				<rect x="4.4" y="36.6" class="st24" width="8.1" height="0.4"/>
				<rect x="4.4" y="37.4" class="st24" width="10.6" height="0.4"/>
				<rect x="4.4" y="38.8" class="st24" width="10.6" height="0.4"/>
				<rect x="4.4" y="39.6" class="st24" width="10.6" height="0.4"/>
				<rect x="4.4" y="40.3" class="st24" width="6.4" height="0.4"/>
				<rect x="4.4" y="41.9" class="st24" width="10.6" height="0.4"/>
				<rect x="4.4" y="42.6" class="st24" width="8.1" height="0.4"/>
				<rect x="4.4" y="43.3" class="st24" width="6.8" height="0.4"/>
				<rect x="4.4" y="44.1" class="st24" width="10.6" height="0.4"/>
				<rect x="4.4" y="44.8" class="st24" width="8.1" height="0.4"/>
				<rect x="4.4" y="45.5" class="st24" width="10.6" height="0.4"/>
				<rect x="8.9" y="47.5" class="st24" width="6.1" height="0.4"/>
			</g>
			<g>
				<path class="st24" d="M14.3,35.2H14v-1.8h-0.2c-0.3,0-0.4,0.1-0.4,0.1l0,0v-0.2h1.7v0.2l0,0c0,0-0.1-0.1-0.4-0.1h-0.2L14.3,35.2
					L14.3,35.2z"/>
			</g>
		</g>
		<g>
			<path class="st22" d="M83.9,18.5c0.3-0.6,1.3-0.6,1.6,0C84.9,18.4,84.4,18.3,83.9,18.5L83.9,18.5z"/>
		</g>
		<g>
			<rect x="21.5" y="7.4" class="st3" width="11.1" height="17.2"/>
			<rect x="22.2" y="9.3" class="st24" width="9.2" height="0.4"/>
			<rect x="22.2" y="10" class="st24" width="7.1" height="0.4"/>
			<rect x="22.2" y="10.7" class="st24" width="9.2" height="0.4"/>
			<rect x="22.2" y="12.1" class="st24" width="9.2" height="0.4"/>
			<rect x="22.2" y="12.9" class="st24" width="9.2" height="0.4"/>
			<rect x="22.2" y="13.6" class="st24" width="5.6" height="0.4"/>
			<rect x="22.2" y="15.1" class="st24" width="9.2" height="0.4"/>
			<rect x="22.2" y="15.8" class="st24" width="7.1" height="0.4"/>
			<rect x="22.2" y="16.5" class="st24" width="6" height="0.4"/>
			<rect x="22.2" y="17.2" class="st24" width="9.2" height="0.4"/>
			<rect x="22.2" y="18" class="st24" width="7.1" height="0.4"/>
			<rect x="22.2" y="18.6" class="st24" width="9.2" height="0.4"/>
		</g>
		<g>
			<rect x="25.1" y="4.1" class="st4" width="11.1" height="17.2"/>
			<rect x="25.9" y="6" class="st24" width="9.2" height="0.4"/>
			<rect x="25.9" y="6.7" class="st24" width="7.1" height="0.4"/>
			<rect x="25.9" y="7.4" class="st24" width="9.2" height="0.4"/>
			<rect x="25.9" y="8.8" class="st24" width="9.2" height="0.4"/>
			<rect x="25.9" y="9.5" class="st24" width="9.2" height="0.4"/>
			<rect x="25.9" y="10.2" class="st24" width="5.6" height="0.4"/>
			<rect x="25.9" y="11.8" class="st24" width="9.2" height="0.4"/>
			<rect x="25.9" y="12.5" class="st24" width="7.1" height="0.4"/>
			<rect x="25.9" y="13.2" class="st24" width="6" height="0.4"/>
			<rect x="25.9" y="13.9" class="st24" width="9.2" height="0.4"/>
			<rect x="25.9" y="14.6" class="st24" width="7.1" height="0.4"/>
		</g>
		<rect x="28.8" y="18.4" class="st24" width="5.3" height="0.4"/>
		<line class="st25" x1="31.5" y1="45.1" x2="31.5" y2="57.1"/>
		<polyline class="st25" points="27.2,26.1 27.2,30.8 20.5,30.8 20.5,57.2 		"/>
		<line class="st25" x1="9.7" y1="51.1" x2="9.7" y2="62.4"/>
		<g>
			<path class="st21" d="M82.6,22.5c-1.5,0.4-3.9,1.2-5,1.4c-2.1,3.7-4.2,7.4-6.4,10.9c1-1.9,1.9-3.8,3-5.6c1-1.9,2.1-3.7,3.2-5.6
				C79.1,23.2,80.9,22.9,82.6,22.5L82.6,22.5z"/>
		</g>
		<g>
			<path class="st21" d="M91.6,30.4c1.4,1.7,2.6,3.4,3.9,5.2l-0.1,0.1c-1.3,1.3-2.7,2.6-4.1,3.8c1.2-1.4,2.5-2.8,3.8-4.1v0.2
				C93.8,34,92.6,32.3,91.6,30.4L91.6,30.4z"/>
		</g>
		<g>
			<path class="st21" d="M68.4,29c0.7-2.9,0.7-6,1.5-9C69.8,23.1,69.6,26.2,68.4,29L68.4,29z"/>
		</g>
		<g>
			<path class="st21" d="M77.1,41.1c0.1,0.2,0.3,0.5,0.4,0.7c0.1,1.6,0.1,3.2-0.2,4.8c-0.2-1.6-0.1-3.2,0-4.8l0,0
				C77.1,41.6,77.1,41.3,77.1,41.1L77.1,41.1z"/>
		</g>
		<g>
			<path class="st21" d="M52.9,42.7c0.1,2.1,0.2,4.5,0.1,6.5c0.2,1.5,0.4,3.1,0.5,4.7c-0.4-1.5-0.6-3.1-0.9-4.6
				C52.5,47.1,52.7,44.9,52.9,42.7L52.9,42.7z"/>
		</g>
	</g>
</g>
</svg>
