<?xml version="1.0" encoding="utf-8"?>
<!-- Generator: Adobe Illustrator 26.0.1, SVG Export Plug-In . SVG Version: 6.00 Build 0)  -->
<svg version="1.1" id="Layer_1" xmlns="http://www.w3.org/2000/svg" xmlns:xlink="http://www.w3.org/1999/xlink" x="0px" y="0px"
	 viewBox="0 0 100 100" style="enable-background:new 0 0 100 100;" xml:space="preserve">
<style type="text/css">
	.st0{fill:url(#SVGID_1_);}
	.st1{fill:url(#SVGID_00000160152189014270192460000017037282485904133506_);}
	.st2{fill:#DBFCFD;}
	.st3{fill:#6EC0FF;}
	.st4{fill:#C6DFFF;}
	.st5{fill:#336DFF;}
	.st6{fill:none;stroke:#336DFF;stroke-width:0.2;stroke-miterlimit:10;}
	.st7{fill:#FF5E33;}
	.st8{fill:none;stroke:#FF5E33;stroke-width:0.5;stroke-miterlimit:10;}
	.st9{fill:#48AE52;}
	.st10{fill:none;stroke:#48AE52;stroke-width:0.5;stroke-miterlimit:10;}
	.st11{fill:url(#SVGID_00000128461695400829884870000003922611306795483056_);}
	.st12{fill:url(#SVGID_00000021803846614173628710000006582669787689681560_);}
	.st13{fill:url(#SVGID_00000171704306482680350220000012533252110878160808_);}
	.st14{fill:url(#SVGID_00000115473200558489641980000015063815718224201376_);}
	.st15{fill:url(#SVGID_00000047058049093360546020000003248650855247390381_);}
	.st16{fill:url(#SVGID_00000040555640078653927560000008085718175008481447_);}
	.st17{fill:url(#SVGID_00000176744950295583315090000016020393617120802720_);}
	.st18{fill:url(#SVGID_00000160875419859021194670000008047769597491014056_);}
	.st19{fill:url(#SVGID_00000178172099985759851340000014765844824013468291_);}
	.st20{fill:url(#SVGID_00000127038117810922126630000007463715919370513842_);}
	.st21{fill:url(#SVGID_00000004541610626089597240000015007812648036030107_);}
	.st22{fill:url(#SVGID_00000140708938952318102970000010036645568259437979_);}
	.st23{fill:url(#SVGID_00000104665096455598121280000003616981467521091738_);}
	.st24{fill:#4DD9FF;}
	.st25{fill:none;stroke:#1B1464;stroke-width:0.25;stroke-miterlimit:10;}
</style>
<g>
	<g>
		
			<linearGradient id="SVGID_1_" gradientUnits="userSpaceOnUse" x1="37.0501" y1="1062.1779" x2="62.3499" y2="1018.3575" gradientTransform="matrix(1 0 0 1 0 -978)">
			<stop  offset="0.3935" style="stop-color:#A7E0FF"/>
			<stop  offset="1" style="stop-color:#DBFCFD"/>
		</linearGradient>
		<rect x="26.9" y="46.2" class="st0" width="45.6" height="32.1"/>
		
			<linearGradient id="SVGID_00000076563827164833361870000004287780995771164349_" gradientUnits="userSpaceOnUse" x1="26.9" y1="1025.8677" x2="72.5" y2="1025.8677" gradientTransform="matrix(1 0 0 1 0 -978)">
			<stop  offset="1.978731e-03" style="stop-color:#27B0FC"/>
			<stop  offset="1" style="stop-color:#63CEF9"/>
		</linearGradient>
		<polygon style="fill:url(#SVGID_00000076563827164833361870000004287780995771164349_);" points="72.5,49.6 27,49.6 26.9,46.1 
			72.5,46.1 		"/>
		<polygon class="st2" points="41.8,55.3 27.9,55.2 27.9,50.6 41.8,50.7 		"/>
		<polygon class="st2" points="41.8,60.8 27.9,60.8 27.9,56.2 41.8,56.2 		"/>
		<polygon class="st2" points="41.8,66.3 27.9,66.3 27.9,61.7 41.8,61.7 		"/>
		<polygon class="st2" points="41.8,71.9 27.9,71.8 27.9,67.3 41.8,67.3 		"/>
		<rect x="28" y="72.8" class="st2" width="13.9" height="4.6"/>
		<polygon class="st2" points="56.7,55.3 42.8,55.3 42.8,50.7 56.7,50.7 		"/>
		<polygon class="st2" points="56.8,60.8 42.8,60.8 42.8,56.2 56.7,56.2 		"/>
		<polygon class="st2" points="56.8,66.3 42.8,66.3 42.8,61.7 56.8,61.8 		"/>
		<polygon class="st2" points="56.8,71.9 42.8,71.9 42.8,67.3 56.7,67.3 		"/>
		<rect x="42.9" y="72.8" class="st2" width="13.9" height="4.6"/>
		<polygon class="st2" points="71.6,55.3 57.7,55.3 57.7,50.7 71.6,50.8 		"/>
		<polygon class="st2" points="71.6,60.9 57.7,60.8 57.7,56.3 71.6,56.3 		"/>
		<polygon class="st2" points="71.6,66.4 57.8,66.3 57.8,61.8 71.6,61.8 		"/>
		<rect x="57.7" y="67.3" class="st2" width="13.8" height="4.6"/>
		<rect x="57.8" y="72.8" class="st2" width="13.8" height="4.6"/>
		<rect x="32.4" y="52.3" class="st3" width="4.7" height="1.3"/>
		<rect x="32.3" y="57.7" class="st3" width="4.7" height="1.3"/>
		<rect x="32.3" y="63.4" class="st3" width="4.7" height="1.3"/>
		<rect x="32.4" y="68.8" class="st3" width="4.7" height="1.3"/>
		<rect x="32.4" y="74.3" class="st3" width="4.7" height="1.3"/>
		<rect x="43.6" y="52.3" class="st4" width="12.2" height="0.7"/>
		<rect x="43.6" y="53.2" class="st4" width="10" height="0.7"/>
		<rect x="43.6" y="57.7" class="st4" width="12.2" height="0.7"/>
		<rect x="43.6" y="58.6" class="st4" width="12.2" height="0.7"/>
		<rect x="43.6" y="62.9" class="st4" width="12.2" height="0.7"/>
		<rect x="43.6" y="63.8" class="st4" width="10.2" height="0.7"/>
		<rect x="43.6" y="68.7" class="st4" width="12.2" height="0.7"/>
		<rect x="43.6" y="69.6" class="st4" width="12.2" height="0.7"/>
		<rect x="43.6" y="64.6" class="st4" width="11.2" height="0.7"/>
		<rect x="43.6" y="74.3" class="st4" width="12.2" height="0.7"/>
		<rect x="43.6" y="75.2" class="st4" width="10" height="0.7"/>
		<rect x="58.6" y="52.3" class="st4" width="12.2" height="0.7"/>
		<rect x="58.6" y="53.3" class="st4" width="11.2" height="0.7"/>
		<rect x="58.6" y="57.7" class="st4" width="12.2" height="0.7"/>
		<rect x="58.6" y="58.6" class="st4" width="8.6" height="0.7"/>
		<rect x="58.6" y="62.9" class="st4" width="12.2" height="0.7"/>
		<rect x="58.6" y="63.8" class="st4" width="11.8" height="0.7"/>
		<rect x="58.6" y="68.7" class="st4" width="12.2" height="0.7"/>
		<rect x="58.6" y="69.6" class="st4" width="12.2" height="0.7"/>
		<rect x="58.6" y="64.7" class="st4" width="11.2" height="0.7"/>
		<rect x="58.6" y="74.4" class="st4" width="12.2" height="0.7"/>
		<rect x="58.6" y="75.3" class="st4" width="5.9" height="0.7"/>
	</g>
	<g>
		<path class="st3" d="M49.5,26.3l7.7,3.7c-1.4,2.9-4.3,4.7-7.5,4.8c-4.7,0.1-8.6-3.7-8.7-8.3s3.7-8.6,8.3-8.7
			c4.6-0.1,8.6,3.7,8.7,8.3L49.5,26.3z"/>
		<path class="st5" d="M49.5,26.3l7.6-3.9c1.5,2.9,1.2,6.3-0.7,8.9c-2.7,3.8-8.1,4.7-11.9,1.9c-3.8-2.7-4.7-8.1-1.9-11.9
			c2.7-3.8,8.1-4.7,11.9-1.9L49.5,26.3z"/>
	</g>
	<g>
		<rect x="94.6" y="61.1" class="st3" width="2.9" height="16"/>
		<rect x="90.6" y="64.3" class="st3" width="2.9" height="12.8"/>
		<rect x="86.6" y="67.3" class="st3" width="2.9" height="9.8"/>
		<rect x="82.5" y="69.9" class="st3" width="2.9" height="7.2"/>
		<rect x="78.5" y="73" class="st3" width="2.9" height="4.1"/>
		<rect x="74.4" y="75.6" class="st3" width="2.9" height="1.5"/>
		<line class="st6" x1="74.4" y1="77.1" x2="97.5" y2="77.1"/>
	</g>
	<g>
		<polyline class="st6" points="74.5,25.1 74.5,41.1 98.5,41.1 		"/>
		<g>
			<ellipse class="st7" cx="77.8" cy="39.1" rx="0.4" ry="0.3"/>
			<ellipse class="st7" cx="81.6" cy="36.4" rx="0.4" ry="0.3"/>
			<ellipse class="st7" cx="85.7" cy="39.1" rx="0.4" ry="0.3"/>
			<ellipse class="st7" cx="89.7" cy="39.1" rx="0.4" ry="0.3"/>
			<ellipse class="st7" cx="93.6" cy="38.1" rx="0.4" ry="0.3"/>
			<ellipse class="st7" cx="97.6" cy="37.2" rx="0.4" ry="0.3"/>
			<polyline class="st8" points="77.8,39.1 81.6,36.4 85.7,39.1 89.7,39.1 93.6,38.1 97.6,37.2 			"/>
			<ellipse class="st9" cx="77.8" cy="36.4" rx="0.4" ry="0.3"/>
			<ellipse class="st9" cx="81.6" cy="33.7" rx="0.4" ry="0.3"/>
			<ellipse class="st9" cx="85.7" cy="32.2" rx="0.4" ry="0.3"/>
			<ellipse class="st9" cx="89.7" cy="31" rx="0.4" ry="0.3"/>
			<ellipse class="st9" cx="93.8" cy="28.2" rx="0.4" ry="0.3"/>
			<polyline class="st10" points="77.8,36.4 81.6,33.7 85.7,32.2 89.7,31 93.8,28.2 97.6,26.1 			"/>
		</g>
	</g>
	<g>
		<g>
			<path class="st6" d="M27.5,41.1h-25c0-5.3,0-10.7,0-16"/>
			<line class="st6" x1="2.5" y1="32" x2="27.3" y2="32"/>
			<line class="st6" x1="2.5" y1="34.2" x2="27.3" y2="34.2"/>
			<line class="st6" x1="2.5" y1="36.5" x2="27.3" y2="36.5"/>
			<line class="st6" x1="2.5" y1="38.7" x2="27.3" y2="38.7"/>
			<line class="st6" x1="2.5" y1="29.8" x2="27.3" y2="29.8"/>
			<line class="st6" x1="2.5" y1="27.6" x2="27.3" y2="27.6"/>
			<line class="st6" x1="2.5" y1="25.3" x2="27.3" y2="25.3"/>
		</g>
		
			<linearGradient id="SVGID_00000096758270037567770930000008638814606530456763_" gradientUnits="userSpaceOnUse" x1="2.9455" y1="1016.9177" x2="4.0842" y2="1016.9177" gradientTransform="matrix(1 0 0 1 0 -978)">
			<stop  offset="1.978731e-03" style="stop-color:#27B0FC"/>
			<stop  offset="1" style="stop-color:#63CEF9"/>
		</linearGradient>
		<rect x="3" y="36.9" style="fill:url(#SVGID_00000096758270037567770930000008638814606530456763_);" width="1.1" height="4"/>
		
			<linearGradient id="SVGID_00000176013228023653221630000004498886054440356281_" gradientUnits="userSpaceOnUse" x1="4.6823" y1="1012.7677" x2="5.821" y2="1012.7677" gradientTransform="matrix(1 0 0 1 0 -978)">
			<stop  offset="1.978731e-03" style="stop-color:#27AFFB"/>
			<stop  offset="1" style="stop-color:#63CDF8"/>
		</linearGradient>
		
			<rect x="4.7" y="32.6" style="fill:url(#SVGID_00000176013228023653221630000004498886054440356281_);" width="1.1" height="4.3"/>
		
			<linearGradient id="SVGID_00000112615843402822645500000002574455848817585823_" gradientUnits="userSpaceOnUse" x1="6.42" y1="1010.5177" x2="7.5587" y2="1010.5177" gradientTransform="matrix(1 0 0 1 0 -978)">
			<stop  offset="0.3935" style="stop-color:#A8E1FF"/>
			<stop  offset="1" style="stop-color:#DCFDFE"/>
		</linearGradient>
		
			<rect x="6.4" y="32.1" style="fill:url(#SVGID_00000112615843402822645500000002574455848817585823_);" width="1.1" height="0.8"/>
		
			<linearGradient id="SVGID_00000132778757656347559280000008480679290406294971_" gradientUnits="userSpaceOnUse" x1="8.1559" y1="1009.4177" x2="9.2946" y2="1009.4177" gradientTransform="matrix(1 0 0 1 0 -978)">
			<stop  offset="1.978731e-03" style="stop-color:#27AFFB"/>
			<stop  offset="1" style="stop-color:#63CDF8"/>
		</linearGradient>
		
			<rect x="8.2" y="30.1" style="fill:url(#SVGID_00000132778757656347559280000008480679290406294971_);" width="1.1" height="2.6"/>
		
			<linearGradient id="SVGID_00000021118722461512289180000003575301915084460173_" gradientUnits="userSpaceOnUse" x1="9.8927" y1="1008.6677" x2="11.0314" y2="1008.6677" gradientTransform="matrix(1 0 0 1 0 -978)">
			<stop  offset="0.3935" style="stop-color:#A8E1FF"/>
			<stop  offset="1" style="stop-color:#DCFDFE"/>
		</linearGradient>
		
			<rect x="9.9" y="30.1" style="fill:url(#SVGID_00000021118722461512289180000003575301915084460173_);" width="1.1" height="1.1"/>
		
			<linearGradient id="SVGID_00000133492380193217171730000015828920548460944574_" gradientUnits="userSpaceOnUse" x1="11.63" y1="1010.4677" x2="12.7687" y2="1010.4677" gradientTransform="matrix(1 0 0 1 0 -978)">
			<stop  offset="0.3935" style="stop-color:#A8E1FF"/>
			<stop  offset="1" style="stop-color:#DCFDFE"/>
		</linearGradient>
		
			<rect x="11.6" y="31.1" style="fill:url(#SVGID_00000133492380193217171730000015828920548460944574_);" width="1.1" height="2.7"/>
		
			<linearGradient id="SVGID_00000138575081427490862880000016425151864364510852_" gradientUnits="userSpaceOnUse" x1="13.3663" y1="1012.9177" x2="14.505" y2="1012.9177" gradientTransform="matrix(1 0 0 1 0 -978)">
			<stop  offset="1.978731e-03" style="stop-color:#27AFFB"/>
			<stop  offset="1" style="stop-color:#63CDF8"/>
		</linearGradient>
		
			<rect x="13.4" y="33.5" style="fill:url(#SVGID_00000138575081427490862880000016425151864364510852_);" width="1.1" height="2.8"/>
		
			<linearGradient id="SVGID_00000036968375777240027560000013577831404614597809_" gradientUnits="userSpaceOnUse" x1="15.1031" y1="1012.9177" x2="16.2417" y2="1012.9177" gradientTransform="matrix(1 0 0 1 0 -978)">
			<stop  offset="0.3935" style="stop-color:#A8E1FF"/>
			<stop  offset="1" style="stop-color:#DCFDFE"/>
		</linearGradient>
		
			<rect x="15.1" y="33.5" style="fill:url(#SVGID_00000036968375777240027560000013577831404614597809_);" width="1.1" height="2.8"/>
		
			<linearGradient id="SVGID_00000169547180525414142520000016559618741969078943_" gradientUnits="userSpaceOnUse" x1="16.84" y1="1011.0177" x2="17.9786" y2="1011.0177" gradientTransform="matrix(1 0 0 1 0 -978)">
			<stop  offset="0.3935" style="stop-color:#A8E1FF"/>
			<stop  offset="1" style="stop-color:#DCFDFE"/>
		</linearGradient>
		<rect x="16.8" y="32.5" style="fill:url(#SVGID_00000169547180525414142520000016559618741969078943_);" width="1.1" height="1"/>
		
			<linearGradient id="SVGID_00000003094297900856260640000018003650678317590920_" gradientUnits="userSpaceOnUse" x1="18.5767" y1="1010.4177" x2="19.7153" y2="1010.4177" gradientTransform="matrix(1 0 0 1 0 -978)">
			<stop  offset="1.978731e-03" style="stop-color:#27AFFB"/>
			<stop  offset="1" style="stop-color:#63CDF8"/>
		</linearGradient>
		<rect x="18.6" y="31" style="fill:url(#SVGID_00000003094297900856260640000018003650678317590920_);" width="1.1" height="2.8"/>
		
			<linearGradient id="SVGID_00000051362011262724049470000004122706335442575801_" gradientUnits="userSpaceOnUse" x1="20.3135" y1="1008.7177" x2="21.4521" y2="1008.7177" gradientTransform="matrix(1 0 0 1 0 -978)">
			<stop  offset="0.3935" style="stop-color:#A8E1FF"/>
			<stop  offset="1" style="stop-color:#DCFDFE"/>
		</linearGradient>
		<rect x="20.3" y="29" style="fill:url(#SVGID_00000051362011262724049470000004122706335442575801_);" width="1.1" height="3.4"/>
		
			<linearGradient id="SVGID_00000086685490860155058770000010731161791985832106_" gradientUnits="userSpaceOnUse" x1="22.05" y1="1009.8177" x2="23.1886" y2="1009.8177" gradientTransform="matrix(1 0 0 1 0 -978)">
			<stop  offset="0.3935" style="stop-color:#A8E1FF"/>
			<stop  offset="1" style="stop-color:#DCFDFE"/>
		</linearGradient>
		<rect x="22" y="31.1" style="fill:url(#SVGID_00000086685490860155058770000010731161791985832106_);" width="1.1" height="1.4"/>
		
			<linearGradient id="SVGID_00000164497224273856322490000018350083695894684295_" gradientUnits="userSpaceOnUse" x1="23.7871" y1="1010.1177" x2="24.9257" y2="1010.1177" gradientTransform="matrix(1 0 0 1 0 -978)">
			<stop  offset="1.978731e-03" style="stop-color:#27AFFB"/>
			<stop  offset="1" style="stop-color:#63CDF8"/>
		</linearGradient>
		<rect x="23.8" y="30.1" style="fill:url(#SVGID_00000164497224273856322490000018350083695894684295_);" width="1.1" height="4"/>
	</g>
	<g>
		<rect x="4" y="61.1" class="st24" width="21.5" height="2.8"/>
		<rect x="4" y="64.9" class="st24" width="19.3" height="2.8"/>
		<rect x="4" y="68.7" class="st24" width="16.5" height="2.8"/>
		<rect x="4" y="72.5" class="st24" width="13.5" height="2.8"/>
		<polyline class="st6" points="1.5,61.1 1.5,77.1 25.5,77.1 		"/>
	</g>
	<line class="st25" x1="49.5" y1="36.1" x2="49.5" y2="45.1"/>
	<polyline class="st25" points="14.7,43.1 14.7,53.2 26.3,53.2 	"/>
	<polyline class="st25" points="84.8,42.6 84.8,52.7 73.2,52.7 	"/>
	<polyline class="st25" points="16.5,78.3 16.5,82.2 39.9,82.2 39.9,80.2 	"/>
	<polyline class="st25" points="82.3,78.4 82.3,82.2 58.9,82.2 58.9,80.3 	"/>
</g>
</svg>
