<?xml version="1.0" encoding="utf-8"?>
<!-- Generator: Adobe Illustrator 26.0.1, SVG Export Plug-In . SVG Version: 6.00 Build 0)  -->
<svg version="1.1" id="Layer_1" xmlns="http://www.w3.org/2000/svg" xmlns:xlink="http://www.w3.org/1999/xlink" x="0px" y="0px"
	 viewBox="0 0 100 100" style="enable-background:new 0 0 100 100;" xml:space="preserve">
<style type="text/css">
	.st0{fill:#90A4CB;}
	.st1{fill:#353A46;}
	.st2{fill:#92A2C3;}
	.st3{fill:#FFB99E;}
	.st4{fill:#FFFFFF;}
	.st5{fill:#414042;}
	.st6{fill:url(#SVGID_1_);}
	.st7{fill:url(#SVGID_00000159437148791230150040000011588765551890582454_);}
	.st8{fill:#F3FCFF;}
	.st9{fill:#4DD9FF;}
	.st10{fill:#6EC1FF;}
	.st11{fill:#697993;}
	.st12{fill:#333333;}
	.st13{fill:#336DFF;}
	.st14{fill:#021D44;}
	.st15{fill:#020F1E;}
	.st16{fill:#242528;}
	.st17{fill:#99B0D5;}
	.st18{fill:url(#SVGID_00000170980714134698216570000006632545791306944905_);}
	.st19{fill:url(#SVGID_00000150076086613910481330000017333314328407108226_);}
	.st20{fill:none;stroke:#FFFFFF;stroke-width:0.4;stroke-miterlimit:10;}
	.st21{fill:none;stroke:#FFFFFF;stroke-miterlimit:10;}
	.st22{fill:#EA42FC;}
</style>
<g>
	<g>
		<path class="st0" d="M31.8,97.8c-3.4,0.2-6.9,0.3-10.3,0.5c0-5.4,0-10.8,0-16.2c3.4-0.2,6.9-0.4,10.3-0.5
			C31.8,87,31.8,92.4,31.8,97.8z"/>
		<path class="st1" d="M21.4,98.3c-0.9-0.2-1.7-0.3-2.6-0.5c0-5.4,0-10.8,0-16.2c0.9,0.2,1.7,0.4,2.6,0.6
			C21.4,87.6,21.4,92.9,21.4,98.3z"/>
		<path class="st2" d="M21.4,82.2c-0.9-0.2-1.7-0.4-2.6-0.6c3.5-0.2,6.9-0.4,10.4-0.6c0.8,0.2,1.7,0.4,2.5,0.6
			C28.2,81.8,24.9,82,21.4,82.2z"/>
	</g>
	<path class="st3" d="M13.2,13.3c-0.7-0.5-1.5-0.9-2.2-1.4c-0.1-0.8-0.2-2.1,0-3.6c0.2-1.9,0.4-3.3,1.5-4.5c1.2-1.3,2.8-1.5,3.7-1.6
		l1.3,0.5C19,3.3,19.8,5,19.1,6.4c-0.5,1.4-0.9,2.9-1.4,4.3c-0.1,0.2-0.6,1.9-2.3,2.5C14.4,13.6,13.6,13.4,13.2,13.3z"/>
	<path class="st3" d="M11.2,10.5c-0.4,0.4,0,1-0.6,2C10.3,13,9.8,13.6,8.9,14c-0.5,0.2-0.5,0.1-0.7,0.3C7.8,14.9,8.8,16,9.1,18
		c0.4,1.9-0.1,3.1,0.4,3.2c0.7,0.3,2.6-1,2.6-2.3c0-0.5-0.2-0.9,0-1c0.3-0.2,1.1,0.9,1.6,0.7c0.3-0.1,0.2-0.8,0.4-2.4
		c0.1-0.9,0.2-1.4,0.4-2c0.4-1,0.9-1.1,0.9-1.5C15.5,11.2,12.1,9.7,11.2,10.5z"/>
	<path d="M11.8,5.7c-0.1-0.2-0.3-0.4-0.4-0.8c0-0.1-0.1-0.6,0-1.1c0.1-0.4,0.2-0.6,0.3-0.7c0.1-0.2,0.3-0.5,0.7-0.7
		c0.1-0.1,0.4-0.2,0.7-0.1c0.1,0,0.2,0.1,0.3,0.2c0,0,0.1,0,0.2,0.1c0.1,0.2,0,0.5-0.1,0.5c0,0,0,0-0.1,0s-0.1,0-0.1,0.1
		C12.2,4.5,11.7,5.7,11.8,5.7C11.9,5.6,11.9,5.7,11.8,5.7z"/>
	<path d="M12.9,5.5c-0.2,0.2-0.7,0.6-1,1.2c-0.3,0.5-0.9,1.5-0.9,3.3c-0.1-0.2-0.3-0.5-0.5-0.9c-0.2-0.5-0.2-0.9-0.2-1.3
		c0-1.2-0.1-3.1,1.1-4.6c0.1-0.2,1-1.2,1.6-1s0.5,1.4,1.2,1.7c0.4,0.1,0.7,0,0.7,0C15.1,4.1,14.1,4.5,12.9,5.5z"/>
	<path d="M24,4.3c0.2,0.2,0.6,0.8,0.5,1.7c-0.1,0.7-0.5,1.3-0.9,1.7c-1,0.8-2.6,0.5-3.6,0C18.6,7,18.8,6,17.3,5.4
		C17,5.3,16.1,4.9,15,5.2s-1.9,1.1-2.3,1.5c-0.6,0.6-0.6,0.9-0.8,0.9c-0.6-0.1-1.5-2.6-0.4-4.3c1.1-1.8,4.2-2.1,5.5-1.1
		c0.4,0.3,0.7,0.9,1.5,1.1c0.5,0.2,1,0.1,1.4,0.1c0.8,0,0.9-0.2,1.5-0.2C22.1,3,23.4,3.4,24,4.3z"/>
	<path class="st3" d="M11.9,7c0-0.1-0.1-0.3-0.4-0.5c-0.1-0.1-0.4-0.2-0.6-0.1c-0.1,0.1-0.2,0.2-0.2,0.5c-0.1,0.5,0,0.9,0,1
		c0.1,0.3,0.1,0.5,0.3,0.8C11.2,8.8,11.2,9,11.4,9C11.8,8.9,12.2,7.8,11.9,7z"/>
	<path class="st4" d="M15.1,11.8l1.5,0.6c-0.1,0.1-0.6,0.6-1,0.4S15.1,11.9,15.1,11.8z"/>
	<circle class="st5" cx="16.4" cy="9" r="0.2"/>
	<g>
		<path class="st5" d="M11.1,8.5c-0.2,2,1,3.7,2.7,4.7C11.9,12.8,10.2,10.4,11.1,8.5L11.1,8.5z"/>
	</g>
	<g>
		
			<linearGradient id="SVGID_1_" gradientUnits="userSpaceOnUse" x1="38.4677" y1="1049.124" x2="79.7732" y2="977.5811" gradientTransform="matrix(1 0 0 1 0 -978)">
			<stop  offset="0.3935" style="stop-color:#A8E1FF"/>
			<stop  offset="1" style="stop-color:#DCFDFE"/>
		</linearGradient>
		<path class="st6" d="M88.8,65.3H29.1c-1.5,0-2.6-1.2-2.6-2.6V8.6c0-2.2,1.8-3.9,3.9-3.9h57.2c2.2,0,3.9,1.8,3.9,3.9v54.1
			C91.4,64.2,90.3,65.3,88.8,65.3z"/>
		
			<linearGradient id="SVGID_00000065768446306232959330000009087608934752933808_" gradientUnits="userSpaceOnUse" x1="26.45" y1="985.483" x2="91.45" y2="985.483" gradientTransform="matrix(1 0 0 1 0 -978)">
			<stop  offset="1.978731e-03" style="stop-color:#27B0FC"/>
			<stop  offset="1" style="stop-color:#63CEF9"/>
		</linearGradient>
		<path style="fill:url(#SVGID_00000065768446306232959330000009087608934752933808_);" d="M91.4,11.2h-65V6.3
			c0-1.5,1.2-2.6,2.6-2.6h59.7c1.5,0,2.6,1.2,2.6,2.6L91.4,11.2L91.4,11.2z"/>
		<rect x="29.2" y="20.3" class="st8" width="24.9" height="1.6"/>
		<rect x="29.2" y="44.3" class="st8" width="58.8" height="0.4"/>
		<rect x="29" y="13.7" class="st8" width="34" height="2.8"/>
		<path class="st9" d="M73.2,28l12.7,6.2c-2.3,4.8-7.1,7.8-12.4,8c-7.8,0.2-14.3-6-14.5-13.8s6-14.3,13.8-14.4
			c7.8-0.2,14.3,6.1,14.4,13.8L73.2,28z"/>
		<path class="st10" d="M73.2,28l12.6-6.4c2.4,4.7,2,10.4-1.1,14.7c-4.5,6.3-13.4,7.7-19.7,3.2s-7.7-13.4-3.2-19.7
			s13.4-7.7,19.7-3.2L73.2,28z"/>
		<rect x="76.8" y="48.6" class="st9" width="4.5" height="13.8"/>
		<rect x="69.9" y="52.1" class="st9" width="4.5" height="10.3"/>
		<rect x="63.2" y="52.1" class="st9" width="4.5" height="10.3"/>
		<rect x="56.5" y="48.6" class="st9" width="4.5" height="13.8"/>
		<rect x="49.7" y="52.1" class="st9" width="4.5" height="10.3"/>
		<rect x="42.8" y="53.9" class="st9" width="4.5" height="8.5"/>
		<rect x="36" y="55" class="st9" width="4.5" height="7.4"/>
		<rect x="29.2" y="53.9" class="st9" width="4.5" height="8.5"/>
		<rect x="29.2" y="23.1" class="st8" width="24.8" height="1.6"/>
		<rect x="29.2" y="26" class="st8" width="22.6" height="1.6"/>
		<rect x="29.2" y="32.4" class="st8" width="25.3" height="1.6"/>
		<rect x="29.4" y="35.1" class="st8" width="25" height="1.6"/>
	</g>
	<path class="st11" d="M29.4,28.8L29.4,28.8c-0.3-0.1-0.4-0.5-0.2-0.8l5.2-9.1c0.2-0.3,0.5-0.4,0.8-0.2l0,0c0.3,0.1,0.4,0.5,0.2,0.8
		l-5.2,9.1C30,28.8,29.6,28.9,29.4,28.8z"/>
	<polygon class="st3" points="17.8,9.6 18.2,11.2 17.1,11.7 	"/>
	<g>
		<path class="st3" d="M30.1,21.3c0.4,0,0.8,0,1.1,0l2.4-2l2,0.7l0.7,3.1l-2.6,1.1c-0.9,0-1.8,0-2.7,0
			C30.8,23.2,30.5,22.3,30.1,21.3z"/>
		<path class="st12" d="M30.1,21.3h1.1c0.7-0.6,1.6-1.4,2.4-2.1h0.1l2,0.6h0.1v0.1l0.7,3.1c0,0.1,0.1,0.1-0.1,0.2l-2.7,1.1
			c0,0-2.7-0.1-2.7,0h-0.1v-0.1L30.1,21.3L30.1,21.3z M30.1,21.3l1,2.9L31,24.1c0,0,2.9,0,2.6,0l2.7-1.1l-0.1,0.1L35.5,20l0.1,0.1
			l-2-0.7h0.1c-0.8,0.6-1.7,1.3-2.5,2C31.3,21.3,30.1,21.3,30.1,21.3L30.1,21.3z"/>
	</g>
	<path class="st3" d="M21.5,75.2c0,0.9,0,1.8,0,2.7c-0.6,0.1-1.2,0.2-1.8,0.2c0-1,0-2,0-3C20.2,75.1,20.9,75.2,21.5,75.2z"/>
	<path class="st13" d="M8.4,14.2c-1.3,1.8-2.5,3.6-3.8,5.3L2.8,43.8l11.6-3.3l0.7-15l5.6,3.3L31.2,24L30,21l-9.1,3
		c-2.2-2.6-4.5-5.2-6.7-7.7c-1.3-1.1-2.7-2.2-4-3.3C9.6,13.4,9.1,13.8,8.4,14.2z"/>
	<polygon class="st14" points="2.8,43.8 20,56.3 18.9,75.4 23.1,75.4 26.9,54 14.4,40.5 	"/>
	<path class="st3" d="M9.9,90.5c0,1,0,2.1,0,3.1c-0.7,0.1-1.5,0.1-2.2,0.2l-0.4-3.3C8.1,90.6,9.1,90.6,9.9,90.5z"/>
	<path class="st15" d="M2.8,43.8c1,6.4,2,12.9,2.9,19.4l1.1,27.6h4c0.7-13.4,1.5-26.7,2.2-40.1C9.6,48.4,6.2,46.1,2.8,43.8z"/>
	<polygon class="st16" points="21.6,77.5 23.4,79 29.5,81.6 20.6,81.6 20,81.6 19.6,79.6 19.6,77.5 	"/>
	<polygon class="st16" points="9.9,93.5 11.9,95.2 19.2,98.2 8.8,98.2 7.9,98.2 7.6,95.9 7.6,93.5 	"/>
	<g>
		<path class="st5" d="M11.9,23.7c2.7,1.6,6.7,3.6,8.8,5.1l5.2-2.3c1.8-0.8,3.5-1.5,5.3-2.2c-1.7,0.9-3.4,1.7-5.1,2.5l-5.2,2.4
			c-0.1,0-0.1,0.1-0.2,0C17.6,27.3,14.6,25.5,11.9,23.7L11.9,23.7z"/>
	</g>
	<g>
		<path class="st5" d="M8.4,14.2c-1.1,1.7-2.6,4-3.6,5.4c-0.3,4.3-0.6,8.6-1.1,12.9c0.1-4.3,0.4-8.6,0.8-12.9
			C5.7,17.7,7.1,15.9,8.4,14.2L8.4,14.2z"/>
	</g>
	<ellipse transform="matrix(0.4809 -0.8768 0.8768 0.4809 7.6177 40.733)" class="st11" cx="38.2" cy="13.9" rx="6.3" ry="3.3"/>
	<ellipse transform="matrix(0.4809 -0.8768 0.8768 0.4809 7.5867 40.1949)" class="st17" cx="37.7" cy="13.7" rx="6.3" ry="2.9"/>
	<path class="st4" d="M41,8.9c0.1,0.3,0.7,2.4-0.6,4.3c-0.6,0.9-1.3,1.4-1.8,1.6c0.4-0.3,1.3-1.1,1.8-2.4c0.8-2.2-0.5-4-0.6-4.2
		L41,8.9z"/>
	
		<linearGradient id="SVGID_00000132047256036771810230000007871474735834792593_" gradientUnits="userSpaceOnUse" x1="78.7" y1="1036.103" x2="78.7" y2="1064.233" gradientTransform="matrix(1 0 0 1 0 -978)">
		<stop  offset="0.5509" style="stop-color:#A7E0FF"/>
		<stop  offset="1" style="stop-color:#DBFCFD"/>
	</linearGradient>
	<path style="fill:url(#SVGID_00000132047256036771810230000007871474735834792593_);" d="M96.8,86.2H60.7c-0.3,0-0.5-0.2-0.5-0.5
		V58.5c0-0.3,0.2-0.5,0.5-0.5h36.1c0.3,0,0.5,0.2,0.5,0.5v27.2C97.2,86,97.1,86.2,96.8,86.2z"/>
	
		<linearGradient id="SVGID_00000075858569836678711270000013320879462151413176_" gradientUnits="userSpaceOnUse" x1="60.15" y1="1037.683" x2="97.25" y2="1037.683" gradientTransform="matrix(1 0 0 1 0 -978)">
		<stop  offset="1.978731e-03" style="stop-color:#27AFFB"/>
		<stop  offset="1" style="stop-color:#63CDF8"/>
	</linearGradient>
	<path style="fill:url(#SVGID_00000075858569836678711270000013320879462151413176_);" d="M97.2,61.3H60.2v-2.8
		c0-0.3,0.2-0.5,0.5-0.5h36.1c0.3,0,0.5,0.2,0.5,0.5V61.3L97.2,61.3z"/>
	<line class="st20" x1="60.2" y1="61.3" x2="96.9" y2="61.3"/>
	<line class="st20" x1="60.2" y1="64.8" x2="96.9" y2="64.8"/>
	<line class="st20" x1="60.2" y1="68.3" x2="96.9" y2="68.3"/>
	<line class="st20" x1="60.2" y1="71.8" x2="96.9" y2="71.8"/>
	<line class="st20" x1="60.2" y1="75.3" x2="96.9" y2="75.3"/>
	<line class="st20" x1="60.2" y1="78.8" x2="96.9" y2="78.8"/>
	<line class="st20" x1="60.2" y1="82.3" x2="96.9" y2="82.3"/>
	<line class="st21" x1="60.2" y1="85.8" x2="96.9" y2="85.8"/>
	<line class="st20" x1="65.8" y1="85.8" x2="65.8" y2="58.1"/>
	<line class="st20" x1="69.4" y1="85.8" x2="69.4" y2="58.1"/>
	<line class="st20" x1="72.8" y1="85.8" x2="72.8" y2="58.1"/>
	<line class="st20" x1="76.3" y1="85.8" x2="76.3" y2="58.1"/>
	<line class="st20" x1="79.8" y1="85.7" x2="79.8" y2="58.1"/>
	<line class="st20" x1="83.2" y1="85.8" x2="83.2" y2="58.1"/>
	<line class="st20" x1="86.6" y1="85.8" x2="86.6" y2="58.1"/>
	<line class="st20" x1="90.1" y1="85.7" x2="90.1" y2="58.1"/>
	<line class="st20" x1="93.4" y1="85.8" x2="93.4" y2="58.1"/>
	<line class="st21" x1="96.8" y1="85.7" x2="96.8" y2="58.1"/>
	<path class="st22" d="M32,82"/>
</g>
</svg>
