<?xml version="1.0" encoding="utf-8"?>
<!-- Generator: Adobe Illustrator 26.0.1, SVG Export Plug-In . SVG Version: 6.00 Build 0)  -->
<svg version="1.1" id="Layer_1" xmlns="http://www.w3.org/2000/svg" xmlns:xlink="http://www.w3.org/1999/xlink" x="0px" y="0px"
	 viewBox="0 0 100 100" style="enable-background:new 0 0 100 100;" xml:space="preserve">
<style type="text/css">
	.st0{fill:url(#SVGID_1_);}
	.st1{fill:url(#SVGID_00000116954223006365924890000012195789803793546370_);}
	.st2{fill:none;stroke:#FFFFFF;stroke-width:0.4;stroke-miterlimit:10;}
	.st3{fill:#FFBA9F;}
	.st4{fill:#F15A24;}
	.st5{fill:#7F90B1;}
	.st6{fill:#E8F2FF;}
	.st7{fill:#98C2FF;}
	.st8{fill:#71FFFF;}
	.st9{fill:#C6DFFF;}
	.st10{fill:#FFFFFF;}
	.st11{fill:#336DFF;}
	.st12{fill:#011435;}
	.st13{fill:#242528;}
	.st14{fill:none;stroke:#58595B;stroke-width:5.000000e-02;stroke-miterlimit:10;}
	.st15{fill:#414042;}
</style>
<g>
	
		<linearGradient id="SVGID_1_" gradientUnits="userSpaceOnUse" x1="191.4858" y1="-739.7255" x2="262.0785" y2="-739.7255" gradientTransform="matrix(0.9906 -7.423940e-03 -7.392895e-03 -0.9864 -174.5191 -678.5361)">
		<stop  offset="0.3935" style="stop-color:#A7E0FF"/>
		<stop  offset="1" style="stop-color:#DBFCFD"/>
	</linearGradient>
	<path class="st0" d="M89.9,72.9l-68.3,0.5c-0.5,0-0.8-0.4-0.8-0.9l-0.4-45.6c0-0.5,0.4-0.9,0.8-0.9l68.3-0.5c0.5,0,0.8,0.4,0.8,0.9
		L90.7,72C90.7,72.5,90.4,72.9,89.9,72.9z"/>
	
		<linearGradient id="SVGID_00000064333501475149548900000016680152066968453545_" gradientUnits="userSpaceOnUse" x1="188.418" y1="-698.0469" x2="259.0373" y2="-698.0469" gradientTransform="matrix(0.9917 -7.432627e-03 -7.494450e-03 -1 -171.6422 -668.0151)">
		<stop  offset="1.978731e-03" style="stop-color:#27AFFB"/>
		<stop  offset="1" style="stop-color:#63CDF8"/>
	</linearGradient>
	<path style="fill:url(#SVGID_00000064333501475149548900000016680152066968453545_);" d="M90.5,30.9l-70,0.5v-4.6
		c0-0.5,0.4-0.9,0.9-1l68.2-0.5c0.5,0,0.9,0.5,0.9,0.9V30.9z"/>
	<line class="st2" x1="20.5" y1="31.4" x2="90.5" y2="30.9"/>
	<line class="st2" x1="20.6" y1="37.4" x2="90.5" y2="36.9"/>
	<line class="st2" x1="20.6" y1="43.5" x2="90.6" y2="42.9"/>
	<line class="st2" x1="20.6" y1="49.4" x2="90.6" y2="48.9"/>
	<line class="st2" x1="20.6" y1="55.4" x2="90.6" y2="54.9"/>
	<line class="st2" x1="20.7" y1="61.4" x2="90.6" y2="60.9"/>
	<line class="st2" x1="20.7" y1="67.3" x2="90.7" y2="66.8"/>
	<line class="st2" x1="31.6" y1="73.3" x2="31.4" y2="31.3"/>
	<line class="st2" x1="38.5" y1="73.3" x2="38.2" y2="31.3"/>
	<line class="st2" x1="45" y1="73.2" x2="44.7" y2="31.3"/>
	<line class="st2" x1="51.6" y1="73.2" x2="51.2" y2="31.3"/>
	<line class="st2" x1="58" y1="73" x2="57.7" y2="31.1"/>
	<line class="st2" x1="64.6" y1="73" x2="64.3" y2="31.1"/>
	<line class="st2" x1="71.1" y1="73" x2="70.8" y2="31.1"/>
	<line class="st2" x1="77.6" y1="72.9" x2="77.3" y2="31.1"/>
	<line class="st2" x1="84.2" y1="73" x2="83.8" y2="30.9"/>
</g>
<path class="st3" d="M19.5,14.7c-0.3,0.5,0.4,0.9,0.2,2c-0.1,0.6-0.4,1.4-1,2c-0.4,0.4-0.5,0.3-0.5,0.5c-0.3,0.7,1.1,1.4,2.2,3.1
	c1.1,1.6,1.1,2.9,1.5,2.9c0.5,0,0.4-1.3,1.6-3.2c0.6-0.9,1-1.6,1.8-2c0.6-0.4,1.2-0.5,1.2-0.8c0-0.2-0.5-0.3-1.1-0.8
	c0,0-0.9-0.7-1.2-1.8c-0.3-1,0.2-1.3-0.1-1.8C23.5,13.6,20.1,13.6,19.5,14.7z"/>
<path class="st3" d="M22.4,16.5H21c-1.6,0-2.9-1.3-2.9-2.9V7.9C18.1,6.3,19.4,5,21,5h1.4c1.6,0,2.9,1.3,2.9,2.9v5.7
	C25.3,15.2,24,16.5,22.4,16.5z"/>
<path d="M18.2,10c-0.2-0.1-0.4-0.3-0.7-0.6c-0.1-0.1-0.3-0.5-0.4-1c-0.1-0.4,0-0.7,0-0.8c0-0.2,0.1-0.6,0.4-0.9
	c0.1-0.1,0.3-0.3,0.6-0.4c0.1,0,0.3,0,0.4,0c0,0,0.1-0.1,0.2,0c0.2,0.1,0.1,0.4,0.1,0.4s0,0-0.1,0l-0.1,0.1
	c-0.4,1.6-0.5,2.9-0.5,2.9C18.2,9.9,18.2,10,18.2,10z"/>
<path class="st3" d="M18.6,9.8c-0.1-0.1-0.3-0.3-0.6-0.3c-0.1,0-0.4-0.1-0.6,0.1c-0.1,0.1-0.1,0.3,0,0.6c0.1,0.5,0.3,0.9,0.4,0.9
	c0.2,0.3,0.3,0.5,0.5,0.6c0.1,0.1,0.3,0.2,0.5,0.1C19.1,11.6,19.2,10.4,18.6,9.8z"/>
<path d="M18.1,3.2c-0.1,0.1-0.7,0.4-0.9,1c-0.1,0.4,0,0.8,0.1,1c0,0.1,0.1,0.5,0.4,0.8c0.1,0.2,0.4,0.5,1,0.7
	c0.3,0.1,0.6,0.1,0.9,0.1c0.2,0,0.8,0,1.6-0.3c0.5-0.2,0.6-0.2,0.9-0.2c0.4,0,0.7,0.2,0.9,0.3c0.4,0.2,0.4,0.3,0.6,0.5
	c0.6,0.4,1.5,0.4,1.9-0.1c0.1-0.2,0.2-0.4,0.3-0.5C25.9,6.4,26,6.2,26,6c0-0.5-0.6-0.8-0.7-0.9c-0.5-0.3-1.1-0.2-1.4-0.2
	C23.2,5,23,5.2,22.6,5.1s-0.7-0.3-0.8-0.4c-0.3-0.2-0.4-0.4-0.7-0.8c-0.2-0.2-0.5-0.5-0.9-0.7C19.7,2.9,18.8,2.7,18.1,3.2z"/>
<path d="M25.1,10.1c0.2-0.1,0.5-0.2,0.7-0.4l0,0c0.8-0.6,0.8-1.5,0.8-1.5c0-0.6-0.2-1-0.3-1.1c-0.2-0.3-0.6-0.8-0.9-0.7
	c0,0-0.2,0.1-0.2,0.5c0,0-0.1-0.1-0.2,0c-0.2,0-0.2,0.3-0.1,0.4c0,0,0,0,0.1,0c0,0,0,0,0,0.1C25.1,7.6,25.1,9.9,25.1,10.1z"/>
<g>
	<polygon class="st4" points="1,87.1 32.6,63.8 57.9,72.4 98.2,42.9 58.5,74.9 33.1,66.6 1,90.4 	"/>
	<polygon class="st4" points="94.4,41.8 98.4,46.7 99,42 	"/>
</g>
<path class="st3" d="M25,9.8c0.1-0.1,0.3-0.3,0.6-0.3c0.1,0,0.4-0.1,0.6,0.1c0.1,0.1,0.1,0.3,0,0.6c-0.1,0.5-0.3,0.9-0.4,0.9
	c-0.2,0.3-0.3,0.5-0.5,0.6c-0.1,0.1-0.3,0.2-0.5,0.1C24.4,11.6,24.4,10.4,25,9.8z"/>
<g>
	<path class="st5" d="M77.2,98.4H42.4c-1.4,0-2.6-1.2-2.6-2.6V48.3c0-1.4,1.2-2.6,2.6-2.6h34.7c1.4,0,2.6,1.2,2.6,2.6v47.5
		C79.7,97.3,78.6,98.4,77.2,98.4z"/>
	<rect x="43.4" y="49.4" class="st6" width="33.5" height="11.8"/>
	<path class="st7" d="M67,67H43.9c-0.3,0-0.6-0.2-0.6-0.6v-1.8c0-0.3,0.2-0.6,0.6-0.6h23c0.3,0,0.6,0.2,0.6,0.6v1.8
		C67.6,66.8,67.3,67,67,67z"/>
	<path class="st8" d="M76.5,67h-7.1c-0.2,0-0.3-0.1-0.3-0.3v-2.2c0-0.2,0.1-0.3,0.3-0.3h7.1c0.2,0,0.3,0.1,0.3,0.3v2.2
		C76.8,66.9,76.7,67,76.5,67z"/>
	<path class="st7" d="M76.3,76.2h-6.7c-0.3,0-0.5-0.2-0.5-0.5v-6.2c0-0.3,0.2-0.5,0.5-0.5h6.7c0.3,0,0.5,0.2,0.5,0.5v6.2
		C76.8,75.9,76.6,76.2,76.3,76.2z"/>
	<g>
		<path class="st9" d="M50.2,76.2H44c-0.3,0-0.5-0.2-0.5-0.5v-6.2c0-0.3,0.2-0.5,0.5-0.5h6.2c0.3,0,0.5,0.2,0.5,0.5v6.2
			C50.7,75.9,50.5,76.2,50.2,76.2z"/>
		<path class="st9" d="M58.7,76.2h-6.2c-0.3,0-0.5-0.2-0.5-0.5v-6.2c0-0.3,0.2-0.5,0.5-0.5h6.2c0.3,0,0.5,0.2,0.5,0.5v6.2
			C59.2,75.9,59,76.2,58.7,76.2z"/>
		<path class="st9" d="M67.2,76.2H61c-0.3,0-0.5-0.2-0.5-0.5v-6.2c0-0.3,0.2-0.5,0.5-0.5h6.2c0.3,0,0.5,0.2,0.5,0.5v6.2
			C67.7,75.9,67.4,76.2,67.2,76.2z"/>
	</g>
	<g>
		<path class="st9" d="M50.2,84.8H44c-0.3,0-0.5-0.2-0.5-0.5v-6.2c0-0.3,0.2-0.5,0.5-0.5h6.2c0.3,0,0.5,0.2,0.5,0.5v6.2
			C50.7,84.6,50.5,84.8,50.2,84.8z"/>
		<path class="st9" d="M58.7,84.8h-6.2c-0.3,0-0.5-0.2-0.5-0.5v-6.2c0-0.3,0.2-0.5,0.5-0.5h6.2c0.3,0,0.5,0.2,0.5,0.5v6.2
			C59.2,84.6,59,84.8,58.7,84.8z"/>
		<path class="st9" d="M67.2,84.8H61c-0.3,0-0.5-0.2-0.5-0.5v-6.2c0-0.3,0.2-0.5,0.5-0.5h6.2c0.3,0,0.5,0.2,0.5,0.5v6.2
			C67.7,84.6,67.4,84.8,67.2,84.8z"/>
	</g>
	<g>
		<path class="st9" d="M50.2,93.5H44c-0.3,0-0.5-0.2-0.5-0.5v-6.2c0-0.3,0.2-0.5,0.5-0.5h6.2c0.3,0,0.5,0.2,0.5,0.5V93
			C50.7,93.2,50.5,93.5,50.2,93.5z"/>
		<path class="st9" d="M58.7,93.5h-6.2c-0.3,0-0.5-0.2-0.5-0.5v-6.2c0-0.3,0.2-0.5,0.5-0.5h6.2c0.3,0,0.5,0.2,0.5,0.5V93
			C59.2,93.2,59,93.5,58.7,93.5z"/>
		<path class="st9" d="M67.2,93.5H61c-0.3,0-0.5-0.2-0.5-0.5v-6.2c0-0.3,0.2-0.5,0.5-0.5h6.2c0.3,0,0.5,0.2,0.5,0.5V93
			C67.7,93.2,67.4,93.5,67.2,93.5z"/>
	</g>
	<path class="st7" d="M76.1,93.5h-6.2c-0.4,0-0.8-0.3-0.8-0.8V78.4c0-0.4,0.3-0.8,0.8-0.8h6.2c0.4,0,0.8,0.3,0.8,0.8v14.4
		C76.8,93.1,76.5,93.5,76.1,93.5z"/>
	<path class="st10" d="M63.4,49.4l-4.7,11.8c1.9,0,3.8,0,5.8,0c1.6-4,3.1-7.9,4.7-11.8H63.4z"/>
</g>
<path class="st11" d="M18.5,19.4L12.7,20L7.4,34c1.9,3.4,3.7,6.8,5.6,10.2l0.5-6.6L12.1,35l1.2-3.2l4.9-6.3L18.5,19.4z"/>
<path class="st3" d="M40.5,44.1c0.3,0.9,0.5,1.8,0.8,2.7c0.4-0.3,0.9-0.5,1.3-0.8c2.4,0.1,4.8,0.2,7.2,0.3l-6.3-1.9
	c-0.3-0.4-0.6-0.7-0.8-1.1C41.9,43.6,41.2,43.8,40.5,44.1z"/>
<path class="st11" d="M25.7,18.9c2.3,0,4.7-0.1,7-0.1c1.5,4.7,3,9.4,4.5,14.1c1.9,3.5,3.7,7.1,5.6,10.6c-0.8,0.2-1.6,0.3-2.4,0.5
	c-1.8-2.6-3.5-5.1-5.3-7.7c-1.5-3-3.1-5.9-4.6-8.9l-0.7,18.8H12.9l0.2-25.4c-0.1-0.3-0.3-0.6-0.4-1c1.9-0.3,3.7-0.6,5.6-0.9
	c1.1,1.6,2.3,3.1,3.4,4.7C23,22.1,24.4,20.5,25.7,18.9z"/>
<polygon class="st3" points="37.3,90.6 37.7,93.4 35.7,93.8 34.9,90.4 "/>
<polygon class="st3" points="11.9,90.7 11.7,93.7 13.8,93.9 14.3,90.3 "/>
<path class="st12" d="M12.9,45.9l-0.6,22.3l-1,22.9H15l2.1-19.6l4.3-22.7l5.3,16.4l2,5.7l5.6,19.8l4.1,0.1l-4.7-19.4
	c-1.3-8.4-2.6-16.9-4-25.3C24.2,45.9,18.6,45.9,12.9,45.9z"/>
<polygon class="st13" points="11.7,93.7 9.6,95.4 1.7,98.3 13,98.3 13.9,98.3 14.3,96 14.3,93.7 "/>
<polygon class="st13" points="37.9,93.3 40.1,95.2 48,98.3 36.7,98.3 35.7,98.3 35.4,95.8 35.4,93.3 "/>
<path class="st10" d="M20.5,13.9H23c-0.1,0.1-0.5,0.9-1.3,0.9C21,14.8,20.5,14,20.5,13.9z"/>
<polyline class="st14" points="21.6,11.1 21.2,12.2 21.7,12.9 "/>
<circle class="st15" cx="23.3" cy="10.5" r="0.2"/>
<circle class="st15" cx="20.1" cy="10.5" r="0.2"/>
<g>
	<g>
		<path class="st15" d="M12.9,28.3c0.3,4.7,0.3,9.4,0.2,14.1C12.7,37.7,12.7,33,12.9,28.3L12.9,28.3z"/>
	</g>
	<g>
		<path class="st15" d="M13,32.7c-0.2,0.8-0.5,1.6-0.9,2.3v-0.2c0.4,0.7,0.7,1.3,1,2c-0.5-0.6-0.9-1.3-1.4-1.9
			C12.1,34.2,12.4,33.4,13,32.7L13,32.7z"/>
	</g>
	<g>
		<path class="st15" d="M18.2,10.8c0.2,3-0.3,4.9,3.3,5.7C17.8,16.4,17.6,13.8,18.2,10.8L18.2,10.8z"/>
	</g>
	<g>
		<path class="st15" d="M18.3,19.1c-1.8,0.4-3.7,0.7-5.6,1l0.2-0.1c-0.4,1.1-0.8,2.2-1.3,3.3c-0.4,1.1-0.9,2.2-1.4,3.2
			c0.3-1.1,0.7-2.2,1.1-3.4c0.4-1.1,0.8-2.3,1.3-3.4C14.5,19.5,16.4,19.2,18.3,19.1L18.3,19.1z"/>
	</g>
</g>
<g>
	<path class="st15" d="M42.9,43.6c0.2,0.2,0.4,0.5,0.7,0.8l0,0c2.2,0.5,4.3,1.1,6.3,2c-2.2-0.4-4.3-1-6.4-1.8l0,0
		C43.2,44.2,43,43.9,42.9,43.6L42.9,43.6z"/>
</g>
</svg>
