<?xml version="1.0" encoding="utf-8"?>
<!-- Generator: Adobe Illustrator 26.0.1, SVG Export Plug-In . SVG Version: 6.00 Build 0)  -->
<svg version="1.1" id="Layer_1" xmlns="http://www.w3.org/2000/svg" xmlns:xlink="http://www.w3.org/1999/xlink" x="0px" y="0px"
	 viewBox="0 0 100 100" style="enable-background:new 0 0 100 100;" xml:space="preserve">
<style type="text/css">
	.st0{fill:#FFB99E;}
	.st1{fill:#FFFFFF;}
	.st2{fill:#414042;}
	.st3{fill:#336DFF;}
	.st4{fill:#011435;}
	.st5{fill:#242528;}
	.st6{fill:#48AE52;}
	.st7{fill:url(#SVGID_1_);}
	.st8{fill:url(#SVGID_00000093855599167719250510000001887402073113566090_);}
	.st9{fill:url(#SVGID_00000114040383992943054970000009234405418360213136_);}
	.st10{fill:#F3FCFF;}
	.st11{fill:#4DD9FF;}
	.st12{fill:#6EC1FF;}
	.st13{fill:#7F90B1;}
	.st14{fill:#212A33;}
	.st15{fill:#333D49;}
	.st16{fill:#99B0D5;}
	.st17{fill:#333333;}
	.st18{fill:url(#SVGID_00000096038707968505225640000006032523170303347133_);}
	.st19{fill:url(#SVGID_00000040532856666030120930000001771977689656214198_);}
	.st20{fill:url(#SVGID_00000008871604553702141580000007940912476912258197_);}
	.st21{fill:url(#SVGID_00000135654745903301514150000015910871669212345499_);}
	.st22{fill:url(#SVGID_00000033351653334047897190000004120419078535780486_);}
	.st23{fill:url(#SVGID_00000024704586535271145670000010411253488565520809_);}
	.st24{fill:url(#SVGID_00000005257742605966310910000001018944220157012143_);}
	.st25{fill:url(#SVGID_00000031204602019478222600000010158805823740925588_);}
	.st26{fill:url(#SVGID_00000035525565267236184860000011392437766410406282_);}
	.st27{fill:url(#SVGID_00000155127974312008603170000004993896404028547223_);}
	.st28{fill:url(#SVGID_00000061467886981091933510000013840447643715820187_);}
</style>
<g>
	<path class="st0" d="M23.2,19.4c-0.6,0-1.2,0-1.9,0c-0.4-0.5-0.9-1.2-1.3-2.2c-0.6-1.3-1-2.2-0.8-3.3c0.2-1.2,1.2-2,1.7-2.3l1-0.1
		c1.1-0.2,2.1,0.6,2.3,1.7c0.2,1.1,0.5,2.1,0.8,3.2c0,0.1,0.3,1.4-0.5,2.4C24,19,23.5,19.2,23.2,19.4z"/>
	<path class="st0" d="M20.9,18.4c-0.1,0.4,0.4,0.6,0.4,1.4c0,0.5-0.1,1.1-0.5,1.6c-0.2,0.3-0.3,0.3-0.3,0.4
		c-0.1,0.5,0.9,0.9,1.9,1.9s1.1,1.9,1.4,1.9c0.3-0.1,0.1-1,0.8-2.4c0.3-0.7,0.5-1.2,1.1-1.6c0.4-0.3,0.8-0.5,0.8-0.7
		s-0.4-0.1-0.9-0.4c0,0-0.7-0.4-1-1.1c-0.3-0.6,0-0.9-0.2-1.3C23.6,17.2,21.2,17.5,20.9,18.4z"/>
	<path d="M19.5,15.2c-0.1-0.1-0.3-0.2-0.5-0.4c0-0.1-0.3-0.3-0.4-0.7c-0.1-0.3-0.1-0.5-0.1-0.5c0-0.1,0-0.4,0.2-0.7
		c0.1-0.1,0.2-0.3,0.4-0.4c0.1,0,0.2,0,0.2,0s0.1-0.1,0.2,0c0.1,0,0.1,0.3,0.1,0.3l0,0V13c-0.1,1.2,0,2.1,0,2.1
		C19.5,15.1,19.5,15.1,19.5,15.2z"/>
	<path d="M20.1,14.6c-0.2,0.6-0.3,0.8-0.3,1.2c0,0.9,0.5,1.6,0.7,1.9c0.2,0.2,0.4,0.4,0.5,0.6c-0.2-0.1-0.6-0.2-1-0.5
		c-0.3-0.2-0.5-0.5-0.6-0.7c-0.5-0.7-1.2-1.9-1-3.2c0-0.2,0.2-1.1,0.6-1.2c0.4-0.1,0.8,0.7,1.4,0.6c0.3-0.1,0.4-0.3,0.5-0.2
		C20.9,13.1,20.5,13.6,20.1,14.6z"/>
	<path d="M26.5,9.9c0.2,0.1,0.6,0.3,0.9,0.8c0.2,0.5,0.2,1,0,1.4c-0.3,0.9-1.4,1.3-2.2,1.3c-1.1,0.1-1.4-0.6-2.5-0.4
		c-0.2,0-0.9,0.1-1.5,0.7c-0.6,0.6-0.8,1.4-0.9,1.8c-0.1,0.6,0,0.8-0.2,0.8c-0.4,0.2-1.9-1.1-1.8-2.5c0-1.5,1.8-2.9,3-2.7
		c0.4,0.1,0.8,0.2,1.3,0.1c0.4-0.1,0.6-0.3,0.9-0.5c0.5-0.2,0.5-0.4,0.8-0.6C24.9,9.8,25.7,9.6,26.5,9.9z"/>
	<path class="st0" d="M20,15.9c0,0-0.2-0.2-0.5-0.2c-0.1,0-0.3,0-0.4,0.1s0,0.2,0,0.4c0.1,0.4,0.3,0.6,0.4,0.6
		c0.1,0.2,0.2,0.3,0.4,0.4c0.1,0,0.3,0.1,0.4,0C20.6,17.2,20.5,16.4,20,15.9z"/>
	<path class="st1" d="M23.1,17.8l1.8-0.3c0,0.1-0.3,0.7-0.8,0.8C23.6,18.4,23.2,17.9,23.1,17.8z"/>
	<ellipse class="st2" cx="23.5" cy="15.6" rx="0.2" ry="0.2"/>
	<g>
		<path class="st2" d="M20.4,17.5c0.8,1.1,2.1,1.6,3.4,1.6C22.5,19.6,20.8,19,20.4,17.5L20.4,17.5z"/>
	</g>
	<path class="st0" d="M11.8,7.8c-0.1-0.7-0.3-1.5-0.4-2.2l-0.7-0.2L7,2.8l2.7,3.8c0.2,0.5,0.3,1,0.5,1.5C10.8,8.1,11.3,7.9,11.8,7.8
		z"/>
	<polygon class="st0" points="24.6,15.4 25.5,16.2 25,17 	"/>
	<path class="st0" d="M10.8,64.8c-0.1,0.5-0.3,1-0.4,1.5c-0.6,0.1-1.2,0.2-1.8,0.3c0.2-0.8,0.4-1.7,0.5-2.5
		C9.6,64.3,10.1,64.6,10.8,64.8z"/>
	<path class="st3" d="M25.5,20.5c1.1,0.1,2.3,0.1,3.4,0.2c1.2,1.9,2.4,3.7,3.6,5.6c2.6-0.1,5.2-0.3,7.8-0.4c0.1,0.6,0.1,1.2,0.2,1.8
		c-2.9,0.5-5.7,0.9-8.6,1.4c-1.3-0.9-2.5-1.9-3.8-2.8c0.4,3.3,0.7,6.6,1.1,9.9L19.8,39L19,25.5l-6.1-9l-2.7-8.6l1.8-0.2l2.9,7.2
		l6.5,6.2l2.1,2.5C24.2,22.6,24.8,21.5,25.5,20.5z"/>
	<path class="st0" d="M37.2,61c0,0.5,0,0.9,0,1.4c-0.6,0.2-1.2,0.5-1.8,0.7c0-0.7-0.1-1.5-0.2-2.2C35.9,61,36.5,61,37.2,61z"/>
	<path class="st4" d="M19.9,38.8c-1.1,3.4-2.3,6.8-3.4,10.2l-8,16c0.8,0,1.6,0,2.4,0c3.5-4.7,6.9-9.3,10.4-14
		c1.4-3.3,2.8-6.6,4.2-9.9l10.2,5.3l-0.8,15l2.4-0.2L40.5,45l-11.3-8.9C26.1,37,23,38,19.9,38.8z"/>
	<path class="st5" d="M10.2,66.2c0.5,0.6,1.1,1.2,1.6,1.8l6.1,2.6c-3.2-0.1-6.4-0.1-9.7-0.1c-0.1-0.7-0.1-1.5-0.2-2.2
		c0.1-0.6,0.2-1.2,0.4-1.8C9.1,66.4,9.6,66.3,10.2,66.2z"/>
	<g>
		<path class="st6" d="M2,70.2c5,0,10.1,0,15.1,0c4.6-1.7,9.1-3.3,13.7-5H43l8.5-5.8l27.4-5.5L97.6,39L79,56.7
			c-8.8,1.8-17.7,3.6-26.5,5.3c-3,2.2-6.1,4.3-9.1,6.5c-4.1,0-8.2,0-12.3,0c-4.6,2.1-9.2,4.2-13.8,6.3c-5.1,0.1-10.2,0.2-15.3,0.4
			C2,73.4,2,71.8,2,70.2z"/>
		<polygon class="st6" points="94.9,38.2 97.9,41.5 97.9,38.5 		"/>
	</g>
	
		<linearGradient id="SVGID_1_" gradientUnits="userSpaceOnUse" x1="2.07" y1="1066.65" x2="7.29" y2="1066.65" gradientTransform="matrix(1 0 0 1 0 -978)">
		<stop  offset="1.978731e-03" style="stop-color:#27B0FC"/>
		<stop  offset="1" style="stop-color:#63CEF9"/>
	</linearGradient>
	<rect x="2" y="80.1" class="st7" width="5.2" height="17.2"/>
	<g>
		
			<linearGradient id="SVGID_00000008129635291188649830000003578931248163189639_" gradientUnits="userSpaceOnUse" x1="-1528.5461" y1="1734.239" x2="-1515.8219" y2="1712.2001" gradientTransform="matrix(0.4805 -0.877 0.877 0.4805 -715.4004 -2135.5281)">
			<stop  offset="0.3935" style="stop-color:#A8E1FF"/>
			<stop  offset="1" style="stop-color:#DCFDFE"/>
		</linearGradient>
		<path style="fill:url(#SVGID_00000008129635291188649830000003578931248163189639_);" d="M76.9,23.9L68.1,40
			c-0.2,0.4-0.7,0.5-1.1,0.3l-14.6-8c-0.6-0.3-0.8-1-0.5-1.6l8.4-15.4c0.3-0.6,1-0.8,1.6-0.5l14.6,8C77,23,77.1,23.5,76.9,23.9z"/>
		
			<linearGradient id="SVGID_00000147905124891757167130000016823239205381009310_" gradientUnits="userSpaceOnUse" x1="-1532.2008" y1="1714.6742" x2="-1512.198" y2="1714.6742" gradientTransform="matrix(0.4805 -0.877 0.877 0.4805 -715.4004 -2135.5281)">
			<stop  offset="1.978731e-03" style="stop-color:#27B0FC"/>
			<stop  offset="1" style="stop-color:#63CEF9"/>
		</linearGradient>
		<path style="fill:url(#SVGID_00000147905124891757167130000016823239205381009310_);" d="M62.8,15.1l-9.6,17.5L51.8,32
			c-0.4-0.2-0.5-0.7-0.3-1.1l8.8-16.1c0.2-0.4,0.7-0.5,1.1-0.3L62.8,15.1z"/>
		<rect x="53.5" y="28.5" transform="matrix(0.4805 -0.877 0.877 0.4805 5.2061 66.4597)" class="st10" width="10.4" height="0.6"/>
		<rect x="54.9" y="30.1" transform="matrix(0.4805 -0.877 0.877 0.4805 3.8483 67.2967)" class="st10" width="7.6" height="0.6"/>
		<rect x="55.3" y="30" transform="matrix(0.4805 -0.877 0.877 0.4805 4.3997 68.0861)" class="st10" width="8.7" height="0.6"/>
		<rect x="56.2" y="30.6" transform="matrix(0.4805 -0.877 0.877 0.4805 4.2016 68.9584)" class="st10" width="8.3" height="0.6"/>
		<rect x="51.9" y="27.5" transform="matrix(0.4805 -0.877 0.877 0.4805 5.1818 64.6639)" class="st10" width="10.5" height="0.9"/>
		<path class="st11" d="M63.7,20.6l2.1-1.5c0.6,0.8,0.6,1.8,0.2,2.7c-0.7,1.2-2.2,1.8-3.5,1.1s-1.8-2.2-1.1-3.5s2.2-1.8,3.5-1.1
			L63.7,20.6z"/>
		<path class="st12" d="M63.7,20.6l0.1-2.6c1,0,1.8,0.6,2.2,1.5c0.6,1.3,0.1,2.8-1.2,3.4c-1.3,0.6-2.8,0.1-3.4-1.2
			c-0.6-1.3-0.1-2.8,1.2-3.4L63.7,20.6z"/>
		<rect x="69.7" y="18.5" transform="matrix(0.4805 -0.877 0.877 0.4805 17.1166 73.2055)" class="st11" width="1.2" height="7.4"/>
		<rect x="69.4" y="20.9" transform="matrix(0.4805 -0.877 0.877 0.4805 15.3033 73.8378)" class="st11" width="1.2" height="6.3"/>
		<rect x="69.2" y="23.5" transform="matrix(0.4805 -0.877 0.877 0.4805 13.5685 74.6566)" class="st11" width="1.2" height="4.7"/>
		<rect x="68.3" y="25.1" transform="matrix(0.4805 -0.877 0.877 0.4805 11.7039 74.7528)" class="st11" width="1.2" height="4.7"/>
		<rect x="66.8" y="25.6" transform="matrix(0.4805 -0.877 0.877 0.4805 9.8171 74.0155)" class="st11" width="1.2" height="6.3"/>
		<rect x="66.6" y="28.2" transform="matrix(0.4805 -0.877 0.877 0.4805 8.0821 74.8345)" class="st11" width="1.2" height="4.7"/>
		<rect x="66.1" y="30.4" transform="matrix(0.4805 -0.877 0.877 0.4805 6.2805 75.3521)" class="st11" width="1.2" height="3.9"/>
		<rect x="65.4" y="32.4" transform="matrix(0.4805 -0.877 0.877 0.4805 4.403 75.6279)" class="st11" width="1.2" height="3.4"/>
		<rect x="64.4" y="33.5" transform="matrix(0.4805 -0.877 0.877 0.4805 2.6586 75.4337)" class="st11" width="1.2" height="3.9"/>
		<rect x="63" y="33.1" transform="matrix(0.4805 -0.877 0.877 0.4805 6.8535 78.2747)" class="st10" width="12.9" height="0.6"/>
		<rect x="64.6" y="35" transform="matrix(0.4805 -0.877 0.877 0.4805 5.0724 79.132)" class="st10" width="9.4" height="0.6"/>
	</g>
	<polygon class="st5" points="37.2,62 38.8,63.2 44.5,65.2 36.2,65.2 35.5,65.2 35.2,63.7 35.2,62 	"/>
	<g>
		<path class="st13" d="M49.2,31.2c2.2,4.3,4.4,8.6,6.6,13c7.9-2.2,15.8-4.5,23.6-6.7c-0.1-4.1-0.2-8.2-0.2-12.3
			C69.1,27.1,59.2,29.1,49.2,31.2z"/>
		<ellipse class="st14" cx="60.8" cy="52.3" rx="2" ry="2"/>
		<ellipse class="st14" cx="77" cy="47.4" rx="2" ry="2"/>
		<path class="st15" d="M75.2,39.5l-19.7,5.8c-0.3,0.1-0.5-0.1-0.6-0.3l0,0c-0.1-0.3,0.1-0.5,0.3-0.6l19.7-5.9
			c0.3-0.1,0.5,0.1,0.6,0.3l0,0C75.6,39,75.5,39.3,75.2,39.5z"/>
		<path class="st15" d="M80.8,46.3L57.9,53c-0.3,0.1-0.5-0.1-0.6-0.3l0,0c-0.1-0.3,0.1-0.5,0.3-0.6l22.9-6.7
			c0.3-0.1,0.5,0.1,0.6,0.3l0,0C81.2,46,81,46.2,80.8,46.3z"/>
		<path class="st15" d="M79,44.2l1.8,1.2c0.2,0.2,0.3,0.4,0.1,0.7l0,0c-0.2,0.2-0.4,0.3-0.7,0.1L78.4,45c-0.2-0.2-0.3-0.4-0.1-0.7
			l0,0C78.5,44.2,78.8,44.2,79,44.2z"/>
		<path class="st15" d="M78.8,45l-19.2,5.6c-0.2,0.1-0.4-0.1-0.5-0.2l0,0c-0.1-0.2,0.1-0.4,0.2-0.5l19.3-5.6
			c0.2-0.1,0.4,0.1,0.5,0.2l0,0C79.1,44.7,79,44.8,78.8,45z"/>
		<path class="st15" d="M59,44.2l-2.8,5.2c-0.1,0.2-0.4,0.3-0.7,0.2l0,0c-0.2-0.1-0.3-0.4-0.2-0.7l2.8-5.2c0.1-0.2,0.4-0.3,0.7-0.2
			l0,0C59,43.8,59.2,44,59,44.2z"/>
		<path class="st15" d="M60.2,43.7l-2.1,3.8c-0.1,0.2-0.3,0.2-0.4,0.1l0,0c-0.2-0.1-0.2-0.3-0.1-0.4l2.1-3.8
			c0.1-0.2,0.3-0.2,0.4-0.1l0,0C60.2,43.3,60.2,43.5,60.2,43.7z"/>
		<path class="st15" d="M56.2,49.2l1.8,3.2c0.1,0.2,0,0.5-0.2,0.7l0,0c-0.2,0.1-0.5,0-0.7-0.2l-1.8-3.2c-0.1-0.2,0-0.5,0.2-0.7l0,0
			C55.8,48.8,56.2,49,56.2,49.2z"/>
		<path class="st15" d="M44.7,28.5l5.4,3c0.3,0.1,0.4,0.5,0.2,0.8l0,0c-0.2,0.3-0.5,0.4-0.8,0.2l-5.4-3c-0.3-0.1-0.4-0.5-0.2-0.8
			l0,0C44,28.5,44.4,28.4,44.7,28.5z"/>
		<path class="st15" d="M58.2,47.2l1.6,2.8c0.1,0.2,0,0.3-0.1,0.4l0,0c-0.2,0.1-0.3,0-0.4-0.1l-1.6-2.8c-0.1-0.2,0-0.3,0.1-0.4l0,0
			C57.9,47,58,47,58.2,47.2z"/>
		<path class="st16" d="M44.5,29l-0.1,0.2c-0.3,0.5-1,0.8-1.5,0.5l-1.1-0.6c-0.5-0.3-0.8-1-0.5-1.5l0.1-0.2c0.3-0.5,1-0.8,1.5-0.5
			l1.1,0.6C44.5,27.8,44.8,28.5,44.5,29z"/>
		<ellipse transform="matrix(0.9859 -0.1675 0.1675 0.9859 -8.4769 10.8115)" class="st15" cx="59.9" cy="55.7" rx="2.4" ry="2.3"/>
		<ellipse transform="matrix(0.9859 -0.1675 0.1675 0.9859 -7.2852 13.9162)" class="st15" cx="78.9" cy="50.1" rx="2.4" ry="2.3"/>
	</g>
	<g>
		<path class="st0" d="M40.2,25.9c0.2,0,0.4,0.1,0.6,0.1l1.4-0.6l0.7,0.7l-0.4,1.7l-1.3,0.1c-0.2-0.1-0.5-0.1-0.8-0.2
			C40.5,27,40.4,26.5,40.2,25.9z"/>
		<path class="st17" d="M40.2,25.9l0.6,0.1c0.4-0.2,1-0.5,1.4-0.7c0.3,0.2,0.5,0.5,0.8,0.8c-0.1,0.6-0.2,1.2-0.4,1.8
			c0,0-1.4,0.1-1.5,0.1l0,0l-0.8-0.2h-0.1C40.4,27.1,40.4,26.5,40.2,25.9L40.2,25.9z M40.2,25.9l0.3,1.8l-0.1-0.1l0.8,0.2
			c-0.2,0,1.3-0.1,1.3-0.1l-0.1,0.1c0.1-0.6,0.3-1.1,0.4-1.7v0.1c-0.2-0.2-0.5-0.5-0.7-0.7h0.1c-0.5,0.2-1,0.4-1.5,0.5
			C40.9,26,40.2,25.9,40.2,25.9L40.2,25.9z"/>
	</g>
	
		<linearGradient id="SVGID_00000067195853287539764190000001501203737105513605_" gradientUnits="userSpaceOnUse" x1="9.91" y1="1066.65" x2="15.13" y2="1066.65" gradientTransform="matrix(1 0 0 1 0 -978)">
		<stop  offset="1.978731e-03" style="stop-color:#27B0FC"/>
		<stop  offset="1" style="stop-color:#63CEF9"/>
	</linearGradient>
	
		<rect x="9.9" y="80.1" style="fill:url(#SVGID_00000067195853287539764190000001501203737105513605_);" width="5.2" height="17.2"/>
	
		<linearGradient id="SVGID_00000071547432204333023150000005677061456066810283_" gradientUnits="userSpaceOnUse" x1="17.76" y1="1066.55" x2="22.98" y2="1066.55" gradientTransform="matrix(1 0 0 1 0 -978)">
		<stop  offset="1.978731e-03" style="stop-color:#27B0FC"/>
		<stop  offset="1" style="stop-color:#63CEF9"/>
	</linearGradient>
	
		<rect x="17.8" y="79.8" style="fill:url(#SVGID_00000071547432204333023150000005677061456066810283_);" width="5.2" height="17.4"/>
	
		<linearGradient id="SVGID_00000052100366155021194790000018166644658553180291_" gradientUnits="userSpaceOnUse" x1="25.61" y1="1065.1" x2="30.83" y2="1065.1" gradientTransform="matrix(1 0 0 1 0 -978)">
		<stop  offset="1.978731e-03" style="stop-color:#27B0FC"/>
		<stop  offset="1" style="stop-color:#63CEF9"/>
	</linearGradient>
	
		<rect x="25.7" y="76.9" style="fill:url(#SVGID_00000052100366155021194790000018166644658553180291_);" width="5.2" height="20.3"/>
	
		<linearGradient id="SVGID_00000061456393285437003240000015479305744927804076_" gradientUnits="userSpaceOnUse" x1="33.46" y1="1063.75" x2="38.68" y2="1063.75" gradientTransform="matrix(1 0 0 1 0 -978)">
		<stop  offset="1.978731e-03" style="stop-color:#27B0FC"/>
		<stop  offset="1" style="stop-color:#63CEF9"/>
	</linearGradient>
	<rect x="33.5" y="74.2" style="fill:url(#SVGID_00000061456393285437003240000015479305744927804076_);" width="5.2" height="23"/>
	
		<linearGradient id="SVGID_00000108997873787088524370000003703657970138827431_" gradientUnits="userSpaceOnUse" x1="41.31" y1="1063.75" x2="46.53" y2="1063.75" gradientTransform="matrix(1 0 0 1 0 -978)">
		<stop  offset="1.978731e-03" style="stop-color:#27B0FC"/>
		<stop  offset="1" style="stop-color:#63CEF9"/>
	</linearGradient>
	<rect x="41.4" y="74.2" style="fill:url(#SVGID_00000108997873787088524370000003703657970138827431_);" width="5.2" height="23"/>
	
		<linearGradient id="SVGID_00000049901984210980386170000001946807377980698296_" gradientUnits="userSpaceOnUse" x1="49.16" y1="1062.35" x2="54.38" y2="1062.35" gradientTransform="matrix(1 0 0 1 0 -978)">
		<stop  offset="1.978731e-03" style="stop-color:#27B0FC"/>
		<stop  offset="1" style="stop-color:#63CEF9"/>
	</linearGradient>
	
		<rect x="49.2" y="71.4" style="fill:url(#SVGID_00000049901984210980386170000001946807377980698296_);" width="5.2" height="25.8"/>
	
		<linearGradient id="SVGID_00000108309407677202737050000013472236284023317902_" gradientUnits="userSpaceOnUse" x1="57.01" y1="1060.4" x2="62.23" y2="1060.4" gradientTransform="matrix(1 0 0 1 0 -978)">
		<stop  offset="1.978731e-03" style="stop-color:#27B0FC"/>
		<stop  offset="1" style="stop-color:#63CEF9"/>
	</linearGradient>
	<rect x="57" y="67.6" style="fill:url(#SVGID_00000108309407677202737050000013472236284023317902_);" width="5.2" height="29.7"/>
	
		<linearGradient id="SVGID_00000067916016912058879070000013075426070928089779_" gradientUnits="userSpaceOnUse" x1="64.85" y1="1059.55" x2="70.07" y2="1059.55" gradientTransform="matrix(1 0 0 1 0 -978)">
		<stop  offset="1.978731e-03" style="stop-color:#27B0FC"/>
		<stop  offset="1" style="stop-color:#63CEF9"/>
	</linearGradient>
	
		<rect x="64.8" y="65.8" style="fill:url(#SVGID_00000067916016912058879070000013075426070928089779_);" width="5.2" height="31.4"/>
	
		<linearGradient id="SVGID_00000058578606150663331110000011002071824041470872_" gradientUnits="userSpaceOnUse" x1="72.7" y1="1058.9" x2="77.92" y2="1058.9" gradientTransform="matrix(1 0 0 1 0 -978)">
		<stop  offset="1.978731e-03" style="stop-color:#27B0FC"/>
		<stop  offset="1" style="stop-color:#63CEF9"/>
	</linearGradient>
	
		<rect x="72.8" y="64.6" style="fill:url(#SVGID_00000058578606150663331110000011002071824041470872_);" width="5.2" height="32.7"/>
	
		<linearGradient id="SVGID_00000098188124407053721690000017707851943192008630_" gradientUnits="userSpaceOnUse" x1="80.55" y1="1056.75" x2="85.77" y2="1056.75" gradientTransform="matrix(1 0 0 1 0 -978)">
		<stop  offset="1.978731e-03" style="stop-color:#27B0FC"/>
		<stop  offset="1" style="stop-color:#63CEF9"/>
	</linearGradient>
	<rect x="80.5" y="60.2" style="fill:url(#SVGID_00000098188124407053721690000017707851943192008630_);" width="5.2" height="37"/>
	
		<linearGradient id="SVGID_00000150067280496308176020000009031594799212903569_" gradientUnits="userSpaceOnUse" x1="88.4" y1="1054.25" x2="93.62" y2="1054.25" gradientTransform="matrix(1 0 0 1 0 -978)">
		<stop  offset="1.978731e-03" style="stop-color:#27B0FC"/>
		<stop  offset="1" style="stop-color:#63CEF9"/>
	</linearGradient>
	<rect x="88.3" y="55.2" style="fill:url(#SVGID_00000150067280496308176020000009031594799212903569_);" width="5.2" height="42"/>
	<g>
		<path class="st2" d="M11.8,7.8c-0.2-0.7-0.4-1.4-0.5-2.2l0.1,0.1l-0.7-0.1C9.4,4.8,8.1,3.8,7,2.8c1.2,0.8,2.8,1.8,3.8,2.6
			c0.1,0,0.8,0.2,0.8,0.2C11.6,6.3,11.8,7.1,11.8,7.8L11.8,7.8z"/>
	</g>
	<g>
		<path class="st2" d="M12.8,16.6c2.2,2.9,4.2,5.9,6.2,8.9c0.1,1.7,0.1,3.5,0.2,5.2c-0.1-1.6-0.4-3.8-0.4-5.1
			C16.9,22.6,14.8,19.6,12.8,16.6L12.8,16.6z"/>
	</g>
	<g>
		<path class="st2" d="M25.5,20.5c1.2,0,2.3,0,3.5,0.1v0.1c1.2,1.9,2.4,3.7,3.5,5.7c-1.3-1.8-2.5-3.6-3.7-5.5l0.1,0.1
			C27.8,20.8,26.6,20.6,25.5,20.5L25.5,20.5z"/>
	</g>
</g>
</svg>
