<?xml version="1.0" encoding="utf-8"?>
<!-- Generator: Adobe Illustrator 26.0.1, SVG Export Plug-In . SVG Version: 6.00 Build 0)  -->
<svg version="1.1" id="Layer_1" xmlns="http://www.w3.org/2000/svg" xmlns:xlink="http://www.w3.org/1999/xlink" x="0px" y="0px"
	 viewBox="0 0 100 100" style="enable-background:new 0 0 100 100;" xml:space="preserve">
<style type="text/css">
	.st0{fill:url(#SVGID_1_);}
	.st1{fill:url(#SVGID_00000089549712128727097610000014162582969245570483_);}
	.st2{fill:none;stroke:#FFFFFF;stroke-width:0.4;stroke-miterlimit:10;}
	.st3{fill:none;stroke:#FF2015;stroke-width:0.6;stroke-miterlimit:10;}
	.st4{fill:none;stroke:#FF9017;stroke-width:0.56;stroke-miterlimit:10;}
	.st5{fill:none;stroke:#04A810;stroke-width:0.6;stroke-miterlimit:10;}
	.st6{fill:#FFB99E;}
	.st7{fill:#336DFF;}
	.st8{fill:#C6DFFF;}
	.st9{fill:#F8FBFF;}
	.st10{fill:#94C7FF;}
	.st11{fill:#011435;}
	.st12{fill:#242528;}
	.st13{fill:#FFFFFF;}
	.st14{fill:#414042;}
	.st15{fill:#333333;}
	.st16{fill:url(#SVGID_00000143612203354488335030000002818055877340383150_);}
	.st17{fill:#989898;}
	.st18{fill:#787878;}
	.st19{fill:#DC7100;}
	.st20{fill:#E7A900;}
	.st21{fill:#474747;}
	.st22{fill:#8E8E8E;}
	.st23{fill:#F3C943;}
	.st24{fill:#7B4634;}
	.st25{fill:#603222;}
	.st26{fill:#1A1A1A;}
	.st27{fill:#DB7C48;}
	.st28{fill:#E88E4E;}
</style>
<g>
	<g>
		<g>
			
				<linearGradient id="SVGID_1_" gradientUnits="userSpaceOnUse" x1="189.3697" y1="837.2413" x2="247.1589" y2="837.2413" gradientTransform="matrix(1 -7.494436e-03 7.223815e-03 0.9639 -154.9326 -767.8514)">
				<stop  offset="0.3935" style="stop-color:#A7E0FF"/>
				<stop  offset="1" style="stop-color:#DBFCFD"/>
			</linearGradient>
			<path class="st0" d="M97.7,60l-56.3,0.5c-0.4,0-0.7-0.4-0.7-0.8l-0.3-43.8c0-0.5,0.3-0.8,0.7-0.8l56.3-0.6c0.4,0,0.7,0.4,0.7,0.8
				l0.3,43.9C98.3,59.6,98,60,97.7,60z"/>
			
				<linearGradient id="SVGID_00000002362703917444507050000007521927398989552010_" gradientUnits="userSpaceOnUse" x1="189.3633" y1="779.3759" x2="247.0983" y2="779.3759" gradientTransform="matrix(1 -7.494454e-03 7.494454e-03 1 -154.8751 -760.2129)">
				<stop  offset="1.978731e-03" style="stop-color:#27AFFB"/>
				<stop  offset="1" style="stop-color:#63CDF8"/>
			</linearGradient>
			<path style="fill:url(#SVGID_00000002362703917444507050000007521927398989552010_);" d="M98.2,20l-57.8,0.5v-4.6
				c0-0.5,0.3-0.9,0.7-0.9l56.3-0.5c0.4,0,0.8,0.4,0.8,0.9V20z"/>
			<line class="st2" x1="44.4" y1="32.3" x2="93.8" y2="31.8"/>
			<line class="st2" x1="44.5" y1="38.2" x2="93.8" y2="37.7"/>
			<line class="st2" x1="44.5" y1="44.1" x2="93.8" y2="43.6"/>
			<line class="st2" x1="44.5" y1="50" x2="93.8" y2="49.5"/>
			<polyline class="st2" points="93.9,55.5 44.6,55.9 44.4,26.3 93.8,25.9 			"/>
		</g>
		<polyline class="st3" points="45.4,55.2 51.1,53.6 64.8,53.6 77.3,54.9 90.4,54.4 93.8,53.6 		"/>
		<polyline class="st4" points="45.4,54.4 51.8,51.2 64.2,48.3 74.5,48.3 87,42.9 93.9,41.7 		"/>
		<polyline class="st5" points="45.4,53.2 51.8,48.8 57.9,45 69.7,41.4 82.2,34.7 93.9,27.8 		"/>
	</g>
	<path class="st6" d="M29.8,15.9c-0.9-0.1-1.8-0.3-2.7-0.4c-0.4-0.7-1-1.9-1.4-3.4c-0.5-1.9-0.9-3.3-0.3-4.8c0.6-1.6,2.1-2.5,3-2.9
		h1.4c1.6,0,3,1.3,3,2.9c0.1,1.5,0.3,3,0.4,4.5c0,0.2,0.2,2-1.3,3.2C31.1,15.7,30.1,15.8,29.8,15.9z"/>
	<path class="st6" d="M26.8,14c-0.3,0.6,0.4,0.9,0.2,2.1c-0.1,0.6-0.5,1.4-1.1,2.1c-0.4,0.3-0.5,0.3-0.6,0.5
		c-0.3,0.7,1.1,1.4,2.3,3.1c1.1,1.6,1.1,2.9,1.6,2.9s0.4-1.3,1.6-3.2c0.6-0.9,1-1.6,1.9-2.1c0.6-0.4,1.3-0.5,1.3-0.8
		c0-0.2-0.5-0.3-1.2-0.8c0,0-1-0.7-1.3-1.8c-0.3-1,0.2-1.3-0.1-1.8C30.9,13,27.2,12.9,26.8,14z"/>
	<path d="M26.4,8.7c-0.4,0.7-0.6,1.1-0.7,1.6c-0.1,0.6,0,1.2,0.3,2.3c0.1,0.5,0.2,0.9,0.3,1.1c-0.1-0.1-0.1-0.1-0.2-0.2
		c0,0-0.3-0.2-0.5-0.6c-0.2-0.2-0.4-0.6-0.7-1.1c-0.5-1.1-1.3-2.9-0.7-4.7c0.1-0.2,0.5-1.5,1.2-1.6c0.6,0,1,1.2,1.9,1.1
		c0.4,0,0.6-0.3,0.7-0.2C28,6.6,27.1,7.3,26.4,8.7z"/>
	<path d="M33.2,7.8c-0.4,0.3-1.1-0.8-2.7-0.9c-1.2-0.1-2.1,0.5-2.3,0.6c-1,0.7-1.4,1.8-1.6,2.2c-0.3,0.8-0.2,1.1-0.5,1.1
		C25.5,11,23.8,8.9,24,7c0.4-2.1,3.3-3.5,4.9-3.1c0.5,0.2,1,0.5,1.9,0.4c0.7-0.1,1-0.6,1.4-0.4C32.5,4,32.6,4.1,33,5.2
		C33.3,6.6,33.5,7.5,33.2,7.8z"/>
	<path class="st6" d="M26,10.5c-0.1-0.1-0.3-0.3-0.6-0.3c-0.1,0-0.4-0.1-0.6,0.1c-0.1,0.1-0.1,0.3,0,0.6c0.1,0.5,0.3,0.9,0.4,0.9
		c0.2,0.3,0.3,0.5,0.5,0.6c0.1,0.1,0.4,0.2,0.5,0.1C26.6,12.3,26.6,11.1,26,10.5z"/>
	<path class="st7" d="M24.2,19c-1.5,0.1-3.1,0.2-4.6,0.3c-1.7,4.7-3.5,9.4-5.2,14c0.4,4.7,0.8,9.3,1.2,14c1,0.1,1.9,0.2,2.9,0.3
		c0.2-4.1,0.4-8.2,0.6-12.3c2.1-3.5,4.2-6.9,6.4-10.4C25,22.9,24.6,21,24.2,19z"/>
	<path class="st7" d="M33.2,18.2c2,0.4,4.1,0.8,6.1,1.1c1.7,4.6,3.3,9.2,4.9,13.8c-3.7,2.1-7.4,4.1-11,6.2c0.2-2,0.4-3.9,0.6-5.9
		c1.5-2.1,2.9-4.3,4.4-6.4c-0.3,6.3-0.5,12.6-0.7,18.9H19.9l0.2-25.5c-0.1-0.3-0.3-0.6-0.4-1c1.9-0.3,3.9-0.6,5.8-0.9
		c1.2,1.6,2.4,3.1,3.5,4.7C30.4,21.5,31.9,19.8,33.2,18.2z"/>
	<g>
		<path class="st8" d="M44.8,43.8c-0.7,0.4-1.8,0-2.5-1c-4.2-6.2-7.7-11.5-10.8-16.1c0-0.1,0.1-0.2,0.1-0.4c0.2-0.6,0.5-1,0.8-1.4
			l0,0c0.4,0,0.8-0.1,1.3,0c0.3,0,0.5,0,0.8,0c3,4.6,6.4,10,10.4,16.3C45.6,42.3,45.5,43.4,44.8,43.8z"/>
		<path class="st9" d="M33.8,26.9c-0.8,0.5-1.7,0.5-2.1,0c-0.4-0.5,0-1.4,0.8-1.9s1.7-0.5,2.1,0C34.9,25.5,34.5,26.3,33.8,26.9z"/>
		<path class="st8" d="M33.5,26.7c-0.6,0.4-1.4,0.4-1.7-0.1c-0.3-0.5,0-1.1,0.6-1.5c0.6-0.4,1.3-0.4,1.6,0.1
			C34.4,25.6,34.1,26.3,33.5,26.7z"/>
		<path class="st9" d="M33.3,26.4c-0.4,0.3-1,0.3-1.2-0.1c-0.2-0.3,0-0.8,0.4-1.1c0.4-0.3,1-0.3,1.2,0.1
			C34,25.6,33.8,26.1,33.3,26.4z"/>
		<path class="st8" d="M33.1,26c-0.2,0.1-0.5,0.1-0.6-0.1c-0.1-0.2-0.1-0.5,0.1-0.6s0.5-0.1,0.6,0.1C33.4,25.6,33.3,25.9,33.1,26z"
			/>
	</g>
	<g>
		<path class="st10" d="M44.5,45.4c-0.9,0.7-2.3,0.7-3.1-0.2C36,39.6,30.6,34,25.2,28.4c0-0.2,0.1-0.4,0.1-0.6
			c0.3-1,0.8-1.8,1.3-2.4l0,0c0.7-0.2,1.5-0.4,2.3-0.5c0.5-0.1,0.9-0.1,1.3-0.2C35,30.6,40,36.6,44.8,42.5
			C45.6,43.4,45.5,44.7,44.5,45.4z"/>
		<ellipse transform="matrix(0.8077 -0.5896 0.5896 0.8077 -10.4009 21.5671)" class="st8" cx="27.9" cy="26.7" rx="3.1" ry="1.8"/>
		
			<ellipse transform="matrix(0.8122 -0.5834 0.5834 0.8122 -10.4087 21.1549)" class="st10" cx="27.7" cy="26.7" rx="2.5" ry="1.5"/>
		<ellipse transform="matrix(0.816 -0.5781 0.5781 0.816 -10.3411 20.8293)" class="st8" cx="27.5" cy="26.7" rx="1.8" ry="1.1"/>
		<ellipse transform="matrix(0.8401 -0.5425 0.5425 0.8401 -9.9712 19.1948)" class="st10" cx="27.6" cy="26.5" rx="0.8" ry="0.6"/>
	</g>
	<polygon class="st6" points="45.2,90.3 45.6,93.3 43.5,93.7 42.8,90.1 	"/>
	<polygon class="st6" points="18.9,90.4 18.6,93.4 20.8,93.6 21.2,90 	"/>
	<polygon class="st11" points="19.9,45.4 19.2,67.8 18.2,90.8 22,90.8 24.2,71.1 28.8,48.3 34.2,64.7 36.3,70.4 42.1,90.3 
		46.4,90.4 41.5,70.9 37.6,45.4 	"/>
	<polygon class="st12" points="18.6,93.4 16.4,95.3 8.2,98.5 20,98.5 21,98.5 21.2,96 21.2,93.4 	"/>
	<polygon class="st12" points="45.8,93.2 48.1,95.2 56.3,98.5 44.5,98.5 43.5,98.5 43.2,95.9 43.2,93.2 	"/>
	<path class="st13" d="M30.4,14h2.3c-0.1,0.1-0.5,0.6-1.2,0.6C30.7,14.6,30.4,14,30.4,14z"/>
	<ellipse class="st14" cx="31.1" cy="10.7" rx="0.3" ry="0.2"/>
	<g>
		<path class="st14" d="M26.1,13c0.4,2,2.2,2.9,4.1,3.1C28.2,16.6,25.9,15.1,26.1,13L26.1,13z"/>
	</g>
	<g>
		<path class="st14" d="M25.5,18.5c-1.9,0.4-3.9,0.7-5.8,1l0.1-0.1c-0.4,1.1-0.9,2.2-1.3,3.3c-0.5,1.1-0.9,2.2-1.4,3.3
			c0.4-1.1,0.7-2.3,1.1-3.4s0.9-2.3,1.3-3.4C21.5,18.9,23.5,18.6,25.5,18.5L25.5,18.5z"/>
	</g>
	<polygon class="st6" points="32.6,10.7 33.8,12 32.8,12.9 	"/>
	<g>
		<path class="st8" d="M42.4,49.4c-1.1,1-2.7,1-3.8,0.1c-7-6.4-14.1-12.8-21.3-19.2c0-0.2,0.1-0.5,0.1-0.7c0.3-1.2,0.9-2.3,1.4-3
			l0,0c0.8-0.3,1.8-0.6,2.8-0.8c0.7-0.2,1.2-0.3,1.7-0.3c6.5,6.8,12.9,13.7,19.4,20.5C43.6,46.9,43.5,48.5,42.4,49.4z"/>
		<ellipse transform="matrix(0.7699 -0.6381 0.6381 0.7699 -13.1446 19.4678)" class="st9" cx="20.4" cy="28" rx="3.8" ry="2.2"/>
		<ellipse transform="matrix(0.7751 -0.6319 0.6319 0.7751 -13.1605 19.11)" class="st8" cx="20.3" cy="28" rx="3" ry="1.8"/>
		<ellipse transform="matrix(0.7795 -0.6264 0.6264 0.7795 -13.0592 18.7797)" class="st9" cx="20.1" cy="27.9" rx="2.1" ry="1.3"/>
		<ellipse transform="matrix(0.8075 -0.5899 0.5899 0.8075 -12.5064 17.1624)" class="st8" cx="20" cy="27.7" rx="1" ry="0.8"/>
	</g>
	<g>
		<path class="st6" d="M30.6,37.8c-0.5,0.1-1.1,0.2-1.7,0.3c-1.1,0.1-2.1,0.1-2.9,0c0.5,0.8,1,1.5,1.5,2.2c0.2,0.2,0.5,0.4,0.9,0.6
			c1.4,0.5,2.8-0.5,2.9-0.6C31,39.5,30.9,38.7,30.6,37.8z"/>
		<path class="st15" d="M30.6,37.8c-1.5,0.3-3.1,0.6-4.7,0.4L26,38l1.5,2.2c0.8,0.9,2.5,0.8,3.6,0v0.1L30.6,37.8L30.6,37.8z
			 M30.6,37.8c0.2,0.8,0.5,1.7,0.7,2.6c-0.6,0.4-1.3,0.8-2,0.8s-1.5-0.2-2-0.8l-1.4-2.2L25.8,38C27.4,38.2,29,38,30.6,37.8
			L30.6,37.8z"/>
	</g>
	<g>
		
			<linearGradient id="SVGID_00000090253126981476071230000007123855379922948004_" gradientUnits="userSpaceOnUse" x1="-603.0376" y1="-122.1554" x2="-603.0376" y2="-132.6473" gradientTransform="matrix(0.8598 -0.5107 0.5107 0.8598 590.2187 -143.4136)">
			<stop  offset="0" style="stop-color:#757575"/>
			<stop  offset="1" style="stop-color:#989898"/>
		</linearGradient>
		<polygon style="fill:url(#SVGID_00000090253126981476071230000007123855379922948004_);" points="10.1,59.2 8.9,59.8 3.3,50.9 
			4.6,50.2 		"/>
		<path class="st17" d="M1.8,49.2l0.8,0.9l1-0.1l0.3-1L3,48h0.1c0.3,0,0.5,0,0.6,0c0.5,0.1,0.8,0.5,0.9,0.6S5,49,5,49.4
			c0.1,0.5-0.2,0.9-0.3,1S4.4,50.9,3.8,51C3.3,51.1,3,51,3,51s-0.5-0.1-0.8-0.3c-0.1,0-0.5-0.4-0.5-1C1.8,49.6,1.8,49.4,1.8,49.2
			L1.8,49.2z"/>
		<path class="st18" d="M9.1,58.7L9.1,58.7c-0.2,0.1-0.4,0-0.5-0.1l-4-6.4c-0.1-0.2,0-0.4,0.1-0.5l0,0c0.2-0.1,0.4,0,0.5,0.1l4,6.4
			C9.2,58.5,9.2,58.7,9.1,58.7z"/>
		<path class="st17" d="M10.2,62.1l-0.8-0.9l0.2-0.9l1-0.1l0.8,1c0,0,0-0.1,0.1-0.1c0.1-0.2,0.1-0.5,0.1-0.6c0-0.5-0.4-0.9-0.5-1
			s-0.3-0.3-0.7-0.5c-0.5-0.1-0.9,0-1,0.1c-0.1,0-0.6,0.2-0.8,0.7c-0.2,0.3-0.2,0.6-0.2,0.8c0,0.1,0,0.5,0.2,0.8
			c0,0.1,0.3,0.5,1,0.7C10,62.1,10.2,62.1,10.2,62.1L10.2,62.1z"/>
	</g>
	<g>
		<g>
			<path class="st19" d="M10.8,57.7l0.7-0.3c0.1-0.1,0.2-0.2,0.1-0.3L5.8,45.7c-0.1-0.2-0.2-0.2-0.4-0.1l-0.7,0.3
				c-0.1,0.1-0.2,0.2-0.1,0.3l5.8,11.4C10.5,57.7,10.7,57.7,10.8,57.7z"/>
			<path class="st20" d="M10.6,57.4l0.6-0.3c0.1-0.1,0.2-0.2,0.1-0.3l-5.6-11c-0.1-0.1-0.2-0.2-0.3-0.1L4.8,46
				c-0.1,0.1-0.2,0.2-0.1,0.3l5.6,11C10.4,57.4,10.5,57.5,10.6,57.4z"/>
		</g>
		<g>
			<path class="st21" d="M3.1,45.7l0.8,1.6l2.9-1.4c0,0,0-0.1,0-0.2c0-0.2,0.2-0.5,0.4-0.7c0.4-0.3,0.9-0.5,1.2-0.7l-0.1-0.1
				c-0.8-0.6-1.8-0.3-2.3-0.1l-3,1.4L3.1,45.7z"/>
			<path class="st22" d="M3.1,45.7l0.8,1.5l2.8-1.4c0,0,0-0.1,0-0.2c0-0.2,0.2-0.4,0.5-0.7c0.4-0.3,0.8-0.5,1.2-0.6l-0.1-0.1
				c-0.8-0.5-1.8-0.2-2.2-0.1l-2.9,1.4L3.1,45.7z"/>
		</g>
	</g>
	<g>
		<path class="st23" d="M12.7,57.1L12.7,57.1c-0.4,0-0.7-0.3-0.7-0.7v-5.1c0-0.4,0.3-0.7,0.6-0.7l0,0c0.4,0,0.6,0.3,0.6,0.7v5.1
			C13.2,56.8,13.1,57.1,12.7,57.1z"/>
		<path class="st23" d="M21.1,57.1L21.1,57.1c-0.4,0-0.7-0.3-0.7-0.7v-5.1c0-0.4,0.3-0.7,0.6-0.7l0,0c0.4,0,0.6,0.3,0.6,0.7v5.1
			C21.8,56.8,21.5,57.1,21.1,57.1z"/>
		<path class="st24" d="M28.5,71.9H5.3c-0.8,0-1.5-0.7-1.5-1.5V55.6c0-0.8,0.7-1.5,1.5-1.5h23.2c0.8,0,1.5,0.7,1.5,1.5v14.8
			C30,71.2,29.4,71.9,28.5,71.9z"/>
		<path class="st25" d="M29.4,71.9h-25c-0.3,0-0.6-0.2-0.6-0.5v-1.2c0-0.1,0.1-0.2,0.2-0.3c0.1-0.1,0.3-0.1,0.4-0.1
			c7.1-0.5,12.5-0.5,12.5-0.5s5.8,0,12.5,0.5c0.1,0,0.3,0,0.4,0.1s0.2,0.2,0.2,0.3v1.2C30,71.7,29.8,71.9,29.4,71.9z"/>
		<g>
			<g>
				<path class="st26" d="M10.6,52.7c4.2-0.7,8.5-0.7,12.8-0.2c1.5,0.2,1.5-2.2,0-2.4c-4.5-0.5-8.9-0.4-13.4,0.3
					C8.4,50.7,9.1,53,10.6,52.7L10.6,52.7z"/>
			</g>
		</g>
	</g>
	<path class="st6" d="M15.5,47.3c-0.2,0.5-0.4,0.9-0.6,1.4v1.4l1.7,0.6l2-0.6v-1.4c-0.1-0.4-0.2-0.8-0.3-1.1
		C17.5,47.5,16.5,47.4,15.5,47.3z"/>
	<g>
		<path class="st27" d="M24,9.9c0.3,0.8,2.7,0.8,5.7-0.1c3.4-1.1,6.1-2.9,5.8-3.9s-3.6-0.7-6.9,0.5C25.6,7.5,23.6,9,24,9.9z"/>
		<path class="st28" d="M24.4,9.7c0.2,0.7,2.4,0.7,5.1-0.2c3-1,5.5-2.6,5.2-3.5s-3.3-0.5-6.2,0.6C25.8,7.6,24.1,9,24.4,9.7z"/>
		<path class="st27" d="M33.1,5.6c0.3-1.2-0.9-2.5-1.6-3.1c-1.8-1.5-4.1-1-4.5-0.9c-0.3,0.1-2.5,0.7-3.5,3c-0.1,0.1-0.8,1.9-0.2,3.8
			c0.1,0.4,0.4,1.2,1,1.4c0.5,0.1,0.9-0.2,1.1-0.4c1-0.8,1.2-0.3,4.2-1.6C32,6.9,33,6.4,33.1,5.6z"/>
		<path class="st28" d="M31.1,6.8c0.2-0.9-0.7-2-1.2-2.4c-1.4-1.2-3.1-0.8-3.4-0.7c-0.2,0.1-1.9,0.5-2.6,2.3c0,0.1-0.6,1.5-0.1,3
			c0.1,0.3,0.3,1,0.7,1.1c0.3,0.1,0.7-0.2,0.8-0.3c0.9-0.8,1-0.4,3.2-1.3C30.2,7.7,31.1,7.4,31.1,6.8z"/>
	</g>
	<path class="st7" d="M37.8,28.8c0.3,0.8,0.6,1.7,0.8,2.5c-2.7,2.1-5.4,4.3-8.1,6.4c0.2,0.8,0.4,1.7,0.6,2.5
		c4.4-2.4,8.7-4.9,13.1-7.3c-0.6-1.8-1.3-3.5-1.9-5.3c-1-2.8-9.1-9.5-9.1-9.5"/>
	<g>
		<path class="st14" d="M37.4,27.7c0.5,1.2,1,2.5,1.5,3.7l-0.1,0.1c-2.7,2.2-5.4,4.4-8.2,6.3c1.3-1.2,2.6-2.3,4-3.4
			c1.3-1.1,2.7-2.2,4.1-3.2v0.2C38.1,30.2,37.8,29,37.4,27.7L37.4,27.7z"/>
	</g>
	<g>
		<path class="st14" d="M20,33.7c0.2,3.9,0.2,7.8-0.1,11.7C19.6,41.5,19.6,37.6,20,33.7L20,33.7z"/>
	</g>
</g>
</svg>
