<?xml version="1.0" encoding="utf-8"?>
<!-- Generator: Adobe Illustrator 26.0.1, SVG Export Plug-In . SVG Version: 6.00 Build 0)  -->
<svg version="1.1" id="Layer_1" xmlns="http://www.w3.org/2000/svg" xmlns:xlink="http://www.w3.org/1999/xlink" x="0px" y="0px"
	 viewBox="0 0 100 100" style="enable-background:new 0 0 100 100;" xml:space="preserve">
<style type="text/css">
	.st0{fill:#7F90B1;}
	.st1{fill:url(#SVGID_1_);}
	.st2{fill:none;stroke:#FFFFFF;stroke-width:0.2;stroke-miterlimit:10;}
	.st3{fill:#FF5E33;}
	.st4{fill:none;stroke:#FF5E33;stroke-width:0.5;stroke-miterlimit:10;}
	.st5{fill:#48AE52;}
	.st6{fill:none;stroke:#48AE52;stroke-width:0.5;stroke-miterlimit:10;}
	.st7{fill:url(#SVGID_00000183227304731562658010000004640476882726436009_);}
	.st8{fill:url(#SVGID_00000083059006151609316920000015721444312811397769_);}
	.st9{fill:none;stroke:#29AAE1;stroke-width:0.5;stroke-miterlimit:10;}
	.st10{fill:#DBFCFD;}
	.st11{fill:url(#SVGID_00000124154010528275203180000015827048093247793577_);}
	.st12{fill:url(#SVGID_00000068646422740696466000000009359631054040293290_);}
	.st13{fill:url(#SVGID_00000009589113297617968770000010568393095571291779_);}
	.st14{fill:url(#SVGID_00000096765447346367942890000008373003946795956413_);}
	.st15{fill:#D71F1F;}
	.st16{clip-path:url(#SVGID_00000035511811409513056130000009038550340603102136_);fill:#BE1B1E;}
	.st17{clip-path:url(#SVGID_00000054235631513405530400000017957177546823153047_);fill:#BE1B1E;}
	.st18{clip-path:url(#SVGID_00000157274223181394047770000012000213814789566390_);fill:#BE1B1E;}
	.st19{clip-path:url(#SVGID_00000054967331563923311520000015380885304695593113_);fill:#F42B2A;}
	.st20{fill:#FFBA9F;}
	.st21{fill:#336DFF;}
	.st22{fill:#011435;}
	.st23{fill:#242528;}
	.st24{fill:#FFFFFF;}
	.st25{fill:none;stroke:#58595B;stroke-width:5.000000e-02;stroke-miterlimit:10;}
	.st26{fill:#414042;}
	.st27{fill:#FFE888;stroke:#FF0000;stroke-width:0.75;stroke-miterlimit:10;}
	.st28{fill:none;stroke:#414042;stroke-width:0.4;stroke-miterlimit:10;}
</style>
<g>
	<g>
		<path class="st0" d="M56.2,50.5H4.4c-0.9,0-1.6-0.7-1.6-1.6V8c0-0.9,0.7-1.6,1.6-1.6h51.7c1,0,1.7,0.7,1.7,1.6v40.8
			C57.8,49.8,57.1,50.5,56.2,50.5z"/>
		
			<linearGradient id="SVGID_1_" gradientUnits="userSpaceOnUse" x1="15.5985" y1="981.2081" x2="44.691" y2="1031.5978" gradientTransform="matrix(1 0 0 1 0 -978)">
			<stop  offset="0.3935" style="stop-color:#A7E0FF"/>
			<stop  offset="1" style="stop-color:#DBFCFD"/>
		</linearGradient>
		<path class="st1" d="M53.8,48.2H6.5c-0.8,0-1.4-0.6-1.4-1.4V10.1c0-0.8,0.6-1.4,1.4-1.4h47.2c0.8,0,1.4,0.6,1.4,1.4v36.6
			C55.1,47.5,54.5,48.2,53.8,48.2z"/>
		<line class="st2" x1="11.3" y1="9.7" x2="11.3" y2="46.9"/>
		<line class="st2" x1="48.8" y1="9.7" x2="48.8" y2="46.9"/>
		<line class="st2" x1="18.8" y1="9.7" x2="18.8" y2="46.9"/>
		<line class="st2" x1="26.3" y1="9.7" x2="26.3" y2="46.9"/>
		<line class="st2" x1="33.8" y1="9.7" x2="33.8" y2="46.9"/>
		<line class="st2" x1="41.2" y1="9.7" x2="41.2" y2="46.9"/>
		<line class="st2" x1="5" y1="46.9" x2="55.1" y2="46.9"/>
		<line class="st2" x1="5" y1="16.1" x2="55.1" y2="16.1"/>
		<line class="st2" x1="5" y1="22.3" x2="55.1" y2="22.3"/>
		<line class="st2" x1="5" y1="28.4" x2="55.1" y2="28.4"/>
		<line class="st2" x1="5" y1="40.7" x2="55.1" y2="40.7"/>
		<line class="st2" x1="5" y1="34.6" x2="55.1" y2="34.6"/>
		<ellipse class="st3" cx="11.5" cy="40.8" rx="0.7" ry="0.7"/>
		<ellipse class="st3" cx="18.7" cy="34.6" rx="0.7" ry="0.7"/>
		<ellipse class="st3" cx="26.3" cy="40.8" rx="0.7" ry="0.7"/>
		<ellipse class="st3" cx="33.9" cy="40.8" rx="0.7" ry="0.7"/>
		<ellipse class="st3" cx="41" cy="38.4" rx="0.7" ry="0.7"/>
		<ellipse class="st3" cx="48.6" cy="36.5" rx="0.7" ry="0.7"/>
		<polyline class="st4" points="11.5,40.8 18.7,34.6 26.3,40.8 33.9,40.8 41,38.4 48.6,36.5 		"/>
		<ellipse class="st5" cx="11.5" cy="34.6" rx="0.7" ry="0.7"/>
		<ellipse class="st5" cx="18.7" cy="28.4" rx="0.7" ry="0.7"/>
		<ellipse class="st5" cx="26.3" cy="25.1" rx="0.7" ry="0.7"/>
		<ellipse class="st5" cx="33.9" cy="22.3" rx="0.7" ry="0.7"/>
		<ellipse class="st5" cx="41.5" cy="16.1" rx="0.7" ry="0.7"/>
		<polyline class="st6" points="11.5,34.6 18.7,28.4 26.3,25.1 33.9,22.3 41.5,16.1 48.6,11.4 		"/>
	</g>
	<g>
		
			<linearGradient id="SVGID_00000023985098740876200000000010957069584441874084_" gradientUnits="userSpaceOnUse" x1="19.1628" y1="1063.6689" x2="46.5372" y2="1016.255" gradientTransform="matrix(1 0 0 1 0 -978)">
			<stop  offset="0.3935" style="stop-color:#A7E0FF"/>
			<stop  offset="1" style="stop-color:#DBFCFD"/>
		</linearGradient>
		<path style="fill:url(#SVGID_00000023985098740876200000000010957069584441874084_);" d="M55.3,80.4h-45c-0.8,0-1.5-0.7-1.5-1.5
			V45.1c0-0.8,0.7-1.5,1.5-1.5h45c0.8,0,1.5,0.7,1.5,1.5v33.8C56.8,79.7,56.1,80.4,55.3,80.4z"/>
		
			<linearGradient id="SVGID_00000117673054222839371330000018400779840222179507_" gradientUnits="userSpaceOnUse" x1="8.85" y1="1024.562" x2="56.85" y2="1024.562" gradientTransform="matrix(1 0 0 1 0 -978)">
			<stop  offset="1.978731e-03" style="stop-color:#27B0FC"/>
			<stop  offset="1" style="stop-color:#63CEF9"/>
		</linearGradient>
		<polygon style="fill:url(#SVGID_00000117673054222839371330000018400779840222179507_);" points="56.8,49.8 8.8,49.8 8.8,43.4 
			56.8,43.5 		"/>
		<line class="st9" x1="32.8" y1="56.8" x2="32.8" y2="78.8"/>
		<polygon class="st10" points="53.1,56.9 12.8,56.8 12.8,51.9 53.1,51.9 		"/>
		<polygon class="st10" points="47,64.2 18.9,64.1 18.8,59.2 47,59.3 		"/>
		<polygon class="st10" points="41.5,71.5 24.3,71.5 24.3,66.6 41.5,66.6 		"/>
		<polygon class="st10" points="39.3,78.8 26.6,78.8 26.6,73.9 39.3,73.9 		"/>
		
			<linearGradient id="SVGID_00000085939827519405936410000007286252564175829435_" gradientUnits="userSpaceOnUse" x1="25.65" y1="1032.412" x2="40.01" y2="1032.412" gradientTransform="matrix(1 0 0 1 0 -978)">
			<stop  offset="1.978731e-03" style="stop-color:#27B0FC"/>
			<stop  offset="1" style="stop-color:#63CEF9"/>
		</linearGradient>
		
			<rect x="25.6" y="53.7" style="fill:url(#SVGID_00000085939827519405936410000007286252564175829435_);" width="14.4" height="1.5"/>
		
			<linearGradient id="SVGID_00000012446982714204395390000004611179458302293395_" gradientUnits="userSpaceOnUse" x1="27.39" y1="1039.712" x2="38.52" y2="1039.712" gradientTransform="matrix(1 0 0 1 0 -978)">
			<stop  offset="1.978731e-03" style="stop-color:#27B0FC"/>
			<stop  offset="1" style="stop-color:#63CEF9"/>
		</linearGradient>
		
			<rect x="27.3" y="61" style="fill:url(#SVGID_00000012446982714204395390000004611179458302293395_);" width="11.1" height="1.5"/>
		
			<linearGradient id="SVGID_00000069382298338698932810000004893955574285556887_" gradientUnits="userSpaceOnUse" x1="29.41" y1="1047.012" x2="36.34" y2="1047.012" gradientTransform="matrix(1 0 0 1 0 -978)">
			<stop  offset="1.978731e-03" style="stop-color:#27B0FC"/>
			<stop  offset="1" style="stop-color:#63CEF9"/>
		</linearGradient>
		
			<rect x="29.4" y="68.3" style="fill:url(#SVGID_00000069382298338698932810000004893955574285556887_);" width="6.9" height="1.5"/>
		
			<linearGradient id="SVGID_00000042737123530049139680000009204460981639725954_" gradientUnits="userSpaceOnUse" x1="30.86" y1="1054.312" x2="34.9748" y2="1054.312" gradientTransform="matrix(1 0 0 1 0 -978)">
			<stop  offset="1.978731e-03" style="stop-color:#27B0FC"/>
			<stop  offset="1" style="stop-color:#63CEF9"/>
		</linearGradient>
		
			<rect x="30.8" y="75.6" style="fill:url(#SVGID_00000042737123530049139680000009204460981639725954_);" width="4.1" height="1.5"/>
	</g>
	<g>
		<path class="st15" d="M64.9,27.1c0.1,3.1,1.3,4.6,1.8,6.5c1.6,5.5-3.5,12.8-16.3,23.8c-6.7,5.8-16.4,13.4-29.1,21
			c0.6,0.2,1.5,0.6,2.6,1c3.6,1.3,5.4,2,7,1.9c2.3-0.1,2.1-1.1,4-1.1c2.5,0.1,2.9,1.9,6.2,2.9c2.4,0.7,4.5,0.5,5.5,0.4
			c3.5-0.4,3.5-1.6,5.8-1.5c1.7,0.1,2,0.8,7.5,3.9c3.7,2.1,4.2,2.2,4.8,2.2c2.8,0,3.1-2.5,6.4-3.2c2.8-0.6,5.2,0.5,7.2,1.4
			c2.9,1.3,4.8,3.2,5.8,4.3c0.5-0.9,1.4-2.3,2.3-4.2c3.2-6.6,5.1-13.6,5.1-45.9c0-2.8,0-6.8-2.2-11.1c-2.3-4.4-5.9-7.4-7-8.2
			c-2-1.5-3.6-2.3-4-2.5c-2.7-1.3-5.6-2.7-8.3-1.8C66.2,18.5,64.8,23.7,64.9,27.1z"/>
		<g>
			<g>
				<g>
					<defs>
						<path id="SVGID_00000066513350213958832710000014512474189123089546_" d="M64.9,26.9c0,3.1,1.2,4.6,1.8,6.5
							c1.5,5.6-3.6,12.7-16.5,23.7C43.5,62.9,33.8,70.4,21,77.9c0.6,0.2,1.5,0.6,2.6,1c3.6,1.4,5.4,2.1,7,2c2.3-0.1,2.1-1.1,4-1
							c2.5,0.1,2.9,1.9,6.2,2.9c2.4,0.7,4.5,0.5,5.5,0.4c3.5-0.4,3.5-1.6,5.8-1.5c1.7,0.1,2,0.8,7.4,4c3.7,2.2,4.2,2.2,4.8,2.2
							c2.8,0,3.2-2.5,6.4-3.2c2.8-0.6,5.2,0.5,7.2,1.4c2.9,1.3,4.8,3.2,5.8,4.4c0.5-0.9,1.4-2.3,2.3-4.2c3.3-6.6,5.2-13.6,5.4-45.8
							c0-2.8,0-6.8-2.1-11.1c-2.2-4.5-5.9-7.4-6.9-8.2c-2-1.6-3.6-2.4-4-2.5c-2.7-1.3-5.6-2.8-8.3-1.8
							C66.3,18.3,64.9,23.5,64.9,26.9z"/>
					</defs>
					<clipPath id="SVGID_00000046324160646536584620000008114053647274380187_">
						<use xlink:href="#SVGID_00000066513350213958832710000014512474189123089546_"  style="overflow:visible;"/>
					</clipPath>
					<path style="clip-path:url(#SVGID_00000046324160646536584620000008114053647274380187_);fill:#BE1B1E;" d="M63.5,89
						c4.1-1.7,3.4-8.5,5.2-21.4c2.3-15.8,6.4-26.2,5.9-26.3c-0.5-0.2-3.6,11.6-10,24.9c-4.5,9.3-6.7,14-9,15.8
						c-0.7,0.6-2.2,1.7-2.1,3C53.9,87.6,59.9,90.5,63.5,89z"/>
				</g>
			</g>
			<g>
				<g>
					<defs>
						<path id="SVGID_00000119078644873056982670000008757530023171449489_" d="M64.9,26.9c0,3.1,1.2,4.6,1.8,6.5
							c1.5,5.6-3.6,12.7-16.5,23.7C43.5,62.9,33.8,70.4,21,77.9c0.6,0.2,1.5,0.6,2.6,1c3.6,1.4,5.4,2.1,7,2c2.3-0.1,2.1-1.1,4-1
							c2.5,0.1,2.9,1.9,6.2,2.9c2.4,0.7,4.5,0.5,5.5,0.4c3.5-0.4,3.5-1.6,5.8-1.5c1.7,0.1,2,0.8,7.4,4c3.7,2.2,4.2,2.2,4.8,2.2
							c2.8,0,3.2-2.5,6.4-3.2c2.8-0.6,5.2,0.5,7.2,1.4c2.9,1.3,4.8,3.2,5.8,4.4c0.5-0.9,1.4-2.3,2.3-4.2c3.3-6.6,5.2-13.6,5.4-45.8
							c0-2.8,0-6.8-2.1-11.1c-2.2-4.5-5.9-7.4-6.9-8.2c-2-1.6-3.6-2.4-4-2.5c-2.7-1.3-5.6-2.8-8.3-1.8
							C66.3,18.3,64.9,23.5,64.9,26.9z"/>
					</defs>
					<clipPath id="SVGID_00000077291285425999792730000009411303544891025807_">
						<use xlink:href="#SVGID_00000119078644873056982670000008757530023171449489_"  style="overflow:visible;"/>
					</clipPath>
					<path style="clip-path:url(#SVGID_00000077291285425999792730000009411303544891025807_);fill:#BE1B1E;" d="M41,82.2
						c2.2-0.8,4-2.3,8.5-9.9c3.2-5.5,6-11.2,5.7-11.3c-0.4-0.2-2.8,8.9-10.3,13.2c-3.1,1.8-6,4.1-9.1,6c-1,0.6-2,1.2-1.9,1.7
						C34.1,82.8,38,83.3,41,82.2z"/>
				</g>
			</g>
			<g>
				<g>
					<defs>
						<path id="SVGID_00000116931231297543561270000013772350503935045257_" d="M64.9,26.9c0,3.1,1.2,4.6,1.8,6.5
							c1.5,5.6-3.6,12.7-16.5,23.7C43.5,62.9,33.8,70.4,21,77.9c0.6,0.2,1.5,0.6,2.6,1c3.6,1.4,5.4,2.1,7,2c2.3-0.1,2.1-1.1,4-1
							c2.5,0.1,2.9,1.9,6.2,2.9c2.4,0.7,4.5,0.5,5.5,0.4c3.5-0.4,3.5-1.6,5.8-1.5c1.7,0.1,2,0.8,7.4,4c3.7,2.2,4.2,2.2,4.8,2.2
							c2.8,0,3.2-2.5,6.4-3.2c2.8-0.6,5.2,0.5,7.2,1.4c2.9,1.3,4.8,3.2,5.8,4.4c0.5-0.9,1.4-2.3,2.3-4.2c3.3-6.6,5.2-13.6,5.4-45.8
							c0-2.8,0-6.8-2.1-11.1c-2.2-4.5-5.9-7.4-6.9-8.2c-2-1.6-3.6-2.4-4-2.5c-2.7-1.3-5.6-2.8-8.3-1.8
							C66.3,18.3,64.9,23.5,64.9,26.9z"/>
					</defs>
					<clipPath id="SVGID_00000096049834805997765040000008599057326343699131_">
						<use xlink:href="#SVGID_00000116931231297543561270000013772350503935045257_"  style="overflow:visible;"/>
					</clipPath>
					<path style="clip-path:url(#SVGID_00000096049834805997765040000008599057326343699131_);fill:#BE1B1E;" d="M81.2,95.8
						c-2.6,1.1-5,2.2-6.1,1.4c-2.1-1.6,1.9-9.3,5.8-19.9c6.9-18.9,7.6-30.2,7.2-36.5c-0.6-7.9-2.3-11.7-3.6-14
						c-3-5.1-6.9-7.6-6.7-7.9c0.3-0.4,8.3,3.4,12.9,11.1c3,5.1,3.1,10.1,3.2,19.7c0.1,5.4-0.3,5.2-3,26.9
						c-0.7,5.9-0.4,11.9-4.2,15.6C86,93,84,94.6,81.2,95.8z"/>
				</g>
			</g>
			<g>
				<g>
					<defs>
						<path id="SVGID_00000092432192702208678270000014105856230568458920_" d="M64.9,26.9c0,3.1,1.2,4.6,1.8,6.5
							c1.5,5.6-3.6,12.7-16.5,23.7C43.5,62.9,33.8,70.4,21,77.9c0.6,0.2,1.5,0.6,2.6,1c3.6,1.4,5.4,2.1,7,2c2.3-0.1,2.1-1.1,4-1
							c2.5,0.1,2.9,1.9,6.2,2.9c2.4,0.7,4.5,0.5,5.5,0.4c3.5-0.4,3.5-1.6,5.8-1.5c1.7,0.1,2,0.8,7.4,4c3.7,2.2,4.2,2.2,4.8,2.2
							c2.8,0,3.2-2.5,6.4-3.2c2.8-0.6,5.2,0.5,7.2,1.4c2.9,1.3,4.8,3.2,5.8,4.4c0.5-0.9,1.4-2.3,2.3-4.2c3.3-6.6,5.2-13.6,5.4-45.8
							c0-2.8,0-6.8-2.1-11.1c-2.2-4.5-5.9-7.4-6.9-8.2c-2-1.6-3.6-2.4-4-2.5c-2.7-1.3-5.6-2.8-8.3-1.8
							C66.3,18.3,64.9,23.5,64.9,26.9z"/>
					</defs>
					<clipPath id="SVGID_00000115499921775131505400000008916856687298258840_">
						<use xlink:href="#SVGID_00000092432192702208678270000014105856230568458920_"  style="overflow:visible;"/>
					</clipPath>
					<path style="clip-path:url(#SVGID_00000115499921775131505400000008916856687298258840_);fill:#F42B2A;" d="M73.4,87.4
						c1.4-7,0.9-14,0.9-14c-0.5-7.7,0.3-12.7,0-12.7c-0.2,0-0.7,3.9-1.8,11.8c-0.7,5.1-0.8,6.2-1.6,8c-0.4,1-1.2,2.7-2.6,5.9
						c-1.2,2.9-1.5,3.6-1.1,4c0.8,1,4.2,0.4,5.6-1.6C73.3,88.2,73.4,87.6,73.4,87.4z"/>
				</g>
			</g>
		</g>
	</g>
	<g>
		<path class="st20" d="M67.7,14.1c-0.3,0.5,0.4,0.9,0.2,2c-0.1,0.6-0.5,1.4-1.1,2c-0.4,0.4-0.5,0.3-0.6,0.5
			c-0.3,0.7,1.1,1.4,2.3,3.1c1.1,1.6,1.1,2.9,1.6,2.8c0.5,0,0.4-1.3,1.6-3.1c0.6-0.9,1-1.6,1.9-2c0.7-0.4,1.3-0.5,1.3-0.8
			c0-0.2-0.5-0.3-1.2-0.7c0,0-0.9-0.7-1.2-1.8c-0.3-1,0.2-1.3-0.1-1.8C71.8,13.1,68.2,13,67.7,14.1z"/>
		<path class="st20" d="M70.8,15.9h-1.5c-1.6,0-2.9-1.3-2.9-2.9V7.5c0-1.6,1.3-2.9,2.9-2.9h1.5c1.6,0,2.9,1.3,2.9,2.9V13
			C73.7,14.6,72.3,15.9,70.8,15.9z"/>
		<path d="M66.3,9.5c-0.2-0.1-0.4-0.3-0.7-0.6c-0.1-0.1-0.3-0.5-0.4-1c-0.1-0.4,0-0.7,0-0.8c0-0.2,0.1-0.6,0.4-0.9
			c0.1-0.1,0.3-0.3,0.7-0.4c0.2,0,0.3,0,0.4,0c0,0,0.2-0.1,0.2,0c0.2,0.1,0.2,0.4,0.1,0.4c0,0,0,0-0.1,0l-0.1,0.1
			c-0.4,1.6-0.5,2.9-0.5,2.9C66.3,9.4,66.3,9.4,66.3,9.5z"/>
		<path class="st20" d="M66.8,9.3C66.7,9.2,66.4,9,66.2,9c-0.1,0-0.4-0.1-0.6,0.1c-0.1,0.1-0.1,0.3,0,0.6c0.1,0.5,0.3,0.9,0.4,0.9
			c0.2,0.3,0.3,0.5,0.6,0.6c0.2,0.1,0.3,0.2,0.5,0.1C67.2,11.1,67.3,9.9,66.8,9.3z"/>
		<path d="M66.2,2.6c-0.1,0.1-0.7,0.4-0.9,1c-0.1,0.4,0,0.8,0.1,1c0,0.1,0.2,0.4,0.4,0.8c0.1,0.2,0.4,0.5,1,0.7
			c0.3,0.1,0.6,0.1,1,0.1c0.2,0,0.8,0,1.7-0.3c0.5-0.2,0.6-0.2,0.9-0.2c0.4,0,0.7,0.2,0.9,0.3c0.4,0.2,0.4,0.3,0.6,0.5
			c0.6,0.4,1.6,0.4,2-0.1C74,6.2,74,6,74.2,6c0.1-0.1,0.2-0.4,0.1-0.6c-0.1-0.5-0.7-0.8-0.8-0.9c-0.4-0.2-1-0.1-1.4-0.1
			c-0.6,0.1-0.8,0.3-1.2,0.2c-0.4-0.1-0.7-0.3-0.8-0.4c-0.3-0.2-0.4-0.4-0.7-0.8c-0.2-0.2-0.5-0.5-0.9-0.7
			C67.8,2.4,66.9,2.2,66.2,2.6z"/>
		<path d="M73.4,9.6c0.2-0.1,0.5-0.2,0.8-0.4l0,0c0.8-0.6,0.9-1.5,0.9-1.5c0-0.5-0.2-1-0.3-1.1c-0.2-0.3-0.6-0.8-0.9-0.7
			c0,0-0.2,0.1-0.2,0.5c0,0-0.1-0.1-0.2-0.1c-0.2,0-0.2,0.3-0.2,0.4c0,0,0,0,0.1,0c0,0,0,0,0.1,0.1C73.4,7,73.4,9.4,73.4,9.6z"/>
		<path class="st20" d="M73.3,9.3C73.4,9.2,73.7,9,73.9,9c0.1,0,0.4-0.1,0.6,0.1c0.1,0.1,0.1,0.3,0,0.6c-0.1,0.5-0.3,0.9-0.4,0.9
			c-0.2,0.3-0.3,0.5-0.6,0.6c-0.2,0.1-0.3,0.2-0.5,0.1C72.8,11.1,72.8,9.9,73.3,9.3z"/>
		<path class="st21" d="M66.7,18.8l-6,0.6l-5.5,14c1.9,3.4,3.8,6.8,5.8,10.1l0.5-6.6L60,34.3l1.2-3.2l5.1-6.3L66.7,18.8z"/>
		<path class="st21" d="M74.2,18.3c2.4,0,4.8-0.1,7.3-0.1c1.4,4.9,2.7,9.7,4.1,14.6c-2.6,3.6-5.1,7.2-7.7,10.8
			c0.2-2.4,0.4-4.8,0.6-7.1c0.6-1.4,1.3-2.8,1.9-4.2c-0.4-1.3-0.7-2.6-1.1-4c-0.2,5.7-0.5,11.5-0.8,17.3H60.9l0.2-25.3
			c-0.1-0.3-0.3-0.6-0.4-1c1.9-0.3,3.9-0.6,5.8-0.9c1.3,0.3,2.6,0.5,3.9,0.8C71.7,19,72.8,18.6,74.2,18.3z"/>
		<polygon class="st20" points="86,89.6 86.5,92.6 84.4,93 83.7,89.4 		"/>
		<polygon class="st20" points="59.8,89.7 59.6,92.7 61.8,92.9 62.2,89.3 		"/>
		<polygon class="st22" points="60.9,45.1 60.2,67.3 59.2,90.1 62.9,90.1 65.2,70.6 69.7,48 75.2,64.3 77.2,69.9 83,89.6 87.2,89.7 
			82.4,70.4 78.5,45.1 		"/>
		<polygon class="st23" points="59.6,92.7 57.4,94.5 49.2,97.7 60.9,97.7 61.9,97.7 62.2,95.2 62.2,92.7 		"/>
		<polygon class="st23" points="86.8,92.5 89,94.4 97.2,97.7 85.4,97.7 84.4,97.7 84.2,95.1 84.2,92.5 		"/>
		<path class="st24" d="M68.7,13.3h2.7c-0.1,0.1-0.6,0.9-1.3,0.9C69.2,14.3,68.8,13.5,68.7,13.3z"/>
		<polyline class="st25" points="69.8,10.6 69.4,11.7 70,12.3 		"/>
		<ellipse class="st26" cx="71.7" cy="9.9" rx="0.3" ry="0.2"/>
		<ellipse class="st26" cx="68.2" cy="9.9" rx="0.3" ry="0.2"/>
		<g>
			<g>
				<path class="st26" d="M60.9,27.7c0.3,4.7,0.3,9.3,0.2,14C60.6,37,60.6,32.3,60.9,27.7L60.9,27.7z"/>
			</g>
			<g>
				<path class="st26" d="M60.9,32.1c-0.2,0.8-0.5,1.6-0.9,2.3v-0.2c0.4,0.7,0.8,1.3,1,2c-0.5-0.6-1-1.3-1.4-1.9
					C60,33.5,60.3,32.8,60.9,32.1L60.9,32.1z"/>
			</g>
			<g>
				<path class="st26" d="M66.3,10.3c0.2,1.8-0.3,4.1,1.6,5c0.6,0.3,1.2,0.5,1.8,0.6C66,15.9,65.8,13.3,66.3,10.3L66.3,10.3z"/>
			</g>
			<g>
				<path class="st26" d="M66.4,18.5c-1.9,0.4-3.8,0.7-5.8,1l0.2-0.1c-0.4,1.1-0.9,2.2-1.3,3.3c-0.5,1.1-0.9,2.2-1.4,3.2
					c0.3-1.1,0.7-2.2,1.1-3.4c0.4-1.1,0.8-2.3,1.3-3.4C62.4,18.9,64.4,18.6,66.4,18.5L66.4,18.5z"/>
			</g>
		</g>
	</g>
	<path class="st27" d="M77.8,23.9h-15c2.5,3.3,5,6.7,7.5,10C72.8,30.6,75.3,27.2,77.8,23.9z"/>
	<g>
		<path class="st15" d="M68.4,29.4c-0.3,0-0.6-0.1-0.8-0.5c-0.3-0.3-0.5-0.8-0.7-1.5c-0.2-0.8-0.3-1.5-0.2-2.1c0.1-0.6,0.4-1,0.8-1
			c0.3,0,0.7,0.2,1,0.6s0.4,0.9,0.5,1.4h-0.4c-0.1-0.4-0.2-0.6-0.3-0.9c-0.2-0.2-0.4-0.4-0.6-0.4c-0.3,0-0.5,0.2-0.6,0.7
			c-0.1,0.4,0,1,0.2,1.6s0.3,1,0.5,1.2s0.4,0.4,0.6,0.4s0.3-0.1,0.4-0.2s0.1-0.3,0.1-0.6h0.3c0,0.4,0,0.7-0.2,0.9
			C68.9,29.3,68.8,29.4,68.4,29.4z"/>
		<path class="st15" d="M71.4,25.3h-1.6l0.1,1.7h1.2v0.5H70l0.1,1.7h-0.3l-0.3-4.8h2.1L71.4,25.3z"/>
		<path class="st15" d="M73.4,24.4c0.4,0,0.7,0.3,0.8,1c0.1,0.6,0,1.2-0.3,2c-0.2,0.7-0.5,1.1-0.8,1.5c-0.3,0.3-0.5,0.5-0.8,0.5
			s-0.5-0.1-0.6-0.5c-0.2-0.3-0.2-0.8-0.1-1.5c0.1-0.8,0.3-1.5,0.6-2C72.5,24.7,72.9,24.4,73.4,24.4z M72.4,28.9
			c0.2,0,0.4-0.1,0.6-0.4s0.4-0.7,0.6-1.2c0.2-0.6,0.2-1.1,0.2-1.5c-0.1-0.4-0.2-0.6-0.5-0.6s-0.6,0.2-0.8,0.7
			c-0.2,0.4-0.4,0.9-0.5,1.5c-0.1,0.5-0.1,1,0,1.2C72,28.8,72.2,29,72.4,28.9z"/>
	</g>
	<polyline class="st28" points="79.2,28.3 80.2,32.3 78.8,35.6 	"/>
</g>
</svg>
