<?xml version="1.0" encoding="utf-8"?>
<!-- Generator: Adobe Illustrator 26.0.1, SVG Export Plug-In . SVG Version: 6.00 Build 0)  -->
<svg version="1.1" id="Layer_1" xmlns="http://www.w3.org/2000/svg" xmlns:xlink="http://www.w3.org/1999/xlink" x="0px" y="0px"
	 viewBox="0 0 100 100" style="enable-background:new 0 0 100 100;" xml:space="preserve">
<style type="text/css">
	.st0{fill:url(#SVGID_1_);}
	.st1{fill:url(#SVGID_00000161604712604363615340000012917630059847026850_);}
	.st2{fill:none;stroke:#FFFFFF;stroke-width:0.5;stroke-miterlimit:10;}
	.st3{fill:none;stroke:#FFFFFF;stroke-miterlimit:10;}
	.st4{fill:url(#SVGID_00000025403064706005981790000016435169913065949096_);}
	.st5{fill:url(#SVGID_00000080180372937017244810000001088894984279686835_);}
	.st6{fill:#F3FCFF;}
	.st7{fill:none;stroke:#FFFFFF;stroke-width:0.2;stroke-miterlimit:10;}
	.st8{fill:#48AE52;}
	.st9{fill:none;stroke:#48AE52;stroke-width:0.5;stroke-miterlimit:10;}
	.st10{fill:#7B4634;}
	.st11{fill:#603222;}
	.st12{fill:#F3C943;}
	.st13{fill:#1A1A1A;}
	.st14{fill:#60321F;}
	.st15{fill:#955A47;}
	.st16{fill:#985D47;}
	.st17{fill:#F3CC46;}
	.st18{fill:#46251C;}
	.st19{fill:url(#SVGID_00000038389116731326020790000015992904821729916573_);}
	.st20{fill:#989898;}
	.st21{fill:#787878;}
	.st22{fill:#DC7100;}
	.st23{fill:#E7A900;}
	.st24{fill:#474747;}
	.st25{fill:#8E8E8E;}
</style>
<g>
	<g>
		
			<linearGradient id="SVGID_1_" gradientUnits="userSpaceOnUse" x1="395.9837" y1="288.2959" x2="445.7301" y2="288.2959" gradientTransform="matrix(0.8857 0.4644 -0.4644 0.8857 -169.891 -411.2161)">
			<stop  offset="0.3935" style="stop-color:#A7E0FF"/>
			<stop  offset="1" style="stop-color:#DBFCFD"/>
		</linearGradient>
		<path class="st0" d="M82.9,65.4l-43-22.5c-0.3-0.2-0.4-0.5-0.2-0.8L54.4,14c0.2-0.3,0.5-0.4,0.8-0.2l43,22.5
			c0.3,0.2,0.4,0.5,0.2,0.8l-14.7,28C83.5,65.4,83.2,65.5,82.9,65.4z"/>
		
			<linearGradient id="SVGID_00000085248480001476863010000000238046257635587458_" gradientUnits="userSpaceOnUse" x1="396.0294" y1="273.6868" x2="445.7495" y2="273.6868" gradientTransform="matrix(0.8857 0.4644 -0.4644 0.8857 -169.891 -411.2161)">
			<stop  offset="1.978731e-03" style="stop-color:#27AFFB"/>
			<stop  offset="1" style="stop-color:#63CDF8"/>
		</linearGradient>
		<path style="fill:url(#SVGID_00000085248480001476863010000000238046257635587458_);" d="M96.9,39.9l-44-23.1l1.5-2.8
			c0.2-0.3,0.5-0.4,0.9-0.3l42.8,22.5c0.3,0.2,0.4,0.5,0.3,0.9L96.9,39.9z"/>
		<line class="st2" x1="52.9" y1="16.8" x2="96.5" y2="39.7"/>
		<line class="st2" x1="51" y1="20.4" x2="94.6" y2="43.3"/>
		<line class="st2" x1="49.1" y1="24" x2="92.7" y2="46.9"/>
		<line class="st2" x1="47.2" y1="27.6" x2="90.8" y2="50.5"/>
		<line class="st2" x1="45.3" y1="31.2" x2="88.9" y2="54.1"/>
		<line class="st2" x1="43.4" y1="34.9" x2="87" y2="57.8"/>
		<line class="st2" x1="41.5" y1="38.5" x2="85.1" y2="61.4"/>
		<line class="st3" x1="39.6" y1="42.1" x2="83.2" y2="65"/>
		<line class="st2" x1="46.3" y1="45.7" x2="59.6" y2="20.3"/>
		<line class="st2" x1="50.6" y1="48" x2="63.9" y2="22.5"/>
		<line class="st2" x1="54.6" y1="50.1" x2="68" y2="24.6"/>
		<line class="st2" x1="58.7" y1="52.2" x2="72.1" y2="26.8"/>
		<line class="st2" x1="62.8" y1="54.3" x2="76.1" y2="28.9"/>
		<line class="st2" x1="66.9" y1="56.5" x2="80.2" y2="31"/>
		<line class="st2" x1="70.9" y1="58.6" x2="84.3" y2="33.2"/>
		<line class="st2" x1="75.1" y1="60.7" x2="88.4" y2="35.3"/>
		<line class="st2" x1="79.1" y1="62.9" x2="92.4" y2="37.5"/>
		<line class="st3" x1="83.2" y1="64.9" x2="96.5" y2="39.6"/>
	</g>
	<g>
		
			<linearGradient id="SVGID_00000027600684796960848500000011690133455730353057_" gradientUnits="userSpaceOnUse" x1="-985.6379" y1="2204.542" x2="-957.3708" y2="2155.582" gradientTransform="matrix(0.9091 -0.575 0.4895 0.774 -152.2979 -2209.1228)">
			<stop  offset="0.3935" style="stop-color:#A8E1FF"/>
			<stop  offset="1" style="stop-color:#DCFDFE"/>
		</linearGradient>
		<path style="fill:url(#SVGID_00000027600684796960848500000011690133455730353057_);" d="M60.3,41L23,64.6c-0.9,0.5-2,0.3-2.5-0.6
			L2.6,35.8c-0.8-1.3-0.4-2.9,0.8-3.7L39.2,9.4c1.3-0.8,2.9-0.4,3.7,0.8l17.9,28.3C61.4,39.3,61.2,40.5,60.3,41z"/>
		
			<linearGradient id="SVGID_00000096759555097588581150000015432766823250325164_" gradientUnits="userSpaceOnUse" x1="-993.8124" y1="2161.0408" x2="-949.3826" y2="2161.0408" gradientTransform="matrix(0.9091 -0.575 0.4895 0.774 -152.2979 -2209.1228)">
			<stop  offset="1.978731e-03" style="stop-color:#27B0FC"/>
			<stop  offset="1" style="stop-color:#63CEF9"/>
		</linearGradient>
		<path style="fill:url(#SVGID_00000096759555097588581150000015432766823250325164_);" d="M43.7,11.4L3.3,36.9l-1.5-2.4
			c-0.5-0.8-0.3-2,0.6-2.5L39.7,8.4c0.8-0.5,2-0.3,2.5,0.6L43.7,11.4z"/>
		<rect x="5.2" y="29.7" transform="matrix(0.8452 -0.5345 0.5345 0.8452 -12.2233 18.2695)" class="st6" width="40.5" height="1"/>
		
			<rect x="3.1" y="26.3" transform="matrix(0.8452 -0.5345 0.5345 0.8452 -10.9079 16.719)" class="st6" width="40.6" height="1.8"/>
		<rect x="6.2" y="31.3" transform="matrix(0.8452 -0.5345 0.5345 0.8452 -12.8954 19.0595)" class="st6" width="40.5" height="1"/>
		<rect x="7.5" y="33.7" transform="matrix(0.8452 -0.5345 0.5345 0.8452 -14.2722 19.1104)" class="st6" width="36.8" height="1"/>
		<line class="st7" x1="24.1" y1="56.1" x2="28.5" y2="63.2"/>
		<line class="st7" x1="42" y1="26.4" x2="54.8" y2="46.6"/>
		<line class="st7" x1="27.1" y1="49.2" x2="33.8" y2="59.9"/>
		<line class="st7" x1="31.2" y1="44.1" x2="39.1" y2="56.6"/>
		<line class="st7" x1="35.4" y1="39.1" x2="44.3" y2="53.2"/>
		<line class="st7" x1="38.4" y1="32.4" x2="49.5" y2="49.9"/>
		<ellipse transform="matrix(0.8452 -0.5345 0.5345 0.8452 -26.2778 21.6956)" class="st8" cx="24.3" cy="56.2" rx="0.6" ry="0.5"/>
		<ellipse transform="matrix(0.8452 -0.5345 0.5345 0.8452 -22.2781 22.1472)" class="st8" cx="27.1" cy="49.5" rx="0.6" ry="0.5"/>
		<ellipse transform="matrix(0.8452 -0.5345 0.5345 0.8452 -18.8292 23.5895)" class="st8" cx="31.3" cy="44.3" rx="0.6" ry="0.5"/>
		<ellipse transform="matrix(0.8452 -0.5345 0.5345 0.8452 -15.5018 25.11)" class="st8" cx="35.6" cy="39.3" rx="0.6" ry="0.5"/>
		<ellipse transform="matrix(0.8452 -0.5345 0.5345 0.8452 -11.3087 25.7261)" class="st8" cx="38.8" cy="32.4" rx="0.6" ry="0.5"/>
		<ellipse transform="matrix(0.8452 -0.5345 0.5345 0.8452 -7.6968 26.6095)" class="st8" cx="42.1" cy="26.6" rx="0.6" ry="0.5"/>
		<polyline class="st9" points="24.3,56.2 27.1,49.5 31.3,44.3 35.6,39.3 38.8,32.4 42.1,26.6 		"/>
		
			<rect x="11.4" y="41.9" transform="matrix(0.8452 -0.5345 0.5345 0.8452 -19.1518 18.6499)" class="st6" width="22.5" height="1"/>
		
			<rect x="12.5" y="44.1" transform="matrix(0.8452 -0.5345 0.5345 0.8452 -20.3353 18.9885)" class="st6" width="20.2" height="1"/>
	</g>
	<g>
		<path class="st10" d="M71.4,80H22.1c-1.8,0-3.2-1.4-3.2-3.2V44c0-1.8,1.5-3.2,3.2-3.2h49.3c1.8,0,3.2,1.5,3.2,3.2v32.8
			C74.6,78.6,73.2,80,71.4,80z"/>
		<path class="st11" d="M73.4,80H20.1c-0.7,0-1.2-0.5-1.2-1v-2.7c0-0.3,0.1-0.5,0.4-0.7s0.7-0.3,0.9-0.3C35.2,74,46.7,74,46.7,74
			s12.3,0,26.6,1.2c0.2,0,0.6,0.1,0.9,0.3c0.2,0.2,0.4,0.4,0.4,0.7V79C74.6,79.5,74,80,73.4,80z"/>
		<path class="st12" d="M37.6,47.3L37.6,47.3c-0.8,0-1.4-0.6-1.4-1.4V34.5c0-0.8,0.6-1.4,1.4-1.4l0,0c0.8,0,1.4,0.6,1.4,1.4v11.4
			C39.1,46.7,38.4,47.3,37.6,47.3z"/>
		<path class="st12" d="M55.6,47.3L55.6,47.3c-0.8,0-1.4-0.6-1.4-1.4V34.5c0-0.8,0.6-1.4,1.4-1.4l0,0c0.8,0,1.4,0.6,1.4,1.4v11.4
			C57,46.7,56.3,47.3,55.6,47.3z"/>
		<g>
			<g>
				<path class="st13" d="M33.3,38.1c8.2-4.5,18-4.8,26.3-0.6c1.7,0.9,3.2-1.7,1.5-2.6c-9.4-4.7-20.2-4.5-29.4,0.6
					C30.1,36.4,31.6,39,33.3,38.1L33.3,38.1z"/>
			</g>
		</g>
		<path class="st14" d="M73.5,60.5c-4.8,2.9-9.8,3.7-22.8,3.8c-3.5,0-2.1,0-8,0c-12.9,0.1-18.4,0.4-23.1-3.5c-0.5-0.4-0.9-0.8-1.1-1
			V43.2c0-1.4,1-2.5,2.3-2.5h51.4c1.3,0,2.3,1.1,2.3,2.5v16.5C74.4,59.9,74,60.2,73.5,60.5z"/>
		<path class="st15" d="M74.6,59.8c-4.9,2.8-10.1,3.6-23.6,3.7c-3.6,0-2.2,0-8.2,0c-13.3,0.1-19,0.4-23.9-3.4
			c-0.5-0.4-0.9-0.8-1.1-1v-16c0-1.3,1.1-2.4,2.4-2.4h53.2c1.3,0,2.4,1.1,2.4,2.4v16C75.5,59.3,75.1,59.5,74.6,59.8z"/>
		<rect x="41.3" y="40.8" class="st14" width="11.1" height="23.6"/>
		<path class="st16" d="M50.1,68.3h-6.5c-0.8,0-1.5-0.7-1.5-1.5V41.1c0-0.8,0.7-1.5,1.5-1.5h6.5c0.8,0,1.5,0.7,1.5,1.5v25.8
			C51.6,67.7,50.9,68.3,50.1,68.3z"/>
		<path class="st17" d="M48.5,70.6h-3.3c-0.9,0-1.6-0.7-1.6-1.6v-3.3c0-0.9,0.7-1.6,1.6-1.6h3.3c0.9,0,1.6,0.7,1.6,1.6V69
			C50.1,69.9,49.4,70.6,48.5,70.6z"/>
		<path class="st18" d="M48.3,69.2h-2.7c-0.6,0-1-0.5-1-1.1v-1.6c0-0.6,0.5-1.1,1-1.1h2.7c0.6,0,1,0.5,1,1.1v1.6
			C49.3,68.7,48.8,69.2,48.3,69.2z"/>
	</g>
	<g>
		
			<linearGradient id="SVGID_00000141446077403109065180000002935735246781987461_" gradientUnits="userSpaceOnUse" x1="171.435" y1="-526.3318" x2="171.435" y2="-558.0211" gradientTransform="matrix(0.5692 0.8222 -0.8222 0.5692 -473.7017 236.688)">
			<stop  offset="0" style="stop-color:#757575"/>
			<stop  offset="1" style="stop-color:#989898"/>
		</linearGradient>
		<polygon style="fill:url(#SVGID_00000141446077403109065180000002935735246781987461_);" points="57.8,79.8 55.5,76.4 81.5,58.3 
			83.9,61.7 		"/>
		<path class="st20" d="M86.4,53.7l-2.7,2.5l0.4,2.8l3,0.5l2.7-2.9c0,0.1,0.1,0.2,0.1,0.3c0.2,0.7,0.2,1.4,0.2,1.8
			c-0.2,1.5-1.4,2.6-1.7,2.8c-0.4,0.3-1.1,0.9-2.3,1.2c-1.5,0.3-2.7-0.4-3-0.6s-1.5-0.9-2.1-2.4c-0.4-1.1-0.3-2-0.2-2.3
			c0.1-0.4,0.2-1.4,0.9-2.3c0.1-0.2,1.2-1.5,3-1.7c0.6-0.1,1.1,0,1.5,0.1L86.4,53.7z"/>
		<path class="st21" d="M58.9,76.7L58.9,76.7c-0.3-0.5-0.2-1.1,0.3-1.4l18.7-13c0.5-0.3,1.1-0.2,1.4,0.3l0,0
			c0.3,0.5,0.2,1.1-0.3,1.4L60.3,77C59.9,77.3,59.2,77.1,58.9,76.7z"/>
		<path class="st20" d="M49,81.2l2.7-2.6l2.8,0.5l0.4,3l-3,2.6c0.1,0,0.2,0.1,0.3,0.1C52.9,85,53.6,85,54,85
			c1.5-0.1,2.7-1.3,2.9-1.6c0.3-0.3,1-1.1,1.2-2.2c0.3-1.5-0.3-2.7-0.4-3c-0.2-0.3-0.8-1.6-2.4-2.2c-1-0.4-2-0.3-2.3-0.3
			c-0.4,0-1.4,0.2-2.3,0.8c-0.2,0.1-1.5,1.1-1.8,3c-0.1,0.6,0,1.1,0,1.5L49,81.2z"/>
	</g>
	<g>
		<g>
			<path class="st22" d="M50,89.1l0.7,2.2c0.1,0.4,0.6,0.7,1,0.5l36.9-11.4c0.4-0.1,0.7-0.6,0.5-1l-0.7-2.2c-0.1-0.4-0.6-0.7-1-0.5
				L50.5,88.1C50.1,88.2,49.8,88.7,50,89.1z"/>
			<path class="st23" d="M50.8,88.8l0.6,1.9c0.1,0.4,0.5,0.6,0.9,0.5l35.7-11c0.4-0.1,0.6-0.5,0.5-0.9l-0.6-1.9
				c-0.1-0.4-0.5-0.6-0.9-0.5l-35.7,11C50.9,88,50.7,88.4,50.8,88.8z"/>
		</g>
		<g>
			<path class="st24" d="M89.6,72.8l-5.2,1.6l2.8,9.1c0.1,0,0.3,0,0.5,0.1c0.8,0.2,1.3,0.7,2,1.7c0.8,1.3,1.2,2.8,1.4,3.7
				c0.1-0.1,0.2-0.2,0.4-0.3c2.1-2,1.8-5.1,1.5-6.7l-2.9-9.3L89.6,72.8z"/>
			<path class="st25" d="M89.7,72.8l-4.8,1.5l2.8,8.9c0.1,0,0.3,0,0.4,0.1c0.7,0.2,1.3,0.7,1.9,1.7c0.8,1.3,1.2,2.7,1.4,3.7
				c0.1-0.1,0.2-0.2,0.4-0.3c2-1.9,1.6-5.1,1.3-6.5l-3-9.3L89.7,72.8z"/>
		</g>
	</g>
</g>
</svg>
