<?xml version="1.0" encoding="utf-8"?>
<!-- Generator: Adobe Illustrator 26.0.1, SVG Export Plug-In . SVG Version: 6.00 Build 0)  -->
<svg version="1.1" id="Layer_1" xmlns="http://www.w3.org/2000/svg" xmlns:xlink="http://www.w3.org/1999/xlink" x="0px" y="0px"
	 viewBox="0 0 100 100" style="enable-background:new 0 0 100 100;" xml:space="preserve">
<style type="text/css">
	.st0{fill:#7F91B2;}
	.st1{fill:#9AB1D6;}
	.st2{fill:#333D49;}
	.st3{fill:url(#SVGID_1_);}
	.st4{fill:url(#SVGID_00000048479036578969629020000011631137852886757015_);}
	.st5{fill:url(#SVGID_00000078023071211025289500000012089482176109916050_);}
	.st6{fill:#F3FCFF;}
	.st7{fill:url(#SVGID_00000140704612091728994360000011085705221809790380_);}
	.st8{fill:url(#SVGID_00000174567148877078471170000017222146705661809301_);}
	.st9{fill:#4DD9FF;}
	.st10{fill:#6EC1FF;}
	.st11{fill:#336DFF;}
	.st12{fill:url(#SVGID_00000150086948448694935970000005320425485661642883_);}
	.st13{fill:none;stroke:#FFFFFF;stroke-width:0.3;stroke-miterlimit:10;}
	.st14{fill:#A8E1FF;}
	.st15{fill:#B2CDEA;}
	.st16{fill:#FFFFFF;}
	.st17{fill:url(#SVGID_00000012443380493446428730000005755403569212250540_);}
	.st18{fill:none;stroke:#FFFFFF;stroke-width:0.2;stroke-miterlimit:10;}
	.st19{fill:#FF5E33;}
	.st20{fill:none;stroke:#FF5E33;stroke-width:0.3;stroke-miterlimit:10;}
	.st21{fill:#48AF52;}
	.st22{fill:none;stroke:#48AF52;stroke-width:0.2;stroke-miterlimit:10;}
	.st23{fill:none;stroke:#333333;stroke-width:0.2;stroke-miterlimit:10;}
</style>
<g>
	<path class="st0" d="M81.7,83.7H19.1c-1,0-1.5-0.5-1-1L29.1,69c0.2-0.2,0.9-0.4,1.5-0.4l40.3,0c0.7,0,1.3,0.2,1.5,0.4l10.3,13.8
		C83.2,83.3,82.7,83.7,81.7,83.7z"/>
	<polygon class="st1" points="62.5,80.5 38.5,80.5 39.8,76.5 61.4,76.5 	"/>
	<polygon class="st1" points="76.5,76.6 24.7,76.5 30.4,69.1 71.2,69.1 	"/>
	<polygon class="st2" points="32.3,70.3 29.9,70.3 30.6,69.4 32.9,69.4 	"/>
	<polygon class="st2" points="35.3,70.3 32.9,70.3 33.5,69.4 35.8,69.4 	"/>
	<polygon class="st2" points="38.3,70.3 36,70.3 36.4,69.4 38.8,69.4 	"/>
	<polygon class="st2" points="41.4,70.3 39,70.3 39.4,69.4 41.7,69.4 	"/>
	<polygon class="st2" points="44.4,70.3 42,70.3 42.3,69.4 44.6,69.4 	"/>
	<polygon class="st2" points="47.4,70.3 45,70.3 45.2,69.4 47.5,69.4 	"/>
	<polygon class="st2" points="50.5,70.3 48.1,70.3 48.2,69.4 50.5,69.4 	"/>
	<polygon class="st2" points="53.5,70.3 51.1,70.3 51.1,69.4 53.4,69.4 	"/>
	<polygon class="st2" points="56.5,70.3 54.1,70.3 54,69.4 56.3,69.4 	"/>
	<polygon class="st2" points="59.5,70.3 57.1,70.3 57,69.4 59.3,69.4 	"/>
	<polygon class="st2" points="62.5,70.3 60.2,70.3 59.9,69.4 62.2,69.4 	"/>
	<polygon class="st2" points="65.6,70.3 63.2,70.3 62.8,69.4 65.1,69.4 	"/>
	<polygon class="st2" points="68.6,70.3 66.2,70.3 65.8,69.4 68.1,69.4 	"/>
	<polygon class="st2" points="71.6,70.3 69.2,70.3 68.7,69.4 71,69.4 	"/>
	<polygon class="st2" points="34.7,71.6 29,71.6 29.7,70.6 35.2,70.6 	"/>
	<polygon class="st2" points="34,72.9 28,72.9 28.8,71.8 34.5,71.8 	"/>
	<polygon class="st2" points="33.2,74.4 26.9,74.4 27.8,73.2 33.8,73.2 	"/>
	<polygon class="st2" points="37.1,72.9 34.5,72.9 35.1,71.8 37.6,71.8 	"/>
	<polygon class="st2" points="40.4,72.9 37.8,72.9 38.2,71.8 40.8,71.8 	"/>
	<polygon class="st2" points="43.7,72.9 41.1,72.9 41.4,71.8 43.9,71.8 	"/>
	<polygon class="st2" points="47,72.9 44.4,72.9 44.6,71.8 47.1,71.8 	"/>
	<polygon class="st2" points="50.2,72.9 47.7,72.9 47.8,71.8 50.3,71.8 	"/>
	<polygon class="st2" points="53.5,72.9 50.9,72.9 51,71.8 53.5,71.8 	"/>
	<polygon class="st2" points="56.8,72.9 54.2,72.9 54.1,71.8 56.7,71.8 	"/>
	<polygon class="st2" points="60.1,72.9 57.5,72.9 57.3,71.8 59.8,71.8 	"/>
	<polygon class="st2" points="63.4,72.9 60.8,72.9 60.5,71.8 63,71.8 	"/>
	<polygon class="st2" points="66.7,72.9 64.1,72.9 63.7,71.8 66.2,71.8 	"/>
	<polygon class="st2" points="70,72.9 67.4,72.9 66.9,71.8 69.4,71.8 	"/>
	<polygon class="st2" points="73.3,72.9 70.7,72.9 70,71.8 72.6,71.8 	"/>
	<polygon class="st2" points="37.7,71.5 35.2,71.5 35.8,70.6 38.2,70.6 	"/>
	<polygon class="st2" points="40.9,71.5 38.4,71.5 38.8,70.6 41.2,70.6 	"/>
	<polygon class="st2" points="44,71.5 41.5,71.5 41.9,70.6 44.3,70.6 	"/>
	<polygon class="st2" points="47.2,71.5 44.7,71.5 44.9,70.6 47.3,70.6 	"/>
	<polygon class="st2" points="50.3,71.5 47.8,71.5 48,70.6 50.4,70.6 	"/>
	<polygon class="st2" points="53.5,71.5 51,71.5 51,70.6 53.4,70.6 	"/>
	<polygon class="st2" points="56.6,71.5 54.1,71.5 54.1,70.6 56.5,70.6 	"/>
	<polygon class="st2" points="59.8,71.5 57.3,71.5 57.1,70.6 59.5,70.6 	"/>
	<polygon class="st2" points="62.9,71.5 60.4,71.5 60.2,70.6 62.6,70.6 	"/>
	<polygon class="st2" points="66.1,71.5 63.6,71.5 63.2,70.6 65.6,70.6 	"/>
	<polygon class="st2" points="69.2,71.5 66.7,71.5 66.2,70.6 68.7,70.6 	"/>
	<polygon class="st2" points="72.4,71.5 69.9,71.5 69.3,70.6 71.7,70.6 	"/>
	<polygon class="st2" points="36.5,74.3 33.8,74.3 34.4,73.2 37,73.2 	"/>
	<polygon class="st2" points="39.9,74.3 37.2,74.3 37.7,73.2 40.3,73.2 	"/>
	<polygon class="st2" points="43.4,74.3 40.7,74.3 41,73.2 43.7,73.2 	"/>
	<polygon class="st2" points="46.8,74.3 44.1,74.3 44.3,73.2 47,73.2 	"/>
	<polygon class="st2" points="50.2,74.3 47.5,74.3 47.7,73.2 50.3,73.2 	"/>
	<polygon class="st2" points="53.7,74.3 51,74.3 51,73.2 53.6,73.2 	"/>
	<polygon class="st2" points="57.1,74.3 54.4,74.3 54.3,73.2 56.9,73.2 	"/>
	<polygon class="st2" points="60.6,74.3 57.8,74.3 57.6,73.2 60.2,73.2 	"/>
	<polygon class="st2" points="64,74.3 61.3,74.3 60.9,73.2 63.6,73.2 	"/>
	<polygon class="st2" points="67.4,74.3 64.7,74.3 64.3,73.2 66.9,73.2 	"/>
	<polygon class="st2" points="70.9,74.3 68.2,74.3 67.6,73.2 70.2,73.2 	"/>
	<polygon class="st2" points="74.3,74.3 71.6,74.3 70.9,73.2 73.5,73.2 	"/>
	<polygon class="st2" points="35.8,75.9 33,75.9 33.6,74.7 36.4,74.7 	"/>
	<polygon class="st2" points="39.4,75.9 36.5,75.9 37.1,74.7 39.8,74.7 	"/>
	<polygon class="st2" points="43,75.9 40.2,75.9 40.6,74.7 43.3,74.7 	"/>
	<polygon class="st2" points="46.6,75.9 43.7,75.9 44,74.7 46.8,74.7 	"/>
	<polygon class="st2" points="50.2,75.9 47.3,75.9 47.5,74.7 50.2,74.7 	"/>
	<polygon class="st2" points="53.8,75.9 50.9,75.9 51,74.7 53.7,74.7 	"/>
	<polygon class="st2" points="57.4,75.9 54.5,75.9 54.4,74.7 57.2,74.7 	"/>
	<polygon class="st2" points="61,75.9 58.1,75.9 57.9,74.7 60.6,74.7 	"/>
	<polygon class="st2" points="64.6,75.9 61.7,75.9 61.3,74.7 64.1,74.7 	"/>
	<polygon class="st2" points="68.2,75.9 65.3,75.9 64.8,74.7 67.6,74.7 	"/>
	<polygon class="st2" points="71.8,75.9 68.9,75.9 68.3,74.7 71,74.7 	"/>
	<polygon class="st2" points="75.3,75.9 72.5,75.9 71.8,74.7 74.5,74.7 	"/>
	<polygon class="st2" points="32.2,76 29.3,76 30.1,74.7 32.9,74.7 	"/>
	<polygon class="st2" points="28.6,76 25.7,76 26.7,74.7 29.4,74.7 	"/>
</g>
<path class="st0" d="M70.9,68.3H30.2c-0.7,0-1.2-0.5-1.2-1.2V42.1c0-0.7,0.5-1.2,1.2-1.2h40.8c0.7,0,1.2,0.5,1.2,1.2v25
	C72.2,67.8,71.6,68.3,70.9,68.3z"/>
<linearGradient id="SVGID_1_" gradientUnits="userSpaceOnUse" x1="40.3424" y1="29.4015" x2="60.8115" y2="64.8551" gradientTransform="matrix(1 0 0 -1 0 102)">
	<stop  offset="0.3935" style="stop-color:#A8E1FF"/>
	<stop  offset="1" style="stop-color:#DCFDFE"/>
</linearGradient>
<path class="st3" d="M70.6,66.8H30.6c-0.4,0-0.8-0.3-0.8-0.8l0-22.2c0-0.8,0.6-1.4,1.5-1.4l38.7,0.1c0.8,0,1.4,0.6,1.4,1.4v22.1
	C71.3,66.5,71,66.8,70.6,66.8z"/>
<linearGradient id="SVGID_00000161589506251854591110000014253649057209347241_" gradientUnits="userSpaceOnUse" x1="40.0847" y1="29.1848" x2="61.0253" y2="65.4552" gradientTransform="matrix(1 0 0 -1 0 102)">
	<stop  offset="0.3935" style="stop-color:#A8E1FF"/>
	<stop  offset="1" style="stop-color:#DCFDFE"/>
</linearGradient>
<rect x="29.8" y="42.5" style="fill:url(#SVGID_00000161589506251854591110000014253649057209347241_);" width="41.6" height="24.4"/>
<linearGradient id="SVGID_00000099650006423628675070000013105296114580977044_" gradientUnits="userSpaceOnUse" x1="30.56" y1="57.01" x2="43.31" y2="57.01" gradientTransform="matrix(1 0 0 -1 0 102)">
	<stop  offset="1.978731e-03" style="stop-color:#27B0FC"/>
	<stop  offset="1" style="stop-color:#63CEF9"/>
</linearGradient>
<polygon style="fill:url(#SVGID_00000099650006423628675070000013105296114580977044_);" points="43.3,46.6 30.6,46.6 30.6,43.3 
	43.3,43.4 "/>
<polygon class="st6" points="43.4,50.5 30.6,50.5 30.6,47.3 43.4,47.3 "/>
<polygon class="st6" points="43.4,54.5 30.6,54.4 30.6,51.2 43.4,51.2 "/>
<polygon class="st6" points="43.4,58.3 30.6,58.3 30.6,55.1 43.4,55.1 "/>
<polygon class="st6" points="43.4,62.3 30.6,62.2 30.6,59 43.4,59 "/>
<polygon class="st6" points="43.5,66.2 30.7,66.2 30.7,62.9 43.4,62.9 "/>
<linearGradient id="SVGID_00000029746030470335380980000008667138304595745188_" gradientUnits="userSpaceOnUse" x1="44.22" y1="56.97" x2="56.91" y2="56.97" gradientTransform="matrix(1 0 0 -1 0 102)">
	<stop  offset="1.978731e-03" style="stop-color:#27B0FC"/>
	<stop  offset="1" style="stop-color:#63CEF9"/>
</linearGradient>
<polygon style="fill:url(#SVGID_00000029746030470335380980000008667138304595745188_);" points="56.9,46.7 44.2,46.6 44.2,43.4 
	56.9,43.4 "/>
<polygon class="st6" points="57,50.6 44.3,50.5 44.3,47.3 57,47.3 "/>
<polygon class="st6" points="57,54.5 44.3,54.5 44.3,51.2 57,51.2 "/>
<polygon class="st6" points="57,58.4 44.3,58.4 44.3,55.1 57,55.1 "/>
<polygon class="st6" points="57,62.3 44.3,62.3 44.3,59 57,59 "/>
<rect x="44.4" y="62.9" class="st6" width="12.7" height="3.2"/>
<linearGradient id="SVGID_00000000225111847339114550000008580876491632325258_" gradientUnits="userSpaceOnUse" x1="57.83" y1="56.935" x2="70.47" y2="56.935" gradientTransform="matrix(1 0 0 -1 0 102)">
	<stop  offset="1.978731e-03" style="stop-color:#27B0FC"/>
	<stop  offset="1" style="stop-color:#63CEF9"/>
</linearGradient>
<polygon style="fill:url(#SVGID_00000000225111847339114550000008580876491632325258_);" points="70.5,46.7 57.8,46.7 57.8,43.4 
	70.5,43.5 "/>
<polygon class="st6" points="70.5,50.6 57.9,50.6 57.9,47.3 70.5,47.4 "/>
<polygon class="st6" points="70.5,54.5 57.9,54.5 57.9,51.2 70.5,51.3 "/>
<polygon class="st6" points="70.5,58.4 57.9,58.4 57.9,55.1 70.5,55.2 "/>
<rect x="57.9" y="59" class="st6" width="12.6" height="3.2"/>
<rect x="58" y="62.9" class="st6" width="12.6" height="3.2"/>
<path class="st9" d="M50.5,20.4l9.5,4.6c-1.7,3.5-5.3,5.8-9.2,5.9C45,31,40.1,26.4,40,20.6S44.5,10,50.2,9.9S60.8,14.4,61,20.2
	L50.5,20.4z"/>
<path class="st10" d="M50.5,20.4l9.3-4.8c1.8,3.5,1.5,7.7-0.8,10.9c-3.4,4.7-10,5.7-14.7,2.4s-5.7-10-2.4-14.7s10-5.7,14.7-2.4
	L50.5,20.4z"/>
<g>
	<circle class="st10" cx="79.8" cy="25" r="2.1"/>
	<path class="st10" d="M76.5,31.5c-0.6-1.2,0.7-4,3.1-4.1c2.4-0.1,3.9,2.7,3.4,3.9C82.3,33,77.3,33.2,76.5,31.5z"/>
	<circle class="st10" cx="90.7" cy="25" r="2.1"/>
	<path class="st10" d="M87.4,31.5c-0.6-1.2,0.7-4,3.1-4.1c2.4-0.1,3.9,2.7,3.4,3.9C93.3,33,88.2,33.2,87.4,31.5z"/>
	<circle class="st11" cx="85.2" cy="29.1" r="2.1"/>
	<path class="st11" d="M82,35.6c-0.6-1.2,0.7-4,3.1-4.1c2.4-0.1,3.9,2.7,3.4,3.9C87.8,37.1,82.8,37.3,82,35.6z"/>
</g>
<linearGradient id="SVGID_00000060744111151149187900000010657923105775906461_" gradientUnits="userSpaceOnUse" x1="77" y1="46.245" x2="98.56" y2="46.245" gradientTransform="matrix(1 0 0 -1 0 102)">
	<stop  offset="1.978731e-03" style="stop-color:#27B0FC"/>
	<stop  offset="1" style="stop-color:#63CEF9"/>
</linearGradient>
<rect x="77" y="47.5" style="fill:url(#SVGID_00000060744111151149187900000010657923105775906461_);" width="21.6" height="16.5"/>
<rect x="94.2" y="48.7" class="st6" width="2.2" height="14.5"/>
<rect x="91.1" y="51.6" class="st6" width="2.2" height="11.6"/>
<rect x="87.9" y="54.3" class="st6" width="2.2" height="8.9"/>
<rect x="84.7" y="56.7" class="st6" width="2.2" height="6.5"/>
<rect x="81.6" y="59.4" class="st6" width="2.2" height="3.8"/>
<rect x="78.4" y="61.8" class="st6" width="2.2" height="1.4"/>
<polyline class="st13" points="97.7,63.3 78,63.3 78,48.9 "/>
<g>
	<g>
		<polygon class="st14" points="24.7,18.1 11.8,18.1 9.7,20.4 9.7,40.8 24.7,40.8 		"/>
		<polygon class="st15" points="9.7,20.4 11.8,18.1 11.8,20.4 		"/>
	</g>
	<rect x="12.3" y="19" class="st16" width="11.6" height="0.5"/>
	<rect x="12.3" y="20" class="st16" width="9" height="0.5"/>
	<rect x="10.4" y="22.2" class="st16" width="13.6" height="0.5"/>
	<rect x="10.4" y="23.1" class="st16" width="10.4" height="0.5"/>
	<rect x="10.4" y="24.1" class="st16" width="13.6" height="0.5"/>
	<rect x="10.4" y="26.1" class="st16" width="13.6" height="0.5"/>
	<rect x="10.4" y="27" class="st16" width="13.6" height="0.5"/>
	<rect x="10.4" y="28" class="st16" width="8.2" height="0.5"/>
	<rect x="10.4" y="30.2" class="st16" width="13.6" height="0.5"/>
	<rect x="10.4" y="31.1" class="st16" width="10.4" height="0.5"/>
	<rect x="10.4" y="32.1" class="st16" width="8.7" height="0.5"/>
	<rect x="10.4" y="33.1" class="st16" width="13.6" height="0.5"/>
	<rect x="10.4" y="34" class="st16" width="10.4" height="0.5"/>
	<rect x="10.4" y="35" class="st16" width="13.6" height="0.5"/>
	<rect x="16.2" y="37.7" class="st16" width="7.7" height="0.5"/>
	<rect x="16.2" y="38.6" class="st16" width="5.9" height="0.5"/>
</g>
<g>
	<rect x="2.6" y="47" class="st0" width="21.4" height="18"/>
	
		<linearGradient id="SVGID_00000063603460139903410280000011027282031324840103_" gradientUnits="userSpaceOnUse" x1="3.43" y1="45.995" x2="22.95" y2="45.995" gradientTransform="matrix(1 0 0 -1 0 102)">
		<stop  offset="0.3935" style="stop-color:#A8E1FF"/>
		<stop  offset="1" style="stop-color:#DCFDFE"/>
	</linearGradient>
	<rect x="3.4" y="48" style="fill:url(#SVGID_00000063603460139903410280000011027282031324840103_);" width="19.5" height="16.1"/>
	<line class="st18" x1="5.9" y1="48.3" x2="5.9" y2="63.5"/>
	<line class="st18" x1="20.5" y1="48.3" x2="20.5" y2="63.5"/>
	<line class="st18" x1="8.8" y1="48.3" x2="8.8" y2="63.5"/>
	<line class="st18" x1="11.7" y1="48.3" x2="11.7" y2="63.5"/>
	<line class="st18" x1="14.6" y1="48.3" x2="14.6" y2="63.5"/>
	<line class="st18" x1="17.5" y1="48.3" x2="17.5" y2="63.5"/>
	<line class="st18" x1="3.4" y1="63.5" x2="23" y2="63.5"/>
	<line class="st18" x1="3.4" y1="48.5" x2="23" y2="48.5"/>
	<line class="st18" x1="3.4" y1="51" x2="23" y2="51"/>
	<line class="st18" x1="3.4" y1="53.5" x2="23" y2="53.5"/>
	<line class="st18" x1="3.4" y1="56" x2="23" y2="56"/>
	<line class="st18" x1="3.4" y1="61" x2="23" y2="61"/>
	<line class="st18" x1="3.4" y1="58.5" x2="23" y2="58.5"/>
	<ellipse class="st19" cx="6" cy="61" rx="0.3" ry="0.3"/>
	<ellipse class="st19" cx="8.8" cy="58.5" rx="0.3" ry="0.3"/>
	<ellipse class="st19" cx="11.7" cy="61" rx="0.3" ry="0.3"/>
	<ellipse class="st19" cx="14.7" cy="61" rx="0.3" ry="0.3"/>
	<ellipse class="st19" cx="17.5" cy="60.1" rx="0.3" ry="0.3"/>
	<ellipse class="st19" cx="20.4" cy="59.3" rx="0.3" ry="0.3"/>
	<polyline class="st20" points="6,61 8.8,58.5 11.7,61 14.7,61 17.5,60.1 20.4,59.3 	"/>
	<ellipse class="st21" cx="6" cy="58.5" rx="0.3" ry="0.3"/>
	<ellipse class="st21" cx="8.8" cy="56" rx="0.3" ry="0.3"/>
	<ellipse class="st21" cx="11.7" cy="54.7" rx="0.3" ry="0.3"/>
	<ellipse class="st21" cx="14.7" cy="53.5" rx="0.3" ry="0.3"/>
	<ellipse class="st21" cx="17.6" cy="51" rx="0.3" ry="0.3"/>
	<ellipse class="st21" cx="20.4" cy="49" rx="0.3" ry="0.3"/>
	<polyline class="st22" points="6,58.5 8.8,56 11.7,54.7 14.7,53.5 17.6,51 20.4,49 	"/>
</g>
<line class="st23" x1="50.6" y1="32.3" x2="50.6" y2="40"/>
<line class="st23" x1="74.8" y1="34.2" x2="69.6" y2="39.8"/>
<line class="st23" x1="26.8" y1="34" x2="31.6" y2="40"/>
<line class="st23" x1="73" y1="56" x2="76" y2="56"/>
<line class="st23" x1="25" y1="56" x2="28" y2="56"/>
</svg>
