<?xml version="1.0" encoding="utf-8"?>
<!-- Generator: Adobe Illustrator 26.0.1, SVG Export Plug-In . SVG Version: 6.00 Build 0)  -->
<svg version="1.1" id="Layer_1" xmlns="http://www.w3.org/2000/svg" xmlns:xlink="http://www.w3.org/1999/xlink" x="0px" y="0px"
	 viewBox="0 0 100 100" style="enable-background:new 0 0 100 100;" xml:space="preserve">
<style type="text/css">
	.st0{fill:#FFB99E;}
	.st1{fill:#336DFF;}
	.st2{fill:url(#SVGID_1_);}
	.st3{fill:url(#SVGID_00000163068757862457338630000004131176813669774722_);}
	.st4{fill:#F3FCFF;}
	.st5{fill:#48AE52;}
	.st6{fill:none;stroke:#48AE52;stroke-width:0.5;stroke-miterlimit:10;}
	.st7{fill:#FF5E33;}
	.st8{fill:none;stroke:#FF5E33;stroke-width:0.5;stroke-miterlimit:10;}
	.st9{fill:#011435;}
	.st10{fill:#7F4126;}
	.st11{fill:#97C1FF;}
	.st12{fill:#FFBA9F;}
	.st13{fill:#242528;}
	.st14{fill:#FFFFFF;}
	.st15{fill:none;stroke:#58595B;stroke-width:5.000000e-02;stroke-miterlimit:10;}
	.st16{fill:#414042;}
	.st17{fill:#190D08;}
	.st18{fill:#6EC0FF;}
	.st19{fill:#301A0F;}
</style>
<path class="st0" d="M83,16.8c0.3,0.5-0.4,0.9-0.2,2.1c0.1,0.6,0.4,1.4,1.1,2.1c0.4,0.4,0.5,0.3,0.5,0.5c0.3,0.7-1.1,1.4-2.2,3.1
	c-1.1,1.6-1.1,2.9-1.5,2.9c-0.5,0-0.4-1.3-1.6-3.2c-0.6-0.9-1-1.6-1.9-2.1c-0.6-0.4-1.2-0.5-1.2-0.8c0-0.2,0.5-0.3,1.1-0.8
	c0,0,0.9-0.7,1.2-1.8c0.3-1-0.2-1.3,0.1-1.8C79,15.7,82.5,15.6,83,16.8z"/>
<path class="st0" d="M80.1,18.6h1.4c1.6,0,2.9-1.3,2.9-2.9V10c0-1.6-1.3-2.9-2.9-2.9h-1.4c-1.6,0-2.9,1.3-2.9,2.9v5.7
	C77.2,17.3,78.5,18.6,80.1,18.6z"/>
<path d="M84.4,12.1c0.2-0.1,0.4-0.3,0.7-0.6c0.1-0.1,0.3-0.5,0.4-1c0.1-0.4,0-0.7,0-0.8c0-0.2-0.1-0.6-0.4-0.9
	c-0.1-0.1-0.3-0.4-0.6-0.4c-0.2,0-0.3,0-0.3,0c0,0-0.1-0.1-0.2,0c-0.2,0.1-0.2,0.4-0.1,0.5c0,0,0,0,0.1,0c0,0,0.1,0.1,0.1,0.1
	c0.4,1.6,0.5,3,0.5,3C84.3,11.9,84.4,12,84.4,12.1z"/>
<path class="st0" d="M84,11.8c0.1-0.1,0.3-0.3,0.6-0.3c0.1,0,0.4-0.1,0.6,0.1c0.1,0.1,0.1,0.3,0,0.6c-0.1,0.5-0.3,0.9-0.3,0.9
	c-0.2,0.3-0.3,0.5-0.5,0.6c-0.2,0.1-0.3,0.2-0.5,0.1C83.4,13.7,83.4,12.4,84,11.8z"/>
<path d="M84.5,5.1c0.1,0.1,0.7,0.4,0.9,1.1c0.1,0.4,0,0.8-0.1,1c0,0.1-0.1,0.5-0.4,0.8c-0.1,0.2-0.4,0.5-1,0.7
	c-0.3,0.1-0.6,0.1-0.9,0.1c-0.2,0-0.8,0-1.7-0.3c-0.5-0.1-0.6-0.2-0.9-0.2c-0.4,0-0.7,0.2-0.8,0.3c-0.4,0.2-0.4,0.3-0.6,0.5
	c-0.6,0.4-1.5,0.4-2-0.1c-0.2-0.2-0.2-0.4-0.3-0.5c-0.1-0.1-0.2-0.4-0.1-0.6c0.1-0.5,0.7-0.8,0.8-0.9c0.5-0.3,1.1-0.2,1.4-0.2
	c0.6,0.1,0.7,0.3,1.2,0.2c0.4-0.1,0.7-0.3,0.8-0.4c0.3-0.2,0.4-0.4,0.7-0.8c0.2-0.2,0.5-0.5,0.8-0.8C82.8,4.9,83.8,4.7,84.5,5.1z"/>
<path d="M77.4,12.1c-0.2-0.1-0.5-0.2-0.8-0.4c0,0,0,0,0,0c-0.8-0.6-0.8-1.5-0.8-1.5c0-0.6,0.2-1,0.3-1.1c0.2-0.3,0.6-0.8,0.9-0.7
	c0,0,0.2,0.1,0.2,0.5c0,0,0.1-0.1,0.2-0.1c0.2,0,0.2,0.3,0.2,0.4c0,0,0,0-0.1,0c0,0,0,0-0.1,0.1C77.4,9.6,77.4,11.9,77.4,12.1z"/>
<path class="st0" d="M77.5,11.8c-0.1-0.1-0.3-0.3-0.6-0.3c-0.1,0-0.4-0.1-0.6,0.1c-0.1,0.1-0.1,0.3,0,0.6c0.1,0.5,0.3,0.9,0.3,0.9
	c0.2,0.3,0.3,0.5,0.5,0.6c0.2,0.1,0.3,0.2,0.5,0.1C78.1,13.7,78.1,12.4,77.5,11.8z"/>
<path class="st1" d="M84.1,21.5l5.8,0.6l5.3,14.2c-1.9,3.4-3.8,6.8-5.6,10.3l-0.5-6.7l1.4-2.7L89.3,34l-5-6.4L84.1,21.5z"/>
<g>
	
		<linearGradient id="SVGID_1_" gradientUnits="userSpaceOnUse" x1="18.9219" y1="29.0448" x2="59.5162" y2="99.3563" gradientTransform="matrix(1 0 0 -1 0 102)">
		<stop  offset="0.3935" style="stop-color:#A8E1FF"/>
		<stop  offset="1" style="stop-color:#DCFDFE"/>
	</linearGradient>
	<path class="st2" d="M72.1,65.2h-66c-1.5,0-2.6-1.2-2.6-2.6V13.7c0-2.2,1.7-3.9,3.9-3.9h63.5c2.2,0,3.9,1.8,3.9,3.9v48.8
		C74.8,64,73.6,65.2,72.1,65.2z"/>
	
		<linearGradient id="SVGID_00000094599293152487851320000012733477533969866122_" gradientUnits="userSpaceOnUse" x1="3.49" y1="89.705" x2="74.78" y2="89.705" gradientTransform="matrix(1 0 0 -1 0 102)">
		<stop  offset="1.978731e-03" style="stop-color:#27B0FC"/>
		<stop  offset="1" style="stop-color:#63CEF9"/>
	</linearGradient>
	<path style="fill:url(#SVGID_00000094599293152487851320000012733477533969866122_);" d="M74.8,15.7H3.5v-4.2
		c0-1.5,1.2-2.6,2.6-2.6h66c1.5,0,2.6,1.2,2.6,2.6L74.8,15.7L74.8,15.7z"/>
	<rect x="6.6" y="24.1" class="st4" width="27.3" height="1.5"/>
	<rect x="6.3" y="18" class="st4" width="37.3" height="2.6"/>
	<rect x="6.6" y="26.7" class="st4" width="27.2" height="1.5"/>
	<rect x="18.7" y="53.5" class="st4" width="53.4" height="1.5"/>
	<rect x="16" y="56.2" class="st4" width="56.1" height="1.5"/>
	<rect x="11.1" y="58.8" class="st4" width="61.1" height="1.5"/>
	<ellipse class="st5" cx="9" cy="48.2" rx="0.9" ry="0.9"/>
	<ellipse class="st5" cx="19" cy="40.2" rx="1" ry="0.9"/>
	<ellipse class="st5" cx="29.8" cy="35.8" rx="1" ry="0.9"/>
	<ellipse class="st5" cx="40.5" cy="32.1" rx="1" ry="0.9"/>
	<ellipse class="st5" cx="51.2" cy="24.1" rx="1" ry="0.9"/>
	<ellipse class="st5" cx="61.3" cy="17.9" rx="1" ry="0.9"/>
	<polyline class="st6" points="9,48.2 19,40.2 29.8,35.8 40.5,32.1 51.2,24.1 61.3,17.9 	"/>
	<ellipse class="st7" cx="9.1" cy="51.2" rx="0.9" ry="0.9"/>
	<ellipse class="st7" cx="19.2" cy="49.2" rx="1" ry="0.9"/>
	<ellipse class="st7" cx="30.3" cy="47.2" rx="1" ry="0.9"/>
	<ellipse class="st7" cx="41.4" cy="47.2" rx="1" ry="0.9"/>
	<ellipse class="st7" cx="51.7" cy="45.2" rx="1" ry="0.9"/>
	<ellipse class="st7" cx="62.3" cy="44.6" rx="1" ry="0.9"/>
	<polyline class="st8" points="9.1,51.2 19.2,49.2 30.3,47.2 41.4,47.2 51.7,45.2 62.3,44.6 	"/>
</g>
<path class="st0" d="M41.8,61.4c0.3,0.7-0.5,1.2-0.3,2.7c0.1,0.8,0.6,1.9,1.3,2.7c0.5,0.5,0.6,0.4,0.7,0.7c0.3,1-1.4,1.9-2.8,4.1
	c-1.4,2.2-1.4,3.8-2,3.8c-0.6,0-0.5-1.7-2-4.2c-0.7-1.2-1.3-2.1-2.4-2.7c-0.8-0.5-1.6-0.6-1.6-1c0-0.3,0.6-0.4,1.4-1
	c0,0,1.2-1,1.5-2.4c0.3-1.3-0.2-1.7,0.1-2.4C36.7,60,41.1,59.9,41.8,61.4z"/>
<ellipse cx="39" cy="54.8" rx="7.8" ry="8.2"/>
<path class="st9" d="M22.1,78.9c1.1-3,2.3-5.9,3.4-8.9l8.1-3.1l9.2-0.1L51,70l3.2,8.7c-0.1,0.1-0.3,0.1-0.6,0.2
	c-1.5,0.5-5.6,1.7-15.2,1.8c-10.1,0.1-14.3-1.1-15.8-1.6C22.5,79.1,22.3,79,22.1,78.9z"/>
<polygon class="st0" points="55.5,26.8 53.7,24.9 52.5,25.2 44.7,25.1 52.2,27.1 54.4,28.1 "/>
<path class="st0" d="M53.1,68.9c0.3,0.7-0.5,1.2-0.3,2.7c0.1,0.8,0.6,1.9,1.3,2.7c0.5,0.5,0.6,0.4,0.7,0.7c0.3,1-1.4,1.9-2.8,4.1
	c-1.4,2.2-1.4,3.8-2,3.8c-0.6,0-0.5-1.7-2-4.2c-0.7-1.2-1.3-2.1-2.4-2.7c-0.8-0.5-1.6-0.6-1.6-1c0-0.3,0.6-0.4,1.4-1
	c0,0,1.2-1,1.5-2.4c0.3-1.3-0.2-1.7,0.1-2.4C47.9,67.5,52.3,67.4,53.1,68.9z"/>
<ellipse class="st10" cx="50.3" cy="62.2" rx="7.8" ry="8.2"/>
<path class="st11" d="M33.4,86.4c1.2-3,2.3-5.9,3.4-8.9l8.1-3.1l9.2-0.1l8.2,3.2l3.2,8.7c-0.1,0.1-0.3,0.1-0.6,0.2
	c-1.5,0.5-5.6,1.7-15.2,1.8c-10.1,0.1-14.3-1.1-15.8-1.6C33.7,86.5,33.5,86.4,33.4,86.4z"/>
<path class="st1" d="M76.8,21c-2.4,0-4.7-0.1-7.1-0.1L65,32.8l-9.3-6.4L54,28.3l11.6,10.5l6.3-9.1l0.7,19h17L89.5,23
	c0.1-0.3,0.3-0.6,0.4-1c-1.9-0.3-3.8-0.6-5.6-0.9c-1.2,1.6-2.3,3.1-3.4,4.7C79.5,24.3,78.1,22.6,76.8,21z"/>
<path class="st12" d="M65.5,92c-0.3,0.8-0.5,1.6-0.8,2.4c0.7,0,1.4,0.1,2.2,0.1c0.3-0.9,0.6-1.8,0.9-2.7
	C66.9,91.9,66.2,91.9,65.5,92z"/>
<polygon class="st13" points="64.6,94.4 62.7,95.7 55.6,97.9 65.7,97.9 66.6,97.9 66.9,96.1 66.9,94.4 "/>
<path class="st0" d="M90.6,93.2c0,0.5,0,1.1,0,1.6c-0.7,0.3-1.5,0.5-2.2,0.8c-0.1-0.9-0.1-1.8-0.2-2.6
	C88.9,93.1,89.7,93.2,90.6,93.2z"/>
<polygon class="st9" points="89.7,48.2 90.3,70.8 91.3,93.9 87.6,93.9 85.5,74.1 81.1,51.1 75.7,67.7 73.7,73.4 68.1,93.4 
	63.9,93.4 68.6,73.9 72.4,48.2 "/>
<path class="st14" d="M82.1,16h-2.6c0.1,0.1,0.5,0.9,1.3,0.9C81.6,16.9,82,16.1,82.1,16z"/>
<polyline class="st15" points="81,13.2 81.3,14.3 80.8,14.9 "/>
<circle class="st16" cx="79.2" cy="12.5" r="0.2"/>
<circle class="st16" cx="82.4" cy="12.5" r="0.2"/>
<g>
	<g>
		<path class="st16" d="M89.7,30.5c0.2,4.7,0.2,9.5-0.2,14.2C89.3,40,89.3,35.2,89.7,30.5L89.7,30.5z"/>
	</g>
	<g>
		<path class="st16" d="M89.6,35c0.5,0.7,0.9,1.5,1.3,2.3c-0.4,0.7-0.8,1.3-1.4,2c0.2-0.7,0.6-1.4,1-2.1l0,0.2
			C90.2,36.5,89.8,35.8,89.6,35L89.6,35z"/>
	</g>
	<g>
		<path class="st16" d="M72.2,29.3c-2.2,3.3-4.4,6.5-6.7,9.7c-2-1.8-3.9-3.6-5.9-5.4c-1.9-1.8-3.8-3.5-5.7-5.4
			c2,1.7,3.9,3.4,5.9,5.1c1.9,1.7,3.9,3.5,5.8,5.2l-0.3,0C67.6,35.5,69.8,32.4,72.2,29.3L72.2,29.3z"/>
	</g>
	<g>
		<path class="st16" d="M84.4,12.9c0.5,3,0.4,5.7-3.3,5.7C84.6,17.8,84.2,15.9,84.4,12.9L84.4,12.9z"/>
	</g>
	<g>
		<path class="st16" d="M55.5,26.6c-0.7-0.5-1.3-1.1-1.9-1.6l0.1,0c-0.4,0.1-0.7,0.3-1.1,0.4c-1.3,0-2.6,0-3.9-0.1
			c-1.3,0-2.6-0.1-3.9-0.2c2.6-0.2,5.2-0.1,7.8-0.1c0.1-0.1,0.8-0.2,1.1-0.3C54.3,25.3,54.9,26,55.5,26.6L55.5,26.6z"/>
	</g>
	<g>
		<path class="st16" d="M84.3,21.2c1.9,0.1,3.9,0.4,5.8,0.7c0.4,1.1,0.8,2.3,1.3,3.5c0.4,1.1,0.8,2.2,1.1,3.4
			c-0.5-1.1-0.9-2.2-1.4-3.3c-0.4-1.1-0.9-2.2-1.3-3.3l0.2,0.1C88,22,86.1,21.6,84.3,21.2L84.3,21.2z"/>
	</g>
</g>
<polygon class="st13" points="90.5,94.5 92.5,95.8 99.6,98 89.4,98 88.6,98 88.2,96.2 88.2,94.5 "/>
<path class="st0" d="M19.3,68.2c0.4,0.7-0.5,1.2-0.3,2.7c0.1,0.8,0.6,1.9,1.3,2.7c0.5,0.5,0.6,0.4,0.7,0.7c0.3,1-1.4,1.9-2.8,4.1
	c-1.4,2.2-1.4,3.8-2,3.8c-0.6,0-0.5-1.7-2-4.2c-0.7-1.2-1.3-2.1-2.4-2.7c-0.8-0.5-1.6-0.6-1.6-1c0-0.3,0.6-0.4,1.4-1
	c0.1,0,1.2-1,1.6-2.4c0.3-1.3-0.2-1.7,0.1-2.4C14.1,66.8,18.5,66.7,19.3,68.2z"/>
<ellipse class="st17" cx="16.5" cy="61.6" rx="7.8" ry="8.2"/>
<path class="st18" d="M1,85.7c1.1-3.1,2.2-6.2,3.3-9.3l7.7-3.3l8.8-0.1l7.8,3.3l3.1,9.1c-0.1,0.1-0.3,0.1-0.6,0.2
	c-1.5,0.5-5.4,1.8-14.5,1.9C7,87.7,3,86.4,1.6,85.9C1.3,85.8,1.1,85.7,1,85.7z"/>
<path class="st17" d="M18.9,67.7c0.9,4.8,1.4,8.9,0,9.5c-0.6,0.2-1.2-0.4-2.9-0.4c-1.8,0-2.4,0.8-3.1,0.6c-1.4-0.5-0.9-4.7,0-9.7
	c1.3-7.2,1.9-10.7,3-10.7C16.9,57,17.5,60.6,18.9,67.7z"/>
<path class="st0" d="M33.2,73.3c0.3,0.7-0.5,1.2-0.3,2.7c0.1,0.8,0.6,1.9,1.3,2.7c0.5,0.5,0.6,0.4,0.7,0.7c0.3,1-1.4,1.9-2.8,4.1
	c-1.4,2.2-1.4,3.8-2,3.8c-0.6,0-0.5-1.7-2-4.2c-0.7-1.2-1.3-2.1-2.4-2.7c-0.8-0.5-1.6-0.6-1.6-1c0-0.3,0.6-0.4,1.4-1
	c0,0,1.2-1,1.5-2.4c0.3-1.3-0.2-1.7,0.1-2.4C28,71.9,32.5,71.8,33.2,73.3z"/>
<ellipse class="st19" cx="30.4" cy="66.6" rx="7.8" ry="8.2"/>
<path class="st9" d="M13.5,90.8c1.1-3,2.3-5.9,3.4-8.9l8.1-3.1l9.2-0.1l8.2,3.2l3.2,8.7c-0.1,0.1-0.3,0.1-0.6,0.2
	c-1.5,0.5-5.6,1.7-15.2,1.8c-10.1,0.1-14.3-1.1-15.8-1.6C13.8,90.9,13.6,90.8,13.5,90.8z"/>
<g>
	<path class="st16" d="M11.7,73.3c-2.4,1.1-4.9,2.2-7.4,3.2l0.1-0.1c-0.5,1.6-1.1,3.1-1.7,4.7c-0.6,1.5-1.2,3.1-1.8,4.6
		c0.5-1.6,1-3.2,1.5-4.7c0.5-1.6,1.1-3.2,1.7-4.8C6.7,75.2,9.2,74.2,11.7,73.3L11.7,73.3z"/>
</g>
<g>
	<path class="st16" d="M44.9,74.4c-2.6,1.2-5.3,2.3-8,3.2l0.1-0.1c-0.3,0.6-0.6,1.2-1,1.8c0.2-0.7,0.5-1.3,0.8-2l0,0
		C39.4,76.2,42.1,75.2,44.9,74.4L44.9,74.4z"/>
</g>
<g>
	<path class="st16" d="M54.1,74.3c2.8,0.9,5.6,2,8.3,3c0.5,1.5,1.1,3,1.6,4.4c0.5,1.5,1,2.9,1.5,4.4c-0.6-1.4-1.2-2.8-1.8-4.3
		c-0.6-1.4-1.1-2.9-1.7-4.3l0.1,0.1C59.5,76.6,56.8,75.5,54.1,74.3L54.1,74.3z"/>
</g>
</svg>
