<?xml version="1.0" encoding="utf-8"?>
<!-- Generator: Adobe Illustrator 26.0.1, SVG Export Plug-In . SVG Version: 6.00 Build 0)  -->
<svg version="1.1" id="Layer_1" xmlns="http://www.w3.org/2000/svg" xmlns:xlink="http://www.w3.org/1999/xlink" x="0px" y="0px"
	 viewBox="0 0 100 100" style="enable-background:new 0 0 100 100;" xml:space="preserve">
<style type="text/css">
	.st0{fill:#FFBA9F;}
	.st1{fill:#336DFF;}
	.st2{fill:#011435;}
	.st3{fill:#242528;}
	.st4{fill:#FFFFFF;}
	.st5{fill:#414042;}
	.st6{fill:#FFE876;}
	.st7{fill:#7F91B2;}
	.st8{fill:none;stroke:#F15A24;stroke-width:0.4;stroke-miterlimit:10;}
	.st9{opacity:0.39;fill:#F7931E;enable-background:new    ;}
	.st10{fill:#FFF3C0;}
	.st11{fill:none;}
	.st12{fill:none;stroke:#58595B;stroke-width:5.000000e-02;stroke-miterlimit:10;}
	.st13{fill:url(#SVGID_1_);}
	.st14{fill:url(#SVGID_00000077310223102245829830000004939821820656779137_);}
	.st15{fill:url(#SVGID_00000031165876989259951260000005551202980093833917_);}
	.st16{fill:url(#SVGID_00000044892657477677402840000005060029849212188550_);}
	.st17{fill:url(#SVGID_00000021119348348138485850000007731463826684108965_);}
	.st18{fill:url(#SVGID_00000057848259208635781450000011304132290378526116_);}
	.st19{fill:url(#SVGID_00000070103293564800910970000008471995894767876774_);}
	.st20{fill:none;stroke:#0071BC;stroke-width:0.3;stroke-miterlimit:10;}
	.st21{fill:#F15A24;}
</style>
<path class="st0" d="M19,24.4c-0.8-0.1-1.5-0.3-2.3-0.4c-0.4-0.6-0.8-1.7-1.2-3c-0.5-1.7-0.8-2.9-0.3-4.2c0.5-1.4,1.8-2.2,2.6-2.6
	H19c1.4,0,2.6,1.1,2.6,2.6c0.1,1.4,0.2,2.7,0.3,4c0,0.2,0.1,1.8-1.1,2.8C20.1,24.3,19.3,24.4,19,24.4z"/>
<path class="st0" d="M16.4,22.8c-0.2,0.5,0.4,0.8,0.2,1.8c-0.1,0.6-0.4,1.3-0.9,1.8c-0.3,0.3-0.4,0.3-0.5,0.5c-0.2,0.6,1,1.3,2,2.8
	c1,1.5,1,2.6,1.4,2.5c0.4,0,0.3-1.2,1.4-2.8c0.5-0.8,0.9-1.4,1.6-1.8c0.6-0.3,1.1-0.4,1.1-0.7c0-0.2-0.5-0.2-1-0.7
	c0,0-0.8-0.6-1.1-1.6c-0.2-0.9,0.2-1.1-0.1-1.6C19.9,21.9,16.9,21.8,16.4,22.8z"/>
<path d="M15.2,18.7c-0.2-0.1-0.4-0.3-0.6-0.5c-0.1-0.1-0.3-0.4-0.4-0.9c-0.1-0.4,0-0.6,0-0.7c0-0.2,0.1-0.5,0.4-0.8
	c0.1-0.1,0.3-0.3,0.6-0.4c0.1,0,0.2,0,0.3,0c0,0,0.1-0.1,0.2,0c0.2,0.1,0.1,0.4,0.1,0.4c0,0,0,0-0.1,0c0,0-0.1,0.1-0.1,0.1
	c-0.4,1.4-0.4,2.6-0.4,2.6C15.2,18.5,15.2,18.6,15.2,18.7z"/>
<path d="M16.1,18.1c-0.2,0.4-0.5,0.9-0.6,1.4c-0.1,0.5-0.3,1.5,0.4,3c-0.2-0.1-0.4-0.3-0.6-0.6c-0.1-0.2-0.4-0.5-0.6-1
	c-0.4-1-1.1-2.5-0.6-4.2c0.1-0.2,0.4-1.4,1-1.4c0.5,0,0.9,1,1.6,1c0.3,0,0.5-0.3,0.6-0.2C17.4,16.2,16.7,16.9,16.1,18.1z"/>
<path d="M25,15c0.1,1.3-1.2,2.4-2.4,2.5c-1.1,0.1-1.5-1-3-1c-0.3,0-1.2,0-2,0.6c-0.8,0.6-1.2,1.6-1.4,2c-0.3,0.7-0.2,1-0.4,1
	c-0.5,0.1-2.1-1.7-1.8-3.4c0.3-1.6,2.5-2.9,4.2-2.8c1,0,1.8,0.5,2.8,0c0.6-0.3,0.6-0.6,1.1-0.7C23.2,12.9,24.9,13.7,25,15z"/>
<path class="st0" d="M15.7,19.7c-0.1-0.1-0.2-0.2-0.5-0.3c-0.1,0-0.4-0.1-0.5,0.1c-0.1,0.1-0.1,0.2,0,0.5c0.1,0.5,0.3,0.8,0.3,0.8
	c0.1,0.2,0.2,0.4,0.5,0.5c0.1,0.1,0.3,0.2,0.4,0.1C16.2,21.3,16.2,20.2,15.7,19.7z"/>
<path class="st1" d="M15.4,27l-5.2,0.5c-2.2,4.9-4.4,9.8-6.6,14.7c6.1-1.1,12.1-2.1,18.2-3.2c-0.1-0.6-0.1-1.2-0.2-1.8
	c-3.5,0.3-6.9,0.5-10.4,0.8c1.3-1.8,2.6-3.7,3.9-5.5L15.4,27z"/>
<polygon class="st0" points="40.7,31.7 42.3,30 43.4,30.3 50.3,30.3 43.7,32 41.7,32.8 "/>
<path class="st1" d="M21.9,26.6c2.1,0,4.2-0.1,6.3-0.1L32.4,37l8.3-5.6l1.5,1.6l-10.3,9.3l-5.6-8.1l-0.6,16.8H10.5l0.1-22.7
	c-0.1-0.3-0.2-0.6-0.4-0.9c1.7-0.2,3.3-0.5,5-0.8c1,1.4,2,2.8,3.1,4.2C19.5,29.5,20.7,28,21.9,26.6z"/>
<polygon class="st0" points="32.2,90.7 32.6,93.4 30.9,93.7 30.1,90.5 "/>
<polygon class="st0" points="9.6,90.8 9.4,93.5 11.2,93.7 11.7,90.4 "/>
<polygon class="st2" points="10.5,50.7 9.9,70.7 9.1,91.2 12.3,91.2 14.2,73.6 18.1,53.3 22.8,67.9 24.6,73 29.6,90.7 33.3,90.8 
	29.1,73.4 25.7,50.7 "/>
<polygon class="st3" points="9.4,93.5 7.5,95.1 0.4,98 10.5,98 11.4,98 11.7,95.7 11.7,93.5 "/>
<polygon class="st3" points="32.8,93.3 34.8,95 41.8,98 31.7,98 30.9,98 30.5,95.6 30.5,93.3 "/>
<path class="st4" d="M19.2,22.5h2.3c-0.1,0.1-0.5,0.8-1.1,0.8C19.6,23.3,19.2,22.6,19.2,22.5z"/>
<circle class="st5" cx="20.1" cy="19.9" r="0.2"/>
<g>
	<path class="st5" d="M24.1,38.3c-6.6,1.5-13.6,2.9-20.4,3.8C10.3,40.7,17.5,39.3,24.1,38.3L24.1,38.3z"/>
</g>
<g>
	<path class="st5" d="M13,34.3c-0.6,1.1-1.2,2.2-1.9,3.3L11,37.4c2.3-0.3,4.6-0.5,6.9-0.8c2.3-0.2,4.6-0.4,6.9-0.5
		c-2.3,0.3-4.6,0.6-6.9,0.9c-2.4,0.3-4.8,0.5-7.2,0.7C11.4,36.5,12.2,35.4,13,34.3L13,34.3z"/>
</g>
<g>
	<path class="st5" d="M26,33.9c2.1,2.7,4.1,5.5,6.1,8.3l-0.3,0c1.7-1.6,3.4-3.1,5.1-4.6c1.7-1.5,3.5-3,5.2-4.5
		c-1.6,1.6-3.3,3.2-5,4.8c-1.8,1.6-3.5,3.2-5.2,4.8C29.9,39.7,27.9,36.9,26,33.9L26,33.9z"/>
</g>
<g>
	<path class="st5" d="M15.5,20.5c0,1.9,1.2,3.6,3,4C16.5,24.5,15,22.4,15.5,20.5L15.5,20.5z"/>
</g>
<g>
	<path class="st5" d="M40.8,31.6c0.5-0.6,1-1.1,1.5-1.7c0.4,0.1,0.7,0.2,1.1,0.3l0,0c2.3-0.1,4.6-0.1,6.9,0.1
		c-2.3,0.2-4.6,0.3-6.9,0.3c-0.3-0.1-0.7-0.2-1-0.3l0.1,0C41.9,30.6,41.4,31.1,40.8,31.6L40.8,31.6z"/>
</g>
<g>
	<path class="st5" d="M15.3,26.8c-0.8,0.2-1.6,0.4-2.5,0.6c-0.8,0.2-1.7,0.3-2.5,0.4l0.1-0.1c-0.3,0.6-0.6,1.3-0.9,1.9
		c0.2-0.7,0.4-1.4,0.6-2l0-0.1l0.1,0c0.8-0.1,1.7-0.3,2.5-0.4C13.6,26.9,14.4,26.8,15.3,26.8z"/>
</g>
<polygon class="st0" points="21.5,19.9 22.5,21 21.7,21.9 "/>
<polygon class="st0" points="24.6,36.2 26.7,35 27.6,35.5 34.3,37.2 27.4,37.2 25.3,37.5 "/>
<g>
	<circle class="st6" cx="46.1" cy="15.5" r="7.8"/>
	<ellipse class="st7" cx="46.2" cy="24.8" rx="3.2" ry="1.8"/>
	<ellipse class="st7" cx="46.2" cy="25.8" rx="2.9" ry="1.8"/>
	<ellipse class="st6" cx="46.1" cy="21.9" rx="3.6" ry="2.4"/>
	<path class="st8" d="M46.4,22.2l0.5-3.4c0-0.2,0.1-0.6,0.3-1c0.6-0.9,2.1-0.9,2.3-0.3c0.2,0.5-0.3,1.3-0.9,1.8
		c-1.2,1.1-3.5,1.2-4.7,0.2c-0.7-0.6-1.2-1.7-0.8-2.1c0.3-0.4,1.5-0.2,2.1,0.5c0.2,0.3,0.3,0.6,0.4,0.9c0.1,1.2,0.2,2.3,0.4,3.5"/>
	<path class="st9" d="M39.4,16.2c0.4,0.4,3,2.9,7,2.7c3.5-0.1,5.7-2.2,6.2-2.7c0.1,0.5,0.2,1.2,0,2.1c-0.6,2.6-3.3,4.7-6.2,4.8
		c-3,0.1-5.8-1.8-6.7-4.3C39.3,17.7,39.3,16.8,39.4,16.2z"/>
	<ellipse class="st7" cx="46.1" cy="23.7" rx="3.6" ry="1.8"/>
	<path class="st10" d="M47.2,8.5c0.5,0.1,3.5,0.6,5.1,3.2c0.7,1.2,0.9,2.3,1,3c-0.1-0.7-0.5-2.2-1.9-3.5C49,9,46,9.4,45.6,9.5
		L47.2,8.5z"/>
	<ellipse class="st11" cx="46.5" cy="21.8" rx="3.6" ry="2.4"/>
	<ellipse class="st11" cx="46.5" cy="21.8" rx="3.6" ry="2.4"/>
	<polygon class="st6" points="47.3,7.4 50.5,3.7 50.8,4.2 	"/>
	<polygon class="st6" points="49.2,7.8 54,7 53.9,7.6 	"/>
	<polygon class="st6" points="45.7,7.3 45.3,2.5 45.8,2.6 	"/>
	<polygon class="st6" points="43.8,7.3 40.2,4.2 40.6,3.8 	"/>
	<polygon class="st6" points="41.8,7.9 37,7.9 37.1,7.4 	"/>
</g>
<g>
	<path class="st5" d="M24.8,36.1c0.6-0.5,1.3-0.9,1.9-1.3c0.3,0.2,0.9,0.5,1,0.5c2.3,0.5,4.5,1.1,6.7,1.9c-2.3-0.4-4.5-0.9-6.8-1.5
		c-0.3-0.2-0.6-0.4-0.9-0.6h0.1C26.1,35.5,25.4,35.8,24.8,36.1L24.8,36.1z"/>
</g>
<path d="M83.8,24.9c-0.4,0.8-0.7,1.6-0.4,2.4c0.3,0.8,1.3,1.1,2.4,1.4c1.8,0.5,3.2,0.3,5.8,0c1.2-0.1,1.6-0.3,1.8-0.6
	c0.7-0.9-0.1-2.6-0.6-3.4c-0.5-0.8-1.1-1.2-1.6-1.6c-1.3-1-2.7-1.9-4.2-1.6C85.2,21.9,84.3,23.8,83.8,24.9z"/>
<path class="st0" d="M79.2,60.1c-0.1,11.3-0.3,22.6-0.4,33.8c0.6,0.1,1.2,0.1,1.8,0.2c1.6-11.9,3.2-23.8,4.8-35.6
	C83.4,59,81.3,59.6,79.2,60.1z"/>
<path class="st0" d="M93,60.1c0.1,11.3,0.3,22.6,0.4,33.8c-0.6,0.1-1.2,0.1-1.8,0.2c-1.6-11.9-3.2-23.8-4.8-35.6
	C88.8,59,90.9,59.6,93,60.1z"/>
<path class="st3" d="M93.4,93.9c0.5,0.8,0.9,1.6,1.4,2.4c1.4,0.7,2.8,1.5,4.2,2.2c-2.3-0.1-4.5-0.1-6.8-0.2h-0.8l-0.3-2.2
	c0.2-0.7,0.3-1.3,0.5-2C92.2,94.1,92.8,94,93.4,93.9z"/>
<path class="st0" d="M85.4,25.5c-0.2,0.5,0.3,0.8,0.2,1.8c-0.1,0.5-0.3,1.2-0.8,1.8c-0.2,0.3-0.3,0.3-0.4,0.5
	c-0.2,0.6,0.8,1.2,1.6,2.7c0.8,1.4,0.8,2.5,1.1,2.5c0.3,0,0.3-1.1,1.1-2.7c0.4-0.8,0.7-1.4,1.3-1.8c0.4-0.3,0.9-0.4,0.9-0.7
	c0-0.2-0.4-0.2-0.8-0.6c0,0-0.7-0.6-0.9-1.6c-0.2-0.8,0.1-1.1-0.1-1.6C88.3,24.6,85.8,24.5,85.4,25.5z"/>
<path class="st2" d="M80.1,47.7c-0.7,5.2-1.5,10.4-2.2,15.6c5.3,0.1,10.7,0.1,16,0.2c-0.6-5.2-1.2-10.4-1.8-15.6
	C88,47.8,84,47.8,80.1,47.7z"/>
<path class="st0" d="M88.1,27h-1.1c-1.4,0-2.5-1.1-2.5-2.5v-5c0-1.4,1.1-2.5,2.5-2.5h1.1c1.4,0,2.5,1.1,2.5,2.5v5
	C90.5,25.9,89.4,27,88.1,27z"/>
<path class="st0" d="M84.8,21.3c-0.1-0.1-0.2-0.2-0.5-0.3c-0.1,0-0.3-0.1-0.5,0.1c-0.1,0.1-0.1,0.2,0,0.5c0.1,0.4,0.2,0.7,0.3,0.8
	c0.1,0.2,0.2,0.4,0.4,0.5c0.1,0.1,0.3,0.2,0.4,0.1C85.2,22.9,85.3,21.8,84.8,21.3z"/>
<path class="st1" d="M90.2,29.3c1.7,0.8,3.3,1.6,5,2.4c-1.6,3.7-3.2,7.3-4.8,11c0.5,1.7,1.1,3.5,1.6,5.2c-4-0.1-8-0.1-12-0.2
	c0.7-1.7,1.3-3.5,2-5.2c-0.7-4.1-1.5-8.1-2.2-12.2c1.6-0.3,3.2-0.7,4.8-1c0.8,1,1.6,2,2.4,3C88.1,31.3,89.2,30.3,90.2,29.3z"/>
<path class="st0" d="M90.2,21.3c0.1-0.1,0.2-0.2,0.5-0.3c0.1,0,0.3-0.1,0.5,0.1c0.1,0.1,0.1,0.2,0,0.5c-0.1,0.4-0.2,0.7-0.3,0.8
	c-0.1,0.2-0.2,0.4-0.4,0.5C90.4,23,90.2,23,90.1,23C89.8,22.9,89.7,21.8,90.2,21.3z"/>
<path class="st0" d="M79.8,47.1c0.6,0.6,1.1,1.2,1.7,1.8L81,49.4l-1.5,4.4l-0.1-4.8c0-0.4,0.1-0.8,0.1-1.2
	C79.7,47.6,79.8,47.4,79.8,47.1z"/>
<path class="st1" d="M84.7,29.7c-1.6,0.2-3.2,0.4-4.9,0.5c-2.2,3.7-4.4,7.5-6.6,11.2c2.1,2.7,4.1,5.5,6.2,8.2
	c0.2-0.8,0.4-1.6,0.6-2.4c-1.1-2-2.3-4-3.4-6c1.9-1.9,4.1-4.4,6-7.6C83.5,32.3,84.2,31,84.7,29.7z"/>
<path class="st3" d="M78.8,93.9c-0.5,0.8-0.9,1.6-1.4,2.4c-1.4,0.7-2.8,1.5-4.2,2.2c2.3-0.1,4.5-0.1,6.8-0.2h0.8l0.3-2.2
	c-0.2-0.7-0.3-1.3-0.5-2C80.1,94.1,79.4,94,78.8,93.9z"/>
<path class="st4" d="M85.4,25.3h2.2c-0.1,0-0.4,0.4-1.1,0.4C85.8,25.7,85.4,25.3,85.4,25.3z"/>
<polyline class="st12" points="85.9,23 85.6,24 86.1,24.5 "/>
<ellipse class="st5" cx="87.2" cy="22.6" rx="0.2" ry="0.2"/>
<ellipse class="st5" cx="85.1" cy="22.6" rx="0.2" ry="0.2"/>
<g>
	<path class="st5" d="M84.4,22.1c0.1,1,0,2.2,0.3,3.2c0.4,1,1.4,1.6,2.4,1.8C84.2,27.1,84,24.5,84.4,22.1L84.4,22.1z"/>
</g>
<g>
	<path class="st5" d="M84.5,29.3c-1.7,0.5-3.3,1-5,1.4l0.1-0.1c-0.8,1.5-1.6,3-2.5,4.5c-0.8,1.5-1.7,3-2.7,4.4
		c0.8-1.5,1.5-3.1,2.3-4.6c0.8-1.5,1.6-3,2.5-4.5l0-0.1l0.1,0C81.1,30,82.8,29.6,84.5,29.3z"/>
</g>
<path d="M86.2,19.7c0.3,0,0.6,0,1,0.2c0.3,0.1,1.4,0.5,2,1.6c0.3,0.5,0.3,0.9,0.4,1.8c0.2,1.6,0.2,3.8,0.2,3.8c0,0.2,0,0.5,0.2,0.8
	c0.4,0.5,1.1,0.6,1.6,0.6c0.6,0,1.4,0.1,1.8-0.4c0.3-0.4,0.2-0.9,0-2c-0.1-0.4-0.2-0.7-0.2-1c-0.2-0.8-0.5-1.4-0.6-1.6
	c-0.7-1.7-0.2-2.5-0.8-3.8c-0.7-1.5-2-2.1-2.2-2.2c-1.4-0.7-3.5-0.7-4.8,0.4c-1.8,1.5-0.6,4.1-1.8,7c-0.1,0.2-0.4,0.9-0.2,1.6
	c0.2,0.9,0.9,1.3,1,1.4c0.1,0,0.9,0.6,1.2,0.4c0.2-0.2,0-0.7-0.2-1.4c-0.4-1.3-0.4-2.3-0.4-3.4c0-1.1,0-1.8,0.4-2.6
	C85,20.6,85.4,19.8,86.2,19.7z"/>
<path class="st0" d="M92.4,48.3c-0.6,0.4-1.1,0.9-1.7,1.3l0.5,0.5l1.6,4.4l-0.1-4.8c-0.1-0.4-0.1-0.8-0.1-1.2
	C92.6,48.5,92.5,48.4,92.4,48.3z"/>
<path class="st1" d="M90.6,30.3c1.6,0.5,3.1,0.9,4.7,1.4c1.6,4,3.1,8.1,4.6,12.2c-2.3,2-4.7,4-7.1,6.1c-0.1-0.5-0.3-1.1-0.4-1.6
	c1.4-1.7,2.8-3.5,4.2-5.2c-1.6-2.2-3.3-5-4.7-8.5C91.3,33.1,90.9,31.7,90.6,30.3z"/>
<g>
	<path class="st5" d="M80.9,35.9c0.6,2.2,1,4.4,1.4,6.6c-0.6,1.5-1.2,3-1.9,4.4c0.4-1.5,1-3,1.5-4.5C81.5,40.8,81.1,38,80.9,35.9
		L80.9,35.9z"/>
</g>
<g>
	<path class="st5" d="M92.7,36.4c1.5,2.2,2.8,4.4,4.1,6.7c-0.7,0.9-1.4,1.8-2.2,2.7c-0.7,0.8-1.4,1.7-2.2,2.5c0.6-0.9,1.3-1.8,2-2.7
		c0.7-0.9,1.4-1.8,2-2.6l0,0.2C95.1,40.9,93.8,38.7,92.7,36.4L92.7,36.4z"/>
</g>
<g>
	<g>
		
			<linearGradient id="SVGID_1_" gradientUnits="userSpaceOnUse" x1="62.3953" y1="42.4" x2="66.5853" y2="42.4" gradientTransform="matrix(1 0 0 -1 0 102)">
			<stop  offset="1.978731e-03" style="stop-color:#27B0FC"/>
			<stop  offset="1" style="stop-color:#63CEF9"/>
		</linearGradient>
		<rect x="62.4" y="45.2" class="st13" width="4.2" height="28.8"/>
		
			<linearGradient id="SVGID_00000087402846537920668790000005850541641275952272_" gradientUnits="userSpaceOnUse" x1="56.12" y1="40.8" x2="60.31" y2="40.8" gradientTransform="matrix(1 0 0 -1 0 102)">
			<stop  offset="1.978731e-03" style="stop-color:#27B0FC"/>
			<stop  offset="1" style="stop-color:#63CEF9"/>
		</linearGradient>
		
			<rect x="56.1" y="48.4" style="fill:url(#SVGID_00000087402846537920668790000005850541641275952272_);" width="4.2" height="25.6"/>
		
			<linearGradient id="SVGID_00000181792971946456260270000015397046498810804401_" gradientUnits="userSpaceOnUse" x1="49.84" y1="39.2" x2="54.03" y2="39.2" gradientTransform="matrix(1 0 0 -1 0 102)">
			<stop  offset="1.978731e-03" style="stop-color:#27B0FC"/>
			<stop  offset="1" style="stop-color:#63CEF9"/>
		</linearGradient>
		
			<rect x="49.8" y="51.6" style="fill:url(#SVGID_00000181792971946456260270000015397046498810804401_);" width="4.2" height="22.4"/>
		
			<linearGradient id="SVGID_00000009587921536676395480000010332767864433575586_" gradientUnits="userSpaceOnUse" x1="43.56" y1="40.8" x2="47.75" y2="40.8" gradientTransform="matrix(1 0 0 -1 0 102)">
			<stop  offset="1.978731e-03" style="stop-color:#27B0FC"/>
			<stop  offset="1" style="stop-color:#63CEF9"/>
		</linearGradient>
		
			<rect x="43.6" y="48.4" style="fill:url(#SVGID_00000009587921536676395480000010332767864433575586_);" width="4.2" height="25.6"/>
		
			<linearGradient id="SVGID_00000036961942895332448130000004232871419281172620_" gradientUnits="userSpaceOnUse" x1="37.28" y1="39.52" x2="41.47" y2="39.52" gradientTransform="matrix(1 0 0 -1 0 102)">
			<stop  offset="1.978731e-03" style="stop-color:#27B0FC"/>
			<stop  offset="1" style="stop-color:#63CEF9"/>
		</linearGradient>
		<rect x="37.3" y="51" style="fill:url(#SVGID_00000036961942895332448130000004232871419281172620_);" width="4.2" height="23"/>
		
			<linearGradient id="SVGID_00000012462652930962926220000013292655744419760775_" gradientUnits="userSpaceOnUse" x1="31" y1="38.24" x2="35.19" y2="38.24" gradientTransform="matrix(1 0 0 -1 0 102)">
			<stop  offset="1.978731e-03" style="stop-color:#27B0FC"/>
			<stop  offset="1" style="stop-color:#63CEF9"/>
		</linearGradient>
		
			<rect x="31" y="53.5" style="fill:url(#SVGID_00000012462652930962926220000013292655744419760775_);" width="4.2" height="20.5"/>
		
			<linearGradient id="SVGID_00000093861679455831097010000008098305590983856005_" gradientUnits="userSpaceOnUse" x1="68.6744" y1="44" x2="72.8644" y2="44" gradientTransform="matrix(1 0 0 -1 0 102)">
			<stop  offset="1.978731e-03" style="stop-color:#27B0FC"/>
			<stop  offset="1" style="stop-color:#63CEF9"/>
		</linearGradient>
		<rect x="68.7" y="42" style="fill:url(#SVGID_00000093861679455831097010000008098305590983856005_);" width="4.2" height="32"/>
		<line class="st20" x1="31" y1="74" x2="72.9" y2="74"/>
	</g>
	<g>
		<polygon class="st21" points="31,50.7 46.3,41.3 52,45.1 75.7,25.2 52,47.1 46.3,43.1 31,52.5 		"/>
		<polygon class="st21" points="74.5,25.1 75.8,26.4 76,25 		"/>
	</g>
</g>
</svg>
