<?xml version="1.0" encoding="utf-8"?>
<!-- Generator: Adobe Illustrator 26.0.1, SVG Export Plug-In . SVG Version: 6.00 Build 0)  -->
<svg version="1.1" id="Layer_1" xmlns="http://www.w3.org/2000/svg" xmlns:xlink="http://www.w3.org/1999/xlink" x="0px" y="0px"
	 viewBox="0 0 100 100" style="enable-background:new 0 0 100 100;" xml:space="preserve">
<style type="text/css">
	.st0{fill:url(#SVGID_1_);}
	.st1{fill:url(#SVGID_00000124873109502793655370000010358747007039297430_);}
	.st2{fill:#6EC1FF;}
	.st3{fill:#F15A24;}
	.st4{fill:#FFBA9F;}
	.st5{fill:none;stroke:#58595B;stroke-width:5.000000e-02;stroke-miterlimit:10;}
	.st6{fill:#414042;}
	.st7{fill:#020F1E;}
	.st8{fill:#021D44;}
	.st9{fill:#333333;}
	.st10{fill:#336DFF;}
	.st11{fill:#242528;}
	.st12{fill:url(#SVGID_00000134245379759137502570000004515907036965783732_);}
</style>
<linearGradient id="SVGID_1_" gradientUnits="userSpaceOnUse" x1="44.03" y1="83.0473" x2="44.03" y2="86.7202" gradientTransform="matrix(1 0 0 -1 0 102)">
	<stop  offset="0.2901" style="stop-color:#A8E1FF"/>
	<stop  offset="0.8464" style="stop-color:#DCFDFE"/>
</linearGradient>
<ellipse class="st0" cx="44" cy="17.1" rx="3.7" ry="1.8"/>
<linearGradient id="SVGID_00000074399977429407578580000000641682398254867610_" gradientUnits="userSpaceOnUse" x1="73.288" y1="94.8258" x2="73.288" y2="63.438" gradientTransform="matrix(1 0 0 -1 0 102)">
	<stop  offset="0.2901" style="stop-color:#A8E1FF"/>
	<stop  offset="0.8464" style="stop-color:#DCFDFE"/>
</linearGradient>
<path style="fill:url(#SVGID_00000074399977429407578580000000641682398254867610_);" d="M77.8,8.7c1-0.5,7.2-3.2,13.6-0.2
	c1,0.5,6.6,3.1,7.7,8.8c0.4,2,0.1,3.8-0.2,4.9c0.1,1.1,0.2,6.4-3.7,10.4c-2.8,2.8-6.1,3.4-8.8,3.9c-2,0.3-6.6,1.2-10.4-1.4
	c-0.3-0.2-0.5-0.4-0.7-0.5c-1.3,1-3.5,2.4-6.3,3.2c-1.2,0.3-9.7,2.6-15.3-2.5c-0.3-0.3-4.9-4.5-4-9c0.1-0.3,0.1-0.5,0.2-0.7
	c-0.5-0.4-1.8-1.4-2.3-3.2c-0.5-1.7-0.1-3.1,0.2-4.1c1.3-4.1,5.1-6,5.5-6.2c4.3-2,8.4-0.3,9,0c0.2-0.2,0.4-0.4,0.7-0.7
	c1.7-1.6,3.4-2.5,3.7-2.6c0.8-0.4,2.4-1.2,4.6-1.4C74.1,7.2,76.6,8.1,77.8,8.7z"/>
<rect x="86.2" y="13" class="st2" width="4.1" height="18.9"/>
<rect x="80.5" y="16.8" class="st2" width="4.1" height="15.1"/>
<rect x="74.7" y="20.3" class="st2" width="4.1" height="11.6"/>
<rect x="69" y="23.4" class="st2" width="4.1" height="8.5"/>
<rect x="63.2" y="27" class="st2" width="4.1" height="4.9"/>
<rect x="57.5" y="30.1" class="st2" width="4.1" height="1.8"/>
<g>
	<polygon class="st3" points="57.5,22.9 89.5,9.9 57.6,25.1 	"/>
	<polygon class="st3" points="87.9,8.5 89.5,11.9 90.9,9.2 	"/>
</g>
<path class="st4" d="M29.1,13.1c-0.3,0.5,0.3,1,0,2.1c-0.2,0.6-0.6,1.4-1.3,2c-0.4,0.3-0.5,0.3-0.6,0.5c-0.3,0.7,1,1.6,2,3.4
	c1,1.8,0.9,3.1,1.3,3.1c0.5,0,0.5-1.3,1.9-3.1c0.7-0.9,1.2-1.5,2.1-2c0.7-0.3,1.3-0.4,1.3-0.7c0-0.3-0.5-0.3-1.1-0.9
	c0,0-0.9-0.8-1.1-2c-0.2-1,0.3-1.3,0.1-1.9C33.3,12.4,29.8,12,29.1,13.1z"/>
<path class="st4" d="M31.9,15.2l-1.4-0.1c-1.6-0.1-2.8-1.6-2.7-3.2L28.4,6c0.1-1.6,1.6-2.8,3.2-2.7L33,3.4c1.6,0.2,2.8,1.6,2.7,3.2
	l-0.5,5.9C35,14.2,33.6,15.4,31.9,15.2z"/>
<path d="M28.2,8.2C28,8,27.7,7.8,27.5,7.5c0-0.1-0.3-0.5-0.3-1.1c0-0.4,0-0.7,0.1-0.8c0-0.2,0.2-0.6,0.5-0.9
	c0.1-0.1,0.4-0.3,0.7-0.4c0.1,0,0.3,0,0.4,0.1c0,0,0.1-0.1,0.2,0c0.2,0.1,0.1,0.4,0,0.5c0,0,0,0-0.1,0C29,4.9,29,4.9,29,5
	c-0.6,1.6-0.8,3-0.8,3C28.2,8,28.2,8.1,28.2,8.2z"/>
<path class="st4" d="M28.6,8c-0.1-0.1-0.2-0.3-0.6-0.4c-0.1,0-0.4-0.1-0.6,0.1c-0.1,0.1-0.1,0.3-0.1,0.6c0,0.5,0.2,0.9,0.3,1
	c0.1,0.3,0.2,0.5,0.5,0.7c0.1,0.1,0.3,0.2,0.5,0.2C29,9.9,29.1,8.6,28.6,8z"/>
<path d="M28.7,1c-0.1,0.1-0.8,0.4-1,1c-0.1,0.4-0.1,0.8,0,1c0,0.1,0.1,0.5,0.4,0.9c0.1,0.2,0.4,0.6,0.9,0.8C29.3,5,29.6,5,29.9,5
	c0.2,0,0.9,0.1,1.7-0.1c0.5-0.1,0.6-0.2,0.9-0.2C33,4.8,33.3,5,33.4,5.1c0.3,0.2,0.3,0.4,0.6,0.6c0.6,0.4,1.5,0.5,2,0.1
	c0.2-0.2,0.3-0.4,0.3-0.4c0.1-0.1,0.2-0.4,0.2-0.6c0-0.5-0.6-0.9-0.7-1c-0.5-0.3-1.1-0.3-1.5-0.3c-0.6,0-0.8,0.2-1.2,0.1
	c-0.4-0.1-0.7-0.3-0.8-0.5c-0.3-0.3-0.3-0.5-0.7-0.9c-0.2-0.2-0.5-0.6-0.8-0.9C30.4,0.9,29.5,0.7,28.7,1z"/>
<path d="M35.3,8.9c0.2,0,0.5-0.1,0.8-0.3c0,0,0,0,0,0c0.8-0.6,1-1.4,1-1.4c0.1-0.6-0.1-1-0.2-1.2c-0.2-0.3-0.5-0.9-0.8-0.8
	c0,0-0.2,0.1-0.3,0.5c0,0-0.1-0.1-0.2-0.1c-0.2,0-0.2,0.3-0.2,0.4c0,0,0,0,0.1,0c0,0,0,0,0,0.1C35.5,6.2,35.3,8.7,35.3,8.9z"/>
<path class="st4" d="M35.2,8.6c0.1-0.1,0.3-0.2,0.6-0.3c0.1,0,0.4,0,0.6,0.2c0.1,0.1,0,0.3,0,0.6C36.2,9.5,36,9.9,35.9,10
	c-0.2,0.3-0.3,0.4-0.6,0.6c-0.2,0.1-0.4,0.2-0.5,0.1C34.4,10.4,34.5,9.1,35.2,8.6z"/>
<polyline class="st5" points="31.5,9.6 31,10.7 31.6,11.4 "/>
<circle class="st6" cx="33.4" cy="9.1" r="0.3"/>
<circle class="st6" cx="30.1" cy="8.8" r="0.3"/>
<polygon class="st4" points="20.4,86.2 21.7,89.1 23.6,88.4 22.5,84.8 "/>
<path class="st4" d="M12,90.9c-0.5,1.2-1,2.5-1.6,3.7c0.9,0,1.8,0,2.7,0c0.4-1.1,0.9-2.2,1.3-3.4L12,90.9z"/>
<path class="st7" d="M19.5,43.8c-1.5,5.9-3.1,11.9-4.6,17.8l5,26.1l4.1-1l-1.7-24.4l8.5-18.4c-2.6-1.2-5.2-2.3-7.7-3.5
	C21.8,41.6,20.7,42.7,19.5,43.8z"/>
<path class="st8" d="M26.7,42.8C21.4,59,16.2,75.2,11,91.3l3.7,1c6.9-15.5,13.8-31.1,20.7-46.6C32.5,44.7,29.6,43.8,26.7,42.8z"/>
<g>
	<path class="st4" d="M20.2,30.3c-1-0.1-1.9-0.3-2.9-0.4l-0.4,1.7l0.4,2.2l2.8-0.7C20.1,32.2,20.2,31.3,20.2,30.3z"/>
	<g>
		<path class="st9" d="M20.2,30.3c-1-0.1-2-0.2-2.9-0.3l0.1-0.1c-0.1,0.5-0.2,1.4-0.3,1.7c0.1,0.7,0.2,1.4,0.4,2.2l-0.2-0.1
			c0.9-0.2,1.9-0.5,2.8-0.6L20,33.1C20,32.2,20.1,31.3,20.2,30.3L20.2,30.3z M20.2,30.3c0,0.9,0,1.9,0,2.9c-1,0.3-2,0.5-3,0.8
			c-0.1-0.8-0.2-1.6-0.4-2.4c0.1-0.6,0.3-1.2,0.4-1.8C18.2,30,19.2,30.2,20.2,30.3L20.2,30.3z"/>
	</g>
</g>
<path class="st10" d="M34.8,17.7c2.5,0.9,4.9,1.8,7.3,2.7l-3.9,14.3h-1.7l-1.3,11l-16-1.3l2.1-11.2h-1.4v-0.8l0.2-12.5
	c2.4-0.8,4.8-1.5,7.1-2.3c1.2,1.7,2.3,3.5,3.5,5.2C32.2,21,33.5,19.4,34.8,17.7z"/>
<path class="st10" d="M27.8,24.4c1.6-2.2,3.2-4.4,4.8-6.6l-1.4-1.3c-1.9,1.7-3.8,3.4-5.7,5C26.3,22.5,27,23.5,27.8,24.4z"/>
<g>
	<path class="st4" d="M31,16.8c0-0.4,0-0.8,0-1.1v-2.5c0.1,0.1,0.3,0.2,0.4,0.4c0.5,0.7,0.4,1.6,0.3,1.8c2.6-2.3,4.7-3.8,4.9-3.8
		c0.2,0,0.5,0,0.5,0c0,0,0.1,0,0.1,0c-0.5,0.4-1,0.8-1.5,1.4c-0.6,0.6-1,1.2-1.4,1.7c0.3,0.7,0.5,1.4,0.8,2.1l0.3,1l-2.8,0.4
		C32,17.7,31.5,17.3,31,16.8z"/>
	<path class="st9" d="M31,16.8l-0.1-3.7v-0.2c0.8,0.6,1.1,1.5,0.9,2.4l-0.2-0.1c1.5-1.3,3-2.6,4.7-3.7c0.4-0.2,0.8-0.1,1.3-0.1
		l-0.3,0.2l-1.6,1.4c-0.5,0.5-0.9,1-1.3,1.6l0-0.1c0,0,0.8,2.1,0.8,2.1l0.3,1l0,0.1c-1,0.1-2,0.3-3,0.4C32.5,18.2,31,16.8,31,16.8
		L31,16.8z M31,16.8l1.5,1.4c0.7-0.2,1.9-0.3,2.8-0.5l-0.1,0.1c-0.2-0.8-0.8-2.4-1.1-3.1c0-0.1,0-0.1,0-0.1c0.6-1.1,2-2.3,2.9-3.1
		l0.1,0.3c-0.2,0-0.5,0-0.6,0c-1.8,1-3.3,2.4-4.9,3.7l-0.2,0.2c0.3-0.9,0.2-1.9-0.6-2.4l0.1-0.1L31,16.8L31,16.8z"/>
</g>
<polygon class="st11" points="10.5,94.3 8.3,96.2 0.1,99.6 11.9,99.5 12.9,99.5 13.2,96.9 13.2,94.3 "/>
<polygon class="st11" points="21.7,89.1 20.5,91.8 14.6,98.4 25.1,93.2 26,92.8 25.2,90.3 24,88 "/>
<g>
	<path class="st9" d="M30.6,12.8c0.8,0,1.5-0.1,2.3-0.3C32.4,13.1,31.4,13.2,30.6,12.8L30.6,12.8z"/>
</g>
<linearGradient id="SVGID_00000095303445545066166880000002606677078586561419_" gradientUnits="userSpaceOnUse" x1="38.94" y1="87.99" x2="38.94" y2="90.1445" gradientTransform="matrix(1 0 0 -1 0 102)">
	<stop  offset="0.3935" style="stop-color:#A8E1FF"/>
	<stop  offset="1" style="stop-color:#DCFDFE"/>
</linearGradient>
<ellipse style="fill:url(#SVGID_00000095303445545066166880000002606677078586561419_);" cx="38.9" cy="12.9" rx="1.7" ry="1.1"/>
<g>
	<path class="st9" d="M28.1,9.4c0,1.1-0.2,2.3,0,3.4c0.2,1.1,1.2,1.8,2.1,2.4C27.4,14.2,27.5,12,28.1,9.4L28.1,9.4z"/>
</g>
<g>
	<path class="st9" d="M20.2,27.6c0,1.9,0,3.7,0,5.6l-0.1-0.1l0.9,0.1l-0.1,0c3.8-5,7.6-10,11.6-15c-3.8,5.1-7.5,10.3-11.5,15.1
		l-0.9-0.1l-0.1,0C20,31.3,20.1,29.5,20.2,27.6L20.2,27.6z"/>
</g>
<g>
	<path class="st9" d="M24.6,22.6c1.6-1.8,3.4-3.5,5.4-5C28.4,19.4,26.6,21.1,24.6,22.6L24.6,22.6z"/>
</g>
<g>
	<path class="st9" d="M21.4,33.1c5.6,0.4,11.2,0.9,16.8,1.4l-0.1,0.1c1.1-4,2.2-8,3.3-12c-1,4.1-2,8.1-3.1,12.1c0,0.1,0,0.1-0.1,0.1
		C32.7,34.3,27,33.8,21.4,33.1L21.4,33.1z"/>
</g>
<g>
	<path class="st9" d="M23.9,30.7c3.8-0.1,7.7-0.2,11.5-0.1l-0.1,0.1c0.2-1.7,0.4-3.3,0.7-5c-0.1,1.7-0.3,3.4-0.4,5.1
		C31.6,30.9,27.7,30.9,23.9,30.7L23.9,30.7z"/>
</g>
<g>
	<path class="st9" d="M24.5,18.4c-1.4,0.6-2.7,1-4.1,1.5l0.1-0.1c0,1.5,0,3.1-0.1,4.6c-0.1-1.5-0.1-3.1-0.1-4.6v-0.1
		C21.6,19.2,23,18.8,24.5,18.4L24.5,18.4z"/>
</g>
<g>
	<path class="st9" d="M14.1,92.2c-0.1,0.8-0.4,1.5-0.9,2.1C13.3,93.5,13.6,92.8,14.1,92.2L14.1,92.2z"/>
</g>
<g>
	<path class="st9" d="M23.2,86.9c0.4,0.4,0.5,0.9,0.5,1.5C23.3,88,23.1,87.4,23.2,86.9L23.2,86.9z"/>
</g>
<g id="XMLID_00000022525317633298115690000010100790043141759912_">
	<g>
		
			<image style="overflow:visible;enable-background:new    ;" width="531" height="184" xlink:href="A9B216C0.png"  transform="matrix(8.778533e-02 0 0 8.778533e-02 27.1879 83.4255)">
		</image>
	</g>
</g>
<g id="XMLID_00000032621046020887849750000003205432660478355607_">
	<g>
		
			<image style="overflow:visible;enable-background:new    ;" width="531" height="184" xlink:href="A9B216C1.png"  transform="matrix(8.778533e-02 0 0 8.778533e-02 30.1859 76.4248)">
		</image>
	</g>
</g>
<g id="XMLID_00000157303570361211126060000005898519341091663787_">
	<g>
		
			<image style="overflow:visible;enable-background:new    ;" width="531" height="184" xlink:href="A9B216C7.png"  transform="matrix(8.778533e-02 0 0 8.778533e-02 29.1859 69.4248)">
		</image>
	</g>
</g>
<g id="XMLID_00000035488842168947883900000008791475803663352218_">
	<g>
		
			<image style="overflow:visible;enable-background:new    ;" width="531" height="184" xlink:href="A9B216C2.png"  transform="matrix(8.778533e-02 0 0 8.778533e-02 33.1857 62.4247)">
		</image>
	</g>
</g>
<g id="XMLID_00000082362160775598679180000012096838453663408033_">
	<g>
		
			<image style="overflow:visible;enable-background:new    ;" width="531" height="184" xlink:href="A9B216C3.png"  transform="matrix(8.778533e-02 0 0 8.778533e-02 34.1857 55.4247)">
		</image>
	</g>
</g>
<g id="XMLID_00000137816755746676282270000006413573692186262948_">
	<g>
		
			<image style="overflow:visible;enable-background:new    ;" width="531" height="184" xlink:href="A9B216CE.png"  transform="matrix(8.778533e-02 0 0 8.778533e-02 37.1857 48.4247)">
		</image>
	</g>
</g>
<g id="XMLID_00000031207301196260375500000015137326305662883731_">
	<g>
		
			<image style="overflow:visible;enable-background:new    ;" width="531" height="184" xlink:href="A9B216CF.png"  transform="matrix(8.778533e-02 0 0 8.778533e-02 35.1856 41.4239)">
		</image>
	</g>
</g>
<g id="XMLID_00000113314968508251499330000007335763704785003670_">
	<g>
		
			<image style="overflow:visible;enable-background:new    ;" width="204" height="525" xlink:href="A9B216C4.png"  transform="matrix(9.098972e-02 0 0 9.098972e-02 80.2262 52.6239)">
		</image>
	</g>
</g>
</svg>
