<?xml version="1.0" encoding="utf-8"?>
<!-- Generator: Adobe Illustrator 26.0.1, SVG Export Plug-In . SVG Version: 6.00 Build 0)  -->
<svg version="1.1" id="Layer_1" xmlns="http://www.w3.org/2000/svg" xmlns:xlink="http://www.w3.org/1999/xlink" x="0px" y="0px"
	 viewBox="0 0 100 100" style="enable-background:new 0 0 100 100;" xml:space="preserve">
<style type="text/css">
	.st0{fill:#7F90B1;}
	.st1{fill:url(#SVGID_1_);}
	.st2{fill:none;stroke:#FFFFFF;stroke-width:0.2;stroke-miterlimit:10;}
	.st3{fill:#FF5E33;}
	.st4{fill:none;stroke:#FF5E33;stroke-width:0.5;stroke-miterlimit:10;}
	.st5{fill:#48AE52;}
	.st6{fill:none;stroke:#48AE52;stroke-width:0.5;stroke-miterlimit:10;}
	.st7{fill:url(#SVGID_00000181078792100304620670000001559655903809355957_);}
	.st8{fill:url(#SVGID_00000088103277684383529670000003931836164892827793_);}
	.st9{fill:none;stroke:#29AAE1;stroke-width:0.5;stroke-miterlimit:10;}
	.st10{fill:#DBFCFD;}
	.st11{fill:url(#SVGID_00000046298796430115409610000001028979316766392510_);}
	.st12{fill:url(#SVGID_00000115511011750485473960000014652561229979279019_);}
	.st13{fill:url(#SVGID_00000083079814378385749220000011715394229524554671_);}
	.st14{fill:url(#SVGID_00000080900774659252885650000016478751436543766438_);}
	.st15{fill:#D71F1F;}
	.st16{clip-path:url(#SVGID_00000152986859210768307990000005806667207044257668_);fill:#BE1B1E;}
	.st17{clip-path:url(#SVGID_00000013894475897582255720000004412721036283158707_);fill:#BE1B1E;}
	.st18{clip-path:url(#SVGID_00000024710083783425442610000017443027489112708234_);fill:#BE1B1E;}
	.st19{clip-path:url(#SVGID_00000036213571436398487530000003387824675528302777_);fill:#F42B2A;}
	.st20{fill:#FFBA9F;}
	.st21{fill:#336DFF;}
	.st22{fill:#011435;}
	.st23{fill:#242528;}
	.st24{fill:#FFFFFF;}
	.st25{fill:none;stroke:#58595B;stroke-width:5.000000e-02;stroke-miterlimit:10;}
	.st26{fill:#414042;}
	.st27{fill:#FFE888;stroke:#FF0000;stroke-width:0.75;stroke-miterlimit:10;}
	.st28{fill:none;stroke:#414042;stroke-width:0.4;stroke-miterlimit:10;}
</style>
<g>
	<path class="st0" d="M57.4,52.1H5.6c-0.9,0-1.6-0.7-1.6-1.6V9.6C4,8.7,4.7,8,5.6,8h51.7C58.3,8,59,8.7,59,9.6v40.8
		C59,51.4,58.3,52.1,57.4,52.1z"/>
	
		<linearGradient id="SVGID_1_" gradientUnits="userSpaceOnUse" x1="16.731" y1="97.1409" x2="45.819" y2="46.7591" gradientTransform="matrix(1 0 0 -1 0 102)">
		<stop  offset="0.3935" style="stop-color:#A7E0FF"/>
		<stop  offset="1" style="stop-color:#DBFCFD"/>
	</linearGradient>
	<path class="st1" d="M54.9,49.8H7.7c-0.8,0-1.4-0.6-1.4-1.4V11.7c0-0.8,0.6-1.4,1.4-1.4h47.2c0.8,0,1.4,0.6,1.4,1.4v36.6
		C56.3,49.1,55.7,49.8,54.9,49.8z"/>
	<line class="st2" x1="12.5" y1="11.3" x2="12.5" y2="48.5"/>
	<line class="st2" x1="49.9" y1="11.3" x2="49.9" y2="48.5"/>
	<line class="st2" x1="20" y1="11.3" x2="20" y2="48.5"/>
	<line class="st2" x1="27.5" y1="11.3" x2="27.5" y2="48.5"/>
	<line class="st2" x1="34.9" y1="11.3" x2="34.9" y2="48.5"/>
	<line class="st2" x1="42.4" y1="11.3" x2="42.4" y2="48.5"/>
	<line class="st2" x1="6.2" y1="48.5" x2="56.3" y2="48.5"/>
	<line class="st2" x1="6.2" y1="17.7" x2="56.3" y2="17.7"/>
	<line class="st2" x1="6.2" y1="23.9" x2="56.3" y2="23.9"/>
	<line class="st2" x1="6.2" y1="30" x2="56.3" y2="30"/>
	<line class="st2" x1="6.2" y1="42.3" x2="56.3" y2="42.3"/>
	<line class="st2" x1="6.2" y1="36.2" x2="56.3" y2="36.2"/>
	<ellipse class="st3" cx="12.7" cy="42.4" rx="0.7" ry="0.7"/>
	<ellipse class="st3" cx="19.9" cy="36.2" rx="0.7" ry="0.7"/>
	<ellipse class="st3" cx="27.5" cy="42.4" rx="0.7" ry="0.7"/>
	<ellipse class="st3" cx="35.1" cy="42.4" rx="0.7" ry="0.7"/>
	<ellipse class="st3" cx="42.2" cy="40" rx="0.7" ry="0.7"/>
	<ellipse class="st3" cx="49.8" cy="38.1" rx="0.7" ry="0.7"/>
	<polyline class="st4" points="12.7,42.4 19.9,36.2 27.5,42.4 35.1,42.4 42.2,40 49.8,38.1 	"/>
	<ellipse class="st5" cx="12.7" cy="36.2" rx="0.7" ry="0.7"/>
	<ellipse class="st5" cx="19.9" cy="30" rx="0.7" ry="0.7"/>
	<ellipse class="st5" cx="27.5" cy="26.7" rx="0.7" ry="0.7"/>
	<ellipse class="st5" cx="35.1" cy="23.9" rx="0.7" ry="0.7"/>
	<ellipse class="st5" cx="42.7" cy="17.7" rx="0.7" ry="0.7"/>
	<polyline class="st6" points="12.7,36.2 19.9,30 27.5,26.7 35.1,23.9 42.7,17.7 49.8,13 	"/>
</g>
<g>
	
		<linearGradient id="SVGID_00000075146544620820431600000008688982220503605161_" gradientUnits="userSpaceOnUse" x1="20.2977" y1="14.6965" x2="47.6871" y2="62.1365" gradientTransform="matrix(1 0 0 -1 0 102)">
		<stop  offset="0.3935" style="stop-color:#A7E0FF"/>
		<stop  offset="1" style="stop-color:#DBFCFD"/>
	</linearGradient>
	<path style="fill:url(#SVGID_00000075146544620820431600000008688982220503605161_);" d="M56.5,82H11.5c-0.8,0-1.5-0.7-1.5-1.5
		V46.7c0-0.8,0.7-1.5,1.5-1.5h45c0.8,0,1.5,0.7,1.5,1.5v33.8C58,81.3,57.3,82,56.5,82z"/>
	
		<linearGradient id="SVGID_00000101101041904817556300000001856197939680257937_" gradientUnits="userSpaceOnUse" x1="10" y1="53.785" x2="58" y2="53.785" gradientTransform="matrix(1 0 0 -1 0 102)">
		<stop  offset="1.978731e-03" style="stop-color:#27B0FC"/>
		<stop  offset="1" style="stop-color:#63CEF9"/>
	</linearGradient>
	<polygon style="fill:url(#SVGID_00000101101041904817556300000001856197939680257937_);" points="58,51.4 10,51.4 10,45 58,45.1 	
		"/>
	<line class="st9" x1="34" y1="58.4" x2="34" y2="80.4"/>
	<polygon class="st10" points="54.3,58.5 14,58.4 14,53.5 54.3,53.5 	"/>
	<polygon class="st10" points="48.2,65.8 20.1,65.7 20,60.8 48.2,60.9 	"/>
	<polygon class="st10" points="42.7,73.1 25.5,73.1 25.5,68.2 42.7,68.2 	"/>
	<polygon class="st10" points="40.5,80.4 27.8,80.4 27.8,75.5 40.5,75.5 	"/>
	
		<linearGradient id="SVGID_00000021115746037425283570000000006345283426559125_" gradientUnits="userSpaceOnUse" x1="26.81" y1="45.965" x2="41.17" y2="45.965" gradientTransform="matrix(1 0 0 -1 0 102)">
		<stop  offset="1.978731e-03" style="stop-color:#27B0FC"/>
		<stop  offset="1" style="stop-color:#63CEF9"/>
	</linearGradient>
	
		<rect x="26.8" y="55.3" style="fill:url(#SVGID_00000021115746037425283570000000006345283426559125_);" width="14.4" height="1.5"/>
	
		<linearGradient id="SVGID_00000158729915987175849770000012975107584766874006_" gradientUnits="userSpaceOnUse" x1="28.54" y1="38.655" x2="39.67" y2="38.655" gradientTransform="matrix(1 0 0 -1 0 102)">
		<stop  offset="1.978731e-03" style="stop-color:#27B0FC"/>
		<stop  offset="1" style="stop-color:#63CEF9"/>
	</linearGradient>
	
		<rect x="28.5" y="62.6" style="fill:url(#SVGID_00000158729915987175849770000012975107584766874006_);" width="11.1" height="1.5"/>
	
		<linearGradient id="SVGID_00000069394977278678010660000006815172902479690116_" gradientUnits="userSpaceOnUse" x1="30.56" y1="31.345" x2="37.49" y2="31.345" gradientTransform="matrix(1 0 0 -1 0 102)">
		<stop  offset="1.978731e-03" style="stop-color:#27B0FC"/>
		<stop  offset="1" style="stop-color:#63CEF9"/>
	</linearGradient>
	
		<rect x="30.6" y="69.9" style="fill:url(#SVGID_00000069394977278678010660000006815172902479690116_);" width="6.9" height="1.5"/>
	
		<linearGradient id="SVGID_00000042699465974810261780000009697473032170895258_" gradientUnits="userSpaceOnUse" x1="32.01" y1="24.035" x2="36.1248" y2="24.035" gradientTransform="matrix(1 0 0 -1 0 102)">
		<stop  offset="1.978731e-03" style="stop-color:#27B0FC"/>
		<stop  offset="1" style="stop-color:#63CEF9"/>
	</linearGradient>
	<rect x="32" y="77.2" style="fill:url(#SVGID_00000042699465974810261780000009697473032170895258_);" width="4.1" height="1.5"/>
</g>
<g>
	<path class="st15" d="M66.1,28.7c0.1,3.1,1.3,4.6,1.8,6.5c1.6,5.5-3.5,12.8-16.3,23.8c-6.7,5.8-16.4,13.4-29.1,21
		c0.6,0.2,1.5,0.6,2.6,1c3.6,1.3,5.4,2,7,1.9c2.3-0.1,2.1-1.1,4-1.1c2.5,0.1,2.9,1.9,6.2,2.9c2.4,0.7,4.5,0.5,5.5,0.4
		c3.5-0.4,3.5-1.6,5.8-1.5c1.7,0.1,2,0.8,7.5,3.9c3.7,2.1,4.2,2.2,4.8,2.2c2.8,0,3.1-2.5,6.4-3.2c2.8-0.6,5.2,0.5,7.2,1.4
		c2.9,1.3,4.8,3.2,5.8,4.3c0.5-0.9,1.4-2.3,2.3-4.2c3.2-6.6,5.1-13.6,5.1-45.9c0-2.8,0-6.8-2.2-11.1c-2.3-4.4-5.9-7.4-7-8.2
		c-2-1.5-3.6-2.3-4-2.5c-2.7-1.3-5.6-2.7-8.3-1.8C67.4,20.1,66,25.3,66.1,28.7z"/>
	<g>
		<g>
			<defs>
				<path id="SVGID_00000044859412046645719210000014682866459228767671_" d="M66.1,28.5c0,3.1,1.2,4.6,1.8,6.5
					c1.5,5.6-3.6,12.7-16.5,23.7C44.7,64.5,35,72,22.2,79.5c0.6,0.2,1.5,0.6,2.6,1c3.6,1.4,5.4,2.1,7,2c2.3-0.1,2.1-1.1,4-1
					c2.5,0.1,2.9,1.9,6.2,2.9c2.4,0.7,4.5,0.5,5.5,0.4c3.5-0.4,3.5-1.6,5.8-1.5c1.7,0.1,2,0.8,7.4,4c3.7,2.2,4.2,2.2,4.8,2.2
					c2.8,0,3.2-2.5,6.4-3.2c2.8-0.6,5.2,0.5,7.2,1.4c2.9,1.3,4.8,3.2,5.8,4.4c0.5-0.9,1.4-2.3,2.3-4.2c3.3-6.6,5.2-13.6,5.4-45.8
					c0-2.8,0-6.8-2.1-11.1c-2.2-4.5-5.9-7.4-6.9-8.2c-2-1.6-3.6-2.4-4-2.5c-2.7-1.3-5.6-2.8-8.3-1.8C67.5,19.9,66.1,25.1,66.1,28.5z
					"/>
			</defs>
			<clipPath id="SVGID_00000008106754566798450330000010668907516459039366_">
				<use xlink:href="#SVGID_00000044859412046645719210000014682866459228767671_"  style="overflow:visible;"/>
			</clipPath>
			<path style="clip-path:url(#SVGID_00000008106754566798450330000010668907516459039366_);fill:#BE1B1E;" d="M64.7,90.6
				c4.1-1.7,3.4-8.5,5.2-21.4c2.3-15.8,6.4-26.2,5.9-26.3c-0.5-0.2-3.6,11.6-10,24.9c-4.5,9.3-6.7,14-9,15.8c-0.7,0.6-2.2,1.7-2.1,3
				C55.1,89.2,61.1,92.1,64.7,90.6z"/>
		</g>
		<g>
			<defs>
				<path id="SVGID_00000170254965726647357740000006389979501195477642_" d="M66.1,28.5c0,3.1,1.2,4.6,1.8,6.5
					c1.5,5.6-3.6,12.7-16.5,23.7C44.7,64.5,35,72,22.2,79.5c0.6,0.2,1.5,0.6,2.6,1c3.6,1.4,5.4,2.1,7,2c2.3-0.1,2.1-1.1,4-1
					c2.5,0.1,2.9,1.9,6.2,2.9c2.4,0.7,4.5,0.5,5.5,0.4c3.5-0.4,3.5-1.6,5.8-1.5c1.7,0.1,2,0.8,7.4,4c3.7,2.2,4.2,2.2,4.8,2.2
					c2.8,0,3.2-2.5,6.4-3.2c2.8-0.6,5.2,0.5,7.2,1.4c2.9,1.3,4.8,3.2,5.8,4.4c0.5-0.9,1.4-2.3,2.3-4.2c3.3-6.6,5.2-13.6,5.4-45.8
					c0-2.8,0-6.8-2.1-11.1c-2.2-4.5-5.9-7.4-6.9-8.2c-2-1.6-3.6-2.4-4-2.5c-2.7-1.3-5.6-2.8-8.3-1.8C67.5,19.9,66.1,25.1,66.1,28.5z
					"/>
			</defs>
			<clipPath id="SVGID_00000121968914231183437710000005003512863158011277_">
				<use xlink:href="#SVGID_00000170254965726647357740000006389979501195477642_"  style="overflow:visible;"/>
			</clipPath>
			<path style="clip-path:url(#SVGID_00000121968914231183437710000005003512863158011277_);fill:#BE1B1E;" d="M42.2,83.8
				c2.2-0.8,4-2.3,8.5-9.9c3.2-5.5,6-11.2,5.7-11.3c-0.4-0.2-2.8,8.9-10.3,13.2c-3.1,1.8-6,4.1-9.1,6c-1,0.6-2,1.2-1.9,1.7
				C35.3,84.4,39.2,84.9,42.2,83.8z"/>
		</g>
		<g>
			<defs>
				<path id="SVGID_00000053545295687985267160000017071275884724227723_" d="M66.1,28.5c0,3.1,1.2,4.6,1.8,6.5
					c1.5,5.6-3.6,12.7-16.5,23.7C44.7,64.5,35,72,22.2,79.5c0.6,0.2,1.5,0.6,2.6,1c3.6,1.4,5.4,2.1,7,2c2.3-0.1,2.1-1.1,4-1
					c2.5,0.1,2.9,1.9,6.2,2.9c2.4,0.7,4.5,0.5,5.5,0.4c3.5-0.4,3.5-1.6,5.8-1.5c1.7,0.1,2,0.8,7.4,4c3.7,2.2,4.2,2.2,4.8,2.2
					c2.8,0,3.2-2.5,6.4-3.2c2.8-0.6,5.2,0.5,7.2,1.4c2.9,1.3,4.8,3.2,5.8,4.4c0.5-0.9,1.4-2.3,2.3-4.2c3.3-6.6,5.2-13.6,5.4-45.8
					c0-2.8,0-6.8-2.1-11.1c-2.2-4.5-5.9-7.4-6.9-8.2c-2-1.6-3.6-2.4-4-2.5c-2.7-1.3-5.6-2.8-8.3-1.8C67.5,19.9,66.1,25.1,66.1,28.5z
					"/>
			</defs>
			<clipPath id="SVGID_00000093883639465716844450000006236241957966815415_">
				<use xlink:href="#SVGID_00000053545295687985267160000017071275884724227723_"  style="overflow:visible;"/>
			</clipPath>
			<path style="clip-path:url(#SVGID_00000093883639465716844450000006236241957966815415_);fill:#BE1B1E;" d="M82.4,97.4
				c-2.6,1.1-5,2.2-6.1,1.4c-2.1-1.6,1.9-9.3,5.8-19.9c6.9-18.9,7.6-30.2,7.2-36.5c-0.6-7.9-2.3-11.7-3.6-14c-3-5.1-6.9-7.6-6.7-7.9
				c0.3-0.4,8.3,3.4,12.9,11.1c3,5.1,3.1,10.1,3.2,19.7c0.1,5.4-0.3,5.2-3,26.9c-0.7,5.9-0.4,11.9-4.2,15.6
				C87.2,94.6,85.2,96.2,82.4,97.4z"/>
		</g>
		<g>
			<defs>
				<path id="SVGID_00000151513272433100950800000001677898369592890558_" d="M66.1,28.5c0,3.1,1.2,4.6,1.8,6.5
					c1.5,5.6-3.6,12.7-16.5,23.7C44.7,64.5,35,72,22.2,79.5c0.6,0.2,1.5,0.6,2.6,1c3.6,1.4,5.4,2.1,7,2c2.3-0.1,2.1-1.1,4-1
					c2.5,0.1,2.9,1.9,6.2,2.9c2.4,0.7,4.5,0.5,5.5,0.4c3.5-0.4,3.5-1.6,5.8-1.5c1.7,0.1,2,0.8,7.4,4c3.7,2.2,4.2,2.2,4.8,2.2
					c2.8,0,3.2-2.5,6.4-3.2c2.8-0.6,5.2,0.5,7.2,1.4c2.9,1.3,4.8,3.2,5.8,4.4c0.5-0.9,1.4-2.3,2.3-4.2c3.3-6.6,5.2-13.6,5.4-45.8
					c0-2.8,0-6.8-2.1-11.1c-2.2-4.5-5.9-7.4-6.9-8.2c-2-1.6-3.6-2.4-4-2.5c-2.7-1.3-5.6-2.8-8.3-1.8C67.5,19.9,66.1,25.1,66.1,28.5z
					"/>
			</defs>
			<clipPath id="SVGID_00000083799325290616152860000005663574227912148648_">
				<use xlink:href="#SVGID_00000151513272433100950800000001677898369592890558_"  style="overflow:visible;"/>
			</clipPath>
			<path style="clip-path:url(#SVGID_00000083799325290616152860000005663574227912148648_);fill:#F42B2A;" d="M74.6,89
				C76,82,75.5,75,75.5,75c-0.5-7.7,0.3-12.7,0-12.7c-0.2,0-0.7,3.9-1.8,11.8c-0.7,5.1-0.8,6.2-1.6,8c-0.4,1-1.2,2.7-2.6,5.9
				c-1.2,2.9-1.5,3.6-1.1,4c0.8,1,4.2,0.4,5.6-1.6C74.5,89.8,74.6,89.2,74.6,89z"/>
		</g>
	</g>
</g>
<g>
	<path class="st20" d="M68.8,15.7c-0.3,0.5,0.4,0.9,0.2,2c-0.1,0.6-0.5,1.4-1.1,2c-0.4,0.4-0.5,0.3-0.6,0.5
		c-0.3,0.7,1.1,1.4,2.3,3.1c1.1,1.6,1.1,2.9,1.6,2.8c0.5,0,0.4-1.3,1.6-3.1c0.6-0.9,1-1.6,1.9-2c0.7-0.4,1.3-0.5,1.3-0.8
		c0-0.2-0.5-0.3-1.2-0.7c0,0-0.9-0.7-1.2-1.8c-0.3-1,0.2-1.3-0.1-1.8C73,14.7,69.4,14.6,68.8,15.7z"/>
	<path class="st20" d="M71.9,17.5h-1.5c-1.6,0-2.9-1.3-2.9-2.9V9.1c0-1.6,1.3-2.9,2.9-2.9h1.5c1.6,0,2.9,1.3,2.9,2.9v5.5
		C74.8,16.2,73.5,17.5,71.9,17.5z"/>
	<path d="M67.5,11.1c-0.2-0.1-0.4-0.3-0.7-0.6c-0.1-0.1-0.3-0.5-0.4-1c-0.1-0.4,0-0.7,0-0.8c0-0.2,0.1-0.6,0.4-0.9
		c0.1-0.1,0.3-0.3,0.7-0.4c0.2,0,0.3,0,0.4,0c0,0,0.2-0.1,0.2,0c0.2,0.1,0.2,0.4,0.1,0.4c0,0,0,0-0.1,0c0,0-0.1,0.1-0.1,0.1
		c-0.4,1.6-0.5,2.9-0.5,2.9C67.5,11,67.5,11,67.5,11.1z"/>
	<path class="st20" d="M67.9,10.9c-0.1-0.1-0.3-0.3-0.6-0.3c-0.1,0-0.4-0.1-0.6,0.1c-0.1,0.1-0.1,0.3,0,0.6c0.1,0.5,0.3,0.9,0.4,0.9
		c0.2,0.3,0.3,0.5,0.6,0.6c0.2,0.1,0.3,0.2,0.5,0.1C68.4,12.7,68.5,11.5,67.9,10.9z"/>
	<path d="M67.3,4.2c-0.1,0.1-0.7,0.4-0.9,1c-0.1,0.4,0,0.8,0.1,1c0,0.1,0.2,0.4,0.4,0.8c0.1,0.2,0.4,0.5,1,0.7
		c0.3,0.1,0.6,0.1,1,0.1c0.2,0,0.8,0,1.7-0.3c0.5-0.2,0.6-0.2,0.9-0.2c0.4,0,0.7,0.2,0.9,0.3c0.4,0.2,0.4,0.3,0.6,0.5
		c0.6,0.4,1.6,0.4,2-0.1c0.2-0.2,0.2-0.4,0.3-0.4c0.1-0.1,0.2-0.4,0.1-0.6c-0.1-0.5-0.7-0.8-0.8-0.9C74.2,5.9,73.6,6,73.2,6
		c-0.6,0.1-0.8,0.3-1.2,0.2c-0.4-0.1-0.7-0.3-0.8-0.4c-0.3-0.2-0.4-0.4-0.7-0.8c-0.2-0.2-0.5-0.5-0.9-0.7C69,4,68.1,3.8,67.3,4.2z"
		/>
	<path d="M74.6,11.2c0.2-0.1,0.5-0.2,0.8-0.4c0,0,0,0,0,0c0.8-0.6,0.9-1.5,0.9-1.5c0-0.5-0.2-1-0.3-1.1c-0.2-0.3-0.6-0.8-0.9-0.7
		c0,0-0.2,0.1-0.2,0.5c0,0-0.1-0.1-0.2-0.1c-0.2,0-0.2,0.3-0.2,0.4c0,0,0,0,0.1,0c0,0,0,0,0.1,0.1C74.6,8.6,74.6,11,74.6,11.2z"/>
	<path class="st20" d="M74.5,10.9c0.1-0.1,0.3-0.3,0.6-0.3c0.1,0,0.4-0.1,0.6,0.1c0.1,0.1,0.1,0.3,0,0.6c-0.1,0.5-0.3,0.9-0.4,0.9
		c-0.2,0.3-0.3,0.5-0.6,0.6c-0.2,0.1-0.3,0.2-0.5,0.1C73.9,12.7,73.9,11.5,74.5,10.9z"/>
	<path class="st21" d="M67.8,20.4l-6,0.6l-5.5,14c1.9,3.4,3.8,6.8,5.8,10.1l0.5-6.6l-1.5-2.6l1.2-3.2l5.1-6.3L67.8,20.4z"/>
	<path class="st21" d="M75.3,19.9c2.4,0,4.8-0.1,7.3-0.1c1.4,4.9,2.7,9.7,4.1,14.6c-2.6,3.6-5.1,7.2-7.7,10.8
		c0.2-2.4,0.4-4.8,0.6-7.1c0.6-1.4,1.3-2.8,1.9-4.2c-0.4-1.3-0.7-2.6-1.1-4c-0.2,5.7-0.5,11.5-0.8,17.3H62.1l0.2-25.3
		c-0.1-0.3-0.3-0.6-0.4-1c1.9-0.3,3.9-0.6,5.8-0.9c1.3,0.3,2.6,0.5,3.9,0.8C72.8,20.6,74,20.2,75.3,19.9z"/>
	<polygon class="st20" points="87.2,91.2 87.7,94.2 85.6,94.6 84.8,91 	"/>
	<polygon class="st20" points="61,91.3 60.8,94.3 62.9,94.5 63.4,90.9 	"/>
	<polygon class="st22" points="62.1,46.7 61.4,68.9 60.4,91.7 64.1,91.7 66.3,72.2 70.8,49.6 76.4,65.9 78.4,71.5 84.2,91.2 
		88.4,91.3 83.6,72 79.7,46.7 	"/>
	<polygon class="st23" points="60.8,94.3 58.6,96.1 50.4,99.3 62.1,99.3 63.1,99.3 63.4,96.8 63.4,94.3 	"/>
	<polygon class="st23" points="87.9,94.1 90.2,96 98.3,99.3 86.6,99.3 85.6,99.3 85.3,96.7 85.3,94.1 	"/>
	<path class="st24" d="M69.8,14.9h2.7c-0.1,0.1-0.6,0.9-1.3,0.9C70.4,15.9,69.9,15.1,69.8,14.9z"/>
	<polyline class="st25" points="71,12.2 70.6,13.3 71.2,13.9 	"/>
	<ellipse class="st26" cx="72.8" cy="11.5" rx="0.3" ry="0.2"/>
	<ellipse class="st26" cx="69.4" cy="11.5" rx="0.3" ry="0.2"/>
	<g>
		<g>
			<path class="st26" d="M62.1,29.3c0.3,4.7,0.3,9.3,0.2,14C61.8,38.6,61.8,33.9,62.1,29.3L62.1,29.3z"/>
		</g>
		<g>
			<path class="st26" d="M62.1,33.7c-0.2,0.8-0.5,1.6-0.9,2.3l0-0.2c0.4,0.7,0.8,1.3,1,2c-0.5-0.6-1-1.3-1.4-1.9
				C61.2,35.1,61.5,34.4,62.1,33.7L62.1,33.7z"/>
		</g>
		<g>
			<path class="st26" d="M67.5,11.9c0.2,1.8-0.3,4.1,1.6,5c0.6,0.3,1.2,0.5,1.8,0.6C67.2,17.5,66.9,14.9,67.5,11.9L67.5,11.9z"/>
		</g>
		<g>
			<path class="st26" d="M67.6,20.1c-1.9,0.4-3.8,0.7-5.8,1L62,21c-0.4,1.1-0.9,2.2-1.3,3.3c-0.5,1.1-0.9,2.2-1.4,3.2
				c0.3-1.1,0.7-2.2,1.1-3.4c0.4-1.1,0.8-2.3,1.3-3.4C63.6,20.5,65.6,20.2,67.6,20.1L67.6,20.1z"/>
		</g>
	</g>
</g>
<path class="st27" d="M79,25.5H64c2.5,3.3,5,6.7,7.5,10C74,32.2,76.5,28.8,79,25.5z"/>
<g>
	<path class="st15" d="M69.6,31c-0.3,0-0.6-0.1-0.8-0.5c-0.3-0.3-0.5-0.8-0.7-1.5c-0.2-0.8-0.3-1.5-0.2-2.1c0.1-0.6,0.4-1,0.8-1
		c0.3,0,0.7,0.2,1,0.6c0.3,0.4,0.4,0.9,0.5,1.4h-0.4c-0.1-0.4-0.2-0.6-0.3-0.9c-0.2-0.2-0.4-0.4-0.6-0.4c-0.3,0-0.5,0.2-0.6,0.7
		c-0.1,0.4,0,1,0.2,1.6c0.2,0.6,0.3,1,0.5,1.2c0.2,0.2,0.4,0.4,0.6,0.4c0.2,0,0.3-0.1,0.4-0.2c0.1-0.1,0.1-0.3,0.1-0.6h0.3
		c0,0.4,0,0.7-0.2,0.9C70.1,30.9,69.9,31,69.6,31z"/>
	<path class="st15" d="M72.6,26.9l-1.6,0l0.1,1.7l1.2,0l0,0.5l-1.1,0l0.1,1.7l-0.3,0l-0.3-4.8h2.1L72.6,26.9z"/>
	<path class="st15" d="M74.6,26c0.4,0,0.7,0.3,0.8,1c0.1,0.6,0,1.2-0.3,2c-0.2,0.7-0.5,1.1-0.8,1.5c-0.3,0.3-0.5,0.5-0.8,0.5
		c-0.3,0-0.5-0.1-0.6-0.5c-0.2-0.3-0.2-0.8-0.1-1.5c0.1-0.8,0.3-1.5,0.6-2C73.7,26.3,74.1,26,74.6,26z M73.6,30.5
		c0.2,0,0.4-0.1,0.6-0.4c0.2-0.3,0.4-0.7,0.6-1.2c0.2-0.6,0.2-1.1,0.2-1.5c-0.1-0.4-0.2-0.6-0.5-0.6c-0.3,0-0.6,0.2-0.8,0.7
		c-0.2,0.4-0.4,0.9-0.5,1.5c-0.1,0.5-0.1,1,0,1.2C73.2,30.4,73.3,30.6,73.6,30.5z"/>
</g>
<polyline class="st28" points="80.3,29.9 81.4,33.9 79.9,37.2 "/>
</svg>
