<?xml version="1.0" encoding="utf-8"?>
<!-- Generator: Adobe Illustrator 26.0.1, SVG Export Plug-In . SVG Version: 6.00 Build 0)  -->
<svg version="1.1" id="Layer_1" xmlns="http://www.w3.org/2000/svg" xmlns:xlink="http://www.w3.org/1999/xlink" x="0px" y="0px"
	 viewBox="0 0 100 100" style="enable-background:new 0 0 100 100;" xml:space="preserve">
<style type="text/css">
	.st0{fill:url(#SVGID_1_);}
	.st1{fill:url(#SVGID_00000179633104811474786530000016910850030524738226_);}
	.st2{fill:#F3FCFF;}
	.st3{fill:#48AE52;}
	.st4{fill:none;stroke:#48AE52;stroke-width:0.5;stroke-miterlimit:10;}
	.st5{fill:#FF5E33;}
	.st6{fill:none;stroke:#FF5E33;stroke-width:0.5;stroke-miterlimit:10;}
	.st7{fill:#FFBA9F;}
	.st8{fill:#336DFF;}
	.st9{fill:#011435;}
	.st10{fill:#242528;}
	.st11{fill:#FFFFFF;}
	.st12{fill:none;stroke:#58595B;stroke-width:5.000000e-02;stroke-miterlimit:10;}
	.st13{fill:#414042;}
</style>
<g>
	<g>
		
			<linearGradient id="SVGID_1_" gradientUnits="userSpaceOnUse" x1="50.5456" y1="-935.5773" x2="85.6224" y2="-874.8224" gradientTransform="matrix(1 0 0 -1 0 -876)">
			<stop  offset="0.3935" style="stop-color:#A8E1FF"/>
			<stop  offset="1" style="stop-color:#DCFDFE"/>
		</linearGradient>
		<path class="st0" d="M96.4,52.8h-57c-1.3,0-2.2-1-2.2-2.2V8.3c0-1.9,1.5-3.3,3.4-3.3h54.8c1.9,0,3.4,1.6,3.4,3.4v42.1
			C98.8,51.8,97.8,52.8,96.4,52.8z"/>
		
			<linearGradient id="SVGID_00000118368718262724208510000016534798221358401445_" gradientUnits="userSpaceOnUse" x1="37.25" y1="-883.162" x2="98.85" y2="-883.162" gradientTransform="matrix(1 0 0 -1 0 -876)">
			<stop  offset="1.978731e-03" style="stop-color:#27B0FC"/>
			<stop  offset="1" style="stop-color:#63CEF9"/>
		</linearGradient>
		<path style="fill:url(#SVGID_00000118368718262724208510000016534798221358401445_);" d="M98.8,10.1H37.2V6.4c0-1.3,1-2.2,2.2-2.2
			h57c1.3,0,2.2,1,2.2,2.2L98.8,10.1L98.8,10.1z"/>
		<rect x="40" y="17.3" class="st2" width="23.6" height="1.3"/>
		<rect x="39.7" y="12.1" class="st2" width="32.2" height="2.2"/>
		<rect x="40" y="19.6" class="st2" width="23.5" height="1.3"/>
		<rect x="50.5" y="42.7" class="st2" width="46.1" height="1.3"/>
		<rect x="48" y="45" class="st2" width="48.4" height="1.3"/>
		<rect x="43.8" y="47.3" class="st2" width="52.7" height="1.3"/>
		<ellipse class="st3" cx="42" cy="38.1" rx="0.8" ry="0.8"/>
		<ellipse class="st3" cx="50.7" cy="31.2" rx="0.9" ry="0.8"/>
		<ellipse class="st3" cx="60" cy="27.4" rx="0.9" ry="0.8"/>
		<ellipse class="st3" cx="69.2" cy="24.2" rx="0.9" ry="0.8"/>
		<ellipse class="st3" cx="78.4" cy="17.3" rx="0.9" ry="0.8"/>
		<ellipse class="st3" cx="87.2" cy="12" rx="0.9" ry="0.8"/>
		<polyline class="st4" points="42,38.1 50.7,31.2 60,27.4 69.2,24.2 78.4,17.3 87.2,12 		"/>
		<ellipse class="st5" cx="42.2" cy="40.7" rx="0.8" ry="0.8"/>
		<ellipse class="st5" cx="50.8" cy="39" rx="0.9" ry="0.8"/>
		<ellipse class="st5" cx="60.5" cy="37.3" rx="0.9" ry="0.8"/>
		<ellipse class="st5" cx="69.9" cy="37.3" rx="0.9" ry="0.8"/>
		<ellipse class="st5" cx="78.8" cy="35.5" rx="0.9" ry="0.8"/>
		<ellipse class="st5" cx="88.1" cy="35" rx="0.9" ry="0.8"/>
		<polyline class="st6" points="42.2,40.7 50.8,39 60.5,37.3 69.9,37.3 78.8,35.5 88.1,35 		"/>
	</g>
	<g>
		<g>
			<path class="st7" d="M18.8,14.4c-0.3,0.5,0.4,0.9,0.2,2c-0.1,0.6-0.4,1.4-1,2c-0.4,0.4-0.5,0.3-0.5,0.5c-0.3,0.7,1.1,1.4,2.2,3
				s1.1,2.8,1.5,2.8s0.4-1.3,1.5-3.1c0.6-0.9,1-1.5,1.8-2c0.6-0.4,1.2-0.5,1.2-0.8c0-0.2-0.5-0.3-1.1-0.7c0,0-0.9-0.7-1.2-1.8
				c-0.3-0.9,0.2-1.3-0.1-1.8C22.6,13.4,19.2,13.3,18.8,14.4z"/>
			<path class="st7" d="M21.6,16.2h-1.4c-1.6,0-2.8-1.3-2.8-2.8V7.8c0-1.6,1.3-2.8,2.8-2.8h1.4c1.6,0,2.8,1.3,2.8,2.8v5.6
				C24.5,14.9,23.1,16.2,21.6,16.2z"/>
			<path d="M17.5,9.8c-0.2-0.1-0.4-0.3-0.6-0.6c-0.1-0.1-0.3-0.4-0.4-1c-0.1-0.4,0-0.7,0-0.8c0-0.2,0.1-0.6,0.4-0.9
				c0.1-0.1,0.3-0.3,0.6-0.4c0.1,0,0.3,0,0.3,0s0.1-0.1,0.2,0c0.2,0.1,0.1,0.4,0.1,0.4s0,0-0.1,0l-0.1,0.1c-0.4,1.6-0.5,2.9-0.5,2.9
				C17.5,9.7,17.5,9.8,17.5,9.8z"/>
			<path class="st7" d="M17.8,9.6c-0.1-0.1-0.3-0.3-0.6-0.3c-0.1,0-0.4-0.1-0.6,0.1c-0.1,0.1-0.1,0.3,0,0.6c0.1,0.5,0.3,0.8,0.3,0.9
				c0.2,0.3,0.3,0.5,0.5,0.6c0.1,0.1,0.3,0.2,0.5,0.1C18.4,11.4,18.4,10.2,17.8,9.6z"/>
			<path d="M17.4,3c-0.1,0.1-0.7,0.4-0.8,1c-0.1,0.4,0,0.8,0.1,1c0,0.1,0.1,0.4,0.4,0.8C17.2,6,17.5,6.3,18,6.5
				c0.3,0.1,0.6,0.1,0.9,0.1c0.2,0,0.8,0,1.6-0.3c0.5-0.2,0.6-0.2,0.9-0.2c0.4,0,0.7,0.2,0.8,0.3c0.4,0.2,0.4,0.3,0.6,0.5
				c0.6,0.4,1.5,0.4,1.9-0.1c0.1-0.2,0.2-0.4,0.3-0.4C25,6.3,25.1,6,25,5.8c0-0.5-0.6-0.8-0.7-0.9c-0.5-0.3-1.1-0.2-1.4-0.2
				c-0.6,0.2-0.7,0.4-1.2,0.3c-0.4-0.1-0.6-0.3-0.8-0.4c-0.3-0.2-0.4-0.4-0.7-0.8c-0.2-0.2-0.5-0.5-0.8-0.7C19,2.8,18,2.6,17.4,3z"
				/>
			<path d="M24.2,9.9c0.2-0.1,0.5-0.2,0.7-0.4l0,0c0.8-0.6,0.8-1.4,0.8-1.4c0-0.5-0.2-0.9-0.3-1.1c-0.2-0.3-0.6-0.8-0.8-0.7
				c0,0-0.2,0.1-0.2,0.5c0,0-0.1-0.1-0.2-0.1C24,6.7,24,7,24.1,7c0,0,0,0,0.1,0c0,0,0,0,0,0.1C24.2,7.4,24.2,9.7,24.2,9.9z"/>
			<path class="st7" d="M24.1,9.6c0.1-0.1,0.3-0.3,0.6-0.3c0.1,0,0.4-0.1,0.5,0.1c0.1,0.1,0.1,0.3,0,0.6c-0.1,0.5-0.3,0.8-0.3,0.9
				c-0.2,0.3-0.3,0.5-0.5,0.6c-0.1,0.1-0.3,0.2-0.5,0.1C23.5,11.4,23.5,10.2,24.1,9.6z"/>
			<path class="st8" d="M17.8,19l-5.7,0.6L6.9,33.5c1.8,3.3,3.7,6.7,5.5,10l0.4-6.5l-1.4-2.6l1.2-3.2l4.9-6.2L17.8,19z"/>
			<polygon class="st7" points="45.5,24.2 47.3,22.3 48.5,22.7 56.2,22.6 48.8,24.5 46.7,25.4 			"/>
			<path class="st8" d="M24.9,18.6c2.3,0,4.6-0.1,6.9-0.1l4.6,11.6l9.1-6.2l1.7,1.8L35.8,35.9L29.5,27l-0.7,18.5H12.3l0.2-25
				c-0.1-0.3-0.3-0.6-0.4-0.9c1.8-0.3,3.7-0.6,5.5-0.8c1.1,1.5,2.2,3.1,3.4,4.6C22.2,21.8,23.5,20.2,24.9,18.6z"/>
			<polygon class="st7" points="36.2,89.2 36.7,92.1 34.8,92.5 33.8,89 			"/>
			<polygon class="st7" points="11.3,89.3 11.1,92.2 13.1,92.4 13.6,88.9 			"/>
			<polygon class="st9" points="12.3,45.1 11.7,67.1 10.7,89.7 14.3,89.7 16.4,70.4 20.6,48 25.9,64.1 27.9,69.7 33.3,89.2 
				37.3,89.2 32.8,70.2 29,45.1 			"/>
			<polygon class="st10" points="11.1,92.2 9,94.1 1.2,97.2 12.4,97.2 13.3,97.2 13.6,94.7 13.6,92.2 			"/>
			<polygon class="st10" points="36.8,92 39,93.9 46.8,97.2 35.7,97.2 34.8,97.2 34.3,94.6 34.3,92 			"/>
			<path class="st11" d="M19.6,13.6h2.5c-0.1,0.1-0.5,0.9-1.3,0.9C20.1,14.5,19.8,13.8,19.6,13.6z"/>
			<polyline class="st12" points="20.8,10.9 20.4,12 21,12.6 			"/>
			<circle class="st13" cx="22.5" cy="10.3" r="0.2"/>
			<circle class="st13" cx="19.2" cy="10.3" r="0.2"/>
		</g>
		<g>
			<g>
				<path class="st13" d="M12.3,27.8c0.3,4.6,0.3,9.2,0.2,13.9C12.1,37.1,12.1,32.4,12.3,27.8L12.3,27.8z"/>
			</g>
			<g>
				<path class="st13" d="M12.4,32.2c-0.2,0.8-0.5,1.5-0.9,2.3v-0.2c0.4,0.7,0.7,1.3,0.9,2c-0.5-0.6-0.9-1.2-1.4-1.9
					C11.5,33.6,11.8,32.9,12.4,32.2L12.4,32.2z"/>
			</g>
			<g>
				<path class="st13" d="M29.4,26.6c2.3,3,4.5,6,6.7,9.1h-0.3c1.9-1.7,3.8-3.4,5.6-5.1c1.9-1.7,3.8-3.3,5.7-5
					c-1.8,1.8-3.7,3.5-5.5,5.2c-1.9,1.8-3.8,3.5-5.8,5.3C33.7,33,31.5,29.9,29.4,26.6L29.4,26.6z"/>
			</g>
			<g>
				<path class="st13" d="M17.5,10.6c0.2,3-0.2,4.8,3.2,5.6C17,16.1,16.9,13.5,17.5,10.6L17.5,10.6z"/>
			</g>
			<g>
				<path class="st13" d="M45.7,24c0.5-0.6,1.1-1.3,1.7-1.9c0.3,0.1,1,0.2,1.1,0.3c2.5-0.1,5.1-0.1,7.6,0.1
					c-1.3,0.1-2.5,0.2-3.8,0.2s-2.6,0.1-3.8,0c-0.4-0.1-0.7-0.2-1.1-0.4h0.1C47,23,46.2,23.5,45.7,24L45.7,24z"/>
			</g>
			<g>
				<path class="st13" d="M17.5,18.7c-1.8,0.4-3.6,0.7-5.5,1l0.1-0.1c-0.4,1.1-0.8,2.2-1.2,3.2c-0.4,1.2-0.9,2.2-1.4,3.3
					c0.3-1.1,0.7-2.2,1.1-3.3c0.4-1.1,0.8-2.3,1.2-3.4C13.8,19.1,15.7,18.9,17.5,18.7L17.5,18.7z"/>
			</g>
		</g>
	</g>
</g>
</svg>
