<?xml version="1.0" encoding="utf-8"?>
<!-- Generator: Adobe Illustrator 26.0.1, SVG Export Plug-In . SVG Version: 6.00 Build 0)  -->
<svg version="1.1" id="Layer_1" xmlns="http://www.w3.org/2000/svg" xmlns:xlink="http://www.w3.org/1999/xlink" x="0px" y="0px"
	 viewBox="0 0 100 100" style="enable-background:new 0 0 100 100;" xml:space="preserve">
<style type="text/css">
	.st0{fill:url(#SVGID_1_);}
	.st1{fill:url(#SVGID_00000093892086450397729340000005726316510466609551_);}
	.st2{fill:none;stroke:#FFFFFF;stroke-width:0.4;stroke-miterlimit:10;}
	.st3{fill:#FFBA9F;}
	.st4{fill:#F15A24;}
	.st5{fill:#7F90B1;}
	.st6{fill:#E8F2FF;}
	.st7{fill:#98C2FF;}
	.st8{fill:#71FFFF;}
	.st9{fill:#C6DFFF;}
	.st10{fill:#FFFFFF;}
	.st11{fill:#336DFF;}
	.st12{fill:#011435;}
	.st13{fill:#242528;}
	.st14{fill:none;stroke:#58595B;stroke-width:5.000000e-02;stroke-miterlimit:10;}
	.st15{fill:#414042;}
</style>
<g>
	<g>
		
			<linearGradient id="SVGID_1_" gradientUnits="userSpaceOnUse" x1="192.3385" y1="1829.5023" x2="262.9604" y2="1829.5023" gradientTransform="matrix(0.9906 -7.423940e-03 7.392895e-03 0.9864 -183.4849 -1754.1288)">
			<stop  offset="0.3935" style="stop-color:#A7E0FF"/>
			<stop  offset="1" style="stop-color:#DBFCFD"/>
		</linearGradient>
		<path class="st0" d="M89.9,72.3l-68.3,0.5c-0.5,0-0.8-0.4-0.8-0.9l-0.4-45.6c0-0.5,0.4-0.9,0.8-0.9l68.3-0.5
			c0.5,0,0.8,0.4,0.8,0.9l0.4,45.6C90.7,71.9,90.4,72.3,89.9,72.3z"/>
		
			<linearGradient id="SVGID_00000155866930084123568550000008078266769489879962_" gradientUnits="userSpaceOnUse" x1="188.8288" y1="1781.0212" x2="259.45" y2="1781.0212" gradientTransform="matrix(0.9917 -7.432627e-03 7.494450e-03 1 -180.1301 -1751.6497)">
			<stop  offset="1.978731e-03" style="stop-color:#27AFFB"/>
			<stop  offset="1" style="stop-color:#63CDF8"/>
		</linearGradient>
		<path style="fill:url(#SVGID_00000155866930084123568550000008078266769489879962_);" d="M90.5,30.3l-70,0.5v-4.6
			c0-0.5,0.4-0.9,0.9-1l68.2-0.5c0.5,0,0.9,0.5,0.9,0.9V30.3z"/>
		<line class="st2" x1="20.5" y1="30.8" x2="90.5" y2="30.3"/>
		<line class="st2" x1="20.6" y1="36.8" x2="90.5" y2="36.3"/>
		<line class="st2" x1="20.6" y1="42.9" x2="90.6" y2="42.3"/>
		<line class="st2" x1="20.6" y1="48.8" x2="90.6" y2="48.3"/>
		<line class="st2" x1="20.6" y1="54.8" x2="90.6" y2="54.3"/>
		<line class="st2" x1="20.7" y1="60.8" x2="90.6" y2="60.3"/>
		<line class="st2" x1="20.7" y1="66.7" x2="90.7" y2="66.2"/>
		<line class="st2" x1="31.6" y1="72.7" x2="31.4" y2="30.7"/>
		<line class="st2" x1="38.5" y1="72.7" x2="38.2" y2="30.7"/>
		<line class="st2" x1="45" y1="72.6" x2="44.7" y2="30.7"/>
		<line class="st2" x1="51.6" y1="72.6" x2="51.2" y2="30.7"/>
		<line class="st2" x1="58" y1="72.4" x2="57.7" y2="30.5"/>
		<line class="st2" x1="64.6" y1="72.4" x2="64.3" y2="30.5"/>
		<line class="st2" x1="71.1" y1="72.4" x2="70.8" y2="30.5"/>
		<line class="st2" x1="77.6" y1="72.3" x2="77.3" y2="30.5"/>
		<line class="st2" x1="84.2" y1="72.4" x2="83.8" y2="30.3"/>
	</g>
	<path class="st3" d="M19.5,14.1c-0.3,0.5,0.4,0.9,0.2,2c-0.1,0.6-0.4,1.4-1,2c-0.4,0.4-0.5,0.3-0.5,0.5c-0.3,0.7,1.1,1.4,2.2,3.1
		c1.1,1.6,1.1,2.9,1.5,2.9c0.5,0,0.4-1.3,1.6-3.2c0.6-0.9,1-1.6,1.8-2c0.6-0.4,1.2-0.5,1.2-0.8c0-0.2-0.5-0.3-1.1-0.8
		c0,0-0.9-0.7-1.2-1.8c-0.3-1,0.2-1.3-0.1-1.8C23.5,13,20.1,13,19.5,14.1z"/>
	<path class="st3" d="M22.4,15.9H21c-1.6,0-2.9-1.3-2.9-2.9V7.3c0-1.6,1.3-2.9,2.9-2.9h1.4c1.6,0,2.9,1.3,2.9,2.9V13
		C25.3,14.6,24,15.9,22.4,15.9z"/>
	<path d="M18.2,9.4c-0.2-0.1-0.4-0.3-0.7-0.6c-0.1-0.1-0.3-0.5-0.4-1c-0.1-0.4,0-0.7,0-0.8c0-0.2,0.1-0.6,0.4-0.9
		c0.1-0.1,0.3-0.3,0.6-0.4c0.1,0,0.3,0,0.4,0c0,0,0.1-0.1,0.2,0c0.2,0.1,0.1,0.4,0.1,0.4s0,0-0.1,0l-0.1,0.1
		c-0.4,1.6-0.5,2.9-0.5,2.9C18.2,9.3,18.2,9.4,18.2,9.4z"/>
	<path class="st3" d="M18.6,9.2c-0.1-0.1-0.3-0.3-0.6-0.3c-0.1,0-0.4-0.1-0.6,0.1c-0.1,0.1-0.1,0.3,0,0.6c0.1,0.5,0.3,0.9,0.4,0.9
		c0.2,0.3,0.3,0.5,0.5,0.6c0.1,0.1,0.3,0.2,0.5,0.1C19.1,11,19.2,9.8,18.6,9.2z"/>
	<path d="M18.1,2.6c-0.1,0.1-0.7,0.4-0.9,1c-0.1,0.4,0,0.8,0.1,1c0,0.1,0.1,0.5,0.4,0.8c0.1,0.2,0.4,0.5,1,0.7
		c0.3,0.1,0.6,0.1,0.9,0.1c0.2,0,0.8,0,1.6-0.3c0.5-0.2,0.6-0.2,0.9-0.2c0.4,0,0.7,0.2,0.9,0.3c0.4,0.2,0.4,0.3,0.6,0.5
		c0.6,0.4,1.5,0.4,1.9-0.1c0.1-0.2,0.2-0.4,0.3-0.5C25.9,5.8,26,5.6,26,5.4c0-0.5-0.6-0.8-0.7-0.9c-0.5-0.3-1.1-0.2-1.4-0.2
		c-0.7,0.1-0.9,0.3-1.3,0.2s-0.7-0.3-0.8-0.4c-0.3-0.2-0.4-0.4-0.7-0.8c-0.2-0.2-0.5-0.5-0.9-0.7C19.7,2.3,18.8,2.1,18.1,2.6z"/>
	<path d="M25.1,9.5c0.2-0.1,0.5-0.2,0.7-0.4l0,0c0.8-0.6,0.8-1.5,0.8-1.5c0-0.6-0.2-1-0.3-1.1c-0.2-0.3-0.6-0.8-0.9-0.7
		c0,0-0.2,0.1-0.2,0.5c0,0-0.1-0.1-0.2,0c-0.2,0-0.2,0.3-0.1,0.4c0,0,0,0,0.1,0c0,0,0,0,0,0.1C25.1,7,25.1,9.3,25.1,9.5z"/>
	<g>
		<polygon class="st4" points="1,86.5 32.6,63.2 57.9,71.8 98.2,42.3 58.5,74.3 33.1,66 1,89.8 		"/>
		<polygon class="st4" points="94.4,41.2 98.4,46.1 99,41.4 		"/>
	</g>
	<path class="st3" d="M25,9.2c0.1-0.1,0.3-0.3,0.6-0.3c0.1,0,0.4-0.1,0.6,0.1c0.1,0.1,0.1,0.3,0,0.6c-0.1,0.5-0.3,0.9-0.4,0.9
		c-0.2,0.3-0.3,0.5-0.5,0.6c-0.1,0.1-0.3,0.2-0.5,0.1C24.4,11,24.4,9.8,25,9.2z"/>
	<g>
		<path class="st5" d="M77.2,97.8H42.4c-1.4,0-2.6-1.2-2.6-2.6V47.7c0-1.4,1.2-2.6,2.6-2.6h34.7c1.4,0,2.6,1.2,2.6,2.6v47.5
			C79.7,96.7,78.6,97.8,77.2,97.8z"/>
		<rect x="43.4" y="48.8" class="st6" width="33.5" height="11.8"/>
		<path class="st7" d="M67,66.4H43.9c-0.3,0-0.6-0.2-0.6-0.6V64c0-0.3,0.2-0.6,0.6-0.6h23c0.3,0,0.6,0.2,0.6,0.6v1.8
			C67.6,66.2,67.3,66.4,67,66.4z"/>
		<path class="st8" d="M76.5,66.4h-7.1c-0.2,0-0.3-0.1-0.3-0.3v-2.2c0-0.2,0.1-0.3,0.3-0.3h7.1c0.2,0,0.3,0.1,0.3,0.3v2.2
			C76.8,66.3,76.7,66.4,76.5,66.4z"/>
		<path class="st7" d="M76.3,75.6h-6.7c-0.3,0-0.5-0.2-0.5-0.5v-6.2c0-0.3,0.2-0.5,0.5-0.5h6.7c0.3,0,0.5,0.2,0.5,0.5v6.2
			C76.8,75.3,76.6,75.6,76.3,75.6z"/>
		<g>
			<path class="st9" d="M50.2,75.6H44c-0.3,0-0.5-0.2-0.5-0.5v-6.2c0-0.3,0.2-0.5,0.5-0.5h6.2c0.3,0,0.5,0.2,0.5,0.5v6.2
				C50.7,75.3,50.5,75.6,50.2,75.6z"/>
			<path class="st9" d="M58.7,75.6h-6.2c-0.3,0-0.5-0.2-0.5-0.5v-6.2c0-0.3,0.2-0.5,0.5-0.5h6.2c0.3,0,0.5,0.2,0.5,0.5v6.2
				C59.2,75.3,59,75.6,58.7,75.6z"/>
			<path class="st9" d="M67.2,75.6H61c-0.3,0-0.5-0.2-0.5-0.5v-6.2c0-0.3,0.2-0.5,0.5-0.5h6.2c0.3,0,0.5,0.2,0.5,0.5v6.2
				C67.7,75.3,67.4,75.6,67.2,75.6z"/>
		</g>
		<g>
			<path class="st9" d="M50.2,84.2H44c-0.3,0-0.5-0.2-0.5-0.5v-6.2c0-0.3,0.2-0.5,0.5-0.5h6.2c0.3,0,0.5,0.2,0.5,0.5v6.2
				C50.7,84,50.5,84.2,50.2,84.2z"/>
			<path class="st9" d="M58.7,84.2h-6.2c-0.3,0-0.5-0.2-0.5-0.5v-6.2c0-0.3,0.2-0.5,0.5-0.5h6.2c0.3,0,0.5,0.2,0.5,0.5v6.2
				C59.2,84,59,84.2,58.7,84.2z"/>
			<path class="st9" d="M67.2,84.2H61c-0.3,0-0.5-0.2-0.5-0.5v-6.2c0-0.3,0.2-0.5,0.5-0.5h6.2c0.3,0,0.5,0.2,0.5,0.5v6.2
				C67.7,84,67.4,84.2,67.2,84.2z"/>
		</g>
		<g>
			<path class="st9" d="M50.2,92.9H44c-0.3,0-0.5-0.2-0.5-0.5v-6.2c0-0.3,0.2-0.5,0.5-0.5h6.2c0.3,0,0.5,0.2,0.5,0.5v6.2
				C50.7,92.6,50.5,92.9,50.2,92.9z"/>
			<path class="st9" d="M58.7,92.9h-6.2c-0.3,0-0.5-0.2-0.5-0.5v-6.2c0-0.3,0.2-0.5,0.5-0.5h6.2c0.3,0,0.5,0.2,0.5,0.5v6.2
				C59.2,92.6,59,92.9,58.7,92.9z"/>
			<path class="st9" d="M67.2,92.9H61c-0.3,0-0.5-0.2-0.5-0.5v-6.2c0-0.3,0.2-0.5,0.5-0.5h6.2c0.3,0,0.5,0.2,0.5,0.5v6.2
				C67.7,92.6,67.4,92.9,67.2,92.9z"/>
		</g>
		<path class="st7" d="M76.1,92.9h-6.2c-0.4,0-0.8-0.3-0.8-0.8V77.8c0-0.4,0.3-0.8,0.8-0.8h6.2c0.4,0,0.8,0.3,0.8,0.8v14.4
			C76.8,92.5,76.5,92.9,76.1,92.9z"/>
		<path class="st10" d="M63.4,48.8l-4.7,11.8c1.9,0,3.8,0,5.8,0c1.6-4,3.1-7.9,4.7-11.8H63.4z"/>
	</g>
	<path class="st11" d="M18.5,18.8l-5.8,0.6l-5.3,14c1.9,3.4,3.7,6.8,5.6,10.2l0.5-6.6l-1.4-2.6l1.2-3.2l4.9-6.3L18.5,18.8z"/>
	<path class="st3" d="M40.5,43.5c0.3,0.9,0.5,1.8,0.8,2.7c0.4-0.3,0.9-0.5,1.3-0.8c2.4,0.1,4.8,0.2,7.2,0.3l-6.3-1.9
		c-0.3-0.4-0.6-0.7-0.8-1.1C41.9,43,41.2,43.2,40.5,43.5z"/>
	<path class="st11" d="M25.7,18.3c2.3,0,4.7-0.1,7-0.1c1.5,4.7,3,9.4,4.5,14.1c1.9,3.5,3.7,7.1,5.6,10.6c-0.8,0.2-1.6,0.3-2.4,0.5
		c-1.8-2.6-3.5-5.1-5.3-7.7c-1.5-3-3.1-5.9-4.6-8.9l-0.7,18.8H12.9l0.2-25.4c-0.1-0.3-0.3-0.6-0.4-1c1.9-0.3,3.7-0.6,5.6-0.9
		c1.1,1.6,2.3,3.1,3.4,4.7C23,21.5,24.4,19.9,25.7,18.3z"/>
	<polygon class="st3" points="37.3,90 37.7,92.8 35.7,93.2 34.9,89.8 	"/>
	<polygon class="st3" points="11.9,90.1 11.7,93.1 13.8,93.3 14.3,89.7 	"/>
	<path class="st12" d="M12.9,45.3l-0.6,22.3l-1,22.9H15l2.1-19.6l4.3-22.7l5.3,16.4l2,5.7l5.6,19.8l4.1,0.1l-4.7-19.4
		c-1.3-8.4-2.6-16.9-4-25.3C24.2,45.3,18.6,45.3,12.9,45.3z"/>
	<polygon class="st13" points="11.7,93.1 9.6,94.8 1.7,97.7 13,97.7 13.9,97.7 14.3,95.4 14.3,93.1 	"/>
	<polygon class="st13" points="37.9,92.7 40.1,94.6 48,97.7 36.7,97.7 35.7,97.7 35.4,95.2 35.4,92.7 	"/>
	<path class="st10" d="M20.5,13.3H23c-0.1,0.1-0.5,0.9-1.3,0.9C21,14.2,20.5,13.4,20.5,13.3z"/>
	<polyline class="st14" points="21.6,10.5 21.2,11.6 21.7,12.3 	"/>
	<circle class="st15" cx="23.3" cy="9.9" r="0.2"/>
	<circle class="st15" cx="20.1" cy="9.9" r="0.2"/>
	<g>
		<g>
			<path class="st15" d="M12.9,27.7c0.3,4.7,0.3,9.4,0.2,14.1C12.7,37.1,12.7,32.4,12.9,27.7L12.9,27.7z"/>
		</g>
		<g>
			<path class="st15" d="M13,32.1c-0.2,0.8-0.5,1.6-0.9,2.3v-0.2c0.4,0.7,0.7,1.3,1,2c-0.5-0.6-0.9-1.3-1.4-1.9
				C12.1,33.6,12.4,32.8,13,32.1L13,32.1z"/>
		</g>
		<g>
			<path class="st15" d="M18.2,10.2c0.2,3-0.3,4.9,3.3,5.7C17.8,15.8,17.6,13.2,18.2,10.2L18.2,10.2z"/>
		</g>
		<g>
			<path class="st15" d="M18.3,18.5c-1.8,0.4-3.7,0.7-5.6,1l0.2-0.1c-0.4,1.1-0.8,2.2-1.3,3.3c-0.4,1.1-0.9,2.2-1.4,3.2
				c0.3-1.1,0.7-2.2,1.1-3.4c0.4-1.1,0.8-2.3,1.3-3.4C14.5,18.9,16.4,18.6,18.3,18.5L18.3,18.5z"/>
		</g>
	</g>
	<g>
		<path class="st15" d="M42.9,43c0.2,0.2,0.4,0.5,0.7,0.8l0,0c2.2,0.5,4.3,1.1,6.3,2c-2.2-0.4-4.3-1-6.4-1.8l0,0
			C43.2,43.6,43,43.3,42.9,43L42.9,43z"/>
	</g>
</g>
</svg>
