<?xml version="1.0" encoding="utf-8"?>
<!-- Generator: Adobe Illustrator 26.0.1, SVG Export Plug-In . SVG Version: 6.00 Build 0)  -->
<svg version="1.1" id="Layer_1" xmlns="http://www.w3.org/2000/svg" xmlns:xlink="http://www.w3.org/1999/xlink" x="0px" y="0px"
	 viewBox="0 0 100 100" style="enable-background:new 0 0 100 100;" xml:space="preserve">
<style type="text/css">
	.st0{fill:#FFB99E;}
	.st1{fill:#C6DFFF;}
	.st2{fill:#6EC0FF;}
	.st3{fill:none;stroke:#FFFFFF;stroke-width:0.5;stroke-miterlimit:10;}
	.st4{fill:#336DFF;}
	.st5{fill:#FFBA9F;}
	.st6{fill:#242528;}
	.st7{fill:url(#SVGID_1_);}
	.st8{fill:url(#SVGID_00000067228098758145132160000011855161613755633584_);}
	.st9{fill:#DBFCFD;}
	.st10{fill:url(#SVGID_00000124851878534453452020000011260493008325995431_);}
	.st11{fill:url(#SVGID_00000154409667434606892610000007085720067338858684_);}
	.st12{fill:url(#SVGID_00000155112319345841295410000009594993049436201148_);}
	.st13{fill:url(#SVGID_00000091721873191042645650000007479394997843944368_);}
	.st14{fill:url(#SVGID_00000011745715639751981320000008734883515215426231_);}
	.st15{fill:none;stroke:#1A1A1A;stroke-width:2;stroke-miterlimit:10;}
	.st16{fill:#7F90B1;}
	.st17{fill:#99B0D5;}
	.st18{fill:#333D49;}
	.st19{fill:#011435;}
	.st20{fill:none;stroke:#58595B;stroke-width:5.000000e-02;stroke-miterlimit:10;}
	.st21{fill:#414042;}
	.st22{fill:#333333;}
	.st23{fill:#B1CCE9;}
	.st24{fill:#FFFFFF;}
	.st25{fill:none;stroke:#333333;stroke-width:0.25;stroke-miterlimit:10;}
</style>
<path class="st0" d="M43.4,22.8c-0.3,0.5,0.4,0.8,0.2,1.9c-0.1,0.6-0.4,1.3-1,1.9c-0.3,0.3-0.4,0.3-0.5,0.5c-0.2,0.7,1,1.3,2.1,2.9
	c1,1.5,1,2.7,1.4,2.7s0.3-1.2,1.5-3c0.5-0.9,0.9-1.5,1.7-1.9c0.6-0.3,1.2-0.5,1.2-0.7c0-0.2-0.5-0.3-1-0.7c0,0-0.9-0.7-1.1-1.7
	c-0.2-0.9,0.2-1.2-0.1-1.7C47.2,21.8,44,21.7,43.4,22.8z"/>
<path class="st0" d="M46.2,24.5h-1.3c-1.5,0-2.7-1.2-2.7-2.7v-5.3c0-1.5,1.2-2.7,2.7-2.7h1.3c1.5,0,2.7,1.2,2.7,2.7v5.3
	C48.9,23.3,47.7,24.5,46.2,24.5z"/>
<path d="M42.2,18.4c-0.2-0.1-0.4-0.3-0.6-0.6c-0.1-0.1-0.3-0.4-0.4-1c-0.1-0.4,0-0.6,0-0.7c0-0.2,0.1-0.5,0.4-0.9
	c0.1-0.1,0.3-0.3,0.6-0.4c0.1,0,0.2,0,0.3,0c0,0,0.1-0.1,0.2,0c0.2,0.1,0.1,0.4,0.1,0.4c0,0,0,0-0.1,0c0,0-0.1,0.1-0.1,0.1
	c-0.4,1.5-0.5,2.8-0.5,2.8C42.2,18.3,42.2,18.4,42.2,18.4z"/>
<path class="st0" d="M42.5,18.2c-0.1-0.1-0.2-0.2-0.5-0.3c-0.1,0-0.4-0.1-0.5,0.1c-0.1,0.1-0.1,0.3,0,0.5c0.1,0.5,0.3,0.8,0.3,0.9
	c0.2,0.2,0.3,0.4,0.5,0.6c0.1,0.1,0.3,0.2,0.5,0.1C43.1,19.9,43.1,18.8,42.5,18.2z"/>
<path d="M42.1,11.9c-0.1,0.1-0.7,0.4-0.8,1c-0.1,0.4,0,0.7,0.1,0.9c0,0.1,0.1,0.4,0.4,0.8c0.1,0.1,0.4,0.5,0.9,0.7
	c0.3,0.1,0.5,0.1,0.9,0.1c0.2,0,0.8,0,1.5-0.3c0.5-0.1,0.5-0.2,0.8-0.2c0.4,0,0.7,0.2,0.8,0.3c0.3,0.2,0.3,0.3,0.6,0.5
	c0.5,0.3,1.4,0.3,1.8-0.1c0.1-0.1,0.2-0.4,0.3-0.4c0.1-0.1,0.2-0.4,0.1-0.6c0-0.5-0.6-0.8-0.7-0.8c-0.5-0.3-1-0.2-1.3-0.1
	c-0.6,0.1-0.7,0.3-1.1,0.2c-0.4-0.1-0.6-0.3-0.8-0.4c-0.3-0.2-0.3-0.4-0.7-0.7c-0.2-0.2-0.5-0.5-0.8-0.7
	C43.6,11.7,42.8,11.6,42.1,11.9z"/>
<path d="M48.7,18.5c0.2,0,0.5-0.2,0.7-0.4c0,0,0,0,0,0c0.7-0.6,0.8-1.4,0.8-1.4c0-0.5-0.2-0.9-0.2-1c-0.2-0.3-0.6-0.7-0.8-0.6
	c0,0-0.2,0.1-0.2,0.5c0,0-0.1-0.1-0.2-0.1c-0.2,0-0.2,0.3-0.1,0.3c0,0,0,0,0,0c0,0,0,0,0,0.1C48.7,16.1,48.7,18.3,48.7,18.5z"/>
<g>
	<rect x="24.4" y="35.2" class="st1" width="15.7" height="11.5"/>
	<rect x="36.9" y="36" class="st2" width="1.6" height="10.1"/>
	<rect x="34.6" y="38" class="st2" width="1.6" height="8.1"/>
	<rect x="32.3" y="40" class="st2" width="1.6" height="6.2"/>
	<rect x="30" y="41.6" class="st2" width="1.6" height="4.5"/>
	<rect x="27.7" y="43.5" class="st2" width="1.6" height="2.6"/>
	<rect x="25.4" y="45.2" class="st2" width="1.6" height="1"/>
	<polyline class="st3" points="39.4,46.2 25,46.2 25,36.2 	"/>
</g>
<path class="st0" d="M48.6,18.2c0.1-0.1,0.2-0.2,0.5-0.3c0.1,0,0.4-0.1,0.5,0.1c0.1,0.1,0.1,0.3,0,0.5c-0.1,0.5-0.3,0.8-0.3,0.9
	c-0.2,0.2-0.3,0.4-0.5,0.6c-0.1,0.1-0.3,0.2-0.5,0.1C48,19.9,48,18.8,48.6,18.2z"/>
<path class="st4" d="M42.5,27.2L37,27.7l-5,13.3c1.7,3.2,3.5,6.4,5.2,9.6l0.5-6.2l-1.3-2.5l1.1-3l4.6-5.9L42.5,27.2z"/>
<path class="st0" d="M70.3,33.5c0.5-0.8,1-1.5,1.4-2.3l-0.4-1l-0.8-7.3l-0.9,7.2c-0.2,0.6-0.4,1.2-0.5,1.8
	C69.5,32.5,69.9,33,70.3,33.5z"/>
<path class="st4" d="M49.3,26.8c2.2,0,4.4-0.1,6.6-0.1l4.4,11.1l8.7-5.9l1.6,1.7l-10.8,9.8l-5.9-8.5l-0.7,17.7H37.3l0.2-23.9
	c-0.1-0.3-0.3-0.6-0.4-0.9c1.8-0.3,3.5-0.5,5.2-0.8c1.1,1.5,2.1,2.9,3.2,4.4C46.8,29.8,48,28.3,49.3,26.8z"/>
<path class="st5" d="M59.8,92.9c0.2,0.8,0.5,1.5,0.8,2.3c-0.7,0-1.3,0.1-2,0.1c-0.3-0.8-0.5-1.7-0.8-2.5
	C58.4,92.8,59.1,92.8,59.8,92.9z"/>
<polygon class="st6" points="60.6,95.1 62.4,96.3 69,98.3 59.5,98.3 58.8,98.3 58.5,96.7 58.5,95.1 "/>
<g>
	
		<linearGradient id="SVGID_1_" gradientUnits="userSpaceOnUse" x1="11.2694" y1="-2.1917" x2="35.7106" y2="40.1417" gradientTransform="matrix(1 0 0 -1 0 102)">
		<stop  offset="0.3935" style="stop-color:#A7E0FF"/>
		<stop  offset="1" style="stop-color:#DBFCFD"/>
	</linearGradient>
	<rect x="2" y="67.2" class="st7" width="43" height="31.6"/>
	
		<linearGradient id="SVGID_00000028317883296904522790000011636747060412908702_" gradientUnits="userSpaceOnUse" x1="2.02" y1="32.14" x2="45" y2="32.14" gradientTransform="matrix(1 0 0 -1 0 102)">
		<stop  offset="1.978731e-03" style="stop-color:#27B0FC"/>
		<stop  offset="1" style="stop-color:#63CEF9"/>
	</linearGradient>
	<polygon style="fill:url(#SVGID_00000028317883296904522790000011636747060412908702_);" points="45,72.6 2,72.5 2,67.1 45,67.2 	
		"/>
	<polygon class="st9" points="16.1,77.7 2.9,77.6 2.9,73.4 16.1,73.4 	"/>
	<polygon class="st9" points="16.1,82.7 2.9,82.7 2.9,78.5 16.1,78.5 	"/>
	<polygon class="st9" points="16.1,87.8 2.9,87.8 2.9,83.6 16.1,83.6 	"/>
	<polygon class="st9" points="16.1,92.9 2.9,92.9 2.9,88.7 16.1,88.7 	"/>
	<rect x="3" y="93.7" class="st9" width="13.2" height="4.2"/>
	<polygon class="st9" points="44,77.7 17,77.7 17,73.4 44,73.5 	"/>
	<polygon class="st9" points="44,82.8 17,82.7 17,78.5 44,78.6 	"/>
	<polygon class="st9" points="44,87.8 17,87.8 17,83.6 44,83.6 	"/>
	<polygon class="st9" points="44,92.9 17,92.9 17,88.7 44,88.7 	"/>
	<polygon class="st9" points="44.2,97.9 17.2,97.9 17.2,93.7 44.2,93.7 	"/>
	<polygon class="st9" points="44.1,77.7 31.1,77.7 31.1,73.5 44.1,73.5 	"/>
	<polygon class="st9" points="44.1,82.8 31.1,82.8 31.1,78.6 44.1,78.6 	"/>
	<polygon class="st9" points="44.1,87.8 31.1,87.8 31.1,83.6 44.1,83.6 	"/>
	<rect x="31.1" y="88.7" class="st9" width="13.1" height="4.2"/>
	<rect x="31.1" y="93.8" class="st9" width="13.1" height="4.2"/>
	
		<linearGradient id="SVGID_00000094613124399646605310000015002038392914693762_" gradientUnits="userSpaceOnUse" x1="6.55" y1="26.425" x2="12.43" y2="26.425" gradientTransform="matrix(1 0 0 -1 0 102)">
		<stop  offset="1.978731e-03" style="stop-color:#27B0FC"/>
		<stop  offset="1" style="stop-color:#63CEF9"/>
	</linearGradient>
	<rect x="6.6" y="74.9" style="fill:url(#SVGID_00000094613124399646605310000015002038392914693762_);" width="5.9" height="1.3"/>
	<rect x="19.5" y="74.7" class="st1" width="22.2" height="0.6"/>
	<rect x="19.5" y="75.6" class="st1" width="18.1" height="0.6"/>
	<rect x="19.5" y="80" class="st1" width="22.2" height="0.6"/>
	<rect x="19.5" y="80.8" class="st1" width="22.2" height="0.6"/>
	
		<linearGradient id="SVGID_00000136370505240209183530000000616301583734680483_" gradientUnits="userSpaceOnUse" x1="6.55" y1="21.365" x2="12.43" y2="21.365" gradientTransform="matrix(1 0 0 -1 0 102)">
		<stop  offset="1.978731e-03" style="stop-color:#27B0FC"/>
		<stop  offset="1" style="stop-color:#63CEF9"/>
	</linearGradient>
	<rect x="6.6" y="80" style="fill:url(#SVGID_00000136370505240209183530000000616301583734680483_);" width="5.9" height="1.3"/>
	
		<linearGradient id="SVGID_00000111192504532611970470000007379214289476952764_" gradientUnits="userSpaceOnUse" x1="6.55" y1="16.305" x2="12.43" y2="16.305" gradientTransform="matrix(1 0 0 -1 0 102)">
		<stop  offset="1.978731e-03" style="stop-color:#27B0FC"/>
		<stop  offset="1" style="stop-color:#63CEF9"/>
	</linearGradient>
	<rect x="6.6" y="85.1" style="fill:url(#SVGID_00000111192504532611970470000007379214289476952764_);" width="5.9" height="1.3"/>
	
		<linearGradient id="SVGID_00000134241263044294281140000016564808136301111447_" gradientUnits="userSpaceOnUse" x1="6.55" y1="11.235" x2="12.43" y2="11.235" gradientTransform="matrix(1 0 0 -1 0 102)">
		<stop  offset="1.978731e-03" style="stop-color:#27B0FC"/>
		<stop  offset="1" style="stop-color:#63CEF9"/>
	</linearGradient>
	<rect x="6.6" y="90.1" style="fill:url(#SVGID_00000134241263044294281140000016564808136301111447_);" width="5.9" height="1.3"/>
	
		<linearGradient id="SVGID_00000106130377897243667990000009612009705379395994_" gradientUnits="userSpaceOnUse" x1="6.55" y1="6.175" x2="12.43" y2="6.175" gradientTransform="matrix(1 0 0 -1 0 102)">
		<stop  offset="1.978731e-03" style="stop-color:#27B0FC"/>
		<stop  offset="1" style="stop-color:#63CEF9"/>
	</linearGradient>
	<rect x="6.6" y="95.2" style="fill:url(#SVGID_00000106130377897243667990000009612009705379395994_);" width="5.9" height="1.3"/>
	<rect x="19.5" y="84.6" class="st1" width="22.2" height="0.6"/>
	<rect x="19.5" y="85.5" class="st1" width="18.6" height="0.6"/>
	<rect x="19.5" y="90.1" class="st1" width="22.2" height="0.6"/>
	<rect x="19.5" y="91" class="st1" width="22.2" height="0.6"/>
	<rect x="19.5" y="86.3" class="st1" width="20.3" height="0.6"/>
	<rect x="19.5" y="95" class="st1" width="22.2" height="0.6"/>
	<rect x="19.5" y="95.8" class="st1" width="18.1" height="0.6"/>
</g>
<g>
	<path class="st15" d="M26.3,79.9h-5.6c-1.8,0-3.2-1.4-3.2-3.2v-9.5c0-1.8,1.4-3.2,3.2-3.2h5.6c1.8,0,3.2,1.4,3.2,3.2v9.5
		C29.5,78.5,28.1,79.9,26.3,79.9z"/>
	<path class="st16" d="M30.6,95.1H16.4c-1.5,0-2.7-1.2-2.7-2.7V77.5c0-1.5,1.2-2.7,2.7-2.7h14.1c1.5,0,2.7,1.2,2.7,2.7v14.9
		C33.3,93.9,32.1,95.1,30.6,95.1z"/>
	<path class="st17" d="M32.4,81.4H14.6c-0.9,0-1.6-0.7-1.6-1.6v-3.4c0-0.9,0.7-1.6,1.6-1.6h17.7c0.9,0,1.6,0.7,1.6,1.6v3.4
		C34,80.7,33.2,81.4,32.4,81.4z"/>
	<ellipse class="st18" cx="14.4" cy="78.1" rx="0.6" ry="0.6"/>
	<ellipse class="st18" cx="32.7" cy="78.1" rx="0.6" ry="0.6"/>
	<ellipse class="st18" cx="23.8" cy="85.2" rx="1.5" ry="1.4"/>
	<polygon class="st18" points="21.5,92.2 26.1,92.2 23.8,85.2 	"/>
</g>
<path class="st0" d="M36.4,94c0,0.5,0,1,0,1.5c0.7,0.2,1.4,0.5,2.1,0.8c0.1-0.8,0.1-1.6,0.2-2.4C37.9,93.9,37.2,93.9,36.4,94z"/>
<path class="st19" d="M37.3,52.1l-0.6,21C36.5,80,36.2,87,36,94c1,0,2,0,3,0c0.7-5.9,1.4-11.9,2.2-17.8l4.1-21.4l5,15.4l1.8,5.3
	c2,6.2,4,12.3,5.9,18.5c1,0,2,0,3,0c-1.4-6-2.8-12-4.1-18l-3.6-23.9H37.3z"/>
<polyline class="st20" points="45.3,19.4 45,20.5 45.5,21.1 "/>
<circle class="st21" cx="47" cy="18.8" r="0.2"/>
<circle class="st21" cx="44" cy="18.8" r="0.2"/>
<g>
	<g>
		<path class="st21" d="M37.3,35.6c0.3,4.4,0.3,8.8,0.2,13.2C37,44.4,37,40,37.3,35.6L37.3,35.6z"/>
	</g>
	<g>
		<path class="st21" d="M37.3,39.8c-0.2,0.8-0.5,1.5-0.8,2.2l0-0.2c0.3,0.6,0.7,1.2,0.9,1.9c-0.5-0.6-0.9-1.2-1.3-1.8
			C36.4,41.1,36.8,40.4,37.3,39.8L37.3,39.8z"/>
	</g>
	<g>
		<path class="st21" d="M53.5,34.5c2.2,2.9,4.3,5.8,6.4,8.7l-0.3,0c1.8-1.6,3.6-3.2,5.4-4.9c1.8-1.6,3.6-3.2,5.5-4.8
			c-1.7,1.7-3.5,3.3-5.2,5c-1.8,1.7-3.7,3.4-5.5,5C57.6,40.5,55.6,37.5,53.5,34.5L53.5,34.5z"/>
	</g>
	<g>
		<path class="st21" d="M42.2,19.1c0.2,2.8-0.2,4.5,3.1,5.3C41.8,24.5,41.7,21.9,42.2,19.1L42.2,19.1z"/>
	</g>
	<g>
		<path class="st21" d="M42.3,26.9c-1.7,0.4-3.5,0.7-5.2,1l0.2-0.1c-0.4,1-0.8,2.1-1.2,3.1c-0.4,1-0.8,2-1.3,3
			c0.3-1.1,0.7-2.1,1-3.2c0.4-1.1,0.8-2.2,1.2-3.2C38.7,27.3,40.5,27,42.3,26.9L42.3,26.9z"/>
	</g>
</g>
<polygon class="st6" points="36.4,95.2 34.6,96.4 28,98.4 37.5,98.4 38.3,98.4 38.6,96.8 38.6,95.2 "/>
<g>
	<path class="st22" d="M44.1,22c0.7,0.3,1.3,0.4,2.1,0.5C45.5,22.8,44.6,22.6,44.1,22L44.1,22z"/>
</g>
<path d="M82.4,20.8c-0.4,0.8-0.8,1.7-0.4,2.5c0.4,0.9,1.4,1.1,2.5,1.5c1.9,0.5,3.4,0.4,6.1,0c1.2-0.2,1.6-0.3,1.9-0.6
	c0.7-0.9-0.1-2.7-0.6-3.6c-0.5-0.8-1.2-1.3-1.7-1.7c-1.4-1-2.8-2-4.4-1.7C83.8,17.6,82.9,19.6,82.4,20.8z"/>
<path class="st19" d="M77.8,46.6c-0.2,15.7-0.5,31.3-0.7,47c0.6,0.1,1.3,0.2,1.9,0.2c1.8-9.5,3.3-19.4,4.6-29.9
	c0.7-6,1.3-11.9,1.8-17.6C82.9,46.4,80.4,46.5,77.8,46.6z"/>
<path class="st19" d="M92,47.1c0.2,15.5,0.3,31,0.4,46.4c-0.6,0.1-1.3,0.2-1.9,0.2c-1.5-8.5-2.8-17.3-4-26.5
	c-0.9-7.2-1.7-14.2-2.4-21C86.8,46.6,89.4,46.9,92,47.1z"/>
<path class="st6" d="M92.4,93.6c0.5,0.8,1,1.7,1.5,2.5c1.5,0.8,3,1.6,4.4,2.3c-2.4-0.1-4.8-0.1-7.2-0.2h-0.8l-0.3-2.3
	c0.2-0.7,0.3-1.4,0.5-2.1C91.2,93.7,91.8,93.7,92.4,93.6z"/>
<path class="st0" d="M84,21.4c-0.2,0.5,0.3,0.8,0.2,1.9c-0.1,0.6-0.3,1.3-0.8,1.9c-0.3,0.3-0.3,0.3-0.4,0.5
	c-0.2,0.7,0.8,1.3,1.7,2.8c0.8,1.5,0.8,2.6,1.2,2.6s0.3-1.2,1.2-2.9c0.4-0.8,0.8-1.4,1.4-1.9c0.5-0.3,0.9-0.4,0.9-0.7
	c0-0.2-0.4-0.3-0.8-0.7c0,0-0.7-0.6-0.9-1.6c-0.2-0.9,0.1-1.2-0.1-1.6C87.1,20.5,84.4,20.4,84,21.4z"/>
<path class="st0" d="M86.8,23h-1.2c-1.4,0-2.6-1.2-2.6-2.6v-5.2c0-1.4,1.2-2.6,2.6-2.6h1.2c1.4,0,2.6,1.2,2.6,2.6v5.2
	C89.4,21.9,88.2,23,86.8,23z"/>
<path class="st0" d="M83.3,17c-0.1-0.1-0.2-0.2-0.5-0.3c-0.1,0-0.4-0.1-0.5,0.1c-0.1,0.1-0.1,0.2,0,0.5c0.1,0.5,0.3,0.8,0.3,0.9
	c0.1,0.2,0.2,0.4,0.5,0.5c0.1,0.1,0.3,0.2,0.4,0.1C83.9,18.6,83.9,17.5,83.3,17z"/>
<path class="st0" d="M89.1,17c0.1-0.1,0.2-0.2,0.5-0.3c0.1,0,0.4-0.1,0.5,0.1c0.1,0.1,0.1,0.2,0,0.5c-0.1,0.5-0.3,0.8-0.3,0.9
	c-0.1,0.2-0.2,0.4-0.5,0.5c-0.1,0.1-0.3,0.2-0.4,0.1C88.6,18.6,88.6,17.5,89.1,17z"/>
<path class="st6" d="M77.1,93.6c-0.5,0.8-1,1.7-1.5,2.5c-1.5,0.8-3,1.6-4.4,2.3c2.4-0.1,4.8-0.1,7.2-0.2h0.8l0.3-2.3
	c-0.2-0.7-0.3-1.4-0.5-2.1C78.4,93.7,77.7,93.7,77.1,93.6z"/>
<path class="st4" d="M89.1,25.4c1.7,1,3.5,1.9,5.2,2.9c-1.6,3.5-3.2,7-4.7,10.5c0.8,2.8,1.6,5.6,2.4,8.4c-4.7-0.1-9.4-0.2-14.2-0.3
	c0.9-2.8,1.8-5.6,2.6-8.4c-0.8-3.9-1.6-7.9-2.4-11.8c1.7-0.4,3.4-0.9,5.1-1.3c0.8,1.1,1.7,2.3,2.5,3.5C86.9,27.7,88,26.6,89.1,25.4z
	"/>
<polyline class="st20" points="84.6,18.8 84.2,19.8 84.7,20.4 "/>
<path class="st0" d="M78.6,42.4c0.6,0.7,1.2,1.3,1.7,2L79.8,45l-2,4.5c0.1-1.6,0.1-3.2,0.1-4.8c-0.1-0.3-0.2-0.6-0.3-0.9
	C77.9,43.3,78.3,42.9,78.6,42.4z"/>
<path class="st4" d="M83.3,25.9c-1.7,0.3-3.5,0.5-5.2,0.8c-2.1,3.7-4.2,7.3-6.3,11c1.9,2.1,3.8,4.2,5.8,6.3c0.4-0.4,0.9-0.9,1.3-1.3
	c-1.1-1.7-2.1-3.3-3.2-5c1.8-2.1,3.6-4.6,5.4-7.6C81.9,28.6,82.7,27.2,83.3,25.9z"/>
<ellipse class="st21" cx="85.9" cy="18.4" rx="0.2" ry="0.2"/>
<ellipse class="st21" cx="83.7" cy="18.4" rx="0.2" ry="0.2"/>
<g>
	<g>
		<path class="st21" d="M83,17.9c0.1,1.1,0.1,2.3,0.3,3.4c0.4,1,1.4,1.7,2.5,2c-1.2,0-2.4-0.7-2.9-1.8C82.7,20.2,82.8,19,83,17.9
			L83,17.9z"/>
	</g>
</g>
<path d="M84.9,15.3c0.4-0.1,0.6,0.1,1.1,0.2c0.4,0.1,1.5,0.6,2.1,1.7c0.3,0.5,0.3,1,0.4,1.9c0.2,1.7,0.2,4,0.2,4
	c0,0.2,0,0.5,0.2,0.8c0.4,0.6,1.2,0.6,1.7,0.6c0.7,0,1.5,0.1,1.9-0.4c0.3-0.4,0.2-1,0-2.1c-0.1-0.4-0.2-0.7-0.2-1
	c-0.3-0.9-0.5-1.5-0.6-1.7c-0.7-1.8-0.2-2.6-0.8-4c-0.7-1.5-2.2-2.2-2.3-2.3c-1.5-0.7-3.7-0.7-5.1,0.4c-1.9,1.6-0.6,4.3-1.9,7.4
	c-0.1,0.2-0.4,0.9-0.2,1.7c0.2,0.9,0.9,1.4,1.1,1.5c0.1,0,1,0.7,1.3,0.4c0.2-0.2,0-0.7-0.2-1.5c-0.4-1.4-0.4-2.5-0.4-3.6
	c0-1.2,0-1.9,0.4-2.7C83.6,16.2,84.1,15.4,84.9,15.3z"/>
<path class="st0" d="M91.8,42.3c-0.6,0.5-1.1,1-1.7,1.5l0.6,0.5l1.9,4.5c-0.1-1.8-0.3-3.5-0.4-5.3c0-0.3-0.1-0.7-0.1-1
	C92,42.5,91.9,42.4,91.8,42.3z"/>
<path class="st4" d="M89.5,26.5c1.6,0.6,3.3,1.2,4.9,1.7c1.6,3.6,3.2,7.2,4.7,10.8c-2.3,1.7-4.6,3.3-6.8,5c-0.2-0.5-0.3-1-0.5-1.6
	c1.3-1.3,2.6-2.6,3.9-3.9c-1.5-1.7-3.3-4.2-4.8-7.5C90.2,29.4,89.8,27.9,89.5,26.5z"/>
<g>
	<g>
		<g>
			<polygon class="st1" points="16.1,35.8 6,35.8 4.3,37.5 4.3,52.8 16.1,52.8 			"/>
			<polygon class="st23" points="4.3,37.5 6,35.8 6,37.5 			"/>
		</g>
		<rect x="4.9" y="38.8" class="st24" width="10.6" height="0.4"/>
		<rect x="4.9" y="39.5" class="st24" width="8.1" height="0.4"/>
		<rect x="4.9" y="40.3" class="st24" width="10.6" height="0.4"/>
		<rect x="4.9" y="41.7" class="st24" width="10.6" height="0.4"/>
		<rect x="4.9" y="42.5" class="st24" width="10.6" height="0.4"/>
		<rect x="4.9" y="43.2" class="st24" width="6.4" height="0.4"/>
		<rect x="4.9" y="44.8" class="st24" width="10.6" height="0.4"/>
		<rect x="4.9" y="45.5" class="st24" width="8.1" height="0.4"/>
		<rect x="4.9" y="46.2" class="st24" width="6.8" height="0.4"/>
		<rect x="4.9" y="47" class="st24" width="10.6" height="0.4"/>
		<rect x="4.9" y="47.7" class="st24" width="8.1" height="0.4"/>
		<rect x="4.9" y="48.4" class="st24" width="10.6" height="0.4"/>
		<rect x="9.4" y="50.4" class="st24" width="6.1" height="0.4"/>
	</g>
	<g>
		<path class="st24" d="M14.8,38.1h-0.3v-1.8h-0.2c-0.3,0-0.4,0.1-0.4,0.1l0,0v-0.2h1.7v0.2l0,0c0,0-0.1-0.1-0.4-0.1h-0.2L14.8,38.1
			L14.8,38.1z"/>
	</g>
</g>
<g>
	<path class="st22" d="M84.4,21.4c0.3-0.6,1.3-0.6,1.6,0C85.4,21.3,85,21.2,84.4,21.4L84.4,21.4z"/>
</g>
<g>
	<rect x="22" y="10.3" class="st1" width="11.1" height="17.2"/>
	<rect x="22.8" y="12.2" class="st24" width="9.2" height="0.4"/>
	<rect x="22.8" y="12.9" class="st24" width="7.1" height="0.4"/>
	<rect x="22.8" y="13.6" class="st24" width="9.2" height="0.4"/>
	<rect x="22.8" y="15" class="st24" width="9.2" height="0.4"/>
	<rect x="22.8" y="15.8" class="st24" width="9.2" height="0.4"/>
	<rect x="22.8" y="16.5" class="st24" width="5.6" height="0.4"/>
	<rect x="22.8" y="18" class="st24" width="9.2" height="0.4"/>
	<rect x="22.8" y="18.7" class="st24" width="7.1" height="0.4"/>
	<rect x="22.8" y="19.4" class="st24" width="6" height="0.4"/>
	<rect x="22.8" y="20.1" class="st24" width="9.2" height="0.4"/>
	<rect x="22.8" y="20.9" class="st24" width="7.1" height="0.4"/>
	<rect x="22.8" y="21.5" class="st24" width="9.2" height="0.4"/>
</g>
<g>
	<rect x="25.6" y="7" class="st2" width="11.1" height="17.2"/>
	<rect x="26.4" y="8.9" class="st24" width="9.2" height="0.4"/>
	<rect x="26.4" y="9.6" class="st24" width="7.1" height="0.4"/>
	<rect x="26.4" y="10.3" class="st24" width="9.2" height="0.4"/>
	<rect x="26.4" y="11.7" class="st24" width="9.2" height="0.4"/>
	<rect x="26.4" y="12.4" class="st24" width="9.2" height="0.4"/>
	<rect x="26.4" y="13.1" class="st24" width="5.6" height="0.4"/>
	<rect x="26.4" y="14.7" class="st24" width="9.2" height="0.4"/>
	<rect x="26.4" y="15.4" class="st24" width="7.1" height="0.4"/>
	<rect x="26.4" y="16.1" class="st24" width="6" height="0.4"/>
	<rect x="26.4" y="16.8" class="st24" width="9.2" height="0.4"/>
	<rect x="26.4" y="17.5" class="st24" width="7.1" height="0.4"/>
</g>
<rect x="29.3" y="21.3" class="st24" width="5.3" height="0.4"/>
<line class="st25" x1="32" y1="48" x2="32" y2="60"/>
<polyline class="st25" points="27.7,29 27.7,33.7 21,33.7 21,60.1 "/>
<line class="st25" x1="10.2" y1="54" x2="10.2" y2="65.3"/>
<g>
	<path class="st21" d="M83.2,25.4c-1.5,0.4-3.9,1.2-5,1.4c-2.1,3.7-4.2,7.4-6.4,10.9c1-1.9,1.9-3.8,3-5.6c1-1.9,2.1-3.7,3.2-5.6
		C79.7,26.1,81.5,25.8,83.2,25.4L83.2,25.4z"/>
</g>
<g>
	<path class="st21" d="M92.1,33.3c1.4,1.7,2.6,3.4,3.9,5.2l-0.1,0.1c-1.3,1.3-2.7,2.6-4.1,3.8c1.2-1.4,2.5-2.8,3.8-4.1l0,0.2
		C94.3,36.9,93.1,35.2,92.1,33.3L92.1,33.3z"/>
</g>
<g>
	<path class="st21" d="M69,31.9c0.7-2.9,0.7-6,1.5-9C70.3,26,70.2,29.1,69,31.9L69,31.9z"/>
</g>
<g>
	<path class="st21" d="M77.6,44c0.1,0.2,0.3,0.5,0.4,0.7c0.1,1.6,0.1,3.2-0.2,4.8c-0.2-1.6-0.1-3.2,0-4.8l0,0
		C77.7,44.5,77.6,44.2,77.6,44L77.6,44z"/>
</g>
<g>
	<path class="st21" d="M53.4,45.6c0.1,2.1,0.2,4.5,0.1,6.5c0.2,1.5,0.4,3.1,0.5,4.7c-0.4-1.5-0.6-3.1-0.9-4.6
		C53.1,50,53.2,47.8,53.4,45.6L53.4,45.6z"/>
</g>
</svg>
