<?xml version="1.0" encoding="utf-8"?>
<!-- Generator: Adobe Illustrator 26.0.1, SVG Export Plug-In . SVG Version: 6.00 Build 0)  -->
<svg version="1.1" id="Layer_1" xmlns="http://www.w3.org/2000/svg" xmlns:xlink="http://www.w3.org/1999/xlink" x="0px" y="0px"
	 viewBox="0 0 100 100" style="enable-background:new 0 0 100 100;" xml:space="preserve">
<style type="text/css">
	.st0{fill:#71E4FF;}
	.st1{fill:#336DFF;}
	.st2{fill:#3E96FF;}
	.st3{fill:#7F90B1;}
	.st4{fill:url(#SVGID_1_);}
	.st5{fill:#DBFCFD;}
	.st6{fill:#6EC0FF;}
	.st7{fill:#FF5E33;}
	.st8{fill:url(#SVGID_00000003795710180917922410000008496113406445129645_);}
	.st9{fill:url(#SVGID_00000147906099375512063310000015646591059530375602_);}
	.st10{fill:url(#SVGID_00000018928949782243735650000004785102707176640162_);}
	.st11{fill:#C6DFFF;}
	.st12{fill:#333D49;}
	.st13{fill:#FFFFFF;}
</style>
<ellipse transform="matrix(0.905 -0.4253 0.4253 0.905 -12.2031 15.5028)" class="st0" cx="28.6" cy="35.1" rx="20" ry="20"/>
<path class="st1" d="M28.6,35.1l11.8-16.2c2.7,2,4.9,4.6,6.3,7.6c4.7,9.9,0.3,21.9-9.6,26.6s-22,0.3-26.6-9.6S10.2,21.6,20.1,17
	L28.6,35.1z"/>
<path class="st2" d="M28.6,35.1l18.2-8.4c4.6,9.9,0.2,21.8-9.7,26.5c-9.9,4.7-22,0.3-26.6-9.6S10.2,21.6,20.1,17c0,0,0.1,0,0.1-0.1
	L28.6,35.1z"/>
<rect x="56.7" y="19.3" class="st3" width="41.4" height="60.6"/>
<linearGradient id="SVGID_1_" gradientUnits="userSpaceOnUse" x1="58.68" y1="52.5" x2="96.07" y2="52.5" gradientTransform="matrix(1 0 0 -1 0 102)">
	<stop  offset="0.3935" style="stop-color:#A8E1FF"/>
	<stop  offset="1" style="stop-color:#DCFDFE"/>
</linearGradient>
<rect x="58.7" y="21.3" class="st4" width="37.4" height="56.4"/>
<g>
	<polygon class="st5" points="76.5,27.2 60,27.1 59.9,22.6 76.5,22.7 	"/>
	<polygon class="st5" points="76.6,32.6 60,32.6 60,28.1 76.6,28.1 	"/>
	<polygon class="st5" points="76.6,38 60,38 60,33.5 76.6,33.5 	"/>
	<polygon class="st5" points="76.6,43.5 60,43.4 60,38.9 76.6,39 	"/>
	<polygon class="st5" points="76.6,48.9 60,48.9 60,44.4 76.6,44.4 	"/>
	<polygon class="st5" points="76.7,54.3 60.1,54.3 60.1,49.8 76.7,49.8 	"/>
</g>
<polygon class="st5" points="76.7,59.8 60.1,59.8 60.1,55.3 76.7,55.3 "/>
<polygon class="st5" points="76.7,65.2 60.1,65.2 60.1,60.7 76.7,60.7 "/>
<polygon class="st5" points="76.7,70.7 60.1,70.6 60.1,66.1 76.7,66.2 "/>
<polygon class="st5" points="76.7,76.1 60.1,76.1 60.1,71.6 76.7,71.6 "/>
<rect x="77.7" y="24.1" class="st6" width="17" height="0.6"/>
<rect x="77.7" y="24.9" class="st6" width="13.9" height="0.6"/>
<rect x="77.7" y="29.7" class="st6" width="17" height="0.6"/>
<rect x="77.7" y="30.5" class="st6" width="17" height="0.6"/>
<rect x="77.7" y="34.5" class="st6" width="17" height="0.6"/>
<rect x="77.7" y="35.3" class="st6" width="14.3" height="0.6"/>
<rect x="77.7" y="40.3" class="st6" width="17" height="0.6"/>
<rect x="77.7" y="41.1" class="st6" width="17" height="0.6"/>
<rect x="77.7" y="36.1" class="st6" width="15.6" height="0.6"/>
<rect x="77.7" y="45.7" class="st6" width="17" height="0.6"/>
<rect x="77.7" y="46.5" class="st6" width="13.9" height="0.6"/>
<rect x="77.7" y="51.2" class="st6" width="17" height="0.6"/>
<rect x="77.7" y="52" class="st6" width="17" height="0.6"/>
<rect x="77.8" y="56.8" class="st6" width="14.3" height="0.6"/>
<rect x="77.8" y="57.6" class="st6" width="15.6" height="0.6"/>
<rect x="77.8" y="62.2" class="st6" width="16.7" height="0.6"/>
<rect x="77.8" y="63" class="st6" width="15.9" height="0.6"/>
<rect x="77.7" y="67.7" class="st6" width="17" height="0.6"/>
<rect x="77.7" y="68.5" class="st6" width="13.9" height="0.6"/>
<rect x="77.7" y="73.1" class="st6" width="17" height="0.6"/>
<rect x="77.7" y="73.9" class="st6" width="15.9" height="0.6"/>
<g>
	<polygon class="st7" points="43.3,57.3 43.3,51.5 52.5,54.4 	"/>
	<polygon class="st7" points="50.1,58 50.1,50.7 54.8,54.4 	"/>
</g>
<g>
	
		<linearGradient id="SVGID_00000138536332959005580050000000926028733633851800_" gradientUnits="userSpaceOnUse" x1="9.4382" y1="28.0082" x2="33.5618" y2="69.7918" gradientTransform="matrix(1 0 0 -1 0 102)">
		<stop  offset="0.3935" style="stop-color:#A7E0FF"/>
		<stop  offset="1" style="stop-color:#DBFCFD"/>
	</linearGradient>
	<rect x="1" y="37.1" style="fill:url(#SVGID_00000138536332959005580050000000926028733633851800_);" width="41" height="32"/>
	
		<linearGradient id="SVGID_00000006672668997770839400000003502658802996953017_" gradientUnits="userSpaceOnUse" x1="1" y1="63.61" x2="42" y2="63.61" gradientTransform="matrix(1 0 0 -1 0 102)">
		<stop  offset="1.978731e-03" style="stop-color:#27B0FC"/>
		<stop  offset="1" style="stop-color:#63CEF9"/>
	</linearGradient>
	<polygon style="fill:url(#SVGID_00000006672668997770839400000003502658802996953017_);" points="42,39.8 1,39.8 1,37 42,37 	"/>
	<polygon class="st5" points="14.4,48.8 1.9,48.7 1.9,44.7 14.4,44.7 	"/>
	<polygon class="st5" points="14.4,53.6 1.9,53.6 1.9,49.6 14.4,49.6 	"/>
	<polygon class="st5" points="14.4,58.5 1.9,58.5 1.9,54.4 14.4,54.5 	"/>
	<polygon class="st5" points="14.4,63.3 1.9,63.3 1.9,59.3 14.4,59.3 	"/>
	<rect x="1.9" y="64.2" class="st5" width="12.5" height="4"/>
	<polygon class="st5" points="27.8,48.8 15.3,48.8 15.3,44.7 27.8,44.8 	"/>
	<polygon class="st5" points="27.8,53.7 15.3,53.6 15.3,49.6 27.8,49.6 	"/>
	<polygon class="st5" points="27.8,58.5 15.3,58.5 15.3,54.5 27.8,54.5 	"/>
	<polygon class="st5" points="27.8,63.4 15.3,63.3 15.3,59.3 27.8,59.3 	"/>
	<rect x="15.4" y="64.2" class="st5" width="12.5" height="4"/>
	<polygon class="st5" points="41.2,48.8 28.7,48.8 28.7,44.8 41.2,44.8 	"/>
	<polygon class="st5" points="41.2,53.7 28.7,53.7 28.7,49.6 41.2,49.7 	"/>
	<polygon class="st5" points="41.2,58.5 28.7,58.5 28.7,54.5 41.2,54.5 	"/>
	<rect x="28.7" y="59.3" class="st5" width="12.5" height="4"/>
	<rect x="28.8" y="64.2" class="st5" width="12.5" height="4"/>
	
		<linearGradient id="SVGID_00000084524223094748901070000012437268152211965583_" gradientUnits="userSpaceOnUse" x1="8.05" y1="59.765" x2="34.95" y2="59.765" gradientTransform="matrix(1 0 0 -1 0 102)">
		<stop  offset="1.978731e-03" style="stop-color:#27B0FC"/>
		<stop  offset="1" style="stop-color:#63CEF9"/>
	</linearGradient>
	<polygon style="fill:url(#SVGID_00000084524223094748901070000012437268152211965583_);" points="35,43 8.1,43 8.1,41.5 34.9,41.5 
			"/>
	<rect x="5.9" y="46.1" class="st6" width="4.3" height="1.1"/>
	<rect x="5.8" y="50.9" class="st6" width="4.2" height="1.1"/>
	<rect x="5.9" y="55.9" class="st6" width="4.3" height="1.1"/>
	<rect x="5.9" y="60.7" class="st6" width="4.2" height="1.1"/>
	<rect x="5.9" y="65.5" class="st6" width="4.2" height="1.1"/>
	<rect x="16" y="46.2" class="st11" width="11" height="0.6"/>
	<rect x="16" y="47" class="st11" width="9" height="0.6"/>
	<rect x="16" y="50.9" class="st11" width="11" height="0.6"/>
	<rect x="16" y="51.7" class="st11" width="11" height="0.6"/>
	<rect x="16" y="55.4" class="st11" width="11" height="0.6"/>
	<rect x="16" y="56.2" class="st11" width="9.2" height="0.6"/>
	<rect x="16" y="60.6" class="st11" width="11" height="0.6"/>
	<rect x="16" y="61.3" class="st11" width="11" height="0.6"/>
	<rect x="16" y="57" class="st11" width="10" height="0.6"/>
	<rect x="16" y="65.5" class="st11" width="11" height="0.6"/>
	<rect x="16" y="66.3" class="st11" width="9" height="0.6"/>
	<rect x="29.5" y="46.2" class="st11" width="11" height="0.6"/>
	<rect x="29.5" y="47" class="st11" width="10.1" height="0.6"/>
	<rect x="29.5" y="50.9" class="st11" width="11" height="0.6"/>
	<rect x="29.5" y="51.7" class="st11" width="7.7" height="0.6"/>
	<rect x="29.5" y="55.5" class="st11" width="11" height="0.6"/>
	<rect x="29.5" y="56.3" class="st11" width="10.6" height="0.6"/>
	<rect x="29.5" y="60.6" class="st11" width="11" height="0.6"/>
	<rect x="29.5" y="61.4" class="st11" width="11" height="0.6"/>
	<rect x="29.5" y="57" class="st11" width="10.1" height="0.6"/>
	<rect x="29.5" y="65.6" class="st11" width="11" height="0.6"/>
	<rect x="29.5" y="66.3" class="st11" width="5.3" height="0.6"/>
</g>
<path class="st12" d="M69.3,21c-0.2-0.3-0.3-0.6-0.3-1c0-1.4,1.6-2.6,3.7-2.9v0c0.7-1.2,2.5-2.1,4.8-2.1s4.1,0.9,4.8,2.1v0
	c1.9,0.4,3.4,1.5,3.7,2.9c0.1,0.3,0.1,0.6,0,1"/>
<ellipse class="st13" cx="77.6" cy="16" rx="1.4" ry="0.5"/>
</svg>
