<?xml version="1.0" encoding="utf-8"?>
<!-- Generator: Adobe Illustrator 26.0.1, SVG Export Plug-In . SVG Version: 6.00 Build 0)  -->
<svg version="1.1" id="Layer_1" xmlns="http://www.w3.org/2000/svg" xmlns:xlink="http://www.w3.org/1999/xlink" x="0px" y="0px"
	 viewBox="0 0 100 100" style="enable-background:new 0 0 100 100;" xml:space="preserve">
<style type="text/css">
	.st0{fill:#FFB99E;}
	.st1{fill:#FFFFFF;}
	.st2{fill:#414042;}
	.st3{fill:#336DFF;}
	.st4{fill:#011435;}
	.st5{fill:#242528;}
	.st6{fill:#48AE52;}
	.st7{fill:url(#SVGID_1_);}
	.st8{fill:url(#SVGID_00000163768468460360210210000003608588562264458893_);}
	.st9{fill:url(#SVGID_00000008137061254297005860000017842149777577462923_);}
	.st10{fill:#F3FCFF;}
	.st11{fill:#4DD9FF;}
	.st12{fill:#6EC1FF;}
	.st13{fill:#7F90B1;}
	.st14{fill:#212A33;}
	.st15{fill:#333D49;}
	.st16{fill:#99B0D5;}
	.st17{fill:#333333;}
	.st18{fill:url(#SVGID_00000072259854449431362830000002605099420010593926_);}
	.st19{fill:url(#SVGID_00000156546191814647480310000014016156939216367536_);}
	.st20{fill:url(#SVGID_00000127025711079763862240000000257802149268574614_);}
	.st21{fill:url(#SVGID_00000165215580184420572630000018301136633778807685_);}
	.st22{fill:url(#SVGID_00000154411991417108211290000018247836817656391307_);}
	.st23{fill:url(#SVGID_00000166663289762775250420000013477700946552983988_);}
	.st24{fill:url(#SVGID_00000056398992209071355390000012608561399469278395_);}
	.st25{fill:url(#SVGID_00000142857327633750348870000003190501456152072615_);}
	.st26{fill:url(#SVGID_00000059273983931483725220000005552581398224748220_);}
	.st27{fill:url(#SVGID_00000176723906686118872910000006457597593634505860_);}
	.st28{fill:url(#SVGID_00000084514569821158313180000008670077772073514394_);}
</style>
<path class="st0" d="M22.2,19.1c-0.6,0-1.2,0-1.9,0c-0.4-0.5-0.9-1.2-1.3-2.2c-0.6-1.3-1-2.2-0.8-3.3c0.2-1.2,1.2-2,1.7-2.3l1-0.1
	c1.1-0.2,2.1,0.6,2.3,1.7c0.2,1.1,0.5,2.1,0.8,3.2c0,0.1,0.3,1.4-0.5,2.4C23,18.8,22.5,19,22.2,19.1z"/>
<path class="st0" d="M19.9,18.1c-0.1,0.4,0.4,0.6,0.4,1.4c0,0.5-0.1,1.1-0.5,1.6c-0.2,0.3-0.3,0.3-0.3,0.4c-0.1,0.5,0.9,0.9,1.9,1.9
	c1,1,1.1,1.9,1.4,1.9c0.3-0.1,0.1-1,0.8-2.4c0.3-0.7,0.5-1.2,1.1-1.6c0.4-0.3,0.8-0.5,0.8-0.7c0-0.2-0.4-0.1-0.9-0.4
	c0,0-0.7-0.4-1-1.1c-0.3-0.6,0-0.9-0.2-1.3C22.6,17,20.2,17.3,19.9,18.1z"/>
<path d="M18.5,15c-0.1-0.1-0.3-0.2-0.5-0.4c0-0.1-0.3-0.3-0.4-0.7c-0.1-0.3-0.1-0.5-0.1-0.5c0-0.1,0-0.4,0.2-0.7
	c0.1-0.1,0.2-0.3,0.4-0.4c0.1,0,0.2,0,0.2,0c0,0,0.1-0.1,0.2,0c0.1,0,0.1,0.3,0.1,0.3c0,0,0,0,0,0c0,0,0,0.1,0,0.1
	c-0.1,1.2,0,2.1,0,2.1C18.5,14.9,18.5,14.9,18.5,15z"/>
<path d="M19.1,14.4c-0.2,0.6-0.3,0.8-0.3,1.2c0,0.9,0.5,1.6,0.7,1.9c0.2,0.2,0.4,0.4,0.5,0.6c-0.2-0.1-0.6-0.2-1-0.5
	c-0.3-0.2-0.5-0.5-0.6-0.7c-0.5-0.7-1.2-1.9-1-3.2c0-0.2,0.2-1.1,0.6-1.2c0.4-0.1,0.8,0.7,1.4,0.6c0.3-0.1,0.4-0.3,0.5-0.2
	C19.9,12.8,19.5,13.4,19.1,14.4z"/>
<path d="M25.5,9.6c0.2,0.1,0.6,0.3,0.9,0.8c0.2,0.5,0.2,1,0,1.4c-0.3,0.9-1.4,1.3-2.2,1.3c-1.1,0.1-1.4-0.6-2.5-0.4
	c-0.2,0-0.9,0.1-1.5,0.7c-0.6,0.6-0.8,1.4-0.9,1.8c-0.1,0.6,0,0.8-0.2,0.8c-0.4,0.2-1.9-1.1-1.8-2.5c0-1.5,1.8-2.9,3-2.7
	c0.4,0.1,0.8,0.2,1.3,0.1c0.4-0.1,0.6-0.3,0.9-0.5C23,10.2,23,10,23.3,9.8C23.9,9.5,24.7,9.3,25.5,9.6z"/>
<path class="st0" d="M19,15.7c0,0-0.2-0.2-0.5-0.2c-0.1,0-0.3,0-0.4,0.1c-0.1,0.1,0,0.2,0,0.4c0.1,0.4,0.3,0.6,0.4,0.6
	c0.1,0.2,0.2,0.3,0.4,0.4c0.1,0,0.3,0.1,0.4,0C19.6,17,19.5,16.1,19,15.7z"/>
<path class="st1" d="M22.1,17.5l1.8-0.3c0,0.1-0.3,0.7-0.8,0.8C22.6,18.1,22.2,17.6,22.1,17.5z"/>
<ellipse class="st2" cx="22.5" cy="15.3" rx="0.2" ry="0.2"/>
<g>
	<path class="st2" d="M19.4,17.3c0.8,1.1,2.1,1.6,3.4,1.6C21.5,19.4,19.8,18.7,19.4,17.3L19.4,17.3z"/>
</g>
<path class="st0" d="M10.9,7.6c-0.1-0.7-0.3-1.5-0.4-2.2L9.8,5.2L6.1,2.5l2.7,3.8c0.2,0.5,0.3,1,0.5,1.5C9.9,7.8,10.4,7.7,10.9,7.6z
	"/>
<polygon class="st0" points="23.6,15.1 24.5,16 24,16.7 "/>
<path class="st0" d="M9.8,64.6c-0.1,0.5-0.3,1-0.4,1.5c-0.6,0.1-1.2,0.2-1.8,0.3c0.2-0.8,0.4-1.7,0.5-2.5
	C8.6,64.1,9.2,64.3,9.8,64.6z"/>
<path class="st3" d="M24.5,20.2c1.1,0.1,2.3,0.1,3.4,0.2c1.2,1.9,2.4,3.7,3.6,5.6c2.6-0.1,5.2-0.3,7.8-0.4c0.1,0.6,0.1,1.2,0.2,1.8
	c-2.9,0.5-5.7,0.9-8.6,1.4c-1.3-0.9-2.5-1.9-3.8-2.8c0.4,3.3,0.7,6.6,1.1,9.9l-9.4,2.8L18,25.3l-6.1-9L9.2,7.7L11,7.5l2.9,7.2
	l6.5,6.2l2.1,2.5C23.2,22.4,23.8,21.3,24.5,20.2z"/>
<path class="st0" d="M36.2,60.8c0,0.5,0,0.9,0,1.4c-0.6,0.2-1.2,0.5-1.8,0.7c0-0.7-0.1-1.5-0.2-2.2C34.9,60.7,35.5,60.7,36.2,60.8z"
	/>
<path class="st4" d="M18.9,38.6c-1.1,3.4-2.3,6.8-3.4,10.2l-8,16c0.8,0,1.6,0,2.4,0c3.5-4.7,6.9-9.3,10.4-14
	c1.4-3.3,2.8-6.6,4.2-9.9l10.2,5.3l-0.8,15l2.4-0.2l3.2-16.2l-11.3-8.9C25.1,36.8,22,37.7,18.9,38.6z"/>
<path class="st5" d="M9.3,66c0.5,0.6,1.1,1.2,1.6,1.8l6.1,2.6c-3.2-0.1-6.4-0.1-9.7-0.1c-0.1-0.7-0.1-1.5-0.2-2.2
	c0.1-0.6,0.2-1.2,0.4-1.8C8.1,66.2,8.7,66.1,9.3,66z"/>
<g>
	<path class="st6" d="M1.1,69.9c5,0,10.1,0,15.1,0c4.6-1.7,9.1-3.3,13.7-5H42l8.5-5.8l27.4-5.5l18.8-14.9L78.1,56.4
		c-8.8,1.8-17.7,3.6-26.5,5.3c-3,2.2-6.1,4.3-9.1,6.5c-4.1,0-8.2,0-12.3,0c-4.6,2.1-9.2,4.2-13.8,6.3c-5.1,0.1-10.2,0.2-15.3,0.4
		C1.1,73.2,1.1,71.5,1.1,69.9z"/>
	<polygon class="st6" points="94,38 97,41.3 97,38.3 	"/>
</g>
<linearGradient id="SVGID_1_" gradientUnits="userSpaceOnUse" x1="1.12" y1="13.575" x2="6.34" y2="13.575" gradientTransform="matrix(1 0 0 -1 0 102)">
	<stop  offset="1.978731e-03" style="stop-color:#27B0FC"/>
	<stop  offset="1" style="stop-color:#63CEF9"/>
</linearGradient>
<rect x="1.1" y="79.8" class="st7" width="5.2" height="17.2"/>
<g>
	
		<linearGradient id="SVGID_00000094601331151372288980000006716732727093613496_" gradientUnits="userSpaceOnUse" x1="-845.8959" y1="-478.4707" x2="-833.1765" y2="-456.4402" gradientTransform="matrix(0.4805 -0.877 -0.877 -0.4805 56.9421 -933.6996)">
		<stop  offset="0.3935" style="stop-color:#A8E1FF"/>
		<stop  offset="1" style="stop-color:#DCFDFE"/>
	</linearGradient>
	<path style="fill:url(#SVGID_00000094601331151372288980000006716732727093613496_);" d="M76,23.6l-8.8,16.1
		c-0.2,0.4-0.7,0.5-1.1,0.3l-14.6-8c-0.6-0.3-0.8-1-0.5-1.6L59.4,15c0.3-0.6,1-0.8,1.6-0.5l14.6,8C76.1,22.7,76.2,23.2,76,23.6z"/>
	
		<linearGradient id="SVGID_00000104702927282813013720000012971366333155800719_" gradientUnits="userSpaceOnUse" x1="-849.566" y1="-458.869" x2="-829.5632" y2="-458.869" gradientTransform="matrix(0.4805 -0.877 -0.877 -0.4805 56.9421 -933.6996)">
		<stop  offset="1.978731e-03" style="stop-color:#27B0FC"/>
		<stop  offset="1" style="stop-color:#63CEF9"/>
	</linearGradient>
	<path style="fill:url(#SVGID_00000104702927282813013720000012971366333155800719_);" d="M61.8,14.9l-9.6,17.5l-1.3-0.7
		c-0.4-0.2-0.5-0.7-0.3-1.1l8.8-16.1c0.2-0.4,0.7-0.5,1.1-0.3L61.8,14.9z"/>
	<rect x="52.5" y="28.3" transform="matrix(0.4805 -0.877 0.877 0.4805 4.9429 65.4461)" class="st10" width="10.4" height="0.6"/>
	<rect x="54" y="29.9" transform="matrix(0.4805 -0.877 0.877 0.4805 3.5192 66.3296)" class="st10" width="7.6" height="0.6"/>
	<rect x="54.4" y="29.8" transform="matrix(0.4805 -0.877 0.877 0.4805 4.0924 67.1401)" class="st10" width="8.7" height="0.6"/>
	<rect x="55.2" y="30.4" transform="matrix(0.4805 -0.877 0.877 0.4805 3.9152 67.9813)" class="st10" width="8.3" height="0.6"/>
	<rect x="51" y="27.3" transform="matrix(0.4805 -0.877 0.877 0.4805 4.8571 63.7055)" class="st10" width="10.5" height="0.9"/>
	<path class="st11" d="M62.7,20.4l2.1-1.5c0.6,0.8,0.6,1.8,0.2,2.7c-0.7,1.2-2.2,1.8-3.5,1.1s-1.8-2.2-1.1-3.5s2.2-1.8,3.5-1.1
		L62.7,20.4z"/>
	<path class="st12" d="M62.7,20.4l0.1-2.6c1,0,1.8,0.6,2.2,1.5c0.6,1.3,0.1,2.8-1.2,3.4c-1.3,0.6-2.8,0.1-3.4-1.2
		c-0.6-1.3-0.1-2.8,1.2-3.4L62.7,20.4z"/>
	<rect x="68.8" y="18.2" transform="matrix(0.4805 -0.877 0.877 0.4805 16.8461 72.2459)" class="st11" width="1.2" height="7.4"/>
	<rect x="68.4" y="20.6" transform="matrix(0.4805 -0.877 0.877 0.4805 15.0429 72.8529)" class="st11" width="1.2" height="6.3"/>
	<rect x="68.3" y="23.3" transform="matrix(0.4805 -0.877 0.877 0.4805 13.2484 73.726)" class="st11" width="1.2" height="4.7"/>
	<rect x="67.4" y="24.9" transform="matrix(0.4805 -0.877 0.877 0.4805 11.4266 73.7898)" class="st11" width="1.2" height="4.7"/>
	<rect x="65.8" y="25.3" transform="matrix(0.4805 -0.877 0.877 0.4805 9.5772 73.034)" class="st11" width="1.2" height="6.3"/>
	<rect x="65.7" y="28" transform="matrix(0.4805 -0.877 0.877 0.4805 7.7828 73.9073)" class="st11" width="1.2" height="4.7"/>
	<rect x="65.2" y="30.2" transform="matrix(0.4805 -0.877 0.877 0.4805 5.9805 74.3834)" class="st11" width="1.2" height="3.9"/>
	<rect x="64.5" y="32.1" transform="matrix(0.4805 -0.877 0.877 0.4805 4.1638 74.6993)" class="st11" width="1.2" height="3.4"/>
	<rect x="63.5" y="33.3" transform="matrix(0.4805 -0.877 0.877 0.4805 2.3366 74.5009)" class="st11" width="1.2" height="3.9"/>
	<rect x="62.1" y="32.8" transform="matrix(0.4805 -0.877 0.877 0.4805 6.5794 77.3163)" class="st10" width="12.9" height="0.6"/>
	<rect x="63.7" y="34.7" transform="matrix(0.4805 -0.877 0.877 0.4805 4.8182 78.2038)" class="st10" width="9.4" height="0.6"/>
</g>
<polygon class="st5" points="36.2,61.8 37.8,63 43.5,65 35.2,65 34.6,65 34.3,63.4 34.3,61.8 "/>
<g>
	<path class="st13" d="M48.2,31c2.2,4.3,4.4,8.6,6.6,13c7.9-2.2,15.8-4.5,23.6-6.7c-0.1-4.1-0.2-8.2-0.2-12.3
		C68.2,26.9,58.2,28.9,48.2,31z"/>
	<ellipse transform="matrix(0.9859 -0.1675 0.1675 0.9859 -7.8582 10.7572)" class="st14" cx="59.8" cy="52" rx="2" ry="2"/>
	<ellipse transform="matrix(0.9859 -0.1675 0.1675 0.9859 -6.8348 13.4121)" class="st14" cx="76.1" cy="47.2" rx="2" ry="2"/>
	<path class="st15" d="M74.3,39.2l-19.7,5.8c-0.3,0.1-0.5-0.1-0.6-0.3l0,0c-0.1-0.3,0.1-0.5,0.3-0.6L74,38.2
		c0.3-0.1,0.5,0.1,0.6,0.3l0,0C74.7,38.8,74.6,39.1,74.3,39.2z"/>
	<path class="st15" d="M79.8,46.1l-22.9,6.7c-0.3,0.1-0.5-0.1-0.6-0.3l0,0c-0.1-0.3,0.1-0.5,0.3-0.6l22.9-6.7
		c0.3-0.1,0.5,0.1,0.6,0.3l0,0C80.3,45.8,80.1,46,79.8,46.1z"/>
	<path class="st15" d="M78.1,44l1.8,1.2c0.2,0.2,0.3,0.4,0.1,0.7l0,0c-0.2,0.2-0.4,0.3-0.7,0.1l-1.8-1.2c-0.2-0.2-0.3-0.4-0.1-0.7
		l0,0C77.6,43.9,77.9,43.9,78.1,44z"/>
	<path class="st15" d="M77.9,44.7l-19.2,5.6c-0.2,0.1-0.4-0.1-0.5-0.2l0,0c-0.1-0.2,0.1-0.4,0.2-0.5L77.7,44
		c0.2-0.1,0.4,0.1,0.5,0.2l0,0C78.2,44.4,78.1,44.6,77.9,44.7z"/>
	<path class="st15" d="M58.1,44l-2.8,5.2c-0.1,0.2-0.4,0.3-0.7,0.2l0,0c-0.2-0.1-0.3-0.4-0.2-0.7l2.8-5.2c0.1-0.2,0.4-0.3,0.7-0.2
		l0,0C58.1,43.5,58.2,43.8,58.1,44z"/>
	<path class="st15" d="M59.2,43.4l-2.1,3.8c-0.1,0.2-0.3,0.2-0.4,0.1l0,0c-0.2-0.1-0.2-0.3-0.1-0.4l2.1-3.8c0.1-0.2,0.3-0.2,0.4-0.1
		l0,0C59.2,43.1,59.3,43.2,59.2,43.4z"/>
	<path class="st15" d="M55.3,48.9l1.8,3.2c0.1,0.2,0,0.5-0.2,0.7l0,0c-0.2,0.1-0.5,0-0.7-0.2l-1.8-3.2c-0.1-0.2,0-0.5,0.2-0.7l0,0
		C54.8,48.6,55.2,48.7,55.3,48.9z"/>
	<path class="st15" d="M43.7,28.3l5.4,3c0.3,0.1,0.4,0.5,0.2,0.8l0,0c-0.2,0.3-0.5,0.4-0.8,0.2l-5.4-3c-0.3-0.1-0.4-0.5-0.2-0.8l0,0
		C43.1,28.2,43.4,28.1,43.7,28.3z"/>
	<path class="st15" d="M57.2,47l1.6,2.8c0.1,0.2,0,0.3-0.1,0.4l0,0c-0.2,0.1-0.3,0-0.4-0.1l-1.6-2.8c-0.1-0.2,0-0.3,0.1-0.4l0,0
		C56.9,46.8,57.1,46.8,57.2,47z"/>
	<path class="st16" d="M43.5,28.8l-0.1,0.2c-0.3,0.5-1,0.8-1.5,0.5l-1.1-0.6c-0.5-0.3-0.8-1-0.5-1.5l0.1-0.2c0.3-0.5,1-0.8,1.5-0.5
		l1.1,0.6C43.6,27.5,43.8,28.2,43.5,28.8z"/>
	<ellipse transform="matrix(0.9859 -0.1675 0.1675 0.9859 -8.4454 10.6548)" class="st15" cx="58.9" cy="55.4" rx="2.4" ry="2.3"/>
	<ellipse transform="matrix(0.9859 -0.1675 0.1675 0.9859 -7.2552 13.7478)" class="st15" cx="77.9" cy="49.9" rx="2.4" ry="2.3"/>
</g>
<g>
	<path class="st0" d="M39.3,25.6c0.2,0,0.4,0.1,0.6,0.1l1.4-0.6l0.7,0.7l-0.4,1.7l-1.3,0.1c-0.2-0.1-0.5-0.1-0.8-0.2
		C39.5,26.8,39.4,26.2,39.3,25.6z"/>
	<path class="st17" d="M39.3,25.6l0.6,0.1c0.4-0.2,1-0.5,1.4-0.7c0.3,0.2,0.5,0.5,0.8,0.8c-0.1,0.6-0.2,1.2-0.4,1.8
		c0,0-1.4,0.1-1.5,0.1h0l-0.8-0.2l-0.1,0C39.4,26.9,39.4,26.2,39.3,25.6L39.3,25.6z M39.3,25.6l0.3,1.8l-0.1-0.1l0.8,0.2
		c-0.2,0,1.3-0.1,1.3-0.1l-0.1,0.1c0.1-0.6,0.3-1.1,0.4-1.7l0,0.1c-0.2-0.2-0.5-0.5-0.7-0.7l0.1,0c-0.5,0.2-1,0.4-1.5,0.5
		C39.9,25.8,39.3,25.6,39.3,25.6L39.3,25.6z"/>
</g>
<linearGradient id="SVGID_00000122713476475471752420000002322193337607944834_" gradientUnits="userSpaceOnUse" x1="8.96" y1="13.575" x2="14.18" y2="13.575" gradientTransform="matrix(1 0 0 -1 0 102)">
	<stop  offset="1.978731e-03" style="stop-color:#27B0FC"/>
	<stop  offset="1" style="stop-color:#63CEF9"/>
</linearGradient>
<rect x="9" y="79.8" style="fill:url(#SVGID_00000122713476475471752420000002322193337607944834_);" width="5.2" height="17.2"/>
<linearGradient id="SVGID_00000174573871259715295280000015318536752628173196_" gradientUnits="userSpaceOnUse" x1="16.81" y1="13.725" x2="22.03" y2="13.725" gradientTransform="matrix(1 0 0 -1 0 102)">
	<stop  offset="1.978731e-03" style="stop-color:#27B0FC"/>
	<stop  offset="1" style="stop-color:#63CEF9"/>
</linearGradient>
<rect x="16.8" y="79.6" style="fill:url(#SVGID_00000174573871259715295280000015318536752628173196_);" width="5.2" height="17.4"/>
<linearGradient id="SVGID_00000055672426597500488030000013688363570838498692_" gradientUnits="userSpaceOnUse" x1="24.66" y1="15.13" x2="29.88" y2="15.13" gradientTransform="matrix(1 0 0 -1 0 102)">
	<stop  offset="1.978731e-03" style="stop-color:#27B0FC"/>
	<stop  offset="1" style="stop-color:#63CEF9"/>
</linearGradient>
<rect x="24.7" y="76.7" style="fill:url(#SVGID_00000055672426597500488030000013688363570838498692_);" width="5.2" height="20.3"/>
<linearGradient id="SVGID_00000036964640679400468670000003197715071801736367_" gradientUnits="userSpaceOnUse" x1="32.51" y1="16.5" x2="37.73" y2="16.5" gradientTransform="matrix(1 0 0 -1 0 102)">
	<stop  offset="1.978731e-03" style="stop-color:#27B0FC"/>
	<stop  offset="1" style="stop-color:#63CEF9"/>
</linearGradient>
<rect x="32.5" y="74" style="fill:url(#SVGID_00000036964640679400468670000003197715071801736367_);" width="5.2" height="23"/>
<linearGradient id="SVGID_00000056427005873823137740000016020873914403152285_" gradientUnits="userSpaceOnUse" x1="40.36" y1="16.5" x2="45.58" y2="16.5" gradientTransform="matrix(1 0 0 -1 0 102)">
	<stop  offset="1.978731e-03" style="stop-color:#27B0FC"/>
	<stop  offset="1" style="stop-color:#63CEF9"/>
</linearGradient>
<rect x="40.4" y="74" style="fill:url(#SVGID_00000056427005873823137740000016020873914403152285_);" width="5.2" height="23"/>
<linearGradient id="SVGID_00000139257208319318895920000007158632470526739899_" gradientUnits="userSpaceOnUse" x1="48.21" y1="17.92" x2="53.43" y2="17.92" gradientTransform="matrix(1 0 0 -1 0 102)">
	<stop  offset="1.978731e-03" style="stop-color:#27B0FC"/>
	<stop  offset="1" style="stop-color:#63CEF9"/>
</linearGradient>
<rect x="48.2" y="71.2" style="fill:url(#SVGID_00000139257208319318895920000007158632470526739899_);" width="5.2" height="25.8"/>
<linearGradient id="SVGID_00000116209648119041021140000002963512740769907850_" gradientUnits="userSpaceOnUse" x1="56.06" y1="19.865" x2="61.28" y2="19.865" gradientTransform="matrix(1 0 0 -1 0 102)">
	<stop  offset="1.978731e-03" style="stop-color:#27B0FC"/>
	<stop  offset="1" style="stop-color:#63CEF9"/>
</linearGradient>
<rect x="56.1" y="67.3" style="fill:url(#SVGID_00000116209648119041021140000002963512740769907850_);" width="5.2" height="29.7"/>
<linearGradient id="SVGID_00000027588825865681709140000010604353531577928331_" gradientUnits="userSpaceOnUse" x1="63.9" y1="20.715" x2="69.12" y2="20.715" gradientTransform="matrix(1 0 0 -1 0 102)">
	<stop  offset="1.978731e-03" style="stop-color:#27B0FC"/>
	<stop  offset="1" style="stop-color:#63CEF9"/>
</linearGradient>
<rect x="63.9" y="65.6" style="fill:url(#SVGID_00000027588825865681709140000010604353531577928331_);" width="5.2" height="31.4"/>
<linearGradient id="SVGID_00000030469350300392302080000004054417606207528876_" gradientUnits="userSpaceOnUse" x1="71.75" y1="21.35" x2="76.97" y2="21.35" gradientTransform="matrix(1 0 0 -1 0 102)">
	<stop  offset="1.978731e-03" style="stop-color:#27B0FC"/>
	<stop  offset="1" style="stop-color:#63CEF9"/>
</linearGradient>
<rect x="71.8" y="64.3" style="fill:url(#SVGID_00000030469350300392302080000004054417606207528876_);" width="5.2" height="32.7"/>
<linearGradient id="SVGID_00000132790160471239631610000000245737093467187104_" gradientUnits="userSpaceOnUse" x1="79.6" y1="23.5" x2="84.82" y2="23.5" gradientTransform="matrix(1 0 0 -1 0 102)">
	<stop  offset="1.978731e-03" style="stop-color:#27B0FC"/>
	<stop  offset="1" style="stop-color:#63CEF9"/>
</linearGradient>
<rect x="79.6" y="60" style="fill:url(#SVGID_00000132790160471239631610000000245737093467187104_);" width="5.2" height="37"/>
<linearGradient id="SVGID_00000131338083885872608070000001470789182789087930_" gradientUnits="userSpaceOnUse" x1="87.45" y1="26" x2="92.67" y2="26" gradientTransform="matrix(1 0 0 -1 0 102)">
	<stop  offset="1.978731e-03" style="stop-color:#27B0FC"/>
	<stop  offset="1" style="stop-color:#63CEF9"/>
</linearGradient>
<rect x="87.4" y="55" style="fill:url(#SVGID_00000131338083885872608070000001470789182789087930_);" width="5.2" height="42"/>
<g>
	<path class="st2" d="M10.9,7.6c-0.2-0.7-0.4-1.4-0.5-2.2l0.1,0.1L9.8,5.4C8.5,4.5,7.2,3.5,6.1,2.5c1.2,0.8,2.8,1.8,3.8,2.6
		c0.1,0,0.8,0.2,0.8,0.2C10.7,6.1,10.8,6.8,10.9,7.6L10.9,7.6z"/>
</g>
<g>
	<path class="st2" d="M11.9,16.4c2.2,2.9,4.2,5.9,6.2,8.9c0.1,1.7,0.1,3.5,0.2,5.2c-0.1-1.6-0.4-3.8-0.4-5.1
		C15.9,22.4,13.8,19.4,11.9,16.4L11.9,16.4z"/>
</g>
<g>
	<path class="st2" d="M24.5,20.2c1.2,0,2.3,0,3.5,0.1l0,0.1c1.2,1.9,2.4,3.7,3.5,5.7c-1.3-1.8-2.5-3.6-3.7-5.5l0.1,0.1
		C26.8,20.5,25.6,20.4,24.5,20.2L24.5,20.2z"/>
</g>
</svg>
