<?xml version="1.0" encoding="utf-8"?>
<!-- Generator: Adobe Illustrator 26.0.1, SVG Export Plug-In . SVG Version: 6.00 Build 0)  -->
<svg version="1.1" id="Layer_1" xmlns="http://www.w3.org/2000/svg" xmlns:xlink="http://www.w3.org/1999/xlink" x="0px" y="0px"
	 viewBox="0 0 100 100" style="enable-background:new 0 0 100 100;" xml:space="preserve">
<style type="text/css">
	.st0{fill:url(#SVGID_1_);}
	.st1{fill:url(#SVGID_00000026160011099381633510000001714902761797212549_);}
	.st2{fill:none;stroke:#FFFFFF;stroke-width:0.4;stroke-miterlimit:10;}
	.st3{fill:none;stroke:#FF2015;stroke-width:0.6;stroke-miterlimit:10;}
	.st4{fill:none;stroke:#FF9017;stroke-width:0.56;stroke-miterlimit:10;}
	.st5{fill:none;stroke:#04A810;stroke-width:0.6;stroke-miterlimit:10;}
	.st6{fill:#FFB99E;}
	.st7{fill:#336DFF;}
	.st8{fill:#C6DFFF;}
	.st9{fill:#F8FBFF;}
	.st10{fill:#94C7FF;}
	.st11{fill:#011435;}
	.st12{fill:#242528;}
	.st13{fill:#FFFFFF;}
	.st14{fill:#414042;}
	.st15{fill:#333333;}
	.st16{fill:url(#SVGID_00000167386482307862474080000015735816892887300267_);}
	.st17{fill:#989898;}
	.st18{fill:#787878;}
	.st19{fill:#DC7100;}
	.st20{fill:#E7A900;}
	.st21{fill:#474747;}
	.st22{fill:#8E8E8E;}
	.st23{fill:#F3C943;}
	.st24{fill:#7B4634;}
	.st25{fill:#603222;}
	.st26{fill:#1A1A1A;}
	.st27{fill:#DB7C48;}
	.st28{fill:#E88E4E;}
</style>
<g>
	<g>
		
			<linearGradient id="SVGID_1_" gradientUnits="userSpaceOnUse" x1="191.6785" y1="264.3689" x2="249.4677" y2="264.3689" gradientTransform="matrix(1 -7.494436e-03 -7.223815e-03 -0.9639 -150.6633 294.4783)">
			<stop  offset="0.3935" style="stop-color:#A7E0FF"/>
			<stop  offset="1" style="stop-color:#DBFCFD"/>
		</linearGradient>
		<path class="st0" d="M96.3,60.5L40,61c-0.4,0-0.7-0.4-0.7-0.8L39,16.4c0-0.5,0.3-0.8,0.7-0.8L96,15c0.4,0,0.7,0.4,0.7,0.8L97,59.7
			C97,60.1,96.7,60.5,96.3,60.5z"/>
		
			<linearGradient id="SVGID_00000033361784789275122860000015132922991575501462_" gradientUnits="userSpaceOnUse" x1="191.7318" y1="303.8015" x2="249.4668" y2="303.8015" gradientTransform="matrix(1 -7.494454e-03 -7.494454e-03 -1 -150.4459 323.4519)">
			<stop  offset="1.978731e-03" style="stop-color:#27AFFB"/>
			<stop  offset="1" style="stop-color:#63CDF8"/>
		</linearGradient>
		<path style="fill:url(#SVGID_00000033361784789275122860000015132922991575501462_);" d="M96.8,20.5L39,21l0-4.6
			c0-0.5,0.3-0.9,0.7-0.9L96,15c0.4,0,0.8,0.4,0.8,0.9L96.8,20.5z"/>
		<line class="st2" x1="43.1" y1="32.8" x2="92.4" y2="32.3"/>
		<line class="st2" x1="43.2" y1="38.7" x2="92.5" y2="38.2"/>
		<line class="st2" x1="43.2" y1="44.6" x2="92.5" y2="44.1"/>
		<line class="st2" x1="43.2" y1="50.5" x2="92.5" y2="50"/>
		<polyline class="st2" points="92.6,56 43.3,56.4 43.1,26.8 92.4,26.4 		"/>
	</g>
	<polyline class="st3" points="44.1,55.7 49.8,54.1 63.5,54.1 76,55.4 89.1,54.9 92.5,54.1 	"/>
	<polyline class="st4" points="44.1,54.9 50.4,51.7 62.8,48.8 73.2,48.8 85.7,43.4 92.6,42.2 	"/>
	<polyline class="st5" points="44.1,53.7 50.4,49.3 56.6,45.5 68.3,41.9 80.8,35.2 92.6,28.3 	"/>
</g>
<path class="st6" d="M28.4,16.4c-0.9-0.1-1.8-0.3-2.7-0.4c-0.4-0.7-1-1.9-1.4-3.4c-0.5-1.9-0.9-3.3-0.3-4.8c0.6-1.6,2.1-2.5,3-2.9
	h1.4c1.6,0,3,1.3,3,2.9c0.1,1.5,0.3,3,0.4,4.5c0,0.2,0.2,2-1.3,3.2C29.7,16.2,28.8,16.3,28.4,16.4z"/>
<path class="st6" d="M25.4,14.5c-0.3,0.6,0.4,0.9,0.2,2.1c-0.1,0.6-0.5,1.4-1.1,2.1C24.1,19,24,19,23.9,19.2
	c-0.3,0.7,1.1,1.4,2.3,3.1c1.1,1.6,1.1,2.9,1.6,2.9c0.5,0,0.4-1.3,1.6-3.2c0.6-0.9,1-1.6,1.9-2.1c0.6-0.4,1.3-0.5,1.3-0.8
	c0-0.2-0.5-0.3-1.2-0.8c0,0-1-0.7-1.3-1.8c-0.3-1,0.2-1.3-0.1-1.8C29.5,13.5,25.9,13.4,25.4,14.5z"/>
<path d="M25,9.2c-0.4,0.7-0.6,1.1-0.7,1.6c-0.1,0.6,0,1.2,0.3,2.3c0.1,0.5,0.2,0.9,0.3,1.1c-0.1-0.1-0.1-0.1-0.2-0.2
	c0,0-0.3-0.2-0.5-0.6c-0.2-0.2-0.4-0.6-0.7-1.1c-0.5-1.1-1.3-2.9-0.7-4.7c0.1-0.2,0.5-1.5,1.2-1.6c0.6,0,1,1.2,1.9,1.1
	c0.4,0,0.6-0.3,0.7-0.2C26.6,7.1,25.8,7.8,25,9.2z"/>
<path d="M31.9,8.3c-0.4,0.3-1.1-0.8-2.7-0.9C28,7.3,27.1,7.9,26.9,8c-1,0.7-1.4,1.8-1.6,2.2c-0.3,0.8-0.2,1.1-0.5,1.1
	c-0.6,0.2-2.4-1.9-2.1-3.8C23.1,5.4,26,4,27.6,4.4c0.5,0.2,1,0.5,1.9,0.4c0.7-0.1,1-0.6,1.4-0.4c0.2,0.1,0.4,0.2,0.7,1.3
	C32,7.1,32.2,8,31.9,8.3z"/>
<path class="st6" d="M24.6,11c-0.1-0.1-0.3-0.3-0.6-0.3c-0.1,0-0.4-0.1-0.6,0.1c-0.1,0.1-0.1,0.3,0,0.6c0.1,0.5,0.3,0.9,0.4,0.9
	c0.2,0.3,0.3,0.5,0.5,0.6c0.1,0.1,0.4,0.2,0.5,0.1C25.2,12.8,25.2,11.6,24.6,11z"/>
<path class="st7" d="M22.9,19.5c-1.5,0.1-3.1,0.2-4.6,0.3c-1.7,4.7-3.5,9.4-5.2,14c0.4,4.7,0.8,9.3,1.2,14c1,0.1,1.9,0.2,2.9,0.3
	c0.2-4.1,0.4-8.2,0.6-12.3c2.1-3.5,4.2-6.9,6.4-10.4C23.6,23.4,23.2,21.5,22.9,19.5z"/>
<path class="st7" d="M31.9,18.7c2,0.4,4.1,0.8,6.1,1.1c1.7,4.6,3.3,9.2,4.9,13.8c-3.7,2.1-7.4,4.1-11,6.2c0.2-2,0.4-3.9,0.6-5.9
	c1.5-2.1,2.9-4.3,4.4-6.4c-0.3,6.3-0.5,12.6-0.7,18.9H18.5l0.2-25.5c-0.1-0.3-0.3-0.6-0.4-1c1.9-0.3,3.9-0.6,5.8-0.9
	c1.2,1.6,2.4,3.1,3.5,4.7C29,22,30.5,20.3,31.9,18.7z"/>
<g>
	<path class="st8" d="M43.5,44.3c-0.7,0.4-1.8,0-2.5-1c-4.2-6.2-7.7-11.5-10.8-16.1c0-0.1,0.1-0.2,0.1-0.4c0.2-0.6,0.5-1,0.8-1.4
		l0,0c0.4,0,0.8-0.1,1.3,0c0.3,0,0.5,0,0.8,0c3,4.6,6.4,10,10.4,16.3C44.3,42.8,44.2,43.9,43.5,44.3z"/>
	<path class="st9" d="M32.5,27.4c-0.8,0.5-1.7,0.5-2.1,0c-0.4-0.5,0-1.4,0.8-1.9s1.7-0.5,2.1,0C33.6,26,33.2,26.8,32.5,27.4z"/>
	<path class="st8" d="M32.2,27.2c-0.6,0.4-1.4,0.4-1.7-0.1c-0.3-0.5,0-1.1,0.6-1.5c0.6-0.4,1.3-0.4,1.6,0.1
		C33.1,26.1,32.8,26.8,32.2,27.2z"/>
	<path class="st9" d="M32,26.9c-0.4,0.3-1,0.3-1.2-0.1c-0.2-0.3,0-0.8,0.4-1.1c0.4-0.3,1-0.3,1.2,0.1C32.7,26.1,32.5,26.6,32,26.9z"
		/>
	<path class="st8" d="M31.8,26.5c-0.2,0.1-0.5,0.1-0.6-0.1c-0.1-0.2-0.1-0.5,0.1-0.6s0.5-0.1,0.6,0.1C32.1,26.1,32,26.4,31.8,26.5z"
		/>
</g>
<g>
	<path class="st10" d="M43.2,45.9c-0.9,0.7-2.3,0.7-3.1-0.2c-5.4-5.6-10.9-11.2-16.3-16.8c0-0.2,0.1-0.4,0.1-0.6
		c0.3-1,0.8-1.8,1.3-2.4l0,0c0.7-0.2,1.5-0.4,2.3-0.5c0.5-0.1,0.9-0.1,1.3-0.2c4.9,5.9,9.8,11.9,14.6,17.8
		C44.3,43.9,44.2,45.2,43.2,45.9z"/>
	<ellipse transform="matrix(0.8077 -0.5896 0.5896 0.8077 -10.9295 20.853)" class="st8" cx="26.5" cy="27.2" rx="3.1" ry="1.8"/>
	<ellipse transform="matrix(0.8122 -0.5834 0.5834 0.8122 -10.927 20.4653)" class="st10" cx="26.3" cy="27.2" rx="2.5" ry="1.5"/>
	<ellipse transform="matrix(0.816 -0.5781 0.5781 0.816 -10.85 20.1599)" class="st8" cx="26.2" cy="27.1" rx="1.8" ry="1.1"/>
	<ellipse transform="matrix(0.8401 -0.5425 0.5425 0.8401 -10.4397 18.5092)" class="st10" cx="26.2" cy="27" rx="0.8" ry="0.6"/>
</g>
<polygon class="st6" points="43.9,90.8 44.3,93.8 42.2,94.2 41.4,90.6 "/>
<polygon class="st6" points="17.5,90.9 17.3,93.9 19.4,94.1 19.9,90.5 "/>
<polygon class="st11" points="18.5,45.9 17.9,68.3 16.9,91.3 20.6,91.3 22.9,71.6 27.4,48.8 32.9,65.2 35,70.9 40.8,90.8 45.1,90.9 
	40.2,71.4 36.3,45.9 "/>
<polygon class="st12" points="17.3,93.9 15,95.8 6.8,99 18.6,99 19.6,99 19.9,96.5 19.9,93.9 "/>
<polygon class="st12" points="44.5,93.7 46.8,95.7 55,99 43.2,99 42.2,99 41.9,96.4 41.9,93.7 "/>
<path class="st13" d="M29,14.5h2.3c-0.1,0.1-0.5,0.6-1.2,0.6S29,14.5,29,14.5z"/>
<ellipse class="st14" cx="29.8" cy="11.2" rx="0.3" ry="0.2"/>
<g>
	<path class="st14" d="M24.8,13.5c0.4,2,2.2,2.9,4.1,3.1C26.9,17.1,24.5,15.6,24.8,13.5L24.8,13.5z"/>
</g>
<g>
	<path class="st14" d="M24.1,19c-1.9,0.4-3.9,0.7-5.8,1l0.1-0.1c-0.4,1.1-0.9,2.2-1.3,3.3c-0.5,1.1-0.9,2.2-1.4,3.3
		c0.4-1.1,0.7-2.3,1.1-3.4c0.4-1.1,0.9-2.3,1.3-3.4C20.1,19.4,22.1,19.1,24.1,19L24.1,19z"/>
</g>
<polygon class="st6" points="31.3,11.2 32.5,12.5 31.5,13.4 "/>
<g>
	<path class="st8" d="M41.1,49.9c-1.1,1-2.7,1-3.8,0.1C30.3,43.6,23.2,37.2,16,30.8c0-0.2,0.1-0.5,0.1-0.7c0.3-1.2,0.9-2.3,1.4-3
		l0,0c0.8-0.3,1.8-0.6,2.8-0.8C21,26.1,21.5,26,22,26c6.5,6.8,12.9,13.7,19.4,20.5C42.3,47.4,42.2,49,41.1,49.9z"/>
	<ellipse transform="matrix(0.7699 -0.6381 0.6381 0.7699 -13.7511 18.7556)" class="st9" cx="19.1" cy="28.4" rx="3.8" ry="2.2"/>
	<ellipse transform="matrix(0.7751 -0.6319 0.6319 0.7751 -13.7468 18.3628)" class="st8" cx="18.9" cy="28.5" rx="3" ry="1.8"/>
	<ellipse transform="matrix(0.7795 -0.6264 0.6264 0.7795 -13.6489 18.0479)" class="st9" cx="18.8" cy="28.4" rx="2.1" ry="1.3"/>
	<ellipse transform="matrix(0.8075 -0.5899 0.5899 0.8075 -13.0448 16.4713)" class="st8" cx="18.7" cy="28.2" rx="1" ry="0.8"/>
</g>
<g>
	<path class="st6" d="M29.2,38.3c-0.5,0.1-1.1,0.2-1.7,0.3c-1.1,0.1-2.1,0.1-2.9,0c0.5,0.8,1,1.5,1.5,2.2c0.2,0.2,0.5,0.4,0.9,0.6
		c1.4,0.5,2.8-0.5,2.9-0.6C29.6,40,29.5,39.2,29.2,38.3z"/>
	<path class="st15" d="M29.2,38.3c-1.5,0.3-3.1,0.6-4.7,0.4l0.1-0.2l1.5,2.2c0.8,0.9,2.5,0.8,3.6,0l0,0.1L29.2,38.3L29.2,38.3z
		 M29.2,38.3c0.2,0.8,0.5,1.7,0.7,2.6c-0.6,0.4-1.3,0.8-2,0.8c-0.7,0-1.5-0.2-2-0.8l-1.4-2.2l-0.1-0.2C26,38.7,27.6,38.5,29.2,38.3
		L29.2,38.3z"/>
</g>
<g>
	
		<linearGradient id="SVGID_00000150790094661742104490000001767612746317408388_" gradientUnits="userSpaceOnUse" x1="-286.155" y1="1383.568" x2="-286.155" y2="1394.0599" gradientTransform="matrix(0.8598 -0.5107 -0.5107 -0.8598 960.6002 1103.4604)">
		<stop  offset="0" style="stop-color:#757575"/>
		<stop  offset="1" style="stop-color:#989898"/>
	</linearGradient>
	<polygon style="fill:url(#SVGID_00000150790094661742104490000001767612746317408388_);" points="8.7,59.7 7.5,60.3 2,51.4 
		3.2,50.7 	"/>
	<path class="st17" d="M0.5,49.7l0.8,0.9l1-0.1l0.3-1l-0.9-1c0,0,0.1,0,0.1,0c0.3,0,0.5,0,0.6,0c0.5,0.1,0.8,0.5,0.9,0.6
		c0.1,0.1,0.3,0.4,0.3,0.8c0.1,0.5-0.2,0.9-0.3,1c-0.1,0.1-0.3,0.5-0.9,0.6c-0.4,0.1-0.7,0-0.8,0c-0.1,0-0.5-0.1-0.8-0.3
		c-0.1,0-0.5-0.4-0.5-1C0.4,50.1,0.5,49.9,0.5,49.7L0.5,49.7z"/>
	<path class="st18" d="M7.7,59.2L7.7,59.2c-0.2,0.1-0.4,0-0.5-0.1l-4-6.4c-0.1-0.2,0-0.4,0.1-0.5l0,0c0.2-0.1,0.4,0,0.5,0.1l4,6.4
		C7.9,59,7.8,59.2,7.7,59.2z"/>
	<path class="st17" d="M8.9,62.6l-0.8-0.9l0.2-0.9l1-0.1l0.8,1c0,0,0-0.1,0.1-0.1c0.1-0.2,0.1-0.5,0.1-0.6c0-0.5-0.4-0.9-0.5-1
		c-0.1-0.1-0.3-0.3-0.7-0.5c-0.5-0.1-0.9,0-1,0.1c-0.1,0-0.6,0.2-0.8,0.7c-0.2,0.3-0.2,0.6-0.2,0.8c0,0.1,0,0.5,0.2,0.8
		c0,0.1,0.3,0.5,1,0.7C8.6,62.6,8.8,62.6,8.9,62.6L8.9,62.6z"/>
</g>
<g>
	<g>
		<path class="st19" d="M9.4,58.2l0.7-0.3c0.1-0.1,0.2-0.2,0.1-0.3L4.4,46.2C4.3,46,4.2,46,4,46.1l-0.7,0.3
			c-0.1,0.1-0.2,0.2-0.1,0.3L9,58.1C9.1,58.2,9.3,58.2,9.4,58.2z"/>
		<path class="st20" d="M9.2,57.9l0.6-0.3c0.1-0.1,0.2-0.2,0.1-0.3l-5.6-11c-0.1-0.1-0.2-0.2-0.3-0.1l-0.6,0.3
			c-0.1,0.1-0.2,0.2-0.1,0.3l5.6,11C9,57.9,9.1,58,9.2,57.9z"/>
	</g>
	<g>
		<path class="st21" d="M1.8,46.2l0.8,1.6l2.9-1.4c0,0,0-0.1,0-0.2c0-0.2,0.2-0.5,0.4-0.7c0.4-0.3,0.9-0.5,1.2-0.7
			c0,0-0.1-0.1-0.1-0.1c-0.8-0.6-1.8-0.3-2.3-0.1l-3,1.4L1.8,46.2z"/>
		<path class="st22" d="M1.8,46.2l0.8,1.5l2.8-1.4c0,0,0-0.1,0-0.2c0-0.2,0.2-0.4,0.5-0.7c0.4-0.3,0.8-0.5,1.2-0.6
			c0,0-0.1-0.1-0.1-0.1c-0.8-0.5-1.8-0.2-2.2-0.1l-2.9,1.4L1.8,46.2z"/>
	</g>
</g>
<g>
	<path class="st23" d="M11.3,57.6L11.3,57.6c-0.4,0-0.7-0.3-0.7-0.7v-5.1c0-0.4,0.3-0.7,0.6-0.7h0c0.4,0,0.6,0.3,0.6,0.7v5.1
		C11.9,57.3,11.7,57.6,11.3,57.6z"/>
	<path class="st23" d="M19.7,57.6L19.7,57.6c-0.4,0-0.7-0.3-0.7-0.7v-5.1c0-0.4,0.3-0.7,0.6-0.7h0c0.4,0,0.6,0.3,0.6,0.7v5.1
		C20.4,57.3,20.1,57.6,19.7,57.6z"/>
	<path class="st24" d="M27.1,72.4H4c-0.8,0-1.5-0.7-1.5-1.5V56.1c0-0.8,0.7-1.5,1.5-1.5h23.2c0.8,0,1.5,0.7,1.5,1.5v14.8
		C28.6,71.7,28,72.4,27.1,72.4z"/>
	<path class="st25" d="M28,72.4h-25c-0.3,0-0.6-0.2-0.6-0.5v-1.2c0-0.1,0.1-0.2,0.2-0.3c0.1-0.1,0.3-0.1,0.4-0.1
		c7.1-0.5,12.5-0.5,12.5-0.5s5.8,0,12.5,0.5c0.1,0,0.3,0,0.4,0.1c0.1,0.1,0.2,0.2,0.2,0.3v1.2C28.6,72.2,28.4,72.4,28,72.4z"/>
	<g>
		<g>
			<path class="st26" d="M9.2,53.2c4.2-0.7,8.5-0.7,12.8-0.2c1.5,0.2,1.5-2.2,0-2.4c-4.5-0.5-8.9-0.4-13.4,0.3
				C7,51.2,7.7,53.5,9.2,53.2L9.2,53.2z"/>
		</g>
	</g>
</g>
<path class="st6" d="M14.1,47.8c-0.2,0.5-0.4,0.9-0.6,1.4v1.4l1.7,0.6l2-0.6v-1.4c-0.1-0.4-0.2-0.8-0.3-1.1
	C16.1,48,15.1,47.9,14.1,47.8z"/>
<g>
	<path class="st27" d="M22.6,10.4c0.3,0.8,2.7,0.8,5.7-0.1c3.4-1.1,6.1-2.9,5.8-3.9s-3.6-0.7-6.9,0.5C24.2,8,22.3,9.5,22.6,10.4z"/>
	<path class="st28" d="M23,10.2c0.2,0.7,2.4,0.7,5.1-0.2c3-1,5.5-2.6,5.2-3.5S30,6,27.1,7.1C24.4,8.1,22.7,9.5,23,10.2z"/>
	<path class="st27" d="M31.8,6.1c0.3-1.2-0.9-2.5-1.6-3.1c-1.8-1.5-4.1-1-4.5-0.9c-0.3,0.1-2.5,0.7-3.5,3c-0.1,0.1-0.8,1.9-0.2,3.8
		c0.1,0.4,0.4,1.2,1,1.4c0.5,0.1,0.9-0.2,1.1-0.4c1-0.8,1.2-0.3,4.2-1.6C30.6,7.4,31.6,6.9,31.8,6.1z"/>
	<path class="st28" d="M29.8,7.3c0.2-0.9-0.7-2-1.2-2.4c-1.4-1.2-3.1-0.8-3.4-0.7c-0.2,0.1-1.9,0.5-2.6,2.3c0,0.1-0.6,1.5-0.1,3
		c0.1,0.3,0.3,1,0.7,1.1c0.3,0.1,0.7-0.2,0.8-0.3C24.9,9.5,25,9.9,27.2,9C28.9,8.2,29.7,7.9,29.8,7.3z"/>
</g>
<path class="st7" d="M36.5,29.3c0.3,0.8,0.6,1.7,0.8,2.5c-2.7,2.1-5.4,4.3-8.1,6.4c0.2,0.8,0.4,1.7,0.6,2.5
	c4.4-2.4,8.7-4.9,13.1-7.3c-0.6-1.8-1.3-3.5-1.9-5.3c-1-2.8-9.1-9.5-9.1-9.5"/>
<g>
	<path class="st14" d="M36.1,28.2c0.5,1.2,1,2.5,1.5,3.7L37.5,32c-2.7,2.2-5.4,4.4-8.2,6.3c1.3-1.2,2.6-2.3,4-3.4
		c1.3-1.1,2.7-2.2,4.1-3.2l0,0.2C36.8,30.7,36.4,29.5,36.1,28.2L36.1,28.2z"/>
</g>
<g>
	<path class="st14" d="M18.6,34.2c0.2,3.9,0.2,7.8-0.1,11.7C18.3,42,18.3,38.1,18.6,34.2L18.6,34.2z"/>
</g>
</svg>
