<?xml version="1.0" encoding="utf-8"?>
<!-- Generator: Adobe Illustrator 26.0.1, SVG Export Plug-In . SVG Version: 6.00 Build 0)  -->
<svg version="1.1" id="Layer_1" xmlns="http://www.w3.org/2000/svg" xmlns:xlink="http://www.w3.org/1999/xlink" x="0px" y="0px"
	 viewBox="0 0 100 100" style="enable-background:new 0 0 100 100;" xml:space="preserve">
<style type="text/css">
	.st0{fill:#99B0D5;}
	.st1{fill:none;stroke:#7F90B1;stroke-miterlimit:10;}
	.st2{fill:none;stroke:#7F90B1;stroke-width:3;stroke-miterlimit:10;}
	.st3{fill:#FFB99E;}
	.st4{fill:#414042;}
	.st5{fill:url(#SVGID_1_);}
	.st6{fill:url(#SVGID_00000049921424495380284780000013675272818396700303_);}
	.st7{fill:none;stroke:#FFFFFF;stroke-width:0.4;stroke-miterlimit:10;}
	.st8{fill:#336DFF;}
	.st9{fill:#FFBA9F;}
	.st10{fill:#242528;}
	.st11{fill:#011435;}
	.st12{fill:#333D49;}
	.st13{fill:#7F90B1;}
</style>
<g>
	<path class="st0" d="M97.8,44.6c0-0.4,0.1-0.8,0.1-1.3c0-0.5,0-0.9-0.1-1.3l-1.6-1.1c-0.1-0.5-0.2-1.1-0.4-1.6l1-1.6
		c-0.3-0.8-0.7-1.6-1.2-2.3L93.7,35c-0.3-0.4-0.7-0.9-1-1.3l0.2-1.9c-0.6-0.6-1.3-1.2-2.1-1.6L89,30.8c-0.5-0.2-0.9-0.5-1.4-0.7
		l-0.7-1.8c-0.8-0.3-1.7-0.5-2.6-0.6l-1.4,1.3c-0.2,0-0.4,0-0.7,0c-0.3,0-0.6,0-0.8,0l-1.4-1.3c-0.9,0.1-1.8,0.3-2.6,0.6l-0.7,1.8
		c-0.4,0.2-0.9,0.4-1.3,0.6l-1.9-0.6c-0.8,0.5-1.5,1.1-2.1,1.7l0.2,2c-0.3,0.3-0.6,0.7-0.9,1.1l-2,0.3c-0.5,0.8-0.9,1.6-1.2,2.4
		l1,1.7c-0.1,0.4-0.2,0.9-0.3,1.3l-1.7,1.1c0,0.5-0.1,0.9-0.1,1.4c0,0.4,0,0.9,0.1,1.3l1.7,1.1c0.1,0.5,0.2,0.9,0.3,1.3l-1,1.8
		c0.3,0.8,0.7,1.6,1.2,2.4l2,0.3c0.3,0.4,0.6,0.7,0.9,1.1l-0.2,2c0.6,0.6,1.3,1.2,2.1,1.7l1.9-0.6c0.4,0.2,0.8,0.4,1.3,0.6l0.7,1.9
		c0.8,0.3,1.7,0.5,2.5,0.6l1.5-1.4c0.3,0,0.6,0,0.8,0c0.2,0,0.4,0,0.7,0l1.5,1.4c0.9-0.1,1.7-0.3,2.5-0.6l0.7-1.9
		c0.5-0.2,1-0.4,1.4-0.7l1.9,0.6c0.7-0.5,1.4-1,2-1.6l-0.2-2c0.4-0.4,0.7-0.8,1-1.3l1.9-0.3c0.4-0.7,0.8-1.5,1.1-2.3l-1-1.7
		c0.2-0.5,0.3-1.1,0.4-1.6L97.8,44.6z M82.1,54.4c-6.1,0-11.1-5-11.1-11.1S76,32.3,82.1,32.3s11.1,5,11.1,11.1S88.2,54.4,82.1,54.4z
		"/>
	<circle class="st1" cx="82.2" cy="43.3" r="11.7"/>
</g>
<g>
	<path class="st0" d="M61.3,47.8c0.1-0.8,0.1-1.6,0.1-2.4c0-0.9,0-1.7-0.1-2.6l-3-2.1c-0.2-1-0.4-2.1-0.7-3.1l1.8-3.2
		C58.7,33,58,31.5,57.1,30l-3.6-0.5c-0.6-0.8-1.2-1.6-1.9-2.4l0.3-3.6c-1.2-1.2-2.6-2.2-4-3.2l-3.5,1.1c-0.9-0.5-1.8-0.9-2.7-1.3
		l-1.3-3.4c-1.6-0.5-3.3-0.9-5-1.1l-2.7,2.5c-0.4,0-0.9,0-1.3,0c-0.5,0-1,0-1.6,0l-2.7-2.5c-1.7,0.2-3.4,0.6-5.1,1.2l-1.4,3.5
		c-0.9,0.4-1.7,0.8-2.5,1.2l-3.6-1.1c-1.4,1-2.8,2.1-4.1,3.3l0.3,3.8c-0.6,0.7-1.1,1.4-1.6,2.1L5.4,30c-0.9,1.5-1.6,3-2.3,4.7
		L5.1,38c-0.2,0.8-0.4,1.7-0.6,2.5l-3.2,2.2c-0.1,0.9-0.1,1.8-0.1,2.7c0,0.8,0,1.7,0.1,2.5l3.2,2.2c0.2,0.9,0.3,1.7,0.6,2.5l-2,3.4
		c0.6,1.6,1.3,3.2,2.2,4.6l3.9,0.6c0.5,0.7,1.1,1.4,1.6,2.1l-0.3,3.9c1.2,1.2,2.5,2.2,3.9,3.2l3.7-1.2c0.8,0.4,1.6,0.8,2.5,1.2
		l1.4,3.7c1.6,0.5,3.2,0.9,4.9,1.1l2.8-2.7c0.5,0,1,0.1,1.6,0.1c0.4,0,0.9,0,1.3,0l2.8,2.7c1.7-0.2,3.3-0.6,4.8-1.1l1.4-3.6
		c0.9-0.4,1.8-0.8,2.7-1.3l3.6,1.1c1.4-0.9,2.7-1.9,3.8-3.1l-0.3-3.8c0.7-0.8,1.3-1.6,1.9-2.4l3.7-0.5c0.8-1.4,1.5-2.9,2.1-4.4
		l-1.9-3.2c0.3-1,0.5-2,0.7-3.1L61.3,47.8z M31.3,66.6c-11.7,0-21.2-9.5-21.2-21.2s9.5-21.2,21.2-21.2s21.2,9.5,21.2,21.2
		S43,66.6,31.3,66.6z"/>
	<circle class="st2" cx="31.3" cy="45.4" r="22.5"/>
</g>
<path class="st3" d="M59.5,12.6c0.3,0.5-0.4,0.9-0.3,2c0.1,0.6,0.4,1.4,1,2c0.3,0.4,0.5,0.3,0.5,0.5c0.2,0.7-1.2,1.4-2.3,2.9
	c-1.2,1.5-1.2,2.8-1.6,2.7c-0.5,0-0.3-1.3-1.5-3.1c-0.6-0.9-1-1.5-1.8-2c-0.6-0.4-1.2-0.5-1.2-0.8c0-0.2,0.5-0.3,1.2-0.7
	c0,0,1-0.7,1.3-1.7c0.3-0.9-0.2-1.2,0.1-1.7C55.5,11.5,59,11.5,59.5,12.6z"/>
<path class="st3" d="M55.3,13.9c0.4,0.2,0.8,0.5,1.1,0.7c0.2,0.1,1.5,0.3,2.6-0.5c0.9-0.6,1.1-1.6,1.2-1.8l1-5.2
	c0.3-1.5-0.7-3-2.3-3.3l-1.5-0.3c-1.5-0.3-3,0.7-3.3,2.3c-0.1,1.5-0.2,3-0.3,4.4c-0.1,0.3-0.3,1.5,0.4,2.6
	C54.6,13.4,55,13.7,55.3,13.9z"/>
<path d="M60.9,9c0.2-0.1,0.5-0.2,0.8-0.4c0.1-0.1,0.4-0.4,0.6-0.9c0.1-0.4,0.1-0.7,0.1-0.7c0-0.2,0-0.6-0.2-0.9
	c-0.1-0.1-0.2-0.4-0.6-0.5c-0.1-0.1-0.3-0.1-0.3-0.1c0,0-0.1-0.1-0.2-0.1c-0.2,0.1-0.2,0.4-0.2,0.4c0,0,0,0,0.1,0c0,0,0,0.1,0,0.1
	c0.1,1.6-0.1,2.9-0.1,2.9C60.9,8.9,60.9,8.9,60.9,9z"/>
<path class="st3" d="M60.6,8.7c0.1-0.1,0.3-0.2,0.7-0.2c0.1,0,0.4,0,0.5,0.2c0.1,0.1,0,0.3-0.1,0.5c-0.2,0.5-0.5,0.8-0.5,0.8
	c-0.2,0.2-0.4,0.4-0.6,0.5c-0.2,0.1-0.4,0.1-0.5,0C59.7,10.3,59.9,9.1,60.6,8.7z"/>
<path d="M62.3,2.5c0.1,0.1,0.6,0.5,0.7,1.2c0,0.4-0.2,0.7-0.3,0.9c-0.1,0.1-0.2,0.4-0.6,0.7C62,5.4,61.6,5.7,61,5.8
	c-0.3,0.1-0.6,0-1-0.1c-0.2,0-0.8-0.2-1.6-0.6C58,4.9,58,4.8,57.6,4.7c-0.4-0.1-0.7,0.1-0.9,0.1C56.3,5,56.3,5.1,56,5.2
	c-0.7,0.2-1.6,0.1-1.9-0.4c-0.1-0.2-0.2-0.4-0.2-0.5c0-0.2-0.1-0.4,0-0.6C54,3.2,54.7,3,54.8,2.9c0.6-0.2,1.1,0,1.5,0.1
	c0.6,0.2,0.7,0.4,1.1,0.4c0.4,0,0.7-0.1,0.9-0.2c0.4-0.2,0.5-0.3,0.8-0.6c0.2-0.2,0.6-0.4,1-0.5C60.7,1.9,61.6,1.9,62.3,2.5z"/>
<path d="M54,7.7c-0.2-0.1-0.4-0.2-0.7-0.5c0,0,0,0,0,0c-0.7-0.7-0.6-1.5-0.6-1.5c0.1-0.5,0.4-0.9,0.5-1c0.2-0.3,0.7-0.6,1-0.5
	c0,0,0.2,0.1,0.1,0.6c0,0,0.1,0,0.2,0c0.2,0.1,0.2,0.3,0.1,0.4c0,0,0,0-0.1,0c0,0,0,0-0.1,0.1C54.5,5.3,54,7.6,54,7.7z"/>
<path class="st3" d="M54.2,7.5c0-0.1-0.2-0.3-0.5-0.4c-0.1,0-0.4-0.1-0.6,0c-0.1,0.1-0.1,0.2-0.1,0.5c0,0.5,0.1,0.9,0.2,0.9
	c0.1,0.3,0.2,0.5,0.4,0.7c0.1,0.1,0.3,0.2,0.5,0.2C54.4,9.3,54.6,8.1,54.2,7.5z"/>
<g>
	<path class="st4" d="M58.5,10.1c0.2,0.4,0.2,0.8,0.3,1.1c-0.2,0.2-0.5,0.3-0.8,0.5c0.2-0.2,0.4-0.4,0.6-0.6l0,0.1
		C58.5,10.9,58.4,10.5,58.5,10.1L58.5,10.1z"/>
</g>
<ellipse transform="matrix(0.1782 -0.984 0.984 0.1782 38.049 63.1655)" class="st4" cx="56.8" cy="8.8" rx="0.2" ry="0.3"/>
<ellipse transform="matrix(0.1782 -0.984 0.984 0.1782 40.1378 66.1424)" class="st4" cx="59.7" cy="9" rx="0.2" ry="0.3"/>
<g>
	<g>
		<path class="st4" d="M60.8,9.7c-0.1,3-0.7,5.3-4.3,4.7c0.6,0,1.2-0.1,1.8-0.2C60.3,13.8,60.3,11.4,60.8,9.7L60.8,9.7z"/>
	</g>
</g>
<g>
	<path class="st4" d="M58.9,12.5c-0.7,0.4-1.6,0.4-2.3,0.1C57.4,12.7,58.1,12.7,58.9,12.5C58.9,12.5,58.1,12.7,58.9,12.5z"/>
</g>
<g>
	
		<linearGradient id="SVGID_1_" gradientUnits="userSpaceOnUse" x1="179.1099" y1="246.8093" x2="256.7563" y2="246.8093" gradientTransform="matrix(0.9906 -7.423940e-03 -7.392895e-03 -0.9864 -157.4299 312.9606)">
		<stop  offset="0.3935" style="stop-color:#A7E0FF"/>
		<stop  offset="1" style="stop-color:#DBFCFD"/>
	</linearGradient>
	<path class="st5" d="M94.4,93.7l-75.1,0.6c-0.5,0-0.9-0.4-0.9-1L18,43.1c0-0.5,0.4-1,0.9-1L94,41.5c0.5,0,0.9,0.4,0.9,1l0.4,50.2
		C95.3,93.3,94.9,93.7,94.4,93.7z"/>
	
		<linearGradient id="SVGID_00000132806086138517364760000015488633468953942928_" gradientUnits="userSpaceOnUse" x1="178.1224" y1="277.0287" x2="255.7487" y2="277.0287" gradientTransform="matrix(0.9917 -7.432627e-03 -7.494450e-03 -1 -156.5528 323.4975)">
		<stop  offset="1.978731e-03" style="stop-color:#27AFFB"/>
		<stop  offset="1" style="stop-color:#63CDF8"/>
	</linearGradient>
	<path style="fill:url(#SVGID_00000132806086138517364760000015488633468953942928_);" d="M95,47.6l-77,0.6l0-5.1c0-0.6,0.4-1,1-1.1
		L94,41.5c0.5,0,1,0.5,1,1L95,47.6z"/>
	<line class="st7" x1="18" y1="48.2" x2="95" y2="47.6"/>
	<line class="st7" x1="18.1" y1="54.8" x2="95" y2="54.2"/>
	<line class="st7" x1="18.1" y1="61.4" x2="95.1" y2="60.8"/>
	<line class="st7" x1="18.2" y1="67.9" x2="95.1" y2="67.3"/>
	<line class="st7" x1="18.2" y1="74.5" x2="95.2" y2="73.9"/>
	<line class="st7" x1="18.3" y1="81.1" x2="95.2" y2="80.5"/>
	<line class="st7" x1="18.3" y1="87.6" x2="95.3" y2="87.1"/>
	<line class="st7" x1="30.3" y1="94.2" x2="30" y2="48"/>
	<line class="st7" x1="37.8" y1="94.2" x2="37.5" y2="48"/>
	<line class="st7" x1="45" y1="94.1" x2="44.7" y2="47.9"/>
	<line class="st7" x1="52.2" y1="94" x2="51.8" y2="47.9"/>
	<line class="st7" x1="59.3" y1="93.8" x2="59" y2="47.8"/>
	<line class="st7" x1="66.5" y1="93.9" x2="66.2" y2="47.8"/>
	<line class="st7" x1="73.7" y1="93.9" x2="73.4" y2="47.7"/>
	<line class="st7" x1="80.9" y1="93.7" x2="80.5" y2="47.7"/>
	<line class="st7" x1="88.1" y1="93.8" x2="87.7" y2="47.6"/>
</g>
<path class="st8" d="M52.5,16.3c-2,0.7-4.1,1.4-6.1,2c1.2,7.1,2.5,14.2,3.7,21.2c1.2-0.2,2.5-0.5,3.7-0.7c3.2-0.2,6.5-0.5,9.7-0.7
	c1.6-3.6,3.1-7.2,4.7-10.9L64,16.9l-4.3-1l-2.3,3.9L52.5,16.3z"/>
<path class="st9" d="M41.7,42.8c-1.1,0-2.3,0-3.4,0c0.2-0.9,0.5-1.8,0.7-2.8c1.3,0,2.5,0,3.8,0C42.5,41,42.1,41.9,41.7,42.8z"/>
<path class="st10" d="M39,40.1l0.1,2.9l-3.3,1.3c-2.2-0.7-4.4-1.4-6.6-2.1c2.1-0.9,4.3-1.8,6.4-2.7C36.7,39.7,37.9,39.9,39,40.1z"/>
<path class="st11" d="M41.2,39.6c0,1.2,0,2.4,0,3.6l30.6,1.7c1-0.6,2-1.2,3-1.9c0-1.4,0-2.7,0-4.1c-1.6-0.7-3.2-1.5-4.8-2.2
	c-4.6,0.7-9.5,1.3-14.6,1.9C50.4,39,45.7,39.3,41.2,39.6z"/>
<path class="st9" d="M56.2,68.9c0.1,1.1,0.2,2.2,0.3,3.4c-0.9-0.2-1.9-0.4-2.8-0.6c-0.1-1.3-0.2-2.5-0.3-3.8
	C54.3,68.3,55.2,68.6,56.2,68.9z"/>
<path class="st11" d="M52.4,70.2c1.5-0.3,3-0.6,4.5-0.9c-1-10-2-20.1-3-30.2c-0.1-0.4-0.2-0.7-0.4-1.1c-1.5-0.5-3.1-1.1-4.6-1.7
	l-3.3,2.5L52.4,70.2z"/>
<path class="st8" d="M46.4,18.4c-0.1,5.2-0.2,10.5-0.4,15.7l9.8,2.4l-3-8.1l-4.5-10C47.6,18.4,47,18.4,46.4,18.4z"/>
<path class="st10" d="M53.6,71.8l2.9-0.3l1.6,3.2l-1.4,7.7c-1.1-2.4-2.3-4.7-3.4-7.1C53.4,74.1,53.5,72.9,53.6,71.8z"/>
<g>
	<path class="st12" d="M56.5,38.5c-1.4-0.4-2.7-0.7-4.1-1.1c2.6-0.1,5.2-0.2,7.8-0.4C58.9,37.5,57.7,38,56.5,38.5z"/>
	<path class="st13" d="M56.7,38.7h17.2c0.6,0,1.1-0.5,1.1-1.1V25.1c0-0.6-0.5-1.1-1.1-1.1H56.7c-0.6,0-1.1,0.5-1.1,1.1v12.4
		C55.5,38.1,56,38.7,56.7,38.7z"/>
	<ellipse class="st0" cx="65.2" cy="31.2" rx="1.6" ry="1.6"/>
</g>
<g>
	<path class="st4" d="M50.6,24.4c0,2,0,4-0.1,6l-0.1-0.1c1.4,0.6,2.9,1.3,4.3,2c-1.5-0.5-3-1.2-4.5-1.8
		C50.3,28.4,50.4,26.4,50.6,24.4L50.6,24.4z"/>
</g>
<g>
	<path class="st4" d="M52.5,16.3c-2,0.7-4,1.5-6.1,2.1l0.1-0.1c-0.1,5.2-0.2,10.5-0.5,15.7c0-5.3,0.1-10.5,0.2-15.8
		C48.3,17.6,50.4,17,52.5,16.3L52.5,16.3z"/>
</g>
<g>
	<path class="st4" d="M59.8,15.9c1.5,0.3,2.9,0.6,4.4,0.9l0,0.1c0.9,2.2,1.8,4.4,2.6,6.7c-1-2.2-1.9-4.4-2.8-6.6L64,17
		C62.6,16.7,61.2,16.3,59.8,15.9L59.8,15.9z"/>
</g>
</svg>
