<?xml version="1.0" encoding="utf-8"?>
<!-- Generator: Adobe Illustrator 21.1.0, SVG Export Plug-In . SVG Version: 6.00 Build 0)  -->
<svg version="1.1" id="Layer_1" xmlns="http://www.w3.org/2000/svg" xmlns:xlink="http://www.w3.org/1999/xlink" x="0px" y="0px"
	 viewBox="0 0 36 24" style="enable-background:new 0 0 36 24;" xml:space="preserve">
<style type="text/css">
	.st0{fill:#0086FF;}
</style>
<title>Combined Shape</title>
<desc>Created with Sketch.</desc>
<g id="Current-Design">
	<g id="_x34_699---Homepage---V5" transform="translate(-128.000000, -618.000000)">
		<g id="Group-72" transform="translate(128.000000, 615.000000)">
			<g id="Group-56" transform="translate(0.000000, 3.000000)">
				<path id="Combined-Shape" class="st0" d="M24.1,0.2c0.2,0.1,0.3,0.3,0.3,0.5l0,0.1v2.4h10.4c0.4,0,0.7,0.3,0.8,0.7l0,0.1v15.9
					c0,0.4-0.3,0.7-0.7,0.8l-0.1,0H24.3v2.4c0,0.2-0.1,0.5-0.3,0.6c-0.1,0.1-0.3,0.2-0.5,0.2l-0.1,0l-0.1,0l-12.7-2.4
					c-0.3-0.1-0.6-0.3-0.6-0.7l0-0.1V3.2c0-0.3,0.2-0.6,0.5-0.8l0.1,0L23.4,0C23.6,0,23.9,0,24.1,0.2z M33.9,4.8h-9.6v1.6h2.4
					c0.4,0,0.8,0.4,0.8,0.8c0,0.4-0.3,0.7-0.7,0.8l-0.1,0h-2.4v1.6h2.4c0.4,0,0.8,0.4,0.8,0.8c0,0.4-0.3,0.7-0.7,0.8l-0.1,0h-2.4
					v1.6h2.4c0.4,0,0.8,0.4,0.8,0.8c0,0.4-0.3,0.7-0.7,0.8l-0.1,0h-2.4v1.6h2.4c0.4,0,0.8,0.4,0.8,0.8c0,0.4-0.3,0.7-0.7,0.8l-0.1,0
					h-2.4v1.6h9.6V4.8z M29.9,15.9h1.6c0.4,0,0.8,0.4,0.8,0.8c0,0.4-0.3,0.7-0.7,0.8l-0.1,0h-1.6c-0.4,0-0.8-0.4-0.8-0.8
					C29.1,16.3,29.4,16,29.9,15.9L29.9,15.9h1.6H29.9z M7,15c0.6,0,1,0.4,1,1s-0.4,1-1,1H1c-0.6,0-1-0.4-1-1s0.4-1,1-1H7z M19.8,7.4
					L19.8,7.4l-2.4,3.1l-2-2.3c-0.3-0.3-0.8-0.4-1.1-0.1c-0.3,0.3-0.4,0.7-0.1,1l0.1,0.1l2.2,2.5l-2.2,2.9c-0.3,0.3-0.2,0.8,0.1,1.1
					c0.1,0.1,0.3,0.2,0.5,0.2c0.2,0,0.4-0.1,0.5-0.2l0.1-0.1l2-2.6l2.3,2.6c0.2,0.2,0.4,0.3,0.6,0.3c0.2,0,0.4-0.1,0.5-0.2
					c0.3-0.3,0.4-0.7,0.1-1L21,14.6l-2.5-2.9L21,8.5c0.3-0.3,0.2-0.8-0.1-1.1C20.5,7.1,20.1,7.1,19.8,7.4z M31.5,12.7
					c0.4,0,0.8,0.4,0.8,0.8c0,0.4-0.3,0.7-0.7,0.8l-0.1,0h-1.6c-0.4,0-0.8-0.4-0.8-0.8c0-0.4,0.3-0.7,0.7-0.8l0.1,0H31.5z M7,11
					c0.6,0,1,0.4,1,1s-0.4,1-1,1H1c-0.6,0-1-0.4-1-1s0.4-1,1-1H7z M31.5,9.6c0.4,0,0.8,0.4,0.8,0.8c0,0.4-0.3,0.7-0.7,0.8l-0.1,0
					h-1.6c-0.4,0-0.8-0.4-0.8-0.8c0-0.4,0.3-0.7,0.7-0.8l0.1,0H31.5z M7,7c0.6,0,1,0.4,1,1S7.6,9,7,9H1C0.4,9,0,8.6,0,8s0.4-1,1-1H7
					z M31.5,6.4c0.4,0,0.8,0.4,0.8,0.8c0,0.4-0.3,0.7-0.7,0.8l-0.1,0h-1.6c-0.4,0-0.8-0.4-0.8-0.8c0-0.4,0.3-0.7,0.7-0.8l0.1,0H31.5
					z"/>
			</g>
		</g>
	</g>
</g>
</svg>
