<?xml version="1.0" encoding="UTF-8"?>
<svg width="36px" height="24px" viewBox="0 0 36 24" version="1.1" xmlns="http://www.w3.org/2000/svg" xmlns:xlink="http://www.w3.org/1999/xlink">
    <!-- Generator: Sketch 57.1 (83088) - https://sketch.com -->
    <title>Combined Shape</title>
    <desc>Created with Sketch.</desc>
    <g id="Current-Design" stroke="none" stroke-width="1" fill="none" fill-rule="evenodd">
        <g id="4699---Homepage---V5" transform="translate(-128.000000, -618.000000)" fill="#0086FF" fill-rule="nonzero">
            <g id="Group-72" transform="translate(128.000000, 615.000000)">
                <g id="Group-56" transform="translate(0.000000, 3.000000)">
                    <path d="M24.0518506,0.184310052 C24.2045477,0.31045113 24.3030263,0.487491241 24.3316109,0.680391195 L24.340249,0.797754035 L24.340249,3.18779553 L34.6970954,3.18779553 C35.1030348,3.18779553 35.438376,3.49191063 35.4875649,3.88458672 L35.4937759,3.98447603 L35.4937759,19.918086 C35.4937759,20.3240253 35.1896608,20.6593665 34.7969847,20.7085555 L34.6970954,20.7147665 L24.340249,20.7147665 L24.340249,23.104808 C24.340249,23.3406254 24.2350871,23.5668827 24.0518506,23.718252 C23.9084481,23.837754 23.7283983,23.9014885 23.5435685,23.9014885 L23.4696763,23.8979034 L23.3969793,23.8871482 L10.6500913,21.4971067 C10.3102274,21.4340096 10.0555446,21.1605411 10.0080066,20.8277039 L10,20.7147665 L10,3.18779553 C10,2.84219553 10.2206964,2.54176731 10.5401255,2.43402902 L10.6500913,2.40545528 L23.3969793,0.015413786 C23.6264232,-0.0323870438 23.8702075,0.032940757 24.0518506,0.184310052 Z M33.9004149,4.78115652 L24.340249,4.78115652 L24.340249,6.37451752 L26.7302905,6.37451752 C27.1700581,6.37451752 27.526971,6.73143038 27.526971,7.17119802 C27.526971,7.57713737 27.2228559,7.91247858 26.8301798,7.96166753 L26.7302905,7.96787852 L24.340249,7.96787852 L24.340249,9.56123951 L26.7302905,9.56123951 C27.1700581,9.56123951 27.526971,9.91815238 27.526971,10.35792 C27.526971,10.7638594 27.2228559,11.0992006 26.8301798,11.1483895 L26.7302905,11.1546005 L24.340249,11.1546005 L24.340249,12.7479615 L26.7302905,12.7479615 C27.1700581,12.7479615 27.526971,13.1048744 27.526971,13.544642 C27.526971,13.9505814 27.2228559,14.2859226 26.8301798,14.3351115 L26.7302905,14.3413225 L24.340249,14.3413225 L24.340249,15.9346835 L26.7302905,15.9346835 C27.1700581,15.9346835 27.526971,16.2915964 27.526971,16.731364 C27.526971,17.1373033 27.2228559,17.4726446 26.8301798,17.5218335 L26.7302905,17.5280445 L24.340249,17.5280445 L24.340249,19.1214055 L33.9004149,19.1214055 L33.9004149,4.78115652 Z M29.9170124,15.9346835 L31.5103734,15.9346835 C31.9501411,15.9346835 32.3070539,16.2915964 32.3070539,16.731364 C32.3070539,17.1373033 32.0029388,17.4726446 31.6102627,17.5218335 L31.5103734,17.5280445 L29.9170124,17.5280445 C29.4772448,17.5280445 29.120332,17.1711316 29.120332,16.731364 C29.120332,16.3254246 29.4244471,15.9900834 29.8171231,15.9408945 L29.9170124,15.9346835 L31.5103734,15.9346835 Z M7,15 C7.55228475,15 8,15.4477153 8,16 C8,16.5522847 7.55228475,17 7,17 L1,17 C0.44771525,17 6.76353751e-17,16.5522847 0,16 C-6.76353751e-17,15.4477153 0.44771525,15 1,15 L7,15 Z M19.8013389,7.3981828 L19.7290622,7.47871669 L17.3692946,10.512476 L15.3807801,8.24034325 C15.0876017,7.9073308 14.5856929,7.87546358 14.2558672,8.16545528 C13.9520664,8.43128101 13.8986335,8.87651475 14.1152052,9.20292416 L14.1809793,9.28877478 L16.3718506,11.7935383 L14.1507054,14.6488412 C13.8814274,14.9961939 13.9435685,15.4965092 14.2909212,15.7673806 C14.4375104,15.8805092 14.6095934,15.9346835 14.780083,15.9346835 C14.9765975,15.9346835 15.173112,15.8616544 15.3244444,15.7211289 L15.4094606,15.6287582 L17.4409959,13.0156462 L19.7577427,15.6622188 C19.9154855,15.8422686 20.1353693,15.9346835 20.3568465,15.9346835 C20.5432697,15.9346835 20.7296929,15.8693557 20.8810622,15.7371067 C21.1848631,15.471281 21.238296,15.0260473 21.0217243,14.6996379 L20.9559502,14.6137872 L18.4368465,11.7345839 L20.9862241,8.4586337 C21.2570954,8.10968764 21.1949544,7.60937229 20.8476017,7.34009428 C20.529195,7.09179553 20.0822573,7.1246586 19.8013389,7.3981828 Z M31.5103734,12.7479615 C31.9501411,12.7479615 32.3070539,13.1048744 32.3070539,13.544642 C32.3070539,13.9505814 32.0029388,14.2859226 31.6102627,14.3351115 L31.5103734,14.3413225 L29.9170124,14.3413225 C29.4772448,14.3413225 29.120332,13.9844096 29.120332,13.544642 C29.120332,13.1387026 29.4244471,12.8033614 29.8171231,12.7541725 L29.9170124,12.7479615 L31.5103734,12.7479615 Z M7,11 C7.55228475,11 8,11.4477153 8,12 C8,12.5522847 7.55228475,13 7,13 L1,13 C0.44771525,13 6.76353751e-17,12.5522847 0,12 C-6.76353751e-17,11.4477153 0.44771525,11 1,11 L7,11 Z M31.5103734,9.56123951 C31.9501411,9.56123951 32.3070539,9.91815238 32.3070539,10.35792 C32.3070539,10.7638594 32.0029388,11.0992006 31.6102627,11.1483895 L31.5103734,11.1546005 L29.9170124,11.1546005 C29.4772448,11.1546005 29.120332,10.7976876 29.120332,10.35792 C29.120332,9.95198065 29.4244471,9.61663945 29.8171231,9.5674505 L29.9170124,9.56123951 L31.5103734,9.56123951 Z M7,7 C7.55228475,7 8,7.44771525 8,8 C8,8.55228475 7.55228475,9 7,9 L1,9 C0.44771525,9 6.76353751e-17,8.55228475 0,8 C-6.76353751e-17,7.44771525 0.44771525,7 1,7 L7,7 Z M31.5103734,6.37451752 C31.9501411,6.37451752 32.3070539,6.73143038 32.3070539,7.17119802 C32.3070539,7.57713737 32.0029388,7.91247858 31.6102627,7.96166753 L31.5103734,7.96787852 L29.9170124,7.96787852 C29.4772448,7.96787852 29.120332,7.61096565 29.120332,7.17119802 C29.120332,6.76525866 29.4244471,6.42991746 29.8171231,6.38072851 L29.9170124,6.37451752 L31.5103734,6.37451752 Z" id="Combined-Shape"></path>
                </g>
            </g>
        </g>
    </g>
</svg>