<?xml version="1.0" encoding="UTF-8"?>
<svg width="19px" height="30px" viewBox="0 0 19 30" version="1.1" xmlns="http://www.w3.org/2000/svg" xmlns:xlink="http://www.w3.org/1999/xlink">
    <!-- Generator: Sketch 57.1 (83088) - https://sketch.com -->
    <title>Combined Shape</title>
    <desc>Created with Sketch.</desc>
    <g id="Current-Design" stroke="none" stroke-width="1" fill="none" fill-rule="evenodd">
        <g id="4699---Homepage---V5" transform="translate(-318.000000, -615.000000)" fill="#000" fill-rule="nonzero">
            <g id="Group-72" transform="translate(128.000000, 615.000000)">
                <g id="Group-53" transform="translate(190.000000, 0.000000)">
                    <path d="M16.5403125,23.691375 C17.024625,23.691375 17.41725,24.084 17.41725,24.5683125 L17.41725,29.1230625 C17.41725,29.607375 17.02475,30 16.5404375,30 L5.5183125,30 C5.034,30 4.641375,29.607375 4.641375,29.1230625 L4.641375,24.5683125 C4.641375,24.084 5.034,23.691375 5.5183125,23.691375 L16.5403125,23.691375 Z M15.663375,25.44525 L6.39525,25.44525 L6.39525,28.246125 L15.663375,28.246125 L15.663375,25.44525 Z M5.6813125,14.4704375 C6.282375,14.7803125 6.7265,15.305625 6.9321875,15.949625 L7.718875,18.39775 C7.867,18.8588125 7.613375,19.35275 7.1523125,19.5009375 C6.6913125,19.6490625 6.1973125,19.3954375 6.049125,18.934375 L5.2619375,16.4846875 C5.198375,16.285625 5.0620625,16.1245625 4.8775625,16.029375 C4.693,15.934125 4.4824375,15.9165 4.2845625,15.97975 C3.8791875,16.109375 3.6534375,16.5435 3.7789375,16.949875 L5.7849375,21.8084375 C5.9418125,22.266625 5.6975,22.76525 5.2393125,22.922125 C5.1451875,22.954375 5.0494375,22.969625 4.9551875,22.969625 C4.59075,22.969625 4.2503125,22.7405625 4.125625,22.3765 L2.116125,17.5075625 C2.1141875,17.50175 2.11225,17.496 2.1103125,17.490125 C1.686125,16.1609375 2.4220625,14.733875 3.75075,14.309 C4.395,14.1031875 5.0805,14.1606875 5.6813125,14.4704375 Z M8.5378125,5.1373125 C9.933375,5.1373125 11.0686875,6.2726875 11.0686875,7.668125 L11.0686875,13.54575 L15.8420625,13.54575 C17.2609375,13.54575 18.4153125,14.700125 18.4153125,16.119 L18.4153125,22.0925 C18.4153125,22.57675 18.02275,22.969375 17.5384375,22.969375 C17.054125,22.969375 16.6615,22.57675 16.6615,22.0924375 L16.6615,16.1189375 C16.6615,15.667125 16.294,15.2995625 15.842125,15.2995625 L10.1918125,15.2995625 C9.7075,15.2995625 9.314875,14.9069375 9.314875,14.422625 L9.314875,7.668125 C9.314875,7.2396875 8.9663125,6.8911875 8.5378125,6.8911875 C8.109375,6.8911875 7.760875,7.23975 7.760875,7.668125 L7.760875,12.49225 C7.760875,12.9765625 7.36825,13.3691875 6.8839375,13.3691875 C6.399625,13.3691875 6.007,12.9765625 6.007,12.49225 L6.007,7.668125 C6.007,6.2725625 7.142375,5.1373125 8.5378125,5.1373125 Z M16.3981875,7.760625 C16.8825,7.760625 17.275125,8.15325 17.275125,8.6375625 C17.275125,9.121875 16.8825,9.5145 16.3981875,9.5145 L13.7105,9.5145 C13.2261875,9.5145 12.8335625,9.121875 12.8335625,8.6375625 C12.8335625,8.15325 13.2261875,7.760625 13.7105,7.760625 L16.3981875,7.760625 Z M3.564625,7.760625 C4.0489375,7.760625 4.4415625,8.15325 4.4415625,8.6375625 C4.4415625,9.121875 4.0489375,9.5145 3.564625,9.5145 L0.8769375,9.5145 C0.392625,9.5145 6.21724894e-15,9.121875 6.21724894e-15,8.6375625 C6.21724894e-15,8.15325 0.392625,7.760625 0.8769375,7.760625 L3.564625,7.760625 Z M3.7701875,2.5298125 L5.6706875,4.4303125 C6.013125,4.77275 6.013125,5.328 5.6706875,5.6705625 C5.4993125,5.8418125 5.274875,5.9274375 5.0505,5.9274375 C4.826125,5.9274375 4.601625,5.841875 4.4304375,5.6705625 L2.5299375,3.7700625 C2.1875,3.427625 2.1875,2.872375 2.5299375,2.5298125 C2.872375,2.187375 3.427625,2.187375 3.7701875,2.5298125 Z M14.7453125,2.5298125 C15.0878125,2.87225 15.08775,3.4275 14.7453125,3.7700625 L12.84475,5.6705625 C12.6735,5.8418125 12.449,5.9274375 12.224625,5.9274375 C12.00025,5.9274375 11.77575,5.841875 11.6045625,5.6705625 C11.262125,5.328125 11.262125,4.772875 11.6045625,4.4303125 L13.5050625,2.5298125 C13.8475,2.187375 14.40275,2.187375 14.7453125,2.5298125 Z M8.6375625,0 C9.121875,0 9.5145,0.392625 9.5145,0.8769375 L9.5145,3.564625 C9.5145,4.0489375 9.121875,4.4415625 8.6375625,4.4415625 C8.15325,4.4415625 7.760625,4.0489375 7.760625,3.564625 L7.760625,0.8769375 C7.760625,0.392625 8.15325,0 8.6375625,0 Z" id="Combined-Shape"></path>
                </g>
            </g>
        </g>
    </g>
</svg>