<?xml version="1.0" encoding="utf-8"?>
<!-- Generator: Adobe Illustrator 21.1.0, SVG Export Plug-In . SVG Version: 6.00 Build 0)  -->
<svg version="1.1" id="Layer_1" xmlns="http://www.w3.org/2000/svg" xmlns:xlink="http://www.w3.org/1999/xlink" x="0px" y="0px"
	 viewBox="0 0 19 30" style="enable-background:new 0 0 19 30;" xml:space="preserve">
<style type="text/css">
	.st0{fill:#0086FF;}
</style>
<title>Combined Shape</title>
<desc>Created with Sketch.</desc>
<g id="Current-Design">
	<g id="_x34_699---Homepage---V5" transform="translate(-318.000000, -615.000000)">
		<g id="Group-72" transform="translate(128.000000, 615.000000)">
			<g id="Group-53" transform="translate(190.000000, 0.000000)">
				<path id="Combined-Shape" class="st0" d="M16.5,23.7c0.5,0,0.9,0.4,0.9,0.9v4.6c0,0.5-0.4,0.9-0.9,0.9h-11
					c-0.5,0-0.9-0.4-0.9-0.9v-4.6c0-0.5,0.4-0.9,0.9-0.9H16.5z M15.7,25.4H6.4v2.8h9.3V25.4z M5.7,14.5c0.6,0.3,1,0.8,1.3,1.5
					l0.8,2.4c0.1,0.5-0.1,1-0.6,1.1c-0.5,0.1-1-0.1-1.1-0.6l-0.8-2.4c-0.1-0.2-0.2-0.4-0.4-0.5c-0.2-0.1-0.4-0.1-0.6,0
					c-0.4,0.1-0.6,0.6-0.5,1l2,4.9c0.2,0.5-0.1,1-0.5,1.1C5.1,23,5,23,5,23c-0.4,0-0.7-0.2-0.8-0.6l-2-4.9c0,0,0,0,0,0
					c-0.4-1.3,0.3-2.8,1.6-3.2C4.4,14.1,5.1,14.2,5.7,14.5z M8.5,5.1c1.4,0,2.5,1.1,2.5,2.5v5.9h4.8c1.4,0,2.6,1.2,2.6,2.6v6
					c0,0.5-0.4,0.9-0.9,0.9c-0.5,0-0.9-0.4-0.9-0.9v-6c0-0.5-0.4-0.8-0.8-0.8h-5.7c-0.5,0-0.9-0.4-0.9-0.9V7.7
					c0-0.4-0.3-0.8-0.8-0.8c-0.4,0-0.8,0.3-0.8,0.8v4.8c0,0.5-0.4,0.9-0.9,0.9S6,13,6,12.5V7.7C6,6.3,7.1,5.1,8.5,5.1z M16.4,7.8
					c0.5,0,0.9,0.4,0.9,0.9c0,0.5-0.4,0.9-0.9,0.9h-2.7c-0.5,0-0.9-0.4-0.9-0.9c0-0.5,0.4-0.9,0.9-0.9H16.4z M3.6,7.8
					c0.5,0,0.9,0.4,0.9,0.9c0,0.5-0.4,0.9-0.9,0.9H0.9C0.4,9.5,0,9.1,0,8.6c0-0.5,0.4-0.9,0.9-0.9H3.6z M3.8,2.5l1.9,1.9
					C6,4.8,6,5.3,5.7,5.7C5.5,5.8,5.3,5.9,5.1,5.9c-0.2,0-0.4-0.1-0.6-0.3L2.5,3.8c-0.3-0.3-0.3-0.9,0-1.2C2.9,2.2,3.4,2.2,3.8,2.5z
					 M14.7,2.5c0.3,0.3,0.3,0.9,0,1.2l-1.9,1.9c-0.2,0.2-0.4,0.3-0.6,0.3c-0.2,0-0.4-0.1-0.6-0.3c-0.3-0.3-0.3-0.9,0-1.2l1.9-1.9
					C13.8,2.2,14.4,2.2,14.7,2.5z M8.6,0c0.5,0,0.9,0.4,0.9,0.9v2.7c0,0.5-0.4,0.9-0.9,0.9C8.2,4.4,7.8,4,7.8,3.6V0.9
					C7.8,0.4,8.2,0,8.6,0z"/>
			</g>
		</g>
	</g>
</g>
</svg>
