<svg id="laptop" xmlns="http://www.w3.org/2000/svg" xmlns:xlink="http://www.w3.org/1999/xlink" viewBox="0 0 547 352.96"><defs><style>.cls-1{fill:url(#linear-gradient);}.cls-2{fill:url(#linear-gradient-2);}.cls-3{fill:url(#linear-gradient-3);}</style><linearGradient id="linear-gradient" x1="273.02" x2="273.02" y2="335" gradientUnits="userSpaceOnUse"><stop offset="0" stop-color="#f7f7f7"/><stop offset="0.48" stop-color="#f5f5f5"/><stop offset="0.65" stop-color="#eeeeef"/><stop offset="0.77" stop-color="#e3e3e3"/><stop offset="0.87" stop-color="#d2d2d3"/><stop offset="0.96" stop-color="#bcbcbe"/><stop offset="1" stop-color="#aeaeb1"/></linearGradient><linearGradient id="linear-gradient-2" x1="273.5" y1="334.96" x2="273.5" y2="352.96" gradientUnits="userSpaceOnUse"><stop offset="0" stop-color="#f7f7f7"/><stop offset="0.5" stop-color="#f5f5f5"/><stop offset="0.67" stop-color="#eee"/><stop offset="0.8" stop-color="#e3e3e3"/><stop offset="0.9" stop-color="#d2d2d2"/><stop offset="0.99" stop-color="#bcbcbc"/><stop offset="1" stop-color="#b9b9b9"/></linearGradient><linearGradient id="linear-gradient-3" x1="25.52" y1="77.42" x2="506.83" y2="252.6" gradientUnits="userSpaceOnUse"><stop offset="0" stop-color="#282828"/><stop offset="0.86" stop-color="#282828"/><stop offset="1" stop-color="#282828"/></linearGradient></defs><path class="cls-1" d="M474.72,0H71.33A18.42,18.42,0,0,0,53,18.53V316.47A18.42,18.42,0,0,0,71.33,335H474.72A18.42,18.42,0,0,0,493,316.47V18.53A18.42,18.42,0,0,0,474.72,0Zm4.8,313.24h-413V21.76h413Z"/><path class="cls-2" d="M0,335H547a0,0,0,0,1,0,0v3.32A14.68,14.68,0,0,1,532.32,353H14.68A14.68,14.68,0,0,1,0,338.29V335a0,0,0,0,1,0,0Z"/><path class="cls-3" d="M472.45,1.73H73.59a18.41,18.41,0,0,0-18.3,18.52v294.5a18.42,18.42,0,0,0,18.3,18.53H472.45a18.42,18.42,0,0,0,18.31-18.53V20.25A18.42,18.42,0,0,0,472.45,1.73Zm7.07,311.51h-413V21.76h413Z"/></svg>