<?xml version="1.0" encoding="UTF-8"?>
<svg width="21px" height="24px" viewBox="0 0 21 24" version="1.1" xmlns="http://www.w3.org/2000/svg" xmlns:xlink="http://www.w3.org/1999/xlink">
    <!-- Generator: Sketch 57.1 (83088) - https://sketch.com -->
    <title>Combined Shape</title>
    <desc>Created with Sketch.</desc>
    <g id="Current-Design" stroke="none" stroke-width="1" fill="none" fill-rule="evenodd">
        <g id="4699---Homepage---V5" transform="translate(-578.000000, -618.000000)" fill="#0086FF" fill-rule="nonzero">
            <g id="Group-72" transform="translate(128.000000, 615.000000)">
                <g id="Group-55" transform="translate(450.000000, 3.000000)">
                    <g id="Group-54">
                        <path d="M19.7615,-1.0658141e-14 C20.3515,-1.0658141e-14 20.8295,0.478 20.8295,1.068 C20.8295,1.658 20.3515,2.1365 19.7615,2.1365 L19.7615,2.1365 L19.442,2.1365 C19.0735,6.293 16.6405,9.4845 14.748,11.7505 C16.64,14.017 19.074,17.208 19.441,21.3645 L19.441,21.3645 L19.7605,21.3645 C20.351,21.3645 20.8295,21.842 20.8295,22.432 C20.8295,23.0225 20.3515,23.501 19.7615,23.501 L19.7615,23.501 L1.068,23.501 C0.478,23.501 -5.32907052e-15,23.0225 -5.32907052e-15,22.432 C-5.32907052e-15,21.842 0.478,21.3645 1.068,21.3645 L1.068,21.3645 L1.387,21.3645 C1.755,17.2075 4.1885,14.0165 6.0805,11.7505 C4.188,9.485 1.755,6.2935 1.3875,2.1365 L1.3875,2.1365 L1.068,2.1365 C0.478,2.1365 -5.32907052e-15,1.658 -5.32907052e-15,1.068 C-5.32907052e-15,0.4785 0.478,-1.0658141e-14 1.068,-1.0658141e-14 L1.068,-1.0658141e-14 Z M17.3005,2.1385 L3.5285,2.1385 C3.93,5.8945 6.3725,8.7865 8.1965,10.948 L8.1965,10.948 L8.2935,11.063 C8.6295,11.461 8.6295,12.043 8.2935,12.4405 L8.2935,12.4405 L8.196,12.556 C6.3715,14.717 3.93,17.609 3.5285,21.3645 L3.5285,21.3645 L17.3005,21.3645 C16.899,17.609 14.4575,14.717 12.6335,12.556 L12.6335,12.556 L12.536,12.4405 C12.2,12.0425 12.2,11.4605 12.536,11.063 L12.536,11.063 L12.6325,10.948 C14.4565,8.7865 16.899,5.8945 17.3005,2.1385 L17.3005,2.1385 Z M10.4145,12.8215 C10.709,12.8215 10.9485,13.06 10.9485,13.355 C10.949,14.126 11.4095,14.8885 12.246,15.507 C14.0325,16.8265 15.3705,18.26 16.221,19.767 C16.314,19.933 16.3125,20.135 16.217,20.298 C16.137,20.4350833 16.0017917,20.5277222 15.8492801,20.554794 L15.756,20.563 L5.074,20.563 C4.884,20.563 4.708,20.4625 4.613,20.298 C4.5165,20.135 4.515,19.933 4.6085,19.767 C5.4595,18.26 6.797,16.8265 8.584,15.507 C9.4195,14.8885 9.88,14.126 9.8805,13.355 C9.8805,13.061 10.12,12.8215 10.4145,12.8215 Z M7.764,5.367 L13.0645,5.367 C13.238,5.367 13.4,5.451 13.5005,5.5925 C13.6005,5.734 13.6255,5.915 13.568,6.0785 C13.1425,7.2885 12.4705,8.441 11.574,9.504 C11.171,9.982 10.949,10.5895 10.9485,11.2145 C10.9485,11.5085 10.709,11.748 10.4145,11.748 C10.12,11.748 9.8805,11.51 9.8805,11.2145 C9.88,10.59 9.6575,9.982 9.254,9.504 C8.3575,8.441 7.6865,7.2885 7.26,6.0785 C7.2025,5.915 7.2275,5.734 7.3275,5.5925 C7.4079,5.4793 7.52798,5.4029 7.661628,5.376868 L7.764,5.367 L13.0645,5.367 Z" id="Combined-Shape"></path>
                    </g>
                </g>
            </g>
        </g>
    </g>
</svg>