<?xml version="1.0" encoding="utf-8"?>
<!-- Generator: Adobe Illustrator 21.1.0, SVG Export Plug-In . SVG Version: 6.00 Build 0)  -->
<svg version="1.1" id="Layer_1" xmlns="http://www.w3.org/2000/svg" xmlns:xlink="http://www.w3.org/1999/xlink" x="0px" y="0px"
	 viewBox="0 0 21 24" style="enable-background:new 0 0 21 24;" xml:space="preserve">
<style type="text/css">
	.st0{fill:#0086FF;}
</style>
<title>Combined Shape</title>
<desc>Created with Sketch.</desc>
<g id="Current-Design">
	<g id="_x34_699---Homepage---V5" transform="translate(-578.000000, -618.000000)">
		<g id="Group-72" transform="translate(128.000000, 615.000000)">
			<g id="Group-55" transform="translate(450.000000, 3.000000)">
				<g id="Group-54">
					<path id="Combined-Shape" class="st0" d="M19.8,0c0.6,0,1.1,0.5,1.1,1.1s-0.5,1.1-1.1,1.1l0,0h-0.3c-0.4,4.2-2.8,7.3-4.7,9.6
						c1.9,2.3,4.3,5.5,4.7,9.6l0,0h0.3c0.6,0,1.1,0.5,1.1,1.1c0,0.6-0.5,1.1-1.1,1.1l0,0H1.1C0.5,23.5,0,23,0,22.4
						c0-0.6,0.5-1.1,1.1-1.1l0,0h0.3c0.4-4.2,2.8-7.3,4.7-9.6C4.2,9.5,1.8,6.3,1.4,2.1l0,0H1.1C0.5,2.1,0,1.7,0,1.1
						C0,0.5,0.5,0,1.1,0l0,0H19.8z M17.3,2.1H3.5c0.4,3.8,2.8,6.6,4.7,8.8l0,0l0.1,0.1c0.3,0.4,0.3,1,0,1.4l0,0l-0.1,0.1
						c-1.8,2.2-4.3,5.1-4.7,8.8l0,0h13.8c-0.4-3.8-2.8-6.6-4.7-8.8l0,0l-0.1-0.1c-0.3-0.4-0.3-1,0-1.4l0,0l0.1-0.1
						C14.5,8.8,16.9,5.9,17.3,2.1L17.3,2.1z M10.4,12.8c0.3,0,0.5,0.2,0.5,0.5c0,0.8,0.5,1.5,1.3,2.2c1.8,1.3,3.1,2.8,4,4.3
						c0.1,0.2,0.1,0.4,0,0.5c-0.1,0.1-0.2,0.2-0.4,0.3l-0.1,0H5.1c-0.2,0-0.4-0.1-0.5-0.3c-0.1-0.2-0.1-0.4,0-0.5
						c0.9-1.5,2.2-2.9,4-4.3c0.8-0.6,1.3-1.4,1.3-2.2C9.9,13.1,10.1,12.8,10.4,12.8z M7.8,5.4h5.3c0.2,0,0.3,0.1,0.4,0.2
						c0.1,0.1,0.1,0.3,0.1,0.5c-0.4,1.2-1.1,2.4-2,3.4c-0.4,0.5-0.6,1.1-0.6,1.7c0,0.3-0.2,0.5-0.5,0.5c-0.3,0-0.5-0.2-0.5-0.5
						c0-0.6-0.2-1.2-0.6-1.7c-0.9-1.1-1.6-2.2-2-3.4c-0.1-0.2,0-0.3,0.1-0.5c0.1-0.1,0.2-0.2,0.3-0.2L7.8,5.4h5.3H7.8z"/>
				</g>
			</g>
		</g>
	</g>
</g>
</svg>
