<svg xmlns="http://www.w3.org/2000/svg" xmlns:xlink="http://www.w3.org/1999/xlink" width="10" height="17" viewBox="0 0 10 17"><defs><path id="ts9sa" d="M788.12 3907h-2.34v1.728a4.62 4.62 0 0 0-1.395.486 4.028 4.028 0 0 0-1.053.818 3.378 3.378 0 0 0-.882 2.278c0 .755.153 1.359.459 1.809.306.45.69.813 1.152 1.089.462.275.96.495 1.494.657.534.162 1.032.32 1.494.477.462.156.846.342 1.152.558.306.216.459.516.459.9 0 .456-.174.84-.522 1.152-.348.312-.864.468-1.548.468-.48 0-.903-.07-1.27-.207a4.606 4.606 0 0 1-.926-.46 3.903 3.903 0 0 1-.774-.683l-1.62 1.62c.264.312.582.6.954.864.312.228.702.45 1.17.666.468.216 1.02.372 1.656.468v1.692h2.34v-1.746c1.104-.216 1.95-.673 2.538-1.368.588-.696.882-1.518.882-2.467 0-.744-.153-1.343-.46-1.8a3.594 3.594 0 0 0-1.151-1.098 6.687 6.687 0 0 0-1.494-.656 50.556 50.556 0 0 1-1.494-.477 4.692 4.692 0 0 1-1.152-.55c-.306-.21-.46-.512-.46-.908 0-.36.15-.675.45-.946.3-.27.72-.404 1.26-.404.36 0 .685.057.973.17.288.115.534.238.738.37.228.155.438.336.63.54l1.62-1.71a3.82 3.82 0 0 0-.72-.648 7.236 7.236 0 0 0-.9-.522c-.36-.18-.78-.318-1.26-.414z"/></defs><g><g transform="translate(-782 -3907)"><use fill="#52546c" xlink:href="#ts9sa"/></g></g></svg>