<svg xmlns="http://www.w3.org/2000/svg" xmlns:xlink="http://www.w3.org/1999/xlink" width="48" height="48" viewBox="0 0 48 48"><defs><path id="13jla" d="M327 2192.219v28.218a4.224 4.224 0 0 1-4.219 4.219h-12.75v3.048c3.206.653 5.625 3.494 5.625 6.89 0 .776-.63 1.406-1.406 1.406h-22.5c-.777 0-1.406-.63-1.406-1.406 0-3.396 2.42-6.237 5.625-6.89v-3.048h-12.75a4.224 4.224 0 0 1-4.22-4.219v-28.218a4.224 4.224 0 0 1 4.22-4.22h39.562a4.224 4.224 0 0 1 4.219 4.22zm-18.375 38.156h-11.25a4.226 4.226 0 0 0-3.978 2.812h19.206a4.226 4.226 0 0 0-3.978-2.812zm-1.406-2.813v-2.906h-8.438v2.906zm16.968-8.53h-42.375v1.405c0 .776.631 1.407 1.407 1.407h39.562c.776 0 1.406-.631 1.406-1.407zm0-26.813c0-.776-.63-1.407-1.406-1.407H283.22c-.776 0-1.407.631-1.407 1.407v24h42.375z"/><path id="13jlb" d="M295.969 2197.937c0 .777-.63 1.407-1.407 1.407h-5.718a1.406 1.406 0 0 1 0-2.813h5.718c.777 0 1.407.63 1.407 1.406z"/><path id="13jlc" d="M295.969 2203.562c0 .777-.63 1.407-1.407 1.407h-5.718a1.406 1.406 0 0 1 0-2.813h5.718c.777 0 1.407.63 1.407 1.406z"/><path id="13jld" d="M295.969 2209.187c0 .777-.63 1.406-1.407 1.406h-5.718a1.406 1.406 0 0 1 0-2.812h5.718c.777 0 1.407.63 1.407 1.406z"/><path id="13jle" d="M318.469 2199.253v8.498c0 .492-.258.948-.68 1.203l-7.03 4.25a1.413 1.413 0 0 1-1.455 0l-7.031-4.25a1.407 1.407 0 0 1-.68-1.203v-8.498c0-.5.27-.965.698-1.215l7.038-4.24a1.406 1.406 0 0 1 1.454.003c8.245 4.999 6.827 4.143 6.993 4.24.01.01.693.37.693 1.212zm-9.844 5.042l-4.219-2.55v5.212l4.219 2.55zm5.722-5.045l-4.295-2.604-4.33 2.609 4.31 2.604zm1.31 2.495l-4.22 2.55v5.212l4.22-2.55z"/></defs><g><g opacity=".33" transform="translate(-279 -2188)"><g opacity=".33"><use xlink:href="#13jla"/></g><g opacity=".33"><use xlink:href="#13jlb"/></g><g opacity=".33"><use xlink:href="#13jlc"/></g><g opacity=".33"><use xlink:href="#13jld"/></g><g opacity=".33"><use xlink:href="#13jle"/></g></g></g></svg>