<svg xmlns="http://www.w3.org/2000/svg" xmlns:xlink="http://www.w3.org/1999/xlink" width="96" height="96" viewBox="0 0 96 96"><defs><path id="rtf3a" d="M1111 791.6v57.602c0 .883-.717 1.598-1.6 1.598h-3.345c.093.528.142 1.064.145 1.6v8.002c0 .883-.717 1.598-1.6 1.598h-83.202a1.599 1.599 0 0 1-1.598-1.6v-8a9.612 9.612 0 0 1 .144-1.6h-3.346a1.599 1.599 0 0 1-1.598-1.6v-57.602c0-.883.717-1.599 1.6-1.598h24v-22.402a1.6 1.6 0 0 1 1.6-1.598h41.602a1.6 1.6 0 0 1 1.598 1.6V790h24.002c.883 0 1.598.717 1.598 1.6zm-30.4 40a3.2 3.2 0 1 0 0 6.4 3.2 3.2 0 0 0 0-6.4zm-38.4 3.2a3.2 3.2 0 1 0 6.4 0 3.2 3.2 0 0 0-6.4 0zm-6.4 17.6a6.4 6.4 0 1 0-12.8 0v6.4h12.8zm-6.4-9.6a3.2 3.2 0 1 0 0-6.4 3.2 3.2 0 0 0 0 6.4zm11.37-3.605a6.313 6.313 0 0 1-.17-8.584V793.2h-22.4v54.4h2.899a9.662 9.662 0 0 1 3.671-3.605 6.4 6.4 0 1 1 9.26 0c.732.407 1.409.908 2.012 1.49a9.627 9.627 0 0 1 4.728-6.29zm11.03 8.405a6.4 6.4 0 1 0-12.8 0v11.2h12.8zm19.2 0a8 8 0 0 0-16 0v11.2h16zm-8-11.2a4.8 4.8 0 1 0 0-9.6 4.8 4.8 0 0 0 0 9.6zm12.97 2.795a6.383 6.383 0 0 1 4.63-10.795c.54.007 1.078.083 1.6.227V769.2h-38.4v59.427a6.354 6.354 0 0 1 6.23 10.568 9.665 9.665 0 0 1 3.225 2.904 11.272 11.272 0 0 1 4.591-4.432 8 8 0 1 1 10.308 0 11.272 11.272 0 0 1 4.59 4.432 9.664 9.664 0 0 1 3.226-2.904zM1087 847.6a6.4 6.4 0 0 0-12.8 0v11.2h12.8zm16 4.8a6.4 6.4 0 0 0-12.8 0v6.4h12.8zm-6.4-9.6a3.2 3.2 0 1 0 0-6.4 3.2 3.2 0 0 0 0 6.4zm11.2 4.8v-54.4h-22.4v37.41a6.313 6.313 0 0 1-.17 8.585 9.626 9.626 0 0 1 4.727 6.29 9.642 9.642 0 0 1 2.013-1.49 6.4 6.4 0 1 1 9.26 0 9.662 9.662 0 0 1 3.671 3.605z"/></defs><g><g transform="translate(-1015 -766)"><use fill="#0685ff" xlink:href="#rtf3a"/></g></g></svg>