<svg xmlns="http://www.w3.org/2000/svg" xmlns:xlink="http://www.w3.org/1999/xlink" width="65" height="96" viewBox="0 0 65 96"><defs><path id="4uvxa" d="M335.792 845.19v13.22c0 1.98-1.61 3.59-3.59 3.59h-37.568a1.406 1.406 0 0 1 0-2.813h5.624l-4.414-4.856a2.522 2.522 0 0 1-.602-2.065l4.204-24.838-1.133-1.705c-.635.451-1.113.873-2.013.873-.918 0-1.78-.513-2.204-1.363l-4.435-8.888-10.094 3.913c-.328.14-5.67 2.525-5.67 8.856v29.297c0 .428.348.776.776.776h7.56v-27.693a1.406 1.406 0 0 1 2.812 0v27.693h3.026a1.406 1.406 0 0 1 0 2.812h-13.398c-1.98 0-3.59-1.61-3.59-3.589v-29.296c0-8.314 7.12-11.337 7.423-11.461l.026-.01 16.795-6.512v-3.735a13.037 13.037 0 0 1-5.272-8.876 6.084 6.084 0 0 1-3.574-1.458 5.958 5.958 0 0 1-2.073-4.524c0-1.389.51-2.7 1.45-3.764v-5.345c0-9.61 7.818-17.43 17.428-17.43 9.61 0 17.428 7.82 17.429 17.43v5.209a5.96 5.96 0 0 1 1.45 3.9 5.96 5.96 0 0 1-2.073 4.524 6.088 6.088 0 0 1-3.576 1.459 13.177 13.177 0 0 1-4.987 8.667v3.943l16.813 6.511a.567.567 0 0 1 .027.011c.303.125 7.422 3.147 7.422 11.462v9.511a1.406 1.406 0 0 1-2.813 0v-9.511c0-6.311-5.306-8.7-5.672-8.858l-10.102-3.912-4.434 8.888a2.463 2.463 0 0 1-2.204 1.363c-.905 0-1.387-.428-2.013-.873l-1.133 1.705 4.204 24.838.007.042a2.522 2.522 0 0 1-.608 2.023l-4.415 4.856h15.222v-27.693a1.406 1.406 0 0 1 2.813 0v27.693h7.56a.777.777 0 0 0 .776-.777v-13.22a1.406 1.406 0 1 1 2.813 0zm-25.221-31.414l-5.107 6.303 4.972 3.532 4.134-8.286zm-7.138 8.31l-2.826 2.008 1.072 1.613h3.507l1.072-1.613zm0-3.967l5.284-6.523v-2.73a13.2 13.2 0 0 1-5.26 1.095 14.27 14.27 0 0 1-5.318-1.008v2.632zm13.2-28.719v6.277a3.275 3.275 0 0 0 1.625-.747 3.15 3.15 0 0 0 1.095-2.391c0-1.536-1.103-2.876-2.72-3.139zm-26.694.07c-1.473.341-2.719 1.565-2.719 3.068 0 1.522 1.084 2.874 2.719 3.14zm2.683-4.748c5.514.396 11.491-1.212 16.39-4.412a2.502 2.502 0 0 1 3.195.389c4.439 4.772 4.427 4.51 4.427 5.867.435.04.86.121 1.268.246v-3.384c0-8.059-6.557-14.615-14.616-14.615-8.06 0-14.616 6.556-14.616 14.615v3.48c.383-.13.896-.251 1.344-.303a2.5 2.5 0 0 1 2.608-1.883zm10.835 22.426c5.71 0 10.364-4.655 10.364-10.364v-10.207c-.355-.437-1.458-1.583-3.494-3.769-5.141 3.293-11.505 5.096-17.576 4.74v9.236c0 5.39 4.295 10.365 10.706 10.364zm-2.062 12.936l-5.107-6.305-3.993 1.546 4.134 8.286 4.966-3.527zm2.037 38.414l5.39-5.929-4.07-24.05h-2.639l-4.07 24.05z"/></defs><g><g transform="translate(-271 -766)"><use fill="#0685ff" xlink:href="#4uvxa"/></g></g></svg>