<svg id="SVGDoc" width="38" height="49" xmlns="http://www.w3.org/2000/svg" version="1.1" xmlns:xlink="http://www.w3.org/1999/xlink" xmlns:avocode="https://avocode.com/" viewBox="0 0 38 49"><defs><path d="M701.79995,2188.79967v36.80013c0,0.44174 -0.35825,0.79998 -0.80003,0.79998h-0.80003v8.80004c0,0.44174 -0.35817,0.79998 -0.79995,0.79998h-28.80003c-3.09103,-0.00389 -5.59607,-2.50907 -5.59998,-5.60011v-36.7999c0.0035,-3.0915 2.50863,-5.59645 5.59998,-5.60011h30.40001c0.44178,0 0.80003,0.35824 0.80003,0.79998zM698.5999,2226.39978h-27.99999c-2.20819,0.00275 -3.99723,1.79167 -4,3.99991c0.00391,2.20756 1.79262,3.99625 4,4.00014h27.99999v-3.20016h-27.99999v-1.59997h27.99999zM700.19988,2189.59965h-27.20305v32.80021h-1.60006v-32.80021h-0.79995c-2.20819,0.00275 -3.99731,1.7919 -4,4.00014v32.88074c0.007,-0.00732 0.01596,-0.0135 0.02304,-0.0215c0.06245,-0.06314 0.12734,-0.11941 0.19533,-0.18072c0.0679,-0.06177 0.13434,-0.12651 0.20388,-0.18484c0.06953,-0.05856 0.14411,-0.11209 0.21601,-0.16471c0.07189,-0.05284 0.13597,-0.1082 0.21601,-0.16036c0.08012,-0.05193 0.16488,-0.10134 0.23986,-0.14709c0.07539,-0.0453 0.14183,-0.09036 0.22578,-0.1368c0.08403,-0.04644 0.18319,-0.08876 0.25745,-0.12605c0.07458,-0.03797 0.14411,-0.07481 0.23473,-0.11301c0.09021,-0.03866 0.18474,-0.06954 0.27732,-0.10317c0.08012,-0.02974 0.16015,-0.06245 0.24027,-0.0883c0.10234,-0.03043 0.20778,-0.05353 0.31176,-0.08007c0.07613,-0.01899 0.14721,-0.04209 0.22732,-0.05811c0.12221,-0.02585 0.24801,-0.04072 0.37339,-0.05856c0.06253,-0.00778 0.1227,-0.0215 0.18482,-0.02768c0.19134,-0.01967 0.38398,-0.02974 0.57613,-0.02974h29.59998z" id="Path-0"/><path d="M679.71006,2203.48577c0.92029,-3.03522 3.71837,-5.11033 6.88984,-5.11033c3.17147,0 5.96955,2.07511 6.88984,5.11033c0.9207,3.03477 -0.25273,6.31431 -2.88984,8.07646v2.83757c0,2.20893 -1.79099,3.99991 -4,3.99991c-2.209,0 -4,-1.79098 -4,-3.99991v-2.83757c-2.63711,-1.76216 -3.81053,-5.0417 -2.88984,-8.07646zM684.62881,2212.51892c-0.14411,-0.04072 -0.28823,-0.08098 -0.42892,-0.13131v1.21221h4.80085v-1.21221c-0.13752,0.04896 -0.27854,0.08899 -0.41915,0.12902c-0.04804,0.0135 -0.0938,0.03043 -0.14183,0.04324c-0.24646,0.06337 -0.49609,0.11415 -0.74768,0.15121c-0.10348,0.01601 -0.20738,0.02768 -0.31127,0.03912c-0.18873,0.0199 -0.37852,0.03203 -0.5688,0.03752c-0.06953,0.0016 -0.13939,0.0135 -0.20892,0.0135c-0.06953,0 -0.13833,-0.0135 -0.20787,-0.0135c-0.19142,-0.00549 -0.3808,-0.01761 -0.57067,-0.03752c-0.10389,-0.01144 -0.20624,-0.02311 -0.30858,-0.03843c-0.25468,-0.03752 -0.50708,-0.08807 -0.7559,-0.1519c-0.04649,-0.01281 -0.08826,-0.02882 -0.13125,-0.04095zM688.85263,2215.19979h-4.50545c0.33789,0.95554 1.23946,1.59562 2.25273,1.59997c1.01327,-0.00435 1.91483,-0.64442 2.25273,-1.59997zM681.19679,2204.14712c-0.65543,2.4457 0.41288,5.02637 2.60471,6.29326c0.42265,0.24844 0.87771,0.43671 1.3519,0.56024c1.43169,0.37654 2.95359,0.17775 4.24027,-0.55361c2.19101,-1.26803 3.2594,-3.84802 2.60544,-6.29372c-0.65388,-2.4457 -2.86753,-4.14884 -5.3992,-4.15364c-2.53159,0.00092 -4.74768,1.70177 -5.40311,4.14747z" id="Path-1"/><path d="M684.43584,2206.96548l-1.59998,-1.60019l1.13125,-1.13123l1.03281,1.03378l1.0289,-1.03446c0.31208,-0.31203 0.81876,-0.31203 1.13125,0l1.03981,1.03515l1.03517,-1.03515l1.13125,1.13283l-1.59998,1.59997c-0.31249,0.31203 -0.81876,0.31203 -1.13125,0l-1.03517,-1.03515l-1.03591,1.03446c-0.31681,0.29876 -0.81135,0.29876 -1.12815,0z" id="Path-2"/><path d="M685.79995,2193.59979h1.59998v3.19993h-1.59998z" id="Path-3"/><path d="M677.5491,2197.68023l1.13166,-1.13123l2.2625,2.26246l-1.13125,1.13169z" id="Path-4"/><path d="M674.5999,2204.79978h3.20005v1.59997h-3.20005z" id="Path-5"/><path d="M677.54877,2213.5193l2.2629,-2.26292l1.13125,1.13123l-2.2629,2.26292z" id="Path-6"/><path d="M692.25696,2212.38875l1.13125,-1.13123l2.2629,2.26246l-1.13125,1.13169z" id="Path-7"/><path d="M695.39993,2204.79978h3.19997v1.59997h-3.19997z" id="Path-8"/><path d="M692.25737,2198.81146l2.2629,-2.26292l1.13125,1.13169l-2.2629,2.26246z" id="Path-9"/></defs><desc>Generated with Avocode.</desc><g transform="matrix(1,0,0,1,-665,-2188)"><g opacity="0.33"><title>Combined Shape</title><g opacity="0.33"><title>Shape</title><use xlink:href="#Path-0" fill="#000000" fill-opacity="1"/></g><g opacity="0.33"><title>Shape</title><use xlink:href="#Path-1" fill="#000000" fill-opacity="1"/></g><g opacity="0.33"><title>Path</title><use xlink:href="#Path-2" fill="#000000" fill-opacity="1"/></g><g opacity="0.33"><title>Path</title><use xlink:href="#Path-3" fill="#000000" fill-opacity="1"/></g><g opacity="0.33"><title>Path</title><use xlink:href="#Path-4" fill="#000000" fill-opacity="1"/></g><g opacity="0.33"><title>Path</title><use xlink:href="#Path-5" fill="#000000" fill-opacity="1"/></g><g opacity="0.33"><title>Path</title><use xlink:href="#Path-6" fill="#000000" fill-opacity="1"/></g><g opacity="0.33"><title>Path</title><use xlink:href="#Path-7" fill="#000000" fill-opacity="1"/></g><g opacity="0.33"><title>Path</title><use xlink:href="#Path-8" fill="#000000" fill-opacity="1"/></g><g opacity="0.33"><title>Path</title><use xlink:href="#Path-9" fill="#000000" fill-opacity="1"/></g></g></g></svg>