<svg xmlns="http://www.w3.org/2000/svg" xmlns:xlink="http://www.w3.org/1999/xlink" width="57" height="57" viewBox="0 0 57 57"><defs><path id="47nua" d="M1063.9 2234.58h10.84v1.81h-10.84z"/><path id="47nub" d="M1056.68 2200.26h1.81v27.1h-1.81z"/><path id="47nuc" d="M1091 2203.87v16.259c0 .996-.81 1.806-1.807 1.806h-3.612v13.549a4.521 4.521 0 0 1-4.517 4.516h-23.483a4.521 4.521 0 0 1-4.517-4.516v-5.42H1035v-27.097h3.613v-9.935h14.451v-4.516a4.521 4.521 0 0 1 4.517-4.516h23.483a4.521 4.521 0 0 1 4.517 4.516v13.548h3.612c.997 0 1.807.81 1.807 1.807zm-37.936 10.84a.904.904 0 0 0-.903-.904h-1.806a.904.904 0 0 0 0 1.807h1.806c.318 0 .62.065.903.166zm0-6.097a8.139 8.139 0 0 0-1.806-.226c-4.483 0-8.129 3.647-8.129 8.129 0 4.482 3.646 8.129 8.129 8.129.613 0 1.215-.091 1.806-.225v-3.554a2.68 2.68 0 0 1-.903.166v1.806h-1.806v-1.806a2.713 2.713 0 0 1-2.71-2.71h1.807c0 .498.404.904.903.904h1.806a.904.904 0 0 0 0-1.807h-1.806a2.713 2.713 0 0 1-2.71-2.71 2.713 2.713 0 0 1 2.71-2.71v-1.806h1.806V2212c.318 0 .62.065.903.166zm0-3.84h-16.258v23.485h16.258v-1.977c-.593.109-1.196.17-1.806.17-5.478 0-9.935-4.457-9.935-9.935 0-5.478 4.457-9.936 9.935-9.936.61 0 1.213.062 1.806.171zm0-9.934h-12.645v8.128h12.645zm10.84 9.032v1.806h25.29v-1.806zm0 3.613v1.806h25.29v-1.806zm-9.033-16.259h28.903v-2.71a2.713 2.713 0 0 0-2.71-2.709h-23.483a2.713 2.713 0 0 0-2.71 2.71zm28.903 41.549h-28.903v2.71a2.713 2.713 0 0 0 2.71 2.71h23.483a2.713 2.713 0 0 0 2.71-2.71zm0-10.839h-19.87c-.997 0-1.807-.81-1.807-1.806v-16.258c0-.996.81-1.807 1.806-1.807h19.871v-9.032h-28.903v37.935h28.903zm5.42-1.806v-9.033h-25.29v9.033z"/><path id="47nud" d="M1065.71 2216.52h4.52v1.81h-4.52z"/><path id="47nue" d="M1038.613 2206.58v3.613h1.806v-1.806h1.807v-1.807z"/><path id="47nuf" d="M1042.226 2196.645v3.613h1.806v-1.807h1.807v-1.806z"/><path id="47nug" d="M1040.42 2224.645v-1.807h-1.807v3.613h3.613v-1.806z"/><path id="47nuh" d="M1085.58 2216.52h1.81v1.81h-1.81z"/><path id="47nui" d="M1081.97 2216.52h1.81v1.81h-1.81z"/><path id="47nuj" d="M1056.68 2196.65h1.81v1.81h-1.81z"/></defs><g><g opacity=".33" transform="translate(-1035 -2184)"><g opacity=".33"><use xlink:href="#47nua"/></g><g opacity=".33"><use xlink:href="#47nub"/></g><g opacity=".33"><use xlink:href="#47nuc"/></g><g opacity=".33"><use xlink:href="#47nud"/></g><g opacity=".33"><use xlink:href="#47nue"/></g><g opacity=".33"><use xlink:href="#47nuf"/></g><g opacity=".33"><use xlink:href="#47nug"/></g><g opacity=".33"><use xlink:href="#47nuh"/></g><g opacity=".33"><use xlink:href="#47nui"/></g><g opacity=".33"><use xlink:href="#47nuj"/></g></g></g></svg>