<svg fill="#0685ff" xmlns="http://www.w3.org/2000/svg" xmlns:xlink="http://www.w3.org/1999/xlink" width="97" height="97" viewBox="0 0 97 97"><defs><path id="djsba" d="M684.899 852.114v8.01c0 1.036-.84 1.876-1.875 1.876h-46.149a1.875 1.875 0 0 1-1.875-1.875v-8.011c0-9.066 6.966-16.534 15.827-17.337.135-.038.274-.06.413-.067a11.981 11.981 0 0 1-3.318-8.283v-9.18c0-5.295 4.308-9.604 9.604-9.604h12.576c1.036 0 1.875.84 1.875 1.875v6.241c0 .181-.008.36-.02.539.012.086.02.174.02.264v9.865c0 3.208-1.265 6.124-3.319 8.283.14.007.279.029.414.067 8.86.803 15.827 8.271 15.827 17.337zm-33.227-32.369h12.569a3.99 3.99 0 0 0 3.986-3.986v-4.366h-10.701a5.861 5.861 0 0 0-5.854 5.854zm0 6.682c0 4.564 3.713 8.278 8.277 8.278 4.565 0 8.278-3.714 8.278-8.278v-4.04a7.687 7.687 0 0 1-3.986 1.108h-12.57zm4.197 12.028l4.08 4.08 4.081-4.08zm25.28 13.659c0-6.945-5.212-12.692-11.929-13.546l-7.945 7.945a1.875 1.875 0 0 1-2.651 0l-7.945-7.945c-6.272.797-11.23 5.86-11.86 12.182h7.712a1.875 1.875 0 1 1 0 3.75h-7.781v3.75h42.399z"/><path id="djsbb" d="M731 810.471v8.01c0 1.036-.84 1.876-1.875 1.876h-15.688a1.875 1.875 0 0 1 0-3.75h13.813v-6.136c0-6.945-5.212-12.692-11.929-13.546l-7.945 7.945a1.87 1.87 0 0 1-1.326.55c-.48 0-.96-.184-1.326-.55l-7.944-7.945c-6.718.854-11.93 6.601-11.93 13.546v6.135h13.212a1.875 1.875 0 0 1 0 3.75h-15.086a1.875 1.875 0 0 1-1.875-1.874v-8.011c0-9.066 6.966-16.534 15.826-17.337.135-.038.275-.06.414-.067a11.982 11.982 0 0 1-3.318-8.283v-9.18c0-5.296 4.308-9.604 9.604-9.604h12.576c1.036 0 1.875.84 1.875 1.875v6.241c0 .181-.008.36-.02.539a1.9 1.9 0 0 1 .02.264v9.865c0 3.208-1.265 6.124-3.318 8.282.14.008.278.03.414.068 8.86.803 15.826 8.271 15.826 17.337zm-20.868-13.66h-8.162l4.08 4.082zm4.196-16.068a7.688 7.688 0 0 1-3.986 1.11h-12.57v2.93c0 4.565 3.714 8.278 8.279 8.278 4.564 0 8.277-3.713 8.277-8.277zm0-10.993h-10.7a5.861 5.861 0 0 0-5.855 5.854v2.498h12.57a3.99 3.99 0 0 0 3.985-3.986z"/><path id="djsbc" d="M707.926 818.481c0 .495-.2.977-.55 1.326-.348.35-.832.549-1.325.549a1.879 1.879 0 0 1-1.875-1.875c0-.493.199-.977.55-1.326.348-.348.83-.549 1.325-.549.493 0 .977.2 1.326.55.349.348.55.832.55 1.325z"/><path id="djsbd" d="M685.545 794.28c-.29.7-.974 1.157-1.733 1.157h-7.215a9.322 9.322 0 0 1-8.675 5.813h-23.547c-5.17 0-9.375-4.206-9.375-9.375v-16.5c0-5.17 4.206-9.375 9.375-9.375h23.547c5.17 0 9.375 4.206 9.375 9.375v9.02l7.841 7.842c.536.536.697 1.342.407 2.043zm-6.26-2.593l-5.19-5.19a1.875 1.875 0 0 1-.548-1.325v-9.797a5.631 5.631 0 0 0-5.625-5.625h-23.547a5.631 5.631 0 0 0-5.625 5.625v16.5a5.632 5.632 0 0 0 5.625 5.625h23.547a5.594 5.594 0 0 0 5.48-4.358 1.875 1.875 0 0 1 1.827-1.455z"/><path id="djsbe" d="M731 836.125v16.5c0 5.17-4.206 9.375-9.375 9.375h-23.547c-5.17 0-9.375-4.206-9.375-9.375v-9.02l-7.841-7.842a1.876 1.876 0 0 1 1.326-3.2h7.215a9.323 9.323 0 0 1 8.675-5.813h23.547c5.17 0 9.375 4.206 9.375 9.375zm-3.75 0a5.632 5.632 0 0 0-5.625-5.625h-23.547a5.594 5.594 0 0 0-5.48 4.358 1.875 1.875 0 0 1-1.827 1.454h-4.057l5.19 5.19c.351.352.55.829.55 1.326v9.797a5.631 5.631 0 0 0 5.624 5.625h23.547a5.632 5.632 0 0 0 5.625-5.625z"/><path id="djsbf" d="M718.28 842.038l-6.31 6.31c-.367.366-.847.549-1.327.549s-.96-.183-1.326-.55l-3.643-3.643a1.875 1.875 0 0 1 2.652-2.652l2.317 2.318 4.985-4.984a1.875 1.875 0 1 1 2.651 2.652z"/><path id="djsbg" d="M660.062 785.109v.545a1.875 1.875 0 1 1-3.75 0v-1a3.15 3.15 0 0 1 2.48-3.087 2.74 2.74 0 0 0 2.14-2.884 2.751 2.751 0 0 0-5.496.2 1.875 1.875 0 1 1-3.75 0c0-1.796.753-3.529 2.066-4.754a6.447 6.447 0 0 1 4.892-1.732c3.215.221 5.807 2.813 6.028 6.028.213 3.078-1.705 5.817-4.61 6.684z"/><path id="djsbh" d="M660.063 792.83c0 .492-.2.976-.55 1.325a1.89 1.89 0 0 1-1.325.55c-.495 0-.977-.201-1.326-.55a1.882 1.882 0 0 1-.549-1.326c0-.493.199-.977.55-1.325.348-.35.83-.55 1.325-.55.493 0 .977.2 1.326.55.348.348.549.832.549 1.325z"/><path id="djsbi" d="M655.906 852.625c0 .493-.2.977-.55 1.326a1.89 1.89 0 0 1-1.325.549c-.493 0-.977-.2-1.325-.55a1.89 1.89 0 0 1-.55-1.325c0-.493.2-.977.55-1.326a1.89 1.89 0 0 1 1.325-.55c.493 0 .977.202 1.326.55.349.349.55.833.55 1.326z"/></defs><g><g transform="translate(-635 -766)"><g><g><use xlink:href="#djsba"/></g><g><use xlink:href="#djsbb"/></g><g><use xlink:href="#djsbc"/></g><g><use xlink:href="#djsbd"/></g><g><use xlink:href="#djsbe"/></g><g><use xlink:href="#djsbf"/></g><g><use xlink:href="#djsbg"/></g><g><use xlink:href="#djsbh"/></g><g><use xlink:href="#djsbi"/></g></g></g></g>
</svg>
