<?xml version="1.0" encoding="utf-8"?>
<!-- Generator: Adobe Illustrator 26.0.1, SVG Export Plug-In . SVG Version: 6.00 Build 0)  -->
<svg version="1.1" id="Layer_1" xmlns="http://www.w3.org/2000/svg" xmlns:xlink="http://www.w3.org/1999/xlink" x="0px" y="0px"
	 viewBox="0 0 1846.9 375.4" style="enable-background:new 0 0 1846.9 375.4;" xml:space="preserve">
<style type="text/css">
	.st0{fill:#0585FF;}
	.st1{fill:#333333;}
	.st2{fill:#353535;}
</style>
<rect y="187.7" class="st0" width="89" height="187.7"/>
<rect x="103.8" y="108.6" class="st1" width="89" height="266.8"/>
<g>
	<rect x="207.6" class="st1" width="89" height="375.4"/>
	<polygon class="st1" points="296.6,375.4 296.6,229.7 469.5,0 578.1,0 	"/>
</g>
<g>
	<path class="st2" d="M994.2,116.6c28.1,0,55.4,7.3,76.1,20l-19.9,37.2c-20.2-10.4-44.1-16.6-61.4-16.6c-9,0-16.8,3.5-16.8,11.8
		c0,5.6,3.2,7.8,30.7,14.8c41.5,11.2,71,21.5,71,58.1c0,38.1-28.6,59-74,59c-32.9,0-62.6-8.6-86.8-24.9l21.3-36
		c22.8,13.1,48.4,19.7,71,19.7c9.7,0,18.3-3.5,18.3-11.6c0-10.2-5.1-11.4-34.2-18.7c-39.9-9.9-68.8-19.4-68.8-54.4
		C920.7,134.9,952.9,116.6,994.2,116.6L994.2,116.6z"/>
</g>
<g>
	<path class="st2" d="M1752.2,119.2c52.3,0,94.7,38.7,94.7,89.6c0,50.9-42.4,89.6-94.7,89.6h-75.8V119.2L1752.2,119.2z M1724,255.3
		h26.4c26.4,0,47.8-20.1,47.8-46.5c0-26.4-21.4-46.5-47.8-46.5H1724L1724,255.3z"/>
</g>
<g>
	<path class="st2" d="M1590.4,298.4l-71.3-99.9v99.9h-46.8V119.2h49.2l71.3,100v-100h46.8v179.2H1590.4z"/>
</g>
<g>
	<path class="st2" d="M1445.3,208.8c0,50.9-42.4,92.2-94.7,92.2c-52.3,0-94.7-41.3-94.7-92.2c0-50.9,42.4-92.2,94.7-92.2
		C1402.9,116.6,1445.3,157.9,1445.3,208.8z M1305.5,208.8c0,25.9,18.7,46.9,45.1,46.9c26.5,0,45.1-21,45.1-46.9
		c0-25.9-18.7-46.9-45.1-46.9C1324.2,161.9,1305.5,182.9,1305.5,208.8z"/>
</g>
<g>
	<path class="st2" d="M1195,298.4h-47.6v-61l-70.3-118.2h56.9l37.4,66.6l37.6-66.6h56.3L1195,236.7V298.4z"/>
</g>
<g>
	<path class="st2" d="M847.8,298.4V119.2h47.6v179.2H847.8z"/>
</g>
<g>
	<path class="st0" d="M707.4,298.4l-66.9-179.2h56.9l41.3,122.6l41.7-122.6h56.9l-67.5,179.2H707.4z"/>
</g>
</svg>
