<?xml version="1.0" encoding="utf-8"?>
<!-- Generator: Adobe Illustrator 26.0.1, SVG Export Plug-In . SVG Version: 6.00 Build 0)  -->
<svg version="1.1" id="Layer_1" xmlns="http://www.w3.org/2000/svg" xmlns:xlink="http://www.w3.org/1999/xlink" x="0px" y="0px"
	 viewBox="0 0 1846.9 375.4" style="enable-background:new 0 0 1846.9 375.4;" xml:space="preserve">
<style type="text/css">
	.st0{fill:#B3EBFF;}
	.st1{fill:#65CEFB;}
	.st2{fill:#0585FF;}
	.st3{fill:#52556C;}
	.st4{font-family:'Loew-Heavy';}
	.st5{font-size:256.9317px;}
	.st6{font-family:'HurmeGeometricSans4-Black';}
	.st7{font-size:254.7604px;}
	.st8{font-size:254.6212px;}
	.st9{font-size:258.7818px;}
	.st10{font-size:255.2214px;}
	.st11{font-size:256.0258px;}
</style>
<rect y="187.7" class="st0" width="89" height="187.7"/>
<rect x="98.8" y="108.6" class="st1" width="89" height="266.8"/>
<rect x="197.6" y="0" class="st2" width="89" height="375.4"/>
<text transform="matrix(0.9525 0 0 1 910.8321 292.9036)" class="st3 st4 st5">S</text>
<text transform="matrix(0.9991 0 0 1 1665.1827 292.0901)" class="st3 st6 st7">D</text>
<text transform="matrix(1.0208 0 0 1 1462.5997 291.93)" class="st3 st6 st8">N</text>
<text transform="matrix(0.9676 0 0 1 1249.4025 292.9026)" class="st3 st6 st9">O</text>
<text transform="matrix(1.0217 0 0 1 1077.7843 292.3509)" class="st3 st6 st10">Y</text>
<text transform="matrix(0.9685 0 0 1 836.5489 292.8382)" class="st3 st6 st11">I</text>
<text transform="matrix(0.9867 0 0 1 641.1094 292.9026)" class="st3 st6 st11">V</text>
<polygon class="st3" points="286.6,375.4 286.6,229.7 459.5,0 568.1,0 "/>
</svg>
